<svg version="1.1" viewBox="0 0 530 530" xmlns="http://www.w3.org/2000/svg">
  <path id="4" d="m300.22 280h209.56c11.201 0 20.22 9.0179 20.22 20.22v209.56c0 11.201-9.0179 20.22-20.22 20.22h-209.56c-11.201 0-20.22-9.0179-20.22-20.22v-209.56c0-11.201 9.0179-20.22 20.22-20.22z" fill="#fff" stop-color="#000000" stroke-width="1.0059"/>
  <path id="3" d="m20.22 280h209.56c11.201 0 20.22 9.0179 20.22 20.22v209.56c0 11.201-9.0179 20.22-20.22 20.22h-209.56c-11.201 0-20.22-9.0179-20.22-20.22v-209.56c0-11.201 9.0179-20.22 20.22-20.22z" fill="#fff" stop-color="#000000" stroke-width="1.0059"/>
  <path id="2" d="m300.22 0h209.56c11.201 0 20.22 9.0179 20.22 20.22v209.56c0 11.201-9.0179 20.22-20.22 20.22h-209.56c-11.201 0-20.22-9.0179-20.22-20.22v-209.56c0-11.201 9.0179-20.22 20.22-20.22z" fill="#fff" stop-color="#000000" stroke-width="1.0059"/>
  <path id="1" d="M 20.22,0 H 229.78 C 240.981,0 250,9.0179 250,20.22 V 229.78 C 250,240.981 240.9821,250 229.78,250 H 20.22 C 9.019,250 0,240.9821 0,229.78 V 20.22 C 0,9.019 9.0179,0 20.22,0 Z" fill="#fff" stop-color="#000000" stroke-width="1.0059"/>
  <g transform="matrix(1.3009,0,0,1.3009,196.75,526.02)">
    <path transform="scale(.26458)" d="m-188.28-569.53a5.6699 5.6699 0 0 0-2.8848 0.79687c-77.398 46.081-154.79 92.159-232.19 138.24a5.6699 5.6699 0 0 0 3.5801 10.506l28.893-3.4844v284.08a5.6699 5.6699 0 0 0 6.3496 5.625l163.34-19.695c22.406-2.702 44.814-5.4035 67.221-8.1055l163.4-19.701a5.6699 5.6699 0 0 0 4.9902-5.6328v-285.45l30.199-3.6426a5.6699 5.6699 0 0 0 1.2109-10.977c-77.398-27.415-154.79-54.828-232.19-82.242a5.6699 5.6699 0 0 0-1.9121-0.32422zm0.63476 11.898c68.963 24.427 137.92 48.854 206.88 73.281l-413.78 49.9c68.965-41.061 137.93-82.121 206.89-123.18zm190.72 88.229v277.48l-152.3 18.365v-113.11a5.3952 5.3952 0 0 0-5.6543-5.3887 5.3952 5.3952 0 0 0-0.38476 0.0371c-22.406 2.702-44.812 5.4035-67.219 8.1055a5.3952 5.3952 0 0 0-4.7539 5.3516v114.41l-152.3 18.365v-277.48zm-34.99 39.361a5.6699 5.6699 0 0 0-0.63477 0.0371c-24.244 2.9235-48.483 5.846-72.727 8.7695a5.6699 5.6699 0 0 0-4.9902 5.6328v72.727a5.6699 5.6699 0 0 0 6.3496 5.6309c24.244-2.9235 48.483-5.846 72.727-8.7695a5.6699 5.6699 0 0 0 4.9902-5.6328v-72.725a5.6699 5.6699 0 0 0-5.7148-5.6699zm-5.625 12.062v61.312c-20.464 2.4677-40.923 4.9288-61.387 7.3965v-61.312c20.464-2.4677 40.923-4.9288 61.387-7.3965zm-114.37 2.4062a5.6699 5.6699 0 0 0-0.63477 0.043c-24.244 2.9235-48.483 5.846-72.727 8.7695a5.6699 5.6699 0 0 0-4.9902 5.625v72.734a5.6699 5.6699 0 0 0 6.3496 5.625c24.244-2.9235 48.483-5.846 72.727-8.7695a5.6699 5.6699 0 0 0 4.9902-5.625v-72.734a5.6699 5.6699 0 0 0-5.7148-5.668zm-5.625 12.061v61.314c-20.464 2.4677-40.923 4.9288-61.387 7.3965v-61.307c20.464-2.4677 40.923-4.9366 61.387-7.4043zm-114.38 2.4082a5.6699 5.6699 0 0 0-0.63477 0.043c-24.244 2.9235-48.483 5.846-72.727 8.7695a5.6699 5.6699 0 0 0-4.9902 5.625v72.734a5.6699 5.6699 0 0 0 6.3496 5.6328c24.244-2.9235 48.483-5.8538 72.727-8.7773a5.6699 5.6699 0 0 0 4.9902-5.625v-72.734a5.6699 5.6699 0 0 0-5.7148-5.668zm-5.625 12.068v61.307c-20.464 2.4677-40.923 4.9366-61.387 7.4043v-61.314c20.464-2.4677 40.923-4.9288 61.387-7.3965zm245.62 74.166a5.6699 5.6699 0 0 0-0.63477 0.0449c-24.244 2.9235-48.483 5.846-72.727 8.7695a5.6699 5.6699 0 0 0-4.9902 5.6328v72.725a5.6699 5.6699 0 0 0 6.3496 5.6328c24.244-2.9235 48.483-5.846 72.727-8.7695a5.6699 5.6699 0 0 0 4.9902-5.6328v-72.732a5.6699 5.6699 0 0 0-5.7148-5.6699zm-5.625 12.07v61.312c-20.464 2.4677-40.923 4.9288-61.387 7.3965v-61.312c20.464-2.4677 40.923-4.9288 61.387-7.3965zm-234.37 16.875a5.6699 5.6699 0 0 0-0.63477 0.043c-24.244 2.9235-48.483 5.846-72.727 8.7695a5.6699 5.6699 0 0 0-4.9902 5.625v72.734a5.6699 5.6699 0 0 0 6.3496 5.625c24.244-2.9235 48.483-5.846 72.727-8.7695a5.6699 5.6699 0 0 0 4.9902-5.625v-72.734a5.6699 5.6699 0 0 0-5.7148-5.668zm111.89 5.3438v108.32l-56.426 6.8047v-108.33c18.809-2.2681 37.617-4.5307 56.426-6.7988zm-117.52 6.7246v61.307c-20.464 2.4677-40.923 4.9288-61.387 7.3965v-61.307c20.464-2.4677 40.923-4.9288 61.387-7.3965z" color="#000000" color-rendering="auto" dominant-baseline="auto" image-rendering="auto" shape-rendering="auto" solid-color="#000000" stop-color="#000000" style="font-feature-settings:normal;font-variant-alternates:normal;font-variant-caps:normal;font-variant-east-asian:normal;font-variant-ligatures:normal;font-variant-numeric:normal;font-variant-position:normal;font-variation-settings:normal;inline-size:0;isolation:auto;mix-blend-mode:normal;shape-margin:0;shape-padding:0;text-decoration-color:#000000;text-decoration-line:none;text-decoration-style:solid;text-indent:0;text-orientation:mixed;text-transform:none;white-space:normal"/>
    <path d="m-162.62-49.12h16.606c18.162 0.45124 30.013 3.3274 44.093 12.241" fill="none" stroke="#000" stroke-dasharray="4, 2, 1, 2" stroke-dashoffset="20" stroke-width="2"/>
    <path d="m2.313-49.449h50" fill="none" stroke="#000" stroke-dasharray="4, 2, 1, 2" stroke-dashoffset="19.344" stroke-width="2"/>
    <path d="m-108.28-53.227h0.34861v-44.42h-4.1772v32.183l-7.3796-5.0778z" fill="#f00"/>
  </g>
  <g transform="matrix(1.3312,0,0,1.3312,755.94,79.529)">
    <path transform="scale(.26458)" d="m-996.04-83.838a5.6699 5.6699 0 0 0-0.12109 2e-3 5.6699 5.6699 0 0 0-2.0234 0.43555c-78.936 32.771-148.83 59.168-231.07 93.986a5.6699 5.6699 0 0 0 2.082 10.895c10.374 0.23209 20.604 0.58701 30.728 1.0254-0.1282 19.178-0.1029 78.925-0.3906 140.63-0.3021 64.817-1.0203 130.91-2.4941 148a5.6699 5.6699 0 0 0 4.6426 6.0684c67.166 12.085 115.77 23.218 179.75 24.635 10.314 0.25547 20.615 0.25467 30.982-0.0156 7.1923-0.18732 14.37-0.50478 21.557-0.9375a5.3952 5.3952 0 0 0 0.50782-0.0547c58.26-3.4342 103.9-13.867 163.8-23.967a5.6699 5.6699 0 0 0 4.7246-5.7871c-1.3522-38.825-1.1193-248.54-1.2012-288.57 10.133-0.53801 20.252-0.97318 30.338-1.2324a5.6699 5.6699 0 0 0 2.1406-10.857c-74.947-33.024-147.88-53.783-219.23-87.809-4.0571-1.9332-8.1187-3.8879-12.195-5.875a5.6699 5.6699 0 0 0-2.5137-0.57812zm-0.17382 11.865c3.3392 1.621 6.6745 3.2398 10.004 4.8262 64.774 30.888 130.07 51.167 196.11 78.359-66.347 3.2498-132.74 11.326-195.57 11.006a5.6699 5.6699 0 0 0-0.0156 0c-71.09-0.1905-139.89-7.9342-215.23-10.977 70.732-29.419 134.68-54.192 204.71-83.215zm-188.89 96.732c68.451 3.622 132.69 10.165 199.38 10.334 73.138 0.3619 107.03-4.7986 179.83-9.9961 0.075 40.507-0.14987 236.38 1.166 281.41-55.92 9.5685-99.405 19.114-152.84 22.684-1.7135-43.546-2.0621-88.392-2.166-127.83a5.3952 5.3952 0 0 0-5.5508-5.375c-6.9117 0.20069-13.771 0.32293-20.625 0.36914a5.3952 5.3952 0 0 0-0.0156 0c-15.028 0.1381-29.778-0.0716-44.682-0.61133a5.3952 5.3952 0 0 0-0.377 0 5.3952 5.3952 0 0 0-5.2109 5.3887c-0.052 38.981-0.093 84.941 0.1211 128.5-51.45-3.0265-94.875-12.403-151.8-22.746 1.4852-22.168 2.0884-81.794 2.377-143.7 0.2897-62.169 0.2621-119.97 0.3906-138.43zm34.318 37.469a5.6699 5.6699 0 0 0-5.7265 5.6621c-0.049 26.966-0.065 45.21-0.024 72.801a5.6699 5.6699 0 0 0 5.2051 5.6465c26.097 2.158 48.158 4.1561 73.922 5.7812a5.6699 5.6699 0 0 0 6.0312-5.6621c0-24.896-0.01-49.278-0.023-73.258a5.6699 5.6699 0 0 0-5.3516-5.6543c-25.456-1.4132-47.64-3.258-73.648-5.3008a5.6699 5.6699 0 0 0-0.3828-0.01563zm309.1 0a5.6699 5.6699 0 0 0-0.38282 0.01563c-26.008 2.0428-48.194 3.8876-73.65 5.3008a5.6699 5.6699 0 0 0-5.3516 5.6543c-0.0141 23.98-0.0177 48.361-0.0215 73.258a5.6699 5.6699 0 0 0 6.0312 5.6621c25.764-1.6251 47.825-3.6232 73.922-5.7812a5.6699 5.6699 0 0 0 5.2051-5.6465c0.0416-27.591 0.0246-45.835-0.0234-72.801a5.6699 5.6699 0 0 0-5.7285-5.6621zm-191.7 6.4746a5.6699 5.6699 0 0 0-5.5937 5.6621c-0.016 11.734-0.067 62.103-0.082 73.826a5.6699 5.6699 0 0 0 5.4707 5.6699c15.927 0.56432 31.668 0.82049 47.746 0.73047 7.8203-0.024 15.645-0.14052 23.541-0.33985a5.6699 5.6699 0 0 0 5.5215-5.6621c8e-3 -7.562 0.0374-66.067 0.0449-73.59a5.6699 5.6699 0 0 0-5.7812-5.6758c-7.8171 0.14856-15.558 0.21636-23.297 0.20508a5.6699 5.6699 0 0 0-0.0156 0c-15.913 0.01742-31.497-0.27269-47.279-0.82617l0.01 0.0078a5.6699 5.6699 0 0 0-0.08-0.0078 5.6699 5.6699 0 0 0-0.2012 0zm-111.79 5.2852c21.472 1.6958 41.155 3.2348 62.434 4.4883 0.011 20.294 0.021 40.902 0.023 61.854-21.234-1.4191-40.781-3.0753-62.48-4.8867-0.028-22.234-0.01-39.813 0.024-61.455zm297.88 0c0.0354 21.642 0.0501 39.221 0.0215 61.455-21.699 1.8114-41.246 3.4676-62.48 4.8867 2e-3 -20.952 0.0135-41.56 0.0234-61.854 21.279-1.2535 40.963-2.7924 62.436-4.4883zm-180.36 6.1562c13.92 0.43077 27.743 0.74003 41.826 0.72461 5.8939 0.0085 11.817-0.07314 17.746-0.15625-8e-3 12.59-0.0342 49.881-0.043 62.289-5.9404 0.11933-11.874 0.23389-17.777 0.25196a5.6699 5.6699 0 0 0-0.0137 0c-14.074 0.0788-27.886-0.21201-41.805-0.64258 0.017-14.507 0.049-47.84 0.066-62.467zm-122.7 98.119a5.6699 5.6699 0 0 0-5.5859 5.6699c0.019 24.504-0.041 51.018-0.6269 76.256a5.6699 5.6699 0 0 0 4.916 5.75c24.437 3.275 46.79 6.3225 71.272 8.748a5.6699 5.6699 0 0 0 6.2304-5.5742c0.3293-26.636 0.4707-53.681 0.5528-78.949a5.6699 5.6699 0 0 0-5.2481-5.668c-24.594-1.8375-45.73-3.9525-70.926-6.209a5.6699 5.6699 0 0 0-0.3828-0.0215 5.6699 5.6699 0 0 0-0.2012-2e-3zm308.63 0.14258a5.6699 5.6699 0 0 0-0.48633 0.0215c-25.904 2.4334-48.219 4.6874-73.59 6.5117a5.6699 5.6699 0 0 0-5.2637 5.668c0.0581 25.048 0.21611 52.196 0.79687 78.529a5.6699 5.6699 0 0 0 6.2227 5.5137c25.131-2.4716 48.322-5.5938 73.523-8.9316a5.6699 5.6699 0 0 0 4.9238-5.707c-0.40588-25.081-0.4367-51.529-0.41406-75.938a5.6699 5.6699 0 0 0-5.7129-5.668zm-302.93 11.715c20.577 1.8698 39.306 3.625 59.682 5.2109-0.077 21.749-0.2169 44.574-0.4727 67.316-20.15-2.1128-39.378-4.6069-59.74-7.3379 0.4433-21.764 0.534-44.029 0.5312-65.189zm297.34 0.14063c-0.01 21.071 0.0477 43.23 0.35351 64.826-21.153 2.8034-41.173 5.3709-62.037 7.5371-0.43823-22.476-0.61533-45.262-0.67773-66.842 21.235-1.6034 40.97-3.4944 62.361-5.5215zm-178.09 16.342c13.167 0.40504 26.266 0.66917 39.574 0.54687 5.1175-0.0346 10.257-0.16144 15.398-0.28125 0.11992 38.252 0.53582 81.014 2.1875 122.95-5.2332 0.26314-10.561 0.47535-16.021 0.61719-14.467 0.37635-28.03 0.26112-41.016-0.26172-0.2076-41.803-0.1722-85.547-0.1231-123.57z" color="#000000" color-rendering="auto" dominant-baseline="auto" image-rendering="auto" shape-rendering="auto" solid-color="#000000" stop-color="#000000" style="font-feature-settings:normal;font-variant-alternates:normal;font-variant-caps:normal;font-variant-east-asian:normal;font-variant-ligatures:normal;font-variant-numeric:normal;font-variant-position:normal;font-variation-settings:normal;inline-size:0;isolation:auto;mix-blend-mode:normal;shape-margin:0;shape-padding:0;text-decoration-color:#000000;text-decoration-line:none;text-decoration-style:solid;text-indent:0;text-orientation:mixed;text-transform:none;white-space:normal"/>
    <path d="m-277.62 80.577h0.34861v-44.42h-4.1772v32.183l-7.3796-5.0778z" fill="#f00"/>
    <path d="m-250.38 80.577h-0.34861v-44.42h4.1772v32.183l7.3796-5.0778z" fill="#f00"/>
    <path d="m-211.41 82.358h50" fill="none" stroke="#000" stroke-dasharray="4, 2, 1, 2" stroke-dashoffset="19.344" stroke-width="2"/>
    <path d="m-365.83 82.451h50" fill="none" stroke="#000" stroke-dasharray="4, 2, 1, 2" stroke-dashoffset="19.344" stroke-width="2"/>
  </g>
  <g transform="matrix(1.3758,0,0,1.3758,6.6025,23.917)">
    <g fill="none" stroke="#000" stroke-linecap="round" stroke-linejoin="round">
      <rect x="33.937" y="50.043" width="104.24" height="76.439" stroke-width="3"/>
      <path d="m24.628 49.626h122.87l-61.434-29.169-61.434 29.169" stroke-width="3"/>
      <rect x="77.162" y="94.872" width="17.785" height="31.683" stroke-width="2.8547"/>
      <rect x="108.18" y="62.353" width="19.243" height="19.243" stroke-width="3"/>
      <rect x="76.433" y="62.353" width="19.243" height="19.243" stroke-width="3"/>
      <rect x="44.683" y="62.353" width="19.243" height="19.243" stroke-width="3"/>
      <rect x="108.18" y="92.828" width="19.243" height="19.243" stroke-width="3"/>
      <rect x="44.683" y="92.828" width="19.243" height="19.243" stroke-width="3"/>
    </g>
    <path d="m27.789 110.81h0.34861v-44.42h-4.1772v32.183l-7.3796-5.0778z" fill="#f00"/>
    <path d="m143.4 110.81h-0.34861v-44.42h4.1772v32.183l7.3796-5.0778z" fill="#f00"/>
    <path d="m-26.762 114.24h16.606c18.162 0.45124 30.013 3.3274 44.093 12.241" fill="none" stroke="#000" stroke-dasharray="4, 2, 1, 2" stroke-dashoffset="20" stroke-width="2"/>
    <path d="m198.87 114.24h-16.606c-18.162 0.45124-30.013 3.3274-44.093 12.241" fill="none" stroke="#000" stroke-dasharray="4, 2, 1, 2" stroke-dashoffset="20" stroke-width="2"/>
  </g>
  <g transform="matrix(-1.3009,0,0,1.3009,333.25,526.03)">
    <path transform="scale(.26458)" d="m-188.28-569.53a5.6699 5.6699 0 0 0-2.8848 0.79687c-77.398 46.081-154.79 92.159-232.19 138.24a5.6699 5.6699 0 0 0 3.5801 10.506l28.893-3.4844v284.08a5.6699 5.6699 0 0 0 6.3496 5.625l163.34-19.695c22.406-2.702 44.814-5.4035 67.221-8.1055l163.4-19.701a5.6699 5.6699 0 0 0 4.9902-5.6328v-285.45l30.199-3.6426a5.6699 5.6699 0 0 0 1.2109-10.977c-77.398-27.415-154.79-54.828-232.19-82.242a5.6699 5.6699 0 0 0-1.9121-0.32422zm0.63476 11.898c68.963 24.427 137.92 48.854 206.88 73.281l-413.78 49.9c68.965-41.061 137.93-82.121 206.89-123.18zm190.72 88.229v277.48l-152.3 18.365v-113.11a5.3952 5.3952 0 0 0-5.6543-5.3887 5.3952 5.3952 0 0 0-0.38476 0.0371c-22.406 2.702-44.812 5.4035-67.219 8.1055a5.3952 5.3952 0 0 0-4.7539 5.3516v114.41l-152.3 18.365v-277.48zm-34.99 39.361a5.6699 5.6699 0 0 0-0.63477 0.0371c-24.244 2.9235-48.483 5.846-72.727 8.7695a5.6699 5.6699 0 0 0-4.9902 5.6328v72.727a5.6699 5.6699 0 0 0 6.3496 5.6309c24.244-2.9235 48.483-5.846 72.727-8.7695a5.6699 5.6699 0 0 0 4.9902-5.6328v-72.725a5.6699 5.6699 0 0 0-5.7148-5.6699zm-5.625 12.062v61.312c-20.464 2.4677-40.923 4.9288-61.387 7.3965v-61.312c20.464-2.4677 40.923-4.9288 61.387-7.3965zm-114.37 2.4062a5.6699 5.6699 0 0 0-0.63477 0.043c-24.244 2.9235-48.483 5.846-72.727 8.7695a5.6699 5.6699 0 0 0-4.9902 5.625v72.734a5.6699 5.6699 0 0 0 6.3496 5.625c24.244-2.9235 48.483-5.846 72.727-8.7695a5.6699 5.6699 0 0 0 4.9902-5.625v-72.734a5.6699 5.6699 0 0 0-5.7148-5.668zm-5.625 12.061v61.314c-20.464 2.4677-40.923 4.9288-61.387 7.3965v-61.307c20.464-2.4677 40.923-4.9366 61.387-7.4043zm-114.38 2.4082a5.6699 5.6699 0 0 0-0.63477 0.043c-24.244 2.9235-48.483 5.846-72.727 8.7695a5.6699 5.6699 0 0 0-4.9902 5.625v72.734a5.6699 5.6699 0 0 0 6.3496 5.6328c24.244-2.9235 48.483-5.8538 72.727-8.7773a5.6699 5.6699 0 0 0 4.9902-5.625v-72.734a5.6699 5.6699 0 0 0-5.7148-5.668zm-5.625 12.068v61.307c-20.464 2.4677-40.923 4.9366-61.387 7.4043v-61.314c20.464-2.4677 40.923-4.9288 61.387-7.3965zm245.62 74.166a5.6699 5.6699 0 0 0-0.63477 0.0449c-24.244 2.9235-48.483 5.846-72.727 8.7695a5.6699 5.6699 0 0 0-4.9902 5.6328v72.725a5.6699 5.6699 0 0 0 6.3496 5.6328c24.244-2.9235 48.483-5.846 72.727-8.7695a5.6699 5.6699 0 0 0 4.9902-5.6328v-72.732a5.6699 5.6699 0 0 0-5.7148-5.6699zm-5.625 12.07v61.312c-20.464 2.4677-40.923 4.9288-61.387 7.3965v-61.312c20.464-2.4677 40.923-4.9288 61.387-7.3965zm-234.37 16.875a5.6699 5.6699 0 0 0-0.63477 0.043c-24.244 2.9235-48.483 5.846-72.727 8.7695a5.6699 5.6699 0 0 0-4.9902 5.625v72.734a5.6699 5.6699 0 0 0 6.3496 5.625c24.244-2.9235 48.483-5.846 72.727-8.7695a5.6699 5.6699 0 0 0 4.9902-5.625v-72.734a5.6699 5.6699 0 0 0-5.7148-5.668zm111.89 5.3438v108.32l-56.426 6.8047v-108.33c18.809-2.2681 37.617-4.5307 56.426-6.7988zm-117.52 6.7246v61.307c-20.464 2.4677-40.923 4.9288-61.387 7.3965v-61.307c20.464-2.4677 40.923-4.9288 61.387-7.3965z" color="#000000" color-rendering="auto" dominant-baseline="auto" image-rendering="auto" shape-rendering="auto" solid-color="#000000" stop-color="#000000" style="font-feature-settings:normal;font-variant-alternates:normal;font-variant-caps:normal;font-variant-east-asian:normal;font-variant-ligatures:normal;font-variant-numeric:normal;font-variant-position:normal;font-variation-settings:normal;inline-size:0;isolation:auto;mix-blend-mode:normal;shape-margin:0;shape-padding:0;text-decoration-color:#000000;text-decoration-line:none;text-decoration-style:solid;text-indent:0;text-orientation:mixed;text-transform:none;white-space:normal"/>
    <path d="m-162.62-49.12h16.606c18.162 0.45124 30.013 3.3274 44.093 12.241" fill="none" stroke="#000" stroke-dasharray="4, 2, 1, 2" stroke-dashoffset="20" stroke-width="2"/>
    <path d="m2.313-49.449h50" fill="none" stroke="#000" stroke-dasharray="4, 2, 1, 2" stroke-dashoffset="19.344" stroke-width="2"/>
    <path d="m-108.28-53.227h0.34861v-44.42h-4.1772v32.183l-7.3796-5.0778z" fill="#f00"/>
  </g>
</svg>
