<svg version="1.1" viewBox="0 0 810 845" xmlns="http://www.w3.org/2000/svg">
  <path id="non_structural" d="m31.197 2.0098c-5.6801 0.13624-11.311 1.9202-16.014 5.1133-0.27937 0.18594-0.86451 0.59915-1.2532 0.89482-2.6578 1.9989-4.9741 4.447-6.8347 7.2028-0.18414 0.28349-0.58244 0.88516-0.83006 1.3069-3.0285 4.9901-4.4546 10.875-4.2656 16.696 0.00651 45.194-0.01302 90.388 0.00977 135.58 0.13671 5.6794 1.9205 11.31 5.1133 16.012 0.18594 0.27937 0.59915 0.8645 0.89482 1.2532 1.9989 2.6578 4.447 4.9741 7.2028 6.8347 0.28349 0.18414 0.88516 0.58243 1.3069 0.83006 4.9901 3.0285 10.875 4.4546 16.696 4.2656 248.36-2e-3 496.72 5e-3 745.08-4e-3 5.8494-0.0369 11.675-1.8326 16.516-5.1194 0.27937-0.18593 0.8645-0.59915 1.2532-0.89481 2.6578-1.9989 4.9741-4.447 6.8347-7.2028 0.18414-0.28349 0.58243-0.88516 0.83006-1.3069 3.0285-4.9901 4.4546-10.875 4.2656-16.696-7e-3 -45.194 0.013-90.388-0.01-135.58-0.13671-5.6794-1.9205-11.31-5.1133-16.012-0.18593-0.27937-0.59915-0.86451-0.89481-1.2532-1.9989-2.6578-4.447-4.9741-7.2028-6.8347-0.28349-0.18414-0.88516-0.58244-1.3069-0.83006-4.9898-3.0282-10.875-4.4542-16.696-4.2653-248.36 0.00243-496.72-0.00487-745.08 0.00365-0.16758 0.00204-0.33517 0.00408-0.50276 0.00612z" fill="#9ade00" stop-color="#000000" stroke-width="34.647"/>
  <path id="light" d="m31.197 217.01c-5.6801 0.13624-11.311 1.9202-16.014 5.1133-0.27937 0.18593-0.86451 0.59915-1.2532 0.89481-2.6578 1.9989-4.9741 4.447-6.8347 7.2028-0.18414 0.28349-0.58244 0.88516-0.83006 1.3069-3.0285 4.9901-4.4546 10.875-4.2656 16.696 0.00651 45.194-0.01302 90.388 0.00977 135.58 0.13671 5.6794 1.9205 11.31 5.1133 16.012 0.18594 0.27937 0.59915 0.8645 0.89482 1.2532 1.9989 2.6578 4.447 4.9741 7.2028 6.8347 0.28349 0.18414 0.88516 0.58243 1.3069 0.83006 4.9901 3.0285 10.875 4.4546 16.696 4.2656 248.36-2e-3 496.72 5e-3 745.08-4e-3 5.8494-0.0369 11.675-1.8326 16.516-5.1194 0.27937-0.18593 0.8645-0.59915 1.2532-0.89481 2.6578-1.9989 4.9741-4.447 6.8347-7.2028 0.18414-0.28349 0.58243-0.88516 0.83006-1.3069 3.0285-4.9901 4.4546-10.875 4.2656-16.696-7e-3 -45.194 0.013-90.388-0.01-135.58-0.13671-5.6794-1.9205-11.31-5.1133-16.012-0.18593-0.27937-0.59915-0.8645-0.89481-1.2532-1.9989-2.6578-4.447-4.9741-7.2028-6.8347-0.28349-0.18414-0.88516-0.58243-1.3069-0.83006-4.9901-3.0285-10.875-4.4546-16.696-4.2656-248.36 2e-3 -496.72-5e-3 -745.08 4e-3 -0.16758 2e-3 -0.33517 4e-3 -0.50276 6e-3z" fill="#ffff3e" stop-color="#000000" stroke-width="34.647"/>
  <path id="moderate" d="m31.197 432.01c-5.6801 0.13624-11.311 1.9202-16.014 5.1133-0.27937 0.18593-0.86451 0.59915-1.2532 0.89481-2.6578 1.9989-4.9741 4.447-6.8347 7.2028-0.18414 0.28349-0.58244 0.88516-0.83006 1.3069-3.0285 4.9901-4.4546 10.875-4.2656 16.696 0.00651 45.194-0.01302 90.388 0.00977 135.58 0.13671 5.6794 1.9205 11.31 5.1133 16.012 0.18594 0.27937 0.59915 0.8645 0.89482 1.2532 1.9989 2.6578 4.447 4.9741 7.2028 6.8347 0.28349 0.18414 0.88516 0.58243 1.3069 0.83006 4.9901 3.0285 10.875 4.4546 16.696 4.2656 248.36-2e-3 496.72 5e-3 745.08-4e-3 5.8494-0.0368 11.675-1.8326 16.516-5.1194 0.27937-0.18593 0.8645-0.59915 1.2532-0.89481 2.6578-1.9989 4.9741-4.447 6.8347-7.2028 0.18414-0.28349 0.58243-0.88516 0.83006-1.3069 3.0285-4.9901 4.4546-10.875 4.2656-16.696-7e-3 -45.194 0.013-90.388-0.01-135.58-0.13671-5.6794-1.9205-11.31-5.1133-16.012-0.18593-0.27937-0.59915-0.8645-0.89481-1.2532-1.9989-2.6578-4.447-4.9741-7.2028-6.8347-0.28349-0.18414-0.88516-0.58243-1.3069-0.83006-4.9901-3.0285-10.875-4.4546-16.696-4.2656-248.36 2e-3 -496.72-5e-3 -745.08 4e-3 -0.16758 2e-3 -0.33517 4e-3 -0.50276 6e-3z" fill="#ffc022" stop-color="#000000" stroke-width="34.647"/>
  <path id="colapse" d="m31.197 647.01c-5.6801 0.13624-11.311 1.9202-16.014 5.1133-0.27937 0.18593-0.86451 0.59915-1.2532 0.89481-2.6578 1.9989-4.9741 4.447-6.8347 7.2028-0.18414 0.28349-0.58244 0.88516-0.83006 1.3069-3.0285 4.9901-4.4546 10.875-4.2656 16.696 0.00651 45.194-0.01302 90.388 0.00977 135.58 0.13671 5.6794 1.9205 11.31 5.1133 16.012 0.18594 0.27937 0.59915 0.8645 0.89482 1.2532 1.9989 2.6578 4.447 4.9741 7.2028 6.8347 0.28349 0.18414 0.88516 0.58243 1.3069 0.83006 4.9901 3.0285 10.875 4.4546 16.696 4.2656 248.36-2e-3 496.72 5e-3 745.08-4e-3 5.8494-0.0368 11.675-1.8326 16.516-5.1194 0.27937-0.18593 0.8645-0.59915 1.2532-0.89481 2.6578-1.9989 4.9741-4.447 6.8347-7.2028 0.18414-0.28349 0.58243-0.88516 0.83006-1.3069 3.0285-4.9901 4.4546-10.875 4.2656-16.696-7e-3 -45.194 0.013-90.388-0.01-135.58-0.13671-5.6794-1.9205-11.31-5.1133-16.012-0.18593-0.27937-0.59915-0.8645-0.89481-1.2532-1.9989-2.6578-4.447-4.9741-7.2028-6.8347-0.28349-0.18414-0.88516-0.58243-1.3069-0.83006-4.9901-3.0285-10.875-4.4546-16.696-4.2656-248.36 2e-3 -496.72-5e-3 -745.08 4e-3 -0.16758 2e-3 -0.33517 4e-3 -0.50276 6e-3z" fill="#ff4141" stop-color="#000000" stroke-width="34.647"/>
  <path d="m211.84 225a5.2551 5.2551 0 0 0-2.7185 0.77857l-49.494 30.428 3.9535 17.147-9.3421-11.759-1.178 7.3711-10.158-2.4765-15.142 9.3089-0.0599 0.11988 8.4718 2.8586-6.0206 12.834 11.681 15.458-20.269-13.586 5.2637-10.585-5.0932-3.3945-20.974 12.894a3.8557 3.8557 0 0 0 2.0194 7.14h6.9854v101.27c0 2.3228 1.8697 4.1926 4.1926 4.1926h195.83c2.3228 0 4.1926-1.8697 4.1926-4.1926v-101.27h6.9855a3.8557 3.8557 0 0 0 2.0194-7.14l-24.387-14.993v-28.045c1.6085-0.33961 2.8095-1.7599 2.8095-3.4725v-11.224c0-1.9674-1.5838-3.5512-3.5512-3.5512h-25.477c-1.9674 0-3.5512 1.5838-3.5512 3.5512v11.224c0 1.7126 1.2008 3.1329 2.8095 3.4725v11.471l-6.7399-4.1435-4.873 2.8095 0.93604-5.2304-4.6396-2.8514-15.195 11.564 6.8743-13.352-7.2029 1.9587-2.0519-10.977-24.121-14.83a5.2551 5.2551 0 0 0-2.7864-0.77857zm-59.881 74.289h25.904c2.2985 0 4.1492 1.8508 4.1492 4.1492v25.344c0 2.2985-1.8507 4.1492-4.1492 4.1492h-25.904c-2.2985 0-4.1492-1.8508-4.1492-4.1492v-25.344c0-2.2985 1.8507-4.1492 4.1492-4.1492zm93.925 0h25.904c2.2985 0 4.1492 1.8508 4.1492 4.1492v25.344c0 2.2985-1.8507 4.1492-4.1492 4.1492h-25.904c-2.2985 0-4.1492-1.8508-4.1492-4.1492v-25.344c0-2.2985 1.8507-4.1492 4.1492-4.1492zm-93.925 44.374h25.904c2.2985 0 4.1492 1.8508 4.1492 4.1492v25.344c0 2.2985-1.8507 4.1492-4.1492 4.1492h-25.904c-2.2985 0-4.1492-1.8507-4.1492-4.1492v-25.344c0-2.2985 1.8507-4.1492 4.1492-4.1492zm93.925 0h25.904c2.2985 0 4.1492 1.8508 4.1492 4.1492v25.344c0 2.2985-1.8507 4.1492-4.1492 4.1492h-25.904c-2.2985 0-4.1492-1.8507-4.1492-4.1492v-25.344c0-2.2985 1.8507-4.1492 4.1492-4.1492z"/>
  <path d="m212.62 440a5.2551 5.2551 0 0 0-2.7185 0.77857l-42.958 26.41 5.2666 22.846-9.3414-11.759-1.178 7.3711-17.738-4.3247-12.043 7.4036-1.6626 4.0806 8.6625 2.218-5.0455 13.248 12.803 14.542-21.227-12.034 4.4584-10.948-8.3772-4.7205-19.981 12.285a3.8557 3.8557 0 0 0 2.0186 7.14h6.9862v101.27c0 2.3228 1.869 4.1926 4.1919 4.1926h195.83c2.3228 0 4.1918-1.8698 4.1918-4.1926v-101.27h6.9855a3.8557 3.8557 0 0 0 2.0194-7.14l-24.387-14.993v-12.55l-10.113-4.8924 7.1689 0.0419-2.3898-2.6427 5.3337-4.0929v-3.9095c1.6086-0.33961 2.8102-1.7599 2.8102-3.4725v-11.224c0-1.9674-1.5845-3.5512-3.552-3.5512h-25.476c-1.9674 0-3.552 1.5838-3.552 3.5512v11.224c0 1.7126 1.201 3.1329 2.8095 3.4725v11.471l-11.299-6.9457-8.4487 4.8722 1.6222-9.0698-2.2288-1.3701-18.293 13.923 6.8757-13.352-7.2036 1.9587-2.9525-15.792-15.085-9.275a5.2551 5.2551 0 0 0-2.7871-0.77857zm-59.881 74.289h25.904c2.2985 0 4.15 1.8508 4.15 4.1492v2.3783l0.0556-0.0267 4.0568 4.1709-4.1132 0.29467v2.7106l8.6582 6.8829-8.287-1.9132 2.0786 3.6805-2.4498 1.1339v6.0321c0 2.2985-1.8507 4.1492-4.1492 4.1492h-25.904c-2.2986 0-4.1492-1.8508-4.1492-4.1492v-3.8864l-7.7518-0.92808 7.7518-2.6174v-0.27228l-3.3952-1.8728 3.3952-5.1279v-10.639c0-2.2985 1.8506-4.1492 4.1492-4.1492zm93.925 0h25.904c2.2985 0 4.1492 1.8508 4.1492 4.1492v1.2191l4.5523 4.0019-4.5523-0.19356v3.6112l10.469 7.3004-10.469-2.8001v1.1505l1.7868 2.6362-1.7868 0.43334v7.985c0 2.2985-1.8507 4.1492-4.1492 4.1492h-25.904c-2.2985 0-4.1492-1.8508-4.1492-4.1492v-8.7398l-6.3579 0.299 6.3196-3.3844-3.362-1.1823 3.4003-7.6384v-4.6981c0-2.2985 1.8507-4.1492 4.1492-4.1492zm-93.925 44.373v7.4e-4h25.904c2.2985 0 4.15 1.8508 4.15 4.1492v6.053l3.2681 7.3444-3.2681 1.1491v0.0823l6.2264 3.3346-6.2264-0.29251v7.673c0 2.2985-1.8515 4.1492-4.15 4.1492h-25.904c-2.2987 0-4.1492-1.8507-4.1492-4.1492v-6.3116l-0.24842-0.11556 0.24842-0.43912v-2.8189l-6.4568 1.4907 6.4568-5.1329v-4.618l-1.9118-0.13723 1.9118-1.9652v-5.2969c0-2.2985 1.8506-4.1492 4.1492-4.1492zm93.925 7.4e-4h25.904c2.2985 0 4.1492 1.8508 4.1492 4.1492v10.538l2.5141 3.7961-2.5141 1.3867v1.0559l6.8706 2.3198-6.8706 0.82263v5.4247c0 2.2985-1.8507 4.1492-4.1492 4.1492h-25.904c-2.2985 0-4.1492-1.8507-4.1492-4.1492v-7.0418l-4.0163-5.234 4.0163-1.2285v-0.48823l-10.158-4.4988 10.158 0.7049v-7.5575c0-2.2985 1.8507-4.1492 4.1492-4.1492zm-144.48 31.078-0.86016 0.92374-0.95552 0.57345-0.0318 1.1151-0.15963 1.3701 1.88 0.35028 1.6568-1.1469-0.3828-2.2938zm1.0978 10.02-4.5407 0.23111-3.6531 1.7507 1.3658 3.9644 3.96 0.99091 3.3461-2.8405-1.7074-1.7182zm-11.66 4.9408-2.3523 2.5271-2.6145 1.5687-0.0867 3.0493-0.43623 3.747 5.1416 0.95841 4.5306-3.1367-1.0458-6.2733zm11.848 3.4761-1.4112 1.5152-1.5687 0.94106-0.0513 1.8294-0.26143 2.2469 3.0839 0.5749 2.7178-1.8814-0.62759-3.7628z"/>
  <path d="m211.73 655a5.2551 5.2551 0 0 0-2.712 0.77854l-38.635 23.752 7.8933 34.233-6.9566-8.7564v0.0274l-7.3206-9.2143-1.7962 11.242-26.214-6.3911-4.9697 3.055-1.6626 4.0806 8.6625 2.218-5.0455 13.248 12.803 14.542-21.227-12.034 4.4584-10.948-8.3772-4.7206-19.981 12.285a3.8557 3.8557 0 0 0 2.0186 7.14h6.9862v101.27c0 2.3228 1.869 4.1926 4.1918 4.1926h26.839l2.4411-4.4887-2.3299-2.6918 2.2498-4.1752-1.7153-1.3715 4.1976-11.869 3.6603 0.53082-2.0627 8.8359 2.8694 2.2368-2.7849 4.8195 2.7936 2.938-2.7026 4.449 0.76482 0.7865h123.05l11.546-5.7504-5.0347-7.3884 12.542-6.6092v-19.375l7.9793 23.06-10.581 5.2709 3.7664 10.792h18.347c2.3228 0 4.1919-1.8697 4.1919-4.1926v-101.27h6.9855a3.8557 3.8557 0 0 0 2.0194-7.14l-24.144-14.843-12.066 19.427 2.5423-22.796-9.2128 6.7161-14.589-23.835-5.1755-3.1814-8.4487 4.8722 1.6221-9.0698-2.2288-1.3701-18.293 13.923 6.8757-13.352-7.2036 1.9587-2.9525-15.792-15.085-9.275a5.2551 5.2551 0 0 0-2.7806-0.77855zm-59.876 74.289h25.904c2.2987 0 4.15 1.8507 4.15 4.1492v2.3784l0.0556-0.0266 4.0568 4.1709-4.1131 0.29468v2.7105l8.6582 6.8829-8.287-1.9132 2.0786 3.6805-2.4498 1.1339v6.0321c0 2.2985-1.8513 4.1492-4.15 4.1492h-25.903c-2.2987 0-4.15-1.8507-4.15-4.1492v-3.8863l-7.7518-0.92809 7.7518-2.6174v-0.27231l-3.3945-1.8727 3.3945-5.1279v-10.639c0-2.2982 1.8508-4.1488 4.1492-4.1492zm93.926 0h25.904c2.2985 0 4.1492 1.8507 4.1492 4.1492v1.2192l4.5523 4.0019-4.5523-0.19359v3.6112l10.469 7.3004-10.469-2.8001v1.1505l1.7868 2.6362-1.7868 0.43335v7.985c0 2.2985-1.8507 4.1492-4.1492 4.1492h-25.904c-2.2985 0-4.1492-1.8507-4.1492-4.1492v-8.7398l-6.3579 0.29901 6.3196-3.3844-3.362-1.1823 3.4003-7.6384v-4.6982c0-2.2985 1.8507-4.1492 4.1492-4.1492zm-53.492 1.0032 7.6708 6.0949 2.4347 0.64061 1.373 3.0074 2.2122-0.16034 0.3828 2.6961 2.2151-0.18489 2.288 2.5437 3.3187-0.24771 0.65075-1.8237 3.1143-0.0831 2.2628-1.4242 1.9905 1.0075 2.1877-2.5148 9.6707-1.027-8.7152 4.475-1.5874 1.9536-3.3064 0.01-0.7663 2.0815-2.6138-0.76342-0.49906 1.4012 1.0249 3.1092 4.4735-2.8998 2.426 6.7565 10.509-0.36043-13.246 4.8058-1.8807-5.7056-6.6099 2.4159-0.67094-5.1163-1.1144 3.0471-6.8013-0.72877 0.79663 5.2709-7.1552-0.57635-4.0062 9.7227 1.0848-14.049 5.9736 0.63921 0.52506-7.018 5.84 1.7731 1.3946-1.1173-1.8222-2.0851-3.414 0.28241-1.3607-2.8037-2.2303-1.4741 0.0975-2.2288-3.193-0.95553zm32.864 36.409 2.2035 13.918-5.9592 0.76339 1.1166 6.9486-6.0921-0.37049-1.0971 1.4105 2.2563 1.6055 3.2551-1.066 1.9732 2.4116 2.5119 0.9158 0.42181 2.1912 3.3273 0.18851 6.7348 7.0165-8.8756-4.1499-2.5162-0.0585-2.0331-2.6073-2.1147 0.66949-0.99742-2.5343-2.1118 0.69409-2.816-1.9443-3.1706 1.0104-0.20944 1.9255-3.011 0.80314-1.8706 1.9103-2.1696-0.51929-1.5448 2.954-9.1695 3.2421 7.4405-6.3745 1.0913-2.2686 3.2139-0.7764 0.26218-2.2021 2.7199 0.13579 0.15964-1.4784-1.7168-2.7864-3.6791 3.8574-3.9268-6.009-10.14 2.7878 11.77-7.7474 3.1533 5.1142 5.8689-3.8827 1.8396 4.8209 0.37699-3.2219 6.7854-0.86885-1.9977-4.9422 7.0938-1.0992zm-129.57 0.62764-2.1552 2.314-2.3942 1.4372-0.0795 2.7944-0.40011 3.4328 4.7104 0.87824 4.1514-2.8745-0.95911-5.7475zm56.269 6.3326h25.904c2.2986 0 4.15 1.8508 4.15 4.1492v6.053l3.2681 7.3444-3.2681 1.1491v0.0823l6.2264 3.3346-6.2264-0.2925v7.673c0 2.2986-1.8513 4.1492-4.15 4.1492h-25.904c-2.2986 0-4.1492-1.8507-4.1492-4.1492v-6.3116l-0.24846-0.11556 0.24846-0.43912v-2.8189l-6.4568 1.4907 6.4568-5.1329v-4.618l-1.9118-0.13723 1.9118-1.9652v-5.2969c0-2.2985 1.8506-4.1492 4.1492-4.1492zm93.925 0h25.904c2.2985 0 4.1492 1.8508 4.1492 4.1492v10.538l2.5141 3.7961-2.5141 1.3867v1.0559l6.8706 2.3198-6.8706 0.82263v5.4247c0 2.2986-1.8507 4.1492-4.1492 4.1492h-25.904c-2.2985 0-4.1492-1.8507-4.1492-4.1492v-7.0418l-4.0163-5.234 4.0163-1.2285v-0.48823l-10.158-4.4988 10.158 0.70489v-7.5575c0-2.2985 1.8507-4.1492 4.1492-4.1492zm130.8 2.855-5.2759 9.0865 4.6115 9.1298 10.868 1.6871 0.45865-6.0516 6.5225-1.568-7.8796-8.2284zm-36.429 2.6759-4.3984 2.7518-4.4071 1.261-1.3108 4.3941-2.0902 5.2687 7.0917 3.3916 7.798-2.7914 0.92158-9.514zm20.302 10.628-8.6986 4.9682-2.8037 15.151 10.053 7.0172-3.8849 14.545 10.092 3.4964 24.11-0.58285 6.7284-6.9927 1.2415-11.211-10.609-11.492-11.679-2.7228zm-262.12 2.6138-11.378 0.57923-9.1536 4.3869 3.4227 9.9336 9.9228 2.4831 8.3844-7.1184-4.2785-4.3053zm-29.217 12.87-5.8942 6.3319-6.5514 3.9311-0.21666 7.6405-1.0934 9.3891 12.884 2.4014 11.352-7.8594-2.6203-15.719zm269.35 0-5.8942 6.3319-6.5514 3.9311-0.2174 7.6405-1.0927 9.3891 12.883 2.4014 11.353-7.8594-2.6203-15.719zm-239.67 8.2205-3.5361 3.7968-3.9312 2.3581-0.12853 4.584-0.65508 5.6298 7.7279 1.4409 6.81-4.7148-1.5723-9.4288zm305.73 10.617-2.1552 2.3148-2.3942 1.4365-0.0802 2.7943-0.39941 3.4335 4.7104 0.8775 4.1514-2.8738-0.95911-5.7475z"/>
  <path d="m153.65 189.44c-2.5199-1.0976-6.9906-7.223-8.9274-12.231-2.7835-7.1979-2.4722-13.743 0.97936-20.597 2.3896-4.7451 6.7931-9.8068 11.316-13.008 0.88313-0.62496 1.6096-1.2714 1.6142-1.4366 0.0143-0.50948-13.246-19.389-13.618-19.389-0.19256 0-1.0983 0.5129-2.0128 1.1398-3.8084 2.6106-8.571 4.4288-11.601 4.4288-3.8212 0-7.1504-2.952-8.1828-7.2553-0.56123-2.3394-0.28249-8.2835 0.51597-11.003 0.84913-2.8924 3.554-4.1689 6.0279-2.8449 1.7804 0.95283 2.035 2.0274 1.5418 6.5066-0.56434 5.1252-0.37882 6.246 1.0326 6.2384 1.3511-7e-3 6.3315-2.7251 9.3949-5.127 2.9069-2.2792 14.25-10.222 18.899-13.234 5.8571-3.7946 8.735-7.8058 8.2413-11.487-0.58769-4.3816-5.2053-9.917-12.226-14.656-5.3351-3.6012-5.9594-4.2409-5.9594-6.1063 0-1.9788 0.51875-2.9179 2.0489-3.7092 1.8151-0.93867 3.3179-0.47496 7.3314 2.2621 9.2321 6.2961 13.787 11.322 15.993 17.646 0.8111 2.3252 0.94109 3.3221 0.80486 6.1721-0.23571 4.9297-1.6749 7.8215-6.09 12.237l-3.368 3.3679 7.2144 14.337c8.0505 15.998 7.6598 14.72 6.7379 22.038-0.39461 3.1326-0.40826 4.8792-0.0603 7.7407 1.4715 12.103 8.0166 19.968 20.011 24.049 3.3314 1.1333 4.7757 2.1358 5.6099 3.8937 2.072 4.3665-0.9397 9.1907-5.693 9.119-4.1288-0.0623-14.352-5.1519-19.741-9.8278-6.5577-5.6901-11.217-14.543-12.567-23.876-0.27111-1.8753-0.62507-3.4096-0.78656-3.4096-0.77411 0-6.9309 5.1007-8.5632 7.0943-5.362 6.5489-5.236 12.516 0.41672 19.734 2.3165 2.9582 2.9319 4.8126 2.2985 6.9266-1.1896 3.9704-4.9964 5.8522-8.6338 4.2678zm81.351-12.169c-1.8149-4.8128-3.3161-8.7505-3.3359-8.7504-0.0199 1.2e-4 -0.97764 0.3581-2.1285 0.79551-1.1509 0.43741-2.2442 0.79531-2.4298 0.79531-0.18551 0-0.71162-1.0162-1.1692-2.2582l-0.83183-2.2582 3.3171-3.8076c1.8244-2.0942 4.0429-4.6131 4.9299-5.5975l1.6129-1.7899 0.67909 1.6905c0.37353 0.92975 0.81432 1.6905 0.97955 1.6905 0.22211 0 55.345-20.881 59.278-22.455 0.53073-0.21236-0.42241-3.0312-5.9255-17.525-3.6069-9.4993-6.6713-17.201-6.8099-17.116-0.13854 0.0857-6.8712 2.6675-14.961 5.7374l-14.709 5.5817-4.1718-0.93898c-6.7138-1.5112-5.9949-1.7321-6.9364 2.1312l-0.81524 3.3452-5.5419 2.1175c-3.0481 1.1646-5.6188 2.0406-5.7128 1.9467-0.15922-0.15926 0.70781-4.5609 1.5365-7.8l0.36347-1.4208 24.06-9.1197c13.233-5.0158 24.064-9.2583 24.068-9.4277 0.0115-0.4415-10.385-27.874-10.696-28.224-0.2089-0.23455-59.473 22.008-59.974 22.51-0.0789 0.0789 0.38702 1.5822 1.0354 3.3406l1.1788 3.1972-1.5707 6.8735c-0.86388 3.7804-1.6253 6.928-1.692 6.9947s-1.6078-3.8136-3.4248-8.6227c-1.8169-4.8092-3.4159-8.7439-3.5533-8.7438-0.13738 1.2e-4 -1.2116 0.36577-2.3872 0.81257-1.1756 0.44684-2.18 0.76-2.2321 0.69588-0.48049-0.59147-2.6167-7.112-2.4293-7.4151 0.13488-0.21825 1.1381-0.69333 2.2293-1.0558 1.0912-0.36247 1.9841-0.78012 1.9841-0.92808 0-0.14801-0.61959-1.8474-1.3769-3.7764l-1.3769-3.5072 2.8426-3.5502c1.5635-1.9526 2.9438-3.5485 3.0674-3.5464 0.12358 4e-3 1.1843 2.5974 2.3571 5.7675 1.1728 3.1701 2.1995 5.7637 2.2815 5.7637 0.0821 0 10.936-4.1024 24.12-9.1166 13.184-5.0141 26.56-10.097 29.724-11.296 3.1648-1.1987 5.8153-2.363 5.89-2.5873 0.0748-0.22434-2.7657-8.0371-6.3122-17.362-5.3234-13.996-6.559-16.909-7.0833-16.698-0.34931 0.14081-13.783 5.2579-29.853 11.371-16.07 6.1134-29.294 11.192-29.388 11.285-0.0932 0.0932 0.82152 2.8156 2.0328 6.0497 1.2112 3.2341 2.1461 5.9387 2.0775 6.0102-0.0686 0.0715-2.3995-1.6846-5.1798-3.9025-3.1216-2.4902-5.2791-3.9465-5.641-3.8077-0.36824 0.14132-0.66358-0.0714-0.79456-0.57226-0.25619-0.97975-0.23038-0.97991-2.8497 0.0155-1.1756 0.44684-2.197 0.75287-2.2697 0.68016-0.0727-0.0727-0.75263-1.7361-1.5109-3.6963-0.97772-2.5277-1.243-3.6372-0.91233-3.8158 0.25643-0.13846 19.081-7.3287 41.833-15.978 22.752-8.6497 41.649-15.837 41.994-15.973 0.49573-0.19467 0.92451 0.5522 2.0447 3.5614l1.4174 3.8077-1.4248 0.59532c-0.78362 0.32743-1.838 0.69901-2.3429 0.82578-0.50499 0.12672-0.91818 0.30683-0.91818 0.40018 0 0.20779 12.832 34.086 12.994 34.308 0.0637 0.0867 1.1299-0.23034 2.3692-0.70463 1.2394-0.47428 2.3176-0.79818 2.396-0.71978 0.3651 0.3651 2.8764 7.1871 2.7319 7.421-0.0902 0.1459-1.1621 0.60459-2.3821 1.0192-1.6846 0.57265-2.1585 0.90084-1.9703 1.3644 0.13631 0.33571 2.3887 6.2351 5.0053 13.11 2.6166 6.8746 5.0012 13.083 5.2991 13.796l0.54166 1.2964 2.0243-0.76918c1.1134-0.42306 2.1858-0.76918 2.383-0.76918 0.37525 0 2.8148 6.0381 2.8148 6.9669 0 0.29414-0.9397 0.88954-2.0882 1.323-1.1766 0.4441-2.0641 1.0206-2.033 1.3205 0.059 0.56879 12.48 33.416 12.757 33.737 0.0907 0.105 1.2109-0.18997 2.4892-0.65559l2.3243-0.8465 1.4292 3.7339c0.78608 2.0537 1.4292 3.8059 1.4292 3.894 0 0.088-0.41318 0.26371-0.91817 0.39044-0.50496 0.12676-1.5628 0.49982-2.3506 0.829l-1.4325 0.59854 3.3052 8.6608c1.8179 4.7635 3.1889 8.7725 3.0467 8.909-0.38725 0.3717-7.2205 2.8725-7.356 2.6921-0.0645-0.0858-1.5715-4.0042-3.349-8.7077-2.1591-5.7132-3.4042-8.5095-3.7512-8.4244-0.64107 0.15724-59.332 22.42-59.529 22.58-0.078 0.0636 1.3359 3.9838 3.142 8.7114 1.8925 4.9537 3.1323 8.7346 2.9262 8.9233-0.31462 0.28817-6.6448 2.8141-7.0523 2.8141-0.0865 0-1.6422-3.9378-3.4572-8.7506zm-18.884-18.527c-4.1565-3.6178-7.6915-6.7105-7.8554-6.8727-0.28957-0.28651 13.438-16.372 13.959-16.357 0.56331 0.0167 15.375 13.202 15.375 13.687 0 0.47079-13.089 15.817-13.671 16.029-0.1377 0.0502-3.6512-2.8688-7.8077-6.4866zm9.5514-21.738-3.5746-3.1764-1.2508 1.447c-1.0852 1.2554-1.2882 1.3533-1.533 0.73911-0.15521-0.38932-0.78259-2.0523-1.3942-3.6955-0.61163-1.6432-1.3867-3.645-1.7224-4.4484l-0.61035-1.4608-2.0243 0.76918c-1.1134 0.42306-2.1818 0.76918-2.3743 0.76918-0.30547 0-3.3413-7.2049-3.1106-7.3827 0.0485-0.0374 1.0726-0.43459 2.2758-0.88274 1.771-0.6596 2.1696-0.97275 2.0929-1.6444-0.0521-0.45631 0.0779-0.82964 0.28897-0.82964 0.6016 0 16.485 3.6192 16.662 3.7967 0.16547 0.16546-0.36462 0.3892-3.8299 1.6166-1.1485 0.40683-2.0882 0.88437-2.0882 1.0612 0 0.17684 1.3591 3.9067 3.0203 8.2887 1.6612 4.382 2.9588 8.0216 2.8837 8.0882-0.0751 0.0666-1.7452-1.3084-3.7112-3.0554zm24.122-3.102c-5.5439-1.2733-10.159-2.3943-10.256-2.491-0.22465-0.22465 4.2092-19.886 4.5604-20.222 0.28257-0.27063 20.194 4.1403 20.622 4.5684 0.38483 0.38483-4.1355 20.575-4.5901 20.501-0.14144-0.0231-4.7931-1.0834-10.337-2.3567zm-25.122-15.088c-1.6407-0.39768-5.9812-1.3971-9.6456-2.221-5.2087-1.1711-6.6619-1.6362-6.6601-2.1318 4e-3 -0.89841 4.2221-19.509 4.4812-19.768 0.24012-0.24009 20.218 4.1779 20.656 4.5678 0.15366 0.13695-0.73107 4.7681-1.9661 10.291-2.5593 11.446-1.8426 10.479-6.865 9.2618zm-83.916-14.229c-2.4528-0.86567-5.6469-4.1279-6.5037-6.6425-1.502-4.4082-0.52301-8.7726 2.6882-11.984 4.5514-4.5514 11.411-4.5514 15.962 0s4.5514 11.411 0 15.962c-3.1939 3.1939-7.7898 4.202-12.147 2.6642zm114.11-5.7468c-0.48049-0.94407-2.6496-5.0967-4.8202-9.2281-2.1706-4.1314-3.8007-7.6428-3.6225-7.8031 0.39975-0.35942 17.935-9.5293 18.461-9.654 0.34076-0.0807 9.9129 17.632 9.8997 18.319-4e-3 0.23293-17.454 9.5339-18.68 9.9569-0.20003 0.069-0.75681-0.64695-1.2373-1.591zm-136.57-6.5812c-4.6757-0.21224-4.8461-0.58331-1.6084-3.5036l2.6852-2.4218-4.5254-3.1567c-2.489-1.7362-4.5254-3.4252-4.5254-3.7534 0-0.47838 0.84961-0.64484 4.287-0.83982 2.3579-0.13372 4.3713-0.32743 4.4742-0.43037 0.10293-0.10298-0.81783-2.1117-2.0462-4.4638-1.5284-2.9268-2.1044-4.4055-1.8247-4.6852 0.27962-0.27962 1.6672 0.10752 4.3963 1.2266 2.1933 0.89937 4.1781 1.6352 4.4107 1.6352 0.2741 0 0.42298-1.5986 0.42298-4.5417 0-7.2821 0.40766-7.4395 4.2226-1.6306 1.506 2.2932 2.8718 4.1726 3.0351 4.1764 0.16332 4e-3 0.96877-1.0861 1.7899-2.4222 2.1405-3.4829 2.9343-4.4425 3.3396-4.0372 0.3931 0.39311 1.5329 6.4548 1.5337 8.1569 3.6e-4 0.6695-0.21415 1.0938-0.55296 1.0938-0.61071 0-0.85871-0.76003-1.2654-3.8781-0.14979-1.1485-0.38713-2.0882-0.52738-2.0882s-1.0337 1.2619-1.9854 2.8042c-0.9815 1.5906-1.9631 2.7526-2.2681 2.6848-0.29573-0.0656-1.7061-1.8098-3.1342-3.8757l-2.5965-3.7564v2.8059c0 4.0406-0.39855 6.4967-1.0542 6.4967-0.30158 0-2.0671-0.61242-3.9235-1.361-1.8563-0.74853-3.3752-1.2819-3.3752-1.1854 0 0.0966 0.80546 1.7794 1.7899 3.7396 0.98445 1.9601 1.7899 3.836 1.7899 4.1685 0 0.46044-0.49791 0.61163-2.0882 0.63406-1.1485 0.0163-2.8937 0.15195-3.8781 0.30162l-1.7899 0.27211 3.7188 2.5533c2.0453 1.4043 3.8222 2.8227 3.9486 3.1521 0.15083 0.39302-0.49803 1.2231-1.8881 2.4154l-2.1179 1.8166 2.9424 0.39775c2.1735 0.29382 2.9424 0.55368 2.9424 0.99439 0 0.67201-0.32182 0.70618-4.7542 0.50499zm64.382-18.023c-4.1371-3.3036-7.7689-6.247-8.0706-6.5409-0.46351-0.45145 0.48287-1.8356 6.0991-8.9203 5.919-7.4666 6.7237-8.3315 7.3415-7.8895 2.7421 1.962 15.548 12.445 15.548 12.728 0 0.41005-12.633 16.352-13.09 16.518-0.16802 0.0612-3.6904-2.5917-7.8275-5.8953zm38.22-20.153c-1.7501-5.3999-3.1255-9.917-3.0564-10.038 0.156-0.27337 20.093-6.7833 20.261-6.6156 0.21765 0.21761 6.4617 19.092 6.4617 19.533 0 0.33833-19.521 7.0348-20.286 6.9589-0.10939-0.0107-1.6308-4.4378-3.3809-9.8377zm62.189-14.037c-0.0326-0.21877-0.0776-0.59397-0.0994-0.83374-0.0219-0.2398 2.3334-1.3885 5.234-2.5527 4.9491-1.9864 5.2981-2.0712 5.6691-1.3781 0.48423 0.90478 0.83648 0.69564-5.2855 3.138-5.6023 2.235-5.4343 2.1855-5.5181 1.6264zm3.1023-9.6387c-0.12772-0.48848-0.10386-1.0112 0.053-1.1616 0.15691-0.15039 5.655-2.4234 12.218-5.0512 10.711-4.2885 11.984-4.7116 12.43-4.1321 0.27346 0.35508 0.49501 0.83513 0.49239 1.0667-4e-3 0.34358-23.881 10.166-24.712 10.166-0.13699 0-0.35357-0.39962-0.48128-0.88807zm-7.8203-5.8824c-0.21741-0.40626-0.2587-0.82307-0.0918-0.92625 0.65848-0.40694 10.544-4.2628 10.648-4.1536 0.0615 0.0641 0.17358 0.44381 0.24907 0.84391 0.11261 0.5966-0.81102 1.1092-5.1365 2.851-4.9483 1.9925-5.2982 2.078-5.6691 1.3849z" stroke-width=".39776"/>
  <path d="m426.38 28.779c-2.9028 0-5.4596 0.9299-7.668 2.791-2.2083 1.8611-3.8806 4.5846-5.0195 8.168-0.875 2.7917-1.3125 5.4716-1.3125 8.041 0 3.8472 1.0417 7.0006 3.125 9.459 1.7778 2.0972 4.1452 3.1445 7.1035 3.1445 0.91667 0 1.7993-0.09657 2.6465-0.29102 0.86111-0.19444 1.6868-0.47852 2.4785-0.85352 1.3472 2.1667 2.8188 3.7216 4.416 4.666l2.4375-3.8965c-1.25-0.86111-2.4015-1.9293-3.457-3.207 1.6528-1.6667 2.9993-3.8618 4.041-6.584 1.0556-2.7222 1.584-5.5972 1.584-8.625 0-3.9583-0.97917-7.0833-2.9375-9.375-1.9444-2.2917-4.4236-3.4375-7.4375-3.4375zm69.582 0.52148-1.957 11.438c-1.2222-2.3472-3.0499-3.5215-5.4805-3.5215-2.625 0-4.7765 1.3958-6.457 4.1875s-2.5215 6.0132-2.5215 9.666c0 3.0972 0.59093 5.4173 1.7715 6.959 1.1806 1.5417 2.7014 2.3125 4.5625 2.3125 1.0278 0 1.9709-0.21593 2.832-0.64648 0.875-0.43056 1.7708-1.1806 2.6875-2.25l-0.41602 2.3965h4.6465l5.2285-30.541h-4.8965zm50.668 0-1.959 11.438c-1.2222-2.3472-3.048-3.5215-5.4785-3.5215-2.625 0-4.7784 1.3958-6.459 4.1875-1.6806 2.7917-2.5215 6.0132-2.5215 9.666 0 3.0972 0.59093 5.4173 1.7715 6.959 1.1806 1.5417 2.7014 2.3125 4.5625 2.3125 1.0278 0 1.9729-0.21593 2.834-0.64648 0.875-0.43056 1.7708-1.1806 2.6875-2.25l-0.41797 2.3965h4.6465l5.2285-30.541h-4.8945zm60.062 0-5.2305 30.541h4.459l0.625-3.6465c1.2222 2.7639 3.1313 4.1465 5.7285 4.1465 1.4167 0 2.8125-0.52843 4.1875-1.584 1.375-1.0556 2.5152-2.6862 3.418-4.8945 0.91667-2.2222 1.375-4.7166 1.375-7.4805 0-3.0278-0.58333-5.3118-1.75-6.8535-1.1667-1.5417-2.7027-2.3125-4.6055-2.3125-0.875 0-1.6932 0.16667-2.457 0.5-0.7639 0.31944-1.6257 0.91602-2.584 1.791l1.75-10.207h-4.916zm21.625 0-0.9375 5.416h4.916l0.9375-5.416h-4.916zm54.041 0.75-5.6035 4.125-0.60547 3.541h-2.3945l-0.75 4.4375h2.375l-1.5215 8.8965c-0.41667 2.4444-0.625 4.0126-0.625 4.707 0 1.5 0.40907 2.6402 1.2285 3.418 0.83333 0.77778 2.0833 1.166 3.75 1.166 0.86111 0 1.7153-0.096571 2.5625-0.29102l0.77148-4.4375c-0.87501 0.097222-1.4091 0.14453-1.6035 0.14453-0.61112 0-1.043-0.1174-1.293-0.35352s-0.375-0.59787-0.375-1.084c0-0.26389 0.14019-1.2279 0.41797-2.8945l1.6035-9.2715h3l0.75-4.4375h-3l1.3125-7.666zm-256.4 3.9785c1.625 0 2.9735 0.66667 4.043 2 1.0694 1.3333 1.6035 3.2424 1.6035 5.7285 0 1.8889-0.33333 3.8472-1 5.875-0.65278 2.0139-1.4653 3.6181-2.4375 4.8125-1.125-1.5833-2.4583-2.8542-4-3.8125l-1.875 3.5c0.70833 0.31944 1.3882 0.82704 2.041 1.5215 0.5 0.54167 0.75 0.8826 0.75 1.0215 0 0.13889-0.0625 0.22786-0.1875 0.26953-0.34722 0.11111-0.90213 0.16797-1.666 0.16797-1.6389 0-3.0063-0.67426-4.1035-2.0215s-1.6465-3.2431-1.6465-5.6875c0-2.4583 0.45074-4.8049 1.3535-7.041 0.91666-2.2361 2.0076-3.8479 3.2715-4.834 1.2639-1 2.548-1.5 3.8535-1.5zm44.146 3.1875c-3.1944 0-5.6812 1.2993-7.459 3.8965-1.7778 2.5833-2.666 5.5757-2.666 8.9785 0 3.1528 0.77843 5.6528 2.334 7.5 1.5694 1.8333 3.5334 2.75 5.8945 2.75 1.7778 0 3.3819-0.53407 4.8125-1.6035 1.4306-1.0694 2.5764-2.6812 3.4375-4.834l-4.3945-0.89648c-0.93056 2.0556-2.2014 3.084-3.8125 3.084-0.97222 0-1.8056-0.4451-2.5-1.334-0.69445-0.88889-1.043-2.0764-1.043-3.5625v-0.5625h12.312c0.22222-1.1389 0.33398-2.4362 0.33398-3.8945 0-3.0833-0.67426-5.4375-2.0215-7.0625-1.3333-1.6389-3.0757-2.459-5.2285-2.459zm40.604 0c-2.1528 0-3.9292 0.53407-5.332 1.6035-1.4028 1.0694-2.3895 2.6263-2.959 4.668l4.791 0.5c0.375-1.6806 1.411-2.5215 3.1055-2.5215 0.77777 0 1.3876 0.20833 1.832 0.625 0.45833 0.40278 0.6875 0.93685 0.6875 1.6035 0 0.5-0.10417 1.1743-0.3125 2.0215-0.79167 0.33333-2.3542 0.6174-4.6875 0.85352-2.6528 0.25-4.541 0.97917-5.666 2.1875-1.1389 1.2083-1.709 2.9319-1.709 5.168 0 1.9444 0.5 3.4993 1.5 4.666s2.2368 1.75 3.709 1.75c0.93055 0 1.8605-0.2576 2.791-0.77148 0.94444-0.51389 1.7778-1.2563 2.5-2.2285 0.04166 0.86111 0.16102 1.6944 0.35547 2.5h4.75c-0.26389-1.125-0.39649-2.1667-0.39649-3.125 0-1.0556 0.24241-2.9097 0.72852-5.5625 0.58334-3.2222 0.91666-5.1938 1-5.916 0.09722-0.72222 0.14648-1.4041 0.14648-2.043 0-1.8056-0.59092-3.2487-1.7715-4.332-1.1806-1.0972-2.8681-1.6465-5.0625-1.6465zm50.98 0c-3.1944 0-5.6812 1.2993-7.459 3.8965-1.7778 2.5833-2.666 5.5757-2.666 8.9785 0 3.1528 0.77647 5.6528 2.332 7.5 1.5694 1.8333 3.5354 2.75 5.8965 2.75 1.7778 0 3.382-0.53407 4.8125-1.6035 1.4306-1.0694 2.5764-2.6812 3.4375-4.834l-4.3965-0.89648c-0.93056 2.0556-2.2014 3.084-3.8125 3.084-0.97223 0-1.8056-0.4451-2.5-1.334-0.69444-0.88889-1.041-2.0764-1.041-3.5625v-0.5625h12.312c0.22222-1.1389 0.33399-2.4362 0.33399-3.8945 0-3.0833-0.67426-5.4375-2.0215-7.0625-1.3333-1.6389-3.0757-2.459-5.2285-2.459zm29.582 0c-3.4444 0-6.0751 1.3958-7.8945 4.1875-1.6389 2.5417-2.459 5.625-2.459 9.25 0 2.9861 0.78407 5.3479 2.3535 7.084 1.5694 1.7361 3.6111 2.6035 6.125 2.6035 3.0833 0 5.5777-1.2784 7.4805-3.834 1.9167-2.5694 2.875-5.6868 2.875-9.3535 0-3.125-0.77084-5.5625-2.3125-7.3125-1.5278-1.75-3.5846-2.625-6.168-2.625zm52.25 0c-3.1944 0-5.6792 1.2993-7.457 3.8965-1.7778 2.5833-2.668 5.5757-2.668 8.9785 0 3.1528 0.77842 5.6528 2.334 7.5 1.5694 1.8333 3.5354 2.75 5.8965 2.75 1.7778 0 3.3819-0.53407 4.8125-1.6035 1.4306-1.0694 2.5764-2.6812 3.4375-4.834l-4.3965-0.89648c-0.93055 2.0556-2.2014 3.084-3.8125 3.084-0.97222 0-1.8056-0.4451-2.5-1.334-0.69445-0.88889-1.041-2.0764-1.041-3.5625v-0.5625h12.312c0.22222-1.1389 0.33203-2.4362 0.33203-3.8945 0-3.0833-0.67231-5.4375-2.0195-7.0625-1.3333-1.6389-3.0777-2.459-5.2305-2.459zm19.812 0c-1.8194 0-3.5334 0.54926-5.1445 1.6465-1.5972 1.0833-2.8681 2.6875-3.8125 4.8125-0.93056 2.1111-1.3965 4.5202-1.3965 7.2285 0 3.0139 0.6951 5.3396 2.084 6.9785 1.3889 1.6389 3.207 2.459 5.457 2.459 1.9861 0 3.7513-0.65343 5.293-1.959 1.5556-1.3194 2.7279-3.2986 3.5195-5.9375l-4.75-0.9375c-0.43056 1.4306-1.0139 2.4874-1.75 3.168-0.72222 0.66667-1.4779 1-2.2695 1-0.75 0-1.3958-0.34852-1.9375-1.043-0.52778-0.70833-0.79297-1.7216-0.79297-3.041 0-1.9861 0.28602-3.8194 0.85547-5.5 0.58333-1.6806 1.2556-2.8472 2.0195-3.5s1.5423-0.97852 2.334-0.97852c1.7222 0 2.6938 1.2007 2.916 3.6035l4.668-0.60352c-0.16667-2.3194-0.91103-4.1319-2.2305-5.4375-1.3194-1.3056-3.0069-1.959-5.0625-1.959zm31.188 0c-3.4444 0-6.0751 1.3958-7.8945 4.1875-1.6389 2.5417-2.459 5.625-2.459 9.25 0 2.9861 0.78407 5.3479 2.3535 7.084 1.5694 1.7361 3.6111 2.6035 6.125 2.6035 3.0833 0 5.5777-1.2784 7.4805-3.834 1.9167-2.5694 2.875-5.6868 2.875-9.3535 0-3.125-0.77083-5.5625-2.3125-7.3125-1.5278-1.75-3.5846-2.625-6.168-2.625zm20.688 0c-2.5556 0-4.5688 0.67426-6.041 2.0215-1.4722 1.3472-2.209 3.0612-2.209 5.1445 0 1.7639 0.5625 3.1957 1.6875 4.293 0.70833 0.68056 2.5284 1.6105 5.459 2.791 1.0556 0.41667 1.7222 0.77083 2 1.0625 0.26389 0.30556 0.39649 0.68056 0.39649 1.125 0 0.65278-0.3125 1.2229-0.9375 1.709-0.625 0.48611-1.4451 0.72852-2.459 0.72852-1.0556 0-1.9021-0.2424-2.541-0.72852-0.6389-0.5-1.1673-1.375-1.584-2.625l-4.75 0.91602c1.0694 4.4583 4.0618 6.6875 8.9785 6.6875 2.5 0 4.5076-0.73676 6.0215-2.209 1.5139-1.4722 2.2715-3.3264 2.2715-5.5625 0-1.6528-0.59094-3.0543-1.7715-4.207-0.80555-0.79167-2.3813-1.6042-4.7285-2.4375-1.6389-0.58333-2.5972-1.0076-2.875-1.2715-0.375-0.34722-0.5625-0.77148-0.5625-1.2715 0-0.59722 0.2424-1.0896 0.72851-1.4785s1.202-0.58398 2.1465-0.58398c2 0 3.2632 0.875 3.791 2.625l4.5215-0.95703c-0.69445-3.8472-3.2096-5.7715-7.543-5.7715zm-273.52 0.5-2.1055 12.334c-0.38889 2.2778-0.58203 3.791-0.58203 4.541 0 1.7917 0.4299 3.2007 1.291 4.2285 0.875 1.0139 2.0493 1.5215 3.5215 1.5215 2.3333 0 4.5056-1.1667 6.5195-3.5l-0.5 3h4.584l3.7715-22.125h-4.8965l-1.791 10.541c-0.34722 2-0.79232 3.5284-1.334 4.584-0.54167 1.0417-1.2708 1.8882-2.1875 2.541-0.65277 0.47222-1.3118 0.70898-1.9785 0.70898-0.56945 0-1.0562-0.22157-1.459-0.66602-0.38889-0.44444-0.58398-1.0013-0.58398-1.668 0-0.38889 0.13259-1.3681 0.39648-2.9375l2.25-13.104h-4.916zm185.17 0-3.125 18.334c-0.625 3.6528-1.1326 5.8194-1.5215 6.5s-0.9362 1.0195-1.6445 1.0195c-0.54167 0-1.2027-0.1174-1.9805-0.35352l-0.76953 4.9375c1.1111 0.44444 2.3118 0.66602 3.6035 0.66602 2.2222 0 3.8264-0.88824 4.8125-2.666 0.63889-1.1389 1.4173-4.3756 2.334-9.709l3.2285-18.729h-4.9375zm-157.29 3.75c0.98611 0 1.7834 0.40343 2.3945 1.209 0.625 0.80556 0.9375 2.048 0.9375 3.7285l-0.01953 0.58398h-7.668c0.27778-1.8194 0.81944-3.1944 1.625-4.125 0.81944-0.93056 1.7305-1.3965 2.7305-1.3965zm91.582 0c0.9861 0 1.7854 0.40343 2.3965 1.209 0.625 0.80556 0.9375 2.048 0.9375 3.7285l-0.02148 0.58398h-7.666c0.27777-1.8194 0.81944-3.1944 1.625-4.125 0.81945-0.93056 1.7285-1.3965 2.7285-1.3965zm51.918 0c0.93055 0 1.7279 0.4375 2.3945 1.3125 0.68056 0.875 1.0215 2.125 1.0215 3.75 0 1.7639-0.27842 3.4514-0.83398 5.0625-0.55556 1.5972-1.1938 2.709-1.916 3.334-0.72223 0.61111-1.4514 0.91602-2.1875 0.91602-0.91667 0-1.7292-0.45833-2.4375-1.375-0.69444-0.91667-1.041-2.1326-1.041-3.6465 0-2.5694 0.47916-4.7702 1.4375-6.6035 0.95833-1.8333 2.1458-2.75 3.5625-2.75zm29.916 0c0.98611 0 1.7854 0.40343 2.3965 1.209 0.625 0.80556 0.9375 2.048 0.9375 3.7285l-0.02149 0.58398h-7.666c0.27778-1.8194 0.81944-3.1944 1.625-4.125 0.81944-0.93056 1.7285-1.3965 2.7285-1.3965zm-153.75 0.14648c0.91667 0 1.7292 0.4924 2.4375 1.4785 0.70833 0.97222 1.0625 2.2923 1.0625 3.959 0 1.625-0.27842 3.2007-0.83398 4.7285-0.54167 1.5278-1.1799 2.5979-1.916 3.209-0.73611 0.59722-1.4937 0.89453-2.2715 0.89453-0.94445 0-1.7494-0.4375-2.416-1.3125-0.65278-0.875-0.97851-2.1174-0.97851-3.7285 0-1.7361 0.27083-3.3895 0.8125-4.959 0.55556-1.5833 1.2014-2.6875 1.9375-3.3125 0.7361-0.63889 1.4577-0.95703 2.166-0.95703zm50.666 0c0.91666 0 1.7292 0.4924 2.4375 1.4785 0.70833 0.97222 1.0625 2.2923 1.0625 3.959 0 1.625-0.27647 3.2007-0.83203 4.7285-0.54167 1.5278-1.1819 2.5979-1.918 3.209-0.73611 0.59722-1.4918 0.89453-2.2695 0.89453-0.94445 0-1.7513-0.4375-2.418-1.3125-0.65278-0.875-0.97852-2.1174-0.97852-3.7285 0-1.7361 0.27083-3.3895 0.8125-4.959 0.55556-1.5833 1.2014-2.6875 1.9375-3.3125 0.73611-0.63889 1.4577-0.95703 2.166-0.95703zm51.355 0.082031c1.0556 0 1.923 0.41667 2.6035 1.25 0.69445 0.83334 1.041 1.9792 1.041 3.4375 0 2.875-0.64584 5.286-1.9375 7.2305-0.93056 1.4167-2.0612 2.125-3.3945 2.125-1.0556 0-1.9458-0.45833-2.668-1.375-0.70834-0.91667-1.0625-2.2027-1.0625-3.8555 0-1.625 0.29166-3.1931 0.875-4.707 0.58333-1.5139 1.2652-2.5764 2.043-3.1875 0.77778-0.61111 1.6111-0.91797 2.5-0.91797zm103.25 0c1.0556 0 1.923 0.41667 2.6035 1.25 0.69445 0.83334 1.041 1.9792 1.041 3.4375 0 2.875-0.64583 5.286-1.9375 7.2305-0.93056 1.4167-2.0612 2.125-3.3945 2.125-1.0556 0-1.9458-0.45833-2.668-1.375-0.70834-0.91667-1.0625-2.2027-1.0625-3.8555 0-1.625 0.29166-3.1931 0.875-4.707 0.58333-1.5139 1.2652-2.5764 2.043-3.1875 0.77778-0.61111 1.6111-0.91797 2.5-0.91797zm-182.62 7.834-0.14649 0.79102c-0.26389 1.5694-0.58398 2.702-0.95898 3.3965-0.375 0.68056-0.875 1.2146-1.5 1.6035-0.625 0.375-1.2765 0.5625-1.957 0.5625-0.65278 0-1.1944-0.22916-1.625-0.6875-0.41667-0.45833-0.625-1.0549-0.625-1.791 0-0.94444 0.3598-1.6944 1.082-2.25 0.7361-0.56944 2.2513-1.0202 4.543-1.3535 0.4861-0.083333 0.88194-0.17426 1.1875-0.27148zm-62.793 30.449c-2.0833 2.8889-3.5757 5.1957-4.4785 6.918-1.5556 2.9167-2.7354 5.8466-3.541 8.791-0.79167 2.9306-1.1875 5.868-1.1875 8.8125 0 5.125 0.91666 10.299 2.75 15.521h3.332c-1.125-4.6111-1.6875-8.9236-1.6875-12.938 0-5.1389 0.70269-9.9874 2.1055-14.543 1.2361-4 3.3743-8.1875 6.416-12.562h-3.709zm26.271 0.52148-5.2285 30.541h4.8945l5.25-30.541h-4.916zm195.29 0.22852c-0.15278 0.66667-0.32509 1.1042-0.51953 1.3125-0.18056 0.20833-0.39649 0.3125-0.64649 0.3125-0.33333 0-0.9451-0.19314-1.834-0.58203-1.5278-0.68056-2.6035-1.0215-3.2285-1.0215-0.72223 0-1.368 0.34657-1.9375 1.041-0.56944 0.69444-1.0354 2.0221-1.3965 3.9805h2.168c0.29166-1.1389 0.79731-1.709 1.5195-1.709 0.30556 0 1.0347 0.28407 2.1875 0.85352 1.0972 0.54167 1.9097 0.8125 2.4375 0.8125 0.79166 0 1.5076-0.40907 2.1465-1.2285 0.65278-0.81944 1.0827-2.077 1.291-3.7715h-2.1875zm-88.666 0.52148-5.6035 4.125-0.60547 3.541h-2.3945l-0.75 4.4375h2.375l-1.5215 8.8965c-0.41667 2.4444-0.625 4.0145-0.625 4.709 0 1.5 0.40907 2.6382 1.2285 3.416 0.83333 0.77777 2.0833 1.166 3.75 1.166 0.86111 0 1.7153-0.09658 2.5625-0.29102l0.77148-4.4375c-0.875 0.09723-1.4091 0.14648-1.6035 0.14648-0.61112 0-1.043-0.11935-1.293-0.35546-0.25-0.23612-0.375-0.59593-0.375-1.082 0-0.26389 0.14019-1.2298 0.41797-2.8965l1.6035-9.2715h3l0.75-4.4375h-3l1.3125-7.666zm-120.58 7.166c-3.1944 0-5.6792 1.2993-7.457 3.8965-1.7778 2.5833-2.668 5.5757-2.668 8.9785 0 3.1528 0.77842 5.6528 2.334 7.5 1.5694 1.8333 3.5354 2.75 5.8965 2.75 1.7778 0 3.3819-0.53408 4.8125-1.6035 1.4306-1.0694 2.5764-2.6812 3.4375-4.834l-4.3965-0.89454c-0.93055 2.0556-2.2014 3.082-3.8125 3.082-0.97222 0-1.8056-0.44315-2.5-1.332s-1.041-2.0764-1.041-3.5625v-0.5625h12.312c0.22222-1.1389 0.33203-2.4381 0.33203-3.8965 0-3.0833-0.67231-5.4375-2.0195-7.0625-1.3333-1.6389-3.0777-2.459-5.2305-2.459zm29.25 0c-3.1944 0-5.6792 1.2993-7.457 3.8965-1.7778 2.5833-2.668 5.5757-2.668 8.9785 0 3.1528 0.77843 5.6528 2.334 7.5 1.5694 1.8333 3.5354 2.75 5.8965 2.75 1.7778 0 3.3819-0.53408 4.8125-1.6035 1.4306-1.0694 2.5764-2.6812 3.4375-4.834l-4.3965-0.89454c-0.93056 2.0556-2.2014 3.082-3.8125 3.082-0.97222 0-1.8056-0.44315-2.5-1.332-0.69444-0.88889-1.041-2.0764-1.041-3.5625v-0.5625h12.312c0.22222-1.1389 0.33203-2.4381 0.33203-3.8965 0-3.0833-0.67231-5.4375-2.0195-7.0625-1.3333-1.6389-3.0777-2.459-5.2305-2.459zm22.209 0c-1.9722 0-3.8604 1.0625-5.666 3.1875l0.47851-2.6875h-4.625l-3.791 22.125h4.8945l1.75-10.166c0.36111-2.0694 0.6736-3.4861 0.9375-4.25 0.44444-1.2917 1.043-2.2708 1.793-2.9375 0.76389-0.68056 1.4987-1.0215 2.207-1.0215 0.52778 0 0.95963 0.18186 1.293 0.54297 0.34722 0.36111 0.51953 0.85352 0.51953 1.4785 0 0.44444-0.13065 1.4368-0.39453 2.9785l-2.293 13.375h4.918l1.707-10.062c0.5-2.9167 1.125-4.9507 1.875-6.1035 0.94444-1.4722 2.0069-2.209 3.1875-2.209 0.55555 0 0.99305 0.17426 1.3125 0.52148 0.31944 0.33333 0.48047 0.8201 0.48047 1.459 0 0.22222-0.14584 1.1806-0.4375 2.875l-2.3125 13.52h4.916l2.3125-13.52c0.31945-1.8611 0.47852-3.1736 0.47852-3.9375 0-1.625-0.41667-2.8902-1.25-3.793-0.83334-0.91667-1.9583-1.375-3.375-1.375-1.2083 0-2.4015 0.36936-3.582 1.1055-1.1806 0.72222-2.0972 1.6521-2.75 2.791-0.41667-2.5972-1.9451-3.8965-4.584-3.8965zm28.375 0c-3.1944 0-5.6812 1.2993-7.459 3.8965-1.7778 2.5833-2.666 5.5757-2.666 8.9785 0 3.1528 0.77843 5.6528 2.334 7.5 1.5694 1.8333 3.5334 2.75 5.8945 2.75 1.7778 0 3.3819-0.53408 4.8125-1.6035 1.4306-1.0694 2.5764-2.6812 3.4375-4.834l-4.3945-0.89454c-0.93056 2.0556-2.2014 3.082-3.8125 3.082-0.97222 0-1.8056-0.44315-2.5-1.332s-1.043-2.0764-1.043-3.5625v-0.5625h12.312c0.22222-1.1389 0.33398-2.4381 0.33398-3.8965 0-3.0833-0.67426-5.4375-2.0215-7.0625-1.3333-1.6389-3.0757-2.459-5.2285-2.459zm23.209 0c-1.0694 0-2.1111 0.25-3.125 0.75-1 0.48611-2.1042 1.3611-3.3125 2.625l0.47851-2.875h-4.6465l-3.791 22.125h4.8965l1.5625-9.082c0.48611-2.8472 0.97092-4.7847 1.457-5.8125 0.48611-1.0417 1.2305-1.9375 2.2305-2.6875 0.69444-0.52778 1.3743-0.79297 2.041-0.79297 0.61111 0 1.1035 0.21593 1.4785 0.64648 0.38888 0.41667 0.58398 1.0208 0.58398 1.8125 0 0.375-0.15907 1.5-0.47851 3.375l-2.168 12.541h4.918l2.1445-12.541c0.36111-2.1667 0.54297-3.6326 0.54297-4.3965 0-1.7639-0.4375-3.1521-1.3125-4.166-0.875-1.0139-2.0417-1.5215-3.5-1.5215zm29.707 0c-3.4444 0-6.0751 1.3958-7.8945 4.1875-1.6389 2.5417-2.459 5.625-2.459 9.25 0 2.9861 0.78407 5.3479 2.3535 7.084 1.5694 1.7361 3.6111 2.6035 6.125 2.6035 3.0833 0 5.5777-1.2765 7.4805-3.832 1.9167-2.5694 2.875-5.6888 2.875-9.3555 0-3.125-0.77084-5.5625-2.3125-7.3125-1.5278-1.75-3.5846-2.625-6.168-2.625zm20.688 0c-2.5556 0-4.5688 0.67426-6.041 2.0215-1.4722 1.3472-2.209 3.0632-2.209 5.1465 0 1.7639 0.5625 3.1938 1.6875 4.291 0.70833 0.68055 2.5284 1.6105 5.459 2.791 1.0556 0.41666 1.7222 0.77083 2 1.0625 0.26389 0.30555 0.39649 0.68055 0.39649 1.125 0 0.65278-0.3125 1.2229-0.9375 1.709s-1.4451 0.72852-2.459 0.72852c-1.0556 0-1.9021-0.24241-2.541-0.72852-0.6389-0.5-1.1673-1.375-1.584-2.625l-4.75 0.91602c1.0694 4.4583 4.0618 6.6875 8.9785 6.6875 2.5 0 4.5076-0.73482 6.0215-2.207s2.2715-3.3264 2.2715-5.5625c0-1.6528-0.59094-3.0562-1.7715-4.209-0.80555-0.79167-2.3813-1.6042-4.7285-2.4375-1.6389-0.58333-2.5972-1.0076-2.875-1.2715-0.375-0.34722-0.5625-0.76953-0.5625-1.2695 0-0.59722 0.2424-1.0916 0.72851-1.4805 0.48611-0.38889 1.202-0.58203 2.1465-0.58203 2 0 3.2632 0.875 3.791 2.625l4.5215-0.95898c-0.69444-3.8472-3.2096-5.7715-7.543-5.7715zm33.355 0c-1.0694 0-2.1111 0.25-3.125 0.75-1 0.48611-2.1042 1.3611-3.3125 2.625l0.47851-2.875h-4.6465l-3.791 22.125h4.8965l1.5625-9.082c0.4861-2.8472 0.97091-4.7847 1.457-5.8125 0.48611-1.0417 1.2305-1.9375 2.2305-2.6875 0.69444-0.52778 1.3743-0.79297 2.041-0.79297 0.61111 0 1.1035 0.21593 1.4785 0.64648 0.38888 0.41667 0.58398 1.0208 0.58398 1.8125 0 0.375-0.15907 1.5-0.47851 3.375l-2.168 12.541h4.918l2.1445-12.541c0.36111-2.1667 0.54297-3.6326 0.54297-4.3965 0-1.7639-0.4375-3.1521-1.3125-4.166-0.87501-1.0139-2.0417-1.5215-3.5-1.5215zm17.395 0c-2.1528 0-3.9293 0.53602-5.332 1.6055-1.4028 1.0694-2.3895 2.6243-2.959 4.666l4.791 0.5c0.375-1.6806 1.411-2.5215 3.1055-2.5215 0.77778 0 1.3876 0.20833 1.832 0.625 0.45834 0.40278 0.6875 0.9388 0.6875 1.6055 0 0.5-0.10416 1.1723-0.3125 2.0195-0.79167 0.33333-2.3542 0.61936-4.6875 0.85547-2.6528 0.25-4.541 0.97917-5.666 2.1875-1.1389 1.2083-1.709 2.9299-1.709 5.166 0 1.9444 0.5 3.4994 1.5 4.666 1 1.1667 2.2368 1.75 3.709 1.75 0.93056 0 1.8605-0.25565 2.791-0.76954 0.94444-0.51388 1.7778-1.2582 2.5-2.2305 0.04166 0.86111 0.16102 1.6944 0.35547 2.5h4.75c-0.26389-1.125-0.39649-2.1667-0.39649-3.125 0-1.0556 0.2424-2.9097 0.72852-5.5625 0.58333-3.2222 0.91666-5.1938 1-5.916 0.09722-0.72222 0.14648-1.4021 0.14648-2.041 0-1.8056-0.59093-3.2506-1.7715-4.334-1.1806-1.0972-2.8681-1.6465-5.0625-1.6465zm20.146 0c-3.4444 0-6.077 1.3958-7.8965 4.1875-1.6389 2.5417-2.457 5.625-2.457 9.25 0 2.9861 0.78406 5.3479 2.3535 7.084s3.6111 2.6035 6.125 2.6035c3.0833 0 5.5757-1.2765 7.4785-3.832 1.9167-2.5694 2.875-5.6888 2.875-9.3555 0-3.125-0.77083-5.5625-2.3125-7.3125-1.5278-1.75-3.5827-2.625-6.166-2.625zm-224.88 4.25c0.98611 0 1.7854 0.40343 2.3965 1.209 0.625 0.80556 0.9375 2.048 0.9375 3.7285l-0.02149 0.58398h-7.666c0.27778-1.8194 0.81944-3.1944 1.625-4.125 0.81944-0.93056 1.7285-1.3965 2.7285-1.3965zm29.25 0c0.98611 0 1.7854 0.40343 2.3965 1.209 0.625 0.80556 0.9375 2.048 0.9375 3.7285l-0.02149 0.58398h-7.666c0.27777-1.8194 0.81944-3.1944 1.625-4.125 0.81944-0.93056 1.7285-1.3965 2.7285-1.3965zm50.584 0c0.9861 0 1.7834 0.40343 2.3945 1.209 0.625 0.80556 0.9375 2.048 0.9375 3.7285l-0.01953 0.58398h-7.668c0.27777-1.8194 0.81944-3.1944 1.625-4.125 0.81944-0.93056 1.7305-1.3965 2.7305-1.3965zm53.438 0.23047c1.0556 0 1.923 0.41667 2.6035 1.25 0.69445 0.83333 1.041 1.9792 1.041 3.4375 0 2.875-0.64584 5.2841-1.9375 7.2285-0.93056 1.4167-2.0612 2.125-3.3945 2.125-1.0556 0-1.9458-0.45833-2.668-1.375-0.70834-0.91667-1.0625-2.2007-1.0625-3.8535 0-1.625 0.29166-3.1951 0.875-4.709s1.2652-2.5764 2.043-3.1875c0.77778-0.61111 1.6111-0.91602 2.5-0.91602zm91.582 0c1.0556 0 1.9249 0.41667 2.6055 1.25 0.69444 0.83333 1.041 1.9792 1.041 3.4375 0 2.875-0.64583 5.2841-1.9375 7.2285-0.93055 1.4167-2.0632 2.125-3.3965 2.125-1.0556 0-1.9438-0.45833-2.666-1.375-0.70833-0.91667-1.0625-2.2007-1.0625-3.8535 0-1.625 0.29167-3.1951 0.875-4.709s1.2632-2.5764 2.041-3.1875c0.77777-0.61111 1.6111-0.91602 2.5-0.91602zm-18.957 7.832-0.14649 0.79296c-0.26389 1.5694-0.58398 2.7001-0.95898 3.3945-0.375 0.68055-0.875 1.2166-1.5 1.6055-0.625 0.375-1.2765 0.5625-1.957 0.5625-0.65278 0-1.1944-0.22916-1.625-0.6875-0.41667-0.45833-0.625-1.0568-0.625-1.793 0-0.94445 0.35981-1.6944 1.082-2.25 0.73611-0.56945 2.2513-1.0202 4.543-1.3535 0.48611-0.08333 0.88194-0.17426 1.1875-0.27148zm-11.812 30.451c1.125 4.7222 1.6875 8.9854 1.6875 12.791 0 5.2083-0.70269 10.091-2.1055 14.646-1.2361 4-3.382 8.2007-6.4375 12.604h3.7305c2.0694-2.9028 3.5618-5.2077 4.4785-6.916 1.5417-2.9167 2.7159-5.8409 3.5215-8.7715 0.80556-2.9444 1.207-5.8952 1.207-8.8535 0-5-0.91666-10.167-2.75-15.5h-3.332zm-26.709 0.51953-0.91601 5.418h4.8945l0.9375-5.418h-4.916zm-107.5 0.75-5.6035 4.125-0.60547 3.543h-2.3945l-0.75 4.4375h2.375l-1.5215 8.8945c-0.41667 2.4444-0.625 4.0145-0.625 4.709 0 1.5 0.40907 2.6382 1.2285 3.416 0.83333 0.77777 2.0833 1.168 3.75 1.168 0.86111 0 1.7153-0.09853 2.5625-0.29297l0.77148-4.4375c-0.875 0.09723-1.4091 0.14648-1.6035 0.14648-0.61112 0-1.043-0.1174-1.293-0.35351-0.25-0.23612-0.375-0.59788-0.375-1.084 0-0.26389 0.14019-1.2298 0.41797-2.8965l1.6035-9.2695h3l0.75-4.4375h-3l1.3125-7.668zm46.666 0-5.6035 4.125-0.60351 3.543h-2.3965l-0.75 4.4375h2.375l-1.5215 8.8945c-0.41667 2.4444-0.625 4.0145-0.625 4.709 0 1.5 0.41102 2.6382 1.2305 3.416 0.83333 0.77777 2.0833 1.168 3.75 1.168 0.86111 0 1.7153-0.09853 2.5625-0.29297l0.76953-4.4375c-0.875 0.09723-1.4091 0.14648-1.6035 0.14648-0.61111 0-1.041-0.1174-1.291-0.35351-0.25-0.23612-0.375-0.59788-0.375-1.084 0-0.26389 0.13823-1.2298 0.41601-2.8965l1.6035-9.2695h3l0.75-4.4375h-3l1.3125-7.668zm-85.5 7.168c-3.1944 0-5.6793 1.2973-7.457 3.8945-1.7778 2.5833-2.668 5.5777-2.668 8.9805 0 3.1528 0.77843 5.6528 2.334 7.5 1.5694 1.8333 3.5354 2.75 5.8965 2.75 1.7778 0 3.3819-0.53603 4.8125-1.6055 1.4306-1.0694 2.5764-2.6792 3.4375-4.832l-4.3965-0.89649c-0.93055 2.0556-2.2014 3.084-3.8125 3.084-0.97223 0-1.8056-0.4451-2.5-1.334-0.69444-0.88889-1.041-2.0764-1.041-3.5625v-0.5625h12.312c0.22222-1.1389 0.33203-2.4382 0.33203-3.8965 0-3.0833-0.67231-5.4375-2.0195-7.0625-1.3333-1.6389-3.0777-2.457-5.2305-2.457zm19.105 0c-2.5556 0-4.5708 0.67231-6.043 2.0195-1.4722 1.3472-2.207 3.0632-2.207 5.1465 0 1.7639 0.5625 3.1938 1.6875 4.291 0.70833 0.68055 2.5265 1.6124 5.457 2.793 1.0556 0.41666 1.7222 0.77083 2 1.0625 0.26388 0.30555 0.39648 0.68055 0.39648 1.125 0 0.65278-0.3125 1.2209-0.9375 1.707s-1.4451 0.73047-2.459 0.73047c-1.0556 0-1.9021-0.24436-2.541-0.73047-0.63889-0.5-1.1673-1.375-1.584-2.625l-4.75 0.91797c1.0694 4.4583 4.0638 6.6875 8.9805 6.6875 2.5 0 4.5056-0.73677 6.0195-2.209s2.2715-3.3264 2.2715-5.5625c0-1.6528-0.59092-3.0562-1.7715-4.209-0.80556-0.79167-2.3813-1.6042-4.7285-2.4375-1.6389-0.58333-2.5972-1.0056-2.875-1.2695-0.375-0.34722-0.5625-0.77149-0.5625-1.2715 0-0.59722 0.2424-1.0896 0.72852-1.4785 0.4861-0.38889 1.202-0.58399 2.1465-0.58399 2 0 3.2632 0.875 3.791 2.625l4.5215-0.95898c-0.69445-3.8472-3.2077-5.7695-7.541-5.7695zm33.729 0c-2 0-3.8466 1.5966-5.541 4.791l0.72851-4.291h-4.584l-3.791 22.125h4.8965l1.207-6.9375c0.52778-3.1111 1.0638-5.3062 1.6055-6.584 0.54166-1.2778 1.3181-2.3118 2.332-3.1035 0.66666-0.51389 1.3826-0.77149 2.1465-0.77149 0.48611 0 0.95205 0.09658 1.3965 0.29102l1.875-4.8945c-0.81944-0.41667-1.577-0.625-2.2715-0.625zm68.084 0c-2 0-3.8485 1.5966-5.543 4.791l0.73047-4.291h-4.584l-3.791 22.125h4.8945l1.209-6.9375c0.52777-3.1111 1.0618-5.3062 1.6035-6.584 0.54166-1.2778 1.3201-2.3118 2.334-3.1035 0.66667-0.51389 1.3826-0.77149 2.1465-0.77149 0.48611 0 0.95008 0.09658 1.3945 0.29102l1.875-4.8945c-0.81945-0.41667-1.5751-0.625-2.2695-0.625zm11.104 0c-2.1528 0-3.9312 0.53407-5.334 1.6035-1.4028 1.0694-2.3876 2.6244-2.957 4.666l4.791 0.5c0.375-1.6806 1.4091-2.5195 3.1035-2.5195 0.77777 0 1.3895 0.20833 1.834 0.625 0.45833 0.40278 0.6875 0.93685 0.6875 1.6035 0 0.5-0.10417 1.1743-0.3125 2.0215-0.79167 0.33333-2.3542 0.6174-4.6875 0.85351-2.6528 0.25-4.541 0.97917-5.666 2.1875-1.1389 1.2083-1.709 2.9299-1.709 5.166 0 1.9444 0.5 3.5013 1.5 4.668 1 1.1667 2.2368 1.75 3.709 1.75 0.93055 0 1.8604-0.2576 2.791-0.77149 0.94445-0.51388 1.7778-1.2563 2.5-2.2285 0.04167 0.86111 0.15907 1.6944 0.35352 2.5h4.75c-0.26389-1.125-0.39453-2.1667-0.39453-3.125 0-1.0556 0.2424-2.9097 0.72851-5.5625 0.58333-3.2222 0.91667-5.1958 1-5.918 0.09723-0.72223 0.14649-1.4021 0.14649-2.041 0-1.8056-0.59093-3.2506-1.7715-4.334-1.1806-1.0972-2.868-1.6445-5.0625-1.6445zm29.166 0c-2.5556 0-4.5688 0.67231-6.041 2.0195-1.4722 1.3472-2.209 3.0632-2.209 5.1465 0 1.7639 0.5625 3.1938 1.6875 4.291 0.70833 0.68055 2.5284 1.6124 5.459 2.793 1.0556 0.41666 1.7222 0.77083 2 1.0625 0.26389 0.30555 0.39649 0.68055 0.39649 1.125 0 0.65278-0.3125 1.2209-0.9375 1.707s-1.4451 0.73047-2.459 0.73047c-1.0556 0-1.9021-0.24436-2.541-0.73047-0.63889-0.5-1.1673-1.375-1.584-2.625l-4.75 0.91797c1.0694 4.4583 4.0618 6.6875 8.9785 6.6875 2.5 0 4.5076-0.73677 6.0215-2.209s2.2715-3.3264 2.2715-5.5625c0-1.6528-0.59093-3.0562-1.7715-4.209-0.80555-0.79167-2.3813-1.6042-4.7285-2.4375-1.6389-0.58333-2.5972-1.0056-2.875-1.2695-0.375-0.34722-0.5625-0.77149-0.5625-1.2715 0-0.59722 0.2424-1.0896 0.72851-1.4785 0.48611-0.38889 1.202-0.58399 2.1465-0.58399 2 0 3.2632 0.875 3.791 2.625l4.5215-0.95898c-0.69445-3.8472-3.2096-5.7695-7.543-5.7695zm-103.94 0.5-2.1035 12.332c-0.38889 2.2778-0.58398 3.793-0.58398 4.543 0 1.7917 0.43185 3.2007 1.293 4.2285 0.875 1.0139 2.0473 1.5215 3.5195 1.5215 2.3333 0 4.5076-1.1667 6.5215-3.5l-0.5 3h4.584l3.7695-22.125h-4.8945l-1.793 10.541c-0.34722 2-0.79037 3.5284-1.332 4.584-0.54167 1.0417-1.2708 1.8882-2.1875 2.541-0.65278 0.47222-1.3138 0.70899-1.9805 0.70899-0.56945 0-1.0542-0.22352-1.457-0.66797-0.38889-0.44444-0.58399-0.99935-0.58399-1.666 0-0.38889 0.1326-1.368 0.39649-2.9375l2.25-13.104h-4.918zm33.084 0-2.1035 12.332c-0.3889 2.2778-0.58399 3.793-0.58399 4.543 0 1.7917 0.4299 3.2007 1.291 4.2285 0.875 1.0139 2.0492 1.5215 3.5215 1.5215 2.3333 0 4.5076-1.1667 6.5215-3.5l-0.5 3h4.582l3.7715-22.125h-4.8965l-1.791 10.541c-0.34722 2-0.79232 3.5284-1.334 4.584-0.54167 1.0417-1.2708 1.8882-2.1875 2.541-0.65278 0.47222-1.3118 0.70899-1.9785 0.70899-0.56945 0-1.0562-0.22352-1.459-0.66797-0.38889-0.44444-0.58203-0.99935-0.58203-1.666 0-0.38889 0.13064-1.368 0.39453-2.9375l2.25-13.104h-4.916zm54.562 0-3.791 22.125h4.8945l3.793-22.125h-4.8965zm-145.44 3.75c0.98611 0 1.7854 0.40148 2.3965 1.207 0.625 0.80556 0.9375 2.0499 0.9375 3.7305l-0.02149 0.58203h-7.666c0.27777-1.8194 0.81944-3.1944 1.625-4.125 0.81944-0.93055 1.7285-1.3945 2.7285-1.3945zm133.73 8.0625-0.14453 0.79101c-0.26389 1.5694-0.58399 2.702-0.95899 3.3965-0.375 0.68055-0.875 1.2146-1.5 1.6035-0.625 0.375-1.2784 0.5625-1.959 0.5625-0.65278 0-1.1944-0.22916-1.625-0.6875-0.41667-0.45833-0.625-1.0549-0.625-1.791 0-0.94445 0.36175-1.6944 1.084-2.25 0.73611-0.56945 2.2493-1.0221 4.541-1.3555 0.4861-0.08333 0.88194-0.17231 1.1875-0.26953z" style="text-orientation:upright"/>
  <text font-family="Arial" font-size="40px" font-stretch="condensed" font-style="italic" font-weight="bold" letter-spacing="0px" word-spacing="0px" writing-mode="tb-rl" style="line-height:1.25;shape-inside:url(#rect1166);text-orientation:upright;white-space:pre" xml:space="preserve"/>
  <path d="m519.34 269.64-5.2285 30.543h8.834c1.8889 0 3.2639-0.09093 4.125-0.27148 1.3194-0.26389 2.5827-0.75629 3.791-1.4785 1.2083-0.73611 2.375-1.9028 3.5-3.5 1.1389-1.6111 2.0215-3.4861 2.6465-5.625 0.625-2.1528 0.9375-4.4937 0.9375-7.0215 0-2.4028-0.30687-4.4577-0.91797-6.166-0.61112-1.7222-1.4444-3.0972-2.5-4.125-1.0417-1.0278-2.2632-1.7153-3.666-2.0625-0.83333-0.19445-2.4243-0.29297-4.7715-0.29297h-6.75zm4.293 5.043h2.9785c1.5556 0 2.6465 0.13824 3.2715 0.41602 0.875 0.40278 1.5681 1.1736 2.082 2.3125 0.52778 1.1389 0.79297 2.709 0.79297 4.709 0 2.4167-0.3201 4.5473-0.95899 6.3945-0.63889 1.8333-1.3965 3.2708-2.2715 4.3125-0.875 1.0278-1.8125 1.7096-2.8125 2.043-0.7639 0.26389-2.0972 0.39453-4 0.39453h-2.6035l3.5215-20.582zm26.041 2.875c-2.1528 0-3.9312 0.53408-5.334 1.6035s-2.3876 2.6243-2.957 4.666l4.791 0.5c0.375-1.6806 1.4091-2.5195 3.1035-2.5195 0.77777 0 1.3895 0.20833 1.834 0.625 0.45833 0.40278 0.6875 0.93685 0.6875 1.6035 0 0.5-0.10417 1.1743-0.3125 2.0215-0.79167 0.33333-2.3542 0.6174-4.6875 0.85352-2.6528 0.25-4.541 0.97916-5.666 2.1875-1.1389 1.2083-1.709 2.9299-1.709 5.166 0 1.9444 0.5 3.5013 1.5 4.668s2.2368 1.75 3.709 1.75c0.93055 0 1.8604-0.2576 2.791-0.77148 0.94444-0.51389 1.7778-1.2563 2.5-2.2285 0.04167 0.86111 0.15907 1.6944 0.35352 2.5h4.75c-0.26389-1.125-0.39453-2.1667-0.39453-3.125 0-1.0556 0.2424-2.9097 0.72851-5.5625 0.58333-3.2222 0.91667-5.1958 1-5.918 0.09723-0.72222 0.14649-1.4021 0.14649-2.041 0-1.8056-0.59093-3.2506-1.7715-4.334-1.1806-1.0972-2.868-1.6445-5.0625-1.6445zm23.521 0c-1.0694 0-2.1111 0.25-3.125 0.75-1 0.48611-2.1042 1.3611-3.3125 2.625l0.47851-2.875h-4.6465l-3.791 22.125h4.8965l1.5625-9.084c0.48611-2.8472 0.97091-4.7847 1.457-5.8125 0.48611-1.0417 1.2305-1.9375 2.2305-2.6875 0.69444-0.52778 1.3743-0.79102 2.041-0.79102 0.61111 0 1.1035 0.21398 1.4785 0.64453 0.38889 0.41667 0.58398 1.0208 0.58398 1.8125 0 0.375-0.15907 1.5-0.47851 3.375l-2.168 12.543h4.918l2.1445-12.543c0.3611-2.1667 0.54297-3.6306 0.54297-4.3945 0-1.7639-0.4375-3.1541-1.3125-4.168-0.875-1.0139-2.0417-1.5195-3.5-1.5195zm18.041 0c-3.4444 0-6.077 1.3958-7.8965 4.1875-1.6389 2.5417-2.457 5.625-2.457 9.25 0 2.9861 0.78406 5.3459 2.3535 7.082 1.5694 1.7361 3.6111 2.6055 6.125 2.6055 3.0833 0 5.5757-1.2784 7.4785-3.834 1.9167-2.5694 2.875-5.6868 2.875-9.3535 0-3.125-0.77084-5.5625-2.3125-7.3125-1.5278-1.75-3.5827-2.625-6.166-2.625zm20.688 0c-2.5556 0-4.5688 0.67231-6.041 2.0195-1.4722 1.3472-2.209 3.0632-2.209 5.1465 0 1.7639 0.56249 3.1938 1.6875 4.291 0.70833 0.68056 2.5284 1.6124 5.459 2.793 1.0556 0.41667 1.7222 0.77083 2 1.0625 0.26389 0.30555 0.39453 0.68055 0.39453 1.125 0 0.65278-0.3125 1.2209-0.9375 1.707-0.625 0.48612-1.4431 0.73047-2.457 0.73047-1.0556 0-1.9041-0.24435-2.543-0.73047-0.63889-0.5-1.1654-1.375-1.582-2.625l-4.75 0.91797c1.0694 4.4583 4.0618 6.6875 8.9785 6.6875 2.5 0 4.5076-0.73676 6.0215-2.209 1.5139-1.4722 2.2695-3.3264 2.2695-5.5625 0-1.6528-0.58898-3.0562-1.7695-4.209-0.80556-0.79166-2.3832-1.6042-4.7305-2.4375-1.6389-0.58333-2.5972-1.0056-2.875-1.2695-0.37501-0.34722-0.5625-0.77148-0.5625-1.2715 0-0.59723 0.24435-1.0896 0.73047-1.4785 0.48611-0.38889 1.2001-0.58398 2.1445-0.58398 2 0 3.2652 0.875 3.793 2.625l4.5195-0.95899c-0.69444-3.8472-3.2077-5.7695-7.541-5.7695zm-20.709 4.4785c1.0556 0 1.9249 0.41666 2.6055 1.25 0.69444 0.83333 1.041 1.9792 1.041 3.4375 0 2.875-0.64583 5.2841-1.9375 7.2285-0.93055 1.4167-2.0632 2.125-3.3965 2.125-1.0556 0-1.9438-0.45833-2.666-1.375-0.70833-0.91666-1.0625-2.2007-1.0625-3.8535 0-1.625 0.29167-3.1951 0.875-4.709s1.2632-2.5764 2.041-3.1875c0.77777-0.6111 1.6111-0.91601 2.5-0.91601zm-40.375 7.834-0.14453 0.79102c-0.26389 1.5694-0.58399 2.702-0.95899 3.3965-0.375 0.68055-0.875 1.2146-1.5 1.6035-0.625 0.375-1.2784 0.5625-1.959 0.5625-0.65278 0-1.1944-0.22917-1.625-0.6875-0.41667-0.45834-0.625-1.0549-0.625-1.791 0-0.94445 0.36175-1.6944 1.084-2.25 0.73611-0.56945 2.2493-1.0221 4.541-1.3555 0.4861-0.08333 0.88194-0.17231 1.1875-0.26953zm-40.438 30.971-5.2285 30.541h4.8965l5.25-30.541h-4.918zm9.793 0-0.91797 5.416h4.8965l0.9375-5.416h-4.916zm50.666 0-0.91601 5.416h4.8945l0.9375-5.416h-4.916zm-36.729 7.916c-1.4028 0-2.7854 0.51519-4.1465 1.543-1.3472 1.0278-2.4438 2.6035-3.291 4.7285-0.84723 2.1111-1.2715 4.5903-1.2715 7.4375 0 3 0.57574 5.25 1.7285 6.75s2.6111 2.25 4.375 2.25c1.8056 0 3.5499-0.86175 5.2305-2.584l-0.14649 1.043c-0.31945 2.0694-0.63195 3.4444-0.9375 4.125s-0.73545 1.1862-1.291 1.5195c-0.54167 0.34722-1.25 0.52148-2.125 0.52148-0.88889 0-1.5556-0.21593-2-0.64648-0.43056-0.43056-0.64649-1.0896-0.64649-1.9785l-5.1875-0.91601-0.04101 0.91601c0 2.4444 0.72156 4.2645 2.166 5.459 1.1528 0.95833 3.0278 1.4375 5.625 1.4375 2.2222 0 3.9646-0.41102 5.2285-1.2305 1.2639-0.80555 2.2222-2.1389 2.875-4 0.47222-1.3611 1.0215-3.8403 1.6465-7.4375l3.1465-18.438h-4.6055l-0.66602 3.918c-0.58333-1.4306-1.3826-2.5215-2.3965-3.2715-1-0.76388-2.089-1.1465-3.2695-1.1465zm22.729 0c-3.1944 0-5.6812 1.2993-7.459 3.8965-1.7778 2.5833-2.666 5.5757-2.666 8.9785 0 3.1528 0.77843 5.6528 2.334 7.5 1.5694 1.8333 3.5334 2.75 5.8945 2.75 1.7778 0 3.3819-0.53408 4.8125-1.6035s2.5764-2.6812 3.4375-4.834l-4.3945-0.89453c-0.93056 2.0556-2.2014 3.082-3.8125 3.082-0.97223 0-1.8056-0.44315-2.5-1.332-0.69445-0.8889-1.043-2.0764-1.043-3.5625v-0.5625h12.312c0.22222-1.1389 0.33398-2.4382 0.33398-3.8965 0-3.0833-0.67426-5.4375-2.0215-7.0625-1.3333-1.6389-3.0758-2.459-5.2285-2.459zm31.416 0c-2 0-3.8466 1.5985-5.541 4.793l0.72852-4.293h-4.582l-3.793 22.125h4.8965l1.209-6.9375c0.52778-3.1111 1.0618-5.3042 1.6035-6.582s1.3201-2.3138 2.334-3.1055c0.66666-0.51389 1.3806-0.76953 2.1445-0.76953 0.48611 0 0.95203 0.09657 1.3965 0.29101l1.875-4.8965c-0.81945-0.41667-1.577-0.625-2.2715-0.625zm11.75 0c-3.4444 0-6.0751 1.3958-7.8945 4.1875-1.6389 2.5417-2.459 5.625-2.459 9.25 0 2.9861 0.78407 5.3479 2.3535 7.084 1.5694 1.7361 3.6111 2.6035 6.125 2.6035 3.0833 0 5.5777-1.2765 7.4805-3.832 1.9167-2.5694 2.875-5.6888 2.875-9.3555 0-3.125-0.77084-5.5625-2.3125-7.3125-1.5278-1.75-3.5846-2.625-6.168-2.625zm20.688 0c-2.5556 0-4.5688 0.67426-6.041 2.0215-1.4722 1.3472-2.209 3.0632-2.209 5.1465 0 1.7639 0.5625 3.1938 1.6875 4.291 0.70833 0.68056 2.5284 1.6105 5.459 2.791 1.0556 0.41667 1.7222 0.77083 2 1.0625 0.26389 0.30555 0.39649 0.68055 0.39649 1.125 0 0.65278-0.3125 1.2229-0.9375 1.709-0.625 0.48612-1.4451 0.72852-2.459 0.72852-1.0556 0-1.9021-0.2424-2.541-0.72852-0.63889-0.5-1.1673-1.375-1.584-2.625l-4.75 0.91602c1.0694 4.4583 4.0618 6.6875 8.9785 6.6875 2.5 0 4.5076-0.73481 6.0215-2.207 1.5139-1.4722 2.2715-3.3264 2.2715-5.5625 0-1.6528-0.59094-3.0562-1.7715-4.209-0.80556-0.79166-2.3813-1.6042-4.7285-2.4375-1.6389-0.58333-2.5972-1.0076-2.875-1.2715-0.375-0.34722-0.5625-0.76953-0.5625-1.2695 0-0.59723 0.2424-1.0916 0.72851-1.4805s1.202-0.58203 2.1465-0.58203c2 0 3.2632 0.875 3.791 2.625l4.5215-0.95899c-0.69444-3.8472-3.2096-5.7715-7.543-5.7715zm-101.96 0.5-3.793 22.125h4.8965l3.791-22.125h-4.8945zm50.666 0-3.791 22.125h4.8945l3.793-22.125h-4.8965zm-34.438 3.75c0.90278 0 1.702 0.47917 2.3965 1.4375 0.70833 0.94445 1.0625 2.2361 1.0625 3.875 0 1.6806-0.27084 3.243-0.8125 4.6875-0.54167 1.4306-1.1875 2.459-1.9375 3.084-0.73612 0.625-1.4805 0.9375-2.2305 0.9375-0.91667 0-1.6458-0.38259-2.1875-1.1465-0.70834-1-1.0625-2.339-1.0625-4.0195 0-1.5278 0.28602-3.0903 0.85547-4.6875 0.56944-1.5972 1.1868-2.6882 1.8535-3.2715 0.68055-0.59722 1.368-0.89648 2.0625-0.89648zm21.334 0c0.98611 0 1.7834 0.40343 2.3945 1.209 0.625 0.80556 0.9375 2.048 0.9375 3.7285l-0.01953 0.58398h-7.668c0.27778-1.8194 0.81944-3.1944 1.625-4.125 0.81944-0.93055 1.7305-1.3965 2.7305-1.3965zm43.688 0.23047c1.0556 0 1.923 0.41666 2.6035 1.25 0.69444 0.83333 1.041 1.9792 1.041 3.4375 0 2.875-0.64584 5.2841-1.9375 7.2285-0.93056 1.4167-2.0612 2.125-3.3945 2.125-1.0556 0-1.9458-0.45833-2.668-1.375-0.70834-0.91666-1.0625-2.2007-1.0625-3.8535 0-1.625 0.29166-3.1951 0.875-4.709 0.58333-1.5139 1.2652-2.5764 2.043-3.1875 0.77777-0.6111 1.6111-0.91601 2.5-0.91601z" style="text-orientation:upright"/>
  <path d="m519.34 484.64-5.2285 30.543h8.834c1.8889 0 3.2639-0.09093 4.125-0.27148 1.3194-0.26389 2.5827-0.75629 3.791-1.4785 1.2083-0.73611 2.375-1.9028 3.5-3.5 1.1389-1.6111 2.0215-3.4861 2.6465-5.625 0.625-2.1528 0.9375-4.4937 0.9375-7.0215 0-2.4028-0.30687-4.4577-0.91797-6.166-0.61112-1.7222-1.4444-3.0972-2.5-4.125-1.0417-1.0278-2.2632-1.7153-3.666-2.0625-0.83333-0.19445-2.4243-0.29297-4.7715-0.29297h-6.75zm4.293 5.043h2.9785c1.5556 0 2.6465 0.13824 3.2715 0.41602 0.875 0.40278 1.5681 1.1736 2.082 2.3125 0.52778 1.1389 0.79297 2.709 0.79297 4.709 0 2.4167-0.3201 4.5473-0.95899 6.3945-0.63889 1.8333-1.3965 3.2708-2.2715 4.3125-0.875 1.0278-1.8125 1.7096-2.8125 2.043-0.7639 0.26389-2.0972 0.39453-4 0.39453h-2.6035l3.5215-20.582zm26.041 2.875c-2.1528 0-3.9312 0.53408-5.334 1.6035s-2.3876 2.6244-2.957 4.666l4.791 0.5c0.375-1.6806 1.4091-2.5195 3.1035-2.5195 0.77777 0 1.3895 0.20833 1.834 0.625 0.45833 0.40278 0.6875 0.93685 0.6875 1.6035 0 0.5-0.10417 1.1743-0.3125 2.0215-0.79167 0.33333-2.3542 0.6174-4.6875 0.85352-2.6528 0.25-4.541 0.97916-5.666 2.1875-1.1389 1.2083-1.709 2.9299-1.709 5.166 0 1.9444 0.5 3.5013 1.5 4.668s2.2368 1.75 3.709 1.75c0.93055 0 1.8604-0.2576 2.791-0.77148 0.94444-0.51389 1.7778-1.2563 2.5-2.2285 0.04167 0.86111 0.15907 1.6944 0.35352 2.5h4.75c-0.26389-1.125-0.39453-2.1667-0.39453-3.125 0-1.0556 0.2424-2.9097 0.72851-5.5625 0.58333-3.2222 0.91667-5.1958 1-5.918 0.09723-0.72222 0.14649-1.4021 0.14649-2.041 0-1.8056-0.59093-3.2506-1.7715-4.334-1.1806-1.0972-2.868-1.6445-5.0625-1.6445zm23.521 0c-1.0694 0-2.1111 0.25-3.125 0.75-1 0.48611-2.1042 1.3611-3.3125 2.625l0.47851-2.875h-4.6465l-3.791 22.125h4.8965l1.5625-9.084c0.48611-2.8472 0.97091-4.7847 1.457-5.8125 0.48611-1.0417 1.2305-1.9375 2.2305-2.6875 0.69444-0.52778 1.3743-0.79102 2.041-0.79102 0.61111 0 1.1035 0.21398 1.4785 0.64453 0.38889 0.41667 0.58398 1.0208 0.58398 1.8125 0 0.37501-0.15907 1.5-0.47851 3.375l-2.168 12.543h4.918l2.1445-12.543c0.3611-2.1667 0.54297-3.6306 0.54297-4.3945 0-1.7639-0.4375-3.1541-1.3125-4.168-0.875-1.0139-2.0417-1.5195-3.5-1.5195zm18.041 0c-3.4444 0-6.077 1.3958-7.8965 4.1875-1.6389 2.5417-2.457 5.625-2.457 9.25 0 2.9861 0.78406 5.3459 2.3535 7.082 1.5694 1.7361 3.6111 2.6055 6.125 2.6055 3.0833 0 5.5757-1.2784 7.4785-3.834 1.9167-2.5694 2.875-5.6868 2.875-9.3535 0-3.125-0.77084-5.5625-2.3125-7.3125-1.5278-1.75-3.5827-2.625-6.166-2.625zm20.688 0c-2.5556 0-4.5688 0.67231-6.041 2.0195-1.4722 1.3472-2.209 3.0632-2.209 5.1465 0 1.7639 0.56249 3.1938 1.6875 4.291 0.70833 0.68056 2.5284 1.6124 5.459 2.793 1.0556 0.41667 1.7222 0.77083 2 1.0625 0.26389 0.30555 0.39453 0.68055 0.39453 1.125 0 0.65278-0.3125 1.2209-0.9375 1.707-0.625 0.48612-1.4431 0.73047-2.457 0.73047-1.0556 0-1.9041-0.24435-2.543-0.73047-0.63889-0.5-1.1654-1.375-1.582-2.625l-4.75 0.91797c1.0694 4.4583 4.0618 6.6875 8.9785 6.6875 2.5 0 4.5076-0.73676 6.0215-2.209 1.5139-1.4722 2.2695-3.3264 2.2695-5.5625 0-1.6528-0.58898-3.0562-1.7695-4.209-0.80556-0.79166-2.3832-1.6042-4.7305-2.4375-1.6389-0.58333-2.5972-1.0056-2.875-1.2695-0.37501-0.34722-0.5625-0.77148-0.5625-1.2715 0-0.59723 0.24435-1.0896 0.73047-1.4785 0.48611-0.38889 1.2001-0.58398 2.1445-0.58398 2 0 3.2652 0.875 3.793 2.625l4.5195-0.95899c-0.69444-3.8472-3.2077-5.7695-7.541-5.7695zm-20.709 4.4785c1.0556 0 1.9249 0.41666 2.6055 1.25 0.69444 0.83333 1.041 1.9792 1.041 3.4375 0 2.875-0.64583 5.2841-1.9375 7.2285-0.93055 1.4167-2.0632 2.125-3.3965 2.125-1.0556 0-1.9438-0.45833-2.666-1.375-0.70833-0.91666-1.0625-2.2007-1.0625-3.8535 0-1.625 0.29167-3.1951 0.875-4.709s1.2632-2.5764 2.041-3.1875c0.77777-0.6111 1.6111-0.91601 2.5-0.91601zm-40.375 7.834-0.14453 0.79102c-0.26389 1.5694-0.58399 2.702-0.95899 3.3965-0.375 0.68055-0.875 1.2146-1.5 1.6035-0.625 0.375-1.2784 0.5625-1.959 0.5625-0.65278 0-1.1944-0.22917-1.625-0.6875-0.41667-0.45834-0.625-1.0549-0.625-1.791 0-0.94445 0.36175-1.6944 1.084-2.25 0.73611-0.56945 2.2493-1.0221 4.541-1.3555 0.4861-0.08333 0.88194-0.17231 1.1875-0.26953zm-8.125 30.971-1.957 11.438c-1.2222-2.3472-3.0499-3.5215-5.4805-3.5215-2.625 0-4.7765 1.3958-6.457 4.1875-1.6806 2.7917-2.5215 6.0152-2.5215 9.668 0 3.0972 0.59093 5.4154 1.7715 6.957s2.7014 2.3125 4.5625 2.3125c1.0278 0 1.9709-0.21398 2.832-0.64453 0.875-0.43056 1.7708-1.1806 2.6875-2.25l-0.41602 2.3945h4.6465l5.2285-30.541h-4.8965zm74 0-1.957 11.438c-1.2222-2.3472-3.0499-3.5215-5.4805-3.5215-2.625 0-4.7765 1.3958-6.457 4.1875-1.6806 2.7917-2.5215 6.0152-2.5215 9.668 0 3.0972 0.59093 5.4154 1.7715 6.957 1.1806 1.5417 2.7014 2.3125 4.5625 2.3125 1.0278 0 1.9709-0.21398 2.832-0.64453 0.875-0.43056 1.7708-1.1806 2.6875-2.25l-0.41602 2.3945h4.6465l5.2285-30.541h-4.8965zm-130.14 7.916c-1.9722 0-3.8624 1.0625-5.668 3.1875l0.48047-2.6875h-4.625l-3.793 22.125h4.8965l1.75-10.166c0.36111-2.0694 0.67361-3.4861 0.9375-4.25 0.44444-1.2917 1.041-2.2708 1.791-2.9375 0.76388-0.68055 1.5006-1.0215 2.209-1.0215 0.52778 0 0.95768 0.18185 1.291 0.54297 0.34722 0.3611 0.52148 0.85351 0.52148 1.4785 0 0.44445-0.1326 1.4368-0.39648 2.9785l-2.291 13.375h4.916l1.709-10.062c0.5-2.9167 1.125-4.9507 1.875-6.1035 0.94444-1.4722 2.0069-2.209 3.1875-2.209 0.55555 0 0.99305 0.17426 1.3125 0.52148 0.31945 0.33334 0.47852 0.82009 0.47852 1.459 0 0.22222-0.14584 1.1806-0.4375 2.875l-2.3125 13.52h4.918l2.3125-13.52c0.31944-1.8611 0.47851-3.1736 0.47851-3.9375 0-1.625-0.41667-2.8902-1.25-3.793-0.83333-0.91667-1.9583-1.375-3.375-1.375-1.2083 0-2.4034 0.36936-3.584 1.1055-1.1806 0.72222-2.0972 1.6521-2.75 2.791-0.41667-2.5972-1.9431-3.8965-4.582-3.8965zm28.707 0c-3.4444 0-6.0751 1.3958-7.8945 4.1875-1.6389 2.5417-2.459 5.625-2.459 9.25 0 2.9861 0.78408 5.3479 2.3535 7.084s3.6111 2.6035 6.125 2.6035c3.0833 0 5.5777-1.2765 7.4805-3.832 1.9167-2.5694 2.875-5.6888 2.875-9.3555 0-3.125-0.77084-5.5625-2.3125-7.3125-1.5278-1.75-3.5846-2.625-6.168-2.625zm42.5 0c-3.1944 0-5.6793 1.2993-7.457 3.8965-1.7778 2.5833-2.668 5.5757-2.668 8.9785 0 3.1528 0.77843 5.6528 2.334 7.5 1.5694 1.8333 3.5354 2.75 5.8965 2.75 1.7778 0 3.3819-0.53408 4.8125-1.6035s2.5764-2.6812 3.4375-4.834l-4.3965-0.89453c-0.93055 2.0556-2.2014 3.082-3.8125 3.082-0.97223 0-1.8056-0.44315-2.5-1.332-0.69444-0.8889-1.041-2.0764-1.041-3.5625v-0.5625h12.312c0.22222-1.1389 0.33203-2.4382 0.33203-3.8965 0-3.0833-0.67231-5.4375-2.0195-7.0625-1.3333-1.6389-3.0777-2.459-5.2305-2.459zm21.668 0c-2 0-3.8485 1.5985-5.543 4.793l0.73047-4.293h-4.584l-3.791 22.125h4.8945l1.209-6.9375c0.52778-3.1111 1.0618-5.3042 1.6035-6.582 0.54166-1.2778 1.3201-2.3138 2.334-3.1055 0.66667-0.51389 1.3826-0.76953 2.1465-0.76953 0.4861 0 0.95008 0.09657 1.3945 0.29101l1.875-4.8965c-0.81944-0.41667-1.5751-0.625-2.2695-0.625zm11.104 0c-2.1528 0-3.9312 0.53603-5.334 1.6055-1.4028 1.0694-2.3876 2.6244-2.957 4.666l4.791 0.5c0.375-1.6806 1.4091-2.5215 3.1035-2.5215 0.77778 0 1.3895 0.20833 1.834 0.625 0.45833 0.40278 0.6875 0.9388 0.6875 1.6055 0 0.5-0.10417 1.1723-0.3125 2.0195-0.79167 0.33333-2.3542 0.61935-4.6875 0.85547-2.6528 0.25-4.541 0.97916-5.666 2.1875-1.1389 1.2083-1.709 2.9299-1.709 5.166 0 1.9444 0.5 3.4994 1.5 4.666s2.2368 1.75 3.709 1.75c0.93056 0 1.8605-0.25565 2.791-0.76953 0.94445-0.51389 1.7778-1.2582 2.5-2.2305 0.04167 0.86111 0.15907 1.6944 0.35352 2.5h4.75c-0.26389-1.125-0.39453-2.1667-0.39453-3.125 0-1.0556 0.2424-2.9097 0.72851-5.5625 0.58333-3.2222 0.91667-5.1938 1-5.916 0.09722-0.72222 0.14649-1.4021 0.14649-2.041 0-1.8056-0.59094-3.2506-1.7715-4.334-1.1806-1.0972-2.868-1.6465-5.0625-1.6465zm41.562 0c-3.4444 0-6.077 1.3958-7.8965 4.1875-1.6389 2.5417-2.457 5.625-2.457 9.25 0 2.9861 0.78406 5.3479 2.3535 7.084 1.5694 1.7361 3.6111 2.6035 6.125 2.6035 3.0833 0 5.5757-1.2765 7.4785-3.832 1.9167-2.5694 2.875-5.6888 2.875-9.3555 0-3.125-0.77084-5.5625-2.3125-7.3125-1.5278-1.75-3.5827-2.625-6.166-2.625zm20.688 0c-2.5556 0-4.5688 0.67426-6.041 2.0215-1.4722 1.3472-2.209 3.0632-2.209 5.1465 0 1.7639 0.5625 3.1938 1.6875 4.291 0.70833 0.68056 2.5284 1.6105 5.459 2.791 1.0556 0.41667 1.7222 0.77083 2 1.0625 0.26388 0.30555 0.39453 0.68055 0.39453 1.125 0 0.65278-0.3125 1.2229-0.9375 1.709-0.625 0.48612-1.4431 0.72852-2.457 0.72852-1.0556 0-1.9041-0.2424-2.543-0.72852-0.63889-0.5-1.1654-1.375-1.582-2.625l-4.75 0.91602c1.0694 4.4583 4.0618 6.6875 8.9785 6.6875 2.5 0 4.5076-0.73481 6.0215-2.207 1.5139-1.4722 2.2695-3.3264 2.2695-5.5625 0-1.6528-0.58898-3.0562-1.7695-4.209-0.80556-0.79166-2.3832-1.6042-4.7305-2.4375-1.6389-0.58333-2.5972-1.0076-2.875-1.2715-0.375-0.34722-0.5625-0.76953-0.5625-1.2695 0-0.59723 0.24436-1.0916 0.73047-1.4805s1.2001-0.58203 2.1445-0.58203c2 0 3.2652 0.875 3.793 2.625l4.5195-0.95899c-0.69444-3.8472-3.2077-5.7715-7.541-5.7715zm-95.562 4.25c0.98611 0 1.7854 0.40343 2.3965 1.209 0.625 0.80556 0.9375 2.048 0.9375 3.7285l-0.02149 0.58398h-7.666c0.27777-1.8194 0.81944-3.1944 1.625-4.125 0.81944-0.93055 1.7285-1.3965 2.7285-1.3965zm-21.25 0.14648c0.91667 0 1.7292 0.49241 2.4375 1.4785 0.70833 0.97223 1.0625 2.2923 1.0625 3.959 0 1.625-0.27843 3.2007-0.83398 4.7285-0.54167 1.5278-1.1799 2.5979-1.916 3.209-0.73611 0.59723-1.4937 0.89649-2.2715 0.89649-0.94444 0-1.7494-0.4375-2.416-1.3125-0.65277-0.875-0.97851-2.1194-0.97851-3.7305 0-1.7361 0.27083-3.3876 0.8125-4.957 0.55555-1.5833 1.2014-2.6875 1.9375-3.3125 0.73611-0.6389 1.4577-0.95899 2.166-0.95899zm74 0c0.91667 0 1.7292 0.49241 2.4375 1.4785 0.70833 0.97223 1.0625 2.2923 1.0625 3.959 0 1.625-0.27843 3.2007-0.83398 4.7285-0.54167 1.5278-1.1799 2.5979-1.916 3.209-0.73611 0.59723-1.4937 0.89649-2.2715 0.89649-0.94444 0-1.7494-0.4375-2.416-1.3125-0.65278-0.875-0.97851-2.1194-0.97851-3.7305 0-1.7361 0.27083-3.3876 0.8125-4.957 0.55555-1.5833 1.2014-2.6875 1.9375-3.3125 0.73611-0.6389 1.4577-0.95899 2.166-0.95899zm-94.729 0.08399c1.0556 0 1.923 0.41666 2.6035 1.25 0.69444 0.83333 1.041 1.9792 1.041 3.4375 0 2.875-0.64584 5.2841-1.9375 7.2285-0.93056 1.4167-2.0612 2.125-3.3945 2.125-1.0556 0-1.9458-0.45833-2.668-1.375-0.70834-0.91666-1.0625-2.2007-1.0625-3.8535 0-1.625 0.29166-3.1951 0.875-4.709 0.58333-1.5139 1.2652-2.5764 2.043-3.1875 0.77778-0.6111 1.6111-0.91601 2.5-0.91601zm116.83 0c1.0556 0 1.9249 0.41666 2.6055 1.25 0.69444 0.83333 1.041 1.9792 1.041 3.4375 0 2.875-0.64583 5.2841-1.9375 7.2285-0.93055 1.4167-2.0632 2.125-3.3965 2.125-1.0556 0-1.9438-0.45833-2.666-1.375-0.70833-0.91666-1.0625-2.2007-1.0625-3.8535 0-1.625 0.29167-3.1951 0.875-4.709s1.2632-2.5764 2.041-3.1875c0.77777-0.6111 1.6111-0.91601 2.5-0.91601zm-40.375 7.832-0.14453 0.79297c-0.2639 1.5694-0.58399 2.7001-0.95899 3.3945-0.375 0.68055-0.875 1.2166-1.5 1.6055-0.625 0.375-1.2784 0.5625-1.959 0.5625-0.65278 0-1.1944-0.22917-1.625-0.6875-0.41667-0.45834-0.625-1.0569-0.625-1.793 0-0.94445 0.36176-1.6944 1.084-2.25 0.73611-0.56945 2.2494-1.0202 4.541-1.3535 0.48611-0.08333 0.88194-0.17426 1.1875-0.27148z" style="text-orientation:upright"/>
  <path d="m452.18 703.62c-2.3056 0-4.4514 0.70074-6.4375 2.1035-1.9722 1.3889-3.5972 3.5215-4.875 6.3965-1.2778 2.8611-1.916 6.1736-1.916 9.9375 0 4.3889 0.875 7.6806 2.625 9.875 1.7639 2.1944 4.1445 3.291 7.1445 3.291 2.6806 0 5.0347-0.8826 7.0625-2.6465 2.0417-1.7639 3.5833-4.4154 4.625-7.957l-5.1875-0.9375c-0.55556 2.1111-1.3945 3.6868-2.5195 4.7285-1.125 1.0278-2.3485 1.541-3.668 1.541-1.3889 0-2.5688-0.65148-3.541-1.957-0.97222-1.3194-1.459-3.2096-1.459-5.668 0-2.625 0.41666-5.0265 1.25-7.207 0.84722-2.1944 1.868-3.757 3.0625-4.6875 1.1944-0.93056 2.4388-1.3965 3.7305-1.3965 1.2639 0 2.2904 0.38259 3.082 1.1465s1.3333 2.0688 1.625 3.916l4.9375-0.58399c-0.30556-3.1806-1.3264-5.6237-3.0625-7.332-1.7222-1.7083-3.8813-2.5625-6.4785-2.5625zm36.729 0.51953-5.2285 30.543h4.8965l5.25-30.543h-4.918zm175.38 0-0.91602 5.418h4.8965l0.9375-5.418h-4.918zm29.209 0-5.2285 30.543h4.8945l5.25-30.543h-4.916zm-220.12 7.918c-3.4444 0-6.077 1.3958-7.8965 4.1875-1.6389 2.5417-2.457 5.625-2.457 9.25 0 2.9861 0.78406 5.3459 2.3535 7.082 1.5694 1.7361 3.6111 2.6055 6.125 2.6055 3.0833 0 5.5757-1.2784 7.4785-3.834 1.9167-2.5694 2.875-5.6868 2.875-9.3535 0-3.125-0.77083-5.5625-2.3125-7.3125-1.5278-1.75-3.5827-2.625-6.166-2.625zm30.521 0c-2.1528 0-3.9312 0.53408-5.334 1.6035s-2.3895 2.6244-2.959 4.666l4.793 0.5c0.375-1.6806 1.4091-2.5195 3.1035-2.5195 0.77777 0 1.3895 0.20833 1.834 0.625 0.45833 0.40278 0.6875 0.93685 0.6875 1.6035 0 0.5-0.10417 1.1743-0.3125 2.0215-0.79167 0.33333-2.3542 0.6174-4.6875 0.85352-2.6528 0.25-4.543 0.97916-5.668 2.1875-1.1389 1.2083-1.707 2.9299-1.707 5.166 0 1.9444 0.5 3.5013 1.5 4.668s2.2348 1.75 3.707 1.75c0.93055 0 1.8624-0.2576 2.793-0.77148 0.94444-0.51389 1.7778-1.2563 2.5-2.2285 0.04166 0.86111 0.15906 1.6944 0.35351 2.5h4.75c-0.26389-1.125-0.39648-2.1667-0.39648-3.125 0-1.0556 0.24436-2.9097 0.73047-5.5625 0.58333-3.2222 0.91666-5.1958 1-5.918 0.09722-0.72222 0.14453-1.4021 0.14453-2.041 0-1.8056-0.58897-3.2506-1.7695-4.334-1.1806-1.0972-2.8681-1.6445-5.0625-1.6445zm22.52 0c-0.94445 0-1.8459 0.20074-2.707 0.60352s-1.8138 1.1244-2.8555 2.166l0.39648-2.2695h-4.6465l-5.2285 30.562h4.8965l1.9785-11.48c1.2361 2.3611 3.0486 3.543 5.4375 3.543 2.2917 0 4.2841-1.1326 5.9785-3.3965 2.0556-2.75 3.084-6.1534 3.084-10.209 0-3.1806-0.58333-5.5612-1.75-7.1445s-2.6951-2.375-4.584-2.375zm18.312 0c-2.5556 0-4.5688 0.67231-6.041 2.0195-1.4722 1.3472-2.209 3.0632-2.209 5.1465 0 1.7639 0.56249 3.1938 1.6875 4.291 0.70833 0.68056 2.5284 1.6124 5.459 2.793 1.0556 0.41667 1.7222 0.77083 2 1.0625 0.26389 0.30555 0.39649 0.68055 0.39649 1.125 0 0.65278-0.3125 1.2209-0.9375 1.707-0.625 0.48612-1.4451 0.73047-2.459 0.73047-1.0556 0-1.9021-0.24435-2.541-0.73047-0.63889-0.5-1.1673-1.375-1.584-2.625l-4.75 0.91797c1.0694 4.4583 4.0618 6.6875 8.9785 6.6875 2.5 0 4.5076-0.73676 6.0215-2.209 1.5139-1.4722 2.2715-3.3264 2.2715-5.5625 0-1.6528-0.59094-3.0562-1.7715-4.209-0.80556-0.79166-2.3813-1.6042-4.7285-2.4375-1.6389-0.58333-2.5972-1.0056-2.875-1.2695-0.375-0.34722-0.5625-0.77148-0.5625-1.2715 0-0.59723 0.2424-1.0896 0.72851-1.4785s1.202-0.58398 2.1465-0.58398c2 0 3.2632 0.875 3.791 2.625l4.5215-0.95899c-0.69444-3.8472-3.2096-5.7695-7.543-5.7695zm20.23 0c-3.4444 0-6.077 1.3958-7.8965 4.1875-1.6389 2.5417-2.459 5.625-2.459 9.25 0 2.9861 0.78602 5.3459 2.3555 7.082 1.5694 1.7361 3.6111 2.6055 6.125 2.6055 3.0833 0 5.5757-1.2784 7.4785-3.834 1.9167-2.5694 2.875-5.6868 2.875-9.3535 0-3.125-0.77083-5.5625-2.3125-7.3125-1.5278-1.75-3.5827-2.625-6.166-2.625zm33.541 0c-0.94445 0-1.8479 0.20074-2.709 0.60352-0.86112 0.40278-1.8118 1.1244-2.8535 2.166l0.39649-2.2695h-4.6465l-5.2285 30.562h4.8945l1.9805-11.48c1.2361 2.3611 3.0486 3.543 5.4375 3.543 2.2917 0 4.2841-1.1326 5.9785-3.3965 2.0556-2.75 3.084-6.1534 3.084-10.209 0-3.1806-0.58334-5.5612-1.75-7.1445-1.1667-1.5833-2.6951-2.375-4.584-2.375zm18.396 0c-2.1528 0-3.9312 0.53408-5.334 1.6035-1.4028 1.0694-2.3895 2.6244-2.959 4.666l4.793 0.5c0.375-1.6806 1.4091-2.5195 3.1035-2.5195 0.77778 0 1.3896 0.20833 1.834 0.625 0.45833 0.40278 0.6875 0.93685 0.6875 1.6035 0 0.5-0.10417 1.1743-0.3125 2.0215-0.79167 0.33333-2.3542 0.6174-4.6875 0.85352-2.6528 0.25-4.543 0.97916-5.668 2.1875-1.1389 1.2083-1.707 2.9299-1.707 5.166 0 1.9444 0.5 3.5013 1.5 4.668s2.2348 1.75 3.707 1.75c0.93056 0 1.8624-0.2576 2.793-0.77148 0.94444-0.51389 1.7778-1.2563 2.5-2.2285 0.04166 0.86111 0.15906 1.6944 0.35351 2.5h4.75c-0.26389-1.125-0.39648-2.1667-0.39648-3.125 0-1.0556 0.24435-2.9097 0.73047-5.5625 0.58333-3.2222 0.91666-5.1958 1-5.918 0.09722-0.72222 0.14453-1.4021 0.14453-2.041 0-1.8056-0.58898-3.2506-1.7695-4.334-1.1806-1.0972-2.8681-1.6445-5.0625-1.6445zm21.979 0c-2 0-3.8466 1.5966-5.541 4.791l0.72851-4.291h-4.584l-3.791 22.125h4.8965l1.207-6.9375c0.52778-3.1111 1.0638-5.3062 1.6055-6.584 0.54166-1.2778 1.3181-2.3118 2.332-3.1035 0.66666-0.51389 1.3826-0.77148 2.1465-0.77148 0.48611 0 0.95204 0.09657 1.3965 0.29101l1.875-4.8945c-0.81945-0.41667-1.577-0.625-2.2715-0.625zm11.729 0c-1.8194 0-3.5334 0.54731-5.1445 1.6445-1.5972 1.0833-2.8681 2.6875-3.8125 4.8125-0.93056 2.1111-1.3965 4.5221-1.3965 7.2305 0 3.0139 0.6951 5.3396 2.084 6.9785 1.3889 1.6389 3.207 2.459 5.457 2.459 1.9861 0 3.7513-0.65343 5.293-1.959 1.5556-1.3194 2.7279-3.2986 3.5195-5.9375l-4.75-0.9375c-0.43056 1.4306-1.0139 2.4855-1.75 3.166-0.72222 0.66667-1.4779 1-2.2695 1-0.75 0-1.3958-0.34657-1.9375-1.041-0.52778-0.70834-0.79297-1.7216-0.79297-3.041 0-1.9861 0.28602-3.8194 0.85547-5.5 0.58333-1.6806 1.2556-2.8472 2.0195-3.5 0.76388-0.65278 1.5423-0.98047 2.334-0.98047 1.7222 0 2.6938 1.2027 2.916 3.6055l4.668-0.60547c-0.16667-2.3194-0.91103-4.1319-2.2305-5.4375-1.3194-1.3056-3.0069-1.957-5.0625-1.957zm28.625 0c-2.1528 0-3.9292 0.53408-5.332 1.6035s-2.3895 2.6244-2.959 4.666l4.791 0.5c0.375-1.6806 1.411-2.5195 3.1055-2.5195 0.77778 0 1.3876 0.20833 1.832 0.625 0.45833 0.40278 0.6875 0.93685 0.6875 1.6035 0 0.5-0.10417 1.1743-0.3125 2.0215-0.79167 0.33333-2.3542 0.6174-4.6875 0.85352-2.6528 0.25-4.541 0.97916-5.666 2.1875-1.1389 1.2083-1.709 2.9299-1.709 5.166 0 1.9444 0.49999 3.5013 1.5 4.668 1 1.1667 2.2368 1.75 3.709 1.75 0.93056 0 1.8605-0.2576 2.791-0.77148 0.94444-0.51389 1.7778-1.2563 2.5-2.2285 0.04166 0.86111 0.16102 1.6944 0.35547 2.5h4.75c-0.26389-1.125-0.39649-2.1667-0.39649-3.125 0-1.0556 0.2424-2.9097 0.72852-5.5625 0.58333-3.2222 0.91666-5.1958 1-5.918 0.09722-0.72222 0.14648-1.4021 0.14648-2.041 0-1.8056-0.59093-3.2506-1.7715-4.334-1.1806-1.0972-2.8681-1.6445-5.0625-1.6445zm-16.375 0.5-3.791 22.125h4.8965l3.791-22.125h-4.8965zm-138.31 3.75c0.97222 0 1.7847 0.4375 2.4375 1.3125 0.66666 0.875 1 2.1382 1 3.791 0 1.7222-0.29167 3.3965-0.875 5.0215-0.56945 1.625-1.2077 2.7424-1.916 3.3535-0.70833 0.59722-1.4299 0.89648-2.166 0.89648-0.91667 0-1.7235-0.47352-2.418-1.418-0.69445-0.94444-1.041-2.2834-1.041-4.0195 0-1.6528 0.27843-3.2569 0.83399-4.8125 0.56944-1.5556 1.2077-2.6332 1.916-3.2305 0.72222-0.59722 1.4646-0.89453 2.2285-0.89453zm72.084 0c0.97222 0 1.7847 0.4375 2.4375 1.3125 0.66667 0.875 1 2.1382 1 3.791 0 1.7222-0.29167 3.3965-0.875 5.0215-0.56945 1.625-1.2077 2.7424-1.916 3.3535-0.70834 0.59722-1.4319 0.89648-2.168 0.89648-0.91667 0-1.7216-0.47352-2.416-1.418-0.69444-0.94444-1.041-2.2834-1.041-4.0195 0-1.6528 0.27647-3.2569 0.83203-4.8125 0.56944-1.5556 1.2096-2.6332 1.918-3.2305 0.72222-0.59722 1.4646-0.89453 2.2285-0.89453zm-123.27 0.22852c1.0556 0 1.9249 0.41666 2.6055 1.25 0.69444 0.83333 1.041 1.9792 1.041 3.4375 0 2.875-0.64583 5.2841-1.9375 7.2285-0.93055 1.4167-2.0632 2.125-3.3965 2.125-1.0556 0-1.9438-0.45833-2.666-1.375-0.70833-0.91666-1.0625-2.2007-1.0625-3.8535 0-1.625 0.29167-3.1951 0.875-4.709s1.2632-2.5764 2.041-3.1875c0.77777-0.6111 1.6111-0.91601 2.5-0.91601zm91.584 0c1.0556 0 1.923 0.41666 2.6035 1.25 0.69444 0.83333 1.043 1.9792 1.043 3.4375 0 2.875-0.64583 5.2841-1.9375 7.2285-0.93056 1.4167-2.0632 2.125-3.3965 2.125-1.0556 0-1.9438-0.45833-2.666-1.375-0.70834-0.91666-1.0625-2.2007-1.0625-3.8535 0-1.625 0.29166-3.1951 0.875-4.709 0.58333-1.5139 1.2632-2.5764 2.041-3.1875 0.77778-0.6111 1.6111-0.91601 2.5-0.91601zm-59.875 7.834-0.14648 0.79102c-0.26389 1.5694-0.58203 2.702-0.95703 3.3965-0.375 0.68055-0.875 1.2146-1.5 1.6035-0.625 0.375-1.2784 0.5625-1.959 0.5625-0.65277 0-1.1944-0.22917-1.625-0.6875-0.41667-0.45834-0.625-1.0549-0.625-1.791 0-0.94445 0.36176-1.6944 1.084-2.25 0.7361-0.56945 2.2493-1.0221 4.541-1.3555 0.48611-0.08333 0.88194-0.17231 1.1875-0.26953zm113 0-0.14648 0.79102c-0.2639 1.5694-0.58203 2.702-0.95703 3.3965-0.375 0.68055-0.875 1.2146-1.5 1.6035-0.625 0.375-1.2784 0.5625-1.959 0.5625-0.65278 0-1.1944-0.22917-1.625-0.6875-0.41667-0.45834-0.625-1.0549-0.625-1.791 0-0.94445 0.36177-1.6944 1.084-2.25 0.73611-0.56945 2.2493-1.0221 4.541-1.3555 0.48611-0.08333 0.88195-0.17231 1.1875-0.26953zm62.334 0-0.14649 0.79102c-0.26389 1.5694-0.58398 2.702-0.95898 3.3965-0.375 0.68055-0.875 1.2146-1.5 1.6035-0.625 0.375-1.2765 0.5625-1.957 0.5625-0.65278 0-1.1944-0.22917-1.625-0.6875-0.41668-0.45834-0.625-1.0549-0.625-1.791 0-0.94445 0.3598-1.6944 1.082-2.25 0.73611-0.56945 2.2513-1.0221 4.543-1.3555 0.48611-0.08333 0.88194-0.17231 1.1875-0.26953zm-54.105 30.971-5.2285 30.541h4.8965l5.25-30.541h-4.918zm-58.875 0.75-5.6035 4.125-0.60351 3.541h-2.3965l-0.75 4.4375h2.375l-1.5215 8.8965c-0.41667 2.4444-0.625 4.0145-0.625 4.709 0 1.5 0.41102 2.6382 1.2305 3.416 0.83333 0.77778 2.0833 1.166 3.75 1.166 0.86111 0 1.7153-0.09658 2.5625-0.29102l0.76953-4.4375c-0.875 0.09723-1.4091 0.14649-1.6035 0.14649-0.61111 0-1.041-0.11936-1.291-0.35547s-0.375-0.59593-0.375-1.082c0-0.2639 0.13823-1.2298 0.41601-2.8965l1.6035-9.2715h3l0.75-4.4375h-3l1.3125-7.666zm33.084 0-5.6035 4.125-0.60547 3.541h-2.3945l-0.75 4.4375h2.375l-1.5215 8.8965c-0.41667 2.4444-0.625 4.0145-0.625 4.709 0 1.5 0.40907 2.6382 1.2285 3.416 0.83333 0.77778 2.0833 1.166 3.75 1.166 0.86111 0 1.7153-0.09658 2.5625-0.29102l0.77148-4.4375c-0.875 0.09723-1.4091 0.14649-1.6035 0.14649-0.61112 0-1.043-0.11936-1.293-0.35547s-0.375-0.59593-0.375-1.082c0-0.2639 0.14019-1.2298 0.41797-2.8965l1.6035-9.2715h3l0.75-4.4375h-3l1.3125-7.666zm-85.166 7.166c-3.4444 0-6.077 1.3958-7.8965 4.1875-1.6389 2.5417-2.459 5.625-2.459 9.25 0 2.9861 0.78602 5.3479 2.3555 7.084 1.5694 1.7361 3.6111 2.6035 6.125 2.6035 3.0833 0 5.5757-1.2765 7.4785-3.832 1.9167-2.5694 2.875-5.6888 2.875-9.3555 0-3.125-0.77083-5.5625-2.3125-7.3125-1.5278-1.75-3.5827-2.625-6.166-2.625zm64.25 0c-3.4444 0-6.077 1.3958-7.8965 4.1875-1.6389 2.5417-2.459 5.625-2.459 9.25 0 2.9861 0.78602 5.3479 2.3555 7.084 1.5694 1.7361 3.6111 2.6035 6.125 2.6035 3.0833 0 5.5757-1.2765 7.4785-3.832 1.9167-2.5694 2.875-5.6888 2.875-9.3555 0-3.125-0.77083-5.5625-2.3125-7.3125-1.5278-1.75-3.5827-2.625-6.166-2.625zm32.438 0c-2.1528 0-3.9312 0.53603-5.334 1.6055s-2.3895 2.6244-2.959 4.666l4.793 0.5c0.375-1.6806 1.4091-2.5215 3.1035-2.5215 0.77778 0 1.3895 0.20833 1.834 0.625 0.45833 0.40278 0.6875 0.9388 0.6875 1.6055 0 0.5-0.10417 1.1723-0.3125 2.0195-0.79167 0.33333-2.3542 0.61935-4.6875 0.85547-2.6528 0.25-4.543 0.97916-5.668 2.1875-1.1389 1.2083-1.707 2.9299-1.707 5.166 0 1.9444 0.5 3.4994 1.5 4.666s2.2348 1.75 3.707 1.75c0.93055 0 1.8624-0.25565 2.793-0.76953 0.94444-0.51389 1.7778-1.2582 2.5-2.2305 0.04166 0.86111 0.15907 1.6944 0.35351 2.5h4.75c-0.26389-1.125-0.39648-2.1667-0.39648-3.125 0-1.0556 0.24435-2.9097 0.73047-5.5625 0.58333-3.2222 0.91666-5.1938 1-5.916 0.09722-0.72222 0.14453-1.4021 0.14453-2.041 0-1.8056-0.58897-3.2506-1.7695-4.334-1.1806-1.0972-2.8681-1.6465-5.0625-1.6465zm-82.605 0.5-2.1035 12.334c-0.38889 2.2778-0.58398 3.791-0.58398 4.541 0 1.7917 0.43185 3.2027 1.293 4.2305 0.875 1.0139 2.0473 1.5195 3.5195 1.5195 2.3333 0 4.5076-1.1667 6.5215-3.5l-0.5 3h4.584l3.7695-22.125h-4.8945l-1.793 10.543c-0.34723 2-0.79037 3.5265-1.332 4.582-0.54167 1.0417-1.2708 1.8902-2.1875 2.543-0.65278 0.47222-1.3138 0.70703-1.9805 0.70703-0.56944 0-1.0542-0.22157-1.457-0.66602-0.38889-0.44444-0.58399-0.99935-0.58399-1.666 0-0.3889 0.1326-1.3681 0.39649-2.9375l2.25-13.105h-4.918zm-14.104 3.9805c1.0556 0 1.923 0.41666 2.6035 1.25 0.69444 0.83333 1.043 1.9792 1.043 3.4375 0 2.875-0.64584 5.2841-1.9375 7.2285-0.93056 1.4167-2.0632 2.125-3.3965 2.125-1.0556 0-1.9438-0.45833-2.666-1.375-0.70834-0.91666-1.0625-2.2007-1.0625-3.8535 0-1.625 0.29166-3.1951 0.875-4.709 0.58333-1.5139 1.2632-2.5764 2.041-3.1875 0.77778-0.6111 1.6111-0.91601 2.5-0.91601zm64.25 0c1.0556 0 1.923 0.41666 2.6035 1.25 0.69444 0.83333 1.043 1.9792 1.043 3.4375 0 2.875-0.64584 5.2841-1.9375 7.2285-0.93056 1.4167-2.0632 2.125-3.3965 2.125-1.0556 0-1.9438-0.45833-2.666-1.375-0.70834-0.91666-1.0625-2.2007-1.0625-3.8535 0-1.625 0.29166-3.1951 0.875-4.709 0.58333-1.5139 1.2632-2.5764 2.041-3.1875 0.77777-0.6111 1.6111-0.91601 2.5-0.91601zm33.625 7.832-0.14648 0.79297c-0.26389 1.5694-0.58203 2.7001-0.95703 3.3945-0.375 0.68055-0.875 1.2166-1.5 1.6055-0.625 0.375-1.2784 0.5625-1.959 0.5625-0.65278 0-1.1944-0.22917-1.625-0.6875-0.41667-0.45834-0.625-1.0569-0.625-1.793 0-0.94445 0.36177-1.6944 1.084-2.25 0.73611-0.56945 2.2493-1.0202 4.541-1.3535 0.48611-0.08333 0.88195-0.17426 1.1875-0.27148z" style="text-orientation:upright"/>
</svg>
