<svg version="1.1" viewBox="0 0 810 530" xmlns="http://www.w3.org/2000/svg">
  <path id="crack_diagonal_left" d="m20.22 280h209.56c11.202 0 20.22 9.0179 20.22 20.22v209.56c0 11.202-9.0179 20.22-20.22 20.22h-209.56c-11.202 0-20.22-9.0179-20.22-20.22v-209.56c0-11.202 9.0179-20.22 20.22-20.22z" fill="#fff" stop-color="#000000"/>
  <path d="m86.477 485.63c-2.9513 0-5.4542 1.279-7.5098 3.8398-2.3082 2.8824-3.4629 6.6377-3.4629 11.266 0 2.1934 0.40732 4.1524 1.2227 5.875 0.81534 1.7225 1.8601 3.0076 3.1348 3.8574 1.2862 0.84979 2.728 1.2754 4.3242 1.2754 1.8374 0 3.5888-0.58648 5.2539-1.7578 1.6651-1.1713 3.0438-2.9166 4.1348-5.2363 1.0909-2.3312 1.6367-4.9257 1.6367-7.7852 0-3.5599-0.83901-6.3397-2.5156-8.3379-1.6651-1.9982-3.7383-2.9961-6.2188-2.9961zm14.193 0.42969-4.3223 25.254h2.2383l0.60352-3.4629c0.8498 2.5838 2.3018 3.875 4.3574 3.875 1.0909 0 2.1988-0.44193 3.3242-1.3262 1.1254-0.89573 2.0744-2.2683 2.8438-4.1172 0.76941-1.8604 1.1524-3.9335 1.1524-6.2188 0-2.4805-0.47655-4.3398-1.4297-5.5801-0.95315-1.2517-2.1242-1.877-3.5137-1.877-0.67754 0-1.3496 0.18331-2.0156 0.55078-0.65456 0.356-1.3939 0.99951-2.2207 1.9297l1.5488-9.0273h-2.5664zm15.918 0-4.3242 25.254h2.5664l4.3242-25.254h-2.5664zm7.6465 0-2.6524 4.7383h2.1191l3.7559-4.7383h-3.2226zm-37.879 2.377c1.6881 0 3.1238 0.73517 4.3066 2.2051 1.1943 1.4584 1.791 3.4623 1.791 6.0117 0 2.3541-0.41755 4.5311-1.2559 6.5293-0.83831 1.9867-1.8728 3.4448-3.1016 4.375-1.2173 0.93018-2.4575 1.3945-3.7207 1.3945-1.6651 1e-5 -3.107-0.72907-4.3242-2.1875-1.2173-1.4584-1.8242-3.4094-1.8242-5.8555 1e-6 -4.0422 0.95309-7.2416 2.8594-9.5957 1.5618-1.9178 3.3173-2.877 5.2695-2.877zm48.525 4.1699c-1.1713 0-2.3199 0.44193-3.4453 1.3262-1.1254 0.88424-2.0663 2.2507-2.8242 4.0996-0.75793 1.8489-1.1387 3.922-1.1387 6.2188 0 2.4575 0.48873 4.3169 1.4648 5.5801 0.98759 1.2632 2.183 1.8945 3.584 1.8945 1.2862 0 2.6568-0.82682 4.1152-2.4805l-1.5488 9.0781h2.5488l4.3398-25.305h-2.2207l-0.56836 3.3594c-0.45935-1.2747-1.0682-2.2217-1.8262-2.8418-0.75793-0.62011-1.5847-0.92969-2.4805-0.92969zm32.951 0c-3.491 0-5.7821 1.8716-6.873 5.6152l2.584 0.27539c0.6316-2.2278 2.0103-3.3418 4.1348-3.3418 1.0565 0 1.8609 0.23425 2.4121 0.70508 0.5627 0.45934 0.84375 1.0743 0.84375 1.8438 0 0.55122-0.10384 1.264-0.31054 2.1367-0.37896 0.18374-0.83722 0.32024-1.377 0.41211-0.52824 0.09187-1.5118 0.17938-2.9473 0.25976-1.6996 0.08038-3.0071 0.35534-3.9258 0.82617-0.90721 0.45935-1.6139 1.1253-2.1191 1.998-0.50528 0.87275-0.75782 1.8951-0.75782 3.0664 0 1.6422 0.43584 2.9394 1.3086 3.8926 0.88424 0.95314 1.9921 1.4297 3.3242 1.4297 0.84979 0 1.6888-0.19963 2.5156-0.60156 0.82683-0.40193 1.7107-1.0983 2.6524-2.0859 0.05742 0.94166 0.16126 1.7012 0.31054 2.2754h2.5664c-0.19523-1.0335-0.29297-1.8664-0.29297-2.498 0-0.89573 0.13236-2.0667 0.39648-3.5137l0.82618-4.5488c0.22967-1.2977 0.3457-2.428 0.3457-3.3926 0-1.3666-0.50702-2.4988-1.5176-3.3945-1.0106-0.90721-2.3771-1.3594-4.0996-1.3594zm-45.01 0.41211-3.1348 18.295h2.5488l3.1348-18.295h-2.5488zm23.375 0-1.8086 10.561c-0.32154 1.8604-0.48242 3.18-0.48242 3.9609 0 1.2287 0.36856 2.2328 1.1035 3.0137 0.74644 0.78088 1.6649 1.1719 2.7558 1.1719 1.8833 0 3.7264-1.2402 5.5293-3.7207l-0.56836 3.3086h2.3594l3.1348-18.295h-2.5488l-1.3613 7.9062c-0.31006 1.8489-0.67667 3.3253-1.1016 4.4277-0.41341 1.0909-1.0752 2.0033-1.9824 2.7383-0.89572 0.72347-1.7959 1.0859-2.7031 1.0859-0.64308 0-1.1421-0.1833-1.498-0.55078-0.356-0.37896-0.53516-0.93082-0.53516-1.6543 0-0.52825 0.08556-1.2798 0.25782-2.2559l1.998-11.697h-2.5488zm-41.082 2.1016c0.93018 0 1.7 0.42561 2.3086 1.2754 0.62012 0.83832 0.92969 2.0907 0.92969 3.7559 0 1.5618-0.29324 3.1564-0.87891 4.7871-0.57418 1.6192-1.2177 2.7332-1.9297 3.3418-0.71199 0.59715-1.435 0.89648-2.1699 0.89648-0.91869 0-1.6946-0.39708-2.3262-1.1894-0.62012-0.80386-0.92969-1.981-0.92969-3.5312l0.01758-0.6543c0-0.9072 0.19549-2.0497 0.58594-3.4277 0.53973-1.8718 1.1996-3.2159 1.9805-4.0312 0.78089-0.81534 1.5853-1.2227 2.4121-1.2227zm29.887 0.05274c0.87276 0 1.6304 0.4195 2.2734 1.2578s0.96484 2.0093 0.96484 3.5137c0 1.6651-0.28714 3.2903-0.86132 4.875-0.57418 1.5733-1.3033 2.7443-2.1875 3.5137-0.6316 0.5627-1.2934 0.84375-1.9824 0.84375-0.89572 0-1.6533-0.42559-2.2734-1.2754-0.62012-0.86127-0.92969-2.2034-0.92969-4.0293 0-1.4929 0.29324-3.0264 0.87891-4.5996 0.59715-1.5733 1.2855-2.6933 2.0664-3.3594 0.58567-0.4938 1.2699-0.74023 2.0508-0.74023zm35.242 6.873c-0.28709 1.9292-0.67198 3.3691-1.1543 4.3223-0.47082 0.95315-1.0839 1.6822-1.8418 2.1875-0.75793 0.50528-1.546 0.75781-2.3613 0.75781-0.86127 0-1.5496-0.26886-2.0664-0.80859s-0.77539-1.2749-0.77539-2.2051c0-0.67753 0.16088-1.2742 0.48242-1.791 0.32155-0.51677 0.76957-0.90166 1.3438-1.1543s1.6311-0.46032 3.1699-0.62109c1.5044-0.16077 2.5715-0.38893 3.2031-0.6875z" stroke-width="1.3229" style="font-variant-caps:normal;font-variant-east-asian:normal;font-variant-ligatures:normal;font-variant-numeric:normal;text-orientation:upright"/>
  <g transform="matrix(.54284 -.54284 -.54284 -.54284 152.57 528.34)">
    <path d="m92.658 9.4114-16.57 34.39 5.5392 6.7954-9.3999 13.364 6.5464 11.326-11.414 16.082 11.414 17.668-4.1964 25.822 25.01 31.259-41.964 23.104 29.375 26.955-18.968 34.883 37.935 39.64-30.382-39.866 20.31-37.828-23.835-20.839 40.621-23.331-31.557-39.187 3.6928-24.463-9.232-14.27 10.575-13.364-7.8892-12.458 10.575-14.044-7.5535-9.0605z" stroke="#000" stroke-width=".19334"/>
  </g>
  <path id="crack_vertical" d="m20.22 0h209.56c11.202 0 20.22 9.0179 20.22 20.22v209.56c0 11.202-9.0179 20.22-20.22 20.22h-209.56c-11.202 0-20.22-9.0179-20.22-20.22v-209.56c0-11.202 9.0179-20.22 20.22-20.22z" fill="#fff" stop-color="#000000"/>
  <path d="m79.879 206.06 3.9805 25.254h2.9629l11.367-25.254h-2.8594l-7.3711 16.537c-0.55122 1.2288-1.2701 2.9394-2.1543 5.1328-0.12632-1.6766-0.41347-3.8821-0.86133-6.6152l-2.3945-15.055h-2.6699zm52.797 0-0.60351 3.5312h2.5508l0.60156-3.5312h-2.5488zm36.896 0-4.3223 25.254h2.5664l4.3223-25.254h-2.5664zm-42.219 0.31054-2.9297 2.1524-0.77344 4.4961h-2.0156l-0.01563 0.0918c-0.6116-0.32897-1.145-0.50391-1.5879-0.50391-1.5158 0-3.0249 1.3828-4.5293 4.1504l0.63672-3.7383h-2.2559l-3.1348 18.295h2.4277l1.2754-7.3398c0.52825-3.1236 1.2573-5.2986 2.1875-6.5273 0.94166-1.2402 1.8826-1.8613 2.8242-1.8613 0.49379 0 0.9662 0.1955 1.4141 0.58594l0.41016-1.1309-0.06641 0.39062h2.0156l-1.8086 10.629c-0.25264 1.4469-0.3789 2.3715-0.3789 2.7734 0 0.84979 0.27496 1.526 0.82617 2.0312 0.5627 0.50528 1.3203 0.75782 2.2734 0.75782 0.57418 0 1.1668-0.09775 1.7754-0.29297l0.44726-2.5488c-0.44786 0.13781-0.95292 0.20703-1.5156 0.20703-0.37896 0-0.66002-0.09165-0.84375-0.27539-0.18374-0.18374-0.27539-0.47698-0.27539-0.87891 0-0.22967 0.10798-0.99336 0.32617-2.291l1.7402-10.111h2.498l0.41211-2.4121h-2.4961l1.1367-6.6484zm-24.211 6.2363c-1.3666 0-2.6353 0.42974-3.8066 1.291-1.1713 0.84978-2.1651 2.2041-2.9805 4.0644-0.80386 1.8604-1.2051 3.8643-1.2051 6.0117 0 1.6307 0.26277 3.0379 0.79102 4.2207 0.52825 1.1713 1.241 2.0552 2.1367 2.6524 0.89572 0.58566 1.8895 0.8789 2.9805 0.8789 1.5388 0 2.9338-0.55601 4.1856-1.6699 1.5044-1.3206 2.4635-2.8724 2.877-4.6523l-2.498-0.3086c-0.47084 1.3206-1.1307 2.3308-1.9805 3.0312-0.83831 0.70051-1.6936 1.0508-2.5664 1.0508-0.9187 0-1.7068-0.44192-2.3613-1.3262-0.65457-0.89572-0.98047-2.2052-0.98047-3.9277 0-0.28709 0.016328-0.61494 0.050781-0.98242h11.059c0.12632-0.94166 0.18945-1.8601 0.18945-2.7559 0-2.4116-0.54991-4.277-1.6523-5.5977-1.091-1.3206-2.5042-1.9805-4.2383-1.9805zm40.299 0c-1.424 0-2.7212 0.42974-3.8926 1.291-1.1599 0.86127-2.1251 2.246-2.8945 4.1523-0.75792 1.9063-1.1367 4.0243-1.1367 6.3555 0 2.3771 0.51725 4.1916 1.5508 5.4434 1.045 1.2517 2.3606 1.877 3.9453 1.877 1.4699 0 2.8018-0.54991 3.9961-1.6523 1.1943-1.1139 2.1128-2.8144 2.7558-5.0996l-2.5664-0.32813c-0.4249 1.5733-1.0175 2.7462-1.7754 3.5156-0.75792 0.76941-1.5501 1.1523-2.377 1.1523-0.80386 0-1.4983-0.3788-2.084-1.1367-0.57419-0.7694-0.86133-1.8875-0.86133-3.3574 0-1.9752 0.26472-3.7734 0.79297-5.3926 0.53973-1.6307 1.1711-2.7446 1.8945-3.3418 0.73496-0.60864 1.5557-0.91211 2.4629-0.91211 0.81534 0 1.4996 0.32176 2.0508 0.96484 0.5627 0.6316 0.84375 1.544 0.84375 2.7383l2.5137-0.20703c0.01148-1.8833-0.46921-3.3639-1.4453-4.4434-0.97611-1.0795-2.2346-1.6191-3.7734-1.6191zm14.539 0c-3.491 0-5.7821 1.8716-6.873 5.6152l2.584 0.27539c0.6316-2.2278 2.0083-3.3418 4.1328-3.3418 1.0565 0 1.8609 0.23425 2.4121 0.70508 0.5627 0.45934 0.84375 1.0743 0.84375 1.8438 0 0.55122-0.10384 1.264-0.31055 2.1367-0.37896 0.18374-0.83722 0.32024-1.377 0.41211-0.52825 0.09187-1.5098 0.17938-2.9453 0.25976-1.6996 0.08038-3.009 0.35534-3.9277 0.82617-0.90721 0.45935-1.6139 1.1253-2.1191 1.998-0.50529 0.87275-0.75781 1.8951-0.75781 3.0664 0 1.6422 0.43583 2.9394 1.3086 3.8926 0.88424 0.95314 1.9941 1.4297 3.3262 1.4297 0.8498 0 1.6869-0.19963 2.5137-0.60156s1.7107-1.0983 2.6523-2.0859c0.05742 0.94166 0.16126 1.7012 0.31055 2.2754h2.5664c-0.19522-1.0335-0.29297-1.8664-0.29297-2.498 0-0.89573 0.13236-2.0667 0.39649-3.5137l0.82617-4.5488c0.22967-1.2977 0.3457-2.428 0.3457-3.3926 0-1.3666-0.50506-2.4988-1.5156-3.3945-1.0106-0.90721-2.3771-1.3594-4.0996-1.3594zm-26.494 0.41211-3.1348 18.295h2.5508l3.1348-18.295h-2.5508zm-28.293 2.0156c0.99908 0 1.8218 0.40731 2.4648 1.2226s0.96485 2.0392 0.96485 3.6699v0.63672h-8.4238c0.44786-1.8489 1.1199-3.2317 2.0156-4.1504 0.90722-0.91869 1.8991-1.3789 2.9785-1.3789zm57.197 7.0117c-0.28709 1.9292-0.67003 3.3691-1.1523 4.3223-0.47083 0.95315-1.0858 1.6822-1.8438 2.1875-0.75792 0.50528-1.544 0.75781-2.3594 0.75781-0.86128 0-1.5516-0.26886-2.0684-0.80859s-0.77539-1.2749-0.77539-2.2051c0-0.67753 0.16088-1.2742 0.48242-1.791 0.32154-0.51677 0.76956-0.90166 1.3438-1.1543 0.57418-0.25264 1.6311-0.46032 3.1699-0.62109 1.5044-0.16077 2.5715-0.38893 3.2031-0.6875z" stroke-width="1.3229" style="font-variant-caps:normal;font-variant-east-asian:normal;font-variant-ligatures:normal;font-variant-numeric:normal;text-orientation:upright"/>
  <g transform="matrix(.63966 0 0 -.63966 70.537 202.99)">
    <path d="m92.658 9.4114-16.57 34.39 5.5392 6.7954-9.3999 13.364 6.5464 11.326-11.414 16.082 11.414 17.668-4.1964 25.822 25.01 31.259-41.964 23.104 29.375 26.955-18.968 34.883 37.935 39.64-30.382-39.866 20.31-37.828-23.835-20.839 40.621-23.331-31.557-39.187 3.6928-24.463-9.232-14.27 10.575-13.364-7.8892-12.458 10.575-14.044-7.5535-9.0605z" stroke="#000" stroke-width=".19334"/>
  </g>
  <path id="crack_star" d="m300.22 280h209.56c11.202 0 20.22 9.0179 20.22 20.22v209.56c0 11.202-9.018 20.22-20.22 20.22h-209.56c-11.202 0-20.22-9.0179-20.22-20.22v-209.56c0-11.202 9.0179-20.22 20.22-20.22z" fill="#fff" stop-color="#000000"/>
  <path d="m348.04 486.06-4.3223 25.254h15.795l0.5-2.8594h-13.039l1.5156-8.7852h11.85l0.48242-2.877h-11.85l1.3438-7.8555h12.195l0.48243-2.877h-14.953zm67.043 0-4.3242 25.254h2.5664l4.3242-25.254h-2.5664zm32.193 0-1.6875 9.8359c-0.94166-2.1934-2.3367-3.2891-4.1856-3.2891-1.1139 0-2.234 0.44193-3.3594 1.3262s-2.0724 2.261-2.8418 4.1328c-0.76941 1.8604-1.1543 3.9111-1.1543 6.1504 0 2.5034 0.48264 4.3811 1.4473 5.6328s2.1356 1.877 3.5137 1.877c1.6077 0 3.1351-1.0223 4.582-3.0664l-0.44726 2.6543h2.3594l4.3223-25.254h-2.5488zm-63.184 0.31054-2.9277 2.1524-0.77539 4.4961h-2.0156l-0.41211 2.4121h2.0156l-1.8086 10.629c-0.25264 1.4469-0.37891 2.3715-0.37891 2.7734 0 0.84979 0.27496 1.526 0.82617 2.0312 0.5627 0.50528 1.3203 0.75782 2.2734 0.75782 0.57419 0 1.1648-0.09775 1.7734-0.29297l0.44922-2.5488c-0.44786 0.13781-0.95293 0.20703-1.5156 0.20703-0.37896 0-0.66196-0.09165-0.8457-0.27539s-0.27539-0.47698-0.27539-0.87891c0-0.22967 0.10993-0.99336 0.32812-2.291l1.7402-10.111h2.498l0.4121-2.4121h-2.498l1.1367-6.6484zm-13.814 6.2363c-1.6077 0-2.905 0.49288-3.8926 1.4805-0.98759 0.98759-1.4805 2.2461-1.4805 3.7734 0 0.74644 0.1304 1.4226 0.39453 2.0312 0.26412 0.59714 0.63268 1.1083 1.1035 1.5332 0.48232 0.41341 1.47 1.0101 2.9629 1.791 1.2977 0.67753 2.1408 1.2518 2.5312 1.7226 0.37896 0.47083 0.56836 1.0003 0.56836 1.5859 0 0.81534-0.30347 1.4874-0.91211 2.0156-0.60863 0.51676-1.4354 0.77539-2.4805 0.77539-1.1484 0-2.0566-0.36857-2.7226-1.1035-0.66603-0.73495-0.99194-1.8489-0.98047-3.3418l-2.5664 0.18946v0.34375c0 2.0096 0.54382 3.5675 1.6348 4.6699s2.5959 1.6523 4.5137 1.6523c1.9063 0 3.393-0.54577 4.4609-1.6367 1.0795-1.0909 1.6191-2.3943 1.6191-3.9102 0-1.3666-0.40122-2.5254-1.2051-3.4785-0.52825-0.60863-1.7624-1.4252-3.7031-2.4473-1.2632-0.65457-2.0493-1.176-2.3594-1.5664-0.31006-0.37897-0.4668-0.83308-0.4668-1.3613 0-0.60863 0.25863-1.1422 0.77539-1.6016 0.51677-0.47083 1.1888-0.70703 2.0156-0.70703 1.0565 0 1.8955 0.31153 2.5156 0.93164 0.63158 0.62012 0.96358 1.504 0.99804 2.6523l2.5156-0.20703c-0.04594-1.8259-0.58562-3.2433-1.6191-4.2539-1.0335-1.022-2.4407-1.5332-4.2207-1.5332zm24.203 0c-1.5158 0-3.0269 1.3828-4.5312 4.1504l0.63672-3.7383h-2.2559l-3.1348 18.295h2.4277l1.2754-7.3398c0.52824-3.1236 1.2573-5.2986 2.1875-6.5273 0.94166-1.2402 1.8845-1.8613 2.8262-1.8613 0.4938 0 0.96425 0.19549 1.4121 0.58594l1.0508-2.8926c-0.74644-0.44786-1.3778-0.67188-1.8945-0.67188zm8.8867 0c-1.3666 0-2.6353 0.42974-3.8066 1.291-1.1713 0.84979-2.1632 2.2041-2.9785 4.0644-0.80385 1.8604-1.207 3.8643-1.207 6.0117 0 1.6307 0.26472 3.0379 0.79297 4.2207 0.52824 1.1713 1.239 2.0552 2.1348 2.6524 0.89573 0.58566 1.8895 0.8789 2.9805 0.8789 1.5388 0 2.9338-0.55601 4.1856-1.6699 1.5044-1.3206 2.4636-2.8724 2.877-4.6523l-2.498-0.3086c-0.47084 1.3206-1.1307 2.3308-1.9805 3.0312-0.83831 0.70051-1.6936 1.0508-2.5664 1.0508-0.91869 0-1.7048-0.44193-2.3594-1.3262-0.65458-0.89572-0.98243-2.2052-0.98243-3.9277 0-0.28709 0.01827-0.61494 0.05274-0.98242h11.059c0.12632-0.94166 0.18945-1.8601 0.18945-2.7559 0-2.4116-0.55187-4.277-1.6543-5.5977-1.091-1.3206-2.5042-1.9805-4.2383-1.9805zm22.652 0c-3.491 0-5.7821 1.8716-6.873 5.6152l2.584 0.27539c0.6316-2.2278 2.0103-3.3418 4.1348-3.3418 1.0565 0 1.8589 0.2362 2.4102 0.70703 0.56269 0.45935 0.84375 1.0724 0.84375 1.8418 0 0.55122-0.10189 1.264-0.30859 2.1367-0.37897 0.18374-0.83918 0.32024-1.3789 0.41211-0.52825 0.09187-1.5099 0.17938-2.9453 0.25976-1.6996 0.08039-3.009 0.35535-3.9277 0.82617-0.90721 0.45935-1.6139 1.1253-2.1191 1.998-0.50528 0.87275-0.75781 1.8951-0.75781 3.0664 0 1.6422 0.43779 2.9394 1.3106 3.8926 0.88424 0.95314 1.9921 1.4297 3.3242 1.4297 0.84978 0 1.6868-0.19963 2.5137-0.60156 0.82682-0.40193 1.7126-1.0983 2.6543-2.0859 0.05742 0.94166 0.15931 1.7012 0.3086 2.2754h2.5664c-0.19522-1.0335-0.29101-1.8664-0.29101-2.498 0-0.89573 0.13041-2.0667 0.39453-3.5137l0.82813-4.5488c0.22967-1.2977 0.34375-2.428 0.34374-3.3926 0-1.3666-0.50505-2.4988-1.5156-3.3945-1.0106-0.90721-2.3771-1.3594-4.0996-1.3594zm32.246 0c-3.491 0-5.7821 1.8716-6.873 5.6152l2.584 0.27539c0.6316-2.2278 2.0103-3.3418 4.1348-3.3418 1.0565 0 1.8589 0.2362 2.4102 0.70703 0.5627 0.45935 0.84375 1.0724 0.84375 1.8418 0 0.55122-0.10188 1.264-0.30859 2.1367-0.37896 0.18374-0.83917 0.32024-1.3789 0.41211-0.52824 0.09187-1.5098 0.17938-2.9453 0.25976-1.6996 0.08039-3.009 0.35535-3.9277 0.82617-0.90721 0.45935-1.6139 1.1253-2.1191 1.998-0.50528 0.87275-0.75782 1.8951-0.75782 3.0664 0 1.6422 0.4378 2.9394 1.3106 3.8926 0.88425 0.95314 1.9921 1.4297 3.3242 1.4297 0.84979 0 1.6868-0.19963 2.5137-0.60156 0.82683-0.40193 1.7126-1.0983 2.6543-2.0859 0.05742 0.94166 0.15931 1.7012 0.30859 2.2754h2.5684c-0.19523-1.0335-0.29297-1.8664-0.29297-2.498 0-0.89573 0.13041-2.0667 0.39453-3.5137l0.82813-4.5488c0.22967-1.2977 0.34375-2.428 0.34375-3.3926 0-1.3666-0.50507-2.4988-1.5156-3.3945-1.0106-0.90721-2.377-1.3594-4.0996-1.3594zm-54.846 2.4277c0.99908 0 1.8198 0.40731 2.4629 1.2226 0.64309 0.81534 0.96485 2.0392 0.96485 3.6699v0.63672h-8.4238c0.44786-1.8489 1.1199-3.2317 2.0156-4.1504 0.90722-0.91869 1.901-1.3789 2.9805-1.3789zm38.119 0.13867c0.88424 0 1.6479 0.40122 2.291 1.2051 0.64308 0.80385 0.96484 1.9402 0.96484 3.4102 0 2.8594-0.62523 5.2726-1.877 7.2363-0.95315 1.4699-2.004 2.2031-3.1524 2.2031-0.88424 0-1.597-0.37271-2.1367-1.1191-0.7005-0.96463-1.0508-2.2049-1.0508-3.7207l0.01758-0.74023c0-1.0335 0.23011-2.3206 0.68946-3.8594 0.45934-1.5388 1.0682-2.6915 1.8262-3.4609 0.75792-0.7694 1.5665-1.1543 2.4277-1.1543zm-13.107 6.873c-0.28709 1.9292-0.67198 3.3691-1.1543 4.3223-0.47083 0.95315-1.0858 1.6822-1.8438 2.1875s-1.544 0.75977-2.3594 0.75977c-0.86128 0-1.5496-0.27082-2.0664-0.81055-0.51676-0.53973-0.77539-1.2749-0.77539-2.2051 0-0.67753 0.16088-1.2742 0.48242-1.791 0.32154-0.51677 0.76957-0.90166 1.3438-1.1543 0.57419-0.25264 1.6292-0.46033 3.168-0.62109 1.5044-0.16078 2.5735-0.38893 3.2051-0.6875zm32.246 0c-0.28709 1.9292-0.67198 3.3691-1.1543 4.3223-0.47083 0.95315-1.0858 1.6822-1.8438 2.1875-0.75793 0.50528-1.544 0.75977-2.3594 0.75977-0.86127 0-1.5496-0.27082-2.0664-0.81055-0.51677-0.53973-0.77539-1.2749-0.77539-2.2051-1e-5 -0.67753 0.16088-1.2742 0.48242-1.791 0.32154-0.51677 0.76957-0.90166 1.3438-1.1543s1.6292-0.46033 3.168-0.62109c1.5044-0.16078 2.5735-0.38893 3.2051-0.6875z" stroke-width="1.3229" style="font-variant-caps:normal;font-variant-east-asian:normal;font-variant-ligatures:normal;font-variant-numeric:normal;text-orientation:upright"/>
  <g transform="matrix(.75527 0 0 .75527 291.8 240.51)">
    <path d="m137.15 178.02c2.5239-1.4485 2.5677-2.1132 0.81277-12.321-2.7901-16.228-2.399-14.888-4.5009-15.421-1.0012-0.25414-2.0553-0.38515-2.3424-0.29114-0.28707 0.0941-7.055 0.7252-15.04 1.4026-7.9849 0.67743-14.777 1.4396-15.094 1.6938s-0.57611 0.82513-0.57611 1.2688c0 0.44369 2.437 6.0292 5.4154 12.412l5.4154 11.606 8.5851 0.31589c5.6208-0.0753 7.753 0.37684 11.618 0.13017 1.9166-0.12231 4.3508-0.0184 5.7064-0.7964zm10.917 4.103c0.13674-0.4436 0.89049-3.9079 1.675-7.6984 0.78447-3.7906 1.5261-7.0534 1.6481-7.2508 0.12194-0.19739-0.27388-1.0884-0.87973-1.9799-1.1468-1.6877-12.765-13.77-12.999-13.518-0.22414 0.24225 1.5703 13.188 2.6066 18.805 0.65484 3.5492 1.3528 5.8909 2.1166 7.1008 0.62676 0.99285 1.1805 2.0843 1.2306 2.4254 0.10645 0.72572 2.9495 2.9224 3.7822 2.9224 0.31389 0 0.68262-0.36295 0.81939-0.80657zm-21.341 3.4988c1.4598-0.49757 3.8127-1.974 6.3099-3.9594 0.92216-0.73318 0.95141-0.84662 0.23044-0.89395-0.45415-0.0298-5.2792-0.21227-10.722-0.40542l-9.8967-0.35121 1.6007 1.3906c1.3799 1.1987 7.0278 3.7221 9.8967 4.4217 0.50697 0.12367 0.94266 0.24883 0.96822 0.27824 0.0255 0.0294 0.75144-0.18684 1.6131-0.48053zm-18.022 8.8578c4.0378-1.4736 11.985-5.8116 11.985-6.5421 0.0497-0.90908-0.53652-0.94016-1.4821-1.6413-0.25511-0.18616-0.56494-0.38057-0.92376-0.57761-1.0849-0.59578-2.9582-1.7782-4.1628-2.6275-1.2047-0.84935-2.3602-1.5443-2.5679-1.5443-0.20771 0-1.2283 1.5036-2.268 3.3414-2.4495 4.3296-5.1939 10.946-4.5403 10.946 0.13657 0 1.9187-0.60964 3.9604-1.3548zm59.012 1.8157c0.73972 0 4.1503-6.3968 5.7146-10.718 0.85007-2.3484 2.4792-6.3416 3.6203-8.874 1.1411-2.5324 1.9406-4.6494 1.7766-4.7046-1.1765-0.39602-25.648-4.6611-25.811-4.4985-0.1134 0.11341-0.79882 3.5797-1.5231 7.7027-1.2541 7.1393-1.2818 7.59-0.58146 9.4605 1.0719 1.6606 4.631 4.6359 6.097 5.6406 1.6769 1.1407 4.3923 3.0663 6.0344 4.279 1.642 1.2128 3.2744 2.0942 3.6274 1.9588 0.35302-0.13551 0.82313-0.2463 1.0447-0.2463zm61.585 3.3328c2.0501-2.4762 5.5165-7.1227 7.7031-10.325 3.8385-5.6223 3.9756-5.9131 3.9756-8.4296 0-2.2329-0.20762-2.8648-1.4488-4.4093l-6.0573-6.7215c-4.9465-4.4153-7.3347-6.255-7.648-5.8915-0.72719 0.8439-3.6719 5.5482-4.6595 7.4437-0.56201 1.0786-1.195 2.0681-1.4067 2.1989-0.21168 0.13083-1.0198 1.3476-1.7958 2.7039-1.0917 1.908-1.4109 3.0249-1.4109 4.9359 1.4851 5.0803 2.9996 9.6836 4.8779 14.24 1.4186 3.4221 2.7884 6.7923 3.0438 7.4894 0.25547 0.6971 0.60726 1.2674 0.7818 1.2674 0.17455 0 1.9947-2.026 4.0448-4.5022zm-49.158 2.9164s4.509-2.5789 4.8807-2.8966c0.5119-0.44982 1.2617-1.0253 1.6661-1.2787 4.5517-2.8526 10.045-6.7634 10.045-7.1513 0-0.26913-2.0221-2.7093-4.4936-5.4226-4.8335-5.3064-6.7196-7.3898-9.7922-10.816l-1.9633-2.1896-2.0395 3.5723c-1.1218 1.9648-3.0468 6.3722-4.278 9.7942-1.2312 3.4221-2.6783 7.3347-3.2158 8.6947-0.54045 1.3674-0.84824 2.8794-0.68857 3.3824 0.40082 1.2629 5.6564 5.9119 6.653 5.8851 0.12681-3e-3 1.5785-0.71148 3.2262-1.5735zm-22.18 10.375 3.5136-2.7018 8.6754-0.78699 0.73205-2.033c1.4219-4.9136-1.9343-6.9463-3.9841-8.4142 0 0-2.1636-1.3618-2.9907-1.8089-2.9549-1.5473-12.808-8.1917-14.416-9.7212-2.0446-1.8024-3.0252-2.492-4.4919-3.6023-1.8477-1.3811-2.1336-1.4519-4.9674-1.2289-2.3831 0.18751-3.8173 0.66076-6.9133 2.2813-6.142 3.215-6.8246 3.694-6.3822 4.4798 0.2137 0.37962 2.5502 5.1493 5.1923 10.599 5.8033 11.971 7.4296 14 12.262 15.301 2.1691 0.58393 3.9975 0.74178 6.6259 0.57206 3.5887-0.23174 3.6701-0.2652 7.1437-2.9362zm-50.869 12.237c0.65192-0.4767 0.91511-1.3698 1.0527-3.5719 0.1639-2.6238-0.0717-3.6474-2.2153-9.6191-2.3709-6.6054-3.3373-8.8774-4.275-10.05-0.37389-0.46773-1.2308 0.14214-3.8371 2.7311-4.0269 3.6963-14.625 14.602-19.037 19.003 0.108 0.0936 5.4849 0.53387 11.949 0.97831 6.4639 0.44445 11.839 0.88826 11.945 0.98624 0.47666 0.44218 3.6355 0.11514 4.4186-0.45746zm28.849-0.8844 9.494-1.9366-4.8851-6.2548c-2.6868-3.4402-5.395-7.3807-6.0182-8.7568-1.9274-4.2558-7.3153-13.474-8.9308-15.28-1.5357-1.7166-1.5358-1.7166-4.0319-1.3043-3.1378 0.51833-13.95 5.6821-16.006 7.644-1.8825 1.7967-1.9743 3.227-0.42793 6.6686 0.62642 1.3942 2.6527 6.223 4.5028 10.731 1.8501 4.5078 3.5936 8.5101 3.8744 8.8941 0.5098 0.6972 5.5269 1.4009 10.63 1.491 1.2674 0.0222 6.5767-0.83081 11.798-1.896zm42.343-3.1527c-0.53521-9.1107-0.97422-11.458-2.1428-11.458-0.36339 0-1.5308 0.38818-2.5942 0.86267-2.9745 1.3272-6.7593 2.643-9.3595 3.254-1.8738 0.44032-3.0305 1.169-5.6485 3.5584-1.8107 1.6526-3.173 3.1976-3.0274 3.4333 0.14563 0.23568 1.7931 1.4598 3.661 2.7202 2.9362 1.9813 4.4144 2.5783 10.914 4.4077 4.135 1.1638 7.7255 2.1748 7.979 2.2467 0.25348 0.072 0.52418 0.0783 0.60156 0.0139 0.0774-0.0638-0.0953-4.1315-0.38351-9.0394zm-18.903 56.197c-0.78307-3.1812-1.361-4.5624-2.2458-5.3674-1.1351-1.0327-14.338-7.9474-17.695-9.7367-1.3584-0.72394-3.1842-2.4933-4.544-0.82222-0.20306 0.31988-0.39908 3.1741-0.43558 6.3427l-0.0664 5.7611-0.53745-5.7673c-0.29561-3.172-0.71394-6.0528-0.92962-6.4018-0.21569-0.34898-0.36754-4.0794-0.33745-8.2897l0.0547-7.6552-6.0073-4.8393c-3.304-2.6616-7.7266-5.7932-9.8278-6.959l-3.8205-2.1197-8.0869 16.177c-5.8591 11.72-8.5394 16.609-9.7295 17.748 0 0-6.088 5.9858-8.9993 8.9166-3.8256 3.8644-6.9581 6.7876-6.9611 6.496-0.0035-0.29157 1.3665-1.9362 3.0432-3.6548 0 0 8.3881-8.9262 12.517-13.497 0.7677-0.85281 1.8067-2.6157 2.309-3.9175 0.8693-2.2534 3.0211-7.4636 9.2575-22.416l2.7874-6.6828-1.7092-0.7591c-1.9625-0.87159-24.641-4.1897-29.132-4.2623l-2.9958-0.0484-5.935 4.8393c-3.2642 2.6616-6.5826 5.3531-7.3742 5.9812-0.79155 0.62801-3.6894 2.9825-6.4398 5.2321l-5.0006 4.0903-15.509 2.2556c-8.5299 1.2406-15.716 2.2377-15.97 2.2158-1.2079-0.10453 3.4382-1.032 15.901-3.1741 7.4779-1.2853 14.011-2.5112 14.518-2.7241 0.74412-0.31246 10.442-7.8815 11.292-8.8134 0.12681-0.139 2.9266-2.4031 6.222-5.0314 6.408-5.111 7.5783-6.2663 7.5944-7.4975 0.0052-0.43052-0.48823-2.4008-1.0975-4.3784-0.60928-1.9776-2.5944-8.8843-4.4114-15.348-1.817-6.4639-3.5014-12.393-3.7429-13.177-0.31191-1.0112-0.87018-1.5688-1.9258-1.9232-0.81758-0.27456-6.7752-2.7059-13.239-5.4029-6.4639-2.6971-12.833-5.3173-14.154-5.8228-2.4785-0.94864-3.1715-1.4731-11.193-8.4713-8.9521-7.81-9.5971-8.6009-2.5873-3.1728 5.8803 4.5534 8.6482 6.6911 10.451 8.0715 1.3381 1.0245 16.038 7.3584 28.544 12.299l3.4567 1.3656 0.24108-13.199c0.13256-7.2596 0.29226-12.266 0.3548-11.125 0.06254 1.1407 0.31076 7.259 0.55162 13.596l0.43792 11.522 2.8272 9.6786c1.555 5.3232 3.3031 11.338 3.8847 13.366 0.58163 2.0279 1.1709 3.9982 1.3095 4.3784 0.13866 0.38023 0.68312 2.1824 1.2101 4.0049l0.95812 3.3136 1.3517-0.47122c0.74344-0.25916 2.6678-1.854 4.2764-3.544 1.6086-1.69 4.9877-5.2568 7.5091-7.9261 2.5214-2.6693 5.8807-6.2254 7.4649-7.9024 1.5843-1.677 2.684-3.4265 2.8805-3.7723 0.17603-0.30971 0.78914-1.2489 1.4184-2.3386 3.5565-6.6363 5.0556-9.6279 7.5634-15.228l1.0261-2.2929-1.3383-2.9828c-0.73606-1.6406-1.62-3.616-1.9644-4.3899-0.34434-0.77391-1.4525-3.1939-2.4626-5.3777-1.0101-2.1838-1.978-4.4164-2.151-4.9612-0.79576-2.2348-2.7094-8.215-4.3834-8.8123-0.23119 0-2.7655-1.3724-5.6319-3.0499-2.8664-1.6774-6.767-3.9294-8.6682-5.0045l-3.4566-1.9546-19.357 0.26756 19.867-1.2994 8.7325 4.839c4.8029 2.6614 9.2128 4.9641 9.7998 5.1171 1.0278 0.26787 6.5064-0.19588 25.159-2.1296l8.7127-0.90326 2.1068-1.7856c1.5184-1.287 2.4004-2.5437 3.158-4.4998 0.57822-1.4928 0.99812-2.8711 0.9331-3.0629-0.11688-0.34489-2.7805-2.447-8.6938-6.8612l-3.0449-2.273-0.57247-4.9461c-0.31486-2.7203-0.84466-6.5016-1.1774-8.4027-1.0352-5.9155-1.2212-7.6336-0.77354-7.1438 0.23166 0.25351 1.2172 4.7694 2.1901 10.035l1.7689 9.5745 11.459 8.7108 1.2067-0.85946c0.6637-0.47268 3.0576-2.3324 5.3197-4.1327 2.2621-1.8003 4.2321-3.1542 4.3777-3.0086 0.14563 0.14563-0.0857 0.52087-0.51379 0.83395-0.74125 0.54203-7.5474 6.6102-9.1417 8.1504-1.088 1.0511-3.444 9.9108-2.9294 11.016 3.0455 3.9737 9.5915 11.285 14.241 15.778 0.49113 0.29529 8.5833 1.8504 20.14 3.8704 5.5404 0.96843 6.3536 0.814 7.5643-1.4365 1.7853-3.3187 2.9325-10.669 2.9642-18.994 0.0225-5.909 0.21262-8.1156 0.90889-10.55l0.88041-3.0786-1.0231-1.2092c-3.4527-3.3842-6.3823-6.69-9.6078-9.0303-11.794-8.5134-11.276-7.9717-19.61-20.509-2.6181-3.9386-2.5575-4.555 0.0939-0.95339 2.2174 2.72 3.6222 4.7331 5.7533 7.5224 2.5613 3.3202 4.4086 5.1028 8.3611 8.0684l9.0322 6.7464c2.1267 2.0697 3.3412 2.3482 3.3412 2.3482s2.9309 1.6168 3.6081 1.6168c0.2263 0 1.0636-1.2235 1.8606-2.7189 0.79701-1.4954 2.848-4.2291 4.5578-6.0749 0 0 5.5683-5.5206 8.1256-8.7199 0.29754-0.38022 1.241-1.3135 2.0966-2.074 1.6833-1.4962 1.4698-0.81152-0.41217 1.3219-3.0392 3.9482-6.1903 7.5358-8.4716 11.721-2.7924 5.158-3.069 5.9126-3.069 8.3745 0 1.4882-0.51849 5.7664-1.1522 9.5073-0.63372 3.7409-1.1512 8.2683-1.15 10.061 0 2.8605-0.36886 4.2866-3.0297 11.653l-3.0318 8.3941 1.4452 2.1006 4.9471 5.9154c1.7553 1.8205 4.8631 5.0524 6.9061 7.182l3.7146 3.872 1.5452-1.1067c0.84987-0.60871 2.0249-1.3589 2.6112-1.6671 0.58624-0.30824 3.4198-2.2348 6.2968-4.2812 5.0072-3.5617 5.3314-3.895 7.5822-7.7949 1.2932-2.2408 2.3513-4.2221 2.3513-4.4029 1.5257-3.1977 3.043-5.417 4.9808-8.5397 0.55399-0.88721 1.0081-1.7599 1.009-1.9394 0-0.17942 0.98686-0.89895 2.1909-1.599 1.2041-0.69999 5.3002-3.2225 9.1025-5.6055 3.8023-2.383 9.2984-5.7706 12.213-7.528 8.0051-4.8258 7.2765-3.8472 7.8329-10.521 0.46905-5.6257 2.5944-15.203 3.3747-15.207 0.20721-9.3e-4 0.26819 0.36103 0.13551 0.80463-0.57398 1.9194-1.6484 9.5643-2.1213 15.094-0.43208 5.0529-0.65482 6.1015-1.4217 6.6933-0.50011 0.386-6.5962 4.1973-13.547 8.4695-6.9507 4.2723-13.07 8.2277-13.598 8.7899-0.64691 0.6886-0.85306 1.3088-0.63165 1.9004 6.5105 6.7368 12.46 15.893 21.359 20.617 2.6616 1.3792 5.7297 2.972 6.818 3.5395 1.0882 0.56755 1.8981 1.1125 1.7995 1.211-0.16722 0.16722-1.7357-0.46181-6.7505-2.7075-2.2062-0.98797-4.6468-0.93571-8.368 0.17917-1.7452 0.5229-2.4497 1.2773-7.4454 7.9741-3.0348 4.0681-6.3364 8.4939-7.337 9.835l-1.8191 2.4384 7.5185-0.26543c4.1352-0.14598 11.978-0.4628 17.428-0.70405 5.45-0.24121 10.599-0.44133 11.442-0.44467 1.3617-5e-3 2.3284-0.80559 8.6713-7.1779 9.5792-9.6236 13.754-13.252 7.9236-6.8873-0.92984 1.0151-2.1165 2.3893-2.637 3.0538-0.52049 0.66453-1.6263 1.919-2.4574 2.7876-0.83106 0.86867-2.1059 2.2953-2.8329 3.1702-4.1877 5.0395-5.0449 5.7346-7.2045 5.8412-8.2806 0.40888-35.286 2.0049-37.364 2.2083l-2.567 0.25117-1.6708-3.8158c-0.91896-2.0987-3.0199-6.7884-4.6688-10.421-1.6489-3.6331-3.2319-7.3145-3.5178-8.1807-0.35189-1.0663-0.80596-1.575-1.4058-1.575-1.3788 0.9309-2.8942 1.6146-4.262 2.6683-1.5388 1.1941-6.2307 4.8099-10.426 8.0352-11.827 9.0915-11.92 9.1661-15.286 12.301l-3.1738 2.9562v21.92l6.1067 1.8971c3.3587 1.0434 6.6252 2.0814 7.259 2.3066 13.932 3.8248 26.749 8.1395 41.019 11.108 2.6354 0.5372 4.5084 1.2906 3.2753 1.3176-0.56459 0.0122-14.725-2.5784-23.783-4.3512-1.7735-0.34709-3.2888-0.56677-3.3675-0.48814-0.3529 0.35288-0.49588 3.4882-0.5997 13.149-0.10049 9.3489-0.14303 9.8481-0.43199 5.0698-0.17633-2.9151-0.34788-8.5286-0.38121-12.474l-0.0606-7.1743-13.596-1.1495-8.0655-3.9585c-6.4978-3.1891-9.0957-4.2034-13.366-5.2182-2.9151-0.69285-8.2873-2.3205-11.938-3.617-6.022-2.1385-7.0058-2.3572-10.6-2.3568-3.5234 3.4e-4 -9.4564 0.41906-16.445 1.1606-2.7775 0.29472-19.606 3.3508-19.862 3.607-0.53711 0.53711 16.167 13.696 18.524 14.591 0.53421 0.20313 6.761 1.5424 13.837 2.9762 11.479 2.326 14.394 3.013 12.781 3.013-0.27038 0-6.0178-0.9333-12.772-2.074-6.7542-1.1407-12.582-2.074-12.951-2.074-0.54641 0-0.67054 0.94418-0.67054 5.1 0 2.805 0.20258 5.4786 0.4502 5.9412 0.64193 1.1995 9.1736 6.2455 17.592 10.405l7.2005 3.5575 0.80839 5.0244c0.4446 2.7635 0.70124 5.1316 0.57033 5.2625-0.131 0.13099-0.71257-1.6895-1.2925-4.0454z" stroke-width=".46089"/>
  </g>
  <path id="crack_horizontal" d="m300.22 0h209.56c11.202 0 20.22 9.0179 20.22 20.22v209.56c0 11.202-9.0179 20.22-20.22 20.22h-209.56c-11.202 0-20.22-9.0179-20.22-20.22v-209.56c0-11.202 9.0179-20.22 20.22-20.22z" fill="#fff" stop-color="#000000"/>
  <path d="m343.95 206.06-4.3223 25.254h2.7734l2.0312-11.904h10.732l-2.0332 11.904h2.7734l4.3242-25.254h-2.7734l-1.791 10.49h-10.732l1.791-10.49h-2.7734zm46.303 0-0.60352 3.5312h2.5508l0.60157-3.5312h-2.5488zm77.205 0-4.3242 25.254h2.5664l4.3242-25.254h-2.5664zm-21.342 0.31054-2.9297 2.1524-0.77539 4.4961h-2.0156l-0.4121 2.4121h2.0156l-1.8086 10.629c-0.25264 1.4469-0.37891 2.3715-0.37891 2.7734 0 0.84979 0.27496 1.526 0.82617 2.0312 0.5627 0.50528 1.3203 0.75782 2.2734 0.75782 0.57418 0 1.1648-0.09775 1.7734-0.29297l0.44922-2.5488c-0.44787 0.13781-0.95293 0.20703-1.5156 0.20703-0.37896 0-0.66001-0.09165-0.84375-0.27539-0.18373-0.18374-0.27734-0.47698-0.27734-0.87891 0-0.22967 0.10994-0.99336 0.32812-2.291l1.7402-10.111h2.498l0.41211-2.4121h-2.498l1.1387-6.6484zm-77.223 6.2363c-2.492 0-4.4795 1.1364-5.9609 3.4102-1.4814 2.2738-2.2207 5.0577-2.2207 8.3535 0 2.2738 0.57843 4.072 1.7383 5.3926 1.1598 1.3091 2.6302 1.9629 4.4102 1.9629 1.3551 0 2.6482-0.44193 3.877-1.3262 1.2402-0.89573 2.2443-2.2337 3.0137-4.0137 0.78089-1.78 1.1719-3.8002 1.1719-6.0625 0-2.469-0.5682-4.371-1.7051-5.7031-1.1369-1.3436-2.5787-2.0137-4.3242-2.0137zm16.777 0c-1.5158 0-3.0249 1.3828-4.5293 4.1504l0.63672-3.7383h-2.2559l-3.1367 18.295h2.4297l1.2754-7.3398c0.52824-3.1236 1.2573-5.2986 2.1875-6.5273 0.94166-1.2402 1.8826-1.8613 2.8242-1.8613 0.49379 0 0.96424 0.1955 1.4121 0.58594l1.0508-2.8926c-0.74644-0.44786-1.3778-0.67188-1.8945-0.67188zm29.869 0c-2.492 0-4.4796 1.1364-5.9609 3.4102s-2.2207 5.0577-2.2207 8.3535c0 2.2738 0.58038 4.072 1.7402 5.3926 1.1598 1.3091 2.6282 1.9629 4.4082 1.9629 1.3551 0 2.6482-0.44193 3.877-1.3262 1.2402-0.89573 2.2443-2.2337 3.0137-4.0137 0.78089-1.78 1.1719-3.8002 1.1719-6.0625 0-2.469-0.56819-4.371-1.7051-5.7031-1.1369-1.3436-2.5787-2.0137-4.3242-2.0137zm17.914 0c-0.82682 0-1.6822 0.26277-2.5664 0.79102-0.88424 0.51676-1.8658 1.4535-2.9453 2.8086l0.5332-3.1875h-2.3066l-3.1367 18.295h2.5508l1.4629-8.5098c0.48231-2.8135 1.2358-4.7889 2.2578-5.9258 1.0335-1.1369 2.1923-1.7051 3.4785-1.7051 0.62012 0 1.1088 0.1833 1.4648 0.55078 0.36748 0.35599 0.55078 0.84887 0.55078 1.4805 0 0.53973-0.09775 1.3787-0.29297 2.5156l-1.998 11.594h2.5664l1.8945-11.076c0.25264-1.4469 0.37891-2.4917 0.37891-3.1348 0-1.4355-0.36052-2.5453-1.084-3.3262-0.71199-0.78088-1.6487-1.1699-2.8086-1.1699zm22.41 0c-3.491 0-5.7821 1.8716-6.873 5.6152l2.584 0.27539c0.6316-2.2278 2.0103-3.3418 4.1348-3.3418 1.0565 0 1.8609 0.23425 2.4121 0.70508 0.5627 0.45934 0.84375 1.0743 0.84375 1.8438 0 0.55122-0.10384 1.264-0.31055 2.1367-0.37896 0.18374-0.83722 0.32024-1.377 0.41211-0.52825 0.09187-1.5118 0.17938-2.9473 0.25976-1.6996 0.08038-3.0071 0.35534-3.9258 0.82617-0.90721 0.45935-1.6139 1.1253-2.1191 1.998-0.50528 0.87275-0.75781 1.8951-0.75781 3.0664 0 1.6422 0.43583 2.9394 1.3086 3.8926 0.88424 0.95314 1.9921 1.4297 3.3242 1.4297 0.84979 0 1.6888-0.19963 2.5156-0.60156 0.82682-0.40193 1.7107-1.0983 2.6523-2.0859 0.05742 0.94166 0.16126 1.7012 0.31055 2.2754h2.5664c-0.19522-1.0335-0.29297-1.8664-0.29297-2.498 0-0.89573 0.13237-2.0667 0.39649-3.5137l0.82617-4.5488c0.22967-1.2977 0.34375-2.428 0.34375-3.3926 0-1.3666-0.50506-2.4988-1.5156-3.3945-1.0106-0.90721-2.3771-1.3594-4.0996-1.3594zm-66.801 0.41211-3.1348 18.295h2.5508l3.1348-18.295h-2.5508zm5.6328 0-0.44727 2.6016h5.5644c0.53974 0 1.4175-0.07532 2.6348-0.22461-0.71199 0.83831-1.3555 1.6488-1.9297 2.4297l-8.0606 11.076-0.41406 2.4121h12.076l0.46485-2.7402h-5.9082c-0.52825 0-1.4996 0.0529-2.9121 0.15625 0.9072-1.1024 1.5914-1.97 2.0508-2.6016l8.1465-11.145 0.32813-1.9648h-11.594zm-25.889 1.998c1.0106 0 1.8598 0.45412 2.5488 1.3613 0.68902 0.89572 1.0332 2.2174 1.0332 3.9629 0 1.6077-0.30348 3.1738-0.91211 4.7012-0.60864 1.5273-1.3214 2.625-2.1367 3.291-0.81534 0.65457-1.63 0.98047-2.4453 0.98047-1.0335 0-1.895-0.44193-2.584-1.3262s-1.0332-2.1918-1.0332-3.9258c0-1.6996 0.28105-3.3023 0.84375-4.8066 0.57418-1.5158 1.2747-2.6013 2.1016-3.2559 0.83831-0.65457 1.6997-0.98242 2.584-0.98242zm46.646 0c1.0106 0 1.8598 0.45412 2.5488 1.3613 0.68902 0.89572 1.0332 2.2174 1.0332 3.9629 0 1.6077-0.30348 3.1738-0.91211 4.7012s-1.3214 2.625-2.1367 3.291c-0.81534 0.65457-1.63 0.98047-2.4453 0.98047-1.0335 0-1.895-0.44193-2.584-1.3262-0.68901-0.88424-1.0332-2.1918-1.0332-3.9258 0-1.6996 0.28106-3.3023 0.84375-4.8066 0.57419-1.5158 1.2747-2.6013 2.1016-3.2559 0.83831-0.65457 1.6997-0.98242 2.584-0.98242zm42.822 7.0293c-0.28709 1.9292-0.67198 3.3691-1.1543 4.3223-0.47084 0.95315-1.0858 1.6822-1.8438 2.1875s-1.544 0.75781-2.3594 0.75781c-0.86127 0-1.5496-0.26886-2.0664-0.80859-0.51677-0.53973-0.77539-1.2749-0.77539-2.2051 0-0.67753 0.16087-1.2742 0.48242-1.791 0.32154-0.51677 0.76956-0.90166 1.3438-1.1543 0.57418-0.25264 1.6311-0.46032 3.1699-0.62109 1.5044-0.16077 2.5715-0.38893 3.2031-0.6875z" stroke-width="1.3229" style="font-variant-caps:normal;font-variant-east-asian:normal;font-variant-ligatures:normal;font-variant-numeric:normal;text-orientation:upright"/>
  <g transform="matrix(0 -.63966 -.63966 0 500.99 161.46)">
    <path d="m92.658 9.4114-16.57 34.39 5.5392 6.7954-9.3999 13.364 6.5464 11.326-11.414 16.082 11.414 17.668-4.1964 25.822 25.01 31.259-41.964 23.104 29.375 26.955-18.968 34.883 37.935 39.64-30.382-39.866 20.31-37.828-23.835-20.839 40.621-23.331-31.557-39.187 3.6928-24.463-9.232-14.27 10.575-13.364-7.8892-12.458 10.575-14.044-7.5535-9.0605z" stroke="#000" stroke-width=".19334"/>
  </g>
  <path id="crack_diagonal_right" d="m580.22 0h209.56c11.202 0 20.22 9.0179 20.22 20.22v209.56c0 11.202-9.0179 20.22-20.22 20.22h-209.56c-11.202 0-20.22-9.0179-20.22-20.22v-209.56c0-11.202 9.0179-20.22 20.22-20.22z" fill="#fff" stop-color="#000000"/>
  <path d="m646.48 205.63c-2.9513 0-5.4542 1.279-7.5098 3.8398-2.3082 2.8824-3.4629 6.6377-3.4629 11.266 0 2.1934 0.40731 4.1524 1.2226 5.875 0.81534 1.7225 1.8601 3.0076 3.1348 3.8574 1.2862 0.84979 2.728 1.2754 4.3242 1.2754 1.8374 0 3.5888-0.58648 5.2539-1.7578 1.6651-1.1713 3.0438-2.9166 4.1348-5.2363 1.091-2.3312 1.6367-4.9257 1.6367-7.7852 0-3.5599-0.83901-6.3397-2.5156-8.3379-1.6651-1.9982-3.7383-2.9961-6.2188-2.9961zm14.193 0.42969-4.3223 25.254h2.2383l0.60351-3.4629c0.8498 2.5838 2.3018 3.875 4.3574 3.875 1.0909 0 2.1988-0.44193 3.3242-1.3262 1.1254-0.89573 2.0744-2.2683 2.8438-4.1172 0.76941-1.8604 1.1524-3.9335 1.1524-6.2188 0-2.4805-0.47655-4.3398-1.4297-5.5801-0.95315-1.2517-2.1242-1.877-3.5137-1.877-0.67754 0-1.3496 0.18331-2.0156 0.55078-0.65456 0.356-1.3939 0.99951-2.2207 1.9297l1.5488-9.0273h-2.5664zm15.918 0-4.3242 25.254h2.5664l4.3242-25.254h-2.5664zm7.6465 0-2.6524 4.7383h2.1191l3.7559-4.7383h-3.2226zm-37.879 2.377c1.6881 0 3.1238 0.73517 4.3066 2.2051 1.1943 1.4584 1.791 3.4623 1.791 6.0117 0 2.3541-0.41755 4.5311-1.2558 6.5293-0.83831 1.9867-1.8728 3.4448-3.1016 4.375-1.2173 0.93018-2.4575 1.3945-3.7207 1.3945-1.6651 0-3.107-0.72907-4.3242-2.1875-1.2173-1.4584-1.8242-3.4094-1.8242-5.8555 0-4.0422 0.95309-7.2416 2.8594-9.5957 1.5618-1.9178 3.3173-2.877 5.2695-2.877zm48.525 4.1699c-1.1713 0-2.3199 0.44193-3.4453 1.3262-1.1254 0.88424-2.0663 2.2507-2.8242 4.0996-0.75793 1.8489-1.1387 3.922-1.1387 6.2188 0 2.4575 0.48873 4.3169 1.4648 5.5801 0.98759 1.2632 2.183 1.8945 3.584 1.8945 1.2862 0 2.6568-0.82682 4.1152-2.4805l-1.5488 9.0781h2.5488l4.3398-25.305h-2.2207l-0.56836 3.3594c-0.45935-1.2747-1.0682-2.2217-1.8262-2.8418-0.75793-0.62011-1.5847-0.92969-2.4805-0.92969zm32.951 0c-3.491 0-5.7821 1.8716-6.873 5.6152l2.584 0.27539c0.6316-2.2278 2.0103-3.3418 4.1348-3.3418 1.0565 0 1.8609 0.23425 2.4121 0.70508 0.5627 0.45934 0.84375 1.0743 0.84375 1.8438 0 0.55122-0.10384 1.264-0.31054 2.1367-0.37896 0.18374-0.83722 0.32024-1.377 0.41211-0.52824 0.09187-1.5118 0.17938-2.9473 0.25976-1.6996 0.08038-3.0071 0.35534-3.9258 0.82617-0.90721 0.45935-1.6139 1.1253-2.1191 1.998-0.50528 0.87275-0.75782 1.8951-0.75782 3.0664 0 1.6422 0.43584 2.9394 1.3086 3.8926 0.88424 0.95314 1.9921 1.4297 3.3242 1.4297 0.84979 0 1.6888-0.19963 2.5156-0.60156 0.82683-0.40193 1.7107-1.0983 2.6524-2.0859 0.05742 0.94166 0.16126 1.7012 0.31054 2.2754h2.5664c-0.19523-1.0335-0.29297-1.8664-0.29297-2.498 0-0.89573 0.13236-2.0667 0.39648-3.5137l0.82618-4.5488c0.22967-1.2977 0.3457-2.428 0.3457-3.3926 0-1.3666-0.50702-2.4988-1.5176-3.3945-1.0106-0.90721-2.3771-1.3594-4.0996-1.3594zm-45.01 0.41211-3.1348 18.295h2.5488l3.1348-18.295h-2.5488zm23.375 0-1.8086 10.561c-0.32154 1.8604-0.48242 3.18-0.48242 3.9609 0 1.2287 0.36856 2.2328 1.1035 3.0137 0.74644 0.78088 1.6649 1.1719 2.7558 1.1719 1.8833 0 3.7264-1.2402 5.5293-3.7207l-0.56836 3.3086h2.3594l3.1348-18.295h-2.5488l-1.3613 7.9062c-0.31006 1.8489-0.67667 3.3253-1.1016 4.4277-0.41341 1.0909-1.0752 2.0033-1.9824 2.7383-0.89572 0.72347-1.7959 1.0859-2.7031 1.0859-0.64308 0-1.1421-0.1833-1.498-0.55078-0.356-0.37896-0.53516-0.93082-0.53516-1.6543 0-0.52825 0.08556-1.2798 0.25782-2.2559l1.998-11.697h-2.5488zm-41.082 2.1016c0.93018 0 1.7 0.42561 2.3086 1.2754 0.62012 0.83832 0.92969 2.0907 0.92969 3.7559 0 1.5618-0.29324 3.1564-0.87891 4.7871-0.57418 1.6192-1.2177 2.7332-1.9297 3.3418-0.71199 0.59715-1.435 0.89648-2.1699 0.89648-0.91869 0-1.6946-0.39708-2.3262-1.1894-0.62012-0.80386-0.92969-1.981-0.92969-3.5312l0.01758-0.6543c0-0.9072 0.19549-2.0497 0.58594-3.4277 0.53973-1.8718 1.1996-3.2159 1.9805-4.0312 0.78089-0.81534 1.5853-1.2227 2.4121-1.2227zm29.887 0.05274c0.87276 0 1.6304 0.4195 2.2734 1.2578s0.96484 2.0093 0.96484 3.5137c0 1.6651-0.28714 3.2903-0.86132 4.875-0.57418 1.5733-1.3033 2.7443-2.1875 3.5137-0.6316 0.5627-1.2934 0.84375-1.9824 0.84375-0.89572 0-1.6533-0.42559-2.2734-1.2754-0.62012-0.86127-0.92969-2.2034-0.92969-4.0293 0-1.4929 0.29324-3.0264 0.87891-4.5996 0.59715-1.5733 1.2855-2.6933 2.0664-3.3594 0.58567-0.4938 1.2699-0.74023 2.0508-0.74023zm35.242 6.873c-0.28709 1.9292-0.67198 3.3691-1.1543 4.3223-0.47082 0.95315-1.0839 1.6822-1.8418 2.1875-0.75793 0.50528-1.546 0.75781-2.3613 0.75781-0.86127 0-1.5496-0.26886-2.0664-0.80859s-0.77539-1.2749-0.77539-2.2051c0-0.67753 0.16088-1.2742 0.48242-1.791 0.32155-0.51677 0.76957-0.90166 1.3438-1.1543s1.6311-0.46032 3.1699-0.62109c1.5044-0.16077 2.5715-0.38893 3.2031-0.6875z" stroke-width="1.3229" style="font-variant-caps:normal;font-variant-east-asian:normal;font-variant-ligatures:normal;font-variant-numeric:normal;text-orientation:upright"/>
  <g transform="matrix(.54284 .54284 -.54284 .54284 712.57 -22.338)">
    <path d="m92.658 9.4114-16.57 34.39 5.5392 6.7954-9.3999 13.364 6.5464 11.326-11.414 16.082 11.414 17.668-4.1964 25.822 25.01 31.259-41.964 23.104 29.375 26.955-18.968 34.883 37.935 39.64-30.382-39.866 20.31-37.828-23.835-20.839 40.621-23.331-31.557-39.187 3.6928-24.463-9.232-14.27 10.575-13.364-7.8892-12.458 10.575-14.044-7.5535-9.0605z" stroke="#000" stroke-width=".19334"/>
  </g>
</svg>
