<?xml version="1.0" encoding="UTF-8"?>
<svg width="810" height="640" version="1.1" viewBox="0 0 810 640" xmlns="http://www.w3.org/2000/svg" xmlns:xlink="http://www.w3.org/1999/xlink">
    <path id="horizontal" d="m319 0h170c19.39 0 35 15.61 35 35v170c0 19.39-15.61 35-35 35h-170c-19.39 0-35-15.61-35-35v-170c0-19.39 15.61-35 35-35z" fill="#fff"/>
    <path id="vertical" d="m35 0h170c19.39 0 35 15.61 35 35v170c0 19.39-15.61 35-35 35h-170c-19.39 0-35-15.61-35-35v-170c0-19.39 15.61-35 35-35z" fill="#fff"/>
    <path id="diagonal_right" d="m605 0h170c19.39 0 35 15.61 35 35v170c0 19.39-15.61 35-35 35h-170c-19.39 0-35-15.61-35-35v-170c0-19.39 15.61-35 35-35z" fill="#fff"/>
    <path id="diagonal_left" d="m35 349h170c19.39 0 35 15.61 35 35v170c0 19.39-15.61 35-35 35h-170c-19.39 0-35-15.61-35-35v-170c0-19.39 15.61-35 35-35z" fill="#fff"/>
    <path id="star" d="m319 349h170c19.39 0 35 15.61 35 35v170c0 19.39-15.61 35-35 35h-170c-19.39 0-35-15.61-35-35v-170c0-19.39 15.61-35 35-35z" fill="#fff"/>
    <text x="120.18565" y="286.5983" fill="#26384a" font-family="Calibri" font-size="33.333px" font-weight="bold" letter-spacing="0px" text-align="center" text-anchor="middle" word-spacing="0px" style="line-height:1.25;text-orientation:upright" xml:space="preserve"><tspan x="120.18565" y="286.5983">Vertical</tspan></text>
    <text x="404.15463" y="286.15884" fill="#26384a" font-family="Calibri" font-size="33.333px" font-weight="bold" letter-spacing="0px" text-align="center" text-anchor="middle" word-spacing="0px" style="line-height:1.25;text-orientation:upright" xml:space="preserve"><tspan x="404.15463" y="286.15884">Horizontal</tspan></text>
    <text x="690.44757" y="287.67252" fill="#26384a" font-family="Calibri" font-size="33.333px" font-weight="bold" letter-spacing="0px" text-align="center" text-anchor="middle" word-spacing="0px" style="font-variant-caps:normal;font-variant-east-asian:normal;font-variant-ligatures:normal;font-variant-numeric:normal;line-height:1.25;text-orientation:upright" xml:space="preserve"><tspan x="690.44757" y="287.67252">Oblíqua</tspan></text>
    <text x="120.18565" y="634.67249" fill="#26384a" font-family="Calibri" font-size="33.333px" font-weight="bold" letter-spacing="0px" text-align="center" text-anchor="middle" word-spacing="0px" style="font-variant-caps:normal;font-variant-east-asian:normal;font-variant-ligatures:normal;font-variant-numeric:normal;line-height:1.25;text-orientation:upright" xml:space="preserve"><tspan x="120.18565" y="634.67249">Oblíqua</tspan></text>
    <text x="404.15463" y="633.15881" fill="#26384a" font-family="Calibri" font-size="33.333px" font-weight="bold" letter-spacing="0px" text-align="center" text-anchor="middle" word-spacing="0px" style="font-variant-caps:normal;font-variant-east-asian:normal;font-variant-ligatures:normal;font-variant-numeric:normal;line-height:1.25;text-orientation:upright" xml:space="preserve"><tspan x="404.15463" y="633.15881">Estrelada</tspan></text>
    <path class="st18" d="m135.37 109.8c0.74202 0.42775 0.90789 1.4229 0.34046 2.0689-3.745 4.2426-15.26 17.285-18.533 20.986l-0.0436-1.2222-0.65473 2.0166c0.1484-0.16587 0.38411-0.43649 0.69838-0.79441l0.56743 16.351 0.0349 0.969-0.54124 0.62853-5.1331 6.0148c-0.54997 0.63728-1.5452 0.62855-2.0777-0.0262-0.0349-0.0349-0.0524-0.0611-0.0611-0.0786l0.0611 2.5491c0.54124-0.63726 1.5277-0.63726 2.0689 0 2.4705 2.9506 6.1894 7.3854 6.2418 7.4639l-0.53251 0.91661-4.4522 7.752-0.66346-0.7333 0.21824 1.5102 0.44522-0.77694 6.0497 6.6171 0.58489 0.63727-0.4976 0.62854-5.4386 6.8441-0.1746-0.40157-0.0698 0.71584 0.24444-0.31427 8.7035 19.878-10.135-19.677-0.17459-0.35792 0.24443-0.35791 4.7315-6.783 0.57616 0.5587-0.0786-1.2745-0.49759 0.71583-6.5822-6.3552-0.646-0.62855 0.43648-0.8817 3.8324-7.7782c0.37538 0.40156 0.63727 0.67218 0.7333 0.77694l-0.21825-1.8158-0.51505 1.0388c-1.7459-1.842-5.9973-6.3029-7.7607-8.171-0.45395-0.48013-0.4976-1.2047-0.096-1.7372 1.5015-1.9991 5.0021-6.687 6.4338-8.59l0.0786 0.82932 0.50633-1.6063c-0.0873 0.11349-0.29681 0.39284-0.5849 0.77695l-1.6237-16.674-0.0524-0.50633c-0.0349-0.34919 0.0698-0.69837 0.27935-0.969l0.42775-0.54124 12.248-15.775c0.52378-0.68092 0.30554-1.6674-0.46267-2.0428-7.0624-3.4657-18.411-9.0178-24.199-11.864-1.4928-0.72457-1.7459-2.7324-0.4976-3.8149 3.9808-3.4482 10.572-9.1313 15.225-13.156 0.50632-0.43648 0.61981-1.1698 0.26189-1.7372-3.9633-6.3552-10.633-17.032-12.623-20.218-0.31427-0.49759-0.26189-1.1349 0.11349-1.5801l2.3134-2.7673c0.0262-0.0262 0.0436-0.0524 0.0698-0.0873 0.75948-1.0825 15.801-22.427 27.376-25.779 11.872-3.4308 12.623 0.81187 3.7101 10.903l-18.341 19.301c-0.40157 0.42776-0.48887 1.0563-0.20951 1.5714 3.5704 6.6171 9.4543 17.494 11.427 21.152 0.31427 0.58489 0.15713 1.3094-0.37538 1.7198l-2.5753 1.9555-10.703 8.1448c-0.76822 0.58489-0.68965 1.7721 0.1484 2.2523l17.791 10.144z" fill="#918380" stroke-width=".87297"/>
    <path class="st18" d="m393.8 104.63c0.42775-0.74202 1.4229-0.90789 2.0689-0.34046 4.2426 3.745 17.285 15.26 20.986 18.533l-1.2222 0.0436 2.0166 0.65473c-0.16587-0.1484-0.43649-0.38411-0.79441-0.69838l16.351-0.56743 0.969-0.0349 0.62853 0.54124 6.0148 5.1331c0.63728 0.54997 0.62855 1.5452-0.0262 2.0777-0.0349 0.0349-0.0611 0.0524-0.0786 0.0611l2.5491-0.0611c-0.63726-0.54124-0.63726-1.5277 0-2.0689 2.9506-2.4705 7.3854-6.1894 7.4639-6.2418l0.91661 0.53251 7.752 4.4522-0.7333 0.66346 1.5102-0.21824-0.77694-0.44522 6.6171-6.0497 0.63727-0.58489 0.62854 0.4976 6.8441 5.4386-0.40157 0.1746 0.71584 0.0698-0.31427-0.24444 19.878-8.7035-19.677 10.135-0.35792 0.17459-0.35791-0.24443-6.783-4.7315 0.5587-0.57616-1.2745 0.0786 0.71583 0.49759-6.3552 6.5822-0.62855 0.646-0.8817-0.43648-7.7782-3.8324c0.40156-0.37538 0.67218-0.63727 0.77694-0.7333l-1.8158 0.21825 1.0388 0.51505c-1.842 1.7459-6.3029 5.9973-8.171 7.7607-0.48013 0.45395-1.2047 0.4976-1.7372 0.096-1.9991-1.5015-6.687-5.0021-8.59-6.4338l0.82932-0.0786-1.6063-0.50633c0.11349 0.0873 0.39284 0.29681 0.77695 0.5849l-16.674 1.6237-0.50633 0.0524c-0.34919 0.0349-0.69837-0.0698-0.969-0.27935l-0.54124-0.42775-15.775-12.248c-0.68092-0.52378-1.6674-0.30554-2.0428 0.46267-3.4657 7.0624-9.0178 18.411-11.864 24.199-0.72458 1.4928-2.7324 1.746-3.8149 0.4976-3.4482-3.9808-9.1313-10.572-13.156-15.225-0.43648-0.50632-1.1698-0.61981-1.7372-0.26189-6.3552 3.9633-17.032 10.633-20.218 12.623-0.49759 0.31427-1.1349 0.26189-1.5801-0.11349l-2.7673-2.3134c-0.0262-0.0262-0.0524-0.0436-0.0873-0.0698-1.0825-0.75948-22.427-15.801-25.779-27.376-3.4308-11.872 0.81187-12.623 10.903-3.7101l19.301 18.341c0.42776 0.40157 1.0563 0.48887 1.5714 0.20951 6.6171-3.5704 17.494-9.4543 21.152-11.427 0.58489-0.31427 1.3094-0.15713 1.7198 0.37538l1.9555 2.5753 8.1448 10.703c0.58489 0.76822 1.7721 0.68965 2.2523-0.1484l10.144-17.791z" fill="#918380" stroke-width=".87297"/>
    <path class="st18" d="m772.49 27.5-26.75 11.535c-0.45781 0.19748-0.78994 0.61041-0.88868 1.1041l-1.526 7.6301-0.11669 0.62836-0.67325 0.09874-11.266 1.7504c-0.64632 0.09874-1.149 0.59246-1.2657 1.2388l-1.9569 10.79c-0.12567 0.66427-0.66426 1.167-1.3285 1.2388l-0.0808 9e-3 -12.944 1.3914c-0.6912 0.07181-1.2478 0.61041-1.3465 1.2926l-1.8672 12.711-0.12566 0.87073-0.78995 0.61041-16.661 12.828c-0.36804 0.28725-0.59245 0.71813-0.59245 1.1939-0.0539 7.2711-0.20646 30.449-0.25135 37.415-9e-3 1.0054-0.9605 1.7145-1.921 1.4542-5.8348-1.5709-23.303-6.2477-34.012-9.1113-1.0144-0.2693-1.9838 0.52962-1.921 1.5799 0.58348 8.6086 1.4183 20.987 1.6786 25.009 0.0449 0.73607-0.43088 1.3914-1.149 1.5709l-3.3034 0.8438-27.765 7.1095c-0.67325 0.17055-1.149 0.78096-1.149 1.4811 0 0-2.7199 19.874 0.14363 37.226 2.8636 17.361-18.609 18.734-14.677-0.29622 3.9318-19.03 1.7504-39.766 2.0736-47.029 0.027-0.70017 0.52064-1.2836 1.2029-1.4273 4.7935-1.0144 22.774-4.6589 32.136-6.5888 0.71812-0.15259 1.2298-0.78096 1.2118-1.517-0.16157-8.6355-0.41292-23.214-0.52962-29.219-0.0179-1.0503 0.98743-1.8043 1.9928-1.4812 6.5619 2.1095 26.364 8.447 36.885 11.813 0.95152 0.3052 1.93-0.37702 1.9928-1.3734l1.6248-29.722 0.0359-0.72711c0.0269-0.46678 0.2693-0.89766 0.65529-1.167l0.48474-0.34111 17.846-12.424c0.32316-0.22442 0.54757-0.5745 0.62837-0.9605l2.675-13.618 0.0719-0.35906c0.13465-0.6912 0.71813-1.1939 1.4183-1.2298l0.27828-0.01796 13.447-0.78994c0.67325-0.03591 1.2478-0.52064 1.4004-1.1759l2.3878-10.296 0.20646-0.89766 0.86176-0.09874 11.652-1.2298c0.63733-0.07181 1.167-0.52962 1.3196-1.149l1.7504-6.9928 0.0987-0.386 0.33214-0.12567z" fill="#918380" stroke-width=".89766"/>
    <path class="st18" d="m202.49 561.5-26.75-11.535c-0.45781-0.19748-0.78994-0.61041-0.88868-1.1041l-1.526-7.6301-0.11669-0.62837-0.67325-0.0987-11.266-1.7504c-0.64632-0.0987-1.149-0.59245-1.2657-1.2388l-1.9569-10.79c-0.12567-0.66427-0.66426-1.167-1.3285-1.2388l-0.0808-9e-3 -12.944-1.3914c-0.6912-0.0718-1.2478-0.61041-1.3465-1.2926l-1.8672-12.711-0.12566-0.87073-0.78995-0.61042-16.661-12.828c-0.36804-0.28726-0.59245-0.71813-0.59245-1.1939-0.0539-7.2711-0.20646-30.449-0.25135-37.415-9e-3 -1.0054-0.9605-1.7145-1.921-1.4542-5.8348 1.5709-23.303 6.2477-34.012 9.1113-1.0144 0.2693-1.9838-0.52962-1.921-1.5799 0.58348-8.6086 1.4183-20.987 1.6786-25.009 0.0449-0.73607-0.43088-1.3914-1.149-1.5709l-3.3034-0.8438-27.765-7.1095c-0.67325-0.17055-1.149-0.78096-1.149-1.4811 0 0-2.7199-19.874 0.14363-37.226 2.8636-17.361-18.609-18.734-14.677 0.29622 3.9318 19.03 1.7504 39.766 2.0736 47.029 0.027 0.70017 0.52064 1.2836 1.2029 1.4273 4.7935 1.0144 22.774 4.6589 32.136 6.5888 0.71812 0.15259 1.2298 0.78096 1.2118 1.517-0.16157 8.6355-0.41292 23.214-0.52962 29.219-0.0179 1.0503 0.98743 1.8043 1.9928 1.4812 6.5619-2.1095 26.364-8.447 36.885-11.813 0.95152-0.3052 1.93 0.37702 1.9928 1.3734l1.6248 29.722 0.0359 0.7271c0.0269 0.46679 0.2693 0.89766 0.65529 1.167l0.48474 0.34111 17.846 12.424c0.32316 0.22442 0.54757 0.57451 0.62837 0.9605l2.675 13.618 0.0719 0.35907c0.13465 0.6912 0.71813 1.1939 1.4183 1.2298l0.27828 0.018 13.447 0.78994c0.67325 0.0359 1.2478 0.52064 1.4004 1.1759l2.3878 10.296 0.20646 0.89766 0.86176 0.0987 11.652 1.2298c0.63733 0.0718 1.167 0.52962 1.3196 1.149l1.7504 6.9928 0.0987 0.38599 0.33214 0.12568z" fill="#918380" stroke-width=".89766"/>
    <path d="m499 466.27-11.111 12.842h-27.288v-0.8257h26.912l10.862-12.554zm-16.803-31.649c-0.0561 0.2886-0.23249 0.53711-0.481 0.68943l-20.739 12.289-0.13627 0.0802-0.0882 0.1523-9.0507 14.598c-0.0721 0.12025-0.16835 0.22446-0.2886 0.30463-1.0261 0.68942-4.4572 3.0543-8.3933 5.7559-0.43289 0.29662-1.0181 0.21645-1.3548-0.18438l-10.269-12.153 0.0962-0.22447 0.0561-0.13628 0.0561-0.25652 5.796-24.827 0.22447-0.99405c0.0802-0.3367-0.024-0.69744-0.27256-0.94595l-0.83372-0.83373s-16.779-15.56-23.112-23.08-13.404 1.5552-5.2989 5.5956c8.1047 4.0403 22.711 20.402 22.711 20.402 0.26454 0.23248 0.3848 0.58521 0.32066 0.92992l-3.7357 21.019c-0.0962 0.55314-0.6253 0.9219-1.1784 0.81769l-14.277-2.5493c-0.21644-0.0401-0.40885-0.1443-0.56115-0.30463l-8.8182-9.4194c-0.28058-0.29661-0.35273-0.72148-0.1924-1.0983 0.91388-2.1084 2.2767-5.2268 2.918-6.7018 0.17636-0.40083 0.0641-0.87381-0.27256-1.1544-1.8117-1.4991-6.9103-5.7318-9.2671-7.6638h-8e-3s-1.2987-2.3729-1.924-12.706c-0.62529-10.333-11.255-6.3812-7.5676 1.4831 3.6876 7.8642 3.2788 13.556 3.2788 13.556l0.2405 0.97c0.0561 0.2405 0.20041 0.44893 0.40884 0.59322 1.1945 0.82571 5.5474 3.8319 8.241 5.6998 0.36075 0.24851 0.51306 0.70545 0.36877 1.1223-0.6814 2.0282-1.5392 4.6015-1.9721 5.8922v-0.55313h-22.887l-0.032-0.0642-0.28859-0.0641-22.15-4.9302 21.035 6.0685c0.28057 0.0802 0.51306 0.28058 0.64132 0.54512l7.8322 16.747c0.1443 0.30464 0.12827 0.65736-0.0481 0.95397l-8.4094 14.077-0.44091 0.73752 0.12025 0.31265-11.921 10.71c-0.56917 0.51306-1.475 0.23248-1.6594-0.50504l-4.8179-18.759-0.21645-0.84173c-0.0722-0.26455-0.24049-0.49703-0.48099-0.63331l-0.85777-0.48099s-27.657-13.211-34.343-19.392c-6.6858-6.1808-14.173 3.856-3.6796 6.782 10.494 2.926 33.453 17.412 33.453 17.412 0.24852 0.12827 0.42488 0.35272 0.50504 0.61727l6.0044 20.49c0.11224 0.37678-8e-3 0.77761-0.2966 1.0422l-14.013 12.594 0.80968-0.11223-1.5712 0.79364 0.76157-0.68141s-10.293 1.948-21.805 2.9341c-11.512 0.98604-6.2288 10.269 1.3227 7.5997 7.5516-2.6695 22.31-4.7698 22.31-4.7698l1.0101-0.21645 0.56116-0.58521c0.31265-0.38479 6.9503-7.295 13.949-14.606 0.21645-0.22447 0.5291-0.34472 0.84174-0.30464l19.4 2.1164c0.68141 0.0721 1.0902 0.78563 0.81768 1.4109l-7.0465 16.225c-0.0481 0.12024-0.12827 0.22446-0.21646 0.31264 0 0-5.5955 7.4714-12.859 12.77-7.263 5.2989 0.0561 13.869 5.6036 5.2989 5.5474-8.5697 12.514-14.077 12.514-14.077l0.48901-0.54513 0.17637-0.49702 5.4192-14.951c0.20041-0.56116 0.84173-0.82571 1.3788-0.57719l11.343 5.2508-0.20042-1.0662 0.83372 1.3628-0.6333-0.29661 0.92992 5.0023c0.21644 1.1864 1.948 1.0662 2.0122-0.13629l0.31264-6.1647 0.032-0.70545-0.8658-0.66537-8.6338-6.5575c-0.7215-0.54513-0.42488-1.6915 0.47296-1.8117l19.36-2.7016 0.40083-0.0481 0.28859-0.16835 15.993-9.2992c0.65736-0.3848 1.4831 0.0641 1.5231 0.82569l0.63331 12.482 0.0401 0.80967 0.73753 0.18438 1.5151 0.36877c1.2826 0.31264 1.7957-1.5793 0.53711-1.956-0.4329-0.12825-0.72149-0.52908-0.72149-0.97801l0.04-13.764c0-0.32065 0.15232-0.62528 0.41686-0.81768 3.9041-2.8379 20.803-15.424 22.583-16.666l-0.41686-0.90588 0.52108 0.82571c0.024-8e-3 0.0401-0.024 0.0481-0.024l0.17636-0.13628 0.0962-0.16033 7.6237-13.299c0.37677-0.64933 1.2987-0.68942 1.7236-0.0641l7.8803 11.608c0.38478 0.56917 1.2185 0.59323 1.6434 0.0561l0.36876-0.47298-0.28859 2.9581-0.15232-0.22447c-0.38479-0.56918-1.2185-0.59323-1.6434-0.0481l-9.1629 11.8c-0.26454 0.33669-0.28859 0.80165-0.0561 1.1624l0.54513 0.86579-1.8919-0.21645 0.53711-0.68942c0.26455-0.3367 0.28058-0.80166 0.0561-1.1624l-7.5035-11.937c-0.024 0.024-0.0561 0.0481-0.10422 0.0802l6.8622 15.031 0.0561 0.12025c0.29662 0.64132 1.1303 0.79364 1.6354 0.30463l0.56116-0.56116h-1.2265v-0.82571h1.6514c0.26454 0 0.52107-0.10421 0.71347-0.28859l13.195-13.003 0.66537-0.64934c0.31265-0.30464 0.39282-0.7776 0.20041-1.1704-1.4269-2.8779-7.0866-14.294-8.738-17.62-0.22447-0.44892-0.0721-0.98604 0.35272-1.2586l13.829-8.8583 0.0962-0.0641 0.016-0.10421 2.1965-14.446zm-52.973 21.316-0.27256-0.024-0.24852-0.24851zm-19.168-1.7396 0.48901 0.0401 14.791 1.3468c0.66537 0.0641 1.0902 0.73752 0.85777 1.3628l-4.361 11.84c-0.20843 0.56115-0.84975 0.8257-1.3869 0.56918l-15.416-7.3031c-0.60124-0.28057-0.76958-1.0582-0.34471-1.5712l5.307-6.3411zm-1.2987 0.13628-4.1766 5.0023c-0.56918 0.67339-1.6674 0.36074-1.7877-0.51306l-1.3468-9.9646c-0.12827-0.93794 0.98604-1.5231 1.6835-0.88983l5.5234 4.9622c0.40884 0.36074 0.44893 0.97801 0.10422 1.4029zm-33.405-10.943c-0.36876-0.67339 0.12025-1.4991 0.88984-1.4991h20.378c-0.024 0.0722-0.0401 0.12826-0.0561 0.17636l1.0822 0.97 1.5472 1.3949c0.19241 0.16835 0.31265 0.40885 0.32868 0.66538l1.475 16.634c0.0401 0.45695-0.23248 0.88182-0.66537 1.0422l-8.4334 3.0784c-0.35273 0.12827-0.75355 0.0481-1.0341-0.20842l-6.7178-6.1567-0.24049-0.44092zm8.8342 19.119 4.0965 3.7518c0.54512 0.49702 0.3928 1.4029-0.29662 1.6835l-7.6798 3.1986c-0.8738 0.36074-1.7236-0.56116-1.2907-1.4029l3.5834-6.9503c0.30464-0.59323 1.0983-0.73753 1.5873-0.28059zm-20.586 25.388c3.383-3.5353 6.4533-6.758 8.5056-8.9384 0.51305-0.54513 1.4029-0.36876 1.6754 0.32868 1.0181 2.6294 3.1345 8.0566 4.1846 10.774 0.28059 0.72149-0.32066 1.475-1.0902 1.3628l-11.696-1.6835c-1.8117-0.26455-2.1404-1.2506-1.5792-1.8438zm44.139 1.6835-22.895 2.405c-0.43289 0.0481-0.84174-0.19239-1.0261-0.58521l-7.0385-15.207c-0.23249-0.50504-0.016-1.0983 0.48099-1.3388l12.77-6.1246c0.37678-0.17636 0.81769-0.11223 1.1223 0.16835l7.271 6.6698c0.0481 0.0401 0.0882 0.0882 0.12826 0.13628l10.117 13.468-0.56116 0.2966c-0.12025 0.0642-0.2405 0.10423-0.36876 0.11224zm2.3809-2.1645-9.8684-13.123c-0.0401-0.0481-0.0802-0.0962-0.12827-0.13628l-6.6056-6.0765c-0.52107-0.481-0.40083-1.3308 0.22446-1.6514l6.9744-3.5513c0.28059-0.1443 0.60926-0.1443 0.89786-0.016l18.983 8.9946 0.0882 0.0401-1.1945 3.2387-0.21644 0.5852c-0.16033 0.4329 0 0.92191 0.38479 1.1704 0.86578 0.56918 2.437 1.5873 3.9281 2.5733 0.64131 0.42487 0.60124 1.3788-0.0802 1.7476l-12.105 6.4854c-0.43289 0.2405-0.98604 0.12025-1.2826-0.28058zm17.372-9.0747c-0.90587-0.66537-2.6775-1.956-3.6315-2.6615-0.3848-0.28059-0.51306-0.78563-0.32868-1.2185l6.6297-15.4c0.28058-0.65736 1.1384-0.82571 1.6514-0.32067l9.5156 9.4595c0.44892 0.44892 0.3848 1.1945-0.1443 1.5552-5.1065 3.5032-10.55 7.247-12.522 8.6018-0.36877 0.2405-0.82571 0.23249-1.1704-0.016z" fill="#918380" stroke-width=".80165"/>
</svg>
