<svg version="1.1" viewBox="0 0 530 530" xmlns="http://www.w3.org/2000/svg">
  <path d="m299.26 2.0254c-6.1609 0.26007-12.031 3.9141-14.977 9.3317-1.7793 3.1153-2.4353 6.7524-2.2863 10.31 5e-3 69.455-0.0101 138.91 8e-3 208.36 0.0102 6.3369 3.6395 12.5 9.176 15.582 3.1518 1.8509 6.8598 2.5395 10.484 2.3859 69.455-5e-3 138.91 0.0101 208.36-8e-3 6.3369-0.0102 12.5-3.6395 15.582-9.176 1.8509-3.1518 2.5395-6.8598 2.3859-10.484-5e-3 -69.455 0.0101-138.91-8e-3 -208.36-0.01017-6.3365-3.6395-12.5-9.176-15.581-3.1518-1.8509-6.8598-2.5395-10.484-2.3859-69.455 0.00506-138.91-0.010114-208.36 0.00759-0.23466 0.00594-0.46933 0.01187-0.704 0.017806z" fill="#fff" stop-color="#000000"/>
  <path d="m321.48 210.06-4.3242 25.254h7.459c1.5733 0 2.9234-0.20158 4.0488-0.60351 1.4814-0.51676 2.7726-1.425 3.875-2.7227 1.1139-1.2976 2.0446-2.9391 2.791-4.9258 0.75792-1.9982 1.1367-4.22 1.1367-6.666 0-1.8374-0.2301-3.4625-0.68945-4.875-0.45935-1.4125-1.1131-2.5428-1.9629-3.3926-0.83831-0.8498-1.7975-1.4302-2.877-1.7402-0.73496-0.21818-1.8041-0.32812-3.2051-0.32812h-6.252zm50.953 0-4.3242 25.254h2.5664l4.3242-25.254h-2.5664zm6.5117 0-0.60352 3.5312h2.5488l0.60352-3.5312h-2.5488zm96.1 0.31054-2.9277 2.1524-0.77539 4.4961h-2.0156l-0.41211 2.4121h2.0137l-1.8086 10.629c-0.25264 1.4469-0.37891 2.3715-0.37891 2.7734 0 0.84979 0.27691 1.526 0.82813 2.0312 0.5627 0.50529 1.3203 0.75782 2.2734 0.75782 0.57418 0 1.1648-0.09775 1.7734-0.29297l0.44922-2.5488c-0.44787 0.13781-0.95488 0.20703-1.5176 0.20703-0.37896 0-0.66001-0.09165-0.84375-0.27539-0.18373-0.18374-0.27539-0.47698-0.27539-0.87891 0-0.22967 0.10994-0.99336 0.32813-2.291l1.7383-10.111h2.498l0.41407-2.4121h-2.498l1.1367-6.6484zm-151.29 2.5664h3.6699c1.4469 0 2.508 0.14455 3.1856 0.43164 0.94166 0.39045 1.6829 1.1541 2.2227 2.291 0.55122 1.1254 0.82617 2.6467 0.82617 4.5644 0 2.1819-0.31566 4.1268-0.94727 5.8379-0.62011 1.7111-1.3553 3.0449-2.2051 3.998-0.84979 0.94166-1.8131 1.5791-2.8926 1.9121-1.068 0.32154-2.3714 0.48047-3.9102 0.48046h-3.291l3.3418-19.516zm22.496 3.6699c-1.3666 0-2.6353 0.42974-3.8066 1.291-1.1713 0.84978-2.1651 2.2041-2.9805 4.0644-0.80386 1.8604-1.2051 3.8643-1.2051 6.0117 0 1.6307 0.26472 3.0379 0.79297 4.2207 0.52825 1.1713 1.239 2.0552 2.1348 2.6524 0.89573 0.58566 1.8895 0.8789 2.9805 0.8789 1.5388 0 2.9338-0.55601 4.1856-1.6699 1.5044-1.3206 2.4636-2.8724 2.877-4.6523l-2.498-0.3086c-0.47084 1.3206-1.1307 2.3308-1.9805 3.0312-0.83831 0.70051-1.6936 1.0508-2.5664 1.0508-0.91869 0-1.7048-0.44192-2.3594-1.3262-0.65457-0.89572-0.98242-2.2052-0.98242-3.9277 0-0.28709 0.01632-0.61494 0.05078-0.98242h11.059c0.12632-0.94166 0.18945-1.8601 0.18945-2.7559 0-2.4116-0.54991-4.277-1.6523-5.5977-1.091-1.3206-2.5042-1.9805-4.2383-1.9805zm15.211 0c-1.6077 0-2.905 0.49288-3.8926 1.4805-0.9876 0.98759-1.4824 2.2461-1.4824 3.7734 0 0.74644 0.13236 1.4226 0.39649 2.0312 0.26412 0.59714 0.63073 1.1083 1.1016 1.5332 0.48231 0.41341 1.47 1.0101 2.9629 1.791 1.2977 0.67753 2.1428 1.2518 2.5332 1.7226 0.37896 0.47083 0.56836 1.0003 0.56836 1.5859 0 0.81534-0.30543 1.4874-0.91406 2.0156-0.60863 0.51676-1.4354 0.77343-2.4805 0.77343-1.1484 0-2.0546-0.36661-2.7207-1.1016-0.66603-0.73495-0.99389-1.8489-0.98242-3.3418l-2.5664 0.18946v0.34375c0 2.0096 0.54577 3.5675 1.6367 4.6699s2.5959 1.6523 4.5137 1.6523c1.9063 0 3.393-0.54577 4.4609-1.6367 1.0795-1.0909 1.6191-2.3943 1.6191-3.9102 0-1.3666-0.40122-2.5254-1.2051-3.4785-0.52825-0.60863-1.7643-1.4252-3.7051-2.4473-1.2632-0.65457-2.0493-1.176-2.3594-1.5664-0.31005-0.37896-0.46484-0.83308-0.46484-1.3613 0-0.60863 0.25863-1.1422 0.77539-1.6016 0.51676-0.47083 1.1888-0.70703 2.0156-0.70703 1.0565 0 1.8936 0.31152 2.5137 0.93164 0.63159 0.62012 0.96554 1.504 1 2.6523l2.5156-0.20703c-0.04594-1.8259-0.58562-3.2433-1.6191-4.2539-1.0335-1.022-2.4407-1.5332-4.2207-1.5332zm42.787 0c-3.491 0-5.7821 1.8716-6.873 5.6152l2.584 0.27539c0.63161-2.2278 2.0103-3.3418 4.1348-3.3418 1.0565 0 1.8609 0.23425 2.4121 0.70508 0.5627 0.45934 0.84375 1.0743 0.84375 1.8438 0 0.55121-0.10384 1.264-0.31055 2.1367-0.37896 0.18374-0.83917 0.32024-1.3789 0.41211-0.52824 0.09187-1.5098 0.17938-2.9453 0.25976-1.6996 0.08038-3.0071 0.35534-3.9258 0.82617-0.90721 0.45935-1.6139 1.1253-2.1191 1.998-0.50529 0.87275-0.75781 1.8951-0.75781 3.0664 0 1.6422 0.43583 2.9394 1.3086 3.8926 0.88424 0.95314 1.9921 1.4297 3.3242 1.4297 0.84979 0 1.6888-0.19963 2.5156-0.60156 0.82683-0.40193 1.7107-1.0983 2.6524-2.0859 0.05741 0.94166 0.16125 1.7012 0.31054 2.2754h2.5664c-0.19522-1.0335-0.29297-1.8664-0.29297-2.498 0-0.89573 0.13236-2.0667 0.39649-3.5137l0.82617-4.5488c0.22967-1.2977 0.34375-2.428 0.34375-3.3926 0-1.3666-0.50507-2.4988-1.5156-3.3945-1.0106-0.90721-2.3771-1.3594-4.0996-1.3594zm17.588 0c-0.8383 0-1.6305 0.23425-2.377 0.70508-0.74643 0.45935-1.614 1.3676-2.6016 2.7227l0.51758-3.0156h-2.5508l-3.1348 18.295h2.5508l1.498-8.6484c0.45934-2.6872 1.1945-4.6055 2.2051-5.7539 1.022-1.1598 2.1014-1.7383 3.2383-1.7383 0.47083 0 0.86181 0.17721 1.1719 0.5332 0.32154 0.35599 0.48047 0.83863 0.48047 1.4473 0 0.36747-0.07337 0.97028-0.22266 1.8086l-2.1191 12.352h2.5664l1.5156-8.873c0.34452-1.9752 0.74769-3.4151 1.207-4.3223 0.47082-0.91869 1.0961-1.6375 1.877-2.1543 0.78089-0.52825 1.5263-0.79101 2.2383-0.79101 0.53973 0 0.97143 0.16502 1.293 0.49805 0.32155 0.32154 0.48242 0.79394 0.48242 1.4141 0 0.43638-0.08555 1.1472-0.25781 2.1348l-2.0684 12.094h2.5508l2.0137-11.783c0.22968-1.2976 0.34571-2.2386 0.34571-2.8242 0-1.3321-0.33395-2.3483-1-3.0488-0.65457-0.7005-1.573-1.0508-2.7559-1.0508-0.93018 0-1.8201 0.28715-2.6699 0.86133-0.84978 0.5627-1.6542 1.418-2.4121 2.5664-0.20671-1.1139-0.62426-1.9651-1.2559-2.5508-0.6316-0.58567-1.4075-0.87696-2.3262-0.87696zm22.531 0c-1.3666 0-2.6353 0.42974-3.8066 1.291-1.1713 0.84978-2.1651 2.2041-2.9805 4.0644-0.80386 1.8604-1.2051 3.8643-1.2051 6.0117 0 1.6307 0.26277 3.0379 0.79101 4.2207 0.52826 1.1713 1.241 2.0552 2.1367 2.6524 0.89573 0.58566 1.8895 0.8789 2.9805 0.8789 1.5388 0 2.9338-0.55601 4.1856-1.6699 1.5044-1.3206 2.4635-2.8724 2.877-4.6523l-2.498-0.3086c-0.47083 1.3206-1.1307 2.3308-1.9805 3.0312-0.8383 0.70051-1.6956 1.0508-2.5684 1.0508-0.91869 0-1.7048-0.44192-2.3594-1.3262-0.65457-0.89572-0.98242-2.2052-0.98242-3.9277 0-0.28709 0.01827-0.61494 0.05273-0.98242h11.059c0.12632-0.94166 0.18945-1.8601 0.18945-2.7559 0-2.4116-0.55186-4.277-1.6543-5.5977-1.0909-1.3206-2.5023-1.9805-4.2363-1.9805zm18.018 0c-0.82682 0-1.6822 0.26277-2.5664 0.79102-0.88424 0.51676-1.8658 1.4535-2.9453 2.8086l0.53321-3.1875h-2.3086l-3.1348 18.295h2.5488l1.4648-8.5098c0.48231-2.8135 1.2338-4.7889 2.2559-5.9258 1.0335-1.1369 2.1943-1.7051 3.4805-1.7051 0.62011 0 1.1088 0.1833 1.4648 0.55078 0.36748 0.35599 0.55078 0.84887 0.55078 1.4805 0 0.53973-0.09774 1.3787-0.29297 2.5156l-1.998 11.594h2.5664l1.8945-11.076c0.25264-1.4469 0.37891-2.4936 0.37891-3.1367 0-1.4355-0.36051-2.5433-1.084-3.3242-0.71199-0.78088-1.6488-1.1699-2.8086-1.1699zm22.393 0c-2.492 0-4.4776 1.1364-5.959 3.4102-1.4814 2.2738-2.2227 5.0577-2.2227 8.3535 0 2.2738 0.58038 4.072 1.7402 5.3926 1.1598 1.3091 2.6302 1.9629 4.4102 1.9629 1.3551 0 2.6462-0.44193 3.875-1.3262 1.2402-0.89573 2.2443-2.2337 3.0137-4.0137 0.78089-1.78 1.1719-3.8002 1.1719-6.0625 0-2.469-0.5682-4.371-1.7051-5.7031-1.1369-1.3436-2.5787-2.0137-4.3242-2.0137zm-107.02 0.41211-3.1348 18.295h2.5488l3.1348-18.295h-2.5488zm5.6328 0-0.44727 2.6016h5.5625c0.53974 0 1.4194-0.07532 2.6367-0.22461-0.71199 0.83831-1.3555 1.6488-1.9297 2.4297l-8.0625 11.076-0.41211 2.4121h12.074l0.46485-2.7402h-5.9082c-0.52824 0-1.4977 0.0529-2.9102 0.15625 0.9072-1.1024 1.5895-1.97 2.0488-2.6016l8.1484-11.145 0.32618-1.9648h-11.592zm101.3 1.998c1.0106 0 1.8598 0.45411 2.5488 1.3613 0.68902 0.89572 1.0352 2.2174 1.0352 3.9629 0 1.6077-0.30543 3.1738-0.91407 4.7012-0.60863 1.5273-1.3194 2.625-2.1348 3.291-0.81534 0.65457-1.6319 0.98047-2.4473 0.98047-1.0335 0-1.895-0.44193-2.584-1.3262s-1.0332-2.1918-1.0332-3.9258c0-1.6996 0.28105-3.3023 0.84375-4.8066 0.57418-1.5158 1.2747-2.6013 2.1016-3.2559 0.8383-0.65457 1.6997-0.98242 2.584-0.98242zm-138.39 0.01758c0.99908 0 1.8198 0.40731 2.4629 1.2226s0.96485 2.0392 0.96485 3.6699v0.63672h-8.4238c0.44786-1.8489 1.1199-3.2317 2.0156-4.1504 0.90721-0.91869 1.901-1.3789 2.9805-1.3789zm98.115 0c0.99907 0 1.8198 0.40731 2.4629 1.2226 0.64308 0.81534 0.96484 2.0392 0.96484 3.6699v0.63672h-8.4219c0.44787-1.8489 1.118-3.2317 2.0137-4.1504 0.9072-0.91869 1.901-1.3789 2.9805-1.3789zm-37.758 7.0117c-0.28709 1.9292-0.67198 3.3691-1.1543 4.3223-0.47083 0.95315-1.0858 1.6822-1.8438 2.1875s-1.544 0.75781-2.3594 0.75781c-0.86127 0-1.5496-0.26886-2.0664-0.80859-0.51676-0.53973-0.77539-1.2749-0.77539-2.2051 0-0.67753 0.16089-1.2742 0.48243-1.791 0.32154-0.51677 0.76956-0.90166 1.3438-1.1543 0.57418-0.25264 1.6311-0.46032 3.1699-0.62109 1.5044-0.16077 2.5715-0.38892 3.2031-0.6875z" stroke-width="1.3229" style="font-variant-caps:normal;font-variant-east-asian:normal;font-variant-ligatures:normal;font-variant-numeric:normal;text-orientation:upright"/>
  <path d="m19.264 282.03c-6.1609 0.26007-12.031 3.9141-14.977 9.3317-1.7793 3.1153-2.4353 6.7524-2.2863 10.31 0.00506 69.455-0.010114 138.91 0.00759 208.36 0.010172 6.3369 3.6395 12.5 9.1761 15.582 3.1518 1.8509 6.8598 2.5395 10.484 2.3859 69.455-5e-3 138.91 0.0101 208.36-8e-3 6.3369-0.0102 12.5-3.6395 15.582-9.176 1.8509-3.1518 2.5395-6.8598 2.3859-10.484-5e-3 -69.455 0.0101-138.91-8e-3 -208.36-0.0102-6.3369-3.6395-12.5-9.176-15.582-3.1518-1.8509-6.8598-2.5395-10.484-2.3859-69.455 5e-3 -138.91-0.0101-208.36 8e-3 -0.23467 6e-3 -0.46934 0.0119-0.704 0.0178z" fill="#fff" stop-color="#000000"/>
  <path d="m61.482 490.06-11.73 25.254h3.0312l3.3262-7.2695h8.3711l0.99805 7.2695h2.6875l-3.4102-25.254h-3.2734zm13.42 0-4.3242 25.254h2.2383l0.60352-3.4629c0.84979 2.5838 2.3018 3.875 4.3574 3.875 1.0909 0 2.2008-0.44193 3.3262-1.3262 1.1254-0.89573 2.0724-2.2683 2.8418-4.1172 0.76941-1.8604 1.1543-3.9335 1.1543-6.2188 0-2.4805-0.47654-4.3398-1.4297-5.5801-0.95314-1.2517-2.1241-1.877-3.5137-1.877-0.67754 0-1.3496 0.18331-2.0156 0.55078-0.65457 0.356-1.3958 0.99951-2.2227 1.9297l1.5508-9.0273h-2.5664zm40.203 0-0.60352 3.5312h2.5508l0.60157-3.5312h-2.5488zm-5.3223 0.31054-2.9277 2.1524-0.77539 4.4961h-2.0156l-0.41406 2.4121h2.0156l-1.8086 10.629c-0.25264 1.4469-0.3789 2.3715-0.3789 2.7734 0 0.84979 0.27495 1.526 0.82617 2.0312 0.5627 0.50529 1.3222 0.75782 2.2754 0.75782 0.57418 0 1.1648-0.09775 1.7734-0.29297l0.44726-2.5488c-0.44787 0.13781-0.95293 0.20703-1.5156 0.20703-0.37897 0-0.66002-0.09165-0.84375-0.27539-0.18374-0.18374-0.27539-0.47698-0.27539-0.87891 0-0.22967 0.10798-0.99336 0.32617-2.291l1.7402-10.111h2.498l0.41406-2.4121h-2.498l1.1367-6.6484zm70.832 0-2.9297 2.1524-0.77539 4.4961h-2.0156l-0.41211 2.4121h2.0156l-1.8086 10.629c-0.25264 1.4469-0.3789 2.3715-0.3789 2.7734 0 0.84979 0.27496 1.526 0.82617 2.0312 0.5627 0.50529 1.3203 0.75782 2.2734 0.75782 0.57418 0 1.1668-0.09775 1.7754-0.29297l0.44726-2.5488c-0.44786 0.13781-0.95292 0.20703-1.5156 0.20703-0.37896 0-0.66001-0.09165-0.84375-0.27539s-0.27735-0.47698-0.27735-0.87891c0-0.22967 0.10994-0.99336 0.32813-2.291l1.7402-10.111h2.498l0.41211-2.4121h-2.498l1.1387-6.6484zm-117.86 2.4453c0.080386 1.6881 0.27588 3.7837 0.58594 6.2871l0.79102 6.3398h-6.8379l3.4102-7.4766c0.90721-1.9867 1.5914-3.7034 2.0508-5.1504zm32.59 3.791c-3.491 0-5.7821 1.8716-6.873 5.6152l2.584 0.27539c0.6316-2.2278 2.0103-3.3418 4.1348-3.3418 1.0565 0 1.8609 0.23425 2.4121 0.70508 0.5627 0.45934 0.84375 1.0743 0.84375 1.8438 0 0.55121-0.10384 1.264-0.31055 2.1367-0.37896 0.18374-0.83917 0.32024-1.3789 0.41211-0.52825 0.09187-1.5099 0.17938-2.9453 0.25976-1.6996 0.08039-3.009 0.35534-3.9277 0.82617-0.90721 0.45935-1.6119 1.1253-2.1172 1.998-0.50528 0.87275-0.75781 1.8951-0.75781 3.0664 0 1.6422 0.43584 2.9394 1.3086 3.8926 0.88424 0.95314 1.9921 1.4297 3.3242 1.4297 0.84979 0 1.6888-0.20159 2.5156-0.60351 0.82682-0.40194 1.7107-1.0964 2.6523-2.084 0.057419 0.94166 0.16126 1.7012 0.31055 2.2754h2.5664c-0.19522-1.0335-0.29297-1.8664-0.29297-2.498 0-0.89573 0.13236-2.0667 0.39648-3.5137l0.82617-4.5488c0.22967-1.2977 0.34375-2.428 0.34375-3.3926 0-1.3666-0.50506-2.4988-1.5156-3.3945-1.0106-0.90721-2.3771-1.3594-4.0996-1.3594zm32.057 0c-0.83831 0-1.6305 0.23425-2.377 0.70508-0.74643 0.45935-1.614 1.3676-2.6016 2.7227l0.51758-3.0156h-2.5488l-3.1348 18.295h2.5488l1.498-8.6484c0.45935-2.6872 1.1945-4.6055 2.2051-5.7539 1.022-1.1598 2.1014-1.7383 3.2383-1.7383 0.47083 0 0.86181 0.17721 1.1719 0.5332 0.32154 0.35599 0.48242 0.83863 0.48242 1.4473 0 0.36748-0.07533 0.97028-0.22461 1.8086l-2.1191 12.352h2.5664l1.5176-8.873c0.34451-1.9752 0.74573-3.4151 1.2051-4.3223 0.47083-0.91869 1.0961-1.6375 1.877-2.1543 0.78089-0.52825 1.5282-0.79101 2.2402-0.79101 0.53973 0 0.96947 0.16502 1.291 0.49805 0.32155 0.32154 0.48242 0.79394 0.48242 1.4141 0 0.43638-0.08555 1.1472-0.25781 2.1348l-2.0664 12.094h2.5488l2.0156-11.783c0.22967-1.2976 0.34375-2.2386 0.34375-2.8242 0-1.3321-0.33199-2.3483-0.99805-3.0488-0.65456-0.7005-1.575-1.0508-2.7578-1.0508-0.93017 0-1.8201 0.28715-2.6699 0.86133-0.84979 0.5627-1.6522 1.418-2.4102 2.5664-0.2067-1.1139-0.6262-1.9651-1.2578-2.5508-0.6316-0.58567-1.4075-0.87696-2.3262-0.87696zm22.531 0c-1.3666 0-2.6353 0.42974-3.8066 1.291-1.1713 0.84978-2.1651 2.2041-2.9805 4.0644-0.80386 1.8604-1.2051 3.8643-1.2051 6.0117 0 1.6307 0.26472 3.0379 0.79297 4.2207 0.52824 1.1713 1.239 2.0552 2.1348 2.6524 0.89573 0.58566 1.8895 0.8789 2.9805 0.8789 1.5388 0 2.9338-0.55601 4.1856-1.6699 1.5044-1.3206 2.4635-2.8724 2.877-4.6523l-2.498-0.3086c-0.47083 1.3206-1.1307 2.3308-1.9805 3.0312-0.83831 0.70051-1.6936 1.0508-2.5664 1.0508-0.91869 0-1.7068-0.44192-2.3613-1.3262-0.65456-0.89572-0.98047-2.2052-0.98047-3.9277 0-0.2871 0.01632-0.61495 0.05078-0.98242h11.059c0.12632-0.94166 0.18945-1.8601 0.18945-2.7559 0-2.4116-0.54991-4.277-1.6523-5.5977-1.091-1.3206-2.5042-1.9805-4.2383-1.9805zm18.018 0c-0.82682 0-1.6822 0.26277-2.5664 0.79102-0.88424 0.51676-1.8658 1.4535-2.9453 2.8086l0.5332-3.1875h-2.3066l-3.1367 18.295h2.5508l1.4629-8.5098c0.48232-2.8135 1.2358-4.7889 2.2578-5.9258 1.0335-1.1369 2.1924-1.7051 3.4785-1.7051 0.62012 0 1.1088 0.1833 1.4648 0.55078 0.36748 0.35599 0.55079 0.84887 0.55079 1.4805 0 0.53973-0.09775 1.3787-0.29297 2.5156l-1.998 11.594h2.5664l1.8945-11.076c0.25264-1.4469 0.3789-2.4936 0.3789-3.1367 0-1.4355-0.36051-2.5433-1.084-3.3242-0.71199-0.78088-1.6488-1.1699-2.8086-1.1699zm22.395 0c-2.492 0-4.4796 1.1364-5.9609 3.4102s-2.2227 5.0577-2.2227 8.3535c0 2.2738 0.58038 4.072 1.7402 5.3926 1.1598 1.3091 2.6302 1.9629 4.4102 1.9629 1.3551 0 2.6462-0.44193 3.875-1.3262 1.2402-0.89573 2.2462-2.2337 3.0156-4.0137 0.78088-1.78 1.1699-3.8002 1.1699-6.0625 0-2.469-0.5682-4.371-1.7051-5.7031-1.1369-1.3436-2.5768-2.0137-4.3223-2.0137zm-76.43 0.41211-3.1367 18.295h2.5508l3.1348-18.295h-2.5488zm76.342 1.998c1.0106 0 1.8618 0.45411 2.5508 1.3613 0.68901 0.89572 1.0332 2.2174 1.0332 3.9629 0 1.6077-0.30543 3.1738-0.91406 4.7012-0.60864 1.5273-1.3194 2.625-2.1348 3.291-0.81534 0.65457-1.6319 0.98047-2.4473 0.98047-1.0335 0-1.893-0.44193-2.582-1.3262-0.68902-0.88425-1.0352-2.1918-1.0352-3.9258 0-1.6996 0.283-3.3023 0.8457-4.8066 0.57418-1.5158 1.2747-2.6013 2.1016-3.2559 0.83831-0.65457 1.6978-0.98242 2.582-0.98242zm-40.271 0.01758c0.99908 0 1.8198 0.40731 2.4629 1.2226 0.64309 0.81534 0.96485 2.0392 0.96485 3.6699v0.63672h-8.4238c0.44786-1.8489 1.1199-3.2317 2.0156-4.1504 0.90721-0.91869 1.901-1.3789 2.9805-1.3789zm-70.643 0.08593c0.93018 0 1.7 0.42561 2.3086 1.2754 0.62012 0.83831 0.92969 2.0888 0.92969 3.7539 0 1.5618-0.29324 3.1584-0.87891 4.7891-0.57418 1.6192-1.2177 2.7332-1.9297 3.3418-0.71199 0.59715-1.435 0.89648-2.1699 0.89648-0.91869 0-1.6926-0.39708-2.3242-1.1894-0.62012-0.80386-0.93164-1.981-0.93164-3.5312l0.017579-0.6543c0-0.9072 0.19549-2.0497 0.58594-3.4277 0.53973-1.8718 1.1996-3.2159 1.9805-4.0312 0.78089-0.81534 1.5853-1.2227 2.4121-1.2227zm18.414 6.9258c-0.28709 1.9293-0.67198 3.3691-1.1543 4.3223-0.47083 0.95315-1.0858 1.6822-1.8438 2.1875-0.75792 0.50528-1.544 0.75781-2.3594 0.75781-0.86128 0-1.5496-0.26886-2.0664-0.80859-0.51676-0.53973-0.77539-1.2749-0.77539-2.2051 0-0.67753 0.16088-1.2742 0.48242-1.791 0.32154-0.51677 0.76957-0.90166 1.3438-1.1543s1.6311-0.46032 3.1699-0.62109c1.5044-0.16077 2.5715-0.38892 3.2031-0.6875z" stroke-width="1.3229" style="font-variant-caps:normal;font-variant-east-asian:normal;font-variant-ligatures:normal;font-variant-numeric:normal;text-orientation:upright"/>
  <path d="m19.264 2.0254c-6.1609 0.26007-12.031 3.9141-14.977 9.3317-1.7793 3.1153-2.4353 6.7524-2.2863 10.31 0.00506 69.455-0.010114 138.91 0.00759 208.36 0.010172 6.3369 3.6395 12.5 9.1761 15.582 3.1518 1.8509 6.8598 2.5395 10.484 2.3859 69.455-5e-3 138.91 0.0101 208.36-8e-3 6.3369-0.0102 12.5-3.6395 15.582-9.176 1.8509-3.1518 2.5395-6.8598 2.3859-10.484-5e-3 -69.455 0.0101-138.91-8e-3 -208.36-0.0097649-6.3365-3.6391-12.5-9.1756-15.581-3.1518-1.8509-6.8598-2.5395-10.484-2.3859-69.455 0.00506-138.91-0.010114-208.36 0.00759-0.23467 0.00594-0.46934 0.01187-0.704 0.017806z" fill="#fff" stop-color="#000000"/>
  <path d="m36.557 209.63c-1.9063 0-3.674 0.56819-5.3047 1.7051-1.6307 1.1369-2.985 2.8761-4.0645 5.2188-1.068 2.3312-1.6035 4.9216-1.6035 7.7695 0 3.5944 0.83292 6.4008 2.498 8.4219 1.6766 2.0096 3.7498 3.0156 6.2188 3.0156 1.5962 0 3.038-0.39708 4.3242-1.1894 0.96463 1.401 2.0888 2.6127 3.375 3.6348l1.2246-1.998c-1.2173-0.96462-2.1601-1.9401-2.8262-2.9277 1.4699-1.3091 2.6531-3.0442 3.5488-5.2031 0.89572-2.1589 1.3438-4.5294 1.3438-7.1133 0-3.5599-0.83292-6.3397-2.498-8.3379s-3.7444-2.9961-6.2363-2.9961zm55.863 0.42969-1.6875 9.8359c-0.94166-2.1934-2.3367-3.2891-4.1855-3.2891-1.1139 0-2.234 0.44193-3.3594 1.3262s-2.0724 2.261-2.8418 4.1328c-0.7694 1.8604-1.1543 3.9111-1.1543 6.1504 0 2.5034 0.48068 4.3811 1.4453 5.6328 0.96463 1.2517 2.1376 1.877 3.5156 1.877 1.6077 0 3.1351-1.0223 4.582-3.0664l-0.44922 2.6543h2.3613l4.3223-25.254h-2.5488zm40.307 0-1.6875 9.8359c-0.94166-2.1934-2.3367-3.2891-4.1855-3.2891-1.1139 0-2.234 0.44193-3.3594 1.3262s-2.0724 2.261-2.8418 4.1328c-0.7694 1.8604-1.1543 3.9111-1.1543 6.1504 0 2.5034 0.48264 4.3811 1.4473 5.6328 0.96463 1.2517 2.1356 1.877 3.5137 1.877 1.6077 0 3.1351-1.0223 4.582-3.0664l-0.44727 2.6543h2.3594l4.3242-25.254h-2.5508zm-96.271 2.377c1.6881 0 3.1219 0.73517 4.3047 2.2051 1.1828 1.4699 1.7754 3.5267 1.7754 6.168 0 2.0785-0.36856 4.0642-1.1035 5.959-0.73495 1.8833-1.6473 3.3312-2.7383 4.3418-1.1369-1.4929-2.2855-2.5396-3.4453-3.1367l-0.99805 2.1016c0.88424 0.5627 1.762 1.3264 2.6348 2.291-0.76941 0.37896-1.5392 0.56836-2.3086 0.56836-1.7455 0-3.2261-0.72908-4.4434-2.1875s-1.8262-3.497-1.8262-6.1152c0-2.4116 0.40122-4.5703 1.2051-6.4766 0.81534-1.9063 1.8559-3.3359 3.1191-4.2891 1.2747-0.95314 2.5495-1.4297 3.8242-1.4297zm34.588 4.1699c-1.3666 0-2.6353 0.42974-3.8066 1.291-1.1713 0.84978-2.1651 2.2041-2.9805 4.0644-0.80386 1.8604-1.2051 3.8643-1.2051 6.0117 0 1.6307 0.26277 3.0379 0.79102 4.2207 0.52825 1.1713 1.241 2.0552 2.1367 2.6524 0.89572 0.58566 1.8895 0.8789 2.9805 0.8789 1.5388 0 2.9338-0.55601 4.1855-1.6699 1.5044-1.3206 2.4635-2.8724 2.877-4.6523l-2.498-0.3086c-0.47083 1.3206-1.1307 2.3308-1.9805 3.0312-0.83831 0.70051-1.6936 1.0508-2.5664 1.0508-0.91869 0-1.7068-0.44192-2.3613-1.3262-0.65457-0.89572-0.98047-2.2052-0.98047-3.9277 0-0.28709 0.016328-0.61494 0.050781-0.98242h11.059c0.12632-0.94166 0.18945-1.8601 0.18945-2.7559 0-2.4116-0.54991-4.277-1.6523-5.5977-1.0909-1.3206-2.5042-1.9805-4.2383-1.9805zm32.367 0c-3.491 0-5.7821 1.8716-6.8731 5.6152l2.584 0.27539c0.6316-2.2278 2.0083-3.3418 4.1328-3.3418 1.0565 0 1.8609 0.23425 2.4121 0.70508 0.5627 0.45934 0.84375 1.0743 0.84375 1.8438 0 0.55121-0.10189 1.264-0.3086 2.1367-0.37896 0.18374-0.83917 0.32024-1.3789 0.41211-0.52825 0.09187-1.5099 0.17938-2.9453 0.25976-1.6996 0.08038-3.009 0.35534-3.9277 0.82617-0.90721 0.45935-1.6139 1.1253-2.1191 1.998-0.50528 0.87275-0.75781 1.8951-0.75781 3.0664 0 1.6422 0.43584 2.9394 1.3086 3.8926 0.88424 0.95314 1.9941 1.4297 3.3262 1.4297 0.84979 0 1.6868-0.19963 2.5137-0.60156 0.82683-0.40193 1.7107-1.0983 2.6524-2.0859 0.05742 0.94166 0.16126 1.7012 0.31054 2.2754h2.5664c-0.19522-1.0335-0.29297-1.8664-0.29297-2.498 0-0.89573 0.13236-2.0667 0.39649-3.5137l0.82812-4.5488c0.22967-1.2977 0.34375-2.428 0.34375-3.3926 0-1.3666-0.50506-2.4988-1.5156-3.3945-1.0106-0.90721-2.3771-1.3594-4.0996-1.3594zm40.188 0c-1.3666 0-2.6373 0.42974-3.8086 1.291-1.1713 0.84978-2.1632 2.2041-2.9785 4.0644-0.80386 1.8604-1.207 3.8643-1.207 6.0117 0 1.6307 0.26471 3.0379 0.79296 4.2207 0.52825 1.1713 1.241 2.0552 2.1367 2.6524 0.89573 0.58566 1.8876 0.8789 2.9785 0.8789 1.5388 0 2.9358-0.55601 4.1875-1.6699 1.5044-1.3206 2.4616-2.8724 2.875-4.6523l-2.4961-0.3086c-0.47082 1.3206-1.1326 2.3308-1.9824 3.0312-0.8383 0.70051-1.6936 1.0508-2.5664 1.0508-0.9187 0-1.7048-0.44192-2.3594-1.3262-0.65456-0.89572-0.98242-2.2052-0.98242-3.9277 0-0.28709 0.01827-0.61494 0.05273-0.98242h11.059c0.12632-0.94166 0.18945-1.8601 0.18945-2.7559 0-2.4116-0.55186-4.277-1.6543-5.5977-1.0909-1.3206-2.5023-1.9805-4.2363-1.9805zm25.768 0c-0.8383 0-1.6305 0.23425-2.377 0.70508-0.74643 0.45935-1.612 1.3676-2.5996 2.7227l0.51563-3.0156h-2.5488l-3.1348 18.295h2.5488l1.498-8.6484c0.45934-2.6872 1.1945-4.6055 2.2051-5.7539 1.022-1.1598 2.1014-1.7383 3.2383-1.7383 0.47083 0 0.86181 0.17721 1.1719 0.5332 0.32154 0.35599 0.48242 0.83863 0.48242 1.4473 0 0.36747-0.07532 0.97028-0.22461 1.8086l-2.1172 12.352h2.5664l1.5156-8.873c0.34451-1.9752 0.74573-3.4151 1.2051-4.3223 0.47082-0.91869 1.0961-1.6375 1.877-2.1543 0.78089-0.52825 1.5282-0.79101 2.2402-0.79101 0.53974 0 0.96948 0.16502 1.291 0.49805 0.32155 0.32154 0.48242 0.79394 0.48242 1.4141 0 0.43638-0.08555 1.1472-0.25781 2.1348l-2.0664 12.094h2.5488l2.0156-11.783c0.22967-1.2976 0.34375-2.2386 0.34375-2.8242 0-1.3321-0.332-2.3483-0.99805-3.0488-0.65457-0.7005-1.573-1.0508-2.7559-1.0508-0.93017 0-1.8201 0.28715-2.6699 0.86133-0.84979 0.5627-1.6542 1.418-2.4121 2.5664-0.20671-1.1139-0.62621-1.9651-1.2578-2.5508-0.6316-0.58567-1.4075-0.87696-2.3262-0.87696zm39.412 0c-1.5158 0-3.0249 1.3828-4.5293 4.1504l0.63672-3.7383h-2.2559l-3.1348 18.295h2.4277l1.2754-7.3398c0.52824-3.1236 1.2573-5.2986 2.1875-6.5273 0.94166-1.2402 1.8826-1.8613 2.8242-1.8613 0.4938 0 0.96425 0.19549 1.4121 0.58594l1.0508-2.8926c-0.74645-0.44786-1.3778-0.67188-1.8945-0.67188zm8.9922 0c-2.492 0-4.4776 1.1364-5.959 3.4102-1.4814 2.2738-2.2227 5.0577-2.2227 8.3535 0 2.2738 0.58038 4.072 1.7402 5.3926 1.1598 1.3091 2.6282 1.9629 4.4082 1.9629 1.3551 0 2.6482-0.44193 3.877-1.3262 1.2402-0.89573 2.2443-2.2337 3.0137-4.0137 0.78089-1.78 1.1719-3.8002 1.1719-6.0625 0-2.469-0.5682-4.371-1.7051-5.7031-1.1369-1.3436-2.5787-2.0137-4.3242-2.0137zm-168.24 0.41211-1.8105 10.561c-0.32154 1.8604-0.48047 3.18-0.48047 3.9609 0 1.2288 0.36661 2.2328 1.1016 3.0137 0.74644 0.78088 1.6649 1.1719 2.7559 1.1719 1.8833 0 3.7264-1.2402 5.5293-3.7207l-0.56836 3.3086h2.3594l3.1348-18.295h-2.5488l-1.3613 7.9062c-0.31006 1.8489-0.67667 3.3253-1.1016 4.4277-0.41341 1.0909-1.0733 2.0033-1.9805 2.7383-0.89573 0.72347-1.7979 1.0859-2.7051 1.0859-0.64308 0-1.1421-0.1833-1.498-0.55078-0.35599-0.37896-0.53516-0.93082-0.53516-1.6543 1e-6 -0.52825 0.087511-1.2798 0.25977-2.2559l1.998-11.697h-2.5488zm136.98 0-1.8086 10.561c-0.32154 1.8604-0.48243 3.18-0.48243 3.9609 0 1.2288 0.36661 2.2328 1.1016 3.0137 0.74643 0.78088 1.6649 1.1719 2.7559 1.1719 1.8833 0 3.7264-1.2402 5.5293-3.7207l-0.56836 3.3086h2.3613l3.1348-18.295h-2.5508l-1.3594 7.9062c-0.31006 1.8489-0.67862 3.3253-1.1035 4.4277-0.41341 1.0909-1.0733 2.0033-1.9805 2.7383-0.89573 0.72347-1.7979 1.0859-2.7051 1.0859-0.64309 0-1.1421-0.1833-1.498-0.55078-0.35599-0.37896-0.5332-0.93082-0.5332-1.6543 0-0.52825 0.08556-1.2798 0.25781-2.2559l1.998-11.697h-2.5488zm31.178 1.998c1.0106 0 1.8598 0.45411 2.5488 1.3613 0.68902 0.89572 1.0332 2.2174 1.0332 3.9629 0 1.6077-0.30347 3.1738-0.9121 4.7012-0.60864 1.5273-1.3214 2.625-2.1367 3.291-0.81534 0.65457-1.63 0.98047-2.4453 0.98047-1.0335 0-1.895-0.44193-2.584-1.3262s-1.0332-2.1918-1.0332-3.9258c0-1.6996 0.28105-3.3023 0.84375-4.8066 0.57418-1.5158 1.2747-2.6013 2.1016-3.2559 0.83831-0.65457 1.6997-0.98242 2.584-0.98242zm-146.59 0.01758c0.99908 0 1.8218 0.40731 2.4648 1.2226 0.64308 0.81534 0.96484 2.0392 0.96484 3.6699v0.63672h-8.4238c0.44786-1.8489 1.1199-3.2317 2.0156-4.1504 0.90721-0.91869 1.8991-1.3789 2.9785-1.3789zm72.555 0c0.99907 0 1.8198 0.40731 2.4629 1.2226 0.64308 0.81534 0.96484 2.0392 0.96484 3.6699v0.63672h-8.4238c0.44786-1.8489 1.1199-3.2317 2.0156-4.1504 0.90721-0.91869 1.901-1.3789 2.9805-1.3789zm-56.965 0.13867c0.88424 0 1.6479 0.40122 2.291 1.2051 0.64309 0.80385 0.96484 1.9402 0.96484 3.4102 0 2.8594-0.62523 5.2707-1.877 7.2344-0.95314 1.4699-2.004 2.2051-3.1523 2.2051-0.88424 0-1.597-0.37271-2.1367-1.1191-0.7005-0.96463-1.0508-2.2049-1.0508-3.7207l0.017578-0.74023c0-1.0335 0.23011-2.3206 0.68945-3.8594 0.45935-1.5388 1.0682-2.6915 1.8262-3.4609 0.75792-0.7694 1.5665-1.1543 2.4277-1.1543zm40.309 0c0.88424 0 1.6479 0.40122 2.291 1.2051 0.64309 0.80385 0.96289 1.9402 0.96289 3.4102 0 2.8594-0.62523 5.2707-1.877 7.2344-0.95314 1.4699-2.004 2.2051-3.1523 2.2051-0.88424 0-1.595-0.37271-2.1348-1.1191-0.70051-0.96463-1.0508-2.2049-1.0508-3.7207l0.01563-0.74023c0-1.0335 0.2301-2.3206 0.68945-3.8594 0.45934-1.5388 1.0682-2.6915 1.8262-3.4609 0.75792-0.7694 1.5684-1.1543 2.4297-1.1543zm-21.172 6.873c-0.28709 1.9292-0.67003 3.3691-1.1523 4.3223-0.47083 0.95315-1.0858 1.6822-1.8438 2.1875-0.75792 0.50528-1.544 0.75781-2.3594 0.75781-0.86127 0-1.5516-0.26886-2.0684-0.80859-0.51676-0.53973-0.77539-1.2749-0.77539-2.2051 0-0.67753 0.16088-1.2742 0.48242-1.791 0.32154-0.51677 0.76957-0.90166 1.3438-1.1543 0.57418-0.25264 1.6311-0.46032 3.1699-0.62109 1.5044-0.16077 2.5715-0.38892 3.2031-0.6875z" stroke-width="1.3229" style="font-variant-caps:normal;font-variant-east-asian:normal;font-variant-ligatures:normal;font-variant-numeric:normal;text-orientation:upright"/>
  <path d="m299.26 282.03c-6.1609 0.26007-12.031 3.9141-14.977 9.3317-1.7793 3.1153-2.4353 6.7524-2.2863 10.31 5e-3 69.455-0.0101 138.91 8e-3 208.36 0.0102 6.3369 3.6395 12.5 9.176 15.582 3.1518 1.8509 6.8598 2.5395 10.484 2.3859 69.455-5e-3 138.91 0.0101 208.36-8e-3 6.3369-0.0102 12.5-3.6395 15.582-9.176 1.8509-3.1518 2.5395-6.8598 2.3859-10.484-5e-3 -69.455 0.0101-138.91-8e-3 -208.36-0.0102-6.3369-3.6395-12.5-9.176-15.582-3.1518-1.8509-6.8598-2.5395-10.484-2.3859-69.455 5e-3 -138.91-0.0101-208.36 8e-3 -0.23466 6e-3 -0.46933 0.0119-0.704 0.0178z" fill="#fff" stop-color="#000000"/>
  <path d="m373.75 489.63c-2.9513 0-5.4542 1.279-7.5098 3.8398-2.3082 2.8824-3.4629 6.6377-3.4629 11.266 0 2.1934 0.40731 4.1524 1.2226 5.875 0.81534 1.7225 1.8601 3.0076 3.1348 3.8574 1.2862 0.84979 2.728 1.2754 4.3242 1.2754 1.8374 0 3.5888-0.58648 5.2539-1.7578 1.6651-1.1713 3.0438-2.9166 4.1348-5.2363 1.091-2.3312 1.6367-4.9257 1.6367-7.7852 0-3.5599-0.83901-6.3397-2.5156-8.3379-1.6651-1.9982-3.7383-2.9961-6.2188-2.9961zm32.953 0.74023-2.9297 2.1524-0.77539 4.4961h-2.0137l-0.41406 2.4121h2.0156l-1.8086 10.629c-0.25264 1.4469-0.37891 2.3715-0.37891 2.7734 0 0.84979 0.27495 1.526 0.82617 2.0312 0.5627 0.50529 1.3203 0.75782 2.2734 0.75782 0.57418 0 1.1668-0.09775 1.7754-0.29297l0.44727-2.5488c-0.44787 0.13781-0.95293 0.20703-1.5156 0.20703-0.37896 0-0.66001-0.09165-0.84375-0.27539s-0.27539-0.47698-0.27539-0.87891c0-0.22967 0.10799-0.99336 0.32617-2.291l1.7402-10.111h2.498l0.41211-2.4121h-2.4961l1.1367-6.6484zm-33.074 2.0664c1.6881 0 3.1238 0.73517 4.3066 2.2051 1.1943 1.4584 1.791 3.4623 1.791 6.0117 0 2.3541-0.41756 4.5311-1.2559 6.5293-0.83831 1.9867-1.8728 3.4448-3.1016 4.375-1.2173 0.93018-2.4575 1.3945-3.7207 1.3945-1.6651 0-3.107-0.72908-4.3242-2.1875-1.2173-1.4584-1.8242-3.4094-1.8242-5.8555 0-4.0422 0.95309-7.2416 2.8594-9.5957 1.5618-1.9178 3.3173-2.877 5.2695-2.877zm43.461 4.1699c-1.5158 0-3.0269 1.3828-4.5312 4.1504l0.63867-3.7383h-2.2578l-3.1348 18.295h2.4297l1.2734-7.3398c0.52824-3.1236 1.2573-5.2986 2.1875-6.5273 0.94166-1.2402 1.8845-1.8613 2.8262-1.8613 0.49379 0 0.96424 0.1955 1.4121 0.58594l1.0508-2.8926c-0.74643-0.44786-1.3778-0.67188-1.8945-0.67188zm8.9922 0c-2.492 0-4.4796 1.1364-5.9609 3.4102-1.4814 2.2738-2.2227 5.0577-2.2227 8.3535 0 2.2738 0.58039 4.072 1.7402 5.3926 1.1598 1.3091 2.6302 1.9629 4.4102 1.9629 1.3551 0 2.6463-0.44193 3.875-1.3262 1.2402-0.89573 2.2462-2.2337 3.0156-4.0137 0.78089-1.78 1.1699-3.8002 1.1699-6.0625 0-2.469-0.56819-4.371-1.7051-5.7031-1.1369-1.3436-2.5768-2.0137-4.3223-2.0137zm15.105 0c-1.6077 0-2.905 0.49288-3.8926 1.4805-0.9876 0.98759-1.4805 2.2461-1.4805 3.7734 0 0.74644 0.1304 1.4226 0.39453 2.0312 0.26412 0.59714 0.63269 1.1083 1.1035 1.5332 0.48232 0.41341 1.47 1.0101 2.9629 1.791 1.2977 0.67753 2.1408 1.2518 2.5312 1.7226 0.37896 0.47083 0.56836 1.0003 0.56836 1.5859 0 0.81534-0.30347 1.4874-0.91211 2.0156-0.60863 0.51676-1.4354 0.77343-2.4805 0.77343-1.1484 0-2.0566-0.36661-2.7227-1.1016-0.66603-0.73495-0.99194-1.8489-0.98047-3.3418l-2.5664 0.18946v0.34375c0 2.0096 0.54382 3.5655 1.6348 4.668 1.091 1.1024 2.5959 1.6543 4.5137 1.6543 1.9063 0 3.393-0.54577 4.4609-1.6367 1.0795-1.0909 1.6191-2.3943 1.6191-3.9102 0-1.3666-0.40122-2.5254-1.2051-3.4785-0.52825-0.60863-1.7624-1.4252-3.7031-2.4473-1.2632-0.65457-2.0493-1.176-2.3594-1.5664-0.31005-0.37896-0.46679-0.83308-0.4668-1.3613 1e-5 -0.60863 0.25864-1.1422 0.7754-1.6016 0.51676-0.47083 1.1888-0.70703 2.0156-0.70703 1.0565 0 1.8955 0.31152 2.5156 0.93164 0.63158 0.62012 0.96358 1.504 0.99804 2.6523l2.5156-0.20703c-0.04594-1.8259-0.58561-3.2433-1.6191-4.2539-1.0335-1.022-2.4407-1.5332-4.2207-1.5332zm-54.432 0.41211-1.8086 10.561c-0.32155 1.8604-0.48242 3.18-0.48242 3.9609 0 1.2288 0.36661 2.2328 1.1016 3.0137 0.74644 0.78088 1.6649 1.1719 2.7559 1.1719 1.8833 0 3.7264-1.2402 5.5293-3.7207l-0.56836 3.3086h2.3613l3.1348-18.295h-2.5508l-1.3594 7.9062c-0.31006 1.8489-0.67862 3.3253-1.1035 4.4277-0.41341 1.0909-1.0733 2.0033-1.9805 2.7383-0.89573 0.72347-1.7979 1.0859-2.7051 1.0859-0.64308 0-1.142-0.1833-1.498-0.55078-0.35599-0.37896-0.5332-0.93082-0.5332-1.6543 0-0.52825 0.08556-1.2798 0.25781-2.2559l1.998-11.697h-2.5488zm39.238 1.998c1.0106 0 1.8618 0.45411 2.5508 1.3613 0.68902 0.89572 1.0332 2.2174 1.0332 3.9629 0 1.6077-0.30543 3.1738-0.91406 4.7012-0.60864 1.5273-1.3194 2.625-2.1348 3.291-0.81534 0.65457-1.6319 0.98047-2.4473 0.98047-1.0335 0-1.893-0.44193-2.582-1.3262-0.68902-0.88425-1.0352-2.1918-1.0352-3.9258 0-1.6996 0.283-3.3023 0.8457-4.8066 0.57418-1.5158 1.2747-2.6013 2.1016-3.2559 0.83832-0.65457 1.6978-0.98242 2.582-0.98242z" stroke-width="1.3229" style="font-variant-caps:normal;font-variant-east-asian:normal;font-variant-ligatures:normal;font-variant-numeric:normal;text-orientation:upright"/>
  <path d="m391.44 307.94c-1.2846 0-2.3183 1.0336-2.3183 2.3183v66.802h-66.802c-1.2846 0-2.3183 1.0337-2.3183 2.3183v27.123c0 1.2846 1.0336 2.3183 2.3183 2.3183h66.802v66.8c0 1.2846 1.0336 2.3196 2.3183 2.3196h27.123c1.2846 0 2.3183-1.035 2.3183-2.3196v-66.8h66.8c1.2846 0 2.3196-1.0336 2.3196-2.3183v-27.123c0-1.2846-1.035-2.3183-2.3196-2.3183h-66.8v-66.802c0-1.2846-1.0337-2.3183-2.3183-2.3183z" stop-color="#000000" stroke-width="23.142"/>
  <path d="m317.5 115v-78.375l0.62955 0.14789c3.3425 0.78551 14.788 3.7702 14.905 3.8867 0.083 0.0829-0.045 2.151-0.27651 4.5959-0.56105 5.8423-0.55676 15.803 0.01 20.757 1.5132 13.247 6.4296 23.987 14.252 31.131 3.3689 3.0772 8.2304 6.0474 12.57 7.6797 2.3523 0.88486 7.2405 2.0945 8.4657 2.095 0.7733 3e-4 1.1252 0.28724 2.6563 2.1688 5.8254 7.1573 13.024 14.132 19.172 18.575 12.142 8.7756 25.375 11.634 35.373 7.6403 1.3271-0.53011 2.5102-0.96385 2.629-0.96385 0.11849 0 0.7966 0.5351 1.5061 1.1891 2.55 2.3508 14.323 13.142 22.831 20.928 4.7706 4.3656 9.3033 8.5228 10.073 9.2385 0.76945 0.71553 7.5685 6.9376 15.109 13.827 7.5405 6.8891 14.022 12.825 14.403 13.191l0.69311 0.6646h-175zm128.49 16.893 0.0816-2.1717 5.1762-0.0302c7.1433-0.0401 7.8943-0.0748 7.7878-0.36624-0.09-0.24567-3.3607-3.0138-10.467-8.858-3.1015-2.5509-19.709-16.401-20.442-17.048-1.1558-1.0204-3.4248-2.9186-10.595-8.8637-4.4628-3.7002-8.6732-7.1856-9.3565-7.7455-0.6833-0.55984-1.6008-1.3327-2.0389-1.7174l-0.79645-0.69952 2.0389-2.024c1.1213-1.1131 2.1311-2.1077 2.2438-2.2101 0.16199-0.14751 2.8567 1.8817 4.8731 3.6693 0.17646 0.157 0.7998 0.66272 1.3845 1.1244 0.58471 0.46149 1.5732 1.2897 2.1968 1.8402 0.62352 0.55045 3.8407 3.2465 7.1493 5.9914 3.3086 2.7447 6.4684 5.3791 7.0217 5.854 0.55332 0.475 1.3938 1.1785 1.8678 1.5632 0.9734 0.7901 3.7999 3.1414 12.095 10.062 3.1547 2.6318 7.3097 6.0977 9.2333 7.7023 1.9236 1.6043 4.5587 3.8037 5.8558 4.8875 1.2972 1.0837 2.4617 1.9705 2.5881 1.9705 0.1265 0 0.23002-2.9589 0.23002-6.5752v-6.5753h4.4832l-0.1458 22.244-11.274 0.0733-11.274 0.0729zm-29.857-2.744c-4.1721-0.65782-11.868-2.8575-14.058-4.0176-0.2705-0.14325-1.5621-0.78708-2.8701-1.4305-3.0464-1.4983-4.1173-2.1668-7.7758-4.8544-3.1286-2.2983-4.0812-3.1309-9.1519-8.0008-5.251-5.043-6.8696-6.2014-14.283-10.224-12.12-6.5746-15.187-8.8795-18.399-13.822-3.1055-4.7794-5.4206-12.403-6.338-20.873-0.43549-4.0198-1.1264-13.423-1.1287-15.362-2e-3 -1.5496 0.0299-1.6256 0.4875-1.2256 0.72006 0.62736 5.466 3.5596 8.0442 4.9698 6.15 3.3643 6.1783 3.4012 17.911 23.369 0.90425 1.5388 1.8744 3.1127 2.1559 3.4975 3.5156 4.8038 5.3189 6.515 9.5315 9.0445 1.1981 0.7194 2.2281 1.308 2.2888 1.308 0.0604 0 0.90613 0.36763 1.8787 0.81607 0.9725 0.44898 3.1532 1.338 4.846 1.9758 8.5455 3.2202 10.98 4.4108 14.474 7.0794 6.5421 4.9965 13.8 14.366 15.764 20.346 0.71591 2.1811 0.69835 5.153-0.0399 6.5582-0.31801 0.60612-0.69569 1.1234-0.8394 1.1493-0.14351 0.0265-1.2685-0.1115-2.4997-0.30576z" stroke-width=".2798"/>
  <path d="m123.58 325.65c-0.7175 0-1.2949 0.57737-1.2949 1.2949v42.441h-5.7149a1.2466 1.2466 0 0 0-1.1328 1.7656l8.7637 19.123a0.8904 0.8904 0 0 0 1.6191 0l8.7657-19.123a1.2466 1.2466 0 0 0 0.1133-0.52734 1.2466 1.2466 0 0 0-1.2461-1.2383h-5.7149v-42.441c0-0.71756-0.5794-1.2949-1.2969-1.2949zm-50.781 23.439c-0.167 0.0209-0.331 0.0744-0.4864 0.16407l-2.4785 1.4316c-0.6213 0.35849-0.8333 1.1481-0.4746 1.7695l21.221 36.754-4.9512 2.8574a1.2466 1.2466 0 0 0-0.098 2.0957l17.152 12.18a0.8904 0.8904 0 0 0 1.4023-0.81056l-1.9707-20.943a1.2466 1.2466 0 0 0-0.166-0.51366 1.2466 1.2466 0 0 0-1.6992-0.44923l-4.9492 2.8574-21.221-36.754c-0.2689-0.46605-0.7804-0.70145-1.2813-0.63868zm104.4 0c-0.5009-0.0628-1.0104 0.17263-1.2793 0.63868l-21.221 36.754-4.9492-2.8574a1.2466 1.2466 0 0 0-1.6992 0.44923 1.2466 1.2466 0 0 0-0.1661 0.51366l-1.9707 20.943a0.8904 0.8904 0 0 0 1.4024 0.81056l17.152-12.18a1.2466 1.2466 0 0 0-0.1-2.0957l-4.9492-2.8574 21.221-36.754c0.3587-0.6214 0.1468-1.411-0.4746-1.7695l-2.4785-1.4316c-0.1553-0.0897-0.3213-0.14314-0.4883-0.16407zm-127.95 66.834c-6.509 0-11.748 5.241-11.748 11.75v40.668h175v-40.668c0-6.509-5.239-11.75-11.748-11.75h-28.834c-13.82 0-23.927 25.025-46.918 25.025-22.99-6e-4 -33.098-25.025-46.918-25.025z" stroke-width="5"/>
  <path d="m35.679 78.184c-0.08556 0-0.17422 0.0067-0.26511 0.02211l-10.414 1.7491v10.133l10.414-1.3545c0.72722-0.09455 1.3153-0.66223 1.3153-1.2722v-8.3752c0-0.53374-0.45044-0.90073-1.0502-0.90234zm1.0502 11.695-10.511 1.3175c-0.67633 0.08478-1.2182 0.62326-1.2182 1.2076v8.0233c0 0.58438 0.54189 1.0075 1.2182 0.94832l10.511-0.91974zm-1.1807 11.996c-0.04444-9e-5 -0.08889 2e-3 -0.13467 6e-3l-10.414 0.86219v10.133l10.414-0.46789c0.72722-0.0327 1.3153-0.5504 1.3153-1.1604v-8.375c0-0.57188-0.51689-0.99657-1.1807-0.99779zm1.1807 11.79-10.511 0.42259c-0.67633 0.0272-1.2182 0.51947-1.2182 1.1039v8.0229c0 0.58439 0.54189 1.054 1.2182 1.0524l10.511-0.0248zm-11.729 11.865v10.133l10.414 0.41905c0.72722 0.0292 1.3153-0.43825 1.3153-1.0483v-8.3752c0-0.61001-0.58811-1.1024-1.3153-1.1042zm1.0929 11.449c-0.61678 0.0261-1.0929 0.45281-1.0929 1.0007v8.0232c0 0.58439 0.54189 1.0996 1.2182 1.1556l10.511 0.87024v-10.577l-10.511-0.47239c-0.04222-2e-3 -0.08444-2e-3 -0.12533 0zm-1.0929 11.34v10.133l10.414 1.3057c0.72722 0.0911 1.3153-0.32609 1.3153-0.93611v-8.3751c0-0.61001-0.58811-1.1527-1.3153-1.2163zm0.97178 11.542c-0.55689 0.0256-0.97178 0.39585-0.97178 0.90719v8.0236c0 0.58441 0.54189 1.1455 1.2182 1.2591l10.511 1.7655v-10.577l-10.511-1.3674c-0.08444-0.0111-0.16689-0.0146-0.24644-0.0111zm23.213 0.0111c0.67633-0.088 1.2182 0.31185 1.2182 0.89625v8.0235c0 0.5844-0.54189 1.1457-1.2182 1.2593l-10.511 1.7652v-10.577s10.511-1.3673 10.511-1.3673zm0-22.892c0.67633-0.0304 1.2182 0.41589 1.2182 1.0003v8.0232c0 0.58439-0.54189 1.0996-1.2182 1.1556l-10.511 0.87024v-10.577l10.511-0.47227zm0-22.892c0.67633 0.0272 1.2182 0.51933 1.2182 1.1037v8.0232c0 0.58439-0.54189 1.0538-1.2182 1.0522l-10.511-0.0248v-10.577l10.511 0.42272zm0-22.892c0.67633 0.08478 1.2182 0.62308 1.2182 1.2075v8.0235c0 0.58441-0.54189 1.0073-1.2182 0.94813l-10.511-0.91977v-10.577l10.511 1.3177zm75.981 58.792 10.506-1.3666c0.31144-0.0404 0.56134 0.24655 0.56134 0.64354v5.4502c0 0.39697-0.2499 0.75855-0.56134 0.81085l-10.506 1.7643c-0.34956 0.0587-0.63189-0.23401-0.63189-0.65653v-5.801c0-0.42252 0.28233-0.79941 0.63189-0.84488zm6.3209-8.7642 9.8459-0.86157c0.29244-0.0256 0.52722 0.26359 0.52722 0.64827v5.2815c0 0.3847-0.23478 0.72383-0.52722 0.76048l-9.8459 1.2344c-0.32711 0.041-0.59123-0.25487-0.59123-0.6635v-5.6102c0-0.40863 0.26412-0.76072 0.59123-0.78933zm-13.143 1.15s11.24-0.98358 11.24-0.98358c0.33267-0.0291 0.59956 0.27778 0.59956 0.68796v5.6316c0 0.41019-0.26689 0.77387-0.59956 0.81557l-11.24 1.4091c-0.37478 0.047-0.67755-0.26728-0.67755-0.7048v-6.0068c0-0.43751 0.30277-0.81623 0.67755-0.84902zm6.8218-8.808 10.506-0.47202c0.31144-0.014 0.56134 0.29437 0.56134 0.69136v5.4502c0 0.39697-0.2499 0.73726-0.56134 0.76304l-10.506 0.86979c-0.34956 0.0289-0.63189-0.28785-0.63189-0.71037v-5.8009c0-0.42252 0.28233-0.77535 0.63189-0.79107zm6.3209-8.226 9.8459-0.0232c0.29244 0 0.52722 0.30845 0.52722 0.69315v5.2815c0 0.3847-0.23478 0.70385-0.52722 0.71559l-9.8459 0.39599c-0.32711 0.0132-0.59123-0.3052-0.59123-0.71383v-5.6102c0-0.40863 0.26412-0.73822 0.59123-0.739zm-13.143 0.031 11.24-0.0265c0.33267 0 0.59956 0.3288 0.59956 0.739v5.6315c0 0.41019-0.26689 0.75115-0.59956 0.76452l-11.24 0.45205c-0.37478 0.015-0.67755-0.32496-0.67755-0.7625v-6.0068c0-0.43753 0.30277-0.79047 0.67755-0.79135zm6.8218-8.2272 10.506 0.42252c0.31144 0.0125 0.56134 0.34217 0.56134 0.73914v5.4502c0 0.39698-0.2499 0.71598-0.56134 0.71524l-10.506-0.0248c-0.34956 0-0.63189-0.34165-0.63189-0.76417v-5.8009c0-0.42252 0.28233-0.75132 0.63189-0.73725zm58.62 19.577 1.15 9.8125c0.0344 0.29143-0.242 0.58668-0.61911 0.66282l-5.177 1.0454c-0.37711 0.0761-0.71678-0.0948-0.76178-0.38397 0 0-1.5153-9.7387-1.5153-9.7387-0.05-0.32348 0.23144-0.64984 0.632-0.73072l5.4992-1.1105c0.40056-0.0809 0.75389 0.11721 0.792 0.44314zm-34.704-9.2001 8.9572 6.8541c0.265 0.20283 0.29933 0.64348 0.0778 0.98868l-3.0416 4.7395c-0.22156 0.34522-0.61811 0.46891-0.88989 0.27669l-9.1871-6.4959c-0.30633-0.21661-0.36356-0.688-0.12722-1.0562l3.2442-5.0554c0.23633-0.3682 0.66789-0.48004 0.96655-0.25149zm30.232-19.533 9.4248 4.8246c0.27944 0.14302 0.39456 0.55817 0.259 0.93132l-1.8607 5.1227c-0.13555 0.37311-0.47211 0.56763-0.75555 0.43567l-9.5607-4.4507c-0.31811-0.14811-0.459-0.58743-0.31467-0.98459l1.9804-5.4524c0.14422-0.39713 0.51367-0.58719 0.82733-0.42663zm-11.058 14.31s-3.9663 9.1622-3.9663 9.1622c-0.11778 0.27212-0.513 0.41628-0.88644 0.32403l-5.1274-1.2665c-0.37344-0.0922-0.58822-0.38708-0.48111-0.66186 0 0 3.6043-9.2515 3.6043-9.2515 0.11978-0.30731 0.53578-0.47659 0.93256-0.3786l5.4464 1.3453c0.39678 0.098 0.60978 0.42265 0.478 0.72699zm-57.172 29.522 12.048-1.5671c0.35578-0.0462 0.64111 0.25808 0.64111 0.68226v5.8238c0 0.42419-0.28533 0.81362-0.64111 0.87337l-12.048 2.0233c-0.40256 0.0677-0.72778-0.24286-0.72778-0.69633v-6.226c0-0.45349 0.32522-0.86088 0.72778-0.91325zm-16.3 2.1203 13.956-1.8154c0.41022-0.0533 0.73922 0.27048 0.73922 0.72587v6.2522c0 0.4554-0.329 0.87728-0.73922 0.94616l-13.956 2.3439c-0.46855 0.0787-0.84722-0.25167-0.84722-0.74102v-6.7182c0-0.48933 0.37867-0.93252 0.84722-0.99349zm8.4256-10.242 12.953-1.1335c0.38166-0.0334 0.68778 0.29349 0.68778 0.73279v6.0312c0 0.43931-0.30612 0.83136-0.68778 0.8792l-12.953 1.6239c-0.43389 0.0545-0.78433-0.28068-0.78433-0.75148v-6.4637c0-0.47079 0.35044-0.88049 0.78433-0.91845zm-17.617 1.5416 15.091-1.3205c0.44222-0.0387 0.797 0.31093 0.797 0.7838v6.4921c0 0.47287-0.35478 0.89802-0.797 0.95347l-15.091 1.8918c-0.508 0.0637-0.91856-0.29506-0.91856-0.80463v-6.9959c0-0.50957 0.41056-0.95573 0.91856-1.0002zm-9.896 11.183 16.358-2.1278c0.478-0.0622 0.86144 0.28367 0.86144 0.77523v6.7488c0 0.49158-0.38344 0.95169-0.86144 1.032l-16.358 2.7471c-0.55222 0.0928-0.99867-0.26006-0.99867-0.79141v-7.295c0-0.53135 0.44644-1.0172 0.99867-1.089zm-22.657 2.9471 19.437-2.5283c0.56444-0.0734 1.0169 0.29763 1.0169 0.83158v7.3311c0 0.53397-0.45244 1.0398-1.0169 1.1346 0 0-19.437 3.2642-19.437 3.2642-0.66044 0.11089-1.1946-0.26732-1.1946-0.84858v-7.9801c0-0.58125 0.53411-1.1187 1.1946-1.2046zm11.788-12.313 17.804-1.5579c0.51878-0.0454 0.93467 0.33039 0.93467 0.84238v7.0291c0 0.51198-0.41589 0.9763-0.93467 1.0413l-17.804 2.232c-0.60289 0.0756-1.0903-0.31033-1.0903-0.86561v-7.6236c0-0.55528 0.48744-1.045 1.0903-1.0977zm-24.839 2.1735 21.321-1.8657c0.61678-0.054 1.1112 0.35212 1.1112 0.91027v7.663c0 0.55814-0.49444 1.0695-1.1112 1.1468l-21.321 2.673c-0.72711 0.0911-1.3153-0.3262-1.3153-0.93621v-8.375c0-0.61001 0.58822-1.1526 1.3153-1.2162zm71.095-15.032s12.048-0.54131 12.048-0.54131c0.35578-0.016 0.64111 0.3127 0.64111 0.73687v5.8238c0 0.42418-0.28533 0.7893-0.64111 0.81875l-12.048 0.99747c-0.40256 0.0333-0.72778-0.30483-0.72778-0.7583v-6.226c0-0.45349 0.32522-0.83319 0.72778-0.85126zm-16.3 0.73235 13.956-0.62705c0.41022-0.0185 0.73922 0.33341 0.73922 0.78881v6.2522c0 0.45539-0.329 0.84926-0.73922 0.88321l-13.956 1.1555c-0.46855 0.0388-0.84722-0.32382-0.84722-0.81314v-6.7182c0-0.48934 0.37867-0.90029 0.84722-0.92136zm8.4256-9.5244s12.953-0.0306 12.953-0.0306c0.38166 0 0.68778 0.35205 0.68778 0.79135v6.0312c0 0.43932-0.30612 0.8053-0.68778 0.82064l-12.953 0.52095c-0.43389 0.0174-0.78433-0.34746-0.78433-0.81826v-6.4637c0-0.47081 0.35044-0.85065 0.78433-0.85166zm-17.617 0.0414 15.091-0.0356c0.44222-2e-3 0.797 0.37881 0.797 0.85168v6.4921c0 0.47287-0.35478 0.86781-0.797 0.88561l-15.091 0.6069c-0.508 0.0205-0.91856-0.37327-0.91856-0.88285v-6.9959c0-0.50956 0.41056-0.92076 0.91856-0.92195zm-9.896 10.341 16.358-0.73495c0.478-0.0214 0.86144 0.35704 0.86144 0.84861v6.7488c0 0.49158-0.38344 0.91906-0.86144 0.95863l-16.358 1.3543c-0.55222 0.0457-0.99867-0.34509-0.99867-0.87644v-7.295c0-0.53135 0.44644-0.97916 0.99867-1.004zm-22.657 1.018 19.437-0.87328c0.56444-0.0253 1.0169 0.38419 1.0169 0.91816v7.3311c0 0.53397-0.45244 1.0013-1.0169 1.048l-19.437 1.6092c-0.66044 0.0547-1.1946-0.36904-1.1946-0.95029v-7.9801c0-0.58125 0.53411-1.0732 1.1946-1.1029zm11.788-11.31s17.804-0.042 17.804-0.042c0.51878-2e-3 0.93467 0.40996 0.93467 0.92194v7.0291c0 0.51198-0.41589 0.94088-0.93467 0.96175l-17.804 0.71603c-0.60289 0.0242-1.0903-0.40319-1.0903-0.95846v-7.6236c0-0.55529 0.48744-1.0035 1.0903-1.0049zm-24.839 0.0585s21.321-0.0502 21.321-0.0502c0.61678-2e-3 1.1112 0.44673 1.1112 1.0049v7.663c0 0.55814-0.49444 1.0274-1.1112 1.0522 0 0-21.321 0.8575-21.321 0.8575-0.72711 0.0292-1.3153-0.4382-1.3153-1.0482v-8.375c0-0.61001 0.58822-1.1025 1.3153-1.1042zm71.095-8.9781 12.048 0.48454c0.35578 0.0143 0.64111 0.36729 0.64111 0.79146v5.8237c0 0.42418-0.28533 0.76501-0.64111 0.76416l-12.048-0.0283c-0.40256-2e-3 -0.72778-0.36679-0.72778-0.82025v-6.226c0-0.45347 0.32522-0.80547 0.72778-0.78928zm-16.3-0.65558s13.956 0.56132 13.956 0.56132c0.41022 0.0164 0.73922 0.39634 0.73922 0.85174v6.2523c0 0.45538-0.329 0.82123-0.73922 0.82025l-13.956-0.0329c-0.46855-2e-3 -0.84722-0.39595-0.84722-0.88528v-6.7182c0-0.48934 0.37867-0.86806 0.84722-0.8492zm8.4256-8.807 12.953 1.0724c0.38166 0.0316 0.68778 0.4106 0.68778 0.8499v6.0313c0 0.4393-0.30612 0.77919-0.68778 0.76204 0 0-12.953-0.58198-12.953-0.58198-0.43389-0.0196-0.78433-0.41426-0.78433-0.88507v-6.4637c0-0.47081 0.35044-0.82078 0.78433-0.78487zm-17.617-1.4586 15.091 1.2494c0.44222 0.0367 0.797 0.44667 0.797 0.91953v6.4921c0 0.47286-0.35478 0.8376-0.797 0.81773l-15.091-0.67801c-0.508-0.0228-0.91856-0.45151-0.91856-0.96108v-6.9959c0-0.50956 0.41056-0.8858 0.91856-0.84374zm-9.896 9.4979s16.358 0.65789 16.358 0.65789c0.478 0.0192 0.86144 0.43039 0.86144 0.92194v6.7488c0 0.49158-0.38344 0.8864-0.86144 0.88529l-16.358-0.0386c-0.55222-2e-3 -0.99867-0.4301-0.99867-0.96146v-7.295c0-0.53134 0.44644-0.94115 0.99867-0.91894zm-22.657-0.9112 19.437 0.7817c0.56444 0.0227 1.0169 0.47078 1.0169 1.0048v7.3311c0 0.53398-0.45244 0.96281-1.0169 0.96148 0 0-19.437-0.0458-19.437-0.0458-0.66044-2e-3 -1.1946-0.47074-1.1946-1.052v-7.9801c0-0.58125 0.53411-1.0277 1.1946-1.0012zm11.788-10.306 17.804 1.474c0.51878 0.043 0.93467 0.48955 0.93467 1.0015v7.0291c0 0.512-0.41589 0.90548-0.93467 0.88219l-17.804-0.79994c-0.60289-0.0271-1.0903-0.49603-1.0903-1.0513v-7.6236c0-0.55528 0.48744-0.96196 1.0903-0.91205zm-24.839-2.0564 21.321 1.7652c0.61678 0.051 1.1112 0.54135 1.1112 1.0995v7.663c0 0.55816-0.49444 0.98528-1.1112 0.95758 0 0-21.321-0.95797-21.321-0.95797-0.72711-0.0327-1.3153-0.55017-1.3153-1.1602v-8.3749c0-0.61002 0.58822-1.0524 1.3153-0.9922zm163.92 13.765 6.8013 10.059c0.20078 0.29698 0.10556 0.76026-0.21411 1.0397l-4.3811 3.8369c-0.31911 0.27945-0.74522 0.27326-0.95622-0.0149 0 0-7.1444-9.7581-7.1444-9.7581-0.23877-0.32603-0.15688-0.83 0.18423-1.1288l4.6837-4.1019c0.34123-0.29878 0.79945-0.26777 1.0267 0.0683zm-109.13-18.732 13.956 1.7497c0.41022 0.0514 0.73922 0.4593 0.73922 0.91469v6.2522c0 0.4554-0.329 0.79323-0.73922 0.75735l-13.956-1.2212c-0.46855-0.041-0.84722-0.46808-0.84722-0.95742v-6.7182c0-0.48933 0.37867-0.83582 0.84722-0.77706zm-9.1916-11.048 15.091 2.5343c0.44222 0.07433 0.797 0.51454 0.797 0.9874v6.4921c0 0.47287-0.35478 0.8074-0.797 0.74986 0 0-15.091-1.9629-15.091-1.9629-0.508-0.06611-0.91856-0.5297-0.91856-1.0393v-6.9959c0-0.50957 0.41056-0.85083 0.91856-0.76552zm-9.896 8.6553 16.358 2.0507c0.478 0.0599 0.86144 0.50373 0.86144 0.99531v6.7488c0 0.49158-0.38344 0.85376-0.86144 0.81192l-16.358-1.4314c-0.55222-0.0483-0.99867-0.51514-0.99867-1.0465v-7.295c0-0.53135 0.44644-0.90314 0.99867-0.83392zm-22.657-2.8404s19.437 2.4367 19.437 2.4367c0.56444 0.07078 1.0169 0.55738 1.0169 1.0913v7.3311c0 0.53398-0.45244 0.92427-1.0169 0.87487l-19.437-1.7008c-0.66044-0.0578-1.1946-0.57248-1.1946-1.1537v-7.9801c0-0.58124 0.53411-0.98223 1.1946-0.89944zm11.788-9.3021 17.804 2.99c0.51878 0.08711 0.93467 0.56914 0.93467 1.0811v7.0291c0 0.51197-0.41589 0.87004-0.93467 0.80257l-17.804-2.3159c-0.60289-0.07844-1.0903-0.58887-1.0903-1.1442v-7.6236c0-0.55527 0.48744-0.92043 1.0903-0.81919zm-24.839-4.1714 21.321 3.5807c0.61678 0.10356 1.1112 0.63597 1.1112 1.1941v7.663c0 0.55817-0.49444 0.94319-1.1112 0.86296l-21.321-2.7734c-0.72711-0.09456-1.3153-0.6622-1.3153-1.2722v-8.3749c0-0.61001 0.58822-1.0023 1.3153-0.88019zm133.63 43.9-1.4826 1.5918-1.6469 0.98869-0.0544 1.9222-0.27523 2.3614 3.2403 0.60413 2.8558-1.9774-0.65978-3.9538zm40.829 2.417-2.9512 5.0827 2.5796 5.1069 6.0792 0.94372 0.25656-3.3851 3.6484-0.87705-4.4076-4.6027zm-26.895 22.645-3.4168 2.1377-3.4237 0.97959-1.0183 3.4135-1.6237 4.0929 5.509 2.6347 6.0578-2.1685 0.716-7.3908zm8.8301-19.766-6.7573 3.8595-2.178 11.77 7.8093 5.4512-3.0179 11.299 7.8402 2.7161 18.729-0.45279 5.2269-5.4322 0.96445-8.7093-8.2414-8.9276-9.0723-2.1152zm-21.9 7.346-7.8271 0.39845-6.2968 3.0178 2.3544 6.8334 6.826 1.7081 5.7677-4.8968-2.9432-2.9616zm-20.098 8.8535-4.0546 4.3557-4.5068 2.7042-0.14911 5.256-0.75211 6.4588 8.8629 1.652 7.8092-5.4065-1.8026-10.814zm30.103-23.195-2.2824 2.4519-2.537 1.5223-0.0845 2.9587-0.42311 3.6358 4.9889 0.92992 4.3962-3.0434-1.0147-6.0872zm-15.335 28.593-2.4324 2.6118-2.7043 1.6221-0.0889 3.1534-0.45067 3.8728 5.3161 0.99118 4.6847-3.2433-1.0817-6.4861z"/>
</svg>
