<svg version="1.1" viewBox="0 0 810 530" xmlns="http://www.w3.org/2000/svg">
  <path id="buildings" d="m19.264 2.0254c-6.1609 0.26007-12.031 3.9141-14.977 9.3317-1.7793 3.1153-2.4353 6.7524-2.2863 10.31 0.00506 69.455-0.010114 138.91 0.00759 208.36 0.010172 6.3369 3.6395 12.5 9.1761 15.582 3.1518 1.8509 6.8598 2.5395 10.484 2.3859 69.455-5e-3 138.91 0.0101 208.36-8e-3 6.3369-0.0102 12.5-3.6395 15.582-9.176 1.8509-3.1518 2.5395-6.8598 2.3859-10.484-5e-3 -69.455 0.0101-138.91-8e-3 -208.36-0.0097649-6.3365-3.6391-12.5-9.1756-15.581-3.1518-1.8509-6.8598-2.5395-10.484-2.3859-69.455 0.00506-138.91-0.010114-208.36 0.00759-0.23467 0.00594-0.46934 0.01187-0.704 0.017806z" fill="#fff" stop-color="#000000"/>
  <path d="m119.72 209.63c-1.3321 0-2.3198 0.40732-2.9629 1.2227-0.44786 0.57418-0.82666 1.7635-1.1367 3.5664l-0.44922 2.5996h-2.291l-0.41211 2.4121h2.291l-2.7227 15.883h2.5664l2.7051-15.883h2.8594l0.41406-2.4121h-2.8594l0.34375-1.9629c0.19522-1.1254 0.41923-1.8442 0.67187-2.1543 0.26413-0.31006 0.64902-0.46484 1.1543-0.46484 0.57418 0 1.2972 0.13846 2.1699 0.41406l0.46485-2.7226c-1.2402-0.33303-2.175-0.49805-2.8066-0.49805zm-45.199 0.42969-4.3242 25.254h15.795l0.5-2.8613h-13.039l1.5156-8.7832h11.852l0.48242-2.877h-11.852l1.3438-7.8555h12.195l0.48242-2.877h-14.951zm28.404 0-1.6875 9.8359c-0.94166-2.1934-2.3386-3.2891-4.1875-3.2891-1.1139 0-2.232 0.44193-3.3574 1.3262-1.1254 0.88424-2.0743 2.261-2.8438 4.1328-0.7694 1.8604-1.1543 3.9111-1.1543 6.1504 0 2.5034 0.48264 4.3811 1.4473 5.6328 0.96463 1.2517 2.1356 1.877 3.5137 1.877 1.6077 0 3.1351-1.0223 4.582-3.0664l-0.44726 2.6543h2.3594l4.3242-25.254h-2.5488zm6.5625 0-0.60351 3.5312h2.5508l0.60156-3.5312h-2.5488zm15.605 0-2.6523 4.7383h2.1191l3.7559-4.7383h-3.2227zm21.395 0-0.60156 3.5312h2.5488l0.60156-3.5312h-2.5488zm-10.111 6.5469c-1.424 0-2.7212 0.42974-3.8926 1.291-1.1598 0.86127-2.1251 2.246-2.8945 4.1523-0.75792 1.9063-1.1367 4.0243-1.1367 6.3555 0 2.3771 0.51725 4.1916 1.5508 5.4434 1.045 1.2517 2.3606 1.877 3.9453 1.877 1.4699 0 2.8018-0.54991 3.9961-1.6523 1.1943-1.1139 2.1128-2.8144 2.7558-5.0996l-2.5664-0.32813c-0.42489 1.5733-1.0175 2.7462-1.7754 3.5156s-1.5501 1.1523-2.377 1.1523c-0.80386 0-1.4983-0.3788-2.084-1.1367-0.57419-0.7694-0.86133-1.8875-0.86133-3.3574 0-1.9752 0.26472-3.7734 0.79297-5.3926 0.53973-1.6307 1.1711-2.7446 1.8945-3.3418 0.73496-0.60864 1.5557-0.91211 2.4629-0.91211 0.81534 0 1.4996 0.32176 2.0508 0.96484 0.5627 0.6316 0.84375 1.544 0.84375 2.7383l2.5137-0.20703c0.01148-1.8833-0.46921-3.3639-1.4453-4.4434-0.97611-1.0795-2.2346-1.6191-3.7734-1.6191zm20.93 0c-2.492 0-4.4795 1.1364-5.9609 3.4102s-2.2207 5.0577-2.2207 8.3535c0 2.2738 0.57844 4.072 1.7383 5.3926 1.1598 1.3091 2.6302 1.9629 4.4102 1.9629 1.3551 0 2.6482-0.44193 3.877-1.3262 1.2402-0.89573 2.2443-2.2337 3.0137-4.0137 0.78088-1.78 1.1719-3.8002 1.1719-6.0625 0-2.469-0.5682-4.371-1.7051-5.7031-1.1369-1.3436-2.5787-2.0137-4.3242-2.0137zm15.105 0c-1.6077 0-2.905 0.49288-3.8926 1.4805-0.98759 0.98759-1.4805 2.2461-1.4805 3.7734 0 0.74644 0.13236 1.4226 0.39648 2.0312 0.26413 0.59714 0.63073 1.1083 1.1016 1.5332 0.48232 0.41341 1.47 1.0101 2.9629 1.791 1.2977 0.67753 2.1428 1.2518 2.5332 1.7226 0.37896 0.47083 0.56836 1.0003 0.56836 1.5859 0 0.81534-0.30543 1.4874-0.91407 2.0156-0.60863 0.51676-1.4354 0.77343-2.4805 0.77343-1.1484 0-2.0546-0.36661-2.7207-1.1016-0.66603-0.73495-0.99389-1.8489-0.98242-3.3418l-2.5664 0.18946v0.34375c0 2.0096 0.54578 3.5675 1.6367 4.6699 1.091 1.1024 2.594 1.6523 4.5117 1.6523 1.9063 0 3.3949-0.54577 4.4629-1.6367 1.0795-1.0909 1.6191-2.3943 1.6191-3.9102 0-1.3666-0.40317-2.5254-1.207-3.4785-0.52825-0.60863-1.7624-1.4252-3.7031-2.4473-1.2632-0.65457-2.0493-1.176-2.3594-1.5664-0.31006-0.37896-0.46484-0.83308-0.46484-1.3613 0-0.60863 0.25862-1.1422 0.77539-1.6016 0.51676-0.47083 1.1868-0.70703 2.0137-0.70703 1.0565 0 1.8955 0.31152 2.5156 0.93164 0.63159 0.62012 0.96554 1.504 1 2.6523l2.5137-0.20703c-0.04594-1.8259-0.58562-3.2433-1.6191-4.2539-1.0335-1.022-2.4407-1.5332-4.2207-1.5332zm-64.113 0.41211-3.1348 18.295h2.5508l3.1348-18.295h-2.5508zm15.383 0-3.1348 18.295h2.5488l3.1367-18.295h-2.5508zm21.619 0-3.1348 18.295h2.5488l3.1348-18.295h-2.5488zm11.92 1.998c1.0106 0 1.8598 0.45411 2.5488 1.3613 0.68902 0.89572 1.0332 2.2174 1.0332 3.9629 0 1.6077-0.30348 3.1738-0.91211 4.7012-0.60864 1.5273-1.3214 2.625-2.1367 3.291-0.81534 0.65457-1.63 0.98047-2.4453 0.98047-1.0335 0-1.895-0.44193-2.584-1.3262s-1.0332-2.1918-1.0332-3.9258c0-1.6996 0.28105-3.3023 0.84375-4.8066 0.57419-1.5158 1.2747-2.6013 2.1016-3.2559 0.83831-0.65457 1.6997-0.98242 2.584-0.98242zm-60.031 0.15625c0.88424 0 1.6479 0.40122 2.291 1.2051 0.64309 0.80385 0.96485 1.9402 0.96485 3.4102 0 2.8594-0.62719 5.2707-1.8789 7.2344-0.95314 1.4699-2.002 2.2051-3.1504 2.2051-0.88424 0-1.597-0.37271-2.1367-1.1191-0.7005-0.96463-1.0508-2.2049-1.0508-3.7207l0.017578-0.74023c0-1.0335 0.23011-2.3206 0.68945-3.8594 0.45935-1.5388 1.0663-2.6915 1.8242-3.4609 0.75792-0.7694 1.5684-1.1543 2.4297-1.1543z" stroke-width="1.3229" style="font-variant-caps:normal;font-variant-east-asian:normal;font-variant-ligatures:normal;font-variant-numeric:normal;text-orientation:upright"/>
  <path id="green_area" d="m299.26 2.0254c-6.1609 0.26007-12.031 3.9141-14.977 9.3317-1.7793 3.1153-2.4353 6.7524-2.2863 10.31 5e-3 69.455-0.0101 138.91 8e-3 208.36 0.0102 6.3369 3.6395 12.5 9.176 15.582 3.1518 1.8509 6.8598 2.5395 10.484 2.3859 69.455-5e-3 138.91 0.0101 208.36-8e-3 6.3369-0.0102 12.5-3.6395 15.582-9.176 1.8509-3.1518 2.5395-6.8598 2.3859-10.484-5e-3 -69.455 0.0101-138.91-8e-3 -208.36-0.01017-6.3365-3.6395-12.5-9.176-15.581-3.1518-1.8509-6.8598-2.5395-10.484-2.3859-69.455 0.00506-138.91-0.010114-208.36 0.00759-0.23466 0.00594-0.46933 0.01187-0.704 0.017806z" fill="#fff" stop-color="#000000"/>
  <path d="m334.42 210.06-0.5 2.877h9.0449c0.50528 0 1.1936-0.06922 2.0664-0.20703-0.39045 0.51677-0.80385 1.0972-1.2402 1.7402l-12.541 18.311-0.25781 2.5332h15.348l0.5-2.877h-10.697c-0.48232 0-0.94667 0.03462-1.3945 0.10352l2.6016-3.7383 11.109-16.105 0.24219-2.6367h-14.281zm124.99 0-1.6875 9.8359c-0.94166-2.1934-2.3367-3.2891-4.1855-3.2891-1.1139 0-2.234 0.44193-3.3594 1.3262s-2.0724 2.261-2.8418 4.1328c-0.7694 1.8604-1.1543 3.9111-1.1543 6.1504 0 2.5034 0.48264 4.3811 1.4473 5.6328 0.96464 1.2517 2.1356 1.877 3.5137 1.877 1.6077 0 3.1351-1.0223 4.582-3.0664l-0.44727 2.6543h2.3594l4.3223-25.254h-2.5488zm-101.82 6.5469c-2.492 0-4.4776 1.1364-5.959 3.4102-1.4814 2.2738-2.2227 5.0577-2.2227 8.3535 0 2.2738 0.58038 4.072 1.7402 5.3926 1.1598 1.3091 2.6302 1.9629 4.4102 1.9629 1.3551 0 2.6462-0.44193 3.875-1.3262 1.2402-0.89573 2.2443-2.2337 3.0137-4.0137 0.78089-1.78 1.1719-3.8002 1.1719-6.0625 0-2.469-0.5682-4.371-1.7051-5.7031-1.1369-1.3436-2.5787-2.0137-4.3242-2.0137zm17.916 0c-0.82683 0-1.6822 0.26277-2.5664 0.79102-0.88424 0.51676-1.8678 1.4535-2.9473 2.8086l0.53516-3.1875h-2.3086l-3.1348 18.295h2.5488l1.4648-8.5098c0.48232-2.8135 1.2338-4.7889 2.2559-5.9258 1.0335-1.1369 2.1943-1.7051 3.4805-1.7051 0.62012 0 1.1069 0.1833 1.4629 0.55078 0.36748 0.35599 0.55274 0.84887 0.55274 1.4805 0 0.53973-0.09775 1.3787-0.29297 2.5156l-1.998 11.594h2.5664l1.8945-11.076c0.25264-1.4469 0.3789-2.4936 0.3789-3.1367 0-1.4355-0.36246-2.5433-1.0859-3.3242-0.71199-0.78088-1.6468-1.1699-2.8066-1.1699zm14.348 0c-3.491 0-5.7821 1.8716-6.873 5.6152l2.584 0.27539c0.63161-2.2278 2.0103-3.3418 4.1348-3.3418 1.0565 0 1.8609 0.23425 2.4121 0.70508 0.5627 0.45934 0.84374 1.0743 0.84374 1.8438 0 0.55121-0.10384 1.264-0.31054 2.1367-0.37896 0.18374-0.83917 0.32024-1.3789 0.41211-0.52824 0.09187-1.5098 0.17938-2.9453 0.25976-1.6996 0.08038-3.009 0.35534-3.9277 0.82617-0.9072 0.45935-1.6119 1.1253-2.1172 1.998-0.50529 0.87275-0.75782 1.8951-0.75782 3.0664 0 1.6422 0.43584 2.9394 1.3086 3.8926 0.88424 0.95314 1.9921 1.4297 3.3242 1.4297 0.84979 0 1.6888-0.19963 2.5156-0.60156 0.82683-0.40193 1.7107-1.0983 2.6524-2.0859 0.05742 0.94166 0.16126 1.7012 0.31054 2.2754h2.5664c-0.19522-1.0335-0.29297-1.8664-0.29297-2.498 0-0.89573 0.13236-2.0667 0.39649-3.5137l0.82617-4.5488c0.22967-1.2977 0.34375-2.428 0.34375-3.3926 0-1.3666-0.50507-2.4988-1.5156-3.3945-1.0106-0.90721-2.3771-1.3594-4.0996-1.3594zm38.533 0c-1.3666 0-2.6353 0.42974-3.8066 1.291-1.1713 0.84978-2.1651 2.2041-2.9805 4.0644-0.80386 1.8604-1.2051 3.8643-1.2051 6.0117 0 1.6307 0.26472 3.0379 0.79297 4.2207 0.52824 1.1713 1.239 2.0552 2.1348 2.6524 0.89573 0.58566 1.8895 0.8789 2.9805 0.8789 1.5388 0 2.9338-0.55601 4.1856-1.6699 1.5044-1.3206 2.4635-2.8724 2.877-4.6523l-2.498-0.3086c-0.47082 1.3206-1.1307 2.3308-1.9805 3.0312-0.83831 0.70051-1.6936 1.0508-2.5664 1.0508-0.91869 0-1.7048-0.44192-2.3594-1.3262-0.65456-0.89572-0.98242-2.2052-0.98242-3.9277 0-0.28709 0.01632-0.61494 0.05078-0.98242h11.061c0.12632-0.94166 0.18945-1.8601 0.18945-2.7559 0-2.4116-0.55186-4.277-1.6543-5.5977-1.091-1.3206-2.5042-1.9805-4.2383-1.9805zm16.881 0c-1.5158 0-3.0249 1.3828-4.5293 4.1504l0.63672-3.7383h-2.2559l-3.1348 18.295h2.4277l1.2754-7.3398c0.52824-3.1236 1.2573-5.2986 2.1875-6.5273 0.94166-1.2402 1.8826-1.8613 2.8242-1.8613 0.49379 0 0.96619 0.19549 1.4141 0.58594l1.0508-2.8926c-0.74643-0.44786-1.3797-0.67188-1.8965-0.67188zm25.012 0c-1.3666 0-2.6353 0.42974-3.8066 1.291-1.1713 0.84978-2.1651 2.2041-2.9805 4.0644-0.80386 1.8604-1.2051 3.8643-1.2051 6.0117 0 1.6307 0.26471 3.0379 0.79296 4.2207 0.52825 1.1713 1.239 2.0552 2.1348 2.6524 0.89572 0.58566 1.8895 0.8789 2.9805 0.8789 1.5388 0 2.9338-0.55601 4.1856-1.6699 1.5044-1.3206 2.4635-2.8724 2.877-4.6523l-2.498-0.3086c-0.47082 1.3206-1.1307 2.3308-1.9805 3.0312-0.8383 0.70051-1.6936 1.0508-2.5664 1.0508-0.9187 0-1.7048-0.44192-2.3594-1.3262-0.65456-0.89572-0.98242-2.2052-0.98242-3.9277 0-0.28709 0.01632-0.61494 0.05078-0.98242h11.059c0.12632-0.94166 0.1914-1.8601 0.1914-2.7559 0-2.4116-0.55186-4.277-1.6543-5.5977-1.0909-1.3206-2.5042-1.9805-4.2383-1.9805zm-63.578 0.41211 2.4629 18.295h2.8418l8.5781-18.295h-2.7051l-4.9941 11.008c-0.7694 1.6651-1.4007 3.1518-1.8945 4.4609-0.20671-2.446-0.37977-4.2423-0.51758-5.3906l-1.291-10.078h-2.4805zm-49.197 1.998c1.0106 0 1.8618 0.45411 2.5508 1.3613 0.68902 0.89572 1.0332 2.2174 1.0332 3.9629 0 1.6077-0.30543 3.1738-0.91406 4.7012-0.60864 1.5273-1.3194 2.625-2.1348 3.291-0.81534 0.65457-1.6319 0.98047-2.4473 0.98047-1.0335 0-1.895-0.44193-2.584-1.3262s-1.0332-2.1918-1.0332-3.9258c0-1.6996 0.28105-3.3023 0.84375-4.8066 0.57418-1.5158 1.2747-2.6013 2.1016-3.2559 0.83831-0.65457 1.6997-0.98242 2.584-0.98242zm70.936 0.01758c0.99908 0 1.8198 0.40731 2.4629 1.2226 0.64309 0.81534 0.96484 2.0392 0.96484 3.6699v0.63672h-8.4238c0.44786-1.8489 1.1199-3.2317 2.0156-4.1504 0.90721-0.91869 1.901-1.3789 2.9805-1.3789zm41.893 0c0.99907 0 1.8198 0.40731 2.4629 1.2226s0.96484 2.0392 0.96484 3.6699v0.63672h-8.4238c0.44787-1.8489 1.1199-3.2317 2.0156-4.1504 0.90721-0.91869 1.901-1.3789 2.9805-1.3789zm-16.658 0.13867c0.88424 0 1.6479 0.40122 2.291 1.2051 0.64309 0.80385 0.96484 1.9402 0.96484 3.4102 0 2.8594-0.62523 5.2707-1.877 7.2344-0.95314 1.4699-2.004 2.2051-3.1523 2.2051-0.88425 0-1.597-0.37271-2.1367-1.1191-0.70051-0.96463-1.0508-2.2049-1.0508-3.7207l0.01758-0.74023c0-1.0335 0.2301-2.3206 0.68945-3.8594 0.45935-1.5388 1.0682-2.6915 1.8262-3.4609 0.75792-0.7694 1.5665-1.1543 2.4277-1.1543zm-61.408 6.873c-0.28709 1.9292-0.67198 3.3691-1.1543 4.3223-0.47083 0.95315-1.0858 1.6822-1.8438 2.1875-0.75792 0.50528-1.544 0.75781-2.3594 0.75781-0.86127 0-1.5496-0.26886-2.0664-0.80859-0.51676-0.53973-0.77539-1.2749-0.77539-2.2051 0-0.67753 0.16089-1.2742 0.48243-1.791 0.32154-0.51677 0.76956-0.90166 1.3437-1.1543s1.6311-0.46032 3.1699-0.62109c1.5044-0.16077 2.5715-0.38892 3.2031-0.6875z" stroke-width="1.3229" style="font-variant-caps:normal;font-variant-east-asian:normal;font-variant-ligatures:normal;font-variant-numeric:normal;text-orientation:upright"/>
  <path id="road" d="m579.26 2.0254c-6.1609 0.26007-12.031 3.9141-14.977 9.3317-1.7793 3.1153-2.4353 6.7524-2.2863 10.31 5e-3 69.455-0.0101 138.91 8e-3 208.36 0.0102 6.3369 3.6395 12.5 9.176 15.582 3.1518 1.8509 6.8598 2.5395 10.484 2.3859 69.455-5e-3 138.91 0.0101 208.36-8e-3 6.3369-0.0102 12.5-3.6395 15.582-9.176 1.8509-3.1518 2.5395-6.8598 2.3859-10.484-5e-3 -69.455 0.0101-138.91-8e-3 -208.36-0.01017-6.3365-3.6395-12.5-9.176-15.581-3.1518-1.8509-6.8598-2.5395-10.484-2.3859-69.455 0.00506-138.91-0.010114-208.36 0.00759-0.23466 0.00594-0.46933 0.01187-0.704 0.017806z" fill="#fff" stop-color="#000000"/>
  <path d="m639.31 210.06-4.3223 25.254h15.795l0.5-2.8613h-13.039l1.5156-8.7832h11.85l0.48242-2.877h-11.85l1.3438-7.8555h12.195l0.48242-2.877h-14.953zm76.705 0-1.6875 9.8359c-0.94165-2.1934-2.3367-3.2891-4.1855-3.2891-1.1139 0-2.234 0.44193-3.3594 1.3262s-2.0724 2.261-2.8418 4.1328c-0.7694 1.8604-1.1543 3.9111-1.1543 6.1504 0 2.5034 0.48264 4.3811 1.4473 5.6328 0.96462 1.2517 2.1356 1.877 3.5137 1.877 1.6077 0 3.1351-1.0223 4.582-3.0664l-0.44727 2.6543h2.3594l4.3242-25.254h-2.5508zm-40.652 0.31054-2.9277 2.1524-0.77539 4.4961h-2.0156l-0.41211 2.4121h2.0156l-1.8086 10.629c-0.25264 1.4469-0.3789 2.3715-0.3789 2.7734 0 0.84979 0.27496 1.526 0.82617 2.0312 0.5627 0.50529 1.3203 0.75782 2.2734 0.75782 0.57418 0 1.1648-0.09775 1.7734-0.29297l0.44922-2.5488c-0.44786 0.13781-0.95292 0.20703-1.5156 0.20703-0.37896 0-0.66197-0.09165-0.84571-0.27539-0.18373-0.18374-0.27539-0.47698-0.27539-0.87891 0-0.22967 0.10994-0.99336 0.32813-2.291l1.7402-10.111h2.498l0.41211-2.4121h-2.498l1.1367-6.6484zm-13.814 6.2363c-1.6077 0-2.905 0.49288-3.8926 1.4805-0.98759 0.98759-1.4805 2.2461-1.4805 3.7734 0 0.74644 0.13041 1.4226 0.39453 2.0312 0.26412 0.59714 0.63268 1.1083 1.1035 1.5332 0.48231 0.41341 1.47 1.0101 2.9629 1.791 1.2976 0.67753 2.1408 1.2518 2.5312 1.7226 0.37896 0.47083 0.56836 1.0003 0.56836 1.5859 0 0.81534-0.30348 1.4874-0.91211 2.0156-0.60863 0.51676-1.4355 0.77343-2.4805 0.77343-1.1484 0-2.0566-0.36661-2.7227-1.1016-0.66603-0.73495-0.99193-1.8489-0.98047-3.3418l-2.5664 0.18946v0.34375c0 2.0096 0.54382 3.5675 1.6348 4.6699 1.091 1.1024 2.5959 1.6523 4.5137 1.6523 1.9063 0 3.393-0.54577 4.4609-1.6367 1.0795-1.0909 1.6191-2.3943 1.6191-3.9102 0-1.3666-0.40122-2.5254-1.2051-3.4785-0.52826-0.60863-1.7624-1.4252-3.7031-2.4473-1.2632-0.65457-2.0493-1.176-2.3594-1.5664-0.31006-0.37896-0.4668-0.83308-0.4668-1.3613 0-0.60863 0.25863-1.1422 0.77539-1.6016 0.51677-0.47083 1.1888-0.70703 2.0156-0.70703 1.0565 0 1.8955 0.31152 2.5156 0.93164 0.63158 0.62012 0.96358 1.504 0.99805 2.6523l2.5156-0.20703c-0.04594-1.8259-0.58561-3.2433-1.6191-4.2539-1.0335-1.022-2.4407-1.5332-4.2207-1.5332zm24.203 0c-1.5158 0-3.0269 1.3828-4.5312 4.1504l0.63672-3.7383h-2.2559l-3.1348 18.295h2.4277l1.2754-7.3398c0.52825-3.1236 1.2573-5.2986 2.1875-6.5273 0.94166-1.2402 1.8845-1.8613 2.8262-1.8613 0.4938 0 0.96425 0.19549 1.4121 0.58594l1.0508-2.8926c-0.74644-0.44786-1.3778-0.67188-1.8945-0.67188zm9.0078 0c-3.491 0-5.7821 1.8716-6.873 5.6152l2.584 0.27539c0.6316-2.2278 2.0103-3.3418 4.1348-3.3418 1.0565 0 1.8609 0.23425 2.4121 0.70508 0.5627 0.45934 0.84375 1.0743 0.84375 1.8438 0 0.55121-0.10384 1.264-0.31055 2.1367-0.37896 0.18374-0.83917 0.32024-1.3789 0.41211-0.52825 0.09187-1.5099 0.17938-2.9453 0.25976-1.6996 0.08038-3.009 0.35534-3.9277 0.82617-0.90722 0.45935-1.6119 1.1253-2.1172 1.998-0.50528 0.87275-0.75781 1.8951-0.75781 3.0664 0 1.6422 0.43583 2.9394 1.3086 3.8926 0.88424 0.95314 1.9921 1.4297 3.3242 1.4297 0.84979 0 1.6888-0.19963 2.5156-0.60156 0.82682-0.40193 1.7107-1.0983 2.6523-2.0859 0.05742 0.94166 0.16126 1.7012 0.31055 2.2754h2.5664c-0.19522-1.0335-0.29297-1.8664-0.29297-2.498 0-0.89573 0.13237-2.0667 0.39649-3.5137l0.82617-4.5488c0.22967-1.2977 0.34375-2.428 0.34375-3.3926 0-1.3666-0.50506-2.4988-1.5156-3.3945-1.0106-0.90721-2.3771-1.3594-4.0996-1.3594zm32.246 0c-3.491 0-5.7821 1.8716-6.873 5.6152l2.584 0.27539c0.6316-2.2278 2.0103-3.3418 4.1348-3.3418 1.0565 0 1.8609 0.23425 2.4121 0.70508 0.5627 0.45934 0.84375 1.0743 0.84375 1.8438 0 0.55121-0.10384 1.264-0.31054 2.1367-0.37897 0.18374-0.83918 0.32024-1.3789 0.41211-0.52825 0.09187-1.5098 0.17938-2.9453 0.25976-1.6996 0.08038-3.009 0.35534-3.9277 0.82617-0.90721 0.45935-1.6119 1.1253-2.1172 1.998-0.50528 0.87275-0.75781 1.8951-0.75781 3.0664 0 1.6422 0.43584 2.9394 1.3086 3.8926 0.88424 0.95314 1.9921 1.4297 3.3242 1.4297 0.84979 0 1.6888-0.19963 2.5156-0.60156 0.82682-0.40193 1.7107-1.0983 2.6523-2.0859 0.05742 0.94166 0.16126 1.7012 0.31055 2.2754h2.5664c-0.19522-1.0335-0.29297-1.8664-0.29297-2.498 0-0.89573 0.13236-2.0667 0.39648-3.5137l0.82617-4.5488c0.22968-1.2977 0.34375-2.428 0.34375-3.3926 0-1.3666-0.50505-2.4988-1.5156-3.3945-1.0106-0.90721-2.3771-1.3594-4.0996-1.3594zm-16.727 2.5664c0.88424 0 1.6479 0.40122 2.291 1.2051 0.64309 0.80385 0.96485 1.9402 0.96485 3.4102 0 2.8594-0.62524 5.2707-1.877 7.2344-0.95314 1.4699-2.004 2.2051-3.1523 2.2051-0.88424 0-1.597-0.37271-2.1367-1.1191-0.70051-0.96463-1.0508-2.2049-1.0508-3.7207l0.01758-0.74023c0-1.0335 0.2301-2.3206 0.68945-3.8594 0.45935-1.5388 1.0682-2.6915 1.8262-3.4609 0.75792-0.7694 1.5665-1.1543 2.4277-1.1543zm-13.107 6.873c-0.2871 1.9292-0.67199 3.3691-1.1543 4.3223-0.47084 0.95315-1.0858 1.6822-1.8438 2.1875s-1.544 0.75781-2.3594 0.75781c-0.86127 0-1.5496-0.26886-2.0664-0.80859-0.51677-0.53973-0.77539-1.2749-0.77539-2.2051 0-0.67753 0.16087-1.2742 0.48242-1.791 0.32154-0.51677 0.76956-0.90166 1.3438-1.1543 0.57418-0.25264 1.6292-0.46032 3.168-0.62109 1.5044-0.16077 2.5735-0.38892 3.2051-0.6875zm32.246 0c-0.28709 1.9292-0.67198 3.3691-1.1543 4.3223-0.47083 0.95315-1.0858 1.6822-1.8438 2.1875s-1.544 0.75781-2.3594 0.75781c-0.86128 0-1.5496-0.26886-2.0664-0.80859s-0.77539-1.2749-0.77539-2.2051c0-0.67753 0.16088-1.2742 0.48242-1.791 0.32154-0.51677 0.76957-0.90166 1.3438-1.1543s1.6292-0.46032 3.168-0.62109c1.5044-0.16077 2.5735-0.38892 3.2051-0.6875z" stroke-width="1.3229" style="font-variant-caps:normal;font-variant-east-asian:normal;font-variant-ligatures:normal;font-variant-numeric:normal;text-orientation:upright"/>
  <path id="railroad" d="m19.264 282.03c-6.1609 0.26007-12.031 3.9141-14.977 9.3317-1.7793 3.1153-2.4353 6.7524-2.2863 10.31 0.00506 69.455-0.010114 138.91 0.00759 208.36 0.010172 6.3369 3.6395 12.5 9.1761 15.582 3.1518 1.8509 6.8598 2.5395 10.484 2.3859 69.455-5e-3 138.91 0.0101 208.36-8e-3 6.3369-0.0102 12.5-3.6395 15.582-9.176 1.8509-3.1518 2.5395-6.8598 2.3859-10.484-5e-3 -69.455 0.0101-138.91-8e-3 -208.36-0.0102-6.3369-3.6395-12.5-9.176-15.582-3.1518-1.8509-6.8598-2.5395-10.484-2.3859-69.455 5e-3 -138.91-0.0101-208.36 8e-3 -0.23467 6e-3 -0.46934 0.0119-0.704 0.0178z" fill="#fff" stop-color="#000000"/>
  <path d="m76.107 490.06-4.3242 25.254h2.7734l1.9648-11.455h10.885l0.48242-2.877h-10.885l1.377-8.0449h10.697l0.48242-2.877h-13.453zm83.268 0-0.60352 3.5312h2.5508l0.60156-3.5312h-2.5488zm-61.701 6.5469c-1.3666 0-2.6353 0.42974-3.8066 1.291-1.1713 0.84978-2.1651 2.2041-2.9805 4.0644-0.80386 1.8604-1.2051 3.8643-1.2051 6.0117 0 1.6307 0.26277 3.0379 0.79102 4.2207 0.52825 1.1713 1.241 2.0552 2.1367 2.6524 0.89572 0.58566 1.8895 0.8789 2.9805 0.8789 1.5388 0 2.9338-0.55601 4.1855-1.6699 1.5044-1.3206 2.4635-2.8724 2.8769-4.6523l-2.498-0.3086c-0.47084 1.3206-1.1307 2.3308-1.9805 3.0312-0.83831 0.70051-1.6936 1.0508-2.5664 1.0508-0.91869 0-1.7068-0.44192-2.3613-1.3262-0.65457-0.89572-0.98047-2.2052-0.98047-3.9277 0-0.2871 0.016328-0.61495 0.050781-0.98242h11.059c0.12632-0.94166 0.18945-1.8601 0.18945-2.7559 0-2.4116-0.55186-4.277-1.6543-5.5977-1.091-1.3206-2.5023-1.9805-4.2363-1.9805zm16.881 0c-1.5158 0-3.0269 1.3828-4.5312 4.1504l0.63867-3.7383h-2.2578l-3.1348 18.295h2.4297l1.2734-7.3398c0.52824-3.1236 1.2593-5.2986 2.1894-6.5273 0.94166-1.2402 1.8826-1.8613 2.8242-1.8613 0.49379 0 0.96424 0.1955 1.4121 0.58594l1.0508-2.8926c-0.74643-0.44786-1.3778-0.67188-1.8945-0.67188zm9.6465 0c-1.5158 0-3.0269 1.3828-4.5312 4.1504l0.63867-3.7383h-2.2578l-3.1348 18.295h2.4297l1.2734-7.3398c0.52825-3.1236 1.2573-5.2986 2.1875-6.5273 0.94166-1.2402 1.8845-1.8613 2.8262-1.8613 0.4938 0 0.96425 0.1955 1.4121 0.58594l1.0508-2.8926c-0.74644-0.44786-1.3778-0.67188-1.8945-0.67188zm8.9922 0c-2.492 0-4.4795 1.1364-5.9609 3.4102-1.4814 2.2738-2.2226 5.0577-2.2226 8.3535 0 2.2738 0.58038 4.072 1.7402 5.3926 1.1598 1.3091 2.6302 1.9629 4.4102 1.9629 1.3551 0 2.6462-0.44193 3.875-1.3262 1.2402-0.89573 2.2462-2.2337 3.0156-4.0137 0.78089-1.78 1.1699-3.8002 1.1699-6.0625 0-2.469-0.56819-4.371-1.7051-5.7031-1.1369-1.3436-2.5768-2.0137-4.3223-2.0137zm37.018 0c-3.491 0-5.7821 1.8716-6.873 5.6152l2.584 0.27539c0.63159-2.2278 2.0083-3.3418 4.1328-3.3418 1.0565 0 1.8609 0.23425 2.4121 0.70508 0.5627 0.45934 0.84375 1.0743 0.84375 1.8438 0 0.55121-0.10384 1.264-0.31055 2.1367-0.37896 0.18374-0.83722 0.32024-1.377 0.41211-0.52825 0.09187-1.5099 0.17938-2.9453 0.25976-1.6996 0.08039-3.009 0.35534-3.9277 0.82617-0.90721 0.45935-1.6139 1.1253-2.1191 1.998-0.50528 0.87275-0.75781 1.8951-0.75781 3.0664 0 1.6422 0.43584 2.9394 1.3086 3.8926 0.88425 0.95314 1.9921 1.4297 3.3242 1.4297 0.84979 0 1.6888-0.20159 2.5156-0.60351 0.82683-0.40194 1.7107-1.0964 2.6524-2.084 0.05742 0.94166 0.16126 1.7012 0.31055 2.2754h2.5664c-0.19523-1.0335-0.29297-1.8664-0.29297-2.498 0-0.89573 0.13236-2.0667 0.39649-3.5137l0.82617-4.5488c0.22967-1.2977 0.3457-2.428 0.3457-3.3926 0-1.3666-0.50506-2.4988-1.5156-3.3945-1.0106-0.90721-2.3771-1.3594-4.0996-1.3594zm-28.217 0.41211 2.4648 18.295h2.8418l8.5781-18.295h-2.7051l-4.9941 11.008c-0.76941 1.6651-1.4027 3.1518-1.8965 4.4609-0.2067-2.446-0.37782-4.2423-0.51562-5.3906l-1.293-10.078h-2.4805zm16.193 0-3.1367 18.295h2.5508l3.1348-18.295h-2.5488zm-25.082 1.998c1.0106 0 1.8618 0.45411 2.5508 1.3613 0.68902 0.89572 1.0332 2.2174 1.0332 3.9629 0 1.6077-0.30347 3.1738-0.91211 4.7012-0.60863 1.5273-1.3214 2.625-2.1367 3.291-0.81534 0.65457-1.63 0.98047-2.4453 0.98047-1.0335 0-1.895-0.44193-2.584-1.3262-0.68902-0.88425-1.0352-2.1918-1.0352-3.9258 0-1.6996 0.28301-3.3023 0.84571-4.8066 0.57417-1.5158 1.2747-2.6013 2.1016-3.2559 0.8383-0.65457 1.6978-0.98242 2.582-0.98242zm-35.381 0.01758c0.99908 0 1.8218 0.40731 2.4648 1.2226 0.64309 0.81534 0.96289 2.0392 0.96289 3.6699v0.63672h-8.4219c0.44786-1.8489 1.1199-3.2317 2.0156-4.1504 0.90721-0.91869 1.8991-1.3789 2.9785-1.3789zm74.896 7.0117c-0.28709 1.9293-0.67198 3.3691-1.1543 4.3223-0.47083 0.95315-1.0839 1.6822-1.8418 2.1875-0.75793 0.50528-1.546 0.75781-2.3613 0.75781-0.86127 0-1.5496-0.26886-2.0664-0.80859-0.51677-0.53973-0.77539-1.2749-0.77539-2.2051 0-0.67753 0.16088-1.2742 0.48242-1.791 0.32154-0.51677 0.76957-0.90166 1.3438-1.1543s1.6311-0.46032 3.1699-0.62109c1.5044-0.16077 2.5715-0.38892 3.2031-0.6875z" stroke-width="1.3229" style="font-variant-caps:normal;font-variant-east-asian:normal;font-variant-ligatures:normal;font-variant-numeric:normal;text-orientation:upright"/>
  <path id="banks_overflow" d="m299.26 282.03c-6.1609 0.26007-12.031 3.9141-14.977 9.3317-1.7793 3.1153-2.4353 6.7524-2.2863 10.31 5e-3 69.455-0.0101 138.91 8e-3 208.36 0.0102 6.3369 3.6395 12.5 9.176 15.582 3.1518 1.8509 6.8598 2.5395 10.484 2.3859 69.455-5e-3 138.91 0.0101 208.36-8e-3 6.3369-0.0102 12.5-3.6395 15.582-9.176 1.8509-3.1518 2.5395-6.8598 2.3859-10.484-5e-3 -69.455 0.0101-138.91-8e-3 -208.36-0.0102-6.3369-3.6395-12.5-9.176-15.582-3.1518-1.8509-6.8598-2.5395-10.484-2.3859-69.455 5e-3 -138.91-0.0101-208.36 8e-3 -0.23466 6e-3 -0.46933 0.0119-0.704 0.0178z" fill="#fff" stop-color="#000000"/>
  <path d="m334.82 447.63c-2.0211 0-3.8642 0.58453-5.5293 1.7559s-3.054 3.0041-4.168 5.4961c-1.1139 2.4805-1.6719 5.2522-1.6719 8.3184 0 3.0432 0.70664 5.5644 2.1191 7.5625 1.4125 1.9867 3.5834 2.9805 6.5117 2.9805 1.3551 0 2.7623-0.26472 4.2207-0.79297 1.4699-0.52824 2.8018-1.2512 3.9961-2.1699l1.7559-10.283h-9.0781l-0.48243 2.8594h6.3047l-0.92969 5.4258c-2.0785 1.4469-4.0132 2.1699-5.8047 2.1699-1.757 1e-5 -3.1642-0.62523-4.2207-1.877-1.0565-1.2632-1.584-3.204-1.584-5.8223 0-2.6642 0.40732-4.9899 1.2227-6.9766 0.81534-1.9867 1.8601-3.457 3.1348-4.4102 1.2862-0.95314 2.6527-1.4297 4.0996-1.4297 1.4125 0 2.5835 0.44802 3.5137 1.3438 0.94166 0.89572 1.5628 2.2398 1.8613 4.0312l2.7207-0.36133c-0.37896-2.3656-1.0958-4.1394-2.1523-5.3223-1.4929-1.6651-3.4398-2.498-5.8398-2.498zm29.559 0.42969-4.3223 25.254h2.5664l4.3223-25.254h-2.5664zm97.859 0.31054-2.9297 2.1524-0.77539 4.4961h-2.0137l-0.41406 2.4121h2.0156l-1.8086 10.629c-0.25264 1.4469-0.3789 2.3715-0.3789 2.7734 0 0.84979 0.27495 1.526 0.82617 2.0312 0.56269 0.50529 1.3203 0.75782 2.2734 0.75782 0.57418 0 1.1668-0.09775 1.7754-0.29297l0.44726-2.5488c-0.44786 0.13781-0.95293 0.20703-1.5156 0.20703-0.37897 0-0.66002-0.09165-0.84375-0.27539-0.18374-0.18374-0.27735-0.47698-0.27735-0.87891 0-0.22967 0.10994-0.99336 0.32813-2.291l1.7402-10.111h2.498l0.41211-2.4121h-2.498l1.1387-6.6484zm-109.45 6.2363c-3.491 0-5.7821 1.8716-6.873 5.6152l2.584 0.27539c0.6316-2.2278 2.0083-3.3418 4.1328-3.3418 1.0565 0 1.8609 0.23425 2.4121 0.70508 0.5627 0.45934 0.84375 1.0743 0.84375 1.8438 0 0.55121-0.10188 1.264-0.30859 2.1367-0.37896 0.18374-0.83917 0.32024-1.3789 0.41211-0.52824 0.09187-1.5098 0.17938-2.9453 0.25976-1.6996 0.08039-3.009 0.35534-3.9277 0.82617-0.90722 0.45935-1.6139 1.1253-2.1192 1.998-0.50527 0.87275-0.75781 1.8951-0.75781 3.0664 0 1.6422 0.43584 2.9394 1.3086 3.8926 0.88424 0.95314 1.9941 1.4297 3.3262 1.4297 0.84978 0 1.6868-0.20159 2.5137-0.60351 0.82682-0.40194 1.7107-1.0964 2.6523-2.084 0.05742 0.94166 0.16126 1.7012 0.31055 2.2754h2.5664c-0.19522-1.0335-0.29297-1.8664-0.29297-2.498 0-0.89573 0.13236-2.0667 0.39648-3.5137l0.82813-4.5488c0.22967-1.2977 0.34375-2.428 0.34375-3.3926 0-1.3666-0.50506-2.4988-1.5156-3.3945-1.0106-0.90721-2.3771-1.3594-4.0996-1.3594zm21.859 0c-1.1484 0-2.2909 0.43584-3.4277 1.3086-1.1254 0.86127-2.0907 2.1768-2.8945 3.9453-0.79237 1.757-1.1894 3.6327-1.1894 5.6309 0 2.5379 0.51725 4.4787 1.5508 5.8223 1.045 1.3321 2.3077 2 3.7891 2 1.4929 0 2.9062-0.82267 4.2383-2.4648l-0.25781 1.4824c-0.39044 2.2508-0.82823 3.709-1.3106 4.375-0.68901 0.90721-1.7725 1.3613-3.2539 1.3613-0.95315 0-1.6537-0.20159-2.1016-0.60352-0.44787-0.40192-0.67188-0.99864-0.67188-1.791v-0.41406l-2.584-0.29297c-0.04594 0.34451-0.07032 0.65408-0.07032 0.92968 0 1.4699 0.47241 2.6246 1.4141 3.4629 0.95314 0.84979 2.3828 1.2754 4.2891 1.2754 2.0096 0 3.6002-0.73518 4.7715-2.2051 0.93018-1.1713 1.6246-3.0897 2.084-5.7539l3.0137-17.656h-2.3242l-0.51758 2.998c-1.068-2.2738-2.5832-3.4102-4.5469-3.4102zm16.795 0c-3.491 0-5.7821 1.8716-6.873 5.6152l2.584 0.27539c0.6316-2.2278 2.0083-3.3418 4.1328-3.3418 1.0565 0 1.8609 0.23425 2.4121 0.70508 0.5627 0.45934 0.84375 1.0743 0.84375 1.8438 0 0.55121-0.10384 1.264-0.31055 2.1367-0.37896 0.18374-0.83722 0.32024-1.377 0.41211-0.52825 0.09187-1.5099 0.17938-2.9453 0.25976-1.6996 0.08039-3.009 0.35534-3.9277 0.82617-0.90721 0.45935-1.6139 1.1253-2.1191 1.998-0.50528 0.87275-0.75781 1.8951-0.75781 3.0664 0 1.6422 0.43583 2.9394 1.3086 3.8926 0.88424 0.95314 1.9921 1.4297 3.3242 1.4297 0.84979 0 1.6888-0.20159 2.5156-0.60351 0.82682-0.40194 1.7107-1.0964 2.6523-2.084 0.05742 0.94166 0.16126 1.7012 0.31055 2.2754h2.5664c-0.19522-1.0335-0.29296-1.8664-0.29296-2.498 0-0.89573 0.13236-2.0667 0.39648-3.5137l0.82617-4.5488c0.22967-1.2977 0.3457-2.428 0.3457-3.3926 0-1.3666-0.50505-2.4988-1.5156-3.3945-1.0106-0.90721-2.3771-1.3594-4.0996-1.3594zm17.586 0c-0.83831 0-1.6305 0.23425-2.377 0.70508-0.74644 0.45935-1.614 1.3676-2.6016 2.7227l0.51758-3.0156h-2.5488l-3.1348 18.295h2.5488l1.498-8.6484c0.45935-2.6872 1.1945-4.6055 2.2051-5.7539 1.022-1.1598 2.1014-1.7383 3.2383-1.7383 0.47083 0 0.86182 0.17721 1.1719 0.5332 0.32154 0.35599 0.48242 0.83863 0.48242 1.4473 0 0.36748-0.07533 0.97028-0.22461 1.8086l-2.1191 12.352h2.5664l1.5176-8.873c0.34451-1.9752 0.74573-3.4151 1.2051-4.3223 0.47083-0.91869 1.0961-1.6375 1.877-2.1543 0.78089-0.52825 1.5282-0.79101 2.2402-0.79101 0.53973 0 0.96947 0.16502 1.291 0.49805 0.32155 0.32154 0.48243 0.79394 0.48243 1.4141 0 0.43638-0.08556 1.1472-0.25782 2.1348l-2.0664 12.094h2.5488l2.0156-11.783c0.22967-1.2976 0.34375-2.2386 0.34375-2.8242 0-1.3321-0.33199-2.3483-0.99805-3.0488-0.65456-0.7005-1.575-1.0508-2.7578-1.0508-0.93018 0-1.8201 0.28715-2.6699 0.86133-0.84979 0.5627-1.6522 1.418-2.4102 2.5664-0.2067-1.1139-0.62621-1.9651-1.2578-2.5508-0.63161-0.58567-1.4075-0.87696-2.3262-0.87696zm22.531 0c-1.3666 0-2.6353 0.42974-3.8066 1.291-1.1713 0.84978-2.1651 2.2041-2.9805 4.0644-0.80386 1.8604-1.2051 3.8643-1.2051 6.0117 0 1.6307 0.26472 3.0379 0.79297 4.2207 0.52825 1.1713 1.239 2.0552 2.1348 2.6524 0.89573 0.58566 1.8895 0.8789 2.9805 0.8789 1.5388 0 2.9338-0.55601 4.1856-1.6699 1.5044-1.3206 2.4635-2.8724 2.877-4.6523l-2.498-0.3086c-0.47083 1.3206-1.1307 2.3308-1.9805 3.0312-0.83831 0.70051-1.6937 1.0508-2.5664 1.0508-0.91869 0-1.7048-0.44192-2.3594-1.3262-0.65457-0.89572-0.98243-2.2052-0.98243-3.9277 0-0.2871 0.01632-0.61495 0.05079-0.98242h11.059c0.12632-0.94166 0.18945-1.8601 0.18945-2.7559 0-2.4116-0.54991-4.277-1.6523-5.5977-1.091-1.3206-2.5042-1.9805-4.2383-1.9805zm18.018 0c-0.82682 0-1.6822 0.26277-2.5664 0.79102-0.88424 0.51676-1.8658 1.4535-2.9453 2.8086l0.5332-3.1875h-2.3066l-3.1348 18.295h2.5488l1.4629-8.5098c0.48232-2.8135 1.2358-4.7889 2.2578-5.9258 1.0335-1.1369 2.1923-1.7051 3.4785-1.7051 0.62011 0 1.1088 0.1833 1.4648 0.55078 0.36748 0.35599 0.55079 0.84887 0.55079 1.4805 0 0.53973-0.09775 1.3787-0.29297 2.5156l-1.998 11.594h2.5664l1.8945-11.076c0.25264-1.4469 0.3789-2.4936 0.3789-3.1367 0-1.4355-0.36051-2.5433-1.084-3.3242-0.71199-0.78088-1.6487-1.1699-2.8086-1.1699zm22.395 0c-2.492 0-4.4796 1.1364-5.9609 3.4102s-2.2227 5.0577-2.2227 8.3535c0 2.2738 0.58039 4.072 1.7402 5.3926 1.1598 1.3091 2.6302 1.9629 4.4102 1.9629 1.3551 0 2.6463-0.44193 3.875-1.3262 1.2402-0.89573 2.2462-2.2337 3.0156-4.0137 0.78089-1.78 1.1699-3.8002 1.1699-6.0625 0-2.469-0.56819-4.371-1.7051-5.7031-1.1369-1.3436-2.5768-2.0137-4.3223-2.0137zm-0.08789 2.4102c1.0106 0 1.8618 0.45411 2.5508 1.3613 0.68902 0.89572 1.0332 2.2174 1.0332 3.9629 0 1.6077-0.30543 3.1738-0.91406 4.7012-0.60864 1.5273-1.3194 2.625-2.1348 3.291-0.81534 0.65457-1.6319 0.98047-2.4473 0.98047-1.0335 0-1.893-0.44193-2.582-1.3262-0.68902-0.88425-1.0352-2.1918-1.0352-3.9258 0-1.6996 0.283-3.3023 0.8457-4.8066 0.57418-1.5158 1.2747-2.6013 2.1016-3.2559 0.8383-0.65457 1.6978-0.98242 2.582-0.98242zm-40.271 0.01758c0.99908 0 1.8198 0.40731 2.4629 1.2226s0.96485 2.0392 0.96485 3.6699v0.63672h-8.4238c0.44786-1.8489 1.1199-3.2317 2.0156-4.1504 0.90721-0.91869 1.901-1.3789 2.9805-1.3789zm-56.914 0.08593c0.97611 0 1.809 0.43584 2.498 1.3086 0.7005 0.87276 1.0508 2.0803 1.0508 3.6191 0 1.5618-0.28715 3.0892-0.86133 4.582-0.57419 1.4814-1.2584 2.5425-2.0508 3.1856-0.79238 0.6316-1.5724 0.94726-2.3418 0.94726-0.57419 0-1.12-0.1955-1.6367-0.58594-0.50528-0.40192-0.9065-0.98645-1.2051-1.7558-0.28709-0.76941-0.43164-1.8385-0.43164-3.2051 0-1.0795 0.2423-2.3421 0.72461-3.7891 0.4938-1.4584 1.1251-2.5378 1.8945-3.2383 0.78089-0.71198 1.567-1.0684 2.3594-1.0684zm-19.498 6.9258c-0.28709 1.9293-0.67198 3.3691-1.1543 4.3223-0.47084 0.95315-1.0858 1.6822-1.8438 2.1875s-1.544 0.75781-2.3594 0.75781c-0.86127 0-1.5516-0.26886-2.0684-0.80859s-0.77539-1.2749-0.77539-2.2051c0-0.67753 0.16088-1.2742 0.48242-1.791 0.32154-0.51677 0.76957-0.90166 1.3438-1.1543s1.6311-0.46032 3.1699-0.62109c1.5044-0.16077 2.5735-0.38892 3.2051-0.6875zm38.652 0c-0.28709 1.9293-0.67199 3.3691-1.1543 4.3223-0.47083 0.95315-1.0839 1.6822-1.8418 2.1875s-1.546 0.75781-2.3613 0.75781c-0.86127 0-1.5496-0.26886-2.0664-0.80859-0.51677-0.53973-0.77539-1.2749-0.77539-2.2051 0-0.67753 0.16087-1.2742 0.48242-1.791 0.32154-0.51677 0.76957-0.90166 1.3438-1.1543 0.57419-0.25264 1.6311-0.46032 3.1699-0.62109 1.5044-0.16077 2.5715-0.38892 3.2031-0.6875zm-52.02 28.111-1.6894 9.8359c-0.94166-2.1934-2.3367-3.291-4.1856-3.291-1.1139 0-2.234 0.44194-3.3594 1.3262-1.1254 0.88424-2.0724 2.2629-2.8418 4.1348-0.7694 1.8604-1.1543 3.9111-1.1543 6.1504 0 2.5034 0.48264 4.3811 1.4473 5.6328 0.96463 1.2517 2.1356 1.877 3.5137 1.877 1.6077 0 3.1351-1.0223 4.582-3.0664l-0.44726 2.6524h2.3594l4.3242-25.252h-2.5488zm10.869 6.5449c-1.3666 0-2.6353 0.4317-3.8066 1.293-1.1713 0.8498-2.1651 2.2041-2.9805 4.0645-0.80386 1.8604-1.207 3.8643-1.207 6.0117 0 1.6307 0.26473 3.0379 0.79297 4.2207 0.52825 1.1713 1.241 2.0552 2.1367 2.6523 0.89573 0.58567 1.8895 0.87891 2.9805 0.87891 1.5388 0 2.9338-0.55796 4.1856-1.6719 1.5044-1.3206 2.4635-2.8704 2.877-4.6504l-2.498-0.31054c-0.47082 1.3206-1.1326 2.3327-1.9824 3.0332-0.8383 0.70051-1.6936 1.0508-2.5664 1.0508-0.9187 0-1.7048-0.44193-2.3594-1.3262-0.65457-0.89573-0.98242-2.2052-0.98242-3.9277 0-0.28708 0.01827-0.61494 0.05273-0.98242h11.059c0.12632-0.94166 0.18945-1.8601 0.18945-2.7559 0-2.4116-0.55186-4.277-1.6543-5.5976-1.0909-1.3206-2.5023-1.9824-4.2363-1.9824zm25.77 0c-0.83831 0-1.6325 0.23621-2.3789 0.70704-0.74644 0.45934-1.612 1.3656-2.5996 2.7207l0.51563-3.0137h-2.5488l-3.1348 18.293h2.5488l1.498-8.6465c0.45934-2.6872 1.1945-4.6055 2.2051-5.7539 1.022-1.1598 2.1014-1.7402 3.2383-1.7402 0.47082 0 0.86181 0.17916 1.1719 0.53516 0.32154 0.35599 0.48242 0.83863 0.48242 1.4473 0 0.36748-0.07532 0.97029-0.22461 1.8086l-2.1172 12.35h2.5664l1.5156-8.8711c0.3445-1.9752 0.74573-3.415 1.2051-4.3223 0.47083-0.9187 1.098-1.6375 1.8789-2.1543 0.78089-0.52825 1.5263-0.79297 2.2383-0.79297 0.53973 0 0.97143 0.16698 1.293 0.5 0.32154 0.32155 0.48047 0.792 0.48047 1.4121 0 0.43638-0.08556 1.1491-0.25781 2.1367l-2.0664 12.092h2.5488l2.0156-11.781c0.22967-1.2977 0.34375-2.2405 0.34375-2.8262 0-1.3321-0.332-2.3483-0.99805-3.0488-0.65457-0.7005-1.573-1.0508-2.7559-1.0508-0.93018 0-1.8201 0.28715-2.6699 0.86133-0.8498 0.5627-1.6542 1.418-2.4121 2.5664-0.20671-1.1139-0.62621-1.9632-1.2578-2.5488s-1.4055-0.8789-2.3242-0.87891zm22.65 0c-3.491 0-5.7821 1.8735-6.873 5.6172l2.584 0.27539c0.63161-2.2278 2.0103-3.3418 4.1348-3.3418 1.0565 0 1.8609 0.23425 2.4121 0.70507 0.5627 0.45935 0.84375 1.0744 0.84375 1.8438 0 0.55122-0.10384 1.264-0.31055 2.1367-0.37896 0.18374-0.83917 0.32025-1.3789 0.41211-0.52825 0.09188-1.5099 0.17743-2.9453 0.25782-1.6996 0.08038-3.009 0.35729-3.9277 0.82812-0.90721 0.45935-1.6119 1.1253-2.1172 1.998-0.50528 0.87275-0.75781 1.8951-0.75781 3.0664 0 1.6422 0.43584 2.9394 1.3086 3.8926 0.88425 0.95315 1.9921 1.4297 3.3242 1.4297 0.8498 0 1.6888-0.20159 2.5156-0.60352 0.82682-0.40192 1.7107-1.0964 2.6523-2.084 0.05742 0.94166 0.16126 1.6992 0.31055 2.2734h2.5664c-0.19522-1.0335-0.29296-1.8664-0.29296-2.498 0-0.89573 0.13235-2.0667 0.39648-3.5137l0.82617-4.5469c0.22968-1.2976 0.34375-2.428 0.34375-3.3926 0-1.3666-0.50506-2.4988-1.5156-3.3945-1.0106-0.9072-2.3771-1.3613-4.0996-1.3613zm16.76 0c-1.5158 0-3.0249 1.3848-4.5293 4.1524l0.63672-3.7383h-2.2559l-3.1348 18.293h2.4277l1.2754-7.3379c0.52825-3.1236 1.2573-5.2986 2.1875-6.5274 0.94166-1.2402 1.8826-1.8613 2.8242-1.8613 0.4938 0 0.96621 0.1955 1.4141 0.58594l1.0508-2.8945c-0.74644-0.44786-1.3797-0.67188-1.8965-0.67188zm8.3379 0c-1.1484 0-2.2908 0.4378-3.4277 1.3106-1.1254 0.86128-2.0907 2.1749-2.8945 3.9434-0.79238 1.757-1.1875 3.6346-1.1875 5.6328 0 2.5379 0.51725 4.4787 1.5508 5.8223 1.045 1.3321 2.3077 1.998 3.7891 1.998 1.4929 0 2.9042-0.82073 4.2363-2.4629l-0.25781 1.4824c-0.39045 2.2508-0.82628 3.7089-1.3086 4.375-0.68902 0.9072-1.7745 1.3594-3.2559 1.3594-0.95314 0-1.6537-0.19963-2.1016-0.60156s-0.67187-0.99864-0.67187-1.791v-0.41406l-2.584-0.29297c-0.04593 0.34451-0.06836 0.65408-0.06836 0.92969 0 1.4699 0.47045 2.6246 1.4121 3.4629 0.95314 0.84979 2.3828 1.2754 4.2891 1.2754 2.0096 0 3.6002-0.73517 4.7715-2.2051 0.93018-1.1713 1.6246-3.0897 2.084-5.7539l3.0156-17.656h-2.3262l-0.51758 2.998c-1.068-2.2738-2.5832-3.4121-4.5469-3.4121zm16.674 0c-1.3666 0-2.6353 0.4317-3.8066 1.293-1.1713 0.8498-2.1651 2.2041-2.9805 4.0645-0.80385 1.8604-1.2051 3.8643-1.2051 6.0117 0 1.6307 0.26473 3.0379 0.79297 4.2207 0.52825 1.1713 1.239 2.0552 2.1348 2.6523 0.89573 0.58567 1.8895 0.87891 2.9805 0.87891 1.5388 0 2.9338-0.55796 4.1855-1.6719 1.5044-1.3206 2.4635-2.8704 2.877-4.6504l-2.498-0.31054c-0.47083 1.3206-1.1307 2.3327-1.9805 3.0332-0.8383 0.70051-1.6936 1.0508-2.5664 1.0508-0.91869 0-1.7048-0.44193-2.3594-1.3262-0.65457-0.89573-0.98242-2.2052-0.98242-3.9277 0-0.28708 0.01631-0.61494 0.05078-0.98242h11.061c0.12632-0.94166 0.18945-1.8601 0.18945-2.7559 0-2.4116-0.55186-4.277-1.6543-5.5976-1.0909-1.3206-2.5042-1.9824-4.2383-1.9824zm18.018 0c-0.82683 0-1.6822 0.26473-2.5664 0.79297-0.88424 0.51677-1.8658 1.4535-2.9453 2.8086l0.53516-3.1875h-2.3086l-3.1348 18.293h2.5488l1.4648-8.5098c0.48231-2.8135 1.2338-4.787 2.2559-5.9238 1.0335-1.1369 2.1943-1.707 3.4805-1.707 0.62011 0 1.1069 0.18526 1.4629 0.55274 0.36748 0.35599 0.55078 0.84886 0.55078 1.4805 0 0.53974-0.09774 1.3788-0.29297 2.5156l-1.998 11.592h2.5684l1.8945-11.076c0.25263-1.4469 0.3789-2.4917 0.3789-3.1348 0-1.4355-0.36246-2.5433-1.0859-3.3242-0.71198-0.78089-1.6487-1.1719-2.8086-1.1719zm13.316 0c-1.6077 0-2.905 0.49483-3.8926 1.4824-0.9876 0.98759-1.4824 2.2442-1.4824 3.7715 0 0.74644 0.13235 1.4246 0.39648 2.0332 0.26413 0.59715 0.63269 1.1083 1.1035 1.5332 0.48231 0.41341 1.468 1.0101 2.9609 1.791 1.2977 0.67754 2.1428 1.2518 2.5332 1.7227 0.37896 0.47083 0.56836 0.99832 0.56836 1.584 0 0.81534-0.30348 1.4874-0.91211 2.0156-0.60864 0.51677-1.4355 0.77539-2.4805 0.77539-1.1484 0-2.0566-0.36661-2.7227-1.1016-0.66604-0.73496-0.99389-1.8489-0.98242-3.3418l-2.5664 0.18945v0.34375c0 2.0096 0.54577 3.5656 1.6367 4.668 1.091 1.1024 2.5959 1.6543 4.5137 1.6543 1.9063 0 3.393-0.54577 4.4609-1.6367 1.0795-1.091 1.6191-2.3943 1.6191-3.9102 0-1.3666-0.40122-2.5254-1.2051-3.4785-0.52825-0.60864-1.7624-1.4252-3.7031-2.4473-1.2632-0.65456-2.0513-1.176-2.3613-1.5664-0.31006-0.37897-0.46484-0.83309-0.46484-1.3613 0-0.60864 0.25863-1.1422 0.77539-1.6016 0.51676-0.47083 1.1888-0.70704 2.0156-0.70704 1.0565 0 1.8955 0.30958 2.5156 0.92969 0.63158 0.62012 0.96358 1.5059 0.99805 2.6543l2.5156-0.20703c-0.04593-1.8259-0.58561-3.2453-1.6191-4.2559-1.0335-1.022-2.4407-1.5332-4.2207-1.5332zm-121.47 2.4297c0.99908 0 1.8198 0.40732 2.4629 1.2227s0.96484 2.0392 0.96484 3.6699v0.63672h-8.4219c0.44786-1.8489 1.1179-3.2336 2.0137-4.1523 0.9072-0.9187 1.901-1.377 2.9805-1.377zm90.193 0c0.99908 0 1.8198 0.40732 2.4629 1.2227s0.96484 2.0392 0.96484 3.6699v0.63672h-8.4238c0.44786-1.8489 1.1199-3.2336 2.0156-4.1523 0.9072-0.9187 1.901-1.377 2.9805-1.377zm-16.674 0.08594c0.97611 0 1.8071 0.43583 2.4961 1.3086 0.7005 0.87276 1.0508 2.0784 1.0508 3.6172 0 1.5618-0.28715 3.0892-0.86133 4.582-0.57418 1.4814-1.2564 2.5444-2.0488 3.1875-0.79238 0.63161-1.5744 0.94727-2.3438 0.94727-0.57419 0-1.118-0.19549-1.6348-0.58594-0.50528-0.40193-0.90846-0.98645-1.207-1.7559-0.28709-0.76941-0.42969-1.8385-0.42969-3.2051 0-1.0795 0.24035-2.3421 0.72266-3.7891 0.4938-1.4584 1.1251-2.5378 1.8945-3.2383 0.78089-0.71199 1.569-1.0684 2.3613-1.0684zm-90.176 0.05078c0.88424 0 1.6479 0.40318 2.291 1.207 0.64309 0.80386 0.96485 1.9402 0.96485 3.4102 0 2.8594-0.62719 5.2707-1.8789 7.2344-0.95315 1.4699-2.004 2.2051-3.1523 2.2051-0.88424 0-1.595-0.37271-2.1348-1.1191-0.7005-0.96463-1.0508-2.2049-1.0508-3.7207l0.01758-0.74024c0-1.0335 0.22815-2.3206 0.6875-3.8594 0.45934-1.5388 1.0682-2.6935 1.8262-3.4629 0.75792-0.7694 1.5684-1.1543 2.4297-1.1543zm67.438 6.873c-0.28709 1.9292-0.67198 3.3711-1.1543 4.3242-0.47083 0.95314-1.0858 1.6822-1.8438 2.1875s-1.544 0.75781-2.3594 0.75781c-0.86128 0-1.5496-0.26886-2.0664-0.80859-0.51677-0.53973-0.77539-1.2749-0.77539-2.2051 0-0.67754 0.16088-1.2742 0.48242-1.791 0.32155-0.51676 0.76957-0.90166 1.3438-1.1543 0.57419-0.25264 1.6292-0.46032 3.168-0.62109 1.5044-0.16077 2.5735-0.39088 3.2051-0.68945z" stroke-width="1.3229" style="font-variant-caps:normal;font-variant-east-asian:normal;font-variant-ligatures:normal;font-variant-numeric:normal;text-orientation:upright"/>
  <path id="other" d="m579.26 282.03c-6.1609 0.26007-12.031 3.9141-14.977 9.3317-1.7793 3.1153-2.4353 6.7524-2.2863 10.31 5e-3 69.455-0.0101 138.91 8e-3 208.36 0.0102 6.3369 3.6395 12.5 9.176 15.582 3.1518 1.8509 6.8598 2.5395 10.484 2.3859 69.455-5e-3 138.91 0.0101 208.36-8e-3 6.3369-0.0102 12.5-3.6395 15.582-9.176 1.8509-3.1518 2.5395-6.8598 2.3859-10.484-5e-3 -69.455 0.0101-138.91-8e-3 -208.36-0.0102-6.3369-3.6395-12.5-9.176-15.582-3.1518-1.8509-6.8598-2.5395-10.484-2.3859-69.455 5e-3 -138.91-0.0101-208.36 8e-3 -0.23466 6e-3 -0.46933 0.0119-0.704 0.0178z" fill="#fff" stop-color="#000000"/>
  <path d="m653.75 489.63c-2.9513 0-5.4542 1.279-7.5098 3.8398-2.3082 2.8824-3.4629 6.6377-3.4629 11.266 0 2.1934 0.40731 4.1524 1.2226 5.875 0.81534 1.7225 1.8601 3.0076 3.1348 3.8574 1.2862 0.84979 2.728 1.2754 4.3242 1.2754 1.8374 0 3.5888-0.58648 5.2539-1.7578 1.6651-1.1713 3.0438-2.9166 4.1348-5.2363 1.091-2.3312 1.6367-4.9257 1.6367-7.7852 0-3.5599-0.83901-6.3397-2.5156-8.3379-1.6651-1.9982-3.7383-2.9961-6.2188-2.9961zm32.953 0.74023-2.9297 2.1524-0.77539 4.4961h-2.0137l-0.41406 2.4121h2.0156l-1.8086 10.629c-0.25264 1.4469-0.37891 2.3715-0.37891 2.7734 0 0.84979 0.27495 1.526 0.82617 2.0312 0.5627 0.50529 1.3203 0.75782 2.2734 0.75782 0.57418 0 1.1668-0.09775 1.7754-0.29297l0.44727-2.5488c-0.44787 0.13781-0.95293 0.20703-1.5156 0.20703-0.37896 0-0.66001-0.09165-0.84375-0.27539s-0.27539-0.47698-0.27539-0.87891c0-0.22967 0.10799-0.99336 0.32617-2.291l1.7402-10.111h2.498l0.41211-2.4121h-2.4961l1.1367-6.6484zm-33.074 2.0664c1.6881 0 3.1238 0.73517 4.3066 2.2051 1.1943 1.4584 1.791 3.4623 1.791 6.0117 0 2.3541-0.41756 4.5311-1.2559 6.5293-0.83831 1.9867-1.8728 3.4448-3.1016 4.375-1.2173 0.93018-2.4575 1.3945-3.7207 1.3945-1.6651 0-3.107-0.72908-4.3242-2.1875-1.2173-1.4584-1.8242-3.4094-1.8242-5.8555 0-4.0422 0.95309-7.2416 2.8594-9.5957 1.5618-1.9178 3.3173-2.877 5.2695-2.877zm43.461 4.1699c-1.5158 0-3.0269 1.3828-4.5312 4.1504l0.63867-3.7383h-2.2578l-3.1348 18.295h2.4297l1.2734-7.3398c0.52824-3.1236 1.2573-5.2986 2.1875-6.5273 0.94166-1.2402 1.8845-1.8613 2.8262-1.8613 0.49379 0 0.96424 0.1955 1.4121 0.58594l1.0508-2.8926c-0.74643-0.44786-1.3778-0.67188-1.8945-0.67188zm8.9922 0c-2.492 0-4.4796 1.1364-5.9609 3.4102-1.4814 2.2738-2.2227 5.0577-2.2227 8.3535 0 2.2738 0.58039 4.072 1.7402 5.3926 1.1598 1.3091 2.6302 1.9629 4.4102 1.9629 1.3551 0 2.6463-0.44193 3.875-1.3262 1.2402-0.89573 2.2462-2.2337 3.0156-4.0137 0.78089-1.78 1.1699-3.8002 1.1699-6.0625 0-2.469-0.56819-4.371-1.7051-5.7031-1.1369-1.3436-2.5768-2.0137-4.3223-2.0137zm15.105 0c-1.6077 0-2.905 0.49288-3.8926 1.4805-0.9876 0.98759-1.4805 2.2461-1.4805 3.7734 0 0.74644 0.1304 1.4226 0.39453 2.0312 0.26412 0.59714 0.63269 1.1083 1.1035 1.5332 0.48232 0.41341 1.47 1.0101 2.9629 1.791 1.2977 0.67753 2.1408 1.2518 2.5312 1.7226 0.37896 0.47083 0.56836 1.0003 0.56836 1.5859 0 0.81534-0.30347 1.4874-0.91211 2.0156-0.60863 0.51676-1.4354 0.77343-2.4805 0.77343-1.1484 0-2.0566-0.36661-2.7227-1.1016-0.66603-0.73495-0.99194-1.8489-0.98047-3.3418l-2.5664 0.18946v0.34375c0 2.0096 0.54382 3.5655 1.6348 4.668 1.091 1.1024 2.5959 1.6543 4.5137 1.6543 1.9063 0 3.393-0.54577 4.4609-1.6367 1.0795-1.0909 1.6191-2.3943 1.6191-3.9102 0-1.3666-0.40122-2.5254-1.2051-3.4785-0.52825-0.60863-1.7624-1.4252-3.7031-2.4473-1.2632-0.65457-2.0493-1.176-2.3594-1.5664-0.31005-0.37896-0.4668-0.83308-0.4668-1.3613 0-0.60863 0.25864-1.1422 0.7754-1.6016 0.51676-0.47083 1.1888-0.70703 2.0156-0.70703 1.0565 0 1.8955 0.31152 2.5156 0.93164 0.63158 0.62012 0.96358 1.504 0.99804 2.6523l2.5156-0.20703c-0.04594-1.8259-0.58561-3.2433-1.6191-4.2539-1.0335-1.022-2.4407-1.5332-4.2207-1.5332zm-54.432 0.41211-1.8086 10.561c-0.32155 1.8604-0.48242 3.18-0.48242 3.9609 0 1.2288 0.36661 2.2328 1.1016 3.0137 0.74644 0.78088 1.6649 1.1719 2.7559 1.1719 1.8833 0 3.7264-1.2402 5.5293-3.7207l-0.56836 3.3086h2.3613l3.1348-18.295h-2.5508l-1.3594 7.9062c-0.31006 1.8489-0.67862 3.3253-1.1035 4.4277-0.41341 1.0909-1.0733 2.0033-1.9805 2.7383-0.89573 0.72347-1.7979 1.0859-2.7051 1.0859-0.64308 0-1.142-0.1833-1.498-0.55078-0.35599-0.37896-0.5332-0.93082-0.5332-1.6543 0-0.52825 0.08556-1.2798 0.25781-2.2559l1.998-11.697h-2.5488zm39.238 1.998c1.0106 0 1.8618 0.45411 2.5508 1.3613 0.68902 0.89572 1.0332 2.2174 1.0332 3.9629 0 1.6077-0.30543 3.1738-0.91406 4.7012-0.60864 1.5273-1.3194 2.625-2.1348 3.291-0.81534 0.65457-1.6319 0.98047-2.4473 0.98047-1.0335 0-1.893-0.44193-2.582-1.3262-0.68902-0.88425-1.0352-2.1918-1.0352-3.9258 0-1.6996 0.283-3.3023 0.8457-4.8066 0.57418-1.5158 1.2747-2.6013 2.1016-3.2559 0.83832-0.65457 1.6978-0.98242 2.582-0.98242z" stroke-width="1.3229" style="font-variant-caps:normal;font-variant-east-asian:normal;font-variant-ligatures:normal;font-variant-numeric:normal;text-orientation:upright"/>
  <path d="m396.57 193.15c0.27458-2.3182 0.72392-3.0329 2.9452-4.6837 1.3297-0.98825 1.4069-1.2059 1.769-4.9894 0.34944-3.6516 0.34921-37.972-2e-4 -45.468-0.28718-6.1589-0.547-9.7089-0.84767-11.582-0.20473-1.2751-0.25893-1.3677-1.4563-2.4878-1.8099-1.693-5.5485-4.6444-12.05-9.5129l-5.733-4.2927-1.5271 0.36383c-3.833 0.91319-5.2252 1.0635-9.8887 1.0676-5.1508 5e-3 -6.9828-0.23795-10.652-1.4096-6.493-2.0735-10.543-5.7003-11.766-10.536-0.90985-3.5978 0.10177-7.4677 2.9174-11.161 1.8586-2.4376 4.5215-4.7177 7.6157-6.521 0.84082-0.48999 1.5287-0.91484 1.5287-0.94409 0-0.0291-0.47125-0.31912-1.0472-0.64419-1.5352-0.86641-3.019-2.5758-3.4134-3.9323-0.91932-3.1625 1.255-6.6579 5.7427-9.2314 1.8899-1.0838 1.7898-0.95598 1.2937-1.6526-1.3088-1.838-1.6826-5.0868-0.84812-7.3706 1.2914-3.5345 5.4072-6.8165 10.472-8.3502 0.93892-0.28433 1.7215-0.52868 1.7392-0.54304 0.0179-0.0146-0.17982-0.6474-0.43875-1.4068-0.61357-1.7996-0.65137-4.2397-0.0936-6.0448 1.4806-4.7919 6.376-8.4874 12.906-9.7426 1.7819-0.34253 6.1695-0.41296 7.6775-0.12325l0.94915 0.18237 0.51457-0.81516c1.1969-1.8961 4.0557-4.1915 6.6484-5.3381 8.1468-3.6029 18.729-1.7963 23.864 4.0742 1.9171 2.1916 3.0364 5.3039 2.7934 7.7672l-0.11869 1.2034 1.6298 0.11984c4.2339 0.31124 8.584 2.313 11.095 5.1055 2.8669 3.1887 3.5686 6.7704 2.1783 11.119-0.12198 0.38158-0.0134 0.41985 1.8066 0.63548 6.89 0.81651 11.954 4.0066 13.461 8.4805 1.4312 4.2485-1.168 8.7543-6.5065 11.279-0.6985 0.33033-1.2256 0.66387-1.1714 0.74123 0.0544 0.0773 0.85312 0.64582 1.7754 1.2633 6.3335 4.241 10.197 10.22 10.589 16.387 0.5309 8.3625-5.2819 15.478-14.864 18.194-2.9837 0.84586-4.292 1.0018-8.349 0.99531-4.0852-7e-3 -5.679-0.21394-9.1109-1.1854-0.94266-0.26681-1.7532-0.48513-1.8014-0.48513-0.14471 0-9.1373 10.083-12.594 14.12-3.816 4.4578-6.2288 7.5119-7.1724 9.0789l-0.68567 1.1386v16.088c0 21.055 0.33184 31.124 1.0633 32.51 0.15745 0.29825 0.96323 1.2968 1.7907 2.219 0.82747 0.92218 1.7989 2.1205 2.1587 2.663 0.78512 1.1836 1.5546 3.2196 1.4626 3.8702-0.0649 0.46076-0.11592 0.47181-2.7294 0.59412-1.4646 0.0684-5.5824 0.13508-9.1506 0.14789l-6.4877 0.0233zm14.244-69.374c2.0125-1.3412 7.148-6.1094 11.401-10.585l2.9221-3.0755-1.1828-0.59705c-0.65048-0.32838-1.9152-1.0958-2.8105-1.7054l-1.6278-1.1084-1.6895 0.50068c-2.8147 0.83405-6.773 1.5111-8.835 1.5111h-0.84357v2.3178c0 2.9136 0.32893 8.733 0.60194 10.767 0.35242 2.6246 0.65391 2.9135 2.0616 1.9753zm-9.6144-7.1202c0.21956-0.51534 0.54163-1.6471 0.71579-2.515 0.29464-1.4688 0.89882-5.4843 0.83567-5.5544-0.0157-0.0172-0.87138-0.17507-1.902-0.35091-2.4579-0.41935-5.0858-1.1226-7.2919-1.9512l-1.7835-0.66988-3.043 1.5358-3.0431 1.5357 4.7698 3.1412c6.7219 4.4268 8.9707 5.7447 9.8248 5.7577 0.43338 7e-3 0.58346-0.14528 0.91731-0.92906z" stroke-width=".19726"/>
  <path d="m613.14 167.92c-1.1406-0.38688-2.4328-0.84026-2.8715-1.0075-1.7148-0.65369-4.6618-1.8282-5.3442-2.1298-2.2719-1.0042-4.0004-1.8262-4.6733-2.2223-0.42061-0.24766-0.79662-0.4503-0.83555-0.4503-0.19361 0-3.8508-2.2569-5.1797-3.1965-1.6032-1.1335-3.9155-3.0718-4.642-3.8912-0.23895-0.26951-0.66181-0.74126-0.9397-1.0484-1.5328-1.6939-2.7989-3.9486-3.3582-5.9802-0.4429-1.6089-0.3794-4.1231 0.13819-5.4724 0.84094-2.1922 2.6036-4.4263 4.973-6.3035 0.57031-0.45185 1.0728-0.86787 1.1167-0.92452 0.11493-0.14853 3.2954-2.2178 3.4086-2.2178 0.0521 0 0.47316-0.24012 0.93549-0.53361 0.9722-0.6171 3.8676-2.0317 5.9456-2.9049 0.78969-0.33182 1.5076-0.65495 1.5953-0.71806 0.0877-0.0632 0.66205-0.30787 1.2762-0.54394 0.6142-0.23604 1.4756-0.5783 1.9143-0.76059 0.43872-0.18223 1.0848-0.42258 1.4358-0.53394 0.35096-0.11144 1.356-0.46403 2.2334-0.78362 0.87741-0.31961 2.0619-0.72569 2.6322-0.90244 0.5703-0.17669 1.3959-0.4559 1.8346-0.62046 0.43871-0.1645 2.2693-0.7327 4.068-1.2626 1.7987-0.52987 3.4857-1.029 3.7489-1.109 0.26322-0.0801 1.0529-0.30379 1.7548-0.49714 0.70193-0.19327 1.7069-0.48209 2.2334-0.64165 0.52645-0.15955 1.5674-0.44326 2.3132-0.63043 8.4808-2.1285 10.462-2.6211 12.523-3.1142 1.3161-0.31487 2.7878-0.67403 3.2704-0.79817 0.87569-0.22522 1.8869-0.45809 4.1478-0.95508 0.65805-0.14456 1.6272-0.36278 2.1536-0.48474 0.52646-0.12188 1.9622-0.4446 3.1906-0.717 2.1553-0.47797 3.8904-0.87638 5.9026-1.3554 0.52647-0.12545 1.6033-0.36479 2.393-0.53216 1.4525-0.30782 4.9967-1.0832 5.5836-1.2215 0.17546-0.0414 1.1446-0.25701 2.1536-0.47923 2.003-0.44112 3.2685-0.73701 5.105-1.1937 0.65806-0.16368 2.1656-0.51968 3.3501-0.79125 1.1845-0.27154 2.5485-0.5974 3.0311-0.72412 0.48256-0.12661 1.8824-0.47671 3.1108-0.77782 2.4985-0.61246 4.5455-1.1514 5.2645-1.3862 0.26322-0.0859 1.34-0.40062 2.393-0.69927 4.596-1.3036 7.9543-2.5319 10.688-3.9093 2.1304-1.0732 3.0748-1.7642 3.7453-2.7401 0.8678-1.2632 0.67253-2.491-0.58144-3.6561-1.231-1.1437-2.5949-1.9322-5.0782-2.9356-1.4886-0.60153-1.6006-0.64839-2.7918-1.1676-0.39484-0.17218-1.8665-0.79629-3.2704-1.3871-5.1819-2.1807-13.383-6.2898-13.613-6.8207-0.0293-0.06744-0.15871-0.12267-0.28769-0.12267-0.20973 0-1.1329-0.5562-3.2167-1.938-0.37729-0.25021-0.72093-0.45492-0.76362-0.45492-0.0428 0-1.0262-0.72777-2.1856-1.6173-3.4735-2.665-5.7064-5.1542-6.6625-7.4271-0.46952-1.1162-0.52343-1.4024-0.52012-2.7608 3e-3 -1.6424 0.31624-2.8081 1.1819-4.4135 1.1915-2.2094 3.7264-4.8336 6.3696-6.5941 0.19761-0.13154 0.55708-0.40081 0.79883-0.59824 0.24176-0.19741 0.47156-0.35894 0.51071-0.35894 0.0392 0 0.67485-0.36456 1.4127-0.81015 2.2883-1.3818 6.4209-3.3253 9.7967-4.6072 1.683-0.63909 6.6763-2.3252 8.2956-2.8013 0.52646-0.15482 1.1366-0.33791 1.356-0.40698 0.21933-0.06904 0.97311-0.27848 1.6751-0.46534 0.70194-0.18677 1.4916-0.40316 1.7548-0.48062 0.26322-0.07748 1.5554-0.39923 2.8715-0.71503 1.3161-0.31581 3.0032-0.72114 3.749-0.90078 1.8517-0.446 3.04-0.71052 4.5466-1.0121 0.70193-0.14042 1.7531-0.36053 2.336-0.48896 0.65666-0.14476 1.8703-0.2295 3.1906-0.22298l2.1308 0.01032-0.86889 0.23355c-0.47786 0.1284-0.90263 0.2673-0.94388 0.30856-0.20443 0.20443 1.9685 0.03268 3.089-0.24405 0.79022-0.19526 1.7926-0.31225 2.6322-0.30728l1.356 8e-3 -0.63811 0.30583c-0.35098 0.16823-1.1407 0.52936-1.7548 0.80256-0.61419 0.27319-1.8542 0.84899-2.7556 1.2796-0.90139 0.43057-1.6746 0.78284-1.7182 0.78284-0.11016 0-5.0789 2.4797-6.9964 3.4916-5.6454 2.9792-10.276 6.2608-12.008 8.5096-0.90329 1.1729-1.1963 1.8904-1.2216 2.9916-0.0398 1.7309 1.165 3.074 4.0434 4.5073 1.7878 0.89024 9.5933 3.542 12.76 4.3349 0.21935 0.05497 1.1885 0.30918 2.1536 0.565 3.2458 0.86034 6.6329 1.6863 9.5718 2.3341 1.0529 0.23207 2.381 0.52491 2.9513 0.65077 0.57033 0.12583 1.4074 0.29241 1.8602 0.37016 0.45278 0.07771 1.0989 0.21447 1.4358 0.30386 0.33693 0.08937 1.1869 0.27852 1.8888 0.42033 0.70194 0.1418 1.8505 0.39244 2.5525 0.557 0.70194 0.16449 1.8147 0.41734 2.4727 0.56173 3.858 0.84648 4.9879 1.1115 8.4551 1.9828 3.8331 0.96332 4.6707 1.1868 5.5836 1.4898 0.39484 0.13096 1.2563 0.3969 1.9144 0.5908 1.5449 0.45518 5.0948 1.6399 6.2216 2.0765 0.48258 0.18696 1.0569 0.39912 1.2762 0.4715 0.3444 0.1136 1.0845 0.4217 2.3132 0.96279 0.17552 0.07737 0.64213 0.27957 1.037 0.44954 2.4558 1.0571 3.2501 1.4238 4.5407 2.0961 2.2078 1.15 6.1896 3.6004 6.8138 4.1931 0.11626 0.1104 0.60621 0.51842 1.0888 0.90679 4.099 3.2987 6.2598 7.3174 6.01 11.177-0.16685 2.5784-1.3788 5.3184-3.5989 8.136-1.9628 2.4911-6.4811 6.452-13.07 11.458-0.49895 0.37907-1.1226 0.86023-1.3858 1.0693-0.26322 0.20901-0.90932 0.7229-1.4358 1.1419-0.52643 0.41901-1.0494 0.83517-1.1621 0.92484-0.1127 0.0896-0.2922 0.23624-0.39883 0.32581-0.10659 0.0896-0.55219 0.44851-0.99013 0.79765-2.1704 1.7304-5.2521 4.6888-6.8929 6.6172-1.6743 1.9678-3.3605 5.2619-3.7101 7.248-1.0697 6.0772 2.7477 11.915 12.117 18.531 1.4728 1.0399 5.2123 3.4149 5.3769 3.4149 0.056 0 0.21508 0.0979 0.35359 0.21758 0.13854 0.11972 0.82616 0.52458 1.5281 0.89976 0.70192 0.3752 1.348 0.73741 1.4358 0.80494 0.19795 0.15224 3.6381 1.9456 6.3014 3.2849l1.9941 1.0028-85.987-0.0679-1.8346-0.66297c-1.5662-0.56597-5.5988-2.1461-6.6205-2.5941-0.1755-0.077-0.7139-0.29926-1.1965-0.49404-1.8428-0.74376-3.8606-1.7138-6.8598-3.2977-4.169-2.2017-7.2328-4.3935-9.9808-7.1401-2.1847-2.1836-3.3829-3.9518-4.0727-6.01-0.46481-1.387-0.4959-1.6145-0.42267-3.0924 0.0435-0.87741 0.13148-1.7209 0.19559-1.8745 0.1089-0.26084-0.10859-0.27918-3.3115-0.27918h-3.428l-0.17846 0.70876c-0.25576 1.0156-0.22004 3.4664 0.0673 4.6125 1.0126 4.0408 3.9587 8.0611 8.9016 12.147 2.4488 2.0244 7.1831 5.1381 10.448 6.8714 0.67307 0.35734 1.4392 0.76726 1.7024 0.91092 0.4445 0.24252-1.8053 0.26062-31.587 0.25382l-32.066-7e-3 -2.0739-0.7034zm56.429-31.223c1.5468-1.3377 2.8541-2.3134 4.113-3.0699 0.57033-0.3427 1.3959-0.86127 1.8346-1.1524 1.3614-0.90336 7.6456-3.9395 10.167-4.9121 0.81317-0.31367 1.6221-0.63673 1.7976-0.71793 0.88191-0.40803 7.5385-2.8178 11.725-4.2447 0.92128-0.31397 2.2853-0.80604 3.0311-1.0935 0.74581-0.28742 1.7509-0.66982 2.2334-0.84982l0.87744-0.32721-5.7648-7e-3c-5.7492-7e-3 -5.7682-7e-3 -7.0193 0.39704-0.68999 0.22292-1.3875 0.47941-1.55 0.56989-0.16253 0.0905-1.1676 0.47466-2.2334 0.85368-4.6086 1.6388-7.524 2.761-9.7549 3.7546-1.2158 0.54152-1.8301 0.79765-1.9131 0.79765-0.0528 0-1.2233 0.56168-2.6011 1.2482-3.8568 1.9217-7.3826 4.1178-9.8435 6.1311-1.1906 0.97408-3.5894 3.3076-3.5894 3.4916 0 0.0753 1.6488 0.13668 3.6641 0.13668h3.6641zm47.147-20.766c0.50409-0.21096 1.5985-0.64905 2.4321-0.97356 0.83355-0.3245 1.9822-0.78859 2.5525-1.0313 0.57031-0.24271 2.1856-0.92482 3.5894-1.5158 1.4038-0.59101 2.9473-1.2497 3.4299-1.4637 0.48258-0.21404 1.1287-0.49988 1.4358-0.63518 1.0139-0.44673 5.9643-2.9118 6.9396-3.4556 2.005-1.1179 4.2327-2.5309 5.1847-3.2885l0.39884-0.31735-2.6183-4e-3c-2.5812-4e-3 -2.6286 2e-3 -3.3501 0.43829-0.40254 0.24302-0.87546 0.52745-1.051 0.63205-1.3901 0.82852-7.3508 3.531-10.13 4.5929-0.3071 0.11733-1.3122 0.5164-2.2334 0.88686-0.92129 0.37045-1.9622 0.76746-2.3132 0.8822-0.35098 0.11479-1.356 0.46796-2.2334 0.7849-0.87743 0.31696-2.2055 0.78904-2.9513 1.049-0.7458 0.26002-1.8585 0.64797-2.4727 0.86215-0.61421 0.21418-1.6192 0.57378-2.2334 0.79914-0.61419 0.22534-2.1935 0.77387-3.5096 1.2189s-2.4173 0.83117-2.4472 0.85804c-0.0298 0.0268 2.3575 0.0522 5.3051 0.0562 5.3073 7e-3 5.3683 4e-3 6.2759-0.37617zm29.346-16.517c0.55158-1.1238 0.50337-2.6322-0.12494-3.9084-1.0986-2.2315-4.2937-4.3563-9.7562-6.488l-2.1169-0.82608-6.7003-0.09258 2.4727 0.8524c4.0985 1.4129 4.6265 1.624 6.7003 2.6791 2.8608 1.4555 4.0415 2.3623 5.0464 3.8757 0.54961 0.82779 0.60287 1.004 0.60287 1.9948 0 0.94388-0.0668 1.1941-0.50757 1.9033l-0.50754 0.81648 4.5388-0.0882zm-21.091-14.103c-0.87741-0.29322-2.4926-0.82596-3.5894-1.1838-1.0968-0.35789-3.3581-1.127-5.0252-1.7091-1.6671-0.58214-3.2459-1.1241-3.5086-1.2043-0.26264-0.08023-1.7702-0.14319-3.3501-0.13964-3.243 8e-3 -3.2361-0.024-0.22315 1.0029 0.91182 0.31076 2.4834 0.85994 3.4924 1.2204 1.009 0.36046 2.2653 0.7969 2.7918 0.96988 0.52644 0.17297 1.8186 0.5975 2.8716 0.94343l1.9144 0.62891 6.2217 0.0046-1.5953-0.53314zm-20.021-7.1219c-1.5355-0.61534-3.0071-1.2186-3.2703-1.3405-0.26324-0.12188-1.1346-0.5098-1.9365-0.86186-0.80182-0.35204-1.9797-0.89796-2.6174-1.2132l-1.1596-0.57307-5.2853 0.08731 1.8302 0.90095c2.5457 1.2532 3.6812 1.776 5.3242 2.4513 0.78103 0.32105 1.5348 0.64195 1.6751 0.71314 0.14025 0.07108 0.54215 0.23635 0.89311 0.36705 0.35096 0.13076 0.81759 0.31271 1.0369 0.40442 0.22587 0.09451 1.6787 0.1704 3.3502 0.17492l2.9513 8e-3 -2.7918-1.1188zm-13.405-6.3072c-2.5084-1.5373-3.9688-2.5752-5.0569-3.5937l-0.67392-0.63081-1.9583 0.04469-1.9583 0.0448 0.87742 0.93969c0.74521 0.79813 1.8613 1.7129 3.8903 3.1886 0.22656 0.16488 0.53872 0.39582 0.69366 0.51341 0.2075 0.15739 0.95302 0.21512 2.8301 0.21886l2.5483 0.0057zm-7.1142-5.8498c-0.0648-0.10971-0.29629-0.48604-0.51444-0.83636-0.57437-0.92243-0.66825-2.6132-0.20346-3.664 0.18609-0.42066 0.33833-0.79164 0.33833-0.82433 0-0.03268-0.53015-0.05955-1.1781-0.05955-1.3042 0-1.3972 0.06766-2.0497 1.4931-0.36225 0.79129-0.37529 2.5742-0.0253 3.4491l0.25661 0.64136h1.7469c1.354 0 1.7204-0.04469 1.6291-0.19942zm2.0295-7.5898c0.56148-0.42344 1.4838-1.0695 2.0497-1.4357l1.0288-0.66589h-2.8031l-1.1428 0.79119c-0.62852 0.43513-1.4658 1.0792-1.8607 1.4312l-0.71787 0.64008 1.2126 0.0045c1.2045 0.0045 1.2193-6.39e-4 2.2334-0.76539zm6.2335-3.9262c0.56826-0.30156 1.8892-0.98145 2.9355-1.5109l1.9022-0.96257-3.1115-9e-3 -2.3713 1.2364c-1.3042 0.68-2.5424 1.3582-2.7516 1.5072-0.36983 0.2634-0.34271 0.27103 0.99161 0.27918 1.2644 8e-3 1.4528-0.03451 2.405-0.53994zm10.18-4.673 2.3107-0.92064-1.4784-0.04595c-1.47-0.04572-1.4914-0.0408-3.7465 0.86127-1.2474 0.49897-2.298 0.93242-2.3346 0.96322-0.0364 0.03085 0.60954 0.0576 1.4358 0.05931 1.4596 0.0045 1.5679-0.02285 3.813-0.91728zm8.0587-2.84 1.9144-0.63309-1.333-0.04652c-0.8599-0.02995-1.5677 0.03475-1.9941 0.18264-0.36359 0.12602-1.0918 0.35488-1.6182 0.50848-0.52646 0.15364-1.2084 0.37676-1.5156 0.4959-0.5204 0.20186-0.44992 0.21348 1.037 0.17119 1.3574-0.03863 1.8808-0.13984 3.5096-0.67849zm4.83-1.6604c0.67767-0.1702 1.3757-0.34132 1.5512-0.38033 0.17551-0.03897-0.25525-0.07668-0.95717-0.08378-1.2069-0.01188-2.5408 0.21613-3.4299 0.5869-0.74217 0.30951 1.5011 0.21233 2.8359-0.12286z" stroke-width=".15953"/>
  <path d="m122.08 22.287a2.3392 2.3392 0 0 0-0.0499 0.0019 2.3392 2.3392 0 0 0-0.91618 0.22554l-95.726 45.45-0.06691 0.0305a2.3389 2.3389 0 0 0-0.05158 0.0271 2.3389 2.3389 0 0 0-0.0427 0.0203 2.3389 2.3389 0 0 0-0.09429 0.05158 2.3389 2.3389 0 0 0-0.07655 0.04847 2.3389 2.3389 0 0 0-0.02984 0.017 2.3389 2.3389 0 0 0-0.0951 0.06683 2.3389 2.3389 0 0 0-0.04189 0.0339 2.3389 2.3389 0 0 0-0.09754 0.07907 2.3389 2.3389 0 0 0-0.01526 0.0169 2.3389 2.3389 0 0 0-0.05477 0.04847 2.3389 2.3389 0 0 0-0.05237 0.05226 2.3389 2.3389 0 0 0-0.09991 0.1065 2.3389 2.3389 0 0 0-0.0251 0.0237 2.3389 2.3389 0 0 0-0.06043 0.07665 2.3389 2.3389 0 0 0-0.07655 0.10311 2.3389 2.3389 0 0 0-0.08784 0.13701 2.3389 2.3389 0 0 0-0.05799 0.10073 2.3389 2.3389 0 0 0-0.04592 0.09122 2.3389 2.3389 0 0 0-0.01187 0.0237 2.3389 2.3389 0 0 0-0.05158 0.12175 2.3389 2.3389 0 0 0-0.03052 0.07907 2.3389 2.3389 0 0 0-0.0085 0.0237 2.3389 2.3389 0 0 0-0.03962 0.12481 2.3389 2.3389 0 0 0-0.01187 0.04575 2.3389 2.3389 0 0 0-0.02204 0.08782 2.3389 2.3389 0 0 0-0.01526 0.0919 2.3389 2.3389 0 0 0-0.01187 0.07325 2.3389 2.3389 0 0 0-0.0085 0.05498 2.3389 2.3389 0 0 0-0.0095 0.11531 2.3389 2.3389 0 0 0-0.0041 0.0271 2.3389 2.3389 0 0 0-0.0041 0.07325 2.3389 2.3389 0 0 0-0.0041 0.06684 2.3389 2.3389 0 0 0 0.0041 0.08209 2.3389 2.3389 0 0 0 0 0.0237 2.3389 2.3389 0 0 0 0.01187 0.14685 2.3389 2.3389 0 0 0 0.01865 0.14278 2.3389 2.3389 0 0 0 0.0057 0.0305 2.3389 2.3389 0 0 0 0.02204 0.09733 2.3389 2.3389 0 0 0 0.02103 0.0885 2.3389 2.3389 0 0 0 0.02713 0.08782 2.3389 2.3389 0 0 0 0.0085 0.0271 2.3389 2.3389 0 0 0 0.0524 0.14651 2.3389 2.3389 0 0 0 0.04836 0.11294 2.3389 2.3389 0 0 0 0.0064 0.017 2.3389 2.3389 0 0 0 0.0085 0.017 2.3389 2.3389 0 0 0 0.06688 0.1248 2.3389 2.3389 0 0 0 0.07655 0.1282 2.3389 2.3389 0 0 0 0.01187 0.017 2.3389 2.3389 0 0 0 0.08784 0.12176 2.3389 2.3389 0 0 0 0.09751 0.11836 2.3389 2.3389 0 0 0 0.02204 0.0237 2.3389 2.3389 0 0 0 0.06044 0.07023 2.3389 2.3389 0 0 0 0.05237 0.04915 2.3389 2.3389 0 0 0 0.07251 0.07023 2.3389 2.3389 0 0 0 0.0701 0.05799 2.3389 2.3389 0 0 0 0.03391 0.0305 2.3389 2.3389 0 0 0 0.09751 0.07325 2.3389 2.3389 0 0 0 0.03052 0.0203 2.3389 2.3389 0 0 0 0.09991 0.06373 2.3389 2.3389 0 0 0 0.06688 0.03633 2.3389 2.3389 0 0 0 0.03714 0.0203 2.3389 2.3389 0 0 0 0.07336 0.03934 2.3389 2.3389 0 0 0 0.13054 0.06042 2.3389 2.3389 0 0 0 0.11843 0.04575 2.3389 2.3389 0 0 0 0.05237 0.017 2.3389 2.3389 0 0 0 0.09754 0.0305 2.3389 2.3389 0 0 0 0.06366 0.017 2.3389 2.3389 0 0 0 0.08217 0.0203 2.3389 2.3389 0 0 0 0.11602 0.0203 2.3389 2.3389 0 0 0 0.15794 0.0203 2.3389 2.3389 0 0 0 0.13458 0.0102 2.3389 2.3389 0 0 0 0.09429 0.0029h12.179v117.5a2.3392 2.3392 0 0 0 2.3392 2.3392h162.53a2.3392 2.3392 0 0 0 2.3384-2.3392v-117.5h12.2a2.3392 2.3392 0 0 0 1.0048-4.4528l-95.796-45.481a2.3392 2.3392 0 0 0-1.0402-0.22724zm0.0388 4.929 85.413 40.553h-170.83zm-78.939 45.88h157.85v114.51h-62.834v-46.949a2.2258 2.2258 0 0 0-2.2264-2.2264h-27.733a2.2258 2.2258 0 0 0-2.2256 2.2264v46.949h-62.835zm14.418 14.518a2.3392 2.3392 0 0 0-2.3392 2.3384v30.007a2.3392 2.3392 0 0 0 2.3392 2.3392h30.004a2.3392 2.3392 0 0 0 2.3384-2.3392v-30.007a2.3392 2.3392 0 0 0-2.3384-2.3384zm49.507 0a2.3392 2.3392 0 0 0-2.3392 2.3384v30.007a2.3392 2.3392 0 0 0 2.3392 2.3392h30.004a2.3392 2.3392 0 0 0 2.3384-2.3392v-30.007a2.3392 2.3392 0 0 0-2.3384-2.3384zm49.507 0a2.3392 2.3392 0 0 0-2.3392 2.3384v30.007a2.3392 2.3392 0 0 0 2.3392 2.3392h30.004a2.3392 2.3392 0 0 0 2.3384-2.3392v-30.007a2.3392 2.3392 0 0 0-2.3384-2.3384zm-96.676 4.6776h25.327v25.329h-25.327zm49.507 0h25.327v25.329h-25.327zm49.507 0h25.327v25.329h-25.327zm-101.35 42.841a2.3392 2.3392 0 0 0-2.3392 2.3384v30.007a2.3392 2.3392 0 0 0 2.3392 2.3392h30.004a2.3392 2.3392 0 0 0 2.3384-2.3392v-30.007a2.3392 2.3392 0 0 0-2.3384-2.3384zm99.015 0a2.3392 2.3392 0 0 0-2.3392 2.3384v30.007a2.3392 2.3392 0 0 0 2.3392 2.3392h30.004a2.3392 2.3392 0 0 0 2.3384-2.3392v-30.007a2.3392 2.3392 0 0 0-2.3384-2.3384zm-96.676 4.6776h25.327v25.329h-25.327zm99.015 0h25.327v25.329h-25.327zm-48.484 3.0733h23.28v44.726h-23.28z" color="#000000" color-rendering="auto" dominant-baseline="auto" image-rendering="auto" shape-rendering="auto" solid-color="#000000" stop-color="#000000" style="font-feature-settings:normal;font-variant-alternates:normal;font-variant-caps:normal;font-variant-east-asian:normal;font-variant-ligatures:normal;font-variant-numeric:normal;font-variant-position:normal;font-variation-settings:normal;inline-size:0;isolation:auto;mix-blend-mode:normal;shape-margin:0;shape-padding:0;text-decoration-color:#000000;text-decoration-line:none;text-decoration-style:solid;text-indent:0;text-orientation:mixed;text-transform:none;white-space:normal"/>
  <path d="m131.05 303.32c-0.67751 0-0.68386 4e-3 -0.44336 0.26953 0.274 0.30273 0.28566 0.29959-0.77344 0.27149-0.491-0.013-0.77344 0.0338-0.77344 0.1289 0 0.18643 0.93088 1.4487 1.3633 1.8477 0.2542 0.23467 0.51562 0.30384 1.2617 0.33594l0.94141 0.041 0.5 0.73828c0.2753 0.40705 0.5039 0.7863 0.5039 0.8418 2e-3 0.0555-0.48242 0.10156-1.0781 0.10156h-1.084l0.49805 0.90821c0.2741 0.49956 0.65244 1.0738 0.83984 1.2773 0.3177 0.34514 0.41479 0.37109 1.4297 0.37109h1.0879l0.63477 1.2774 0.63476 1.2793h-1.209c-0.8794 0-1.209 0.0457-1.209 0.16796 4e-3 0.42393 0.57265 1.926 0.90624 2.3945l0.36915 0.51953 1.2109 0.0391 1.2109 0.041 0.41992 1.4121c0.2306 0.7771 0.45881 1.5797 0.50782 1.7832l0.0879 0.37109h-3.2676l0.0977 1.168c0.0617 0.74124 0.20031 1.3825 0.37891 1.75l0.28125 0.58008h3.1758v0.78711c0 0.4332 0.0379 1.1603 0.0859 1.6152l0.0859 0.82617h-3.8965l-0.15625 1.4473c-0.112 1.033-0.11527 1.5935-0.0137 1.959l0.14258 0.51172 3.6172-0.082v0.4043c-1e-3 0.38339-0.18636 1.7275-0.34766 2.5195l-0.0762 0.36523-4.4648 0.0742-0.51172 1.6152c-0.3779 1.1962-0.48868 1.7453-0.42968 2.1191l0.0801 0.5039h2.1348c1.1747 0 2.1367 0.0185 2.1367 0.041 0 0.10769-0.94806 2.8312-1.2852 3.6934l-0.38086 0.97656-0.8164 4e-3c-0.4488 3e-3 -1.6323 0.0195-2.6309 0.0351l-1.8164 0.0274-0.95703 1.8164c-0.5273 0.99912-1.0008 2.0447-1.0508 2.3223l-0.0918 0.50391h2.5645c1.4095 0 2.5625 0.035 2.5625 0.0781 0 0.0686-1.6779 3.1314-2.3711 4.3281l-0.2539 0.43554-3.0371 2e-3h-3.0371l-1.2695 1.7773c-1.2071 1.692-1.7065 2.5299-1.7285 2.8965-8e-3 0.12534 0.7073 0.17378 2.9375 0.20118l2.9453 0.0371-0.81445 1.1426c-0.4477 0.62907-1.5956 2.1902-2.5508 3.4668l-1.7363 2.3203h-7.0742l-1.8867 2.123c-1.0379 1.1682-2.0173 2.3787-2.1758 2.6894l-0.28906 0.56641 6.9746 0.0703-1.1621 1.3457c-1.9197 2.2226-5.4938 6.2258-7.0098 7.8516-0.7826 0.83929-1.4722 1.6105-1.5312 1.7148-0.0889 0.15676-0.84834 0.19031-4.373 0.19531l-4.2656 6e-3 -2.7109 2.6524c-2.3219 2.2694-3.4102 3.5373-3.4102 3.9746 0 0.049 1.8205 0.0898 4.0469 0.0898 2.382 0 4.0299 0.0509 4.0039 0.12305-0.0431 0.1182-0.65947 0.77597-3.7344 3.9863-0.7827 0.81726-1.8492 1.9383-2.3691 2.4902-4.3442 4.6118-5.5586 5.9062-6.7773 7.2266l-1.3965 1.5137h-5.1972l-5.1953 2e-3 -3.0918 3.1758c-2.5694 2.6395-3.8379 4.1441-3.8379 4.5508 0 0.0376 2.2805 0.0703 5.0684 0.0723 2.7878 2e-3 5.0911 0.0271 5.1191 0.0547 0.0276 0.0276-1.027 1.3498-2.3438 2.9395-4.5561 5.5003-7.8393 9.9231-10.539 14.197l-0.87109 1.3789h-6.2754l-6.2734 2e-3 -1.1426 1.7148c-1.3838 2.0778-2.033 3.1306-3.1504 5.1113-0.8641 1.5318-0.94138 1.8264-0.73438 2.7949l0.08594 0.4043 12.27 0.1328-0.52734 1.4141c-1.1252 3.0197-2.0706 6.9183-2.5293 10.427-0.1994 1.529-0.24128 4.7794-0.08398 6.627l0.10742 1.2461h-15.119l0.08984 0.97461c0.2386 2.5643 0.75489 5.0684 1.5586 7.5625 0.3309 1.0268 0.51138 1.3492 1.1465 2.0586l0.75195 0.8418h15.268l0.6543 1.1777c0.8616 1.5528 2.4916 3.9776 3.6855 5.4824l0.96094 1.2109s2.9622-0.0364 14.059-0.10547c-0.0746-0.0897-0.5373-0.62734-1.0293-1.1953-1.515-1.7489-4.6875-6.1389-4.6875-6.4863 0-0.0461 22.433-0.084 49.854-0.084h49.855l0.50586 0.44531c1.5883 1.4035 4.8291 3.9114 7.6699 5.9336 1.1286 0.80343 2.0527 1.4825 2.0527 1.5098 9.428 0.0602 14.338 0.0488 14.338 0.0488l-1.9375-1.2988c-3.3001-2.2126-9.0222-6.4165-9.0332-6.6367-2e-3 -0.0374 3.3573-0.051 7.4648-0.0312 4.4136 0.0212 7.4668-0.0157 7.4668-0.0879 0-0.15246-1.1595-1.4694-1.6133-1.832-3.024-2.4164-5.7323-4.8334-8.3906-7.4902l-1.998-1.9961h-14.844l-1.1602-1.4473c-4.2212-5.2622-7.2211-10.575-9.3496-16.566-0.3253-0.91548-0.58985-1.6887-0.58985-1.7168 0-0.0282 2.8458-0.0508 6.3242-0.0508h6.3242v-0.76172c0-0.50165-0.15995-1.2538-0.46875-2.209-0.5009-1.5495-1.254-4.3737-1.6211-6.0781l-0.22461-1.043h-12.322l-0.0801-0.30273c-0.0437-0.16652-0.14842-1.6293-0.23242-3.25-0.2066-3.9837 0.0298-8.6293 0.69922-13.746l0.16406-1.2461 5.0039-0.0469c4.0866-0.0375 5.0455-0.0815 5.2344-0.23828 0.48481-0.40258 0.66975-1.0232 0.83985-2.834 0.0939-0.99912 0.23164-2.4499 0.30664-3.2227 0.075-0.77281 0.11584-1.4269 0.0898-1.4531-0.0262-0.0262-2.2958-0.0441-5.043-0.0391-3.2397 6e-3 -4.9961-0.0379-4.9961-0.125 0-0.20274 1.1288-5.4163 1.7344-8.0117 1.2077-5.1767 1.641-6.9744 1.709-7.084 0.0393-0.0635 1.9385-0.11523 4.2207-0.11523h4.1504l0.35743-0.68359c0.3412-0.65251 0.45496-1.2478 1.0723-5.6074l0.0625-0.4375h-4.1641c-2.2897 0-4.1621-0.0508-4.1621-0.11328 0-0.0625 0.17562-0.9846 0.39062-2.0508 0.3789-1.8791 1.0528-5.8518 1.4316-8.4316l0.084-0.57227h6.9609l0.27539-0.62304c0.2384-0.53934 0.27539-0.89955 0.27539-2.6914v-2.0684h-7.0332l0.0859-0.62304c0.048-0.34337 0.0859-1.9166 0.0859-3.4961v-2.873l2.9805-0.0351 2.9805-0.0371 0.17578-0.50781c0.1509-0.43596 0.13916-0.73903-0.0898-2.1524-0.1467-0.90498-0.29985-1.7514-0.33985-1.8809-0.0664-0.21489-0.33058-0.23632-3.0215-0.23632h-2.9492l-0.0645-0.30274c-0.0357-0.16652-0.19121-1.1683-0.34571-2.2266-0.1544-1.0582-0.31447-2.0118-0.35547-2.1191-0.0638-0.16646 0.30203-0.19531 2.4863-0.19531h2.5644l0.084-0.57227c0.0676-0.46046-0.0209-0.87318-0.45313-2.1191-0.2952-0.85111-0.58081-1.6573-0.63281-1.791-0.0818-0.2104-0.25051-0.24096-1.2539-0.22656-0.63809 9e-3 -1.8062 0.0128-2.5957 8e-3l-1.4355-8e-3 -0.43555-1.3125c-0.2396-0.72158-0.60806-1.7358-0.81836-2.2539-0.2103-0.51808-0.38251-0.98747-0.38281-1.043-2e-4 -0.0555 0.93883-0.0996 2.0859-0.0996h2.0859v-0.57813c0-0.46392-0.17603-0.88599-0.89453-2.1504l-0.89258-1.5723-4.4648-0.0742-0.89844-1.5469-0.89648-1.5469 1.7695-0.0684 1.7695-0.0664-0.0469-0.33594c-0.076-0.55936-0.38719-1.0884-1.3711-2.3223l-0.93945-1.1777-3.832-4e-3 -1.2402-1.6113-1.2402-1.6133h1.4746c0.8115 0 1.4766-0.0507 1.4766-0.11328 0-0.34959-0.5858-1.1615-1.5918-2.2051l-1.1387-1.1797h-3.2891l-1.7676-1.7676c-0.9719-0.97189-1.7676-1.7892-1.7676-1.8164s0.48723-0.0488 1.082-0.0488h1.0801l-0.32422-0.47852c-0.3227-0.4749-0.66298-0.78988-2.1465-1.9883l-0.77735-0.6289h-2.5684l-1.166-0.98047c-0.6417-0.53962-1.3394-1.1132-1.5488-1.2734l-0.38086-0.29102 1.0254-0.0391 1.0234-0.041-0.41211-0.44922c-0.2261-0.24709-0.93507-0.80665-1.5762-1.2441l-1.166-0.79493h-1.0976c-1.0574 0-1.1249-0.0201-1.8906-0.5371-0.4371-0.29516-0.97712-0.68591-1.1992-0.86915l-0.40429-0.33398 0.84179-4e-3 0.8418-6e-3 -0.50586-0.45312c-0.2778-0.24945-0.83714-0.65252-1.2441-0.89648-0.4071-0.24397-0.85238-0.53847-0.98828-0.6543-0.1737-0.14822-0.55718-0.21682-1.2969-0.22852-0.82-0.013-1.1554-0.0796-1.5195-0.30468-0.2994-0.18498-0.67854-0.28625-1.0566-0.28126-0.5753 7e-3 -0.58056 0.0127-0.28516 0.21876 0.1665 0.11615 0.30274 0.24842 0.30274 0.29492 1e-4 0.0461-1.1287 0.0709-2.5078 0.0547-2.3499-0.0276-2.5198-0.0466-2.6992-0.30273-0.1499-0.21392-0.33995-0.27344-0.87695-0.27344zm6.2773 2.8242h3.1523l1.0859 0.81836c0.5966 0.44957 1.084 0.84155 1.084 0.87305v2e-3c0 0.0315-1.6493 0.0528-3.666 0.0488l-3.668-8e-3 -0.57031-0.78516c-0.3145-0.4322-0.57227-0.82249-0.57227-0.86719s1.4197-0.082 3.1543-0.082zm4.2207 4.3066h4.4141l0.73243 0.62305c0.4026 0.34312 1.0547 0.91933 1.4492 1.2793l0.71876 0.65429h-5.1914c-2.8553 0-5.1914-0.0515-5.1914-0.11328 0-0.0618-0.30383-0.6095-0.67383-1.2188-0.3701-0.60926-0.67187-1.134-0.67187-1.166 0-0.0321 1.9859-0.0586 4.4141-0.0586zm4.5469 5.6504h6.0332l1.2539 1.3125c0.6896 0.72158 1.4385 1.5389 1.6641 1.8164l0.41015 0.50586h-5.4941c-3.0221 5e-4 -5.888 0.0236-6.3691 0.0508-0.481 0.0267-1.1874 0.0235-1.5684-8e-3l-0.69336-0.0566-0.55664-1.5742c-0.3063-0.866-0.59176-1.681-0.63476-1.8106-0.0735-0.22189 0.26938-0.23633 5.9551-0.23633zm4.207 7.1328h8.0566l1.0059 1.4473c0.5537 0.79559 1.0505 1.5208 1.1035 1.6133 0.0761 0.1338-1.7349 0.16797-8.8613 0.16797-4.926 0-8.9648-0.0147-8.9648-0.0332-0.0408-0.16853-0.37867-2.7808-0.38867-2.9609-6e-3 -0.22168 0.46403-0.23437 8.0488-0.23437zm2.5352 7.0918 10.064 0.0274 0.6914 1.3184c0.3806 0.72514 0.73321 1.4546 0.78321 1.6211l0.0918 0.30273h-21.953l0.0762-1.3789c0.0423-0.75859 0.0999-1.5004 0.12891-1.6484 0.0524-0.26654 0.14918-0.26909 10.117-0.24219zm-11.1 7.5742h24.539l0.56445 1.918c0.3105 1.0546 0.60339 2.1149 0.65039 2.3555l0.0859 0.4375-3.0781 2e-3c-1.693 9e-4 -7.6486 0.0156-13.236 0.0332-5.5876 0.0176-10.296 0.0119-10.463-0.0117-0.1666-0.0236-0.30274-0.0926-0.30274-0.15235 0-0.0598 0.17327-0.67545 0.38477-1.3691 0.2115-0.69368 0.48954-1.6998 0.61914-2.2363zm-3.1172 9.4199h29.834l0.0938 0.87891c0.1664 1.5521 0.31 3.7612 0.25 3.8652-0.0554 0.0965-32.473 0.15109-32.473 0.0547 0-0.0257 0.51558-1.1173 1.1465-2.4238zm-5.1172 9.6895h35.293l-0.0801 1.5801c-0.0446 0.86961-0.18495 2.4434-0.31055 3.498l-0.22851 1.918h-19.637c-10.8 0-19.619-0.0467-19.594-0.10352 0.0247-0.0568 0.45879-0.70651 0.96289-1.4453s1.5175-2.2678 2.2539-3.3965zm-8.7188 12.379h21.178c19.663 0 21.178 0.0167 21.178 0.22461 0 0.59301-2.2392 9.7219-2.627 10.709-0.0876 0.22309-1.3768 0.23437-24.443 0.23437h-24.352l0.38086-0.45117c4.5398-5.4034 7.924-9.5534 8.4688-10.385zm11.383 17.898c24.97-2e-3 26.279 0.0106 26.209 0.23437-1.7147 5.507-4.5215 14.849-4.5215 15.053 0 0.0285-13.784 0.0527-30.633 0.0527-29.161 0-30.624-0.0122-30.434-0.23633 3.3768-3.9794 5.5046-6.4383 11.48-13.258l1.6152-1.8418zm-13.133 23.127c17.997 0.0127 32.743 0.0454 32.77 0.0723 0.0269 0.0269-0.13854 1.0099-0.36914 2.1836-0.86 4.3774-1.2934 7.8444-1.4922 11.949-0.076 1.5583-0.0988 3.1819-0.0508 3.6074l0.08791 0.77341h-76.33l0.22266-0.4375c1.1064-2.1737 4.4197-7.4498 6.4414-10.26 0.2663-0.37004 0.64349-0.9149 0.83789-1.2109 0.5491-0.83622 4.7236-6.3372 4.9551-6.5293 0.1658-0.13767 6.6185-0.16684 32.928-0.14844zm-15.781 28.65c7.4339 0 15.543 9e-3 22.533 0.0273l25.418 0.0664 0.32031 1.2129c1.61 6.1192 4.7551 12.489 8.7539 17.729l0.58984 0.77344h-46.625c-44.288 0-46.628-0.0126-46.695-0.23633-0.0388-0.12951-0.17845-0.9321-0.31055-1.7832-0.3647-2.3537-0.32478-7.4698 0.07813-10.08 0.2788-1.8064 1.2302-5.8461 1.668-7.0762l0.19336-0.53907 15.594-0.0664c4.2888-0.0185 11.049-0.0273 18.482-0.0273z" stroke-width=".13456"/>
  <path d="m671.44 307.94c-1.2846 0-2.3183 1.0336-2.3183 2.3183v66.802h-66.802c-1.2846 0-2.3183 1.0337-2.3183 2.3183v27.123c0 1.2846 1.0336 2.3183 2.3183 2.3183h66.802v66.8c0 1.2846 1.0336 2.3196 2.3183 2.3196h27.123c1.2846 0 2.3183-1.035 2.3183-2.3196v-66.8h66.8c1.2846 0 2.3196-1.0336 2.3196-2.3183v-27.123c0-1.2846-1.035-2.3183-2.3196-2.3183h-66.8v-66.802c0-1.2846-1.0337-2.3183-2.3183-2.3183z" stop-color="#000000" stroke-width="23.142"/>
  <path d="m464.36 321c-1.2283 4e-3 -2.4568 0.0781-3.6777 0.22114-4.8838 0.57185-9.6521 2.2836-13.683 5.0988-1.9783 1.3814-3.776 3.0239-5.3028 4.8922-1.9138 2.3418-3.3965 5.0362-4.3482 7.9069 2.5812-2.7139 5.9352-4.6879 9.5612-5.6259 3.6259-0.93811 7.5131-0.83746 11.087 0.2844 3.7642 1.1815 7.0952 3.438 10.212 5.8567 3.1169 2.4187 6.095 5.0396 9.4517 7.1126 2.7603 1.7046 5.8754 3.0466 9.1191 2.9951 1.6219-0.0257 3.2505-0.41039 4.6591-1.2145 1.4087-0.80434 2.5866-2.0402 3.2235-3.532 0.7226-1.6928 0.721-3.6359 0.2478-5.4146-0.4732-1.7787-1.3911-3.4094-2.451-4.9142-4.1009-5.8219-10.397-9.9137-17.201-12.015-3.5237-1.0879-7.2124-1.6696-10.897-1.6518zm-49.679 7.8437c-6.2092-0.10695-12.418 1.8171-17.747 5.0453-4.2056 2.5476-7.9365 5.9127-10.754 9.9425-2.8174 4.0298-4.7064 8.7296-5.281 13.613-0.28192 2.3964-0.25071 4.8321 0.13118 7.2146 0.47864 2.9862 1.5086 5.8835 3.0218 8.502-0.31335-3.7322 0.43937-7.547 2.1474-10.88 1.708-3.3332 4.3665-6.1733 7.5789-8.0988 3.384-2.0284 7.2833-3.0185 11.162-3.7409 3.8786-0.72252 7.8147-1.2079 11.594-2.3393 3.108-0.93035 6.1812-2.3658 8.298-4.8243 1.0583-1.2293 1.8538-2.7027 2.1887-4.2899 0.33476-1.5871 0.19383-3.2891-0.49801-4.7562-0.78502-1.6648-2.238-2.9542-3.8818-3.7822-1.6438-0.82805-3.474-1.2256-5.3028-1.4332-0.88448-0.10028-1.7705-0.15685-2.6575-0.17228zm26.33 19.713c-3.0745 0.0154-6.1448 0.41143-9.1045 1.2389-4.7354 1.324-9.179 3.7559-12.724 7.1635-1.7395 1.6722-3.2614 3.5745-4.4794 5.6575-1.5264 2.6108-2.5718 5.5037-3.0655 8.4874 2.1279-3.0821 5.134-5.5518 8.57-7.0421 3.436-1.4904 7.2924-1.9978 10.997-1.4454 3.9021 0.58196 7.5418 2.2927 10.997 4.1975 3.455 1.9048 6.8047 4.0319 10.443 5.558 2.9917 1.2548 6.2773 2.0976 9.4736 1.5425 1.5983-0.27721 3.1473-0.91286 4.4138-1.9263 1.2665-1.0135 2.2385-2.416 2.6357-3.9887 0.4506-1.7846 0.1464-3.7044-0.5976-5.3878-0.7441-1.6835-1.9036-3.1529-3.1846-4.4745-4.9561-5.1136-11.812-8.1743-18.86-9.1919-1.825-0.26331-3.6695-0.396-5.5142-0.3888zm55.44 20.896-56.803 15.019-20.859 50.077h77.662zm-97.404 6.0996c-2.7471-0.0792-5.6868 1.5228-12.93 6.7312-8.1434 5.8553-11.092 6.9515-17.463 6.4955-5.1858-0.3708-6.8734-1.1866-15.25-7.37-7.6418-5.6409-10.248-6.633-13.914-5.3029-1.3997 0.5076-7.1403 4.2477-12.758 8.3126l-10.215 7.3919-0.0315 10.2c-0.0283 8.0674 0.13445 10.072 0.77005 9.5805 0.44188-0.34148 4.2822-3.1153 8.536-6.1627 6.1155-4.3809 8.5898-5.7585 11.818-6.5854 7.3516-1.8834 11.243-0.62306 21.561 6.9862 6.5055 4.7975 7.329 5.2195 10.63 5.4583 3.4678 0.25098 3.7354 0.14864 8.6939-3.3231 11.597-8.1202 12.56-8.6826 16.079-9.413 6.8096-1.4137 11.102 0.11525 21.547 7.6736 1.7294 1.2515 3.047 2.1961 4.1126 2.9174l8.5069-20.315c-0.72504 0.0524-1.4809 0.0803-2.3102 0.0777-5.4221-0.0206-7.7654-1.082-16.834-7.6445-4.1781-3.0236-8.0525-5.3301-9.3692-5.5773-0.39672-0.074-0.7833-0.11988-1.1757-0.13117zm-53.354 32.541-3.8575 0.23554c-3.7751 0.2304-4.0635 0.38777-13.722 7.4891-5.4262 3.9894-10.269 7.4084-10.764 7.5983-0.67144 0.25765-0.89878 1.7094-0.89878 5.7377v5.3952h93.143l6.8089-16.263c-0.50422-0.29931-1.0054-0.60721-1.4891-0.94736-13.586-9.5554-12.837-9.1409-16.482-9.1409-3.2588 0-3.7635 0.24788-10.591 5.1886-14.937 10.81-19.711 10.882-34.079 0.52472z" stroke-width=".64267"/>
</svg>
