<svg id="svg1700" version="1.1" viewBox="0 0 810 530" xmlns="http://www.w3.org/2000/svg">
  <path id="landslide" d="m20.22 280h209.56c11.201 0 20.22 9.0179 20.22 20.22v209.56c0 11.201-9.0179 20.22-20.22 20.22h-209.56c-11.201 0-20.22-9.0179-20.22-20.22v-209.56c0-11.201 9.0179-20.22 20.22-20.22z" fill="#fff" stop-color="#000000" stroke-width="1.0059"/>
  <path id="path2072" d="m37.499 394.82v-78.375l0.62955 0.14789c3.3425 0.78551 14.788 3.7702 14.905 3.8867 0.083 0.0829-0.04501 2.151-0.27651 4.5959-0.56105 5.8423-0.55676 15.803 0.0098 20.757 1.5132 13.247 6.4296 23.987 14.252 31.131 3.3689 3.0772 8.2304 6.0474 12.57 7.6797 2.3523 0.88486 7.2405 2.0945 8.4657 2.095 0.7733 3e-4 1.1252 0.28724 2.6563 2.1688 5.8254 7.1573 13.024 14.132 19.172 18.575 12.142 8.7756 25.375 11.634 35.373 7.6403 1.3271-0.53011 2.5102-0.96385 2.629-0.96385 0.11849 0 0.7966 0.5351 1.5061 1.1891 2.55 2.3508 14.323 13.142 22.831 20.928 4.7706 4.3656 9.3033 8.5228 10.073 9.2385 0.76945 0.71553 7.5685 6.9376 15.109 13.827 7.5405 6.8891 14.022 12.825 14.403 13.191l0.69311 0.66467h-175zm128.49 16.893 0.0816-2.1717 5.1762-0.0302c7.1433-0.0401 7.8943-0.0748 7.7878-0.36624-0.09-0.24567-3.3607-3.0138-10.467-8.858-3.1015-2.5509-19.709-16.401-20.442-17.048-1.1558-1.0204-3.4248-2.9186-10.595-8.8637-4.4628-3.7002-8.6732-7.1856-9.3565-7.7455-0.6833-0.55984-1.6008-1.3327-2.0389-1.7174l-0.79645-0.69952 2.0389-2.024c1.1213-1.1131 2.1311-2.1077 2.2438-2.2101 0.16199-0.14751 2.8567 1.8817 4.8731 3.6693 0.17646 0.157 0.7998 0.66272 1.3845 1.1244 0.58471 0.46149 1.5732 1.2897 2.1968 1.8402 0.62352 0.55045 3.8407 3.2465 7.1493 5.9914 3.3086 2.7447 6.4684 5.3791 7.0217 5.854 0.55332 0.475 1.3938 1.1785 1.8678 1.5632 0.9734 0.7901 3.7999 3.1414 12.095 10.062 3.1547 2.6318 7.3097 6.0977 9.2333 7.7023 1.9236 1.6043 4.5587 3.8037 5.8558 4.8875 1.2972 1.0837 2.4617 1.9705 2.5881 1.9705 0.1265 0 0.23002-2.9589 0.23002-6.5752v-6.5753h4.4832l-0.0729 11.122-0.0729 11.122-11.274 0.0733-11.274 0.0729zm-29.857-2.744c-4.1721-0.65782-11.868-2.8575-14.058-4.0176-0.2705-0.14325-1.5621-0.78708-2.8701-1.4305-3.0464-1.4983-4.1173-2.1668-7.7758-4.8544-3.1286-2.2983-4.0812-3.1309-9.1519-8.0008-5.251-5.043-6.8696-6.2014-14.283-10.224-12.12-6.5746-15.187-8.8795-18.399-13.822-3.1055-4.7794-5.4206-12.403-6.338-20.873-0.43549-4.0198-1.1264-13.423-1.1287-15.362-0.0019-1.5496 0.02986-1.6256 0.4875-1.2256 0.72006 0.62736 5.466 3.5596 8.0442 4.9698 6.15 3.3643 6.1783 3.4012 17.911 23.369 0.90425 1.5388 1.8744 3.1127 2.1559 3.4975 3.5156 4.8038 5.3189 6.515 9.5315 9.0445 1.1981 0.7194 2.2281 1.308 2.2888 1.308 0.0604 0 0.90613 0.36763 1.8787 0.81607 0.9725 0.44898 3.1532 1.338 4.846 1.9758 8.5455 3.2202 10.98 4.4108 14.474 7.0794 6.5421 4.9965 13.8 14.366 15.764 20.346 0.71591 2.1811 0.69835 5.153-0.0399 6.5582-0.31801 0.60612-0.69569 1.1234-0.8394 1.1493-0.14351 0.0265-1.2685-0.1115-2.4997-0.30576z" stroke-width=".2798"/>
  <path id="path1017" d="m41.482 486.07-4.3242 25.252h7.459c1.5733 0 2.9215-0.20183 4.0469-0.60351 1.4814-0.51681 2.7745-1.4231 3.877-2.7207 1.1139-1.2977 2.0446-2.9391 2.791-4.9258 0.75794-1.998 1.1367-4.22 1.1367-6.666 0-1.8374-0.23013-3.4626-0.68945-4.875-0.45934-1.4125-1.115-2.5447-1.9648-3.3946-0.8383-0.84983-1.7955-1.4302-2.875-1.7402-0.73497-0.21845-1.8041-0.32617-3.2051-0.32617zm50.955 0-4.3242 25.252h2.5664l4.3242-25.252zm6.5078 0.0227-0.60156 3.5312h2.5488l0.60351-3.5312zm96.105 0.26948-2.9277 2.1543-0.77539 4.4961h-2.0156l-0.41406 2.4101h2.0156l-1.8086 10.629c-0.25262 1.447-0.37891 2.3715-0.37891 2.7734 0 0.84978 0.27496 1.5279 0.82618 2.0332 0.5627 0.50532 1.3203 0.75779 2.2734 0.75779 0.57417 0 1.1668-0.0975 1.7754-0.29291l0.44727-2.5488c-0.44787 0.13757-0.95293 0.20522-1.5156 0.20522-0.37896 0-0.66001-0.0918-0.84375-0.27552-0.18373-0.18369-0.27538-0.47698-0.27538-0.87889 0-0.22979 0.10798-0.99144 0.32617-2.289l1.7402-10.113h2.498l0.41406-2.4101h-2.498zm-151.29 2.584h3.668c1.4469 0 2.51 0.14475 3.1875 0.43165 0.94167 0.39043 1.6829 1.1541 2.2227 2.291 0.5512 1.1254 0.82617 2.6466 0.82617 4.5644 0 2.182-0.31566 4.1288-0.94726 5.8399-0.62011 1.711-1.3553 3.043-2.2051 3.9961-0.8498 0.9417-1.8151 1.5791-2.8945 1.9121-1.068 0.32164-2.3714 0.48242-3.9102 0.48242h-3.2891zm161.03 3.6621c-2.4919 0-4.4795 1.1364-5.9609 3.4102-1.4814 2.2739-2.2207 5.0597-2.2207 8.3555 0 2.2737 0.57842 4.07 1.7383 5.3906 1.1598 1.3091 2.6302 1.9629 4.4102 1.9629 1.3551 0 2.6463-0.4419 3.875-1.3262 1.2402-0.89574 2.2462-2.2337 3.0156-4.0137 0.7809-1.7801 1.1719-3.8002 1.1719-6.0625 0-2.4689-0.57016-4.369-1.707-5.7012-1.1369-1.3436-2.5768-2.0156-4.3223-2.0156zm-62.941 8e-3c-0.8383 0-1.6305 0.23622-2.377 0.70703-0.74644 0.45932-1.614 1.3656-2.6016 2.7207l0.51562-3.0137h-2.5488l-3.1348 18.293h2.5488l1.5-8.6465c0.45933-2.6873 1.1945-4.6056 2.2051-5.7539 1.0221-1.1599 2.1014-1.7402 3.2383-1.7402 0.47083 0 0.85985 0.17915 1.1699 0.53518 0.32152 0.35603 0.48242 0.83667 0.48242 1.4453 0 0.36737-0.0734 0.97224-0.22265 1.8105l-2.1191 12.35h2.5664l1.5156-8.8711c0.34454-1.9752 0.74575-3.417 1.2051-4.3242 0.47084-0.91872 1.098-1.6356 1.8789-2.1524 0.78087-0.52826 1.5263-0.79298 2.2383-0.79298 0.53974 0 0.97143 0.16706 1.293 0.50003 0.32152 0.32164 0.48242 0.79196 0.48242 1.4121 0 0.43638-0.0875 1.1491-0.25977 2.1367l-2.0664 12.092h2.5488l2.0156-11.783c0.22968-1.2976 0.34571-2.2386 0.34571-2.8242 0-1.3321-0.33392-2.3483-1-3.0488-0.6546-0.70049-1.573-1.0508-2.7559-1.0508-0.93016 0-1.8201 0.28724-2.6699 0.86135-0.84976 0.56269-1.6542 1.418-2.4121 2.5664-0.2067-1.1139-0.62621-1.9632-1.2578-2.5488-0.6316-0.58567-1.4055-0.87892-2.3242-0.87892zm40.551 0c-0.82683 0-1.6822 0.26456-2.5664 0.79297-0.88424 0.51678-1.8678 1.4516-2.9473 2.8066l0.53516-3.1856h-2.3086l-3.1348 18.293h2.5488l1.4648-8.5098c0.48234-2.8134 1.2338-4.7889 2.2558-5.9258 1.0335-1.1369 2.1943-1.7051 3.4805-1.7051 0.6201 0 1.1069 0.18331 1.4629 0.55079 0.36748 0.35603 0.55274 0.8508 0.55274 1.4824 0 0.53972-0.0977 1.3768-0.29295 2.5137l-1.998 11.594h2.5664l1.8945-11.076c0.25262-1.447 0.3789-2.4917 0.3789-3.1348 0-1.4355-0.36245-2.5433-1.0859-3.3242-0.71197-0.78085-1.6468-1.1719-2.8066-1.1719zm-100.93 4e-3c-1.6077 0-2.9069 0.49288-3.8945 1.4805-0.9876 0.98758-1.4805 2.2461-1.4805 3.7734 0 0.74642 0.13236 1.4226 0.39648 2.0313 0.26415 0.59716 0.63073 1.1083 1.1016 1.5332 0.48234 0.41337 1.47 1.0101 2.9629 1.791 1.2977 0.67756 2.1428 1.2518 2.5332 1.7227 0.37897 0.47085 0.56836 1.0003 0.56836 1.586 0 0.81535-0.30542 1.4874-0.91406 2.0156-0.60864 0.51677-1.4355 0.77344-2.4805 0.77344-1.1483 0-2.0546-0.36662-2.7207-1.1015-0.66591-0.735-0.99376-1.8489-0.98242-3.3418l-2.5664 0.18935v0.34356c-3.4e-5 2.0096 0.54575 3.5656 1.6367 4.668 1.091 1.1024 2.5939 1.6543 4.5117 1.6543 1.9063 0 3.3949-0.54576 4.4629-1.6367 1.0795-1.091 1.6191-2.3943 1.6191-3.9102 0-1.3666-0.40316-2.5254-1.207-3.4785-0.52827-0.60865-1.7624-1.4252-3.7031-2.4473-1.2632-0.65457-2.0493-1.176-2.3594-1.5664-0.31007-0.37893-0.46484-0.83304-0.46484-1.3613 0-0.60861 0.25863-1.1422 0.77539-1.6015 0.51677-0.47089 1.1888-0.70707 2.0156-0.70707 1.0565 0 1.8935 0.30954 2.5137 0.92972 0.6316 0.62007 0.96553 1.5059 1 2.6543l2.5137-0.20711c-0.04592-1.8259-0.5856-3.2434-1.6191-4.2539-1.0335-1.022-2.4388-1.5332-4.2187-1.5332zm-15.213 0.0151c-1.3666 0-2.6353 0.42977-3.8066 1.291-1.1713 0.84982-2.1632 2.2041-2.9785 4.0644-0.80387 1.8603-1.207 3.8643-1.207 6.0117 0 1.6307 0.26472 3.0379 0.79297 4.2207 0.52824 1.1713 1.239 2.0552 2.1348 2.6524 0.89573 0.58567 1.8895 0.87888 2.9805 0.87888 1.5388 0 2.9338-0.55596 4.1855-1.6699 1.5044-1.3206 2.4635-2.8724 2.877-4.6523l-2.498-0.3084c-0.47084 1.3206-1.1307 2.3307-1.9805 3.0312-0.8383 0.70053-1.6936 1.0508-2.5664 1.0508-0.9187 0-1.7048-0.4419-2.3594-1.3262-0.65457-0.89571-0.98242-2.2052-0.98242-3.9277 0-0.28724 0.01625-0.61496 0.0508-0.9824h11.061c0.12635-0.94167 0.18947-1.8601 0.18947-2.7559 0-2.4117-0.55186-4.277-1.6543-5.5977-1.0909-1.3206-2.5042-1.9805-4.2383-1.9805zm98.115 0c-1.3666 0-2.6353 0.42977-3.8066 1.291-1.1713 0.84982-2.1632 2.2041-2.9785 4.0644-0.80387 1.8603-1.207 3.8643-1.207 6.0117 0 1.6307 0.26472 3.0379 0.79297 4.2207 0.52823 1.1713 1.241 2.0552 2.1367 2.6524 0.89574 0.58567 1.8876 0.87888 2.9785 0.87888 1.5388 0 2.9338-0.55596 4.1856-1.6699 1.5044-1.3206 2.4636-2.8724 2.877-4.6523l-2.498-0.3084c-0.47084 1.3206-1.1307 2.3307-1.9805 3.0312-0.83831 0.70053-1.6936 1.0508-2.5664 1.0508-0.9187 0-1.7048-0.4419-2.3594-1.3262-0.65457-0.89571-0.98243-2.2052-0.98243-3.9277 0-0.28724 0.0163-0.61496 0.0508-0.9824h11.061c0.12635-0.94167 0.18947-1.8601 0.18947-2.7559 0-2.4117-0.55186-4.277-1.6543-5.5977-1.0909-1.3206-2.5042-1.9805-4.2383-1.9805zm-40.117 4e-3c-3.4911 0-5.7821 1.8716-6.873 5.6152l2.584 0.27553c0.6316-2.2278 2.0083-3.3418 4.1328-3.3418 1.0565 0 1.8609 0.23622 2.4121 0.70703 0.5627 0.45936 0.84375 1.0744 0.84375 1.8438 0 0.55121-0.10383 1.262-0.31056 2.1348-0.37897 0.18368-0.83721 0.32201-1.377 0.41404-0.52824 0.0918-1.5098 0.17764-2.9453 0.25777-1.6996 0.0805-3.009 0.35716-3.9277 0.82809-0.90723 0.45939-1.6139 1.1253-2.1191 1.9981s-0.75781 1.895-0.75781 3.0664c0 1.6422 0.43582 2.9394 1.3086 3.8926 0.88424 0.95315 1.9921 1.4297 3.3242 1.4297 0.84981 0 1.6888-0.20144 2.5156-0.60351 0.8268-0.40191 1.7107-1.0964 2.6523-2.084 0.0574 0.94166 0.16127 1.6993 0.31056 2.2734h2.5664c-0.19521-1.0335-0.29295-1.8665-0.29295-2.4981 0-0.89575 0.13236-2.0667 0.39648-3.5137l0.82617-4.5468c0.22968-1.2977 0.34571-2.43 0.34571-3.3946 0-1.3666-0.50505-2.4968-1.5156-3.3926-1.0106-0.9072-2.3771-1.3613-4.0996-1.3613zm-20.859 0.39062-0.44726 2.6016h5.5644c0.53974 0 1.4175-0.0752 2.6348-0.2245-0.71197 0.83833-1.3555 1.6469-1.9297 2.4277l-8.0606 11.076-0.41406 2.4121h12.076l0.46485-2.7383h-5.9082c-0.52823 0-1.4996 0.051-2.9121 0.1542 0.90724-1.1024 1.5914-1.968 2.0508-2.5996l8.1465-11.146 0.32813-1.9629zm-5.6328 0.0227-3.1348 18.293h2.5488l3.1348-18.293zm106.94 1.9688c1.0106 0 1.8598 0.45218 2.5488 1.3594 0.689 0.89574 1.0332 2.2174 1.0332 3.9629 0 1.6077-0.30346 3.1758-0.91211 4.7031-0.60863 1.5273-1.3214 2.623-2.1367 3.289-0.81534 0.65461-1.63 0.98244-2.4453 0.98244-1.0335 0-1.895-0.44193-2.584-1.3262-0.68904-0.88421-1.0332-2.1937-1.0332-3.9277 0-1.6996 0.28105-3.3023 0.84375-4.8067 0.57417-1.5158 1.2747-2.6013 2.1016-3.2559 0.8383-0.65457 1.6997-0.98047 2.584-0.98047zm-138.39 0.0431c0.99907 0 1.8198 0.40736 2.4629 1.2227 0.64307 0.81532 0.96485 2.0392 0.96485 3.6699v0.63673h-8.4238c0.44786-1.8489 1.1199-3.2317 2.0156-4.1504 0.9072-0.91869 1.901-1.3789 2.9805-1.3789zm98.115 0c0.9991 0 1.8198 0.40736 2.4629 1.2227 0.64311 0.81532 0.96485 2.0392 0.96485 3.6699v0.63673h-8.4238c0.44787-1.8489 1.1199-3.2317 2.0156-4.1504 0.90721-0.91869 1.901-1.3789 2.9805-1.3789zm-37.76 7.0156c-0.28709 1.9293-0.672 3.3711-1.1543 4.3242-0.4708 0.95312-1.0839 1.6822-1.8418 2.1875-0.75793 0.50528-1.546 0.75782-2.3613 0.75782-0.86127 0-1.5496-0.26872-2.0664-0.80858-0.51677-0.53975-0.77539-1.2749-0.77539-2.2051 0-0.67751 0.1609-1.2742 0.48242-1.791 0.32156-0.51673 0.76958-0.90164 1.3438-1.1543 0.5742-0.25285 1.6311-0.46034 3.1699-0.62108 1.5044-0.16063 2.5715-0.3908 3.2031-0.68946z" stroke-width="1.3229" style="font-variant-caps:normal;font-variant-east-asian:normal;font-variant-ligatures:normal;font-variant-numeric:normal;text-orientation:upright"/>
  <path id="sinkhole" d="m301.67 280h209.56c11.201 0 20.22 9.0179 20.22 20.22v209.56c0 11.201-9.0179 20.22-20.22 20.22h-209.56c-11.201 0-20.22-9.0179-20.22-20.22v-209.56c0-11.201 9.0179-20.22 20.22-20.22z" fill="#fff" stop-color="#000000" stroke-width="1.0059"/>
  <path id="path1042" d="m400.64 491.09-0.60351 3.5313h2.5488l0.60351-3.5313zm-53.617 0.0265-11.73 25.254h3.0312l3.3242-7.2695h8.3711l1 7.2695h2.6875l-3.4121-25.254zm13.418 0-4.3242 25.254h2.2402l0.60155-3.4629c0.84981 2.5838 2.3038 3.875 4.3594 3.875 1.0909 0 2.1988-0.44193 3.3242-1.3262 1.1254-0.8957 2.0724-2.2683 2.8418-4.1172 0.76944-1.8604 1.1543-3.9335 1.1543-6.2188 0-2.4804-0.47652-4.3398-1.4297-5.5801-0.95313-1.2518-2.1241-1.877-3.5137-1.877-0.67754 0-1.3496 0.1833-2.0156 0.55078-0.65457 0.35603-1.3958 0.99949-2.2226 1.9297l1.5508-9.0274zm34.877 0.29291-2.9278 2.1524-0.77541 4.4961h-2.0156l-0.41211 2.4121h2.0156l-1.8086 10.629c-0.25285 1.447-0.38086 2.3715-0.38086 2.7734 0 0.84978 0.27704 1.5259 0.82812 2.0312 0.56273 0.50528 1.3203 0.75783 2.2734 0.75783 0.57418 0 1.1648-0.0975 1.7734-0.29291l0.44923-2.5488h-2e-3c-0.44784 0.13757-0.95289 0.20711-1.5156 0.20711-0.37901 0-0.66005-0.0918-0.84374-0.27552-0.18368-0.18369-0.27552-0.47697-0.27552-0.87889 0-0.22979 0.1096-0.99333 0.32806-2.291l1.7402-10.111h2.4961l0.41404-2.4121h-2.4978zm70.852 0-2.9278 2.1524-0.77537 4.4961h-2.0156l-0.41408 2.4121h2.0156l-1.8086 10.629c-0.25285 1.447-0.37893 2.3715-0.37893 2.7734 0 0.84978 0.27515 1.5259 0.8262 2.0312 0.56269 0.50528 1.3203 0.75783 2.2734 0.75783 0.57422 0 1.1668-0.0975 1.7754-0.29291l0.44727-2.5488c-0.44788 0.13757-0.95293 0.20711-1.5157 0.20711-0.37901 0-0.66005-0.0918-0.84374-0.27552-0.18368-0.18369-0.27552-0.47697-0.27552-0.87889 0-0.22979 0.10771-0.99333 0.32617-2.291l1.7402-10.111h2.498l0.41408-2.4121h-2.4981zm-117.87 2.4629c0.0803 1.6882 0.27587 3.7856 0.58594 6.289l0.79297 6.3379h-6.8379l3.4102-7.4766c0.90724-1.9867 1.5895-3.7034 2.0488-5.1504zm87.16 3.7597c-1.3665 0-2.6353 0.42973-3.8066 1.291-1.1714 0.84975-2.1651 2.2041-2.9804 4.0644-0.8039 1.8602-1.2051 3.8643-1.2051 6.0117 0 1.6307 0.26268 3.0378 0.79101 4.2207 0.52826 1.1714 1.241 2.0552 2.1367 2.6524 0.89574 0.58567 1.8895 0.87892 2.9805 0.87892 1.5388 0 2.9338-0.556 4.1855-1.6699 1.5044-1.3206 2.4635-2.8723 2.877-4.6523l-2.498-0.30841c-0.47085 1.3206-1.1307 2.3308-1.9805 3.0313-0.83833 0.70049-1.6937 1.0508-2.5664 1.0508-0.91868 0-1.7048-0.44194-2.3594-1.3262-0.65458-0.89575-0.98241-2.2052-0.98241-3.9277 0-0.28724 0.0151-0.61489 0.0506-0.9824h11.059c0.12624-0.94163 0.18936-1.8601 0.18936-2.7559 0-2.4117-0.54992-4.277-1.6523-5.5977-1.091-1.3206-2.5042-1.9805-4.2383-1.9805zm-54.584 4e-3c-3.4911 0-5.7821 1.8715-6.873 5.6152l2.584 0.27553c0.6316-2.2279 2.0103-3.3418 4.1348-3.3418 1.0565 0 1.8589 0.23622 2.4102 0.70703 0.56273 0.45928 0.8457 1.0743 0.8457 1.8438 0 0.55124-0.10394 1.262-0.31068 2.1347-0.37897 0.18369-0.83916 0.32202-1.3789 0.41409-0.52827 0.0918-1.5099 0.17725-2.9453 0.25776-1.6996 0.0805-3.009 0.35716-3.9277 0.82812-0.90721 0.45933-1.6119 1.1253-2.1172 1.998-0.5053 0.87276-0.75978 1.8951-0.75978 3.0664 0 1.6422 0.43778 2.9394 1.3106 3.8926 0.88424 0.95315 1.9921 1.4297 3.3242 1.4297 0.84981 0 1.6888-0.20145 2.5156-0.60351 0.8268-0.40191 1.7107-1.0964 2.6523-2.084 0.0571 0.94163 0.16101 1.6993 0.31067 2.2734h2.5664c-0.1954-1.0335-0.29291-1.8664-0.29291-2.498 0-0.89574 0.13266-2.0667 0.3965-3.5137l0.82617-4.5468c0.22941-1.2977 0.34355-2.4299 0.34355-3.3945 0-1.3666-0.50505-2.4969-1.5156-3.3926-1.0106-0.90723-2.3771-1.3613-4.0996-1.3613zm94.996 0.0189c-2.4919-8e-5 -4.4776 1.1383-5.959 3.4121-1.4814 2.2739-2.2226 5.0576-2.2226 8.3535 0 2.2738 0.58034 4.072 1.7402 5.3926 1.1598 1.3091 2.6302 1.9629 4.4102 1.9629 1.3551 0 2.6462-0.44193 3.875-1.3262 1.2402-0.89574 2.2443-2.2337 3.0137-4.0137 0.78092-1.7801 1.1719-3.8002 1.1719-6.0625 0-2.4689-0.56817-4.371-1.7051-5.7031-1.1369-1.3436-2.5787-2.0156-4.3242-2.0156zm-62.936 0.0113c-0.83834 0-1.6305 0.23433-2.3769 0.70506-0.74646 0.45937-1.614 1.3676-2.6016 2.7227l0.51757-3.0156h-2.5508l-3.1348 18.295 2.5508-2e-3 1.498-8.6465c0.45937-2.6873 1.1946-4.6055 2.2051-5.7539 1.0221-1.1598 2.1014-1.7383 3.2383-1.7383 0.47092 0 0.86188 0.17726 1.1719 0.53322 0.32164 0.35603 0.48246 0.83863 0.48246 1.4473 0 0.36737-0.0752 0.97024-0.22451 1.8086l-2.1192 12.35h2.5664l1.5156-8.8711c0.34431-1.9752 0.7477-3.4151 1.207-4.3223 0.47085-0.91872 1.0961-1.6375 1.877-2.1543 0.78088-0.52826 1.5263-0.79102 2.2383-0.79102 0.5396 0 0.97129 0.16517 1.293 0.49807 0.32164 0.32163 0.48242 0.79199 0.48242 1.4121 0 0.43638-0.0854 1.1491-0.25776 2.1367l-2.0684 12.092h2.5508l2.0137-11.781c0.22941-1.2976 0.34582-2.2386 0.34582-2.8242 0-1.3321-0.33411-2.3484-0.99998-3.0488-0.65457-0.70053-1.573-1.0508-2.7559-1.0508-0.93018 0-1.8201 0.28724-2.6699 0.86135-0.84982 0.56269-1.6542 1.418-2.4121 2.5664-0.20674-1.114-0.62619-1.9651-1.2578-2.5508-0.63159-0.58568-1.4055-0.87696-2.3242-0.87696zm40.576 0c-0.82684 0-1.6822 0.26267-2.5664 0.79101-0.88425 0.51677-1.8678 1.4536-2.9472 2.8086l0.53514-3.1875h-2.3086l-3.1348 18.295h2.5489l1.4648-8.5098c0.4823-2.8135 1.2338-4.7889 2.2559-5.9258 1.0336-1.1369 2.1943-1.7051 3.4805-1.7051 0.62007 0 1.1069 0.18331 1.4629 0.55079 0.36737 0.35603 0.55271 0.84888 0.55271 1.4805 0 0.53971-0.0979 1.3788-0.29291 2.5156l-1.998 11.594h2.5664l1.8946-11.076c0.25285-1.4469 0.3789-2.4917 0.3789-3.1348 0-1.4355-0.36245-2.5453-1.0859-3.3262-0.71202-0.78092-1.6468-1.1699-2.8067-1.1699zm-54.059 0.38475-3.1348 18.293h2.5488l3.1367-18.293zm36.057 2.0118c0.99908 0 1.8218 0.40728 2.4648 1.2226 0.64305 0.81535 0.96484 2.0392 0.96484 3.6699v0.6367h-8.4238c0.44787-1.8489 1.12-3.2317 2.0156-4.1504 0.90719-0.91872 1.899-1.3789 2.9785-1.3789zm40.275 8e-3c1.0106 0 1.8618 0.45411 2.5508 1.3613 0.68904 0.89574 1.0332 2.2174 1.0332 3.9629 0 1.6078-0.30538 3.1738-0.91407 4.7012-0.60861 1.5273-1.3194 2.625-2.1348 3.291-0.81535 0.65461-1.6319 0.98244-2.4473 0.98244-1.0336 0-1.895-0.44386-2.584-1.3281-0.68904-0.88425-1.0332-2.1917-1.0332-3.9258 0-1.6996 0.2812-3.3023 0.84374-4.8067 0.57422-1.5158 1.2748-2.6013 2.1016-3.2558 0.83833-0.65461 1.6998-0.98241 2.584-0.98241zm-110.9 0.11112c0.9302 0 1.7 0.42557 2.3086 1.2754 0.6201 0.83833 0.92969 2.0907 0.92969 3.7558 0 1.5618-0.29325 3.1564-0.87891 4.7871-0.57417 1.6192-1.2157 2.7332-1.9277 3.3418-0.71201 0.5972-1.4369 0.8965-2.1719 0.8965-0.91869 0-1.6926-0.39708-2.3242-1.1895-0.6201-0.80386-0.92969-1.981-0.92969-3.5312l0.0136-0.65431h2e-3c0-0.90719 0.19551-2.0497 0.58594-3.4277 0.53973-1.8718 1.1996-3.2159 1.9805-4.0312 0.7809-0.81535 1.5853-1.2227 2.4121-1.2227zm18.398 6.8984c-0.28724 1.9292-0.67196 3.371-1.1543 4.3242-0.47085 0.95312-1.0858 1.6822-1.8438 2.1875-0.75794 0.50525-1.544 0.75779-2.3594 0.75779-0.86126 0-1.5496-0.26872-2.0664-0.80859-0.51677-0.53975-0.7754-1.2749-0.7754-2.2051 0-0.67755 0.16078-1.2742 0.48243-1.791 0.32152-0.51674 0.76954-0.9016 1.3438-1.1543 0.57416-0.25247 1.6291-0.46031 3.168-0.62109 1.5043-0.16062 2.5735-0.39076 3.2051-0.68945z" stroke-width="1.3229" style="font-variant-caps:normal;font-variant-east-asian:normal;font-variant-ligatures:normal;font-variant-numeric:normal;text-orientation:upright"/>
  <g id="g2332" transform="matrix(5 0 0 5 2776.1 -207.35)">
    <path id="rect2275" d="m-489.08 123.61c-1.3018 0-2.3497 1.0479-2.3497 2.3497v8.1339h35v-8.1339c0-1.3018-1.0479-2.3497-2.3497-2.3497h-5.7666c-2.7641 0-4.7857 5.0049-9.3839 5.0049-4.598-1.2e-4 -6.6194-5.0049-9.3834-5.0049z" stop-color="#000000"/>
    <path id="path2316" d="m-478.54 117.24a0.24931 0.24931 0 0 0-0.33975-0.0899l-0.98989 0.57151-4.244-7.3508c-0.0717-0.12428-0.22954-0.16655-0.35381-0.0948l-0.49568 0.28618c-0.12427 0.0717-0.16654 0.22952-0.0948 0.3538l4.244 7.3508-0.98989 0.57152a0.24932 0.24932 0 0 0-0.0197 0.41925l3.4304 2.4357a0.17808 0.17808 0 0 0 0.28035-0.16187l-0.39407-4.1887a0.24931 0.24931 0 0 0-0.0332-0.1027z"/>
    <path id="path2318" d="m-469.32 117.24a0.24931 0.24931 0 0 1 0.33975-0.0899l0.98989 0.57151 4.244-7.3508c0.0717-0.12428 0.22954-0.16655 0.35381-0.0948l0.49568 0.28618c0.12427 0.0717 0.16654 0.22952 0.0948 0.3538l-4.244 7.3508 0.98989 0.57152a0.24932 0.24932 0 0 1 0.0197 0.41925l-3.4304 2.4357a0.17808 0.17808 0 0 1-0.28035-0.16187l0.39407-4.1887a0.24931 0.24931 0 0 1 0.0332-0.1027z"/>
    <path id="path2320" d="m-471.99 114.55a0.24931 0.24931 0 0 0-0.2493-0.24769h-1.143v-8.488c0-0.14351-0.11551-0.25901-0.259-0.25901h-0.57235c-0.1435 0-0.25901 0.1155-0.25901 0.25901v8.488h-1.143a0.24932 0.24932 0 0 0-0.22668 0.35324l1.753 3.8246a0.17808 0.17808 0 0 0 0.32373 0l1.7531-3.8246a0.24931 0.24931 0 0 0 0.0226-0.10555z"/>
  </g>
  <path id="rockfall" d="m580.22 0h209.56c11.201 0 20.22 9.0179 20.22 20.22v209.56c0 11.201-9.0179 20.22-20.22 20.22h-209.56c-11.201 0-20.22-9.0179-20.22-20.22v-209.56c0-11.201 9.0179-20.22 20.22-20.22z" fill="#fff" stop-color="#000000" stroke-width="1.0059"/>
  <path id="path2074" d="m597.5 177.48v-5.127h5.1269c2.8199 0 5.1275-0.0772 5.1281-0.1711 0.0151-2.1143 3.5015-44.576 3.6764-44.751 0.30085-0.30032 26.421 9.3533 27.481 10.157 0.406 0.30796 2.6875 5.2564 5.0694 10.997 2.3819 5.7406 4.5104 10.634 4.7302 10.873 0.21958 0.2395 2.4418-0.52924 4.938-1.709l4.5386-2.145-11.005-26.167-31.892-11.925 2.5541-2.8916c1.4048-1.5904 4.9185-5.4917 7.8083-8.6695l5.2542-5.7777 6.6217-23.212c3.6419-12.766 6.8707-23.691 7.1752-24.277 0.6068-1.1675 35.408-23.531 35.882-23.058 0.49349 0.49351 14.666 35.333 14.666 36.053 0 0.37149-5.9552 5.4855-13.234 11.365l-13.234 10.69 2.9139 11.596c1.6026 6.3775 3.0828 11.765 3.2892 11.971 0.20636 0.20644 2.5033-0.14597 5.104-0.78342l4.7286-1.1588-2.233-8.8554-2.2331-8.8554 21.75-17.61 7.4788 5.0777c4.1134 2.7928 7.6683 5.3844 7.8999 5.7592 0.23206 0.375 1.2977 7.8191 2.3692 16.542l1.948 15.861 8.258 7.9815-5.1411 3.209c-12.224 7.6306-11.002 6.2784-14.643 16.197-1.7944 4.8877-3.0627 9.0696-2.8187 9.2933 0.68152 0.62443 9.0046 3.5718 9.2456 3.274 0.11717-0.14445 1.367-3.5388 2.7783-7.5431l2.5658-7.2806 15.714-9.7677 3.6806 3.1445c3.1955 2.7301 3.862 3.7477 5.0563 7.721 0.75665 2.5171 3.0347 9.9598 5.0624 16.539l3.6867 11.963 17.254 0.38303v10.213h-175zm147.66-58.72-9.9121-2.1913v-23.136l8.8868-4.8854c4.8876-2.6869 9.2027-4.6944 9.5889-4.461 4.8115 2.908 15.397 10.565 15.234 11.019-0.11754 0.32696-2.5204 6.3026-5.3402 13.279-4.7669 11.794-5.2469 12.68-6.8359 12.626-0.93989-0.0302-6.1694-1.0448-11.621-2.25zm-25.976-48.35c-2.8198-2.3029-5.985-4.9076-7.0336-5.7881l-1.9066-1.6009 1.0137-9.6675c0.55744-5.3171 1.1109-9.7648 1.23-9.8838 0.34696-0.347 19.838-5.182 19.997-4.9605 0.38649 0.5378 10.625 20.392 10.625 20.604 0 0.28698-18.225 15.485-18.567 15.484-0.12737-4.53e-4 -2.5388-1.8851-5.3585-4.1881z" stroke-width=".68359"/>
  <path id="path961" d="m604.15 189.76c-1.9064 0-3.676 0.5682-5.3066 1.7051-1.6307 1.137-2.985 2.878-4.0645 5.2207-1.0679 2.331-1.6016 4.9196-1.6016 7.7676 0 3.5942 0.83293 6.4027 2.4981 8.4238 1.6767 2.0096 3.7498 3.0137 6.2188 3.0137 1.5962 0 3.0361-0.39513 4.3222-1.1875 0.96465 1.401 2.0908 2.6107 3.377 3.6328l1.2227-1.998c-1.2173-0.96463-2.1581-1.9401-2.8242-2.9277 1.4699-1.3091 2.6511-3.0422 3.5469-5.2012 0.89574-2.1588 1.3437-4.5314 1.3437-7.1152 0-3.5599-0.83289-6.3378-2.498-8.3359-1.665-1.9982-3.7424-2.998-6.2344-2.998zm87.006 0.44726-4.3242 25.254h2.7734l1.7578-10.25h5.166c1.8718 0 3.4684-0.27492 4.789-0.82617 1.3321-0.5627 2.4054-1.6033 3.2207-3.1191 0.82684-1.5273 1.2402-3.1464 1.2402-4.8574 0-1.3206-0.25852-2.4794-0.7754-3.4785-0.50524-0.99907-1.1244-1.6996-1.8594-2.1016-0.72348-0.4134-1.8314-0.62109-3.3242-0.62109zm-31.143 2e-3 -1.6894 9.8379c-0.94166-2.1934-2.3366-3.291-4.1855-3.291-1.1139 0-2.234 0.4419-3.3594 1.3262-1.1254 0.88424-2.0724 2.2629-2.8418 4.1348-0.76939 1.8604-1.1543 3.9091-1.1543 6.1484 0 2.5036 0.48265 4.3811 1.4473 5.6328 0.9646 1.2517 2.1356 1.8789 3.5136 1.8789 1.6078 0 3.1351-1.0223 4.582-3.0664l-0.44726 2.6523h2.3594l4.3242-25.254zm75.725 0-1.6875 9.8379c-0.9417-2.1934-2.3367-3.291-4.1856-3.291-1.1139 0-2.234 0.4419-3.3594 1.3262-1.1254 0.88424-2.0724 2.2629-2.8418 4.1348-0.76943 1.8604-1.1543 3.9091-1.1543 6.1484 0 2.5036 0.48068 4.3811 1.4453 5.6328 0.96465 1.2517 2.1376 1.8789 3.5156 1.8789 1.6077 0 3.1351-1.0223 4.582-3.0664l-0.4492 2.6523h2.3613l4.3222-25.254zm-131.69 2.3574c1.6881 0 3.1238 0.73517 4.3066 2.2051 1.1828 1.4701 1.7734 3.5267 1.7734 6.168 0 2.0785-0.36661 4.0642-1.1016 5.959-0.73496 1.8833-1.6473 3.3312-2.7382 4.3418-1.1369-1.4929-2.2854-2.5376-3.4453-3.1348l-1 2.1016c0.88425 0.56272 1.764 1.3264 2.6367 2.291-0.76939 0.37897-1.5392 0.56836-2.3086 0.56836-1.7456 0-3.228-0.72905-4.4453-2.1875-1.2173-1.4584-1.8262-3.497-1.8262-6.1152 0-2.4117 0.40316-4.5722 1.207-6.4785 0.81535-1.9063 1.854-3.3359 3.1172-4.2891 1.2747-0.95314 2.5495-1.4297 3.8242-1.4297zm89.416 0.38086h5.3066c1.2862 0 2.1762 0.10817 2.6699 0.32617 0.49379 0.2182 0.88282 0.59283 1.17 1.1211 0.28724 0.52824 0.43161 1.233 0.43161 2.1172 0 1.1484-0.28119 2.2053-0.84373 3.1699-0.5512 0.96464-1.2415 1.653-2.0684 2.0664-0.82684 0.40194-2.067 0.60352-3.7207 0.60352h-4.5645zm-54.826 3.7754c-1.3666 0-2.6353 0.42971-3.8066 1.291-1.1714 0.84978-2.1652 2.2041-2.9805 4.0645-0.80386 1.8602-1.207 3.8643-1.207 6.0117 0 1.6307 0.26456 3.0378 0.79294 4.2207 0.52822 1.1713 1.241 2.0552 2.1367 2.6523 0.89574 0.58567 1.8895 0.87891 2.9805 0.87891 1.5388 0 2.9338-0.55602 4.1855-1.6699 1.5044-1.3206 2.4636-2.8724 2.877-4.6523l-2.4981-0.3086c-0.47081 1.3206-1.1307 2.3308-1.9805 3.0312-0.83829 0.70049-1.6936 1.0508-2.5664 1.0508-0.91876 0-1.7068-0.44193-2.3614-1.3262-0.65453-0.89574-0.98044-2.2052-0.98044-3.9277 0-0.28706 0.0151-0.61492 0.0506-0.98243h11.059c0.12623-0.94167 0.18935-1.8602 0.18935-2.7559 0-2.4117-0.55184-4.277-1.6543-5.5976-1.0909-1.3206-2.5023-1.9805-4.2363-1.9805zm75.725 0c-1.3666 0-2.6353 0.42971-3.8066 1.291-1.1713 0.84978-2.1651 2.2041-2.9804 4.0645-0.80387 1.8602-1.2051 3.8643-1.2051 6.0117 0 1.6307 0.26495 3.0378 0.79298 4.2207 0.52826 1.1713 1.239 2.0552 2.1348 2.6523 0.89574 0.58567 1.8895 0.87891 2.9804 0.87891 1.5388 0 2.9338-0.55602 4.1856-1.6699 1.5044-1.3206 2.4636-2.8724 2.877-4.6523l-2.4981-0.3086c-0.47086 1.3206-1.1307 2.3308-1.9805 3.0312-0.83834 0.70049-1.6936 1.0508-2.5664 1.0508-0.91872 0-1.7068-0.44193-2.3614-1.3262-0.65453-0.89574-0.98044-2.2052-0.98044-3.9277 0-0.28706 0.0151-0.61492 0.0507-0.98243h11.059c0.12623-0.94167 0.18935-1.8602 0.18935-2.7559 0-2.4117-0.54992-4.277-1.6524-5.5976-1.091-1.3206-2.5043-1.9805-4.2383-1.9805zm-43.359 4e-3c-3.4911 0-5.7821 1.8716-6.8731 5.6152l2.584 0.27537c0.63159-2.2278 2.0103-3.3418 4.1347-3.3418 1.0565 0 1.8609 0.23618 2.4121 0.70704 0.56273 0.45933 0.84377 1.0743 0.84377 1.8437 0 0.55124-0.10394 1.262-0.31067 2.1348-0.37898 0.18368-0.8372 0.32209-1.377 0.41406-0.52823 0.092-1.5118 0.17749-2.9473 0.25784-1.6995 0.0804-3.007 0.35727-3.9258 0.82812-0.90723 0.45934-1.6138 1.1253-2.1191 1.998s-0.75779 1.8951-0.75779 3.0664c0 1.6422 0.43578 2.9394 1.3086 3.8926 0.88421 0.95315 1.9921 1.4297 3.3242 1.4297 0.84979 0 1.6888-0.2016 2.5156-0.60353 0.82681-0.40189 1.7107-1.0964 2.6524-2.084 0.0574 0.94166 0.16138 1.6993 0.31067 2.2734h2.5664c-0.1954-1.0336-0.29291-1.8665-0.29291-2.4981 0-0.89573 0.13228-2.0667 0.39647-3.5137l0.82616-4.5469c0.22941-1.2977 0.34355-2.4299 0.34355-3.3945 0-1.3666-0.50505-2.4969-1.5156-3.3926-1.0106-0.90723-2.377-1.3613-4.0996-1.3613zm85.371 0c-3.4911 0-5.7821 1.8716-6.873 5.6152l2.584 0.27537c0.63159-2.2278 2.0103-3.3418 4.1348-3.3418 1.0565 0 1.859 0.23618 2.4102 0.70704 0.56269 0.45933 0.84374 1.0743 0.84374 1.8437 0 0.55124-0.10205 1.262-0.30841 2.1348-0.37897 0.18368-0.83916 0.32209-1.3789 0.41406-0.52818 0.092-1.5098 0.17749-2.9453 0.25784-1.6996 0.0804-3.009 0.35727-3.9277 0.82812-0.90723 0.45934-1.6139 1.1253-2.1191 1.998-0.50528 0.87277-0.75783 1.8951-0.75783 3.0664 0 1.6422 0.43778 2.9394 1.3105 3.8926 0.88422 0.95315 1.9921 1.4297 3.3242 1.4297 0.84974 0 1.6868-0.2016 2.5137-0.60353 0.8268-0.40189 1.7126-1.0964 2.6543-2.084 0.0571 0.94166 0.161 1.6993 0.31067 2.2734h2.5664c-0.1954-1.0336-0.29292-1.8665-0.29292-2.4981 0-0.89573 0.1304-2.0667 0.39455-3.5137l0.82812-4.5469c0.22942-1.2977 0.34356-2.4299 0.34356-3.3945 0-1.3666-0.50506-2.4969-1.5156-3.3926-1.0106-0.90723-2.3771-1.3613-4.0996-1.3613zm-9.0058 0.0272c-1.5159 0-3.0269 1.3828-4.5312 4.1504l0.63866-3.7383h-2.2578l-3.1348 18.295h2.4297l1.2735-7.3379c0.52822-3.1236 1.2573-5.3006 2.1875-6.5293 0.94162-1.2402 1.8845-1.8613 2.8262-1.8613 0.49379 0 0.96422 0.19552 1.4121 0.58593l1.0508-2.8926c-0.74641-0.44786-1.3778-0.67187-1.8945-0.67187zm24.096 2e-3c-1.6077 0-2.905 0.49482-3.8926 1.4824-0.98762 0.98761-1.4824 2.2442-1.4824 3.7715 0 0.74643 0.13229 1.4246 0.39651 2.0332 0.26419 0.59717 0.63269 1.1083 1.1035 1.5332 0.48234 0.41344 1.47 1.0102 2.9629 1.791 1.2977 0.67754 2.1408 1.2518 2.5313 1.7227 0.37894 0.47083 0.56833 0.99831 0.56833 1.584 0 0.81534-0.3035 1.4874-0.91211 2.0156-0.60865 0.51677-1.4355 0.77539-2.4804 0.77539-1.1484 0-2.0566-0.36662-2.7226-1.1016-0.66716-0.73493-0.99307-1.8489-0.98048-3.3418l-2.5684 0.18946v0.34375c0 2.0096 0.5458 3.5655 1.6367 4.668 1.091 1.1024 2.5959 1.6543 4.5137 1.6543 1.9063 0 3.393-0.54579 4.461-1.6367 1.0795-1.091 1.6191-2.3943 1.6191-3.9102 0-1.3666-0.40119-2.5273-1.2051-3.4805-0.52827-0.60863-1.7624-1.4233-3.7031-2.4453-1.2632-0.65457-2.0512-1.1779-2.3613-1.5684-0.30992-0.37893-0.46485-0.83111-0.46485-1.3594 0-0.60864 0.25852-1.1442 0.77541-1.6035 0.51677-0.47083 1.1888-0.70508 2.0156-0.70508 1.0565 0 1.8955 0.30958 2.5156 0.92969 0.63156 0.62014 0.96351 1.504 0.99802 2.6523l2.5156-0.20507c-0.0461-1.8259-0.5856-3.2453-1.6191-4.2559-1.0336-1.0221-2.4407-1.5332-4.2207-1.5332zm-154.34 0.36915-1.8086 10.559c-0.32163 1.8604-0.48241 3.1801-0.48241 3.9609 0 1.2288 0.3685 2.2347 1.1035 3.0156 0.74649 0.78087 1.6649 1.1719 2.7559 1.1719 1.8834 0 3.7264-1.2422 5.5293-3.7226l-0.56836 3.3086h2.3594l3.1348-18.293h-2.5488l-1.3613 7.9062c-0.30992 1.8489-0.67665 3.3233-1.1016 4.4258-0.4134 1.0909-1.0752 2.0053-1.9824 2.7402-0.89571 0.72347-1.7959 1.084-2.7031 1.084-0.64308 0-1.144-0.18327-1.5-0.55078-0.35603-0.37893-0.53321-0.93082-0.53321-1.6543 0-0.52826 0.0854-1.2798 0.25776-2.2558l1.998-11.695zm21.568 2.0254c0.99915 0 1.8218 0.40732 2.4648 1.2227 0.64308 0.81537 0.9629 2.0392 0.9629 3.6699v0.63671h-8.4219c0.44787-1.8489 1.1199-3.2317 2.0156-4.1504 0.9072-0.9187 1.899-1.3789 2.9785-1.3789zm75.727 0c0.99907 0 1.8198 0.40732 2.4629 1.2227 0.64309 0.81537 0.96484 2.0392 0.96484 3.6699v0.63671h-8.4238c0.44787-1.8489 1.1199-3.2317 2.0156-4.1504 0.90719-0.9187 1.901-1.3789 2.9805-1.3789zm-60.139 0.17189c0.88429 0 1.6479 0.40316 2.291 1.207s0.96483 1.9402 0.96483 3.4102c0 2.8593-0.62717 5.2706-1.8789 7.2344-0.95312 1.4699-2.002 2.2051-3.1504 2.2051-0.88425 0-1.597-0.37269-2.1367-1.1191-0.7005-0.96464-1.0508-2.2049-1.0508-3.7207l0.0189-0.74218-2e-3 2e-3c0-1.0335 0.22828-2.3206 0.68749-3.8594 0.45936-1.5388 1.0682-2.6935 1.8262-3.4629 0.75795-0.76944 1.5684-1.1543 2.4297-1.1543zm75.728 0c0.88425 0 1.6479 0.40316 2.291 1.207 0.64308 0.80387 0.96487 1.9402 0.96487 3.4102 0 2.8593-0.62521 5.2706-1.877 7.2344-0.95315 1.4699-2.004 2.2051-3.1523 2.2051-0.88425 0-1.597-0.37269-2.1367-1.1191-0.70049-0.96464-1.0508-2.2049-1.0508-3.7207l0.0151-0.74218 2e-3 2e-3c0-1.0335 0.23017-2.3206 0.68942-3.8594 0.45932-1.5388 1.0682-2.6935 1.8262-3.4629 0.75794-0.76944 1.5665-1.1543 2.4277-1.1543zm-56.59 6.8438c-0.28724 1.9292-0.67199 3.371-1.1543 4.3242-0.47082 0.95314-1.0858 1.6822-1.8438 2.1875-0.75794 0.5053-1.544 0.75781-2.3594 0.75781-0.86128 0-1.5496-0.26887-2.0664-0.80859-0.51677-0.53974-0.77536-1.2749-0.77536-2.2051 0-0.67754 0.161-1.2742 0.48241-1.791 0.32164-0.51673 0.76955-0.90162 1.3437-1.1543 0.57422-0.25277 1.6312-0.46042 3.1699-0.62109 1.5044-0.16067 2.5715-0.39079 3.2031-0.68945zm85.371 0c-0.28724 1.9292-0.67199 3.371-1.1543 4.3242-0.47082 0.95314-1.0858 1.6822-1.8438 2.1875-0.75794 0.5053-1.544 0.75781-2.3594 0.75781-0.86128 0-1.5516-0.26887-2.0684-0.80859-0.51678-0.53974-0.77344-1.2749-0.77344-2.2051 0-0.67754 0.161-1.2742 0.48241-1.791 0.32164-0.51673 0.76762-0.90162 1.3418-1.1543 0.57422-0.25277 1.6311-0.46042 3.1699-0.62109 1.5044-0.16067 2.5735-0.39079 3.2051-0.68945zm-112.69 13.597-11.127 26.098h2.2226l11.127-26.098zm12.063 0.39454-4.3242 25.252h10.025c1.2747 0 2.4457-0.32591 3.5137-0.98048 1.068-0.65456 1.9458-1.6259 2.6348-2.9121 0.70049-1.2862 1.0508-2.6527 1.0508-4.0996 0-1.2517-0.28725-2.3188-0.86135-3.2031-0.57418-0.88424-1.4071-1.5461-2.498-1.9824 1.2632-0.53974 2.2182-1.3258 2.8613-2.3594 0.64309-1.045 0.96291-2.2731 0.96291-3.6856 0-1.4355-0.3035-2.6308-0.91211-3.584-0.59716-0.96464-1.4464-1.6408-2.5488-2.0312-0.75794-0.27568-1.9187-0.41406-3.4805-0.41406zm18.789 0-4.3242 25.252h2.5664l4.3242-25.252zm-16.516 2.877h4.4102c1.2058 0 2.0367 0.10193 2.4961 0.30859 0.45936 0.20671 0.83815 0.57528 1.1367 1.1035 0.29858 0.51677 0.44923 1.1481 0.44923 1.8945 0 1.4699-0.47656 2.6531-1.4297 3.5488-0.78089 0.7005-2.182 1.0508-4.2032 1.0508h-4.2031zm73.139 3.6719c-1.6077 0-2.905 0.49287-3.8926 1.4805-0.98762 0.98761-1.4824 2.2461-1.4824 3.7734 0 0.74644 0.13229 1.4226 0.39651 2.0312 0.26419 0.59714 0.63073 1.1083 1.1015 1.5332 0.48234 0.41341 1.47 1.0101 2.9629 1.791 1.2977 0.67754 2.1428 1.2518 2.5332 1.7227 0.379 0.47083 0.56836 1.0003 0.56836 1.5859 0 0.81534-0.30539 1.4874-0.91404 2.0156-0.60865 0.51677-1.4354 0.77539-2.4805 0.77539-1.1484 0-2.0546-0.36854-2.7207-1.1035-0.66466-0.73497-0.9925-1.8489-0.98244-3.3418l-2.5664 0.18947v0.34374c0 2.0096 0.54576 3.5675 1.6367 4.6699 1.091 1.1024 2.5959 1.6523 4.5137 1.6523 1.9063 0 3.393-0.54574 4.461-1.6367 1.0795-1.0909 1.6191-2.3943 1.6191-3.9102 0-1.3666-0.40119-2.5254-1.2051-3.4785-0.52826-0.60863-1.7643-1.4252-3.7051-2.4473-1.2632-0.65457-2.0493-1.176-2.3594-1.5664-0.30992-0.37897-0.46484-0.83309-0.46484-1.3613 0-0.60863 0.25851-1.1422 0.77536-1.6016 0.51677-0.47083 1.1888-0.70703 2.0156-0.70703 1.0564 0 1.8935 0.31151 2.5137 0.93164 0.63155 0.6201 0.96547 1.504 0.99998 2.6523l2.5156-0.20704c-0.0461-1.8259-0.5856-3.2433-1.6191-4.2539-1.0335-1.022-2.4407-1.5332-4.2207-1.5332zm-29.629 0.0136c-1.424 0-2.7212 0.42974-3.8926 1.291-1.1599 0.86127-2.1251 2.246-2.8945 4.1523-0.75794 1.9062-1.1367 4.0243-1.1367 6.3555 0 2.377 0.51726 4.1917 1.5508 5.4434 1.0451 1.2517 2.3606 1.877 3.9453 1.877 1.4699 0 2.8018-0.54991 3.9961-1.6524 1.1943-1.1141 2.1128-2.8144 2.7559-5.0996l-2.5664-0.32813v2e-3c-0.42485 1.5733-1.0174 2.7443-1.7754 3.5137-0.75791 0.76943-1.5501 1.1543-2.3769 1.1543-0.8039 0-1.4984-0.37877-2.084-1.1367-0.57419-0.7694-0.86135-1.8894-0.86135-3.3594 0-1.9751 0.26456-3.7734 0.79297-5.3926 0.53972-1.6307 1.171-2.7446 1.8945-3.3418 0.735-0.60863 1.5557-0.91211 2.4629-0.91211 0.81539 0 1.4996 0.32175 2.0508 0.96485 0.56269 0.6316 0.84377 1.544 0.84377 2.7383l2.5156-0.20704c0.0113-1.8833-0.47115-3.3639-1.4472-4.4434-0.97614-1.0795-2.2346-1.6191-3.7735-1.6191zm-16.07 0.0253c-2.4919-9e-5 -4.4795 1.1363-5.9609 3.4102-1.4814 2.2739-2.2207 5.0577-2.2207 8.3535 0 2.2737 0.57842 4.0719 1.7383 5.3926 1.1599 1.3091 2.6302 1.9629 4.4102 1.9629 1.3551 0 2.6482-0.44193 3.8769-1.3262 1.2402-0.89574 2.2443-2.2337 3.0137-4.0137 0.78092-1.78 1.1719-3.8002 1.1719-6.0625 0-2.4689-0.56817-4.371-1.7051-5.7031-1.1368-1.3436-2.5787-2.0137-4.3242-2.0137zm30.59 0c-2.4919 0-4.4776 1.1364-5.959 3.4102-1.4814 2.2739-2.2226 5.0577-2.2226 8.3535 0 2.2737 0.58042 4.0719 1.7402 5.3926 1.1599 1.3091 2.6282 1.9629 4.4082 1.9629 1.3551 0 2.6482-0.44193 3.8769-1.3262 1.2402-0.89574 2.2443-2.2337 3.0137-4.0137 0.78092-1.78 1.1719-3.8002 1.1719-6.0625 0-2.4689-0.56817-4.371-1.705-5.7031-1.1369-1.3436-2.5787-2.0137-4.3242-2.0137zm-30.676 2.4102c1.0106 0 1.8598 0.45409 2.5488 1.3613 0.68908 0.89571 1.0332 2.2174 1.0332 3.9629 0 1.6077-0.30349 3.1738-0.91211 4.7012-0.60865 1.5273-1.3214 2.625-2.1367 3.291-0.81535 0.6546-1.63 0.98242-2.4453 0.98242-1.0335 0-1.895-0.44385-2.584-1.3281-0.68904-0.88424-1.0332-2.1917-1.0332-3.9258 0-1.6996 0.28119-3.3023 0.84373-4.8066 0.57418-1.5158 1.2747-2.6012 2.1016-3.2559 0.83829-0.65456 1.6997-0.98241 2.584-0.98241zm30.59 0c1.0106 0 1.8598 0.45409 2.5489 1.3613 0.68901 0.89571 1.0332 2.2174 1.0332 3.9629 0 1.6077-0.30349 3.1738-0.9121 4.7012-0.60865 1.5273-1.3214 2.625-2.1367 3.291-0.81536 0.6546-1.63 0.98242-2.4453 0.98242-1.0335 0-1.895-0.44385-2.584-1.3281-0.68904-0.88424-1.0332-2.1917-1.0332-3.9258 0-1.6996 0.2812-3.3023 0.84374-4.8066 0.57414-1.5158 1.2747-2.6012 2.1016-3.2559 0.8383-0.65456 1.6998-0.98241 2.584-0.98241zm-59.787 4.6621h5.2715c1.6192 0 2.7495 0.29129 3.3926 0.87696 0.64304 0.57417 0.96483 1.4926 0.96483 2.7558 0 0.88424-0.18331 1.7069-0.55079 2.4648-0.36737 0.74644-0.83788 1.3085-1.4121 1.6875-0.56269 0.37908-1.2184 0.64794-1.9648 0.80859-0.4134 0.092-1.2402 0.13867-2.4804 0.13867h-4.7187z" stroke-width="1.3229" style="font-variant-caps:normal;font-variant-east-asian:normal;font-variant-ligatures:normal;font-variant-numeric:normal;text-orientation:upright"/>
  <path id="flood" d="m580.22 280h209.56c11.201 0 20.22 9.0179 20.22 20.22v209.56c0 11.201-9.0179 20.22-20.22 20.22h-209.56c-11.201 0-20.22-9.0179-20.22-20.22v-209.56c0-11.201 9.0179-20.22 20.22-20.22z" fill="#fff" stop-color="#000000" stroke-width="1.0059"/>
  <path id="path2092" d="m597.5 474.7c0-4.2847 0.24189-5.8303 0.95617-6.1044 0.52596-0.20182 5.6785-3.8387 11.451-8.0822 10.274-7.5534 10.58-7.7205 14.596-7.9655l4.1016-0.2502 8.5853 6.1892c15.282 11.017 20.36 10.939 36.247-0.55922 7.2624-5.2555 7.7977-5.5177 11.264-5.5177 3.8766 0 3.0802-0.44148 17.531 9.7222 4.8829 3.4344 10.86 4.9433 15.895 4.0127 4.7894-0.88535 6.8258-1.9568 14.445-7.5999 7.9374-5.879 8.448-6.135 12.243-6.135 4.0132 0 4.054 0.0189 16.918 9.4605l10.767 7.8984v10.668h-175zm0.034-28.871 0.034-10.85 10.864-7.8614c5.9753-4.3238 12.082-8.3033 13.571-8.8434 3.8998-1.4149 6.6708-0.35868 14.799 5.6416 8.9102 6.5772 10.705 7.4448 16.221 7.8394 6.7771 0.48498 9.9142-0.68213 18.576-6.9104 8.8055-6.3315 11.63-7.6528 15.005-7.0197 1.4005 0.26306 5.5216 2.7157 9.9658 5.9317 9.646 6.9804 12.137 8.1116 17.904 8.1308 6.3008 0.0189 9.0785-1.16 18.242-7.7558 8.4366-6.0723 10.885-7.0766 14.694-6.0253 1.2918 0.35679 7.4642 4.4006 13.717 8.9865l11.368 8.3381v10.581c0 8.2713-0.18633 10.473-0.8545 10.089-0.46999-0.27061-4.1801-2.9293-8.2448-5.9078-10.798-7.9129-15.41-9.5473-22.679-8.0381-3.7346 0.77525-5.648 1.905-17.997 10.626-3.802 2.685-4.7491 3.0482-7.9508 3.0482-3.4604 0-3.9999-0.26457-11.26-5.5177-11.11-8.0396-15.676-9.6659-22.919-8.1622-3.7422 0.77684-4.7655 1.376-17.102 10.013-5.2742 3.6929-5.5589 3.8016-9.2475 3.5348-3.511-0.25398-4.3866-0.70363-11.307-5.8065-10.976-8.0938-15.115-9.4352-22.935-7.4319-3.4336 0.87957-6.0645 2.346-12.569 7.0059-4.5247 3.2414-8.6113 6.1909-9.0814 6.5543-0.67577 0.52263-0.84691-1.6083-0.81833-10.189zm50.79-26.435c-1.8236-1.2399-5.5703-3.91-8.3257-5.9338-2.7555-2.0238-6.6008-4.2179-8.545-4.8759l-3.535-1.1962-0.18444-15.229-0.18444-15.229-11.29 11.231-7.121-7.2106 75.523-75.514 75.864 75.873-7.1593 7.1593-10.946-10.881v29.652l-2.5634 0.69097c-3.0081 0.81082-7.6619 3.6146-15.283 9.2082-6.2866 4.6139-10.203 5.5929-14.168 3.5422l-2.164-1.1192v-42.348h-47.167v42.847l-1.7412 0.79331c-3.3427 1.5231-7.4131 0.98283-11.007-1.461zm23.003-19.737v-12.188h26.66v12.02c0 6.6109-0.23131 11.901-0.51273 11.757-6.2482-3.2023-7.5726-3.5833-12.501-3.5968-4.3958-0.0151-5.7757 0.29518-9.3994 2.091l-4.2473 2.1051z" stroke-width=".68359"/>
  <path id="path998" d="m620.82 492.86-4.3242 25.254h2.7734l4.3242-25.254zm65.203 2e-3 -1.6875 9.8359c-0.94166-2.1934-2.3386-3.2891-4.1875-3.2891-1.1139 0-2.232 0.4419-3.3574 1.3262-1.1254 0.88422-2.0743 2.2629-2.8437 4.1348-0.7694 1.8604-1.1523 3.9091-1.1523 6.1484 0 2.5036 0.48064 4.381 1.4453 5.6328 0.96465 1.2517 2.1376 1.8789 3.5157 1.8789 1.6077 0 3.135-1.0223 4.582-3.0664l-0.4492 2.6523h2.3613l4.3222-25.254zm40.945 0.36699c-0.68904 0-1.2633 0.26494-1.7227 0.79297-0.44794 0.52826-0.82672 1.5486-1.1367 3.0645h1.7734c0.14929-0.97609 0.53419-1.4629 1.1543-1.4629 0.30992 0 1.1145 0.34431 2.4121 1.0332 0.57419 0.29858 1.0507 0.44727 1.4297 0.44727 0.67755 0 1.2804-0.3258 1.8086-0.98048 0.53983-0.65461 0.86154-1.5852 0.96483-2.791h-1.7051c-0.18368 0.90719-0.52376 1.3613-1.0176 1.3613-0.26418 0-0.78553-0.21392-1.5664-0.63866-0.70042-0.36737-1.1994-0.59554-1.498-0.68753-0.28724-0.0919-0.58646-0.13871-0.89646-0.13871zm16.75 6.168c-2.492 0-4.4776 1.1383-5.959 3.4121-1.4814 2.2738-2.2226 5.0577-2.2226 8.3535 0 2.2738 0.58042 4.072 1.7402 5.3926 1.1599 1.3091 2.6302 1.9629 4.4102 1.9629 1.3551 0 2.6463-0.44198 3.875-1.3262 1.2402-0.89574 2.2443-2.2337 3.0137-4.0137 0.78088-1.7801 1.1719-3.8022 1.1719-6.0644 0-2.4689-0.56821-4.3691-1.705-5.7012-1.1369-1.3436-2.5787-2.0156-4.3242-2.0156zm-109.43 0.0113c-0.82684 0-1.6841 0.26268-2.5684 0.79102-0.88425 0.51673-1.8658 1.4535-2.9453 2.8086l0.53518-3.1875h-2.3086l-3.1348 18.295 2.5488-2e-3 1.4648-8.5078c0.48234-2.8135 1.2338-4.7889 2.2559-5.9258 1.0335-1.1369 2.1943-1.7051 3.4805-1.7051 0.6201 0 1.1069 0.18331 1.4629 0.55079 0.36737 0.35603 0.55272 0.84884 0.55272 1.4805 0 0.53971-0.0975 1.3787-0.29292 2.5156l-1.9981 11.594h2.5664l1.8945-11.076c0.25247-1.447 0.37893-2.4936 0.37893-3.1367 0-1.4354-0.36245-2.5433-1.086-3.3242-0.71198-0.78088-1.6468-1.1699-2.8066-1.1699zm32.27 0c-0.82684 0-1.6821 0.26268-2.5664 0.79102-0.88426 0.51673-1.8659 1.4535-2.9453 2.8086l0.53321-3.1875h-2.3086l-3.1348 18.295 2.5488-2e-3 1.4649-8.5078c0.48226-2.8135 1.2338-4.7889 2.2558-5.9258 1.0335-1.1369 2.1943-1.7051 3.4805-1.7051 0.6201 0 1.1088 0.18331 1.4649 0.55079 0.36737 0.35603 0.55075 0.84884 0.55075 1.4805 0 0.53971-0.0975 1.3787-0.29291 2.5156l-1.998 11.594h2.5664l1.8945-11.076c0.25285-1.447 0.37894-2.4936 0.37894-3.1367 0-1.4354-0.36246-2.5433-1.086-3.3242-0.71194-0.78088-1.6467-1.1699-2.8066-1.1699zm46.521 0.0151c-1.424 0-2.7212 0.43166-3.8926 1.293-1.1599 0.86127-2.1251 2.2442-2.8945 4.1504-0.75798 1.9062-1.1367 4.0243-1.1367 6.3555 0 2.377 0.51722 4.1917 1.5508 5.4434 0.75594 0.90546 1.655 1.478 2.6934 1.7285l-0.47267 2.3027h2e-3c0.78092 0.0113 1.3532 0.15004 1.7207 0.41408 0.37897 0.27553 0.57033 0.61368 0.57033 1.0156 0 0.36774-0.17915 0.66693-0.53518 0.89646-0.35603 0.22941-0.98123 0.34356-1.8769 0.34356-0.79241 0-1.4766-0.0151-2.0508-0.0507l-0.3084 1.9297c0.689 0.13758 1.4914 0.20523 2.4102 0.20523 1.6766 0 2.9005-0.28119 3.6699-0.84374 0.7694-0.56273 1.1543-1.2978 1.1543-2.2051 0-0.74642-0.23017-1.39-0.68945-1.9297-0.4478-0.52845-1.067-0.86044-1.8594-0.99802l0.21694-0.97851c1.195-0.14929 2.2956-0.68118 3.2969-1.6055 1.1943-1.114 2.1127-2.8143 2.7559-5.0996l-2.5664-0.32618c-0.42489 1.5733-1.0174 2.7443-1.7754 3.5137-0.75791 0.76939-1.5501 1.1543-2.377 1.1543-0.80386 0-1.4983-0.37878-2.084-1.1367-0.57414-0.76943-0.86131-1.8895-0.86131-3.3594 0-1.9752 0.26494-3.7734 0.79298-5.3926 0.53971-1.6306 1.171-2.7446 1.8945-3.3418 0.73496-0.60861 1.5557-0.91211 2.4629-0.91211 0.81539 0 1.4996 0.32164 2.0508 0.96487 0.56273 0.6316 0.84374 1.544 0.84374 2.7383l2.5137-0.20523c0.0113-1.8834-0.46923-3.3659-1.4453-4.4453-0.97617-1.0795-2.2346-1.6191-3.7735-1.6191zm-16.057 8e-3c-3.491 0-5.7821 1.8716-6.8731 5.6152l2.584 0.27553c0.63164-2.2278 2.0084-3.3418 4.1328-3.3418 1.0566 0 1.8609 0.23622 2.4121 0.70703 0.56269 0.45932 0.84378 1.0724 0.84378 1.8418 0 0.55124-0.10205 1.264-0.30841 2.1367-0.37893 0.18369-0.83916 0.32202-1.3789 0.41408-0.52827 0.0918-1.5099 0.17764-2.9453 0.25777-1.6996 0.0805-3.009 0.35527-3.9277 0.8262-0.90723 0.45932-1.6139 1.1253-2.1192 1.998-0.50532 0.87276-0.75779 1.895-0.75779 3.0664 0 1.6422 0.43582 2.9394 1.3086 3.8926 0.88425 0.95316 1.9941 1.4297 3.3262 1.4297 0.84978 0 1.6868-0.19955 2.5137-0.60158 0.8268-0.40187 1.7106-1.0964 2.6523-2.084l2e-3 -2e-3c0.0571 0.94171 0.15912 1.7012 0.30841 2.2754h2.5664c-0.1954-1.0336-0.29291-1.8664-0.29291-2.4981 0-0.89574 0.13266-2.0667 0.39647-3.5136l0.82813-4.5488c0.22941-1.2977 0.34355-2.428 0.34355-3.3926 0-1.3666-0.50505-2.4988-1.5156-3.3945-1.0106-0.90723-2.377-1.3594-4.0996-1.3594zm30.6 0c-3.491 0-5.7821 1.8716-6.873 5.6152l2.584 0.27553c0.63159-2.2278 2.0102-3.3418 4.1348-3.3418 1.0565 0 1.859 0.23622 2.4102 0.70703 0.56269 0.45932 0.84373 1.0724 0.84373 1.8418 0 0.55124-0.10204 1.264-0.30841 2.1367-0.37893 0.18369-0.83916 0.32202-1.3789 0.41408-0.52822 0.0918-1.5098 0.17764-2.9453 0.25777-1.6996 0.0805-3.009 0.35527-3.9277 0.8262-0.90723 0.45932-1.6138 1.1253-2.1191 1.998-0.50528 0.87276-0.75782 1.895-0.75782 3.0664 0 1.6422 0.43781 2.9394 1.3105 3.8926 0.88429 0.95316 1.9921 1.4297 3.3242 1.4297 0.84979 0 1.6868-0.19955 2.5137-0.60158 0.82684-0.40187 1.7126-1.0964 2.6543-2.084 0.0571 0.94068 0.16139 1.6997 0.31068 2.2734h2.5664c-0.1954-1.0336-0.29291-1.8664-0.29291-2.4981 0-0.89574 0.13039-2.0667 0.39454-3.5136l0.82813-4.5488c0.22942-1.2977 0.34356-2.428 0.34356-3.3926 0-1.3666-0.5051-2.4988-1.5156-3.3945-1.0106-0.90723-2.377-1.3594-4.0996-1.3594zm-84.482 0.39647-1.8086 10.559c-0.32163 1.8604-0.48241 3.182-0.48241 3.9629 0 1.2288 0.36661 2.2328 1.1016 3.0137 0.74645 0.78088 1.6649 1.1719 2.7559 1.1719 1.8834 0 3.7263-1.2402 5.5293-3.7207l-0.56833 3.3066h2.3594l3.1367-18.293h-2.5508l-1.3594 7.9063c-0.30992 1.8489-0.67861 3.3253-1.1035 4.4277-0.41344 1.091-1.0733 2.0033-1.9805 2.7383-0.89574 0.72348-1.7979 1.0859-2.7051 1.0859-0.64308 0-1.142-0.1852-1.498-0.55275-0.35603-0.37894-0.53321-0.92885-0.53321-1.6523 0-0.5283 0.0854-1.2817 0.25776-2.2578l1.998-11.695zm100.49 1.9824c1.0106 0 1.8618 0.4541 2.5508 1.3613 0.689 0.89574 1.0332 2.2154 1.0332 3.9609 0 1.6077-0.30538 3.1758-0.91407 4.7031-0.60861 1.5273-1.3194 2.6249-2.1347 3.291-0.81535 0.65457-1.632 0.98047-2.4473 0.98047-1.0335 0-1.895-0.44193-2.584-1.3262-0.68904-0.88425-1.0332-2.1937-1.0332-3.9277 0-1.6996 0.2812-3.3003 0.84378-4.8047 0.57414-1.5158 1.2747-2.6013 2.1016-3.2558 0.8383-0.65457 1.6998-0.98244 2.584-0.98244zm-63.344 0.16592c0.88425 0 1.6479 0.40316 2.291 1.207 0.64308 0.80386 0.96487 1.9402 0.96487 3.4102 0 2.8593-0.62525 5.2707-1.877 7.2344-0.95315 1.4699-2.004 2.2051-3.1523 2.2051-0.88426 0-1.597-0.37266-2.1368-1.1192-0.70049-0.9646-1.0508-2.2048-1.0508-3.7207l0.0151-0.74218h2e-3c0-1.0335 0.23017-2.3186 0.68942-3.8574 0.45936-1.5388 1.0682-2.6935 1.8262-3.4629 0.7579-0.76944 1.5664-1.1543 2.4277-1.1543zm19.145 6.8945c-0.28724 1.9292-0.672 3.371-1.1543 4.3242-0.47085 0.95316-1.0839 1.6822-1.8418 2.1875-0.75794 0.50529-1.544 0.7578-2.3594 0.7578-0.86131 0-1.5516-0.271-2.0684-0.81056-0.51677-0.53971-0.77537-1.2749-0.77537-2.205 0-0.67756 0.16063-1.2743 0.48242-1.791 0.32163-0.51673 0.76954-0.90163 1.3437-1.1543 0.57418-0.25285 1.6311-0.45838 3.1699-0.61916 1.5044-0.16063 2.5715-0.39076 3.2031-0.68942zm30.602 0c-0.28724 1.9292-0.67199 3.371-1.1543 4.3242-0.47085 0.95316-1.0858 1.6822-1.8438 2.1875-0.75794 0.50529-1.544 0.7578-2.3594 0.7578-0.86127 0-1.5516-0.271-2.0684-0.81056-0.51677-0.53971-0.77344-1.2749-0.77344-2.205 0-0.67756 0.16063-1.2743 0.48242-1.791 0.32164-0.51673 0.76958-0.90163 1.3438-1.1543 0.57419-0.25285 1.6292-0.45838 3.168-0.61916 1.5044-0.16063 2.5735-0.39076 3.2051-0.68942z" stroke-width="1.3229" style="font-variant-caps:normal;font-variant-east-asian:normal;font-variant-ligatures:normal;font-variant-numeric:normal;text-orientation:upright"/>
  <path id="earthquake" d="m20.22 1.4163e-6h209.56c11.201 0 20.22 9.0179 20.22 20.22v209.56c0 11.201-9.0179 20.22-20.22 20.22h-209.56c-11.201 0-20.22-9.0179-20.22-20.22v-209.56c0-11.201 9.0179-20.22 20.22-20.22z" fill="#fff" stop-color="#000000" stroke-width="1.0059"/>
  <path id="path2078" d="m97.918 197.42c-0.81235-0.64989-5.2758-8.7982-9.9189-18.107l-8.442-16.926-3.3444 5.4919c-5.6397 9.2611-4.619 8.8682-23.034 8.8682h-15.677v-14.362l25.646-0.0299 6.4971-9.6272c3.8036-5.636 7.2627-10.025 8.3439-10.588 2.4349-1.266 5.3473-1.2169 7.2594 0.122 0.8934 0.62581 4.9576 7.9018 9.6321 17.244l8.0866 16.162 23.785-47.825 2.7928-0.96555c2.5373-0.87725 3.0372-0.84601 5.4627 0.34151 2.562 1.2547 2.9233 1.8846 8.9427 15.589 3.4501 7.8547 7.2546 16.472 8.4548 19.15l2.182 4.868 3.9394-8.2722c4.1868-8.7913 5.7504-10.535 9.4461-10.535 4.1188 0 5.7494 1.4647 8.9829 8.0697l3.0138 6.156 4.1672 0.38751c2.292 0.2135 9.3222 0.58904 15.623 0.83509l11.456 0.44751v14.401l-18.356-0.3705c-19.824-0.40014-21.045-0.62019-23.954-4.3191l-1.397-1.776-4.4117 8.804c-4.6939 9.3672-5.761 10.451-10.295 10.451-1.2481 0-3.0086-0.58156-3.9122-1.2923-1.077-0.84719-4.4503-7.679-9.7929-19.834-4.4825-10.197-8.3399-18.541-8.5718-18.541-0.23203 0-5.316 10.029-11.298 22.287-6.6546 13.636-11.521 22.795-12.539 23.594-2.1112 1.6607-6.7495 1.7115-8.7686 0.096zm0.64466-47.623c-6.2711-12.589-10.139-16.331-16.882-16.331-7.5265 0-10.404 2.2105-17.605 13.524l-4.348 6.8314-0.181-20.952-0.181-20.952-8.5954-0.24098-8.5954-0.24049-1.9954-2.2335c-2.1346-2.3892-2.5243-4.976-1.1163-7.4085 1.2869-2.223 82.481-75.771 84.375-76.429 4.1518-1.4422 4.498-1.1665 46.74 37.227 22.381 20.341 41.066 37.652 41.523 38.469 2.0951 3.7433-0.12752 8.8047-4.3855 9.9872-1.4301 0.3975-5.7548 0.72379-9.6103 0.72594l-7.0101 2e-3v43.086h-2.9412c-2.7976 0-3.0126-0.14703-4.3996-3.0017-3.4116-7.022-8.8688-10.944-15.228-10.944-4.5968 0-8.7152 1.9674-11.35 5.422-1.02 1.3374-2.0939 2.1865-2.3863 1.8871-0.2925-0.29949-2.7046-5.6029-5.3602-11.786-2.6557-6.1826-5.6775-12.146-6.7151-13.251-5.2327-5.5765-14.023-6.0192-19.745-0.99454-1.8058 1.5855-4.6241 6.5151-10.927 19.112-4.6711 9.3365-8.5744 16.976-8.674 16.976-0.0995 0-2.0828-3.8182-4.4074-8.4848zm18.955-45.544v-7.5229h-14.362v15.046h14.362zm29.066-7.9138-14.704 0.3445v15.138l14.704-0.388zm-29.066-13.971v-7.523h-14.362v15.046h14.362zm29.066-7.181h-14.362l-0.19449 7.3754-0.194 7.3753 14.751-0.14498z" stroke-width=".6839"/>
  <path id="path950" d="m99.352 213.34c-2.2507 0-4.0246 0.62109-5.3223 1.8613-1.2862 1.2402-1.9297 2.8695-1.9297 4.8906 0 1.1599 0.23618 2.1944 0.70703 3.1016 0.48233 0.89574 1.2236 1.7165 2.2227 2.4629 0.55124 0.41341 1.596 1.0284 3.1348 1.8437 1.9867 1.045 3.2432 1.8821 3.7715 2.5137 0.51677 0.64308 0.77539 1.4007 0.77539 2.2734 0 1.2402-0.4602 2.2808-1.3789 3.1191-0.9187 0.82684-2.1631 1.2402-3.7363 1.2402-1.1369 0-2.1185-0.20768-2.9453-0.6211-0.81537-0.4249-1.3957-0.97064-1.7402-1.6367-0.45933-0.87278-0.68945-1.8707-0.68945-2.9961l0.01776-0.84374-2.7051 0.30859c0.01134 2.9628 0.6896 5.1398 2.0332 6.5293 1.3437 1.378 3.3129 2.0664 5.9082 2.0664 2.3999 0 4.3409-0.70056 5.8223-2.1016 1.4814-1.4123 2.2207-3.1741 2.2207-5.2871 0-1.0105-0.17113-1.9188-0.51563-2.7227-0.33301-0.81534-0.80954-1.5098-1.4297-2.084-0.60864-0.58567-1.7694-1.3433-3.4805-2.2734-2.3427-1.2632-3.8111-2.1695-4.4082-2.7207-0.59714-0.55119-0.89648-1.3393-0.89648-2.3613 0-1.1254 0.39098-2.0317 1.1719-2.7207 0.79237-0.68903 1.8941-1.0332 3.3066-1.0332 0.98761 0 1.8612 0.19547 2.6192 0.58594 0.75793 0.37897 1.3363 0.91864 1.7383 1.6191 0.41341 0.7005 0.62109 1.4581 0.62109 2.2734l-0.0178 0.56835 2.6875-0.25976 0.0178-0.5332c0-1.2862-0.32783-2.4918-0.98242-3.6172-0.64325-1.1254-1.5169-1.9807-2.6193-2.5664s-2.4282-0.8789-3.9785-0.8789zm12.609 0.4375-0.60351 3.5312h2.5508l0.60156-3.5312zm49.4 6.5156c-2.492 0-4.4795 1.1364-5.9609 3.4102-1.4814 2.2739-2.2226 5.0596-2.2226 8.3555 0 2.2737 0.58037 4.07 1.7402 5.3906 1.1598 1.3092 2.6302 1.9648 4.4102 1.9648 1.3551 0 2.6462-0.4419 3.875-1.3262 1.2402-0.8957 2.2462-2.2337 3.0156-4.0137 0.7809-1.78 1.1699-3.8021 1.1699-6.0644 0-2.4689-0.56821-4.369-1.7051-5.7012-1.1369-1.3436-2.5767-2.0156-4.3223-2.0156zm-22.633 8e-3c-0.83831 0-1.6305 0.23618-2.377 0.70703-0.74643 0.45933-1.612 1.3656-2.5996 2.7207l0.51563-3.0137h-2.5488l-3.1348 18.293h2.5488l1.498-8.6465c0.45934-2.6873 1.1945-4.6055 2.2051-5.7539 1.0221-1.1598 2.1014-1.7402 3.2383-1.7402 0.47083 0 0.86181 0.17914 1.1719 0.53516 0.32156 0.35595 0.48243 0.83863 0.48243 1.4472 0 0.36749-0.0753 0.97029-0.22461 1.8086l-2.1191 12.35h2.5684l1.5156-8.8711c0.34454-1.9752 0.74574-3.4151 1.2051-4.3223 0.47083-0.91871 1.096-1.6375 1.877-2.1543 0.78087-0.52823 1.5282-0.79297 2.2402-0.79297 0.53972 0 0.96948 0.16697 1.291 0.49999 0.32152 0.32156 0.48242 0.79201 0.48242 1.4121 0 0.4364-0.0855 1.1491-0.2578 2.1367l-2.0664 12.092h2.5488l2.0156-11.781c0.22968-1.2977 0.34375-2.2405 0.34375-2.8262 0-1.3321-0.33199-2.3483-0.99805-3.0488-0.6546-0.70051-1.5731-1.0508-2.7559-1.0508-0.93017 0-1.8201 0.28716-2.6699 0.86132-0.84976 0.5627-1.6542 1.418-2.4121 2.5664-0.2067-1.1139-0.62621-1.9632-1.2578-2.5488s-1.4075-0.8789-2.3262-0.8789zm-16.969 4e-3c-1.6077 0-2.905 0.49287-3.8926 1.4805-0.98761 0.98756-1.4824 2.2461-1.4824 3.7734 0 0.74643 0.13236 1.4226 0.39649 2.0312 0.26411 0.59717 0.63072 1.1083 1.1016 1.5332 0.48234 0.4134 1.47 1.0121 2.9629 1.793 1.2977 0.67754 2.1428 1.2499 2.5332 1.7207 0.37896 0.47084 0.56836 1.0003 0.56836 1.5859 0 0.81533-0.30542 1.4874-0.91407 2.0156-0.60863 0.51676-1.4355 0.77539-2.4805 0.77539-1.1484 0-2.0546-0.36858-2.7207-1.1035-0.6659-0.73497-0.99376-1.8489-0.98242-3.3418l-2.5664 0.18947v0.34571c0 2.0096 0.54578 3.5655 1.6367 4.668 1.091 1.1024 2.5959 1.6523 4.5137 1.6523 1.9063 0 3.393-0.54575 4.4609-1.6367 1.0795-1.0909 1.6191-2.3943 1.6191-3.9102 0-1.3665-0.40121-2.5254-1.2051-3.4785-0.52827-0.60864-1.7643-1.4252-3.7051-2.4473-1.2632-0.65457-2.0493-1.176-2.3594-1.5664-0.31007-0.37897-0.46484-0.83306-0.46484-1.3613 0-0.60864 0.25863-1.1422 0.77539-1.6016 0.51676-0.47084 1.1888-0.70703 2.0156-0.70703 1.0565 0 1.8935 0.31151 2.5137 0.93164 0.63163 0.6201 0.96556 1.504 1 2.6523l2.5156-0.20704c-0.0459-1.8259-0.58756-3.2433-1.6211-4.2539-1.0335-1.022-2.4388-1.5332-4.2188-1.5332zm-10.986 0.43163-3.1367 18.293h2.5508l3.1348-18.293zm50.502 1.9688c1.0105 0 1.8598 0.45413 2.5488 1.3613 0.68904 0.89575 1.0332 2.2154 1.0332 3.9609 0 1.6077-0.30346 3.1758-0.91211 4.7031-0.60863 1.5273-1.3214 2.623-2.1367 3.2891-0.81533 0.65457-1.63 0.98243-2.4453 0.98243-1.0335 0-1.895-0.44194-2.584-1.3262-0.68904-0.88424-1.0332-2.1937-1.0332-3.9277 0-1.6996 0.28105-3.3023 0.84375-4.8066 0.57417-1.5159 1.2747-2.5993 2.1016-3.2539 0.8383-0.65457 1.6997-0.98241 2.584-0.98241z" stroke-width="1.3229" style="font-variant-caps:normal;font-variant-east-asian:normal;font-variant-ligatures:normal;font-variant-numeric:normal;text-orientation:upright"/>
  <path id="settlement" d="m300.22 1.4163e-6h209.56c11.201 0 20.22 9.0179 20.22 20.22v209.56c0 11.201-9.0179 20.22-20.22 20.22h-209.56c-11.201 0-20.22-9.0179-20.22-20.22v-209.56c0-11.201 9.0179-20.22 20.22-20.22z" fill="#fff" stop-color="#000000" stroke-width="1.0059"/>
  <path id="path2084" d="m318.63 195.36c-1.0268-1.1345-1.1314-5.1118-1.1314-43.018 0-37.059 0.12102-41.889 1.0742-42.841 0.92225-0.9222 3.6239-1.0742 19.094-1.0742 16.579 0 18.047-0.096 18.357-1.1963 0.18501-0.65806 1.1603-4.8168 2.1667-9.2419 2.0083-8.8298 1.9124-8.7067 7.8425-10.07 2.0678-0.47549 4.0216-1.0147 4.3415-1.1988 0.32005-0.18399-1.2809-2.0661-3.5574-4.1823l-4.1393-3.8477 0.6577-3.0761c0.362-1.6919 0.7947-3.6913 0.9621-4.4434 0.27749-1.2465-0.0501-1.3672-3.7109-1.3672-3.3396 0-4.3229-0.28747-5.8436-1.709-2.4208-2.2629-3.7491-4.9245-3.7491-7.5129 0-2.6181 2.1474-6.8987 4.0319-8.0367 3.6962-2.2323 65.624-30.418 67.53-30.736 5.0523-0.8423 6.4435 0.5481 30.634 30.618 12.407 15.422 22.768 28.563 23.023 29.203 0.25587 0.63931 0.4865 2.5999 0.51273 4.3569 0.11074 7.3699-8.4246 11.923-14.554 7.7635-1.3684-0.92865-2.488-1.5918-2.488-1.4737 0 0.118-1.8458 8.1549-4.1016 17.859-2.256 9.7046-4.1016 17.904-4.1016 18.222s8.7194 0.57704 19.377 0.57704c17.903 0 19.462 0.095 20.507 1.2502 1.0182 1.125 1.1314 4.3953 1.1314 32.706 0 29.606-0.0733 31.523-1.2501 32.588-1.1492 1.0401-8.1242 1.1314-86.369 1.1314-81.593 0-85.165-0.0515-86.25-1.2501zm167.03-32.588v-27.002l-19.653 0.0147c-18.045 0.0147-20.703 0.17148-32.479 1.9453-7.0543 1.0626-12.934 2.0561-13.068 2.2081-0.13266 0.15148 0.0658 2.4895 0.44149 5.1942l0.68325 4.9178 4.4284 1.8821c4.8722 2.0708 6.3072 3.8798 5.0061 6.3111-1.0315 1.9273-3.2049 1.8534-8.0112-0.27201l-3.9026-1.726-3.8074 2.6801-3.8074 2.68-0.68364 10.35c-0.7017 10.624-1.0296 11.63-3.8028 11.657-1.4056 0.0147-3.1261-1.908-11.821-13.203-4.3875-5.6998-7.2771-10.077-7.2771-11.023 0-0.86287 1.6879-3.8803 3.7509-6.7052l3.7508-5.1363-2.7926-6.0578c-1.5358-3.3319-2.8987-6.1686-3.0282-6.3038-0.12964-0.135-2.491 0.51256-5.2475 1.4394-5.4134 1.82-7.6061 1.62-8.226-0.75046-0.59225-2.2648 1.2752-4.0036 5.9818-5.5698 2.4441-0.81336 4.4437-1.5987 4.4437-1.7454 0-0.14653-0.72453-1.9048-1.6101-3.9072l-1.61-3.6405-25.149-5.7675-33.838 0.0299v74.512h161.33zm-158 17.176c-0.53666-1.1778-0.52601-2.021 0.0399-3.0762 0.7606-1.4211 1.1487-1.4537 17.365-1.4537 17.417 0 18.228 0.13648 18.228 3.0762 0 2.9401-0.80826 3.0762-18.266 3.0762h-16.626zm40.332 0c-1.0922-2.3973 0.253-4.5299 2.858-4.5299 2.5534 0 3.9634 2.4165 2.742 4.6987-1.1235 2.0993-4.6146 1.994-5.6-0.16947zm38.024-22.609c0.75189-0.57375 2.9822-2.1751 4.9561-3.5587 1.9739-1.3834 3.5918-3.0028 3.5954-3.5982 3e-3 -0.59545-0.36548-4.0866-0.81974-7.758-1.0027-8.099-0.85722-8.3282 5.9402-9.3663 9.772-1.4923 10.044-1.3217-9.2286-5.7894-9.9633-2.3098-18.199-4.0129-18.302-3.7845-0.1028 0.22847 2.1225 5.4699 4.9444 11.648 2.8219 6.1783 5.136 11.965 5.1424 12.859 4e-3 0.89399-1.5264 3.7001-3.4062 6.2359-1.8798 2.5359-3.418 4.7924-3.418 5.0146 0 0.22197 1.9226 2.9178 4.2724 5.9901l4.2725 5.5861 0.34129-6.2175c0.28384-5.1693 0.57221-6.3934 1.7089-7.2606zm39.558-33.68c0.57592-2.5251 0.88823-4.7503 0.69388-4.9445-0.19464-0.19449-1.6402-0.82681-3.2131-1.4055-2.4104-0.88685-2.8922-1.3813-3.0658-3.1459-0.30576-3.1096 1.277-4.1404 4.8726-3.174 1.5691 0.422 3.0487 0.55586 3.2879 0.29801 0.23962-0.25802 1.744-6.1995 3.3441-13.204l2.909-12.735-33.656-41.758-48.219 22.353-1.2959 5.2539-1.2962 5.254 3.3426 2.8022c6.9331 5.8122 9.116 8.3181 8.6843 9.9688-0.48151 1.8405-0.68549 1.9302-9.4342 4.1458l-6.8268 1.7289-1.567 6.7819c-0.86191 3.7301-1.3274 7.0021-1.0345 7.2711 0.77555 0.71236 21.393 5.2854 21.674 4.8077 0.13115-0.22148 2.2931-9.3072 4.8049-20.19 2.5118-10.882 4.8642-20.341 5.2277-21.02 0.36359-0.6791 1.3421-1.2357 2.1749-1.237 3.531-0.0042 32.325 7.0668 33.573 8.2461 1.2715 1.201 1.206 1.628-3.2143 20.93-2.4818 10.837-4.6038 20.307-4.7158 21.045-0.18217 1.1969 0.9386 1.6132 10.392 3.8628 5.8276 1.3869 10.801 2.5521 11.052 2.5893 0.25172 0.0351 0.9281-1.9982 1.5041-4.5233zm-25.71-20.529c2.3117-10.056 3.9867-18.475 3.7222-18.708-0.65068-0.57345-23.321-5.6922-23.622-5.3338-0.44451 0.52885-8.5371 36.51-8.2712 36.775 0.26834 0.26849 21.928 5.385 23.246 5.4912 0.39647 0.0299 2.6125-8.1695 4.9243-18.225zm49.672-16.028c0.95141-1.3584 0.93901-1.6793-0.13191-3.4179-2.9048-4.7149-43.712-54.566-44.955-54.919-0.94064-0.26701-11.835 4.4216-33.695 14.502-26.79 12.353-32.372 15.162-32.695 16.452-0.474 1.8878 0.7983 3.5886 2.6841 3.5886 0.76289 0 14.784-6.1958 31.158-13.768 27.587-12.758 29.884-13.699 31.306-12.818 0.84396 0.52305 9.4426 10.795 19.108 22.826 22.679 28.23 23.383 29.053 24.895 29.053 0.70147 0 1.748-0.6746 2.3255-1.499z" stroke-width=".68359"/>
  <path id="path925" d="m322.78 213.75-11.732 25.252h3.0332l3.3242-7.2676h8.3711l1 7.2676h2.6856l-3.4102-25.252zm77.236 0.29299-2.9297 2.1524-0.77343 4.4961h-2.0156l-0.41405 2.4121h2.0156l-1.8086 10.627c-0.25285 1.4469-0.3789 2.3715-0.3789 2.7734 0 0.8498 0.27477 1.5279 0.82616 2.0332 0.56273 0.50529 1.3203 0.75781 2.2734 0.75781 0.57418 0 1.1668-0.0977 1.7754-0.29295l0.44727-2.5488c-0.44783 0.13799-0.95289 0.20704-1.5156 0.20704-0.37901 0-0.66005-0.0917-0.84374-0.27538-0.18368-0.18372-0.27552-0.47697-0.27552-0.87891 0-0.22968 0.10809-0.99338 0.32617-2.291l1.7402-10.111h2.4981l0.41208-2.4121h-2.4961zm80.549 0-2.9278 2.1524-0.77536 4.4961h-2.0156l-0.41212 2.4121h2.0156l-1.8086 10.627c-0.25285 1.4469-0.38086 2.3715-0.38086 2.7734 0 0.8498 0.27704 1.5279 0.82813 2.0332 0.56269 0.50529 1.3203 0.75781 2.2734 0.75781 0.57422 0 1.1648-0.0977 1.7734-0.29295l0.4492-2.5488c-0.44787 0.13799-0.95289 0.20704-1.5156 0.20704-0.37901 0-0.66202-0.0917-0.8457-0.27538-0.18369-0.18372-0.27553-0.47697-0.27553-0.87891 0-0.22968 0.10998-0.99338 0.32806-2.291l1.7402-10.111h2.4981l0.41212-2.4121h-2.4981zm-156.51 2.4629c0.0804 1.6882 0.27587 3.7837 0.58593 6.2871l0.79297 6.3398h-6.8379l3.4102-7.4766c0.90724-1.9867 1.5895-3.7034 2.0488-5.1504zm166.26 3.7812c-2.4919-9e-5 -4.4795 1.1363-5.961 3.4102-1.4814 2.2739-2.2226 5.0596-2.2226 8.3555 0 2.2737 0.58038 4.07 1.7402 5.3906 1.1599 1.3092 2.6302 1.9648 4.4102 1.9648 1.3551 0 2.6462-0.4419 3.875-1.3262 1.2402-0.89569 2.2462-2.2337 3.0156-4.0137 0.78092-1.78 1.1699-3.8021 1.1699-6.0644 0-2.4689-0.56817-4.369-1.7051-5.7012-1.1368-1.3436-2.5767-2.0156-4.3222-2.0156zm-102.96 8e-3c-0.82684 0-1.6842 0.26472-2.5684 0.79296-0.88426 0.51677-1.8659 1.4535-2.9453 2.8086l0.53518-3.1875h-2.3086l-3.1348 18.293h2.5488l1.4649-8.5098c0.48231-2.8134 1.2338-4.7889 2.2558-5.9258 1.0335-1.1369 2.1943-1.7051 3.4805-1.7051 0.62014 0 1.1069 0.18331 1.4629 0.55078 0.36737 0.35599 0.55079 0.85082 0.55079 1.4824 0 0.53974-0.0979 1.3788-0.29291 2.5156l-1.998 11.592h2.5684l1.8945-11.076c0.25285-1.447 0.37893-2.4917 0.37893-3.1348 0-1.4355-0.36245-2.5433-1.086-3.3242-0.71199-0.78087-1.6468-1.1719-2.8066-1.1719zm40.023 0c-0.83834 0-1.6305 0.23618-2.377 0.70703-0.74642 0.45933-1.614 1.3656-2.6016 2.7207l0.51757-3.0137h-2.5488l-3.1367 18.293h2.5508l1.498-8.6465c0.45937-2.6873 1.1945-4.6055 2.2051-5.7539 1.0221-1.1598 2.1014-1.7402 3.2383-1.7402 0.47089 0 0.86184 0.17915 1.1719 0.53516 0.32164 0.35595 0.48242 0.83863 0.48242 1.4473 0 0.36748-0.0752 0.97029-0.22451 1.8086l-2.1191 12.35h2.5664l1.5156-8.8711c0.34431-1.9752 0.7477-3.4151 1.2071-4.3223 0.47085-0.91871 1.0961-1.6375 1.8769-2.1543 0.78088-0.52823 1.5282-0.79297 2.2402-0.79297 0.5396 0 0.96933 0.16698 1.291 0.5 0.32164 0.32156 0.48242 0.79201 0.48242 1.4121 0 0.4364-0.0854 1.1491-0.25776 2.1367l-2.0683 12.092h2.5508l2.0156-11.781c0.22942-1.2977 0.34356-2.2405 0.34356-2.8262 0-1.3321-0.33411-2.3483-1-3.0488-0.65457-0.70051-1.573-1.0508-2.7558-1.0508-0.93017 0-1.8201 0.28717-2.6699 0.86132-0.84982 0.5627-1.6523 1.418-2.4102 2.5664-0.20674-1.1139-0.62619-1.9632-1.2578-2.5488-0.63163-0.58567-1.4075-0.8789-2.3262-0.8789zm40.525 0c-0.82684 0-1.6822 0.26472-2.5664 0.79296-0.88426 0.51677-1.8659 1.4535-2.9453 2.8086l0.53318-3.1875h-2.3066l-3.1348 18.293h2.5488l1.4629-8.5098c0.4823-2.8134 1.2357-4.7889 2.2578-5.9258 1.0335-1.1369 2.1924-1.7051 3.4785-1.7051 0.62006 0 1.1088 0.18331 1.4648 0.55078 0.36737 0.35599 0.55079 0.85082 0.55079 1.4824 0 0.53974-0.0979 1.3788-0.29292 2.5156l-1.998 11.592h2.5664l1.8946-11.076c0.25285-1.447 0.38086-2.4917 0.38086-3.1348 0-1.4355-0.36246-2.5433-1.086-3.3242-0.71198-0.78087-1.6487-1.1719-2.8086-1.1719zm-128.42 4e-3c-1.6077 0-2.905 0.49287-3.8926 1.4805-0.98761 0.98757-1.4805 2.2461-1.4805 3.7734 0 0.74643 0.13039 1.4226 0.39453 2.0312 0.26411 0.59717 0.63268 1.1083 1.1035 1.5332 0.48234 0.4134 1.47 1.0121 2.9629 1.793 1.2977 0.67754 2.1408 1.2499 2.5313 1.7207 0.37896 0.47083 0.56834 1.0003 0.56834 1.5859 0 0.81532-0.30345 1.4874-0.91211 2.0156-0.60862 0.51676-1.4354 0.77539-2.4804 0.77539-1.1483 0-2.0566-0.36857-2.7227-1.1035-0.66591-0.73497-0.99181-1.8489-0.98047-3.3418l-2.5664 0.18946v0.34571c-3e-5 2.0096 0.5438 3.5655 1.6348 4.668 1.091 1.1024 2.5959 1.6523 4.5137 1.6523 1.9063 0 3.393-0.54575 4.4609-1.6367 1.0795-1.0909 1.6191-2.3943 1.6191-3.9102 0-1.3665-0.40121-2.5254-1.2051-3.4785-0.52826-0.60863-1.7624-1.4252-3.7031-2.4473-1.2632-0.65457-2.0493-1.176-2.3594-1.5664-0.31007-0.37897-0.46679-0.83306-0.46679-1.3613 0-0.60864 0.25863-1.1422 0.77539-1.6016 0.51676-0.47084 1.1888-0.70703 2.0156-0.70703 1.0565 0 1.8955 0.31151 2.5156 0.93164 0.63162 0.6201 0.9636 1.504 0.99804 2.6523l2.5156-0.20704c-0.046-1.8259-0.58561-3.2433-1.6191-4.2539-1.0335-1.022-2.4407-1.5332-4.2207-1.5332zm14.471 0c-1.6077 0-2.905 0.49287-3.8926 1.4805-0.9876 0.98757-1.4824 2.2461-1.4824 3.7734 0 0.74643 0.13236 1.4226 0.39648 2.0312 0.26415 0.59717 0.63268 1.1083 1.1035 1.5332 0.48233 0.4134 1.47 1.0121 2.9629 1.793 1.2977 0.67754 2.1408 1.2499 2.5312 1.7207 0.37893 0.47083 0.56836 1.0003 0.56836 1.5859 0 0.81532-0.3035 1.4874-0.91211 2.0156-0.60864 0.51676-1.4355 0.77539-2.4805 0.77539-1.1484 0-2.0566-0.36857-2.7227-1.1035-0.6659-0.73497-0.99376-1.8489-0.98242-3.3418l-2.5664 0.18946v0.34571c-1e-5 2.0096 0.54577 3.5655 1.6367 4.668 1.091 1.1024 2.5959 1.6523 4.5137 1.6523 1.9063 0 3.393-0.54575 4.4609-1.6367 1.0795-1.0909 1.6191-2.3943 1.6191-3.9102 0-1.3665-0.40124-2.5254-1.2051-3.4785-0.52827-0.60863-1.7624-1.4252-3.7031-2.4473-1.2632-0.65457-2.0513-1.176-2.3613-1.5664-0.31007-0.37897-0.46484-0.83306-0.46484-1.3613 0-0.60864 0.25863-1.1422 0.77539-1.6016 0.51677-0.47084 1.1888-0.70703 2.0156-0.70703 1.0565 0 1.8955 0.31151 2.5156 0.93164 0.63173 0.6201 0.96369 1.504 0.99805 2.6523l2.5156-0.20704c-0.0459-1.8259-0.5856-3.2433-1.6191-4.2539-1.0335-1.022-2.4407-1.5332-4.2207-1.5332zm15.395 0.0155c-1.3666 0-2.6373 0.42974-3.8086 1.291-1.1713 0.8498-2.1632 2.2061-2.9785 4.0664-0.80387 1.8602-1.207 3.8643-1.207 6.0117 0 1.6307 0.26472 3.0359 0.79297 4.2188 0.52824 1.1713 1.241 2.0571 2.1367 2.6543 0.89573 0.58567 1.8876 0.87696 2.9785 0.87696 1.5388 0 2.9338-0.55599 4.1856-1.6699 1.5044-1.3206 2.4636-2.8704 2.877-4.6504l-2.4961-0.31052h-2e-3c-0.47083 1.3206-1.1307 2.3307-1.9805 3.0312-0.83834 0.7005-1.6937 1.0508-2.5664 1.0508-0.91871 0-1.7048-0.44193-2.3594-1.3262-0.65457-0.89574-0.98242-2.2052-0.98242-3.9277 0-0.28709 0.0185-0.613 0.0527-0.98047h11.059c0.12635-0.94166 0.18947-1.8621 0.18947-2.7578 0-2.4117-0.55185-4.277-1.6543-5.5976-1.0909-1.3206-2.5023-1.9805-4.2363-1.9805zm80.549 0c-1.3665 0-2.6353 0.42974-3.8066 1.291-1.1714 0.8498-2.1651 2.2061-2.9805 4.0664-0.80386 1.8602-1.2051 3.8643-1.2051 6.0117 0 1.6307 0.26457 3.0359 0.79294 4.2188 0.5283 1.1713 1.2391 2.0571 2.1348 2.6543 0.8957 0.58567 1.8895 0.87696 2.9805 0.87696 1.5388 0 2.9338-0.55599 4.1855-1.6699 1.5044-1.3206 2.4635-2.8704 2.877-4.6504l-2.4981-0.31052c-0.47085 1.3206-1.1306 2.3307-1.9805 3.0312-0.8383 0.7005-1.6936 1.0508-2.5664 1.0508-0.91872 0-1.7048-0.44193-2.3594-1.3262-0.65454-0.89574-0.98241-2.2052-0.98241-3.9277 0-0.28709 0.0151-0.613 0.0507-0.98047h11.061c0.12624-0.94166 0.18936-1.8621 0.18936-2.7578 0-2.4117-0.55189-4.277-1.6543-5.5976-1.091-1.3206-2.5042-1.9805-4.2383-1.9805zm-40.133 4e-3c-3.491 0-5.7821 1.8735-6.873 5.6172l2.584 0.27537c0.6316-2.2278 2.0083-3.3418 4.1328-3.3418 1.0565 0 1.8609 0.23425 2.4121 0.70508 0.56269 0.45934 0.84374 1.0743 0.84374 1.8438 0 0.5512-0.10205 1.264-0.30841 2.1367-0.37897 0.18368-0.83916 0.32012-1.3789 0.41211-0.52826 0.092-1.5099 0.17945-2.9453 0.25976-1.6996 0.0804-3.0091 0.35535-3.9277 0.82617-0.90723 0.45938-1.6139 1.1253-2.1191 1.998-0.50532 0.87278-0.75783 1.8951-0.75783 3.0664 0 1.6422 0.43582 2.9394 1.3086 3.8926 0.88425 0.95317 1.994 1.4297 3.3262 1.4297 0.84978 0 1.6868-0.2016 2.5137-0.60352 0.82684-0.40193 1.7107-1.0964 2.6523-2.084h2e-3c0.0571 0.94166 0.15912 1.6993 0.30878 2.2734h2.5664c-0.1954-1.0335-0.29102-1.8645-0.29102-2.4961 0-0.8957 0.13039-2.0686 0.39454-3.5156l0.82813-4.5469c0.22941-1.2977 0.34393-2.4279 0.34393-3.3926 0-1.3665-0.50505-2.4988-1.5156-3.3945-1.0106-0.9072-2.377-1.3613-4.0996-1.3613zm80.461 2.3809c1.0106 0 1.8598 0.45413 2.5488 1.3613 0.68904 0.89575 1.0332 2.2154 1.0332 3.9609 0 1.6077-0.30349 3.1758-0.9121 4.7031-0.60862 1.5273-1.3214 2.623-2.1367 3.2891-0.81535 0.65457-1.63 0.98243-2.4453 0.98243-1.0335 0-1.895-0.44194-2.584-1.3262-0.689-0.88424-1.0351-2.1937-1.0351-3.9277 0-1.6996 0.28309-3.3023 0.8457-4.8066 0.57419-1.5159 1.2747-2.5993 2.1016-3.2539 0.83829-0.65456 1.6997-0.98241 2.584-0.98241zm-120.83 0.043c0.9991 0 1.8198 0.40732 2.4629 1.2227 0.6431 0.81533 0.96484 2.0392 0.96484 3.6699v0.63672h-8.4219c0.44787-1.8489 1.1179-3.2317 2.0137-4.1504 0.90721-0.91867 1.901-1.3789 2.9805-1.3789zm80.551 0c0.99907 0 1.8198 0.40732 2.4629 1.2227 0.64308 0.81533 0.96487 2.0392 0.96487 3.6699v0.63672h-8.4238c0.44787-1.8489 1.1199-3.2317 2.0156-4.1504 0.90723-0.91867 1.901-1.3789 2.9805-1.3789zm-37.775 7.0176c-0.28724 1.9293-0.67196 3.3691-1.1543 4.3223-0.47081 0.95313-1.0839 1.6822-1.8418 2.1875-0.75794 0.50527-1.544 0.75782-2.3594 0.75782-0.86127 0-1.5516-0.26887-2.0684-0.80859-0.51677-0.53974-0.7754-1.2749-0.7754-2.2051 0-0.67754 0.16062-1.2742 0.48241-1.791 0.32164-0.51672 0.76955-0.90162 1.3438-1.1543 0.57418-0.25274 1.6311-0.46041 3.1699-0.62109 1.5044-0.16067 2.5715-0.38883 3.2031-0.6875z" stroke-width="1.3229" style="font-variant-caps:normal;font-variant-east-asian:normal;font-variant-ligatures:normal;font-variant-numeric:normal;text-orientation:upright"/>
</svg>
