<svg version="1.1" viewBox="0 0 810 530" xmlns="http://www.w3.org/2000/svg">
  <path id="buildings" d="m20.22-4.4824e-6h209.56c11.202 0 20.22 9.0179 20.22 20.22v209.56c0 11.202-9.0179 20.22-20.22 20.22h-209.56c-11.202 0-20.22-9.0179-20.22-20.22v-209.56c0-11.202 9.0179-20.22 20.22-20.22z" fill="#fff" stop-color="#000000"/>
  <path d="m119.72 209.63c-1.3321 0-2.3198 0.40732-2.9629 1.2227-0.44786 0.57418-0.82666 1.7635-1.1367 3.5664l-0.44922 2.5996h-2.291l-0.41211 2.4121h2.291l-2.7227 15.883h2.5664l2.7051-15.883h2.8594l0.41406-2.4121h-2.8594l0.34375-1.9629c0.19522-1.1254 0.41923-1.8442 0.67187-2.1543 0.26413-0.31006 0.64902-0.46484 1.1543-0.46484 0.57418 0 1.2972 0.13846 2.1699 0.41406l0.46485-2.7226c-1.2402-0.33303-2.175-0.49805-2.8066-0.49805zm-45.199 0.42969-4.3242 25.254h15.795l0.5-2.8613h-13.039l1.5156-8.7832h11.852l0.48242-2.877h-11.852l1.3438-7.8555h12.195l0.48242-2.877h-14.951zm28.404 0-1.6875 9.8359c-0.94166-2.1934-2.3386-3.2891-4.1875-3.2891-1.1139 0-2.232 0.44193-3.3574 1.3262-1.1254 0.88424-2.0743 2.261-2.8438 4.1328-0.7694 1.8604-1.1543 3.9111-1.1543 6.1504 0 2.5034 0.48264 4.3811 1.4473 5.6328 0.96463 1.2517 2.1356 1.877 3.5137 1.877 1.6077 0 3.1351-1.0223 4.582-3.0664l-0.44726 2.6543h2.3594l4.3242-25.254h-2.5488zm6.5625 0-0.60351 3.5312h2.5508l0.60156-3.5312h-2.5488zm15.605 0-2.6523 4.7383h2.1191l3.7559-4.7383h-3.2227zm21.395 0-0.60156 3.5312h2.5488l0.60156-3.5312h-2.5488zm-10.111 6.5469c-1.424 0-2.7212 0.42974-3.8926 1.291-1.1598 0.86127-2.1251 2.246-2.8945 4.1523-0.75792 1.9063-1.1367 4.0243-1.1367 6.3555 0 2.3771 0.51725 4.1916 1.5508 5.4434 1.045 1.2517 2.3606 1.877 3.9453 1.877 1.4699 0 2.8018-0.54991 3.9961-1.6523 1.1943-1.1139 2.1128-2.8144 2.7558-5.0996l-2.5664-0.32813c-0.42489 1.5733-1.0175 2.7462-1.7754 3.5156s-1.5501 1.1523-2.377 1.1523c-0.80386 0-1.4983-0.3788-2.084-1.1367-0.57419-0.7694-0.86133-1.8875-0.86133-3.3574 0-1.9752 0.26472-3.7734 0.79297-5.3926 0.53973-1.6307 1.1711-2.7446 1.8945-3.3418 0.73496-0.60864 1.5557-0.91211 2.4629-0.91211 0.81534 0 1.4996 0.32176 2.0508 0.96484 0.5627 0.6316 0.84375 1.544 0.84375 2.7383l2.5137-0.20703c0.01148-1.8833-0.46921-3.3639-1.4453-4.4434-0.97611-1.0795-2.2346-1.6191-3.7734-1.6191zm20.93 0c-2.492 0-4.4795 1.1364-5.9609 3.4102s-2.2207 5.0577-2.2207 8.3535c0 2.2738 0.57844 4.072 1.7383 5.3926 1.1598 1.3091 2.6302 1.9629 4.4102 1.9629 1.3551 0 2.6482-0.44193 3.877-1.3262 1.2402-0.89573 2.2443-2.2337 3.0137-4.0137 0.78088-1.78 1.1719-3.8002 1.1719-6.0625 0-2.469-0.5682-4.371-1.7051-5.7031-1.1369-1.3436-2.5787-2.0137-4.3242-2.0137zm15.105 0c-1.6077 0-2.905 0.49288-3.8926 1.4805-0.98759 0.98759-1.4805 2.2461-1.4805 3.7734 0 0.74644 0.13236 1.4226 0.39648 2.0312 0.26413 0.59714 0.63073 1.1083 1.1016 1.5332 0.48232 0.41341 1.47 1.0101 2.9629 1.791 1.2977 0.67753 2.1428 1.2518 2.5332 1.7226 0.37896 0.47083 0.56836 1.0003 0.56836 1.5859 0 0.81534-0.30543 1.4874-0.91407 2.0156-0.60863 0.51676-1.4354 0.77343-2.4805 0.77343-1.1484 0-2.0546-0.36661-2.7207-1.1016-0.66603-0.73495-0.99389-1.8489-0.98242-3.3418l-2.5664 0.18946v0.34375c0 2.0096 0.54578 3.5675 1.6367 4.6699 1.091 1.1024 2.594 1.6523 4.5117 1.6523 1.9063 0 3.3949-0.54577 4.4629-1.6367 1.0795-1.0909 1.6191-2.3943 1.6191-3.9102 0-1.3666-0.40317-2.5254-1.207-3.4785-0.52825-0.60863-1.7624-1.4252-3.7031-2.4473-1.2632-0.65457-2.0493-1.176-2.3594-1.5664-0.31006-0.37896-0.46484-0.83308-0.46484-1.3613 0-0.60863 0.25862-1.1422 0.77539-1.6016 0.51676-0.47083 1.1868-0.70703 2.0137-0.70703 1.0565 0 1.8955 0.31152 2.5156 0.93164 0.63159 0.62012 0.96554 1.504 1 2.6523l2.5137-0.20703c-0.04594-1.8259-0.58562-3.2433-1.6191-4.2539-1.0335-1.022-2.4407-1.5332-4.2207-1.5332zm-64.113 0.41211-3.1348 18.295h2.5508l3.1348-18.295h-2.5508zm15.383 0-3.1348 18.295h2.5488l3.1367-18.295h-2.5508zm21.619 0-3.1348 18.295h2.5488l3.1348-18.295h-2.5488zm11.92 1.998c1.0106 0 1.8598 0.45411 2.5488 1.3613 0.68902 0.89572 1.0332 2.2174 1.0332 3.9629 0 1.6077-0.30348 3.1738-0.91211 4.7012-0.60864 1.5273-1.3214 2.625-2.1367 3.291-0.81534 0.65457-1.63 0.98047-2.4453 0.98047-1.0335 0-1.895-0.44193-2.584-1.3262s-1.0332-2.1918-1.0332-3.9258c0-1.6996 0.28105-3.3023 0.84375-4.8066 0.57419-1.5158 1.2747-2.6013 2.1016-3.2559 0.83831-0.65457 1.6997-0.98242 2.584-0.98242zm-60.031 0.15625c0.88424 0 1.6479 0.40122 2.291 1.2051 0.64309 0.80385 0.96485 1.9402 0.96485 3.4102 0 2.8594-0.62719 5.2707-1.8789 7.2344-0.95314 1.4699-2.002 2.2051-3.1504 2.2051-0.88424 0-1.597-0.37271-2.1367-1.1191-0.7005-0.96463-1.0508-2.2049-1.0508-3.7207l0.017578-0.74023c0-1.0335 0.23011-2.3206 0.68945-3.8594 0.45935-1.5388 1.0663-2.6915 1.8242-3.4609 0.75792-0.7694 1.5684-1.1543 2.4297-1.1543z" stroke-width="1.3229" style="font-variant-caps:normal;font-variant-east-asian:normal;font-variant-ligatures:normal;font-variant-numeric:normal;text-orientation:upright"/>
  <path id="green_area" d="m300.22-4.4824e-6h209.56c11.202 0 20.22 9.0179 20.22 20.22v209.56c0 11.202-9.0179 20.22-20.22 20.22h-209.56c-11.202 0-20.22-9.0179-20.22-20.22v-209.56c0-11.202 9.0179-20.22 20.22-20.22z" fill="#fff" stop-color="#000000"/>
  <path d="m334.42 210.06-0.5 2.877h9.0449c0.50528 0 1.1936-0.06922 2.0664-0.20703-0.39045 0.51677-0.80385 1.0972-1.2402 1.7402l-12.541 18.311-0.25781 2.5332h15.348l0.5-2.877h-10.697c-0.48232 0-0.94667 0.03462-1.3945 0.10352l2.6016-3.7383 11.109-16.105 0.24219-2.6367h-14.281zm124.99 0-1.6875 9.8359c-0.94166-2.1934-2.3367-3.2891-4.1855-3.2891-1.1139 0-2.234 0.44193-3.3594 1.3262s-2.0724 2.261-2.8418 4.1328c-0.7694 1.8604-1.1543 3.9111-1.1543 6.1504 0 2.5034 0.48264 4.3811 1.4473 5.6328 0.96464 1.2517 2.1356 1.877 3.5137 1.877 1.6077 0 3.1351-1.0223 4.582-3.0664l-0.44727 2.6543h2.3594l4.3223-25.254h-2.5488zm-101.82 6.5469c-2.492 0-4.4776 1.1364-5.959 3.4102-1.4814 2.2738-2.2227 5.0577-2.2227 8.3535 0 2.2738 0.58038 4.072 1.7402 5.3926 1.1598 1.3091 2.6302 1.9629 4.4102 1.9629 1.3551 0 2.6462-0.44193 3.875-1.3262 1.2402-0.89573 2.2443-2.2337 3.0137-4.0137 0.78089-1.78 1.1719-3.8002 1.1719-6.0625 0-2.469-0.5682-4.371-1.7051-5.7031-1.1369-1.3436-2.5787-2.0137-4.3242-2.0137zm17.916 0c-0.82683 0-1.6822 0.26277-2.5664 0.79102-0.88424 0.51676-1.8678 1.4535-2.9473 2.8086l0.53516-3.1875h-2.3086l-3.1348 18.295h2.5488l1.4648-8.5098c0.48232-2.8135 1.2338-4.7889 2.2559-5.9258 1.0335-1.1369 2.1943-1.7051 3.4805-1.7051 0.62012 0 1.1069 0.1833 1.4629 0.55078 0.36748 0.35599 0.55274 0.84887 0.55274 1.4805 0 0.53973-0.09775 1.3787-0.29297 2.5156l-1.998 11.594h2.5664l1.8945-11.076c0.25264-1.4469 0.3789-2.4936 0.3789-3.1367 0-1.4355-0.36246-2.5433-1.0859-3.3242-0.71199-0.78088-1.6468-1.1699-2.8066-1.1699zm14.348 0c-3.491 0-5.7821 1.8716-6.873 5.6152l2.584 0.27539c0.63161-2.2278 2.0103-3.3418 4.1348-3.3418 1.0565 0 1.8609 0.23425 2.4121 0.70508 0.5627 0.45934 0.84374 1.0743 0.84374 1.8438 0 0.55121-0.10384 1.264-0.31054 2.1367-0.37896 0.18374-0.83917 0.32024-1.3789 0.41211-0.52824 0.09187-1.5098 0.17938-2.9453 0.25976-1.6996 0.08038-3.009 0.35534-3.9277 0.82617-0.9072 0.45935-1.6119 1.1253-2.1172 1.998-0.50529 0.87275-0.75782 1.8951-0.75782 3.0664 0 1.6422 0.43584 2.9394 1.3086 3.8926 0.88424 0.95314 1.9921 1.4297 3.3242 1.4297 0.84979 0 1.6888-0.19963 2.5156-0.60156 0.82683-0.40193 1.7107-1.0983 2.6524-2.0859 0.05742 0.94166 0.16126 1.7012 0.31054 2.2754h2.5664c-0.19522-1.0335-0.29297-1.8664-0.29297-2.498 0-0.89573 0.13236-2.0667 0.39649-3.5137l0.82617-4.5488c0.22967-1.2977 0.34375-2.428 0.34375-3.3926 0-1.3666-0.50507-2.4988-1.5156-3.3945-1.0106-0.90721-2.3771-1.3594-4.0996-1.3594zm38.533 0c-1.3666 0-2.6353 0.42974-3.8066 1.291-1.1713 0.84978-2.1651 2.2041-2.9805 4.0644-0.80386 1.8604-1.2051 3.8643-1.2051 6.0117 0 1.6307 0.26472 3.0379 0.79297 4.2207 0.52824 1.1713 1.239 2.0552 2.1348 2.6524 0.89573 0.58566 1.8895 0.8789 2.9805 0.8789 1.5388 0 2.9338-0.55601 4.1856-1.6699 1.5044-1.3206 2.4635-2.8724 2.877-4.6523l-2.498-0.3086c-0.47082 1.3206-1.1307 2.3308-1.9805 3.0312-0.83831 0.70051-1.6936 1.0508-2.5664 1.0508-0.91869 0-1.7048-0.44192-2.3594-1.3262-0.65456-0.89572-0.98242-2.2052-0.98242-3.9277 0-0.28709 0.01632-0.61494 0.05078-0.98242h11.061c0.12632-0.94166 0.18945-1.8601 0.18945-2.7559 0-2.4116-0.55186-4.277-1.6543-5.5977-1.091-1.3206-2.5042-1.9805-4.2383-1.9805zm16.881 0c-1.5158 0-3.0249 1.3828-4.5293 4.1504l0.63672-3.7383h-2.2559l-3.1348 18.295h2.4277l1.2754-7.3398c0.52824-3.1236 1.2573-5.2986 2.1875-6.5273 0.94166-1.2402 1.8826-1.8613 2.8242-1.8613 0.49379 0 0.96619 0.19549 1.4141 0.58594l1.0508-2.8926c-0.74643-0.44786-1.3797-0.67188-1.8965-0.67188zm25.012 0c-1.3666 0-2.6353 0.42974-3.8066 1.291-1.1713 0.84978-2.1651 2.2041-2.9805 4.0644-0.80386 1.8604-1.2051 3.8643-1.2051 6.0117 0 1.6307 0.26471 3.0379 0.79296 4.2207 0.52825 1.1713 1.239 2.0552 2.1348 2.6524 0.89572 0.58566 1.8895 0.8789 2.9805 0.8789 1.5388 0 2.9338-0.55601 4.1856-1.6699 1.5044-1.3206 2.4635-2.8724 2.877-4.6523l-2.498-0.3086c-0.47082 1.3206-1.1307 2.3308-1.9805 3.0312-0.8383 0.70051-1.6936 1.0508-2.5664 1.0508-0.9187 0-1.7048-0.44192-2.3594-1.3262-0.65456-0.89572-0.98242-2.2052-0.98242-3.9277 0-0.28709 0.01632-0.61494 0.05078-0.98242h11.059c0.12632-0.94166 0.1914-1.8601 0.1914-2.7559 0-2.4116-0.55186-4.277-1.6543-5.5977-1.0909-1.3206-2.5042-1.9805-4.2383-1.9805zm-63.578 0.41211 2.4629 18.295h2.8418l8.5781-18.295h-2.7051l-4.9941 11.008c-0.7694 1.6651-1.4007 3.1518-1.8945 4.4609-0.20671-2.446-0.37977-4.2423-0.51758-5.3906l-1.291-10.078h-2.4805zm-49.197 1.998c1.0106 0 1.8618 0.45411 2.5508 1.3613 0.68902 0.89572 1.0332 2.2174 1.0332 3.9629 0 1.6077-0.30543 3.1738-0.91406 4.7012-0.60864 1.5273-1.3194 2.625-2.1348 3.291-0.81534 0.65457-1.6319 0.98047-2.4473 0.98047-1.0335 0-1.895-0.44193-2.584-1.3262s-1.0332-2.1918-1.0332-3.9258c0-1.6996 0.28105-3.3023 0.84375-4.8066 0.57418-1.5158 1.2747-2.6013 2.1016-3.2559 0.83831-0.65457 1.6997-0.98242 2.584-0.98242zm70.936 0.01758c0.99908 0 1.8198 0.40731 2.4629 1.2226 0.64309 0.81534 0.96484 2.0392 0.96484 3.6699v0.63672h-8.4238c0.44786-1.8489 1.1199-3.2317 2.0156-4.1504 0.90721-0.91869 1.901-1.3789 2.9805-1.3789zm41.893 0c0.99907 0 1.8198 0.40731 2.4629 1.2226s0.96484 2.0392 0.96484 3.6699v0.63672h-8.4238c0.44787-1.8489 1.1199-3.2317 2.0156-4.1504 0.90721-0.91869 1.901-1.3789 2.9805-1.3789zm-16.658 0.13867c0.88424 0 1.6479 0.40122 2.291 1.2051 0.64309 0.80385 0.96484 1.9402 0.96484 3.4102 0 2.8594-0.62523 5.2707-1.877 7.2344-0.95314 1.4699-2.004 2.2051-3.1523 2.2051-0.88425 0-1.597-0.37271-2.1367-1.1191-0.70051-0.96463-1.0508-2.2049-1.0508-3.7207l0.01758-0.74023c0-1.0335 0.2301-2.3206 0.68945-3.8594 0.45935-1.5388 1.0682-2.6915 1.8262-3.4609 0.75792-0.7694 1.5665-1.1543 2.4277-1.1543zm-61.408 6.873c-0.28709 1.9292-0.67198 3.3691-1.1543 4.3223-0.47083 0.95315-1.0858 1.6822-1.8438 2.1875-0.75792 0.50528-1.544 0.75781-2.3594 0.75781-0.86127 0-1.5496-0.26886-2.0664-0.80859-0.51676-0.53973-0.77539-1.2749-0.77539-2.2051 0-0.67753 0.16089-1.2742 0.48243-1.791 0.32154-0.51677 0.76956-0.90166 1.3437-1.1543s1.6311-0.46032 3.1699-0.62109c1.5044-0.16077 2.5715-0.38892 3.2031-0.6875z" stroke-width="1.3229" style="font-variant-caps:normal;font-variant-east-asian:normal;font-variant-ligatures:normal;font-variant-numeric:normal;text-orientation:upright"/>
  <path id="road" d="m580.22-4.4824e-6h209.56c11.202 0 20.22 9.0179 20.22 20.22v209.56c0 11.202-9.0179 20.22-20.22 20.22h-209.56c-11.202 0-20.22-9.0179-20.22-20.22v-209.56c0-11.202 9.0179-20.22 20.22-20.22z" fill="#fff" stop-color="#000000"/>
  <path d="m639.31 210.06-4.3223 25.254h15.795l0.5-2.8613h-13.039l1.5156-8.7832h11.85l0.48242-2.877h-11.85l1.3438-7.8555h12.195l0.48242-2.877h-14.953zm76.705 0-1.6875 9.8359c-0.94165-2.1934-2.3367-3.2891-4.1855-3.2891-1.1139 0-2.234 0.44193-3.3594 1.3262s-2.0724 2.261-2.8418 4.1328c-0.7694 1.8604-1.1543 3.9111-1.1543 6.1504 0 2.5034 0.48264 4.3811 1.4473 5.6328 0.96462 1.2517 2.1356 1.877 3.5137 1.877 1.6077 0 3.1351-1.0223 4.582-3.0664l-0.44727 2.6543h2.3594l4.3242-25.254h-2.5508zm-40.652 0.31054-2.9277 2.1524-0.77539 4.4961h-2.0156l-0.41211 2.4121h2.0156l-1.8086 10.629c-0.25264 1.4469-0.3789 2.3715-0.3789 2.7734 0 0.84979 0.27496 1.526 0.82617 2.0312 0.5627 0.50529 1.3203 0.75782 2.2734 0.75782 0.57418 0 1.1648-0.09775 1.7734-0.29297l0.44922-2.5488c-0.44786 0.13781-0.95292 0.20703-1.5156 0.20703-0.37896 0-0.66197-0.09165-0.84571-0.27539-0.18373-0.18374-0.27539-0.47698-0.27539-0.87891 0-0.22967 0.10994-0.99336 0.32813-2.291l1.7402-10.111h2.498l0.41211-2.4121h-2.498l1.1367-6.6484zm-13.814 6.2363c-1.6077 0-2.905 0.49288-3.8926 1.4805-0.98759 0.98759-1.4805 2.2461-1.4805 3.7734 0 0.74644 0.13041 1.4226 0.39453 2.0312 0.26412 0.59714 0.63268 1.1083 1.1035 1.5332 0.48231 0.41341 1.47 1.0101 2.9629 1.791 1.2976 0.67753 2.1408 1.2518 2.5312 1.7226 0.37896 0.47083 0.56836 1.0003 0.56836 1.5859 0 0.81534-0.30348 1.4874-0.91211 2.0156-0.60863 0.51676-1.4355 0.77343-2.4805 0.77343-1.1484 0-2.0566-0.36661-2.7227-1.1016-0.66603-0.73495-0.99193-1.8489-0.98047-3.3418l-2.5664 0.18946v0.34375c0 2.0096 0.54382 3.5675 1.6348 4.6699 1.091 1.1024 2.5959 1.6523 4.5137 1.6523 1.9063 0 3.393-0.54577 4.4609-1.6367 1.0795-1.0909 1.6191-2.3943 1.6191-3.9102 0-1.3666-0.40122-2.5254-1.2051-3.4785-0.52826-0.60863-1.7624-1.4252-3.7031-2.4473-1.2632-0.65457-2.0493-1.176-2.3594-1.5664-0.31006-0.37896-0.4668-0.83308-0.4668-1.3613 0-0.60863 0.25863-1.1422 0.77539-1.6016 0.51677-0.47083 1.1888-0.70703 2.0156-0.70703 1.0565 0 1.8955 0.31152 2.5156 0.93164 0.63158 0.62012 0.96358 1.504 0.99805 2.6523l2.5156-0.20703c-0.04594-1.8259-0.58561-3.2433-1.6191-4.2539-1.0335-1.022-2.4407-1.5332-4.2207-1.5332zm24.203 0c-1.5158 0-3.0269 1.3828-4.5312 4.1504l0.63672-3.7383h-2.2559l-3.1348 18.295h2.4277l1.2754-7.3398c0.52825-3.1236 1.2573-5.2986 2.1875-6.5273 0.94166-1.2402 1.8845-1.8613 2.8262-1.8613 0.4938 0 0.96425 0.19549 1.4121 0.58594l1.0508-2.8926c-0.74644-0.44786-1.3778-0.67188-1.8945-0.67188zm9.0078 0c-3.491 0-5.7821 1.8716-6.873 5.6152l2.584 0.27539c0.6316-2.2278 2.0103-3.3418 4.1348-3.3418 1.0565 0 1.8609 0.23425 2.4121 0.70508 0.5627 0.45934 0.84375 1.0743 0.84375 1.8438 0 0.55121-0.10384 1.264-0.31055 2.1367-0.37896 0.18374-0.83917 0.32024-1.3789 0.41211-0.52825 0.09187-1.5099 0.17938-2.9453 0.25976-1.6996 0.08038-3.009 0.35534-3.9277 0.82617-0.90722 0.45935-1.6119 1.1253-2.1172 1.998-0.50528 0.87275-0.75781 1.8951-0.75781 3.0664 0 1.6422 0.43583 2.9394 1.3086 3.8926 0.88424 0.95314 1.9921 1.4297 3.3242 1.4297 0.84979 0 1.6888-0.19963 2.5156-0.60156 0.82682-0.40193 1.7107-1.0983 2.6523-2.0859 0.05742 0.94166 0.16126 1.7012 0.31055 2.2754h2.5664c-0.19522-1.0335-0.29297-1.8664-0.29297-2.498 0-0.89573 0.13237-2.0667 0.39649-3.5137l0.82617-4.5488c0.22967-1.2977 0.34375-2.428 0.34375-3.3926 0-1.3666-0.50506-2.4988-1.5156-3.3945-1.0106-0.90721-2.3771-1.3594-4.0996-1.3594zm32.246 0c-3.491 0-5.7821 1.8716-6.873 5.6152l2.584 0.27539c0.6316-2.2278 2.0103-3.3418 4.1348-3.3418 1.0565 0 1.8609 0.23425 2.4121 0.70508 0.5627 0.45934 0.84375 1.0743 0.84375 1.8438 0 0.55121-0.10384 1.264-0.31054 2.1367-0.37897 0.18374-0.83918 0.32024-1.3789 0.41211-0.52825 0.09187-1.5098 0.17938-2.9453 0.25976-1.6996 0.08038-3.009 0.35534-3.9277 0.82617-0.90721 0.45935-1.6119 1.1253-2.1172 1.998-0.50528 0.87275-0.75781 1.8951-0.75781 3.0664 0 1.6422 0.43584 2.9394 1.3086 3.8926 0.88424 0.95314 1.9921 1.4297 3.3242 1.4297 0.84979 0 1.6888-0.19963 2.5156-0.60156 0.82682-0.40193 1.7107-1.0983 2.6523-2.0859 0.05742 0.94166 0.16126 1.7012 0.31055 2.2754h2.5664c-0.19522-1.0335-0.29297-1.8664-0.29297-2.498 0-0.89573 0.13236-2.0667 0.39648-3.5137l0.82617-4.5488c0.22968-1.2977 0.34375-2.428 0.34375-3.3926 0-1.3666-0.50505-2.4988-1.5156-3.3945-1.0106-0.90721-2.3771-1.3594-4.0996-1.3594zm-16.727 2.5664c0.88424 0 1.6479 0.40122 2.291 1.2051 0.64309 0.80385 0.96485 1.9402 0.96485 3.4102 0 2.8594-0.62524 5.2707-1.877 7.2344-0.95314 1.4699-2.004 2.2051-3.1523 2.2051-0.88424 0-1.597-0.37271-2.1367-1.1191-0.70051-0.96463-1.0508-2.2049-1.0508-3.7207l0.01758-0.74023c0-1.0335 0.2301-2.3206 0.68945-3.8594 0.45935-1.5388 1.0682-2.6915 1.8262-3.4609 0.75792-0.7694 1.5665-1.1543 2.4277-1.1543zm-13.107 6.873c-0.2871 1.9292-0.67199 3.3691-1.1543 4.3223-0.47084 0.95315-1.0858 1.6822-1.8438 2.1875s-1.544 0.75781-2.3594 0.75781c-0.86127 0-1.5496-0.26886-2.0664-0.80859-0.51677-0.53973-0.77539-1.2749-0.77539-2.2051 0-0.67753 0.16087-1.2742 0.48242-1.791 0.32154-0.51677 0.76956-0.90166 1.3438-1.1543 0.57418-0.25264 1.6292-0.46032 3.168-0.62109 1.5044-0.16077 2.5735-0.38892 3.2051-0.6875zm32.246 0c-0.28709 1.9292-0.67198 3.3691-1.1543 4.3223-0.47083 0.95315-1.0858 1.6822-1.8438 2.1875s-1.544 0.75781-2.3594 0.75781c-0.86128 0-1.5496-0.26886-2.0664-0.80859s-0.77539-1.2749-0.77539-2.2051c0-0.67753 0.16088-1.2742 0.48242-1.791 0.32154-0.51677 0.76957-0.90166 1.3438-1.1543s1.6292-0.46032 3.168-0.62109c1.5044-0.16077 2.5735-0.38892 3.2051-0.6875z" stroke-width="1.3229" style="font-variant-caps:normal;font-variant-east-asian:normal;font-variant-ligatures:normal;font-variant-numeric:normal;text-orientation:upright"/>
  <path id="railroad" d="m20.22 280h209.56c11.202 0 20.22 9.0179 20.22 20.22v209.56c0 11.202-9.0179 20.22-20.22 20.22h-209.56c-11.202 0-20.22-9.0179-20.22-20.22v-209.56c0-11.202 9.0179-20.22 20.22-20.22z" fill="#fff" stop-color="#000000"/>
  <path d="m76.107 490.06-4.3242 25.254h2.7734l1.9648-11.455h10.885l0.48242-2.877h-10.885l1.377-8.0449h10.697l0.48242-2.877h-13.453zm83.268 0-0.60352 3.5312h2.5508l0.60156-3.5312h-2.5488zm-61.701 6.5469c-1.3666 0-2.6353 0.42974-3.8066 1.291-1.1713 0.84978-2.1651 2.2041-2.9805 4.0644-0.80386 1.8604-1.2051 3.8643-1.2051 6.0117 0 1.6307 0.26277 3.0379 0.79102 4.2207 0.52825 1.1713 1.241 2.0552 2.1367 2.6524 0.89572 0.58566 1.8895 0.8789 2.9805 0.8789 1.5388 0 2.9338-0.55601 4.1855-1.6699 1.5044-1.3206 2.4635-2.8724 2.8769-4.6523l-2.498-0.3086c-0.47084 1.3206-1.1307 2.3308-1.9805 3.0312-0.83831 0.70051-1.6936 1.0508-2.5664 1.0508-0.91869 0-1.7068-0.44192-2.3613-1.3262-0.65457-0.89572-0.98047-2.2052-0.98047-3.9277 0-0.2871 0.016328-0.61495 0.050781-0.98242h11.059c0.12632-0.94166 0.18945-1.8601 0.18945-2.7559 0-2.4116-0.55186-4.277-1.6543-5.5977-1.091-1.3206-2.5023-1.9805-4.2363-1.9805zm16.881 0c-1.5158 0-3.0269 1.3828-4.5312 4.1504l0.63867-3.7383h-2.2578l-3.1348 18.295h2.4297l1.2734-7.3398c0.52824-3.1236 1.2593-5.2986 2.1894-6.5273 0.94166-1.2402 1.8826-1.8613 2.8242-1.8613 0.49379 0 0.96424 0.1955 1.4121 0.58594l1.0508-2.8926c-0.74643-0.44786-1.3778-0.67188-1.8945-0.67188zm9.6465 0c-1.5158 0-3.0269 1.3828-4.5312 4.1504l0.63867-3.7383h-2.2578l-3.1348 18.295h2.4297l1.2734-7.3398c0.52825-3.1236 1.2573-5.2986 2.1875-6.5273 0.94166-1.2402 1.8845-1.8613 2.8262-1.8613 0.4938 0 0.96425 0.1955 1.4121 0.58594l1.0508-2.8926c-0.74644-0.44786-1.3778-0.67188-1.8945-0.67188zm8.9922 0c-2.492 0-4.4795 1.1364-5.9609 3.4102-1.4814 2.2738-2.2226 5.0577-2.2226 8.3535 0 2.2738 0.58038 4.072 1.7402 5.3926 1.1598 1.3091 2.6302 1.9629 4.4102 1.9629 1.3551 0 2.6462-0.44193 3.875-1.3262 1.2402-0.89573 2.2462-2.2337 3.0156-4.0137 0.78089-1.78 1.1699-3.8002 1.1699-6.0625 0-2.469-0.56819-4.371-1.7051-5.7031-1.1369-1.3436-2.5768-2.0137-4.3223-2.0137zm37.018 0c-3.491 0-5.7821 1.8716-6.873 5.6152l2.584 0.27539c0.63159-2.2278 2.0083-3.3418 4.1328-3.3418 1.0565 0 1.8609 0.23425 2.4121 0.70508 0.5627 0.45934 0.84375 1.0743 0.84375 1.8438 0 0.55121-0.10384 1.264-0.31055 2.1367-0.37896 0.18374-0.83722 0.32024-1.377 0.41211-0.52825 0.09187-1.5099 0.17938-2.9453 0.25976-1.6996 0.08039-3.009 0.35534-3.9277 0.82617-0.90721 0.45935-1.6139 1.1253-2.1191 1.998-0.50528 0.87275-0.75781 1.8951-0.75781 3.0664 0 1.6422 0.43584 2.9394 1.3086 3.8926 0.88425 0.95314 1.9921 1.4297 3.3242 1.4297 0.84979 0 1.6888-0.20159 2.5156-0.60351 0.82683-0.40194 1.7107-1.0964 2.6524-2.084 0.05742 0.94166 0.16126 1.7012 0.31055 2.2754h2.5664c-0.19523-1.0335-0.29297-1.8664-0.29297-2.498 0-0.89573 0.13236-2.0667 0.39649-3.5137l0.82617-4.5488c0.22967-1.2977 0.3457-2.428 0.3457-3.3926 0-1.3666-0.50506-2.4988-1.5156-3.3945-1.0106-0.90721-2.3771-1.3594-4.0996-1.3594zm-28.217 0.41211 2.4648 18.295h2.8418l8.5781-18.295h-2.7051l-4.9941 11.008c-0.76941 1.6651-1.4027 3.1518-1.8965 4.4609-0.2067-2.446-0.37782-4.2423-0.51562-5.3906l-1.293-10.078h-2.4805zm16.193 0-3.1367 18.295h2.5508l3.1348-18.295h-2.5488zm-25.082 1.998c1.0106 0 1.8618 0.45411 2.5508 1.3613 0.68902 0.89572 1.0332 2.2174 1.0332 3.9629 0 1.6077-0.30347 3.1738-0.91211 4.7012-0.60863 1.5273-1.3214 2.625-2.1367 3.291-0.81534 0.65457-1.63 0.98047-2.4453 0.98047-1.0335 0-1.895-0.44193-2.584-1.3262-0.68902-0.88425-1.0352-2.1918-1.0352-3.9258 0-1.6996 0.28301-3.3023 0.84571-4.8066 0.57417-1.5158 1.2747-2.6013 2.1016-3.2559 0.8383-0.65457 1.6978-0.98242 2.582-0.98242zm-35.381 0.01758c0.99908 0 1.8218 0.40731 2.4648 1.2226 0.64309 0.81534 0.96289 2.0392 0.96289 3.6699v0.63672h-8.4219c0.44786-1.8489 1.1199-3.2317 2.0156-4.1504 0.90721-0.91869 1.8991-1.3789 2.9785-1.3789zm74.896 7.0117c-0.28709 1.9293-0.67198 3.3691-1.1543 4.3223-0.47083 0.95315-1.0839 1.6822-1.8418 2.1875-0.75793 0.50528-1.546 0.75781-2.3613 0.75781-0.86127 0-1.5496-0.26886-2.0664-0.80859-0.51677-0.53973-0.77539-1.2749-0.77539-2.2051 0-0.67753 0.16088-1.2742 0.48242-1.791 0.32154-0.51677 0.76957-0.90166 1.3438-1.1543s1.6311-0.46032 3.1699-0.62109c1.5044-0.16077 2.5715-0.38892 3.2031-0.6875z" stroke-width="1.3229" style="font-variant-caps:normal;font-variant-east-asian:normal;font-variant-ligatures:normal;font-variant-numeric:normal;text-orientation:upright"/>
  <path id="waterlines" d="m300.22 280h209.56c11.202 0 20.22 9.0179 20.22 20.22v209.56c0 11.202-9.0179 20.22-20.22 20.22h-209.56c-11.202 0-20.22-9.0179-20.22-20.22v-209.56c0-11.202 9.0179-20.22 20.22-20.22z" fill="#fff" stop-color="#000000"/>
  <path d="m309.96 490.06-4.3242 25.254h13.521l0.48242-2.8613h-10.748l3.8418-22.393h-2.7734zm15.83 0-0.60352 3.5312h2.5488l0.60351-3.5312h-2.5488zm22.633 0-4.3223 25.254h2.5488l1.3613-7.8555c0.41341-2.3886 0.87167-4.0951 1.377-5.1172 0.50528-1.0335 1.1671-1.8196 1.9824-2.3594 0.81534-0.53973 1.6646-0.80859 2.5488-0.80859 0.59716 0 1.0737 0.1833 1.4297 0.55078 0.36747 0.36747 0.55078 0.86035 0.55078 1.4805 0 0.42489-0.13846 1.437-0.41406 3.0332l-1.9121 11.076h2.5684l1.8418-10.801c0.29857-1.7225 0.44921-2.9179 0.44921-3.584 0-1.3436-0.35637-2.4005-1.0684-3.1699-0.71198-0.7694-1.659-1.1524-2.8418-1.1524-0.82683 0-1.6536 0.22816-2.4805 0.6875-0.81533 0.45934-1.7236 1.282-2.7227 2.4648l1.6719-9.6992h-2.5684zm64.234 0-1.6875 9.8359c-0.94166-2.1934-2.3367-3.2891-4.1855-3.2891-1.1139 0-2.234 0.44193-3.3594 1.3262s-2.0724 2.261-2.8418 4.1328c-0.7694 1.8603-1.1543 3.9111-1.1543 6.1504 0 2.5034 0.48264 4.3811 1.4473 5.6328 0.96464 1.2517 2.1356 1.877 3.5137 1.877 1.6077 0 3.1351-1.0223 4.582-3.0664l-0.44727 2.6543h2.3594l4.3223-25.254h-2.5488zm36.053 0-2.6524 4.7383h2.1191l3.7559-4.7383h-3.2226zm-110.31 6.5469c-0.82683 0-1.6841 0.26277-2.5684 0.79102-0.88424 0.51676-1.8658 1.4535-2.9453 2.8086l0.53516-3.1875h-2.3086l-3.1348 18.295h2.5488l1.4648-8.5098c0.48232-2.8135 1.2338-4.7889 2.2559-5.9258 1.0335-1.1369 2.1943-1.7051 3.4805-1.7051 0.62012 0 1.1069 0.1833 1.4629 0.55078 0.36747 0.35599 0.55078 0.84887 0.55078 1.4805 0 0.53973-0.0958 1.3787-0.29102 2.5156l-2 11.594h2.5684l1.8945-11.076c0.25264-1.4469 0.37891-2.4936 0.37891-3.1367 0-1.4355-0.36247-2.5433-1.0859-3.3242-0.71199-0.78088-1.6468-1.1699-2.8066-1.1699zm30.471 0c-3.491 0-5.7821 1.8716-6.873 5.6152l2.584 0.27539c0.6316-2.2278 2.0103-3.3418 4.1348-3.3418 1.0565 0 1.8589 0.23425 2.4102 0.70508 0.5627 0.45934 0.84571 1.0743 0.84571 1.8438 0 0.55121-0.10384 1.264-0.31055 2.1367-0.37896 0.18374-0.83917 0.32024-1.3789 0.41211-0.52824 0.09187-1.5098 0.17938-2.9453 0.25976-1.6996 0.08039-3.009 0.35534-3.9277 0.82617-0.90722 0.45935-1.6119 1.1253-2.1172 1.998-0.50528 0.87275-0.75781 1.8951-0.75781 3.0664 0 1.6422 0.43583 2.9394 1.3086 3.8926 0.88424 0.95314 1.9921 1.4297 3.3242 1.4297 0.84979 0 1.6888-0.20159 2.5156-0.60351 0.82682-0.40194 1.7107-1.0964 2.6524-2.084 0.05742 0.94166 0.16126 1.7012 0.31054 2.2754h2.5664c-0.19522-1.0335-0.29297-1.8664-0.29297-2.498 0-0.89573 0.13237-2.0667 0.39649-3.5137l0.82617-4.5488c0.22967-1.2977 0.34375-2.428 0.34375-3.3926 0-1.3666-0.50506-2.4988-1.5156-3.3945-1.0106-0.90721-2.3771-1.3594-4.0996-1.3594zm15.09 0c-1.6077 0-2.905 0.49288-3.8926 1.4805-0.9876 0.98759-1.4824 2.2461-1.4824 3.7734 0 0.74644 0.13236 1.4226 0.39648 2.0312 0.26413 0.59714 0.63269 1.1083 1.1035 1.5332 0.48231 0.41341 1.47 1.0101 2.9629 1.791 1.2976 0.67753 2.1408 1.2518 2.5312 1.7226 0.37896 0.47083 0.56836 1.0003 0.56836 1.5859 0 0.81534-0.30348 1.4874-0.91211 2.0156-0.60864 0.51676-1.4355 0.77343-2.4805 0.77343-1.1484 0-2.0566-0.36661-2.7227-1.1016-0.66604-0.73495-0.99389-1.8489-0.98242-3.3418l-2.5664 0.18946v0.34375c0 2.0096 0.54576 3.5655 1.6367 4.668 1.091 1.1024 2.5959 1.6543 4.5137 1.6543 1.9063 0 3.393-0.54577 4.4609-1.6367 1.0795-1.0909 1.6191-2.3943 1.6191-3.9102 0-1.3666-0.40122-2.5254-1.2051-3.4785-0.52825-0.60863-1.7624-1.4252-3.7031-2.4473-1.2632-0.65457-2.0513-1.176-2.3613-1.5664-0.31006-0.37896-0.46484-0.83308-0.46484-1.3613 0-0.60863 0.25863-1.1422 0.77539-1.6016 0.51677-0.47083 1.1888-0.70703 2.0156-0.70703 1.0565 0 1.8955 0.31152 2.5156 0.93164 0.63159 0.62012 0.96358 1.504 0.99805 2.6523l2.5156-0.20703c-0.04593-1.8259-0.58561-3.2433-1.6191-4.2539-1.0335-1.022-2.4407-1.5332-4.2207-1.5332zm39.566 0c-1.3666 0-2.6353 0.42974-3.8066 1.291-1.1713 0.84978-2.1651 2.2041-2.9805 4.0644-0.80385 1.8604-1.2051 3.8643-1.2051 6.0117 0 1.6307 0.26472 3.0379 0.79296 4.2207 0.52826 1.1713 1.239 2.0552 2.1348 2.6524 0.89573 0.58566 1.8895 0.8789 2.9805 0.8789 1.5388 0 2.9338-0.55601 4.1856-1.6699 1.5044-1.3206 2.4635-2.8724 2.877-4.6523l-2.498-0.3086c-0.47083 1.3206-1.1307 2.3308-1.9805 3.0312-0.8383 0.70051-1.6936 1.0508-2.5664 1.0508-0.9187 0-1.7048-0.44192-2.3594-1.3262-0.65457-0.89572-0.98242-2.2052-0.98242-3.9277 0-0.2871 0.01632-0.61495 0.05078-0.98242h11.059c0.12632-0.94166 0.1914-1.8601 0.1914-2.7559 0-2.4116-0.55187-4.277-1.6543-5.5977-1.0909-1.3206-2.5042-1.9805-4.2383-1.9805zm24.307 0c-3.491 0-5.7821 1.8716-6.873 5.6152l2.582 0.27539c0.6316-2.2278 2.0103-3.3418 4.1348-3.3418 1.0565 0 1.8609 0.23425 2.4121 0.70508 0.5627 0.45934 0.84375 1.0743 0.84375 1.8438 0 0.55121-0.10384 1.264-0.31054 2.1367-0.37896 0.18374-0.83722 0.32024-1.377 0.41211-0.52824 0.09187-1.5098 0.17938-2.9453 0.25976-1.6996 0.08039-3.009 0.35534-3.9277 0.82617-0.90721 0.45935-1.6139 1.1253-2.1191 1.998-0.50528 0.87275-0.75782 1.8951-0.75782 3.0664 0 1.6422 0.43584 2.9394 1.3086 3.8926 0.88424 0.95314 1.9921 1.4297 3.3242 1.4297 0.84979 0 1.6888-0.20159 2.5156-0.60351 0.82683-0.40194 1.7107-1.0964 2.6524-2.084 0.05741 0.94166 0.16126 1.7012 0.31054 2.2754h2.5664c-0.19522-1.0335-0.29297-1.8664-0.29297-2.498 0-0.89573 0.13236-2.0667 0.39648-3.5137l0.82618-4.5488c0.22967-1.2977 0.3457-2.428 0.3457-3.3926 0-1.3666-0.50507-2.4988-1.5156-3.3945-1.0106-0.90721-2.3771-1.3594-4.0996-1.3594zm15.451 0c-1.1484 0-2.2928 0.43584-3.4297 1.3086-1.1254 0.86127-2.0887 2.1768-2.8926 3.9453-0.79237 1.757-1.1894 3.6327-1.1894 5.6309 0 2.5379 0.51725 4.4787 1.5508 5.8223 1.045 1.3321 2.3077 2 3.7891 2 1.4929 0 2.9062-0.82267 4.2383-2.4648l-0.25781 1.4824c-0.39045 2.2508-0.82823 3.709-1.3106 4.375-0.68902 0.90721-1.7745 1.3613-3.2559 1.3613-0.95314 0-1.6537-0.20159-2.1016-0.60352-0.44786-0.40192-0.66992-0.99864-0.66992-1.791v-0.41406l-2.584-0.29297c-0.04594 0.34451-0.07032 0.65408-0.07032 0.92968 0 1.4699 0.4724 2.6246 1.4141 3.4629 0.95315 0.84979 2.3828 1.2754 4.2891 1.2754 2.0096 0 3.6002-0.73518 4.7715-2.2051 0.93018-1.1713 1.6246-3.0897 2.084-5.7539l3.0137-17.656h-2.3262l-0.51563 2.998c-1.068-2.2738-2.5832-3.4102-4.5469-3.4102zm32.918 0c-3.491 0-5.7821 1.8716-6.873 5.6152l2.582 0.27539c0.63161-2.2278 2.0103-3.3418 4.1348-3.3418 1.0565 0 1.8609 0.23425 2.4121 0.70508 0.5627 0.45934 0.84375 1.0743 0.84375 1.8438 0 0.55121-0.10384 1.264-0.31054 2.1367-0.37896 0.18374-0.83722 0.32024-1.377 0.41211-0.52824 0.09187-1.5098 0.17938-2.9453 0.25976-1.6996 0.08039-3.009 0.35534-3.9277 0.82617-0.90721 0.45935-1.6139 1.1253-2.1191 1.998-0.50528 0.87275-0.75782 1.8951-0.75782 3.0664 0 1.6422 0.43584 2.9394 1.3086 3.8926 0.88424 0.95314 1.9921 1.4297 3.3242 1.4297 0.84979 0 1.6888-0.20159 2.5156-0.60351 0.82683-0.40194 1.7107-1.0964 2.6524-2.084 0.05741 0.94166 0.16125 1.7012 0.31054 2.2754h2.5664c-0.19522-1.0335-0.29297-1.8664-0.29297-2.498 0-0.89573 0.13236-2.0667 0.39648-3.5137l0.82618-4.5488c0.22967-1.2977 0.3457-2.428 0.3457-3.3926 0-1.3666-0.50507-2.4988-1.5156-3.3945-1.0106-0.90721-2.3771-1.3594-4.0996-1.3594zm-171.6 0.41211-3.1348 18.295h2.5488l3.1348-18.295h-2.5488zm149.96 0-1.8086 10.561c-0.32154 1.8604-0.48242 3.18-0.48242 3.9609 0 1.2288 0.36856 2.2328 1.1035 3.0137 0.74644 0.78088 1.6649 1.1719 2.7559 1.1719 1.8833 0 3.7264-1.2402 5.5293-3.7207l-0.56836 3.3086h2.3594l3.1348-18.295h-2.5488l-1.3613 7.9062c-0.31006 1.8489-0.67667 3.3253-1.1016 4.4277-0.41341 1.0909-1.0732 2.0033-1.9805 2.7383-0.89572 0.72347-1.7979 1.0859-2.7051 1.0859-0.64308 0-1.142-0.1833-1.498-0.55078-0.35599-0.37896-0.53516-0.93082-0.53515-1.6543-1e-5 -0.52825 0.0875-1.2798 0.25976-2.2559l1.998-11.697h-2.5508zm-50.986 2.0156c0.99908 0 1.8198 0.40731 2.4629 1.2226s0.96484 2.0392 0.96484 3.6699v0.63672h-8.4238c0.44787-1.8489 1.1199-3.2317 2.0156-4.1504 0.90721-0.91869 1.901-1.3789 2.9805-1.3789zm39.756 0.08593c0.9761 0 1.809 0.43584 2.498 1.3086 0.70051 0.87276 1.0508 2.0803 1.0508 3.6191 0 1.5618-0.28715 3.0892-0.86133 4.582-0.57418 1.4814-1.2584 2.5425-2.0508 3.1856-0.79238 0.6316-1.5724 0.94726-2.3418 0.94726-0.57418 0-1.12-0.1955-1.6367-0.58594-0.50528-0.40192-0.9065-0.98645-1.2051-1.7558-0.28709-0.76941-0.43164-1.8385-0.43164-3.2051 0-1.0795 0.2423-2.3421 0.72461-3.7891 0.4938-1.4584 1.1251-2.5378 1.8945-3.2383 0.78089-0.71198 1.567-1.0684 2.3594-1.0684zm-56.414 0.05274c0.88423 0 1.6479 0.40122 2.291 1.2051 0.64309 0.80385 0.96484 1.9402 0.96484 3.4102 0 2.8594-0.62523 5.2707-1.877 7.2344-0.95314 1.4699-2.004 2.2051-3.1523 2.2051-0.88425 0-1.597-0.37271-2.1367-1.1191-0.70051-0.96464-1.0508-2.2049-1.0508-3.7207l0.01758-0.74023c0-1.0335 0.2301-2.3206 0.68945-3.8594 0.45935-1.5388 1.0682-2.6915 1.8262-3.4609 0.75792-0.7694 1.5665-1.1543 2.4277-1.1543zm-35.639 6.873c-0.28709 1.9293-0.67198 3.3691-1.1543 4.3223-0.47084 0.95315-1.0858 1.6822-1.8438 2.1875s-1.544 0.75781-2.3594 0.75781c-0.86127 0-1.5496-0.26886-2.0664-0.80859-0.51677-0.53973-0.7754-1.2749-0.7754-2.2051 0-0.67753 0.16088-1.2742 0.48243-1.791 0.32154-0.51677 0.76956-0.90166 1.3438-1.1543 0.57418-0.25264 1.6292-0.46032 3.168-0.62109 1.5044-0.16077 2.5735-0.38892 3.2051-0.6875zm78.961 0c-0.28709 1.9293-0.67198 3.3691-1.1543 4.3223-0.47083 0.95315-1.0839 1.6822-1.8418 2.1875s-1.546 0.75781-2.3613 0.75781c-0.86127 0-1.5496-0.26886-2.0664-0.80859-0.51676-0.53973-0.77539-1.2749-0.77539-2.2051 0-0.67753 0.16088-1.2742 0.48242-1.791 0.32154-0.51677 0.76957-0.90166 1.3438-1.1543s1.6311-0.46032 3.1699-0.62109c1.5044-0.16077 2.5715-0.38892 3.2031-0.6875zm48.369 0c-0.28709 1.9293-0.67198 3.3691-1.1543 4.3223-0.47082 0.95315-1.0839 1.6822-1.8418 2.1875s-1.546 0.75781-2.3613 0.75781c-0.86127 0-1.5496-0.26886-2.0664-0.80859-0.51676-0.53973-0.77539-1.2749-0.77539-2.2051 0-0.67753 0.16088-1.2742 0.48242-1.791 0.32154-0.51677 0.76957-0.90166 1.3438-1.1543s1.6311-0.46032 3.1699-0.62109c1.5044-0.16077 2.5715-0.38892 3.2031-0.6875z" stroke-width="1.3229" style="font-variant-caps:normal;font-variant-east-asian:normal;font-variant-ligatures:normal;font-variant-numeric:normal;text-orientation:upright"/>
  <path id="other" d="m580.22 280h209.56c11.202 0 20.22 9.0179 20.22 20.22v209.56c0 11.202-9.0179 20.22-20.22 20.22h-209.56c-11.202 0-20.22-9.0179-20.22-20.22v-209.56c0-11.202 9.0179-20.22 20.22-20.22z" fill="#fff" stop-color="#000000"/>
  <path d="m653.75 489.63c-2.9513 0-5.4542 1.279-7.5098 3.8398-2.3082 2.8824-3.4629 6.6377-3.4629 11.266 0 2.1934 0.40731 4.1524 1.2226 5.875 0.81534 1.7225 1.8601 3.0076 3.1348 3.8574 1.2862 0.84979 2.728 1.2754 4.3242 1.2754 1.8374 0 3.5888-0.58648 5.2539-1.7578 1.6651-1.1713 3.0438-2.9166 4.1348-5.2363 1.091-2.3312 1.6367-4.9257 1.6367-7.7852 0-3.5599-0.83901-6.3397-2.5156-8.3379-1.6651-1.9982-3.7383-2.9961-6.2188-2.9961zm32.953 0.74023-2.9297 2.1524-0.77539 4.4961h-2.0137l-0.41406 2.4121h2.0156l-1.8086 10.629c-0.25264 1.4469-0.37891 2.3715-0.37891 2.7734 0 0.84979 0.27495 1.526 0.82617 2.0312 0.5627 0.50529 1.3203 0.75782 2.2734 0.75782 0.57418 0 1.1668-0.09775 1.7754-0.29297l0.44727-2.5488c-0.44787 0.13781-0.95293 0.20703-1.5156 0.20703-0.37896 0-0.66001-0.09165-0.84375-0.27539s-0.27539-0.47698-0.27539-0.87891c0-0.22967 0.10799-0.99336 0.32617-2.291l1.7402-10.111h2.498l0.41211-2.4121h-2.4961l1.1367-6.6484zm-33.074 2.0664c1.6881 0 3.1238 0.73517 4.3066 2.2051 1.1943 1.4584 1.791 3.4623 1.791 6.0117 0 2.3541-0.41756 4.5311-1.2559 6.5293-0.83831 1.9867-1.8728 3.4448-3.1016 4.375-1.2173 0.93018-2.4575 1.3945-3.7207 1.3945-1.6651 0-3.107-0.72908-4.3242-2.1875-1.2173-1.4584-1.8242-3.4094-1.8242-5.8555 0-4.0422 0.95309-7.2416 2.8594-9.5957 1.5618-1.9178 3.3173-2.877 5.2695-2.877zm43.461 4.1699c-1.5158 0-3.0269 1.3828-4.5312 4.1504l0.63867-3.7383h-2.2578l-3.1348 18.295h2.4297l1.2734-7.3398c0.52824-3.1236 1.2573-5.2986 2.1875-6.5273 0.94166-1.2402 1.8845-1.8613 2.8262-1.8613 0.49379 0 0.96424 0.1955 1.4121 0.58594l1.0508-2.8926c-0.74643-0.44786-1.3778-0.67188-1.8945-0.67188zm8.9922 0c-2.492 0-4.4796 1.1364-5.9609 3.4102-1.4814 2.2738-2.2227 5.0577-2.2227 8.3535 0 2.2738 0.58039 4.072 1.7402 5.3926 1.1598 1.3091 2.6302 1.9629 4.4102 1.9629 1.3551 0 2.6463-0.44193 3.875-1.3262 1.2402-0.89573 2.2462-2.2337 3.0156-4.0137 0.78089-1.78 1.1699-3.8002 1.1699-6.0625 0-2.469-0.56819-4.371-1.7051-5.7031-1.1369-1.3436-2.5768-2.0137-4.3223-2.0137zm15.105 0c-1.6077 0-2.905 0.49288-3.8926 1.4805-0.9876 0.98759-1.4805 2.2461-1.4805 3.7734 0 0.74644 0.1304 1.4226 0.39453 2.0312 0.26412 0.59714 0.63269 1.1083 1.1035 1.5332 0.48232 0.41341 1.47 1.0101 2.9629 1.791 1.2977 0.67753 2.1408 1.2518 2.5312 1.7226 0.37896 0.47083 0.56836 1.0003 0.56836 1.5859 0 0.81534-0.30347 1.4874-0.91211 2.0156-0.60863 0.51676-1.4354 0.77343-2.4805 0.77343-1.1484 0-2.0566-0.36661-2.7227-1.1016-0.66603-0.73495-0.99194-1.8489-0.98047-3.3418l-2.5664 0.18946v0.34375c0 2.0096 0.54382 3.5655 1.6348 4.668 1.091 1.1024 2.5959 1.6543 4.5137 1.6543 1.9063 0 3.393-0.54577 4.4609-1.6367 1.0795-1.0909 1.6191-2.3943 1.6191-3.9102 0-1.3666-0.40122-2.5254-1.2051-3.4785-0.52825-0.60863-1.7624-1.4252-3.7031-2.4473-1.2632-0.65457-2.0493-1.176-2.3594-1.5664-0.31005-0.37896-0.4668-0.83308-0.4668-1.3613 0-0.60863 0.25864-1.1422 0.7754-1.6016 0.51676-0.47083 1.1888-0.70703 2.0156-0.70703 1.0565 0 1.8955 0.31152 2.5156 0.93164 0.63158 0.62012 0.96358 1.504 0.99804 2.6523l2.5156-0.20703c-0.04594-1.8259-0.58561-3.2433-1.6191-4.2539-1.0335-1.022-2.4407-1.5332-4.2207-1.5332zm-54.432 0.41211-1.8086 10.561c-0.32155 1.8604-0.48242 3.18-0.48242 3.9609 0 1.2288 0.36661 2.2328 1.1016 3.0137 0.74644 0.78088 1.6649 1.1719 2.7559 1.1719 1.8833 0 3.7264-1.2402 5.5293-3.7207l-0.56836 3.3086h2.3613l3.1348-18.295h-2.5508l-1.3594 7.9062c-0.31006 1.8489-0.67862 3.3253-1.1035 4.4277-0.41341 1.0909-1.0733 2.0033-1.9805 2.7383-0.89573 0.72347-1.7979 1.0859-2.7051 1.0859-0.64308 0-1.142-0.1833-1.498-0.55078-0.35599-0.37896-0.5332-0.93082-0.5332-1.6543 0-0.52825 0.08556-1.2798 0.25781-2.2559l1.998-11.697h-2.5488zm39.238 1.998c1.0106 0 1.8618 0.45411 2.5508 1.3613 0.68902 0.89572 1.0332 2.2174 1.0332 3.9629 0 1.6077-0.30543 3.1738-0.91406 4.7012-0.60864 1.5273-1.3194 2.625-2.1348 3.291-0.81534 0.65457-1.6319 0.98047-2.4473 0.98047-1.0335 0-1.893-0.44193-2.582-1.3262-0.68902-0.88425-1.0352-2.1918-1.0352-3.9258 0-1.6996 0.283-3.3023 0.8457-4.8066 0.57418-1.5158 1.2747-2.6013 2.1016-3.2559 0.83832-0.65457 1.6978-0.98242 2.582-0.98242z" stroke-width="1.3229" style="font-variant-caps:normal;font-variant-east-asian:normal;font-variant-ligatures:normal;font-variant-numeric:normal;text-orientation:upright"/>
  <path d="m396.57 193.15c0.27458-2.3182 0.72392-3.0329 2.9452-4.6837 1.3297-0.98825 1.4069-1.2059 1.769-4.9894 0.34944-3.6516 0.34921-37.972-2e-4 -45.468-0.28718-6.1589-0.547-9.7089-0.84767-11.582-0.20473-1.2751-0.25893-1.3677-1.4563-2.4878-1.8099-1.693-5.5485-4.6444-12.05-9.5129l-5.733-4.2927-1.5271 0.36383c-3.833 0.91319-5.2252 1.0635-9.8887 1.0676-5.1508 5e-3 -6.9828-0.23795-10.652-1.4096-6.493-2.0735-10.543-5.7003-11.766-10.536-0.90985-3.5978 0.10177-7.4677 2.9174-11.161 1.8586-2.4376 4.5215-4.7177 7.6157-6.521 0.84082-0.48999 1.5287-0.91484 1.5287-0.94409 0-0.0291-0.47125-0.31912-1.0472-0.64419-1.5352-0.86641-3.019-2.5758-3.4134-3.9323-0.91932-3.1625 1.255-6.6579 5.7427-9.2314 1.8899-1.0838 1.7898-0.95598 1.2937-1.6526-1.3088-1.838-1.6826-5.0868-0.84812-7.3706 1.2914-3.5345 5.4072-6.8165 10.472-8.3502 0.93892-0.28433 1.7215-0.52868 1.7392-0.54304 0.0179-0.0146-0.17982-0.6474-0.43875-1.4068-0.61357-1.7996-0.65137-4.2397-0.0936-6.0448 1.4806-4.7919 6.376-8.4874 12.906-9.7426 1.7819-0.34253 6.1695-0.41296 7.6775-0.12325l0.94915 0.18237 0.51457-0.81516c1.1969-1.8961 4.0557-4.1915 6.6484-5.3381 8.1468-3.6029 18.729-1.7963 23.864 4.0742 1.9171 2.1916 3.0364 5.3039 2.7934 7.7672l-0.11869 1.2034 1.6298 0.11984c4.2339 0.31124 8.584 2.313 11.095 5.1055 2.8669 3.1887 3.5686 6.7704 2.1783 11.119-0.12198 0.38158-0.0134 0.41985 1.8066 0.63548 6.89 0.81651 11.954 4.0066 13.461 8.4805 1.4312 4.2485-1.168 8.7543-6.5065 11.279-0.6985 0.33033-1.2256 0.66387-1.1714 0.74123 0.0544 0.0773 0.85312 0.64582 1.7754 1.2633 6.3335 4.241 10.197 10.22 10.589 16.387 0.5309 8.3625-5.2819 15.478-14.864 18.194-2.9837 0.84586-4.292 1.0018-8.349 0.99531-4.0852-7e-3 -5.679-0.21394-9.1109-1.1854-0.94266-0.26681-1.7532-0.48513-1.8014-0.48513-0.14471 0-9.1373 10.083-12.594 14.12-3.816 4.4578-6.2288 7.5119-7.1724 9.0789l-0.68567 1.1386v16.088c0 21.055 0.33184 31.124 1.0633 32.51 0.15745 0.29825 0.96323 1.2968 1.7907 2.219 0.82747 0.92218 1.7989 2.1205 2.1587 2.663 0.78512 1.1836 1.5546 3.2196 1.4626 3.8702-0.0649 0.46076-0.11592 0.47181-2.7294 0.59412-1.4646 0.0684-5.5824 0.13508-9.1506 0.14789l-6.4877 0.0233zm14.244-69.374c2.0125-1.3412 7.148-6.1094 11.401-10.585l2.9221-3.0755-1.1828-0.59705c-0.65048-0.32838-1.9152-1.0958-2.8105-1.7054l-1.6278-1.1084-1.6895 0.50068c-2.8147 0.83405-6.773 1.5111-8.835 1.5111h-0.84357v2.3178c0 2.9136 0.32893 8.733 0.60194 10.767 0.35242 2.6246 0.65391 2.9135 2.0616 1.9753zm-9.6144-7.1202c0.21956-0.51534 0.54163-1.6471 0.71579-2.515 0.29464-1.4688 0.89882-5.4843 0.83567-5.5544-0.0157-0.0172-0.87138-0.17507-1.902-0.35091-2.4579-0.41935-5.0858-1.1226-7.2919-1.9512l-1.7835-0.66988-3.043 1.5358-3.0431 1.5357 4.7698 3.1412c6.7219 4.4268 8.9707 5.7447 9.8248 5.7577 0.43338 7e-3 0.58346-0.14528 0.91731-0.92906z" stroke-width=".19726"/>
  <path d="m613.14 167.92c-1.1406-0.38688-2.4328-0.84026-2.8715-1.0075-1.7148-0.65369-4.6618-1.8282-5.3442-2.1298-2.2719-1.0042-4.0004-1.8262-4.6733-2.2223-0.42061-0.24766-0.79662-0.4503-0.83555-0.4503-0.19361 0-3.8508-2.2569-5.1797-3.1965-1.6032-1.1335-3.9155-3.0718-4.642-3.8912-0.23895-0.26951-0.66181-0.74126-0.9397-1.0484-1.5328-1.6939-2.7989-3.9486-3.3582-5.9802-0.4429-1.6089-0.3794-4.1231 0.13819-5.4724 0.84094-2.1922 2.6036-4.4263 4.973-6.3035 0.57031-0.45185 1.0728-0.86787 1.1167-0.92452 0.11493-0.14853 3.2954-2.2178 3.4086-2.2178 0.0521 0 0.47316-0.24012 0.93549-0.53361 0.9722-0.6171 3.8676-2.0317 5.9456-2.9049 0.78969-0.33182 1.5076-0.65495 1.5953-0.71806 0.0877-0.0632 0.66205-0.30787 1.2762-0.54394 0.6142-0.23604 1.4756-0.5783 1.9143-0.76059 0.43872-0.18223 1.0848-0.42258 1.4358-0.53394 0.35096-0.11144 1.356-0.46403 2.2334-0.78362 0.87741-0.31961 2.0619-0.72569 2.6322-0.90244 0.5703-0.17669 1.3959-0.4559 1.8346-0.62046 0.43871-0.1645 2.2693-0.7327 4.068-1.2626 1.7987-0.52987 3.4857-1.029 3.7489-1.109 0.26322-0.0801 1.0529-0.30379 1.7548-0.49714 0.70193-0.19327 1.7069-0.48209 2.2334-0.64165 0.52645-0.15955 1.5674-0.44326 2.3132-0.63043 8.4808-2.1285 10.462-2.6211 12.523-3.1142 1.3161-0.31487 2.7878-0.67403 3.2704-0.79817 0.87569-0.22522 1.8869-0.45809 4.1478-0.95508 0.65805-0.14456 1.6272-0.36278 2.1536-0.48474 0.52646-0.12188 1.9622-0.4446 3.1906-0.717 2.1553-0.47797 3.8904-0.87638 5.9026-1.3554 0.52647-0.12545 1.6033-0.36479 2.393-0.53216 1.4525-0.30782 4.9967-1.0832 5.5836-1.2215 0.17546-0.0414 1.1446-0.25701 2.1536-0.47923 2.003-0.44112 3.2685-0.73701 5.105-1.1937 0.65806-0.16368 2.1656-0.51968 3.3501-0.79125 1.1845-0.27154 2.5485-0.5974 3.0311-0.72412 0.48256-0.12661 1.8824-0.47671 3.1108-0.77782 2.4985-0.61246 4.5455-1.1514 5.2645-1.3862 0.26322-0.0859 1.34-0.40062 2.393-0.69927 4.596-1.3036 7.9543-2.5319 10.688-3.9093 2.1304-1.0732 3.0748-1.7642 3.7453-2.7401 0.8678-1.2632 0.67253-2.491-0.58144-3.6561-1.231-1.1437-2.5949-1.9322-5.0782-2.9356-1.4886-0.60153-1.6006-0.64839-2.7918-1.1676-0.39484-0.17218-1.8665-0.79629-3.2704-1.3871-5.1819-2.1807-13.383-6.2898-13.613-6.8207-0.0293-0.06744-0.15871-0.12267-0.28769-0.12267-0.20973 0-1.1329-0.5562-3.2167-1.938-0.37729-0.25021-0.72093-0.45492-0.76362-0.45492-0.0428 0-1.0262-0.72777-2.1856-1.6173-3.4735-2.665-5.7064-5.1542-6.6625-7.4271-0.46952-1.1162-0.52343-1.4024-0.52012-2.7608 3e-3 -1.6424 0.31624-2.8081 1.1819-4.4135 1.1915-2.2094 3.7264-4.8336 6.3696-6.5941 0.19761-0.13154 0.55708-0.40081 0.79883-0.59824 0.24176-0.19741 0.47156-0.35894 0.51071-0.35894 0.0392 0 0.67485-0.36456 1.4127-0.81015 2.2883-1.3818 6.4209-3.3253 9.7967-4.6072 1.683-0.63909 6.6763-2.3252 8.2956-2.8013 0.52646-0.15482 1.1366-0.33791 1.356-0.40698 0.21933-0.06904 0.97311-0.27848 1.6751-0.46534 0.70194-0.18677 1.4916-0.40316 1.7548-0.48062 0.26322-0.07748 1.5554-0.39923 2.8715-0.71503 1.3161-0.31581 3.0032-0.72114 3.749-0.90078 1.8517-0.446 3.04-0.71052 4.5466-1.0121 0.70193-0.14042 1.7531-0.36053 2.336-0.48896 0.65666-0.14476 1.8703-0.2295 3.1906-0.22298l2.1308 0.01032-0.86889 0.23355c-0.47786 0.1284-0.90263 0.2673-0.94388 0.30856-0.20443 0.20443 1.9685 0.03268 3.089-0.24405 0.79022-0.19526 1.7926-0.31225 2.6322-0.30728l1.356 8e-3 -0.63811 0.30583c-0.35098 0.16823-1.1407 0.52936-1.7548 0.80256-0.61419 0.27319-1.8542 0.84899-2.7556 1.2796-0.90139 0.43057-1.6746 0.78284-1.7182 0.78284-0.11016 0-5.0789 2.4797-6.9964 3.4916-5.6454 2.9792-10.276 6.2608-12.008 8.5096-0.90329 1.1729-1.1963 1.8904-1.2216 2.9916-0.0398 1.7309 1.165 3.074 4.0434 4.5073 1.7878 0.89024 9.5933 3.542 12.76 4.3349 0.21935 0.05497 1.1885 0.30918 2.1536 0.565 3.2458 0.86034 6.6329 1.6863 9.5718 2.3341 1.0529 0.23207 2.381 0.52491 2.9513 0.65077 0.57033 0.12583 1.4074 0.29241 1.8602 0.37016 0.45278 0.07771 1.0989 0.21447 1.4358 0.30386 0.33693 0.08937 1.1869 0.27852 1.8888 0.42033 0.70194 0.1418 1.8505 0.39244 2.5525 0.557 0.70194 0.16449 1.8147 0.41734 2.4727 0.56173 3.858 0.84648 4.9879 1.1115 8.4551 1.9828 3.8331 0.96332 4.6707 1.1868 5.5836 1.4898 0.39484 0.13096 1.2563 0.3969 1.9144 0.5908 1.5449 0.45518 5.0948 1.6399 6.2216 2.0765 0.48258 0.18696 1.0569 0.39912 1.2762 0.4715 0.3444 0.1136 1.0845 0.4217 2.3132 0.96279 0.17552 0.07737 0.64213 0.27957 1.037 0.44954 2.4558 1.0571 3.2501 1.4238 4.5407 2.0961 2.2078 1.15 6.1896 3.6004 6.8138 4.1931 0.11626 0.1104 0.60621 0.51842 1.0888 0.90679 4.099 3.2987 6.2598 7.3174 6.01 11.177-0.16685 2.5784-1.3788 5.3184-3.5989 8.136-1.9628 2.4911-6.4811 6.452-13.07 11.458-0.49895 0.37907-1.1226 0.86023-1.3858 1.0693-0.26322 0.20901-0.90932 0.7229-1.4358 1.1419-0.52643 0.41901-1.0494 0.83517-1.1621 0.92484-0.1127 0.0896-0.2922 0.23624-0.39883 0.32581-0.10659 0.0896-0.55219 0.44851-0.99013 0.79765-2.1704 1.7304-5.2521 4.6888-6.8929 6.6172-1.6743 1.9678-3.3605 5.2619-3.7101 7.248-1.0697 6.0772 2.7477 11.915 12.117 18.531 1.4728 1.0399 5.2123 3.4149 5.3769 3.4149 0.056 0 0.21508 0.0979 0.35359 0.21758 0.13854 0.11972 0.82616 0.52458 1.5281 0.89976 0.70192 0.3752 1.348 0.73741 1.4358 0.80494 0.19795 0.15224 3.6381 1.9456 6.3014 3.2849l1.9941 1.0028-85.987-0.0679-1.8346-0.66297c-1.5662-0.56597-5.5988-2.1461-6.6205-2.5941-0.1755-0.077-0.7139-0.29926-1.1965-0.49404-1.8428-0.74376-3.8606-1.7138-6.8598-3.2977-4.169-2.2017-7.2328-4.3935-9.9808-7.1401-2.1847-2.1836-3.3829-3.9518-4.0727-6.01-0.46481-1.387-0.4959-1.6145-0.42267-3.0924 0.0435-0.87741 0.13148-1.7209 0.19559-1.8745 0.1089-0.26084-0.10859-0.27918-3.3115-0.27918h-3.428l-0.17846 0.70876c-0.25576 1.0156-0.22004 3.4664 0.0673 4.6125 1.0126 4.0408 3.9587 8.0611 8.9016 12.147 2.4488 2.0244 7.1831 5.1381 10.448 6.8714 0.67307 0.35734 1.4392 0.76726 1.7024 0.91092 0.4445 0.24252-1.8053 0.26062-31.587 0.25382l-32.066-7e-3 -2.0739-0.7034zm56.429-31.223c1.5468-1.3377 2.8541-2.3134 4.113-3.0699 0.57033-0.3427 1.3959-0.86127 1.8346-1.1524 1.3614-0.90336 7.6456-3.9395 10.167-4.9121 0.81317-0.31367 1.6221-0.63673 1.7976-0.71793 0.88191-0.40803 7.5385-2.8178 11.725-4.2447 0.92128-0.31397 2.2853-0.80604 3.0311-1.0935 0.74581-0.28742 1.7509-0.66982 2.2334-0.84982l0.87744-0.32721-5.7648-7e-3c-5.7492-7e-3 -5.7682-7e-3 -7.0193 0.39704-0.68999 0.22292-1.3875 0.47941-1.55 0.56989-0.16253 0.0905-1.1676 0.47466-2.2334 0.85368-4.6086 1.6388-7.524 2.761-9.7549 3.7546-1.2158 0.54152-1.8301 0.79765-1.9131 0.79765-0.0528 0-1.2233 0.56168-2.6011 1.2482-3.8568 1.9217-7.3826 4.1178-9.8435 6.1311-1.1906 0.97408-3.5894 3.3076-3.5894 3.4916 0 0.0753 1.6488 0.13668 3.6641 0.13668h3.6641zm47.147-20.766c0.50409-0.21096 1.5985-0.64905 2.4321-0.97356 0.83355-0.3245 1.9822-0.78859 2.5525-1.0313 0.57031-0.24271 2.1856-0.92482 3.5894-1.5158 1.4038-0.59101 2.9473-1.2497 3.4299-1.4637 0.48258-0.21404 1.1287-0.49988 1.4358-0.63518 1.0139-0.44673 5.9643-2.9118 6.9396-3.4556 2.005-1.1179 4.2327-2.5309 5.1847-3.2885l0.39884-0.31735-2.6183-4e-3c-2.5812-4e-3 -2.6286 2e-3 -3.3501 0.43829-0.40254 0.24302-0.87546 0.52745-1.051 0.63205-1.3901 0.82852-7.3508 3.531-10.13 4.5929-0.3071 0.11733-1.3122 0.5164-2.2334 0.88686-0.92129 0.37045-1.9622 0.76746-2.3132 0.8822-0.35098 0.11479-1.356 0.46796-2.2334 0.7849-0.87743 0.31696-2.2055 0.78904-2.9513 1.049-0.7458 0.26002-1.8585 0.64797-2.4727 0.86215-0.61421 0.21418-1.6192 0.57378-2.2334 0.79914-0.61419 0.22534-2.1935 0.77387-3.5096 1.2189s-2.4173 0.83117-2.4472 0.85804c-0.0298 0.0268 2.3575 0.0522 5.3051 0.0562 5.3073 7e-3 5.3683 4e-3 6.2759-0.37617zm29.346-16.517c0.55158-1.1238 0.50337-2.6322-0.12494-3.9084-1.0986-2.2315-4.2937-4.3563-9.7562-6.488l-2.1169-0.82608-6.7003-0.09258 2.4727 0.8524c4.0985 1.4129 4.6265 1.624 6.7003 2.6791 2.8608 1.4555 4.0415 2.3623 5.0464 3.8757 0.54961 0.82779 0.60287 1.004 0.60287 1.9948 0 0.94388-0.0668 1.1941-0.50757 1.9033l-0.50754 0.81648 4.5388-0.0882zm-21.091-14.103c-0.87741-0.29322-2.4926-0.82596-3.5894-1.1838-1.0968-0.35789-3.3581-1.127-5.0252-1.7091-1.6671-0.58214-3.2459-1.1241-3.5086-1.2043-0.26264-0.08023-1.7702-0.14319-3.3501-0.13964-3.243 8e-3 -3.2361-0.024-0.22315 1.0029 0.91182 0.31076 2.4834 0.85994 3.4924 1.2204 1.009 0.36046 2.2653 0.7969 2.7918 0.96988 0.52644 0.17297 1.8186 0.5975 2.8716 0.94343l1.9144 0.62891 6.2217 0.0046-1.5953-0.53314zm-20.021-7.1219c-1.5355-0.61534-3.0071-1.2186-3.2703-1.3405-0.26324-0.12188-1.1346-0.5098-1.9365-0.86186-0.80182-0.35204-1.9797-0.89796-2.6174-1.2132l-1.1596-0.57307-5.2853 0.08731 1.8302 0.90095c2.5457 1.2532 3.6812 1.776 5.3242 2.4513 0.78103 0.32105 1.5348 0.64195 1.6751 0.71314 0.14025 0.07108 0.54215 0.23635 0.89311 0.36705 0.35096 0.13076 0.81759 0.31271 1.0369 0.40442 0.22587 0.09451 1.6787 0.1704 3.3502 0.17492l2.9513 8e-3 -2.7918-1.1188zm-13.405-6.3072c-2.5084-1.5373-3.9688-2.5752-5.0569-3.5937l-0.67392-0.63081-1.9583 0.04469-1.9583 0.0448 0.87742 0.93969c0.74521 0.79813 1.8613 1.7129 3.8903 3.1886 0.22656 0.16488 0.53872 0.39582 0.69366 0.51341 0.2075 0.15739 0.95302 0.21512 2.8301 0.21886l2.5483 0.0057zm-7.1142-5.8498c-0.0648-0.10971-0.29629-0.48604-0.51444-0.83636-0.57437-0.92243-0.66825-2.6132-0.20346-3.664 0.18609-0.42066 0.33833-0.79164 0.33833-0.82433 0-0.03268-0.53015-0.05955-1.1781-0.05955-1.3042 0-1.3972 0.06766-2.0497 1.4931-0.36225 0.79129-0.37529 2.5742-0.0253 3.4491l0.25661 0.64136h1.7469c1.354 0 1.7204-0.04469 1.6291-0.19942zm2.0295-7.5898c0.56148-0.42344 1.4838-1.0695 2.0497-1.4357l1.0288-0.66589h-2.8031l-1.1428 0.79119c-0.62852 0.43513-1.4658 1.0792-1.8607 1.4312l-0.71787 0.64008 1.2126 0.0045c1.2045 0.0045 1.2193-6.39e-4 2.2334-0.76539zm6.2335-3.9262c0.56826-0.30156 1.8892-0.98145 2.9355-1.5109l1.9022-0.96257-3.1115-9e-3 -2.3713 1.2364c-1.3042 0.68-2.5424 1.3582-2.7516 1.5072-0.36983 0.2634-0.34271 0.27103 0.99161 0.27918 1.2644 8e-3 1.4528-0.03451 2.405-0.53994zm10.18-4.673 2.3107-0.92064-1.4784-0.04595c-1.47-0.04572-1.4914-0.0408-3.7465 0.86127-1.2474 0.49897-2.298 0.93242-2.3346 0.96322-0.0364 0.03085 0.60954 0.0576 1.4358 0.05931 1.4596 0.0045 1.5679-0.02285 3.813-0.91728zm8.0587-2.84 1.9144-0.63309-1.333-0.04652c-0.8599-0.02995-1.5677 0.03475-1.9941 0.18264-0.36359 0.12602-1.0918 0.35488-1.6182 0.50848-0.52646 0.15364-1.2084 0.37676-1.5156 0.4959-0.5204 0.20186-0.44992 0.21348 1.037 0.17119 1.3574-0.03863 1.8808-0.13984 3.5096-0.67849zm4.83-1.6604c0.67767-0.1702 1.3757-0.34132 1.5512-0.38033 0.17551-0.03897-0.25525-0.07668-0.95717-0.08378-1.2069-0.01188-2.5408 0.21613-3.4299 0.5869-0.74217 0.30951 1.5011 0.21233 2.8359-0.12286z" stroke-width=".15953"/>
  <path d="m405.67 304.19c-5.0288 1.4728-9.8242 3.1394-12.943 4.5449-4.7918 2.1591-6.9162 3.2994-9.7946 5.2567-2.9224 1.9872-5.3256 4.4451-6.5082 6.6567-0.7325 1.3698-0.83768 1.8106-0.83768 3.5098 0 2.1743 0.51153 3.5576 1.8425 4.9824 0.42395 0.45384 0.90999 1.0236 1.0798 1.2661 0.59999 0.8566 6.5904 5.4403 7.2588 5.5542 0.14175 0.0241 0.95369 0.47043 1.8043 0.99123 0.85058 0.52081 5.2594 2.7821 9.7976 5.0252 7.8258 3.8679 11.089 5.7358 12.92 7.3958 2.1956 1.9903 4.6096 5.6146 5.8105 8.7238 0.50578 1.3093 0.59757 2.0218 0.59757 4.6451 0 2.9959-0.0286 3.1566-0.8664 4.8585-1.7155 3.4847-5.2757 6.414-10.439 8.5904-5.7265 2.4136-14.665 5.1537-31.094 9.5318-1.3468 0.3589-4.0442 1.1042-5.9942 1.6562-1.95 0.55202-3.8058 1.007-4.124 1.0119-0.3182 4e-3 -0.80364 0.17841-1.0788 0.38661-0.27518 0.20808-0.71372 0.37859-0.97464 0.37859-0.26089 0-1.1376 0.21665-1.9482 0.48177-0.81069 0.26509-2.6919 0.85595-4.1804 1.3129-4.6054 1.4139-7.5705 2.3773-8.3769 2.722-0.42529 0.1818-1.7592 0.69555-2.9641 1.1418-8.2072 3.0391-14.531 6.8166-20.373 12.17-1.1357 1.0407-3.6909 4.1525-4.6204 5.6267-0.49153 0.77963-0.95623 1.4756-1.0325 1.5465-0.35858 0.33323-2.1087 4.2005-2.6827 5.9283-1.4196 4.273-1.8304 6.986-1.8148 11.985 0.0131 4.189 0.0817 4.8899 0.70428 7.2171 0.37929 1.4176 0.8503 2.9255 1.0466 3.3508 2.6137 5.6623 4.5933 8.5813 8.5406 12.594 3.4079 3.4644 5.9263 5.4492 9.1733 7.2276 2.1513 1.1783 5.1826 2.2161 6.4725 2.2161 2.9616 0 4.5454-2.3628 3.4178-5.0986-0.54619-1.3251-2.35-2.9618-7.7331-7.0157-8.5252-6.4202-11.849-10.45-13.82-16.754-0.54022-1.7275-0.60462-2.4267-0.60462-6.5726 0-5.1148 0.39032-7.2369 1.9583-10.65 0.41152-0.89593 0.74807-1.6823 0.74807-1.7474 0-0.0651 0.74423-1.2651 1.6537-2.6666 4.294-6.6171 10.273-10.558 22.188-14.626 6.3657-2.1734 14.868-4.3611 29.384-7.5609 2.7356-0.60302 15.697-3.7879 18.3-4.4966 0.85058-0.23157 2.6264-0.70635 3.9463-1.0552 1.3199-0.34881 3.0597-0.87356 3.8663-1.1659 1.6693-0.60503 4.0742-1.3916 5.5905-1.8284 0.56706-0.16337 1.437-0.50239 1.9331-0.75363 0.49618-0.25124 2.178-1.0595 3.7374-1.7962 3.37-1.5922 6.2278-3.5407 8.6211-5.8774 1.7895-1.7473 3.6221-4.0211 3.6221-4.4946 0-0.14557 0.16145-0.44825 0.35894-0.67207 0.80212-0.9089 1.9572-4.231 2.2296-6.4136 0.33625-2.6933 0.14832-4.6412-0.71385-7.3963-1.6812-5.3717-5.6417-10.069-12.056-14.298-2.8402-1.8728-5.6861-3.2634-10.826-5.29-2.41-0.95028-6.2801-2.4791-8.6004-3.3971-7.3378-2.9029-11.534-5.2319-13.254-7.356-0.98971-1.2228-1.2231-3.0437-0.56736-4.4256 2.0804-4.3841 13.359-10.015 27.834-13.896 11.46-4.4502 2.7532-4.7714-5.6147-3.1816zm20.404 4.7699c-6.4945 3.2059-8.9957 5.1943-10.312 8.169-2.5483 5.7608 6.4245 13.409 21.684 18.483 2.3391 0.77772 4.6589 1.4969 5.155 1.5984 0.49618 0.10149 1.83 0.45105 2.9642 0.77678 1.1341 0.32572 3.2219 0.90488 4.6395 1.2872 15.268 4.118 25.24 8.1754 30.377 12.36 5.5728 4.5391 9.1874 12.32 9.1874 19.776 0 1.9732-0.96857 7.0927-1.7237 9.1114-1.7237 4.6078-4.8257 9.428-9.0097 14-1.9072 2.0839-10.052 9.2862-11.59 10.249-0.40981 0.25653-1.325 0.94672-2.0338 1.5334-0.70884 0.5867-2.9126 2.2705-4.8973 3.7419-8.9388 6.627-11.316 8.9743-13.136 12.967-2.0404 4.4774-2.1375 11.547-0.22452 16.377 1.3453 3.3968 3.0766 6.5107 5.1027 9.1784 0.43067 0.56703 0.8408 1.089 0.9117 1.1599 0.071 0.071 0.7599 0.88279 1.5314 1.8043 5.1347 6.1326 14.004 12.611 19.218 14.036 1.5318 0.41872 4.2158 0.49777 5.1278 0.15108 1.062-0.40375 2.0436-2.1538 2.1672-3.8633 0.10298-1.4226 0.068-1.5258-0.81804-2.4119-0.72873-0.72873-5.8722-3.53-6.4816-3.53-0.0712 0-1.0272-0.44941-2.1244-0.9988-13.666-6.8426-21.5-17.86-19.647-27.632 0.82991-4.376 4.7466-8.5078 14.043-14.814 0.70881-0.48082 1.8107-1.2428 2.4486-1.6935 0.63793-0.45069 2.6097-1.8065 4.3818-3.0125 8.5464-5.8164 13.264-9.9598 17.225-15.127 6.3816-8.3262 9.4176-17.93 8.3115-26.291-0.61448-4.6444-2.4071-9.5869-4.7538-13.106-2.1153-3.1716-6.921-7.1905-11.575-9.6798-3.9287-2.1015-11.79-5.0741-16.683-6.3089-5.0704-1.2794-14.342-3.145-19.331-3.8894-2.5477-0.38011-7.2324-1.5074-9.7694-2.351-6.3121-2.0988-10.513-4.7618-12.139-7.6958-2.1947-3.959 0.72157-9.3964 6.8395-13.17 9.1601-7.1213 2.6548-4.53-5.0669-1.1846zm-25.248 6.5505c-0.51053 4e-3 -0.99966 0.10658-1.833 0.30908-4.1455 1.0076-6.2383 3.2077-6.2575 6.5787-8e-3 1.4508 0.0882 1.8031 0.7199 2.6289 1.019 1.332 2.3153 1.8524 6.6165 2.655 5.8493 1.0916 9.8345 2.4885 11.312 3.9659 0.78547 0.78548 2.2108 1.7785 2.7356 1.906v5.1e-4c1.2372 0.30056 1.7154 0.14111 2.0157-0.67157 0.28514-0.77161-0.81509-2.9012-2.138-4.1386-1.9914-1.8627-3.4768-2.4591-8.5048-3.4137-4.4965-0.85372-5.3398-1.0803-6.8853-1.8496-1.789-0.89048-1.7181-2.4362 0.15555-3.392 2.0896-1.066 4.2746-0.61904 7.648 1.5651 1.2888 0.83447 2.5122 1.5173 2.719 1.5173 1.0574 0 1.3028-1.4848 0.5019-3.0386-1.0842-2.1035-3.562-3.6766-6.8445-4.3461-0.9187-0.18731-1.4503-0.28079-1.9608-0.27636zm21.581 19.464c-1.1007 0.0314-1.7151 0.72564-1.7151 1.9382 0 2.0212 1.8885 3.8309 10.209 9.7835 1.4332 1.0253 3.498 2.5021 4.5887 3.2818 9.3154 6.6596 12.559 10.676 13.306 16.473 0.53316 4.1379-0.83808 7.6184-4.3758 11.106-1.2223 1.205-3.2503 2.9173-4.5066 3.8049-1.7908 1.2651-9.6368 6.1945-12.2 7.6651-1.3851 0.79454-6.9953 4.614-9.2126 6.2721-3.6781 2.7504-5.7685 4.5857-9.1975 8.0759-5.4089 5.5054-7.6338 9.3652-9.559 16.582-0.78199 2.9315-0.82475 3.3353-0.82865 7.7326-3e-3 2.9528 0.12438 5.2486 0.34888 6.3149 0.81699 3.8803 1.6012 5.9694 2.6853 7.1526 0.3661 0.39958 0.82562 0.57994 1.4775 0.57994 1.3983 0 1.8916-0.68533 2.0107-2.792 0.0882-1.5619-0.58874-10.437-0.8694-11.396-0.27886-0.95353-0.13592-6.5016 0.22249-8.6301 0.46983-2.7903 1.3617-5.11 3.0044-7.8146 1.4797-2.4362 1.7722-2.7901 5.0347-6.0889 5.0157-5.0715 8.472-7.5006 19.46-13.679 7.2117-4.0549 10.299-6.2623 14.079-10.064 1.9719-1.9833 3.9634-4.4772 3.9634-4.9632 0-0.16443 0.10022-0.29853 0.22301-0.29853 0.47447 0 1.8624-3.6996 2.128-5.6726 0.44982-3.3424-0.2759-6.4294-2.4139-10.271-2.0962-3.7662-6.5092-8.5655-12.825-13.947-1.205-1.0268-2.763-2.4058-3.4625-3.0643-0.69951-0.65849-1.6985-1.5451-2.2196-1.9704-0.52108-0.42528-1.9202-1.5862-3.1096-2.58-3.4819-2.9095-4.6611-3.5761-6.247-3.531zm16.974 5.1319c-0.96397-0.036-1.4202 0.29268-1.4202 0.98974 0 2.2237 2.0907 3.4617 9.7946 5.7989 5.1354 1.558 6.065 1.8632 8.248 2.7084 2.7136 1.0507 8.9098 4.107 10.967 5.4098 6.8441 4.3341 10.482 8.3979 11.465 12.809 0.7477 3.3523-0.73869 8.38-3.9403 13.328-1.2778 1.9749-1.2429 1.9279-3.1872 4.269-0.82414 0.99236-1.618 1.9498-1.7645 2.128-0.3104 0.37748-4.1755 3.9169-6.6014 6.0446-3.1435 2.7573-9.6383 7.997-13.125 10.589-5.7398 4.2674-9.5371 8.5199-11.096 12.426-0.16972 0.42528-0.40591 1.0052-0.52455 1.2888-0.97409 2.3276-1.6591 7.3275-1.393 10.168 0.23244 2.4805 0.98745 4.9271 1.8294 5.9278 0.52231 0.62068 0.75513 0.73157 1.1231 0.53461 0.25528-0.13666 0.52739-0.41403 0.60511-0.61666 0.16125-0.42041 0.53136-3.1749 0.95651-7.1209 0.68917-6.3964 2.4775-11.438 5.2542-14.815 1.3407-1.6305 2.1253-2.3312 6.0808-5.4299 20.325-15.922 25.825-21.559 28.532-29.244 0.68904-1.9559 1.3643-5.7402 1.3663-7.6515 4e-3 -5.9636-3.6948-11.739-10.051-15.693-2.5454-1.5832-5.4489-3.0069-9.1502-4.4865-4.5912-1.8353-12.636-5.2152-14.434-6.0642-1.1884-0.56115-5.0691-2.1241-6.3391-2.5528-1.3883-0.46874-2.4454-0.71744-3.1952-0.74558zm10.013 10.682c-0.0506-1e-3 -0.0958 1e-3 -0.13434 6e-3 -1.0288 0.14578-0.95509 1.3568 0.14345 2.3631 0.79492 0.72813 3.9019 2.7165 5.8271 3.7294 4.0937 2.1537 8.5177 5.1481 11.303 7.6505 1.4766 1.3267 3.114 3.7296 3.5401 5.1953 0.38894 1.3379 0.38176 1.4897-0.15299 3.2606-0.94047 3.1144-2.5156 5.5067-6.0355 9.1663-3.3496 3.4825-10.592 9.2358-13.245 10.522-2.2858 1.1082-1.4455-1.6155 2.1934-7.1088 1.4649-2.2115 2.7515-4.1368 2.8589-4.2786 0.31212-0.412 3.0156-4.7858 3.7455-6.0597 1.5756-2.7498 2.5207-6.4333 2.0011-7.8-0.31205-0.82071-1.2192-0.94452-2.202-0.30054-0.50707 0.33224-2.4602 3.207-2.4602 3.6211 0 0.0663-0.96948 2.1165-2.1541 4.5565-2.369 4.8793-3.7394 7.2488-5.5482 9.5912-3.2042 4.1494-5.0009 10.086-3.7122 12.268 0.37405 0.63321 0.60569 0.74858 1.5022 0.74858 2.1558 0 8.3192-3.1442 13.131-6.699 4.1742-3.0837 10.456-10.304 12.449-14.308 0.81105-1.6298 1.6019-4.5781 1.6019-5.9716 0-1.4183-0.80225-3.7053-1.9291-5.4984-0.98681-1.5702-4.0414-4.5759-5.9323-5.8377-1.2518-0.83534-8.1576-4.8278-12.511-7.2327-1.4848-0.82029-3.5216-1.5664-4.2801-1.5842zm-13.942 5.6469c-0.55316 0.0227-1.0507 0.29137-1.4479 0.82561-0.47711 0.64187-0.49572 0.80289-0.19282 1.6754 0.18434 0.53089 0.61452 1.3994 0.956 1.9301 0.71159 1.1059 1.3791 3.6678 1.3849 5.3126 6e-3 1.7023-0.71225 4.1144-1.617 5.4309-2.7904 4.0604-7.5257 7.2139-20.417 13.597-12.909 6.3921-18.063 9.0587-20.694 10.709-8.3682 5.2479-14.134 10.557-17.456 16.074-1.309 2.1738-2.7127 6.74-2.9954 9.7437-0.65825 6.9956 1.3585 15.107 6.2223 25.03 3.1326 6.3911 6.5732 10.289 9.6637 10.948 2.0995 0.44755 3.3475-0.66682 3.2526-2.9048-0.0235-0.55614-0.8115-1.5266-3.4529-4.2529-1.8823-1.9428-3.7664-3.9965-4.187-4.5635-0.42055-0.56705-0.8362-1.089-0.92379-1.1599-0.46508-0.37644-2.9129-4.3213-4.042-6.5142-2.2462-4.3627-3.0788-8.2745-2.7698-13.016 0.46006-7.0607 3.1731-13.702 7.2472-17.741 0.83511-0.82802 4.4894-3.7872 5.7778-4.6788 1.6355-1.1318 7.7271-5.0214 8.5033-5.4294 0.35574-0.1871 1.6532-0.91589 2.8831-1.6195 2.0409-1.1676 12.655-6.4176 12.975-6.4176 0.31198 0 12.017-5.9514 13.915-7.0746 5.6763-3.3606 10.416-7.5105 12.207-10.688 1.9614-3.4795 1.6612-7.8672-0.82109-12.008-1.2695-2.1177-2.754-3.258-3.971-3.2083zm5.7591 35.051c-2.4112 0.0244-7.8757 3.4609-12.874 8.2455-5.6594 5.4174-11.429 14.177-13.601 20.648-1.4597 4.3489-1.8045 6.5493-1.9598 12.504-0.19473 7.4688 0.23871 10.094 2.6581 16.1 0.83531 2.0735 4.3738 9.2502 5.9253 12.018 0.37858 0.67532 1.4835 2.7143 2.4557 4.5308 4.0263 7.5226 7.4756 11.681 10.337 12.464 0.60643 0.16591 1.1392 0.3108 1.184 0.3222 0.0449 0.0106 0.30576-0.0994 0.57994-0.2462 0.73354-0.39254 0.61526-1.1951-0.49234-3.3487-0.94259-1.8328-1.7333-3.0957-6.6129-10.561-5.6288-8.611-7.9022-12.874-9.5091-17.831-1.7325-5.344-2.0905-7.7051-2.0827-13.744 8e-3 -6.6811 0.78344-10.713 2.9878-15.536 2.0918-4.5763 7.387-10.933 13.759-16.518 7.4328-6.5147 8.9954-8.2245 8.0819-8.8426-0.20956-0.14175-0.49173-0.20786-0.83618-0.20447zm-56.346 3.2501c-1.4248 2e-3 -3.6526 0.924-5.6932 2.4562-0.62717 0.47091-1.606 1.1724-2.1748 1.5586-1.5969 1.084-6.2684 5.5812-8.2813 7.9727-3.2152 3.8199-6.2054 9.1714-7.5387 13.492-0.30625 0.99234-0.66551 2.1522-0.79841 2.5775-0.70262 2.2482-0.7725 10.306-0.11429 13.183 1.2862 5.6203 3.2054 10.314 6.5616 16.048 2.2618 3.8642 7.4663 9.6334 9.5383 10.573 0.63433 0.28772 1.2909 0.52618 1.4589 0.52909 0.68001 0.0127 1.6259-0.52549 2.0429-1.1619 0.42304-0.64564 0.41776-0.72466-0.11629-1.8239-0.73152-1.5057-2.6397-3.9517-5.8105-7.4476-3.145-3.4675-4.496-5.5169-5.9988-9.1008-2.8826-6.8749-4.0926-15.108-3.0377-20.669 0.22102-1.1651 0.4969-2.3085 0.61317-2.5412 0.11626-0.23278 0.41297-1.0613 0.65897-1.841 0.47173-1.495 3.5804-7.4647 4.2766-8.2123 0.22479-0.24138 0.78279-0.95687 1.2399-1.5903 2.2144-3.0683 7.5599-7.7497 11.754-10.294 2.9302-1.7774 3.5256-2.5723 2.5398-3.3906-0.25977-0.21557-0.64567-0.31722-1.1206-0.31664zm-18.182 3.5657c-0.76784 0.0394-1.9624 0.60471-4.1024 1.8878-4.1782 2.5052-5.2884 2.9572-12.771 5.1983-8.9097 2.6685-11.019 3.5627-13.872 5.881-4.2626 3.464-6.2328 7.1471-6.2328 11.65 0 2.2162 0.0834 2.775 0.94543 6.3436 0.81865 3.3888 3.813 8.7545 6.3506 11.379 1.166 1.206 1.733 1.3449 2.4733 0.6046 0.48279-0.48281 0.48176-0.50963-0.069-1.611-0.30801-0.61596-1.0951-1.932-1.7494-2.9244-1.7687-2.6827-3.4684-5.9856-3.979-7.7326-0.85515-2.9256-0.44259-8.0831 0.87846-10.982 1.8818-4.1296 7.2454-7.4744 16.929-10.557 9.4388-3.0048 10.649-3.428 12.37-4.3264 3.2961-1.72 4.9193-3.9083 3.4731-4.6823-0.18038-0.0966-0.38892-0.14196-0.6449-0.12883zm35.449 2.4929c-2.3921 0.0369-8.0478 4.4789-11.359 8.9816-3.1604 4.298-4.671 9.5792-4.6798 16.367-8e-3 5.9062 1.1487 10.718 3.02 12.565 0.78351 0.77367 1.8063 0.92025 2.5629 0.36699 0.51062-0.37337 0.55916 0.067-0.72594-6.6175-0.53509-2.7834-0.93519-7.1859-0.78684-8.6578 0.53335-5.2914 1.0727-7.308 2.7512-10.287 1.4403-2.556 3.4388-4.9461 7.0967-8.4877 3.3488-3.2423 3.7982-4.0525 2.3414-4.2212-0.0701-8e-3 -0.14383-0.0106-0.221-0.0106zm38.956 0.56083c-1.0551 0.0464-2.6578 0.99766-3.9861 2.4114-1.5374 1.6364-2.9984 3.4953-3.6438 4.636-0.22676 0.40083-0.77416 1.3089-1.2168 2.0177-4.0119 6.425-6.6846 14.986-6.2721 20.091 0.23691 2.9318 1.0591 6.7454 2.0545 9.5308 0.90659 2.537 3.6963 8.1393 4.053 8.1393 0.11739 0 0.21344 0.1176 0.21344 0.26128 0 0.36598 1.3602 2.1498 3.4796 4.563 0.99234 1.1299 1.9782 2.2755 2.1909 2.5463 0.21265 0.27079 0.79259 1.0137 1.2888 1.6507 3.1113 3.9943 4.9844 5.9854 6.5727 6.986 0.4253 0.26794 1.2107 0.48731 1.7454 0.48784 2.1794 2e-3 1.721-2.499-1.1518-6.2817-0.87483-1.1519-3.2282-4.066-5.2295-6.476-5.8796-7.0802-6.9378-8.634-8.236-12.093-1.8775-5.0023-2.673-10.345-2.1979-14.76 0.45251-4.205 1.7168-7.2667 4.5197-10.942 4.4545-5.8407 6.7862-9.257 7.1043-10.409 0.30043-1.0881-0.089-2.1263-0.87195-2.3228-0.12607-0.0316-0.26558-0.0434-0.41632-0.0367zm-80.707 6.6255c-1.0351 0.0498-2.8152 0.74127-5.6735 2.1667-0.92147 0.45955-2.5074 1.1587-3.524 1.5536-2.4899 0.96719-3.7205 2.2134-3.8859 3.9342-0.10387 1.0809-0.025 1.3652 0.57389 2.0771 0.59475 0.7068 3.5076 2.2925 7.0937 3.8612 1.3642 0.59677 2.5775 0.25275 2.5775-0.73097 0-0.82014-1.0633-1.7718-3.1429-2.8126-2.213-1.1077-2.764-1.6006-2.7774-2.4844-0.0195-1.3021 1.6671-2.5174 4.8404-3.4882 3.6188-1.1071 5.7448-2.7368 4.8993-3.7555-0.19402-0.2338-0.51065-0.34384-0.98118-0.32118zm-18.123 12.92c-1.0649 0.022-2.0654 0.24642-2.9339 0.68967-2.1788 1.112-2.5286 2.3261-1.5445 5.3604 1.0895 3.3595 2.5249 5.8787 5.8553 10.275 3.0004 3.961 4.5377 6.3414 7.6983 11.921 1.0212 1.8027 1.4804 2.3842 1.8833 2.3842 0.49504 0 0.52204-0.10574 0.37755-1.4881-0.2594-2.4818-3.2055-9.7325-5.0151-12.343-0.27914-0.40266-1.2475-1.9277-2.1516-3.389-4.0656-6.5711-4.4235-7.4485-3.2879-8.0562 1.8012-0.96397 4.1791 0.22418 7.2548 3.6251 0.63224 0.69908 2.1165 3.4387 3.1418 5.7994 1.9268 4.4362 2.7175 4.9226 2.7175 1.6718 0-4.0007-2.6866-10.112-5.6892-12.942-2.4423-2.3019-5.585-3.5655-8.3064-3.5088zm63.489 26.021c-0.31455-4e-3 -0.62649 0.17989-0.97259 0.55025-0.79032 0.84555-1.1791 2.7409-1.0325 5.0342 0.16172 2.5295 0.53304 3.5333 2.3168 6.2606 3.6065 5.5142 4.7007 8.3895 3.6387 9.563-0.94929 1.049-3.2665 0.1284-4.7166-1.8732-0.9164-1.265-1.181-2.0603-1.5677-4.7191-0.38473-2.6456-0.66513-3.247-1.5143-3.245-0.47894 0-0.84946 0.26944-1.3119 0.94894-0.57036 0.83813-0.64438 1.2151-0.64438 3.2843 0 2.1758 0.068 2.4807 0.98267 4.3999 0.54052 1.1341 1.2918 2.3857 1.6694 2.7814 0.86116 0.90238 2.8727 2.2031 4.1255 2.6676 0.56424 0.20934 1.693 0.32565 2.7593 0.28492 1.5129-0.0579 1.9906-0.19409 2.9576-0.84474 1.6037-1.079 2.3276-2.2345 2.3208-3.7032-6e-3 -1.4928-0.42281-2.3996-3.2748-7.1476-1.2663-2.1082-2.4521-4.239-2.6349-4.7352-0.18286-0.49618-0.49894-1.3568-0.70229-1.9125-0.20341-0.55574-0.4765-2.2273-0.60713-3.7143-0.19599-2.2298-0.33698-2.8093-0.80447-3.307-0.35575-0.37867-0.67263-0.56962-0.98721-0.57339z" stroke-width=".25775"/>
  <path d="m122.08 22.287a2.3392 2.3392 0 0 0-0.0499 0.0019 2.3392 2.3392 0 0 0-0.91618 0.22554l-95.726 45.45-0.06691 0.0305a2.3389 2.3389 0 0 0-0.05158 0.0271 2.3389 2.3389 0 0 0-0.0427 0.0203 2.3389 2.3389 0 0 0-0.09429 0.05158 2.3389 2.3389 0 0 0-0.07655 0.04847 2.3389 2.3389 0 0 0-0.02984 0.017 2.3389 2.3389 0 0 0-0.0951 0.06683 2.3389 2.3389 0 0 0-0.04189 0.0339 2.3389 2.3389 0 0 0-0.09754 0.07907 2.3389 2.3389 0 0 0-0.01526 0.0169 2.3389 2.3389 0 0 0-0.05477 0.04847 2.3389 2.3389 0 0 0-0.05237 0.05226 2.3389 2.3389 0 0 0-0.09991 0.1065 2.3389 2.3389 0 0 0-0.0251 0.0237 2.3389 2.3389 0 0 0-0.06043 0.07665 2.3389 2.3389 0 0 0-0.07655 0.10311 2.3389 2.3389 0 0 0-0.08784 0.13701 2.3389 2.3389 0 0 0-0.05799 0.10073 2.3389 2.3389 0 0 0-0.04592 0.09122 2.3389 2.3389 0 0 0-0.01187 0.0237 2.3389 2.3389 0 0 0-0.05158 0.12175 2.3389 2.3389 0 0 0-0.03052 0.07907 2.3389 2.3389 0 0 0-0.0085 0.0237 2.3389 2.3389 0 0 0-0.03962 0.12481 2.3389 2.3389 0 0 0-0.01187 0.04575 2.3389 2.3389 0 0 0-0.02204 0.08782 2.3389 2.3389 0 0 0-0.01526 0.0919 2.3389 2.3389 0 0 0-0.01187 0.07325 2.3389 2.3389 0 0 0-0.0085 0.05498 2.3389 2.3389 0 0 0-0.0095 0.11531 2.3389 2.3389 0 0 0-0.0041 0.0271 2.3389 2.3389 0 0 0-0.0041 0.07325 2.3389 2.3389 0 0 0-0.0041 0.06684 2.3389 2.3389 0 0 0 0.0041 0.08209 2.3389 2.3389 0 0 0 0 0.0237 2.3389 2.3389 0 0 0 0.01187 0.14685 2.3389 2.3389 0 0 0 0.01865 0.14278 2.3389 2.3389 0 0 0 0.0057 0.0305 2.3389 2.3389 0 0 0 0.02204 0.09733 2.3389 2.3389 0 0 0 0.02103 0.0885 2.3389 2.3389 0 0 0 0.02713 0.08782 2.3389 2.3389 0 0 0 0.0085 0.0271 2.3389 2.3389 0 0 0 0.0524 0.14651 2.3389 2.3389 0 0 0 0.04836 0.11294 2.3389 2.3389 0 0 0 0.0064 0.017 2.3389 2.3389 0 0 0 0.0085 0.017 2.3389 2.3389 0 0 0 0.06688 0.1248 2.3389 2.3389 0 0 0 0.07655 0.1282 2.3389 2.3389 0 0 0 0.01187 0.017 2.3389 2.3389 0 0 0 0.08784 0.12176 2.3389 2.3389 0 0 0 0.09751 0.11836 2.3389 2.3389 0 0 0 0.02204 0.0237 2.3389 2.3389 0 0 0 0.06044 0.07023 2.3389 2.3389 0 0 0 0.05237 0.04915 2.3389 2.3389 0 0 0 0.07251 0.07023 2.3389 2.3389 0 0 0 0.0701 0.05799 2.3389 2.3389 0 0 0 0.03391 0.0305 2.3389 2.3389 0 0 0 0.09751 0.07325 2.3389 2.3389 0 0 0 0.03052 0.0203 2.3389 2.3389 0 0 0 0.09991 0.06373 2.3389 2.3389 0 0 0 0.06688 0.03633 2.3389 2.3389 0 0 0 0.03714 0.0203 2.3389 2.3389 0 0 0 0.07336 0.03934 2.3389 2.3389 0 0 0 0.13054 0.06042 2.3389 2.3389 0 0 0 0.11843 0.04575 2.3389 2.3389 0 0 0 0.05237 0.017 2.3389 2.3389 0 0 0 0.09754 0.0305 2.3389 2.3389 0 0 0 0.06366 0.017 2.3389 2.3389 0 0 0 0.08217 0.0203 2.3389 2.3389 0 0 0 0.11602 0.0203 2.3389 2.3389 0 0 0 0.15794 0.0203 2.3389 2.3389 0 0 0 0.13458 0.0102 2.3389 2.3389 0 0 0 0.09429 0.0029h12.179v117.5a2.3392 2.3392 0 0 0 2.3392 2.3392h162.53a2.3392 2.3392 0 0 0 2.3384-2.3392v-117.5h12.2a2.3392 2.3392 0 0 0 1.0048-4.4528l-95.796-45.481a2.3392 2.3392 0 0 0-1.0402-0.22724zm0.0388 4.929 85.413 40.553h-170.83zm-78.939 45.88h157.85v114.51h-62.834v-46.949a2.2258 2.2258 0 0 0-2.2264-2.2264h-27.733a2.2258 2.2258 0 0 0-2.2256 2.2264v46.949h-62.835zm14.418 14.518a2.3392 2.3392 0 0 0-2.3392 2.3384v30.007a2.3392 2.3392 0 0 0 2.3392 2.3392h30.004a2.3392 2.3392 0 0 0 2.3384-2.3392v-30.007a2.3392 2.3392 0 0 0-2.3384-2.3384zm49.507 0a2.3392 2.3392 0 0 0-2.3392 2.3384v30.007a2.3392 2.3392 0 0 0 2.3392 2.3392h30.004a2.3392 2.3392 0 0 0 2.3384-2.3392v-30.007a2.3392 2.3392 0 0 0-2.3384-2.3384zm49.507 0a2.3392 2.3392 0 0 0-2.3392 2.3384v30.007a2.3392 2.3392 0 0 0 2.3392 2.3392h30.004a2.3392 2.3392 0 0 0 2.3384-2.3392v-30.007a2.3392 2.3392 0 0 0-2.3384-2.3384zm-96.676 4.6776h25.327v25.329h-25.327zm49.507 0h25.327v25.329h-25.327zm49.507 0h25.327v25.329h-25.327zm-101.35 42.841a2.3392 2.3392 0 0 0-2.3392 2.3384v30.007a2.3392 2.3392 0 0 0 2.3392 2.3392h30.004a2.3392 2.3392 0 0 0 2.3384-2.3392v-30.007a2.3392 2.3392 0 0 0-2.3384-2.3384zm99.015 0a2.3392 2.3392 0 0 0-2.3392 2.3384v30.007a2.3392 2.3392 0 0 0 2.3392 2.3392h30.004a2.3392 2.3392 0 0 0 2.3384-2.3392v-30.007a2.3392 2.3392 0 0 0-2.3384-2.3384zm-96.676 4.6776h25.327v25.329h-25.327zm99.015 0h25.327v25.329h-25.327zm-48.484 3.0733h23.28v44.726h-23.28z" color="#000000" color-rendering="auto" dominant-baseline="auto" image-rendering="auto" shape-rendering="auto" solid-color="#000000" stop-color="#000000" style="font-feature-settings:normal;font-variant-alternates:normal;font-variant-caps:normal;font-variant-east-asian:normal;font-variant-ligatures:normal;font-variant-numeric:normal;font-variant-position:normal;font-variation-settings:normal;inline-size:0;isolation:auto;mix-blend-mode:normal;shape-margin:0;shape-padding:0;text-decoration-color:#000000;text-decoration-line:none;text-decoration-style:solid;text-indent:0;text-orientation:mixed;text-transform:none;white-space:normal"/>
  <path d="m131.05 303.32c-0.67751 0-0.68386 4e-3 -0.44336 0.26953 0.274 0.30273 0.28566 0.29959-0.77344 0.27149-0.491-0.013-0.77344 0.0338-0.77344 0.1289 0 0.18643 0.93088 1.4487 1.3633 1.8477 0.2542 0.23467 0.51562 0.30384 1.2617 0.33594l0.94141 0.041 0.5 0.73828c0.2753 0.40705 0.5039 0.7863 0.5039 0.8418 2e-3 0.0555-0.48242 0.10156-1.0781 0.10156h-1.084l0.49805 0.90821c0.2741 0.49956 0.65244 1.0738 0.83984 1.2773 0.3177 0.34514 0.41479 0.37109 1.4297 0.37109h1.0879l0.63477 1.2774 0.63476 1.2793h-1.209c-0.8794 0-1.209 0.0457-1.209 0.16796 4e-3 0.42393 0.57265 1.926 0.90624 2.3945l0.36915 0.51953 1.2109 0.0391 1.2109 0.041 0.41992 1.4121c0.2306 0.7771 0.45881 1.5797 0.50782 1.7832l0.0879 0.37109h-3.2676l0.0977 1.168c0.0617 0.74124 0.20031 1.3825 0.37891 1.75l0.28125 0.58008h3.1758v0.78711c0 0.4332 0.0379 1.1603 0.0859 1.6152l0.0859 0.82617h-3.8965l-0.15625 1.4473c-0.112 1.033-0.11527 1.5935-0.0137 1.959l0.14258 0.51172 3.6172-0.082v0.4043c-1e-3 0.38339-0.18636 1.7275-0.34766 2.5195l-0.0762 0.36523-4.4648 0.0742-0.51172 1.6152c-0.3779 1.1962-0.48868 1.7453-0.42968 2.1191l0.0801 0.5039h2.1348c1.1747 0 2.1367 0.0185 2.1367 0.041 0 0.10769-0.94806 2.8312-1.2852 3.6934l-0.38086 0.97656-0.8164 4e-3c-0.4488 3e-3 -1.6323 0.0195-2.6309 0.0351l-1.8164 0.0274-0.95703 1.8164c-0.5273 0.99912-1.0008 2.0447-1.0508 2.3223l-0.0918 0.50391h2.5645c1.4095 0 2.5625 0.035 2.5625 0.0781 0 0.0686-1.6779 3.1314-2.3711 4.3281l-0.2539 0.43554-3.0371 2e-3h-3.0371l-1.2695 1.7773c-1.2071 1.692-1.7065 2.5299-1.7285 2.8965-8e-3 0.12534 0.7073 0.17378 2.9375 0.20118l2.9453 0.0371-0.81445 1.1426c-0.4477 0.62907-1.5956 2.1902-2.5508 3.4668l-1.7363 2.3203h-7.0742l-1.8867 2.123c-1.0379 1.1682-2.0173 2.3787-2.1758 2.6894l-0.28906 0.56641 6.9746 0.0703-1.1621 1.3457c-1.9197 2.2226-5.4938 6.2258-7.0098 7.8516-0.7826 0.83929-1.4722 1.6105-1.5312 1.7148-0.0889 0.15676-0.84834 0.19031-4.373 0.19531l-4.2656 6e-3 -2.7109 2.6524c-2.3219 2.2694-3.4102 3.5373-3.4102 3.9746 0 0.049 1.8205 0.0898 4.0469 0.0898 2.382 0 4.0299 0.0509 4.0039 0.12305-0.0431 0.1182-0.65947 0.77597-3.7344 3.9863-0.7827 0.81726-1.8492 1.9383-2.3691 2.4902-4.3442 4.6118-5.5586 5.9062-6.7773 7.2266l-1.3965 1.5137h-5.1972l-5.1953 2e-3 -3.0918 3.1758c-2.5694 2.6395-3.8379 4.1441-3.8379 4.5508 0 0.0376 2.2805 0.0703 5.0684 0.0723 2.7878 2e-3 5.0911 0.0271 5.1191 0.0547 0.0276 0.0276-1.027 1.3498-2.3438 2.9395-4.5561 5.5003-7.8393 9.9231-10.539 14.197l-0.87109 1.3789h-6.2754l-6.2734 2e-3 -1.1426 1.7148c-1.3838 2.0778-2.033 3.1306-3.1504 5.1113-0.8641 1.5318-0.94138 1.8264-0.73438 2.7949l0.08594 0.4043 12.27 0.1328-0.52734 1.4141c-1.1252 3.0197-2.0706 6.9183-2.5293 10.427-0.1994 1.529-0.24128 4.7794-0.08398 6.627l0.10742 1.2461h-15.119l0.08984 0.97461c0.2386 2.5643 0.75489 5.0684 1.5586 7.5625 0.3309 1.0268 0.51138 1.3492 1.1465 2.0586l0.75195 0.8418h15.268l0.6543 1.1777c0.8616 1.5528 2.4916 3.9776 3.6855 5.4824l0.96094 1.2109s2.9622-0.0364 14.059-0.10547c-0.0746-0.0897-0.5373-0.62734-1.0293-1.1953-1.515-1.7489-4.6875-6.1389-4.6875-6.4863 0-0.0461 22.433-0.084 49.854-0.084h49.855l0.50586 0.44531c1.5883 1.4035 4.8291 3.9114 7.6699 5.9336 1.1286 0.80343 2.0527 1.4825 2.0527 1.5098 9.428 0.0602 14.338 0.0488 14.338 0.0488l-1.9375-1.2988c-3.3001-2.2126-9.0222-6.4165-9.0332-6.6367-2e-3 -0.0374 3.3573-0.051 7.4648-0.0312 4.4136 0.0212 7.4668-0.0157 7.4668-0.0879 0-0.15246-1.1595-1.4694-1.6133-1.832-3.024-2.4164-5.7323-4.8334-8.3906-7.4902l-1.998-1.9961h-14.844l-1.1602-1.4473c-4.2212-5.2622-7.2211-10.575-9.3496-16.566-0.3253-0.91548-0.58985-1.6887-0.58985-1.7168 0-0.0282 2.8458-0.0508 6.3242-0.0508h6.3242v-0.76172c0-0.50165-0.15995-1.2538-0.46875-2.209-0.5009-1.5495-1.254-4.3737-1.6211-6.0781l-0.22461-1.043h-12.322l-0.0801-0.30273c-0.0437-0.16652-0.14842-1.6293-0.23242-3.25-0.2066-3.9837 0.0298-8.6293 0.69922-13.746l0.16406-1.2461 5.0039-0.0469c4.0866-0.0375 5.0455-0.0815 5.2344-0.23828 0.48481-0.40258 0.66975-1.0232 0.83985-2.834 0.0939-0.99912 0.23164-2.4499 0.30664-3.2227 0.075-0.77281 0.11584-1.4269 0.0898-1.4531-0.0262-0.0262-2.2958-0.0441-5.043-0.0391-3.2397 6e-3 -4.9961-0.0379-4.9961-0.125 0-0.20274 1.1288-5.4163 1.7344-8.0117 1.2077-5.1767 1.641-6.9744 1.709-7.084 0.0393-0.0635 1.9385-0.11523 4.2207-0.11523h4.1504l0.35743-0.68359c0.3412-0.65251 0.45496-1.2478 1.0723-5.6074l0.0625-0.4375h-4.1641c-2.2897 0-4.1621-0.0508-4.1621-0.11328 0-0.0625 0.17562-0.9846 0.39062-2.0508 0.3789-1.8791 1.0528-5.8518 1.4316-8.4316l0.084-0.57227h6.9609l0.27539-0.62304c0.2384-0.53934 0.27539-0.89955 0.27539-2.6914v-2.0684h-7.0332l0.0859-0.62304c0.048-0.34337 0.0859-1.9166 0.0859-3.4961v-2.873l2.9805-0.0351 2.9805-0.0371 0.17578-0.50781c0.1509-0.43596 0.13916-0.73903-0.0898-2.1524-0.1467-0.90498-0.29985-1.7514-0.33985-1.8809-0.0664-0.21489-0.33058-0.23632-3.0215-0.23632h-2.9492l-0.0645-0.30274c-0.0357-0.16652-0.19121-1.1683-0.34571-2.2266-0.1544-1.0582-0.31447-2.0118-0.35547-2.1191-0.0638-0.16646 0.30203-0.19531 2.4863-0.19531h2.5644l0.084-0.57227c0.0676-0.46046-0.0209-0.87318-0.45313-2.1191-0.2952-0.85111-0.58081-1.6573-0.63281-1.791-0.0818-0.2104-0.25051-0.24096-1.2539-0.22656-0.63809 9e-3 -1.8062 0.0128-2.5957 8e-3l-1.4355-8e-3 -0.43555-1.3125c-0.2396-0.72158-0.60806-1.7358-0.81836-2.2539-0.2103-0.51808-0.38251-0.98747-0.38281-1.043-2e-4 -0.0555 0.93883-0.0996 2.0859-0.0996h2.0859v-0.57813c0-0.46392-0.17603-0.88599-0.89453-2.1504l-0.89258-1.5723-4.4648-0.0742-0.89844-1.5469-0.89648-1.5469 1.7695-0.0684 1.7695-0.0664-0.0469-0.33594c-0.076-0.55936-0.38719-1.0884-1.3711-2.3223l-0.93945-1.1777-3.832-4e-3 -1.2402-1.6113-1.2402-1.6133h1.4746c0.8115 0 1.4766-0.0507 1.4766-0.11328 0-0.34959-0.5858-1.1615-1.5918-2.2051l-1.1387-1.1797h-3.2891l-1.7676-1.7676c-0.9719-0.97189-1.7676-1.7892-1.7676-1.8164s0.48723-0.0488 1.082-0.0488h1.0801l-0.32422-0.47852c-0.3227-0.4749-0.66298-0.78988-2.1465-1.9883l-0.77735-0.6289h-2.5684l-1.166-0.98047c-0.6417-0.53962-1.3394-1.1132-1.5488-1.2734l-0.38086-0.29102 1.0254-0.0391 1.0234-0.041-0.41211-0.44922c-0.2261-0.24709-0.93507-0.80665-1.5762-1.2441l-1.166-0.79493h-1.0976c-1.0574 0-1.1249-0.0201-1.8906-0.5371-0.4371-0.29516-0.97712-0.68591-1.1992-0.86915l-0.40429-0.33398 0.84179-4e-3 0.8418-6e-3 -0.50586-0.45312c-0.2778-0.24945-0.83714-0.65252-1.2441-0.89648-0.4071-0.24397-0.85238-0.53847-0.98828-0.6543-0.1737-0.14822-0.55718-0.21682-1.2969-0.22852-0.82-0.013-1.1554-0.0796-1.5195-0.30468-0.2994-0.18498-0.67854-0.28625-1.0566-0.28126-0.5753 7e-3 -0.58056 0.0127-0.28516 0.21876 0.1665 0.11615 0.30274 0.24842 0.30274 0.29492 1e-4 0.0461-1.1287 0.0709-2.5078 0.0547-2.3499-0.0276-2.5198-0.0466-2.6992-0.30273-0.1499-0.21392-0.33995-0.27344-0.87695-0.27344zm6.2773 2.8242h3.1523l1.0859 0.81836c0.5966 0.44957 1.084 0.84155 1.084 0.87305v2e-3c0 0.0315-1.6493 0.0528-3.666 0.0488l-3.668-8e-3 -0.57031-0.78516c-0.3145-0.4322-0.57227-0.82249-0.57227-0.86719s1.4197-0.082 3.1543-0.082zm4.2207 4.3066h4.4141l0.73243 0.62305c0.4026 0.34312 1.0547 0.91933 1.4492 1.2793l0.71876 0.65429h-5.1914c-2.8553 0-5.1914-0.0515-5.1914-0.11328 0-0.0618-0.30383-0.6095-0.67383-1.2188-0.3701-0.60926-0.67187-1.134-0.67187-1.166 0-0.0321 1.9859-0.0586 4.4141-0.0586zm4.5469 5.6504h6.0332l1.2539 1.3125c0.6896 0.72158 1.4385 1.5389 1.6641 1.8164l0.41015 0.50586h-5.4941c-3.0221 5e-4 -5.888 0.0236-6.3691 0.0508-0.481 0.0267-1.1874 0.0235-1.5684-8e-3l-0.69336-0.0566-0.55664-1.5742c-0.3063-0.866-0.59176-1.681-0.63476-1.8106-0.0735-0.22189 0.26938-0.23633 5.9551-0.23633zm4.207 7.1328h8.0566l1.0059 1.4473c0.5537 0.79559 1.0505 1.5208 1.1035 1.6133 0.0761 0.1338-1.7349 0.16797-8.8613 0.16797-4.926 0-8.9648-0.0147-8.9648-0.0332-0.0408-0.16853-0.37867-2.7808-0.38867-2.9609-6e-3 -0.22168 0.46403-0.23437 8.0488-0.23437zm2.5352 7.0918 10.064 0.0274 0.6914 1.3184c0.3806 0.72514 0.73321 1.4546 0.78321 1.6211l0.0918 0.30273h-21.953l0.0762-1.3789c0.0423-0.75859 0.0999-1.5004 0.12891-1.6484 0.0524-0.26654 0.14918-0.26909 10.117-0.24219zm-11.1 7.5742h24.539l0.56445 1.918c0.3105 1.0546 0.60339 2.1149 0.65039 2.3555l0.0859 0.4375-3.0781 2e-3c-1.693 9e-4 -7.6486 0.0156-13.236 0.0332-5.5876 0.0176-10.296 0.0119-10.463-0.0117-0.1666-0.0236-0.30274-0.0926-0.30274-0.15235 0-0.0598 0.17327-0.67545 0.38477-1.3691 0.2115-0.69368 0.48954-1.6998 0.61914-2.2363zm-3.1172 9.4199h29.834l0.0938 0.87891c0.1664 1.5521 0.31 3.7612 0.25 3.8652-0.0554 0.0965-32.473 0.15109-32.473 0.0547 0-0.0257 0.51558-1.1173 1.1465-2.4238zm-5.1172 9.6895h35.293l-0.0801 1.5801c-0.0446 0.86961-0.18495 2.4434-0.31055 3.498l-0.22851 1.918h-19.637c-10.8 0-19.619-0.0467-19.594-0.10352 0.0247-0.0568 0.45879-0.70651 0.96289-1.4453s1.5175-2.2678 2.2539-3.3965zm-8.7188 12.379h21.178c19.663 0 21.178 0.0167 21.178 0.22461 0 0.59301-2.2392 9.7219-2.627 10.709-0.0876 0.22309-1.3768 0.23437-24.443 0.23437h-24.352l0.38086-0.45117c4.5398-5.4034 7.924-9.5534 8.4688-10.385zm11.383 17.898c24.97-2e-3 26.279 0.0106 26.209 0.23437-1.7147 5.507-4.5215 14.849-4.5215 15.053 0 0.0285-13.784 0.0527-30.633 0.0527-29.161 0-30.624-0.0122-30.434-0.23633 3.3768-3.9794 5.5046-6.4383 11.48-13.258l1.6152-1.8418zm-13.133 23.127c17.997 0.0127 32.743 0.0454 32.77 0.0723 0.0269 0.0269-0.13854 1.0099-0.36914 2.1836-0.86 4.3774-1.2934 7.8444-1.4922 11.949-0.076 1.5583-0.0988 3.1819-0.0508 3.6074l0.08791 0.77341h-76.33l0.22266-0.4375c1.1064-2.1737 4.4197-7.4498 6.4414-10.26 0.2663-0.37004 0.64349-0.9149 0.83789-1.2109 0.5491-0.83622 4.7236-6.3372 4.9551-6.5293 0.1658-0.13767 6.6185-0.16684 32.928-0.14844zm-15.781 28.65c7.4339 0 15.543 9e-3 22.533 0.0273l25.418 0.0664 0.32031 1.2129c1.61 6.1192 4.7551 12.489 8.7539 17.729l0.58984 0.77344h-46.625c-44.288 0-46.628-0.0126-46.695-0.23633-0.0388-0.12951-0.17845-0.9321-0.31055-1.7832-0.3647-2.3537-0.32478-7.4698 0.07813-10.08 0.2788-1.8064 1.2302-5.8461 1.668-7.0762l0.19336-0.53907 15.594-0.0664c4.2888-0.0185 11.049-0.0273 18.482-0.0273z" stroke-width=".13456"/>
  <path d="m671.44 307.94c-1.2846 0-2.3183 1.0336-2.3183 2.3183v66.802h-66.802c-1.2846 0-2.3183 1.0337-2.3183 2.3183v27.123c0 1.2846 1.0336 2.3183 2.3183 2.3183h66.802v66.8c0 1.2846 1.0336 2.3196 2.3183 2.3196h27.123c1.2846 0 2.3183-1.035 2.3183-2.3196v-66.8h66.8c1.2846 0 2.3196-1.0336 2.3196-2.3183v-27.123c0-1.2846-1.035-2.3183-2.3196-2.3183h-66.8v-66.802c0-1.2846-1.0337-2.3183-2.3183-2.3183z" stop-color="#000000" stroke-width="23.142"/>
</svg>
