<svg version="1.1" viewBox="0 0 530 250" xmlns="http://www.w3.org/2000/svg">
  <g>
    <path id="stairs" d="m300.22-1.8823e-6h209.56c11.202 0 20.22 9.0179 20.22 20.22v209.56c0 11.202-9.0179 20.22-20.22 20.22h-209.56c-11.202 0-20.22-9.0179-20.22-20.22v-209.56c0-11.202 9.0179-20.22 20.22-20.22z" fill="#fff" stop-color="#000000"/>
    <path id="wall" d="m20.22-1.8823e-6h209.56c11.202 0 20.22 9.0179 20.22 20.22v209.56c0 11.202-9.0179 20.22-20.22 20.22h-209.56c-11.202 0-20.22-9.0179-20.22-20.22v-209.56c0-11.202 9.0179-20.22 20.22-20.22z" fill="#fff" stop-color="#000000"/>
    <path d="m37.746 55.122c-0.10222 0-0.20794 0.0082-0.31643 0.02646l-12.43 2.0877v12.094l12.43-1.6167c0.86792-0.1129 1.5699-0.79041 1.5699-1.5185v-9.9962c0-0.63706-0.53764-1.0751-1.2535-1.077zm1.2535 13.959-12.546 1.5726c-0.8073 0.1012-1.4541 0.74389-1.4541 1.4414v9.5762c0 0.69751 0.64676 1.2025 1.4541 1.1319l12.546-1.0978zm-1.4092 14.318c-0.05289-9e-5 -0.10644 2e-3 -0.16071 7e-3l-12.43 1.0291v12.095l12.43-0.55846c0.86792-0.039 1.5699-0.65694 1.5699-1.385v-9.9958c0-0.68258-0.61691-1.1895-1.4092-1.1909zm1.4092 14.073-12.546 0.50438c-0.8073 0.0325-1.4541 0.62002-1.4541 1.3175v9.5758c0 0.6975 0.64676 1.2581 1.4541 1.2561l12.546-0.0296zm-14 14.162v12.094l12.43 0.50017c0.86792 0.0349 1.5699-0.52308 1.5699-1.2512v-9.9962c0-0.72808-0.70197-1.3158-1.5699-1.3179zm1.3045 13.665c-0.73624 0.0312-1.3045 0.54046-1.3045 1.1944v9.5762c0 0.6975 0.64676 1.3124 1.4541 1.3793l12.546 1.0387v-12.624l-12.546-0.56382c-0.05044-2e-3 -0.10056-2e-3 -0.14959 0zm-1.3045 13.535v12.094l12.43 1.5584c0.86792 0.10878 1.5699-0.3892 1.5699-1.1173v-9.9962c0-0.72808-0.70197-1.3758-1.5699-1.4518zm1.1599 13.776c-0.66462 0.0306-1.1599 0.47247-1.1599 1.0828v9.5766c0 0.69752 0.64676 1.3672 1.4541 1.5028l12.546 2.1073v-12.624l-12.546-1.632c-0.10089-0.0131-0.19924-0.0174-0.29419-0.013zm27.706 0.013c0.8073-0.105 1.4541 0.37221 1.4541 1.0697v9.5765c0 0.69752-0.64679 1.3675-1.4541 1.5031l-12.546 2.1069v-12.624l12.546-1.6319zm0-27.323c0.8073-0.0363 1.4541 0.49639 1.4541 1.1939v9.5762c0 0.6975-0.64679 1.3124-1.4541 1.3792l-12.546 1.0387v-12.624l12.546-0.56367zm0-27.323c0.8073 0.0324 1.4541 0.61985 1.4541 1.3174v9.5762c0 0.6975-0.64679 1.2577-1.4541 1.2558l-12.546-0.0296v-12.624l12.546 0.50454zm0-27.323c0.8073 0.10121 1.4541 0.74367 1.4541 1.4412v9.5765c0 0.69753-0.64679 1.2023-1.4541 1.1317l-12.546-1.0978v-12.624s12.546 1.5728 12.546 1.5728zm168.46 53.566c-0.18285 0.0161-0.33032 0.29738-0.33032 0.63093v4.5797c0 0.33357 0.14747 0.58355 0.33032 0.56062 0 0 2.6766-0.33555 2.6766-0.33555v-5.6699l-2.6766 0.2342zm0-12.979c-0.18285 0-0.33032 0.26942-0.33032 0.60296v4.5795c0 0.33358 0.14747 0.59612 0.33032 0.58876l2.6766-0.10767v-5.6699s-2.6766 6e-3 -2.6766 6e-3zm0-12.979c-0.18285-0.0151-0.33032 0.24111-0.33032 0.57468v4.5795c0 0.33355 0.14747 0.60882 0.33032 0.61705l2.6766 0.12025v-5.6699l-2.6766-0.22161zm0-12.979c-0.18285-0.0308-0.33032 0.21296-0.33032 0.54654v4.5797c0 0.33357 0.14747 0.62121 0.33032 0.64499 0 0 2.6766 0.34817 2.6766 0.34817v-5.6699l-2.6766-0.44949zm-3.4984 45.881s5.8561-0.76175 5.8561-0.76175c0.17679-0.023 0.31884 0.22178 0.31884 0.54877v4.4895c0 0.32699-0.14205 0.6141-0.31884 0.64379 0 0-5.8561 0.98347-5.8561 0.98347-0.19132 0.0321-0.34572-0.21666-0.34572-0.5579v-4.6849c0-0.34124 0.1544-0.63603 0.34572-0.66093zm-7.5342 0.98003s6.424-0.83563 6.424-0.83563c0.19359-0.0251 0.3491 0.23003 0.3491 0.57219v4.6974c0 0.34215-0.15551 0.64372-0.3491 0.67624l-6.424 1.0788c-0.21029 0.0353-0.37997-0.22421-0.37997-0.58198v-4.9118c0-0.35776 0.16968-0.66785 0.37997-0.69521zm3.8405-7.2952 6.1314-0.53651c0.18496-0.0161 0.33353 0.24005 0.33353 0.5745v4.5915c0 0.33444-0.14857 0.62229-0.33353 0.64548 0 0-6.1314 0.76866-6.1314 0.76866-0.20052 0.0252-0.36232-0.23582-0.36232-0.58516v-4.7961c0-0.34935 0.1618-0.64475 0.36232-0.6623zm-7.9044 0.69167 6.7408-0.58985c0.20293-0.0177 0.36593 0.24998 0.36593 0.60028v4.8092c0 0.35032-0.163 0.65276-0.36593 0.67818 0 0-6.7408 0.84507-6.7408 0.84507-0.22088 0.0277-0.39914-0.24516-0.39914-0.61185v-5.0342c0-0.36667 0.17826-0.67746 0.39914-0.69679zm-4.2353 7.6831 7.0788-0.92078c0.2129-0.0277 0.38389 0.2389 0.38389 0.59764v4.9255c0 0.35875-0.17099 0.67629-0.38389 0.71206l-7.0788 1.1888c-0.23222 0.039-0.4196-0.23222-0.4196-0.60819v-5.1618c0-0.37596 0.18738-0.70302 0.4196-0.73324zm-9.187 1.195 7.839-1.0197c0.23522-0.0306 0.42412 0.2484 0.42412 0.62547v5.1769c0 0.37707-0.1889 0.71237-0.42412 0.75185l-7.839 1.3165c-0.25772 0.0432-0.46574-0.24071-0.46574-0.63684v-5.4386c0-0.39613 0.20802-0.7421 0.46574-0.77562zm4.6943-8.1144 7.4459-0.65156c0.22368-0.0197 0.40333 0.26076 0.40333 0.62848v5.0486c0 0.36772-0.17965 0.68629-0.40333 0.71433 0 0-7.4459 0.93345-7.4459 0.93345-0.24452 0.0307-0.44187-0.25521-0.44187-0.64105v-5.2972c0-0.38584 0.19735-0.71372 0.44187-0.73511zm-9.6874 0.84767 8.2677-0.72344c0.24777-0.0217 0.44674 0.27246 0.44674 0.65944v5.3131c0 0.38699-0.19897 0.72348-0.44674 0.75455l-8.2677 1.0365c-0.27215 0.0341-0.49184-0.26608-0.49184-0.67317v-5.5891c0-0.40708 0.21969-0.75403 0.49184-0.77786zm30.013-9.2647 5.8561-0.26313c0.17679-8e-3 0.31884 0.24893 0.31884 0.57595v4.4894c0 0.327-0.14205 0.60201-0.31884 0.61666l-5.8561 0.48482c-0.19132 0.0159-0.34572-0.24608-0.34572-0.58731v-4.6849c0-0.34122 0.1544-0.62287 0.34572-0.63147zm-7.5342 0.3385 6.424-0.28864c0.19359-9e-3 0.3491 0.25977 0.3491 0.6019v4.6974c0 0.34216-0.15551 0.63048-0.3491 0.64651l-6.424 0.53183c-0.21029 0.0174-0.37997-0.25655-0.37997-0.61432v-4.9118c0-0.35776 0.16968-0.65342 0.37997-0.66286zm3.8405-6.9682 6.1314-0.0145c0.18496 0 0.33353 0.26845 0.33353 0.60288v4.5915c0 0.33444-0.14857 0.60966-0.33353 0.61708l-6.1314 0.2466c-0.20052 8e-3 -0.36232-0.26667-0.36232-0.61601v-4.7961c0-0.34936 0.1618-0.63097 0.36232-0.63145zm-7.9044 0.0187 6.7408-0.0159c0.20293 0 0.36593 0.28114 0.36593 0.63144v4.8092c0 0.35028-0.163 0.63885-0.36593 0.64701l-6.7408 0.27112c-0.22088 9e-3 -0.39914-0.27916-0.39914-0.64585v-5.0342c0-0.36668 0.17826-0.66229 0.39914-0.66282zm-4.2353 7.3225 7.0788-0.31805c0.2129-0.01 0.38389 0.27156 0.38389 0.63033v4.9255c0 0.35874-0.17099 0.66172-0.38389 0.67935l-7.0788 0.58606c-0.23222 0.0192-0.4196-0.26795-0.4196-0.64391v-5.1618c0-0.37597 0.18738-0.68708 0.4196-0.6975zm-9.187 0.41276 7.839-0.35221c0.23522-0.0111 0.42412 0.28453 0.42412 0.66159v5.1769c0 0.37707-0.1889 0.69629-0.42412 0.71575l-7.839 0.64902c-0.25772 0.0213-0.46574-0.28036-0.46574-0.67649v-5.4386c0-0.39612 0.20802-0.72439 0.46574-0.73596zm4.6943-7.7147 7.4459-0.0174c0.22368 0 0.40333 0.29508 0.40333 0.66282v5.0486c0 0.36773-0.17965 0.67099-0.40333 0.67998l-7.4459 0.29947c-0.24452 0.01-0.44187-0.29285-0.44187-0.67868v-5.2972c0-0.38583 0.19735-0.69692 0.44187-0.69749zm-9.6874 0.0228 8.2677-0.0194c0.24777 0 0.44674 0.3105 0.44674 0.69749v5.3131c0 0.38697-0.19897 0.70653-0.44674 0.71651l-8.2677 0.33251c-0.27215 0.0111-0.49184-0.30797-0.49184-0.71507v-5.589c0-0.4071 0.21969-0.73535 0.49184-0.736zm30.013-6.7091 5.8561 0.23552c0.17679 8e-3 0.31884 0.27607 0.31884 0.60309v4.4894c0 0.327-0.14205 0.58991-0.31884 0.5895l-5.8561-0.0138c-0.19132 0-0.34572-0.27553-0.34572-0.61676v-4.6849c0-0.34124 0.1544-0.60975 0.34572-0.60205zm-7.5342-0.30301 6.424 0.25838c0.19359 8e-3 0.3491 0.28949 0.3491 0.63162v4.6974c0 0.34213-0.15551 0.61722-0.3491 0.61676l-6.424-0.0151c-0.21029 0-0.37997-0.28893-0.37997-0.64668v-4.9118c0-0.35776 0.16968-0.63896 0.37997-0.6305zm3.8405-6.6412 6.1314 0.50762c0.18496 0.0153 0.33353 0.29686 0.33353 0.63129v4.5915c0 0.33443-0.14857 0.597-0.33353 0.58868l-6.1314-0.27547c-0.20052-9e-3 -0.36232-0.29753-0.36232-0.64686v-4.7962c0-0.34933 0.1618-0.61717 0.36232-0.60056zm-7.9044-0.65441 6.7408 0.55806c0.20293 0.0167 0.36593 0.3123 0.36593 0.66261v4.8092c0 0.3503-0.163 0.62498-0.36593 0.61587l-6.7408-0.30288c-0.22088-0.01-0.39914-0.31313-0.39914-0.67981v-5.0342c0-0.36668 0.17826-0.64713 0.39914-0.62882zm-4.2353 6.9619 7.0788 0.28469c0.2129 9e-3 0.38389 0.30426 0.38389 0.66302v4.9255c0 0.35877-0.17099 0.6472-0.38389 0.64669l-7.0788-0.0167c-0.23222 0-0.4196-0.30366-0.4196-0.67963v-5.1618c0-0.37597 0.18738-0.67111 0.4196-0.66177zm-9.187-0.36949 7.839 0.31527c0.23522 9e-3 0.42412 0.32063 0.42412 0.6977v5.1769c0 0.37707-0.1889 0.6802-0.42412 0.67964l-7.839-0.0185c-0.25772 0-0.46574-0.32-0.46574-0.71614v-5.4386c0-0.39613 0.20802-0.70666 0.46574-0.69632zm4.6943-7.315 7.4459 0.61648c0.22368 0.0185 0.40333 0.32942 0.40333 0.69715v5.0486c0 0.36772-0.17965 0.65569-0.40333 0.64563l-7.4459-0.33453c-0.24452-0.0111-0.44187-0.33047-0.44187-0.71631v-5.2972c0-0.38585 0.19735-0.68013 0.44187-0.65988zm-9.6874-0.80204 8.2677 0.68451c0.24777 0.0204 0.44674 0.34853 0.44674 0.73552v5.3131c0 0.38701-0.19897 0.68961-0.44674 0.67848l-8.2677-0.37146c-0.27215-0.0121-0.49184-0.34983-0.49184-0.75693v-5.5891c0-0.4071 0.21969-0.71663 0.49184-0.69411zm30.013-4.1536s5.8561 0.73417 5.8561 0.73417c0.17679 0.0222 0.31884 0.30323 0.31884 0.63022v4.4894c0 0.32701-0.14205 0.57782-0.31884 0.56235l-5.8561-0.51243c-0.19132-0.0167-0.34572-0.30497-0.34572-0.64621v-4.6849c0-0.34124 0.1544-0.5966 0.34572-0.57263zm-7.5342-0.94451s6.424 0.80536 6.424 0.80536c0.19359 0.0242 0.3491 0.31919 0.3491 0.66134v4.6974c0 0.34213-0.15551 0.60397-0.3491 0.58705l-6.424-0.56215c-0.21029-0.0184-0.37997-0.32125-0.37997-0.67902v-4.9118c0-0.35775 0.16968-0.62451 0.37997-0.59814zm3.8405-6.3142 6.1314 1.0297c0.18496 0.0311 0.33353 0.32525 0.33353 0.65969v4.5915c0 0.33441-0.14857 0.58432-0.33353 0.56027 0 0-6.1314-0.79756-6.1314-0.79756-0.20052-0.026-0.36232-0.32837-0.36232-0.67771v-4.7961c0-0.34935 0.1618-0.6034 0.36232-0.56975zm-7.9044-1.3274 6.7408 1.132c0.20293 0.0341 0.36593 0.34345 0.36593 0.69376v4.8092c0 0.35029-0.163 0.6111-0.36593 0.58469 0 0-6.7408-0.87685-6.7408-0.87685-0.22088-0.0287-0.39914-0.3471-0.39914-0.71378v-5.0342c0-0.36668 0.17826-0.63195 0.39914-0.59485zm-4.2353 6.6012 7.0788 0.88744c0.2129 0.0268 0.38389 0.33696 0.38389 0.69573v4.9255c0 0.35877-0.17099 0.63263-0.38389 0.61399l-7.0788-0.61941c-0.23222-0.0203-0.4196-0.3394-0.4196-0.71536v-5.1618c0-0.37599 0.18738-0.65517 0.4196-0.62607zm-9.187-1.1517s7.839 0.98274 7.839 0.98274c0.23522 0.0294 0.42412 0.35672 0.42412 0.73379v5.1769c0 0.37707-0.1889 0.6641-0.42412 0.64353l-7.839-0.68595c-0.25772-0.0226-0.46574-0.35966-0.46574-0.75581v-5.4386c0-0.39614 0.20802-0.68896 0.46574-0.65665zm4.6943-6.9153 7.4459 1.2505c0.22368 0.0375 0.40333 0.36377 0.40333 0.7315v5.0486c0 0.36772-0.17965 0.6404-0.40333 0.6113 0 0-7.4459-0.96856-7.4459-0.96856-0.24452-0.0318-0.44187-0.36808-0.44187-0.75392v-5.2971c0-0.38583 0.19735-0.66332 0.44187-0.62226zm-9.6874-1.6269 8.2677 1.3885c0.24777 0.0416 0.44674 0.38657 0.44674 0.77356v5.3131c0 0.38699-0.19897 0.67266-0.44674 0.64043l-8.2677-1.0754c-0.27215-0.0354-0.49184-0.3917-0.49184-0.7988v-5.5891c0-0.4071 0.21969-0.69794 0.49184-0.65222zm-5.2322 56.094 8.7286-1.1354c0.26125-0.034 0.47103 0.25861 0.47103 0.65599v5.4554c0 0.39736-0.20978 0.75247-0.47103 0.79636l-8.7286 1.4659c-0.2877 0.0483-0.51994-0.24968-0.51994-0.66825v-5.7468c0-0.41859 0.23224-0.78578 0.51994-0.82321zm-11.45 1.4894 9.7788-1.272c0.29186-0.038 0.5262 0.26965 0.5262 0.68959v5.7655c0 0.41994-0.23434 0.79739-0.5262 0.8464l-9.7788 1.6422c-0.32322 0.0542-0.58418-0.25912-0.58418-0.70284v-6.092c0-0.44372 0.26096-0.83489 0.58418-0.87693zm5.8681-9.1399 9.2335-0.80797c0.27599-0.0241 0.49758 0.28523 0.49758 0.69361v5.6068c0 0.40839-0.22159 0.76493-0.49758 0.79953l-9.2335 1.1576c-0.30477 0.0382-0.5508-0.2778-0.5508-0.70863v-5.915c0-0.43084 0.24603-0.79921 0.5508-0.82587zm-12.15 1.0631 10.379-0.90819c0.30931-0.0271 0.55762 0.29921 0.55762 0.7315v5.9349c0 0.43229-0.24831 0.81144-0.55762 0.85021l-10.379 1.3012c-0.3436 0.043-0.62103-0.29049-0.62103-0.74801v-6.2814c0-0.45752 0.27743-0.85012 0.62103-0.88019zm-6.6274 9.756 11.031-1.4348c0.3282-0.0427 0.59164 0.28149 0.59164 0.72675v6.113c0 0.44526-0.26344 0.84795-0.59164 0.90307l-11.031 1.8525c-0.36574 0.0614-0.66111-0.26903-0.66111-0.7411v-6.4813c0-0.47208 0.29537-0.89055 0.66111-0.93812zm-14.666 1.9077 12.539-1.6311c0.37174-0.0483 0.67009 0.29428 0.67009 0.76811v6.5051c0 0.4738-0.29835 0.90536-0.67009 0.9678l-12.539 2.1058c-0.41726 0.0701-0.75428-0.27933-0.75428-0.78363v-6.9238c0-0.50431 0.33702-0.95413 0.75428-1.0084zm7.5442-10.461 11.752-1.0283c0.34903-0.0306 0.6292 0.3146 0.6292 0.77373v6.3038c0 0.45916-0.28017 0.86393-0.6292 0.90769l-11.752 1.4733c-0.39035 0.0489-0.70559-0.30419-0.70559-0.79193v-6.6961c0-0.48772 0.31524-0.90795 0.70559-0.94211zm-15.686 1.3726 13.416-1.174c0.39695-0.0347 0.7155 0.33155 0.7155 0.82113v6.7216c0 0.48957-0.31855 0.92365-0.7155 0.97342l-13.416 1.6819c-0.44734 0.0561-0.80869-0.31902-0.80869-0.84123v-7.1695c0-0.52219 0.36135-0.97422 0.80869-1.0134zm47.168-12.266 8.7286-0.39218c0.26125-0.0118 0.47103 0.29873 0.47103 0.69608v5.4554c0 0.39735-0.20978 0.73463-0.47103 0.75625l-8.7286 0.72265c-0.2877 0.0238-0.51994-0.29393-0.51994-0.7125v-5.7468c0-0.41856 0.23224-0.76597 0.51994-0.7789zm-11.45 0.51444 9.7788-0.43936c0.29186-0.0131 0.5262 0.31445 0.5262 0.73438v5.7655c0 0.41995-0.23434 0.77744-0.5262 0.80159l-9.7788 0.80959c-0.32322 0.0268-0.58418-0.30884-0.58418-0.75257v-6.092c0-0.44372 0.26096-0.81269 0.58418-0.8272zm5.8681-8.6403 9.2335-0.0218c0.27599 0 0.49758 0.32763 0.49758 0.73599v5.6068c0 0.40839-0.22159 0.74609-0.49758 0.75718l-9.2335 0.37136c-0.30477 0.0122-0.5508-0.32469-0.5508-0.75554v-5.915c0-0.43084 0.24603-0.77826 0.5508-0.77898zm-12.15 0.0287 10.379-0.0245c0.30931 0 0.55762 0.34669 0.55762 0.77898v5.9349c0 0.43229-0.24831 0.79029-0.55762 0.80273l-10.379 0.41742c-0.3436 0.0138-0.62103-0.34335-0.62103-0.80088v-6.2814c0-0.45751 0.27743-0.82651 0.62103-0.82731zm-6.6274 9.1916 11.031-0.49559c0.3282-0.0147 0.59164 0.33187 0.59164 0.77715v6.113c0 0.44525-0.26344 0.82552-0.59164 0.8527l-11.031 0.91323c-0.36574 0.0303-0.66111-0.32531-0.66111-0.79739v-6.4813c0-0.47208 0.29537-0.8654 0.66111-0.88185zm-14.666 0.65894 12.539-0.56338c0.37174-0.0167 0.67009 0.35134 0.67009 0.82518v6.5051c0 0.47381-0.29835 0.87996-0.67009 0.91073l-12.539 1.0382c-0.41726 0.0345-0.75428-0.34357-0.75428-0.84787v-6.9237c0-0.5043 0.33702-0.92545 0.75428-0.9442zm7.5442-9.8182 11.752-0.0277c0.34903 0 0.6292 0.36816 0.6292 0.82731v6.3038c0 0.45916-0.28017 0.84008-0.6292 0.8541l-11.752 0.47262c-0.39035 0.0157-0.70559-0.36426-0.70559-0.85199v-6.6961c0-0.48773 0.31524-0.88112 0.70559-0.88204zm-15.686 0.037 13.416-0.0317c0.39695 0 0.7155 0.39244 0.7155 0.88204v6.7216c0 0.48958-0.31855 0.89653-0.7155 0.9125 0 0-13.416 0.53956-13.416 0.53956-0.44734 0.0179-0.80869-0.38787-0.80869-0.91009v-7.1694c0-0.52222 0.36135-0.94347 0.80869-0.94453zm47.168-8.2501 8.7286 0.35105c0.26125 0.0111 0.47103 0.33884 0.47103 0.73619v5.4554c0 0.39736-0.20978 0.71677-0.47103 0.71614l-8.7286-0.0206c-0.2877 0-0.51994-0.3382-0.51994-0.75677v-5.7468c0-0.41859 0.23224-0.74623 0.51994-0.73466zm-11.45-0.46051 9.7788 0.39329c0.29186 0.0118 0.5262 0.35924 0.5262 0.77917v5.7655c0 0.41994-0.23434 0.75748-0.5262 0.75678l-9.7788-0.023c-0.32322 0-0.58418-0.35862-0.58418-0.80232v-6.092c0-0.4437 0.26096-0.79043 0.58418-0.77744zm5.8681-8.1406 9.2335 0.76446c0.27599 0.0229 0.49758 0.36997 0.49758 0.77834v5.6068c0 0.40839-0.22159 0.72719-0.49758 0.7148l-9.2335-0.41486c-0.30477-0.0138-0.5508-0.37161-0.5508-0.80244v-5.915c0-0.43085 0.24603-0.75733 0.5508-0.73209zm-12.15-1.0059 10.379 0.8593c0.30931 0.0256 0.55762 0.39418 0.55762 0.82647v5.9349c0 0.43228-0.24831 0.76915-0.55762 0.75525l-10.379-0.46633c-0.3436-0.0156-0.62103-0.39624-0.62103-0.85376v-6.2814c0-0.45752 0.27743-0.80288 0.62103-0.77445zm-6.6274 8.6274 11.031 0.44362c0.3282 0.0131 0.59164 0.38226 0.59164 0.82751v6.113c0 0.44526-0.26344 0.8031-0.59164 0.80233l-11.031-0.026c-0.36574 0-0.66111-0.38161-0.66111-0.85369v-6.4813c0-0.47207 0.29537-0.84025 0.66111-0.82554zm-14.666-0.58984 12.539 0.5043c0.37174 0.0149 0.67009 0.40839 0.67009 0.8822v6.5051c0 0.47383-0.29835 0.85457-0.67009 0.85369l-12.539-0.0296c-0.41726 0-0.75428-0.40779-0.75428-0.91209v-6.9237c0-0.5043 0.33702-0.89674 0.75428-0.87996zm7.5442-9.1758 11.752 0.97295c0.34903 0.0289 0.6292 0.42174 0.6292 0.8809v6.3038c0 0.45915-0.28017 0.8162-0.6292 0.80052l-11.752-0.528c-0.39035-0.0175-0.70559-0.42437-0.70559-0.91209v-6.6961c0-0.48773 0.31524-0.8543 0.70559-0.82197zm-15.686-1.2987 13.416 1.1108c0.39695 0.0329 0.7155 0.45337 0.7155 0.94295v6.7216c0 0.48958-0.31855 0.86942-0.7155 0.85157l-13.416-0.60277c-0.44734-0.0201-0.80869-0.45674-0.80869-0.97896v-7.1695c0-0.52219 0.36135-0.9127 0.80869-0.87566zm47.168-4.2339 8.7286 1.0943c0.26125 0.0328 0.47103 0.37896 0.47103 0.77631v5.4554c0 0.39736-0.20978 0.6989-0.47103 0.67605l-8.7286-0.76379c-0.2877-0.0252-0.51994-0.38249-0.51994-0.80107v-5.7468c0-0.41859 0.23224-0.72645 0.51994-0.69038zm-11.45-1.4354 9.7788 1.2259c0.29186 0.0366 0.5262 0.40405 0.5262 0.82399v5.7655c0 0.41994-0.23434 0.73753-0.5262 0.71198l-9.7788-0.85569c-0.32322-0.0283-0.58418-0.40833-0.58418-0.85205v-6.092c0-0.44372 0.26096-0.76822 0.58418-0.7277zm5.8681-7.641 9.2335 1.5507c0.27599 0.04639 0.49758 0.41234 0.49758 0.82071v5.6068c0 0.40839-0.22159 0.70833-0.49758 0.67243l-9.2335-1.2011c-0.30477-0.0397-0.5508-0.4185-0.5508-0.84935v-5.915c0-0.43084 0.24603-0.73637 0.5508-0.68519zm-12.15-2.0405 10.379 1.743c0.30931 0.05197 0.55762 0.44166 0.55762 0.87395v5.9349c0 0.4323-0.24831 0.74801-0.55762 0.70778l-10.379-1.3501c-0.3436-0.0447-0.62103-0.44912-0.62103-0.90662v-6.2814c0-0.45751 0.27743-0.77926 0.62103-0.72154zm-6.6274 8.063s11.031 1.3828 11.031 1.3828c0.3282 0.0411 0.59164 0.43266 0.59164 0.8779v6.113c0 0.44525-0.26344 0.78065-0.59164 0.75194l-11.031-0.96523c-0.36574-0.032-0.66111-0.43789-0.66111-0.90997v-6.4813c0-0.47207 0.29537-0.81511 0.66111-0.76925zm-14.666-1.8386 12.539 1.572c0.37174 0.0465 0.67009 0.46543 0.67009 0.93926v6.5051c0 0.47381-0.29835 0.82915-0.67009 0.79662l-12.539-1.0972c-0.41726-0.0366-0.75428-0.472-0.75428-0.9763v-6.9238c0-0.5043 0.33702-0.86806 0.75428-0.81574zm7.5442-8.5335 11.752 1.9736c0.34903 0.05863 0.6292 0.4753 0.6292 0.93446v6.3038c0 0.45916-0.28017 0.79236-0.6292 0.74695l-11.752-1.5286c-0.39035-0.0508-0.70559-0.48443-0.70559-0.97216v-6.6961c0-0.48773 0.31524-0.82743 0.70559-0.76188zm-15.686-2.6344 13.416 2.2531c0.39695 0.06665 0.7155 0.5143 0.7155 1.0039v6.7216c0 0.48959-0.31855 0.84229-0.7155 0.79066l-13.416-1.7451c-0.44734-0.05821-0.80869-0.52561-0.80869-1.0478v-7.1695c0-0.5222 0.36135-0.8819 0.80869-0.80679zm-8.6654 72.157 14.38-1.8705c0.42458-0.0552 0.76524 0.30804 0.76524 0.81433v6.951c0 0.50629-0.34066 0.97112-0.76524 1.0424l-14.38 2.4149c-0.4805 0.0807-0.86867-0.28986-0.86867-0.8311v-7.4311c0-0.54126 0.38817-1.0275 0.86867-1.09zm-19.455 2.5307 16.658-2.1668c0.48951-0.0637 0.88222 0.32282 0.88222 0.86637v7.4624c0 0.54354-0.39271 1.0471-0.88222 1.1293 0 0-16.658 2.7975-16.658 2.7975-0.55925 0.0939-1.0112-0.30038-1.0112-0.88444v-8.0186c0-0.58406 0.45194-1.113 1.0112-1.1858zm10.056-12.224 15.461-1.3529c0.45546-0.0399 0.82087 0.3503 0.82087 0.87464v7.1987c0 0.52433-0.36541 0.99227-0.82087 1.0494l-15.461 1.9382c-0.51778 0.065-0.93616-0.33503-0.93616-0.89696v-7.7148c0-0.56192 0.41838-1.0509 0.93616-1.0962zm-21.027 1.8399 18.011-1.5761c0.52789-0.0462 0.95133 0.37111 0.95133 0.93551v7.7486c0 0.5644-0.42344 1.0718-0.95133 1.138 0 0-18.011 2.258-18.011 2.258-0.60631 0.076-1.0963-0.35219-1.0963-0.96038v-8.35c0-0.60819 0.49003-1.1407 1.0963-1.1938zm-11.811 13.348 19.524-2.5396c0.5706-0.0742 1.0282 0.33857 1.0282 0.92527v8.0551c0 0.58673-0.45761 1.1359-1.0282 1.2317l-19.524 3.2788c-0.65909 0.11067-1.1919-0.3104-1.1919-0.94459v-8.707c0-0.63419 0.53279-1.2141 1.1919-1.2998zm-27.042 3.5176 23.199-3.0176c0.67362-0.0876 1.2137 0.35522 1.2137 0.99253v8.7501c0 0.63733-0.54007 1.2411-1.2137 1.3542 0 0-23.199 3.896-23.199 3.896-0.78826 0.13237-1.4257-0.31908-1.4257-1.0128v-9.5247c0-0.69374 0.63744-1.3352 1.4257-1.4377zm14.07-14.697 21.25-1.8594c0.61912-0.0542 1.1156 0.39434 1.1156 1.0054v8.3896c0 0.61108-0.49645 1.1653-1.1156 1.2429l-21.25 2.664c-0.7196 0.0902-1.3014-0.3704-1.3014-1.0332v-9.0992c0-0.66277 0.58182-1.2472 1.3014-1.3102zm-29.646 2.5942 25.448-2.2268c0.7362-0.0644 1.3263 0.42027 1.3263 1.0864v9.1463c0 0.66617-0.59013 1.2765-1.3263 1.3688l-25.448 3.1904c-0.86791 0.10878-1.5699-0.38935-1.5699-1.1174v-9.996c0-0.72808 0.70202-1.3757 1.5699-1.4516zm84.856-17.941 14.38-0.64609c0.42458-0.019 0.76524 0.37323 0.76524 0.87952v6.951c0 0.50629-0.34066 0.94208-0.76524 0.97722l-14.38 1.1906c-0.4805 0.0398-0.86867-0.36383-0.86867-0.90508v-7.431c0-0.54127 0.38817-0.99446 0.86867-1.016zm-19.455 0.87411 16.658-0.74842c0.48951-0.022 0.88222 0.39795 0.88222 0.94148v7.4624c0 0.54355-0.39271 1.0136-0.88222 1.0542l-16.658 1.3791c-0.55925 0.0463-1.0112-0.38649-1.0112-0.97053v-8.0186c0-0.58405 0.45194-1.0746 1.0112-1.0997zm10.056-11.368 15.461-0.0365c0.45546 0 0.82087 0.42019 0.82087 0.94454v7.1986c0 0.52434-0.36541 0.96116-0.82087 0.97947 0 0-15.461 0.62179-15.461 0.62179-0.51778 0.0209-0.93616-0.41474-0.93616-0.97666v-7.7148c0-0.56195 0.41838-1.0153 0.93616-1.0165zm-21.027 0.0496 18.011-0.0424c0.5279-2e-3 0.95133 0.45212 0.95133 1.0165v7.7487c0 0.5644-0.42343 1.0358-0.95133 1.057l-18.011 0.72437c-0.60631 0.0243-1.0963-0.44554-1.0963-1.0538v-8.35c0-0.60819 0.49003-1.099 1.0963-1.1004zm-11.811 12.342s19.524-0.87721 19.524-0.87721c0.5706-0.0257 1.0282 0.42614 1.0282 1.0129v8.0551c0 0.58672-0.45761 1.097-1.0282 1.1442l-19.524 1.6164c-0.65909 0.0546-1.1919-0.41189-1.1919-1.0461v-8.707c0-0.63419 0.53279-1.1687 1.1919-1.1983zm-27.042 1.215 23.199-1.0423c0.67362-0.0303 1.2137 0.45855 1.2137 1.0959v8.7501c0 0.63733-0.54007 1.1951-1.2137 1.2509l-23.199 1.9207c-0.78826 0.0652-1.4257-0.44049-1.4257-1.1342v-9.5247c0-0.69376 0.63744-1.2809 1.4257-1.3163zm14.07-13.499s21.25-0.0501 21.25-0.0501c0.61912-2e-3 1.1156 0.48932 1.1156 1.1004v8.3897c0 0.61107-0.49645 1.123-1.1156 1.1479l-21.25 0.85462c-0.7196 0.029-1.3014-0.48122-1.3014-1.144v-9.0992c0-0.66277 0.58182-1.1977 1.3014-1.1994zm-29.646 0.0699 25.448-0.06c0.7362-2e-3 1.3263 0.5332 1.3263 1.1994v9.1462c0 0.66618-0.59013 1.2262-1.3263 1.2559l-25.448 1.0235c-0.86791 0.0349-1.5699-0.52303-1.5699-1.2511v-9.996c0-0.72808 0.70202-1.3159 1.5699-1.3179zm84.856-10.716 14.38 0.57832c0.42458 0.0171 0.76524 0.43838 0.76524 0.94466v6.951c0 0.50629-0.34066 0.91309-0.76524 0.91209l-14.38-0.0339c-0.4805-2e-3 -0.86867-0.43779-0.86867-0.97903v-7.4311c0-0.54124 0.38817-0.96138 0.86867-0.94206zm-19.455-0.78248s16.658 0.66998 16.658 0.66998c0.48951 0.0197 0.88222 0.47305 0.88222 1.0166v7.4624c0 0.54352-0.39271 0.98019-0.88222 0.97903 0 0-16.658-0.0392-16.658-0.0392-0.55925-2e-3 -1.0112-0.47259-1.0112-1.0566v-8.0186c0-0.58405 0.45194-1.0361 1.0112-1.0136zm10.056-10.512 15.461 1.28c0.45546 0.0377 0.82087 0.49007 0.82087 1.0144v7.1987c0 0.52435-0.36541 0.93002-0.82087 0.90956 0 0-15.461-0.69464-15.461-0.69464-0.51778-0.0233-0.93616-0.49444-0.93616-1.0564v-7.7148c0-0.56193 0.41838-0.97966 0.93616-0.93679zm-21.027-1.7409 18.011 1.4912c0.52789 0.0437 0.95133 0.53314 0.95133 1.0975v7.7486c0 0.56439-0.42344 0.99974-0.95133 0.97601l-18.011-0.80924c-0.60631-0.0272-1.0963-0.53891-1.0963-1.1471v-8.35c0-0.60819 0.49003-1.0573 1.0963-1.0071zm-11.811 11.336s19.524 0.78524 19.524 0.78524c0.5706 0.0229 1.0282 0.51368 1.0282 1.1004v8.0551c0 0.58673-0.45761 1.058-1.0282 1.0566 0 0-19.524-0.046-19.524-0.046-0.65909-2e-3 -1.1919-0.51336-1.1919-1.1475v-8.707c0-0.63419 0.53279-1.1233 1.1919-1.0968zm-27.042-1.0876s23.199 0.933 23.199 0.933c0.67362 0.0271 1.2137 0.5619 1.2137 1.1992v8.7501c0 0.63733-0.54007 1.1492-1.2137 1.1476 0 0-23.199-0.0547-23.199-0.0547-0.78826-2e-3 -1.4257-0.56187-1.4257-1.2556v-9.5247c0-0.69376 0.63744-1.2266 1.4257-1.195zm14.07-12.301 21.25 1.7594c0.61912 0.0512 1.1156 0.5843 1.1156 1.1954v8.3896c0 0.6111-0.49645 1.0807-1.1156 1.0529 0 0-21.25-0.95477-21.25-0.95477-0.7196-0.0323-1.3014-0.59204-1.3014-1.2548v-9.0992c0-0.66277 0.58182-1.1482 1.3014-1.0886zm-29.646-2.4545 25.448 2.1069c0.7362 0.061 1.3263 0.64614 1.3263 1.3123v9.1463c0 0.66619-0.59013 1.176-1.3263 1.1429l-25.448-1.1434c-0.86791-0.039-1.5699-0.65668-1.5699-1.3848v-9.996c0-0.7281 0.70202-1.2561 1.5699-1.1842zm84.856-3.4906 14.38 1.8028c0.42458 0.0532 0.76524 0.50352 0.76524 1.0098v6.951c0 0.50629-0.34066 0.88406-0.76524 0.84692l-14.38-1.2583c-0.4805-0.042-0.86867-0.51175-0.86867-1.053v-7.431c0-0.54127 0.38817-0.92833 0.86867-0.8681zm-19.455-2.439 16.658 2.0883c0.48951 0.06139 0.88222 0.5482 0.88222 1.0917v7.4624c0 0.54355-0.39271 0.94677-0.88222 0.90393l-16.658-1.4576c-0.55925-0.0489-1.0112-0.55868-1.0112-1.1427v-8.0186c0-0.58404 0.45194-0.99759 1.0112-0.92746zm10.056-9.6554s15.461 2.5965 15.461 2.5965c0.45546 0.07649 0.82087 0.55996 0.82087 1.0843v7.1987c0 0.52434-0.36541 0.89891-0.82087 0.83968l-15.461-2.0111c-0.51778-0.06732-0.93616-0.57416-0.93616-1.1361v-7.7148c0-0.56192 0.41838-0.94404 0.93616-0.85708zm-21.027-3.5314s18.011 3.0248 18.011 3.0248c0.5279 0.08867 0.95133 0.61414 0.95133 1.1785v7.7487c0 0.5644-0.42343 0.96368-0.95133 0.895l-18.011-2.3429c-0.60631-0.07884-1.0963-0.63223-1.0963-1.2404v-8.35c0-0.60819 0.49003-1.0155 1.0963-0.9137zm-11.811 10.331s19.524 2.4476 19.524 2.4476c0.5706 0.07156 1.0282 0.60124 1.0282 1.188v8.0551c0 0.58673-0.45761 1.019-1.0282 0.96908l-19.524-1.7084c-0.65909-0.0577-1.1919-0.61485-1.1919-1.249v-8.707c0-0.63419 0.53279-1.078 1.1919-0.99533zm-27.042-3.3902 23.199 2.9083c0.67362 0.08445 1.2137 0.66526 1.2137 1.3026v8.7501c0 0.63733-0.54007 1.1032-1.2137 1.0442l-23.199-2.03c-0.78826-0.069-1.4257-0.68329-1.4257-1.377v-9.5247c0-0.69375 0.63744-1.1724 1.4257-1.0735zm14.07-11.103 21.25 3.5687c0.61912 0.10397 1.1156 0.6793 1.1156 1.2904v8.3897c0 0.61108-0.49645 1.0385-1.1156 0.95792 0 0-21.25-2.7642-21.25-2.7642-0.7196-0.09359-1.3014-0.70285-1.3014-1.3656v-9.0992c0-0.66274 0.58182-1.0986 1.3014-0.97776zm-29.646-4.9788s25.448 4.2737 25.448 4.2737c0.7362 0.12362 1.3263 0.75907 1.3263 1.4252v9.1462c0 0.6662-0.59013 1.1258-1.3263 1.03 0 0-25.448-3.3102-25.448-3.3102-0.86791-0.1129-1.5699-0.79037-1.5699-1.5185v-9.996c0-0.72808 0.70202-1.1963 1.5699-1.0506z"/>
    <path d="m88.957 206.06-4.3223 25.254h2.6855l2.7734-16.107c0.22967-1.3666 0.45369-3.1221 0.67188-5.2695 0.091869 2.0326 0.23032 3.7596 0.41406 5.1836l2.084 16.193h2.6699l7.6992-16.52c0.88424-1.8948 1.6255-3.6645 2.2227-5.3066-0.93018 3.514-1.6471 6.695-2.1524 9.543l-2.1543 12.283h2.7226l4.3223-25.254h-3.4609l-7.2695 15.641c-1.3321 2.8939-2.2913 5.1971-2.877 6.9082-0.080386-1.9522-0.2576-4.0132-0.5332-6.1836l-2.1016-16.365h-3.3945zm44.891 6.5469c-1.5158 0-3.0269 1.3828-4.5312 4.1504l0.63671-3.7383h-2.2558l-3.1348 18.295h2.4297l1.2734-7.3398c0.52825-3.1236 1.2573-5.2986 2.1875-6.5273 0.94167-1.2402 1.8845-1.8613 2.8262-1.8613 0.49379 0 0.96424 0.19549 1.4121 0.58594l1.0508-2.8926c-0.74644-0.44786-1.3778-0.67188-1.8945-0.67188zm8.9902 0c-2.492 0-4.4776 1.1364-5.959 3.4102s-2.2227 5.0577-2.2227 8.3535c0 2.2738 0.58039 4.072 1.7402 5.3926 1.1598 1.3091 2.6302 1.9629 4.4102 1.9629 1.3551 0 2.6462-0.44193 3.875-1.3262 1.2402-0.89573 2.2462-2.2337 3.0156-4.0137 0.78088-1.78 1.1699-3.8002 1.1699-6.0625 0-2.469-0.5682-4.371-1.7051-5.7031-1.1369-1.3436-2.5787-2.0137-4.3242-2.0137zm15.107 0c-1.6077 0-2.905 0.49288-3.8926 1.4805-0.98759 0.98759-1.4824 2.2461-1.4824 3.7734 0 0.74644 0.13236 1.4226 0.39649 2.0312 0.26412 0.59714 0.63268 1.1083 1.1035 1.5332 0.48232 0.41341 1.47 1.0101 2.9629 1.791 1.2977 0.67753 2.1408 1.2518 2.5312 1.7226 0.37896 0.47083 0.56836 1.0003 0.56836 1.5859 0 0.81534-0.30347 1.4874-0.91211 2.0156-0.60863 0.51676-1.4354 0.77343-2.4805 0.77343-1.1484 0-2.0566-0.36661-2.7226-1.1016-0.66604-0.73495-0.99194-1.8489-0.98047-3.3418l-2.5684 0.18946v0.34375c0 2.0096 0.54577 3.5675 1.6367 4.6699s2.5959 1.6523 4.5137 1.6523c1.9063 0 3.393-0.54577 4.4609-1.6367 1.0795-1.0909 1.6191-2.3943 1.6191-3.9102 0-1.3666-0.40122-2.5254-1.2051-3.4785-0.52825-0.60863-1.7624-1.4252-3.7031-2.4473-1.2632-0.65457-2.0513-1.176-2.3613-1.5664-0.31006-0.37896-0.46485-0.83308-0.46485-1.3613 0-0.60863 0.25863-1.1422 0.77539-1.6016 0.51677-0.47083 1.1888-0.70703 2.0156-0.70703 1.0565 0 1.8955 0.31152 2.5156 0.93164 0.63159 0.62012 0.96358 1.504 0.99805 2.6523l2.5156-0.20703c-0.04594-1.8259-0.58562-3.2433-1.6191-4.2539-1.0335-1.022-2.4407-1.5332-4.2207-1.5332zm-46.371 0.41211-1.8086 10.561c-0.32153 1.8604-0.48242 3.18-0.48242 3.9609 0 1.2288 0.36857 2.2328 1.1035 3.0137 0.74644 0.78088 1.6649 1.1719 2.7559 1.1719 1.8833 0 3.7264-1.2402 5.5293-3.7207l-0.56836 3.3086h2.3594l3.1348-18.295h-2.5488l-1.3613 7.9062c-0.31005 1.8489-0.67666 3.3253-1.1016 4.4277-0.41342 1.0909-1.0752 2.0033-1.9824 2.7383-0.89573 0.72347-1.7959 1.0859-2.7031 1.0859-0.64309 0-1.144-0.1833-1.5-0.55078-0.35599-0.37896-0.5332-0.93082-0.5332-1.6543 0-0.52825 0.08556-1.2798 0.25781-2.2559l1.998-11.697h-2.5488zm31.178 1.998c1.0106 0 1.8618 0.45411 2.5508 1.3613 0.68902 0.89572 1.0332 2.2174 1.0332 3.9629 0 1.6077-0.30543 3.1738-0.91406 4.7012-0.60864 1.5273-1.3194 2.625-2.1348 3.291-0.81534 0.65457-1.6319 0.98047-2.4473 0.98047-1.0335 0-1.895-0.44193-2.584-1.3262s-1.0332-2.1918-1.0332-3.9258c0-1.6996 0.28105-3.3023 0.84375-4.8066 0.57418-1.5158 1.2747-2.6013 2.1016-3.2559 0.83831-0.65457 1.6997-0.98242 2.584-0.98242z" stroke-width="1.3229" style="font-variant-caps:normal;font-variant-east-asian:normal;font-variant-ligatures:normal;font-variant-numeric:normal;text-orientation:upright"/>
    <path d="m337.61 206.06-4.3242 25.254h15.797l0.49804-2.8613h-13.039l1.5156-8.7832h11.852l0.48242-2.877h-11.852l1.3438-7.8555h12.195l0.48242-2.877h-14.951zm73.467 0-1.6894 9.8359c-0.94166-2.1934-2.3367-3.2891-4.1856-3.2891-1.1139 0-2.232 0.44193-3.3574 1.3262s-2.0744 2.261-2.8438 4.1328c-0.76941 1.8604-1.1543 3.9111-1.1543 6.1504 0 2.5034 0.48264 4.3811 1.4473 5.6328 0.96462 1.2517 2.1356 1.877 3.5137 1.877 1.6077 0 3.1351-1.0223 4.582-3.0664l-0.44727 2.6543h2.3594l4.3242-25.254h-2.5488zm32.332 0-0.60352 3.5312h2.5488l0.60352-3.5312h-2.5488zm-83.561 6.5469c-1.6077 0-2.905 0.49288-3.8926 1.4805-0.98759 0.98759-1.4824 2.2461-1.4824 3.7734 0 0.74644 0.13237 1.4226 0.39649 2.0312 0.26412 0.59714 0.63073 1.1083 1.1016 1.5332 0.48231 0.41341 1.47 1.0101 2.9629 1.791 1.2976 0.67753 2.1428 1.2518 2.5332 1.7226 0.37896 0.47083 0.56836 1.0003 0.56836 1.5859 0 0.81534-0.30543 1.4874-0.91406 2.0156-0.60863 0.51676-1.4354 0.77343-2.4805 0.77343-1.1484 0-2.0546-0.36661-2.7207-1.1016-0.66604-0.73495-0.99389-1.8489-0.98242-3.3418l-2.5664 0.18946v0.34375c0 2.0096 0.54577 3.5675 1.6367 4.6699s2.5959 1.6523 4.5137 1.6523c1.9063 0 3.393-0.54577 4.4609-1.6367 1.0795-1.0909 1.6191-2.3943 1.6191-3.9102 0-1.3666-0.40123-2.5254-1.2051-3.4785-0.52825-0.60863-1.7643-1.4252-3.7051-2.4473-1.2632-0.65457-2.0493-1.176-2.3594-1.5664-0.31006-0.37896-0.46485-0.83308-0.46485-1.3613 0-0.60863 0.25863-1.1422 0.77539-1.6016 0.51676-0.47083 1.1888-0.70703 2.0156-0.70703 1.0565 0 1.8936 0.31152 2.5137 0.93164 0.63159 0.62012 0.96554 1.504 1 2.6523l2.5156-0.20703c-0.04594-1.8259-0.58756-3.2433-1.6211-4.2539-1.0335-1.022-2.4388-1.5332-4.2188-1.5332zm15.434 0c-1.424 0-2.7212 0.42974-3.8926 1.291-1.1598 0.86127-2.1251 2.246-2.8945 4.1523-0.75792 1.9063-1.1367 4.0243-1.1367 6.3555 0 2.3771 0.51725 4.1916 1.5508 5.4434 1.045 1.2517 2.3586 1.877 3.9434 1.877 1.4699 0 2.8038-0.54991 3.998-1.6523 1.1943-1.1139 2.1128-2.8144 2.7559-5.0996l-2.5664-0.32813c-0.4249 1.5733-1.0175 2.7462-1.7754 3.5156s-1.5501 1.1523-2.377 1.1523c-0.80386 0-1.4983-0.3788-2.084-1.1367-0.57418-0.7694-0.86133-1.8875-0.86133-3.3574 0-1.9752 0.26473-3.7734 0.79297-5.3926 0.53974-1.6307 1.1711-2.7446 1.8945-3.3418 0.73496-0.60864 1.5557-0.91211 2.4629-0.91211 0.81534 0 1.4976 0.32176 2.0488 0.96484 0.5627 0.6316 0.84571 1.544 0.84571 2.7383l2.5137-0.20703c0.01148-1.8833-0.47116-3.3639-1.4473-4.4434-0.97611-1.0795-2.2327-1.6191-3.7715-1.6191zm14.539 0c-3.491 0-5.7821 1.8716-6.873 5.6152l2.584 0.27539c0.6316-2.2278 2.0083-3.3418 4.1328-3.3418 1.0565 0 1.8609 0.23425 2.4121 0.70508 0.5627 0.45934 0.84375 1.0743 0.84375 1.8438 0 0.55121-0.10384 1.264-0.31055 2.1367-0.37896 0.18374-0.83722 0.32024-1.377 0.41211-0.52825 0.09187-1.5098 0.17938-2.9453 0.25976-1.6996 0.08038-3.009 0.35534-3.9277 0.82617-0.9072 0.45935-1.6138 1.1253-2.1191 1.998-0.50528 0.87275-0.75781 1.8951-0.75781 3.0664 0 1.6422 0.43583 2.9394 1.3086 3.8926 0.88424 0.95314 1.9921 1.4297 3.3242 1.4297 0.84979 0 1.6888-0.19963 2.5156-0.60156 0.82682-0.40193 1.7107-1.0983 2.6523-2.0859 0.05741 0.94166 0.16126 1.7012 0.31055 2.2754h2.5664c-0.19522-1.0335-0.29297-1.8664-0.29297-2.498 0-0.89573 0.13236-2.0667 0.39649-3.5137l0.82617-4.5488c0.22967-1.2977 0.3457-2.428 0.3457-3.3926 0-1.3666-0.50506-2.4988-1.5156-3.3945-1.0106-0.90721-2.3771-1.3594-4.0996-1.3594zm32.246 0c-3.491 0-5.7821 1.8716-6.873 5.6152l2.584 0.27539c0.6316-2.2278 2.0083-3.3418 4.1328-3.3418 1.0565 0 1.8609 0.23425 2.4121 0.70508 0.5627 0.45934 0.84375 1.0743 0.84375 1.8438 0 0.55121-0.10384 1.264-0.31054 2.1367-0.37896 0.18374-0.83723 0.32024-1.377 0.41211-0.52825 0.09187-1.5099 0.17938-2.9453 0.25976-1.6996 0.08038-3.009 0.35534-3.9277 0.82617-0.90722 0.45935-1.6139 1.1253-2.1191 1.998-0.50529 0.87275-0.75782 1.8951-0.75782 3.0664 0 1.6422 0.43584 2.9394 1.3086 3.8926 0.88424 0.95314 1.9921 1.4297 3.3242 1.4297 0.84978 0 1.6888-0.19963 2.5156-0.60156 0.82682-0.40193 1.7107-1.0983 2.6523-2.0859 0.05742 0.94166 0.16126 1.7012 0.31055 2.2754h2.5664c-0.19522-1.0335-0.29297-1.8664-0.29297-2.498 0-0.89573 0.13236-2.0667 0.39648-3.5137l0.82617-4.5488c0.22967-1.2977 0.34571-2.428 0.34571-3.3926 0-1.3666-0.50507-2.4988-1.5156-3.3945-1.0106-0.90721-2.3771-1.3594-4.0996-1.3594zm16.76 0c-1.5158 0-3.0269 1.3828-4.5312 4.1504l0.63867-3.7383h-2.2578l-3.1348 18.295h2.4297l1.2734-7.3398c0.52825-3.1236 1.2573-5.2986 2.1875-6.5273 0.94166-1.2402 1.8845-1.8613 2.8262-1.8613 0.4938 0 0.96425 0.19549 1.4121 0.58594l1.0508-2.8926c-0.74644-0.44786-1.3778-0.67188-1.8945-0.67188zm15.416 0c-3.491 0-5.7821 1.8716-6.873 5.6152l2.584 0.27539c0.63161-2.2278 2.0103-3.3418 4.1348-3.3418 1.0565 0 1.8609 0.23425 2.4121 0.70508 0.5627 0.45934 0.84375 1.0743 0.84375 1.8438 0 0.55121-0.10384 1.264-0.31055 2.1367-0.37896 0.18374-0.83722 0.32024-1.377 0.41211-0.52825 0.09187-1.5118 0.17938-2.9473 0.25976-1.6996 0.08038-3.0071 0.35534-3.9258 0.82617-0.90721 0.45935-1.6139 1.1253-2.1191 1.998-0.50529 0.87275-0.75781 1.8951-0.75781 3.0664 0 1.6422 0.43583 2.9394 1.3086 3.8926 0.88424 0.95314 1.9921 1.4297 3.3242 1.4297 0.84979 0 1.6888-0.19963 2.5156-0.60156 0.82683-0.40193 1.7107-1.0983 2.6524-2.0859 0.05742 0.94166 0.16126 1.7012 0.31054 2.2754h2.5664c-0.19522-1.0335-0.29297-1.8664-0.29297-2.498 0-0.89573 0.13236-2.0667 0.39649-3.5137l0.82617-4.5488c0.22967-1.2977 0.34375-2.428 0.34375-3.3926 0-1.3666-0.50507-2.4988-1.5156-3.3945-1.0106-0.90721-2.3771-1.3594-4.0996-1.3594zm15.09 0c-1.6077 0-2.905 0.49288-3.8926 1.4805-0.9876 0.98759-1.4824 2.2461-1.4824 3.7734 0 0.74644 0.13236 1.4226 0.39648 2.0312 0.26413 0.59714 0.63269 1.1083 1.1035 1.5332 0.48231 0.41341 1.47 1.0101 2.9629 1.791 1.2976 0.67753 2.1408 1.2518 2.5312 1.7226 0.37896 0.47083 0.56836 1.0003 0.56836 1.5859 0 0.81534-0.30348 1.4874-0.91211 2.0156-0.60863 0.51676-1.4355 0.77343-2.4805 0.77343-1.1484 0-2.0566-0.36661-2.7227-1.1016-0.66603-0.73495-0.99193-1.8489-0.98046-3.3418l-2.5664 0.18946v0.34375c0 2.0096 0.54381 3.5675 1.6348 4.6699s2.5959 1.6523 4.5137 1.6523c1.9063 0 3.393-0.54577 4.4609-1.6367 1.0795-1.0909 1.6191-2.3943 1.6191-3.9102 0-1.3666-0.40122-2.5254-1.2051-3.4785-0.52826-0.60863-1.7624-1.4252-3.7031-2.4473-1.2632-0.65457-2.0493-1.176-2.3594-1.5664-0.31006-0.37896-0.4668-0.83308-0.4668-1.3613 0-0.60863 0.25863-1.1422 0.77539-1.6016 0.51677-0.47083 1.1888-0.70703 2.0156-0.70703 1.0565 0 1.8955 0.31152 2.5156 0.93164 0.63159 0.62012 0.96358 1.504 0.99805 2.6523l2.5156-0.20703c-0.04593-1.8259-0.58561-3.2433-1.6191-4.2539-1.0335-1.022-2.4407-1.5332-4.2207-1.5332zm-27.113 0.41211-3.1348 18.295h2.5488l3.1367-18.295h-2.5508zm-36.879 2.1543c0.88424 0 1.6479 0.40122 2.291 1.2051 0.64308 0.80385 0.96484 1.9402 0.96484 3.4102 0 2.8594-0.62719 5.2707-1.8789 7.2344-0.95314 1.4699-2.004 2.2051-3.1523 2.2051-0.88424 0-1.595-0.37271-2.1348-1.1191-0.7005-0.96463-1.0508-2.2049-1.0508-3.7207l0.01758-0.74023c0-1.0335 0.22815-2.3206 0.6875-3.8594 0.45935-1.5388 1.0682-2.6915 1.8262-3.4609 0.75792-0.7694 1.5684-1.1543 2.4297-1.1543zm-13.109 6.873c-0.2871 1.9292-0.67199 3.3691-1.1543 4.3223-0.47083 0.95315-1.0839 1.6822-1.8418 2.1875s-1.546 0.75781-2.3613 0.75781c-0.86127 0-1.5496-0.26886-2.0664-0.80859-0.51677-0.53973-0.77539-1.2749-0.77539-2.2051 0-0.67753 0.16087-1.2742 0.48242-1.791 0.32154-0.51677 0.76956-0.90166 1.3438-1.1543 0.57418-0.25264 1.6311-0.46032 3.1699-0.62109 1.5044-0.16077 2.5715-0.38892 3.2031-0.6875zm32.246 0c-0.28709 1.9292-0.67198 3.3691-1.1543 4.3223-0.47083 0.95315-1.0839 1.6822-1.8418 2.1875s-1.546 0.75781-2.3613 0.75781c-0.86128 0-1.5496-0.26886-2.0664-0.80859s-0.77539-1.2749-0.77539-2.2051c0-0.67753 0.16088-1.2742 0.48242-1.791 0.32155-0.51677 0.76957-0.90166 1.3438-1.1543 0.57419-0.25264 1.6311-0.46032 3.1699-0.62109 1.5044-0.16077 2.5715-0.38892 3.2031-0.6875zm32.178 0c-0.28709 1.9292-0.67198 3.3691-1.1543 4.3223-0.47083 0.95315-1.0858 1.6822-1.8438 2.1875s-1.544 0.75781-2.3594 0.75781c-0.86127 0-1.5496-0.26886-2.0664-0.80859s-0.7754-1.2749-0.7754-2.2051c0-0.67753 0.16089-1.2742 0.48243-1.791 0.32154-0.51677 0.76956-0.90166 1.3438-1.1543 0.57418-0.25264 1.6311-0.46032 3.1699-0.62109 1.5044-0.16077 2.5715-0.38892 3.2031-0.6875z" stroke-width="1.3229" style="font-variant-caps:normal;font-variant-east-asian:normal;font-variant-ligatures:normal;font-variant-numeric:normal;text-orientation:upright"/>
    <text font-family="Freshman" font-size="40px" letter-spacing="0px" word-spacing="0px" writing-mode="tb-rl" style="line-height:1.25;shape-inside:url(#rect1054);text-orientation:upright;white-space:pre" xml:space="preserve"/>
    <path d="m407.41 192.49c-1.8693-0.53879-7.1188-2.0304-11.666-3.3146-43.062-12.162-80.113-22.719-80.263-22.869-0.37692-0.37692-0.45948-2.9739-0.46867-14.742l-9e-3 -12.078 21.035-10.566 0.1477-11.206c0.10937-8.2982 0.20474-11.259 0.36743-11.407 0.12084-0.11062 3.8158-2.2532 8.2111-4.7613 4.3953-2.5081 8.3014-4.754 8.6803-4.991l0.68891-0.43083v-22.325l21.035-10.298 0.0919-11.228c0.0505-6.1753 0.14031-11.276 0.19956-11.335 0.26754-0.26735 23.023-12.415 23.256-12.415 0.27657 0 11.144 3.0589 41.026 11.548 42.543 12.086 55.09 15.641 55.19 15.641 0.0589 0 0.0863 21.215 0.0608 47.144l-0.0463 47.144-17.82 9.3542c-37.029 19.438-63.475 33.202-65.083 33.874-0.35132 0.14679-0.77333 0.26121-0.9378 0.25428-0.16448-7e-3 -1.8284-0.45343-3.6977-0.99223zm3.9045-4.0472c0.0761-0.90937 0.1175-6.1505 0.0918-11.647l-0.0466-9.9935-1.4697-0.40842c-0.80831-0.22463-9.4886-2.6871-19.29-5.4722-37.142-10.555-64.455-18.294-68.569-19.429-1.4395-0.39734-2.7849-0.72245-2.9898-0.72245-0.23408 0-0.44912 0.18782-0.57848 0.50521-0.14066 0.34518-0.23364 4.0336-0.29354 11.644l-0.0877 11.139 0.61961 0.1958c0.34079 0.10768 7.6465 2.1794 16.235 4.6038 8.5885 2.4244 21.03 5.9456 27.648 7.825 6.6182 1.8794 19.019 5.3909 27.557 7.8033 8.5379 2.4124 16.557 4.6789 17.82 5.0366 1.263 0.35773 2.503 0.6332 2.7556 0.61214 0.44159-0.0368 0.46461-0.10196 0.59775-1.6917zm20.804-43.406v-10.963l-37.385-10.673c-31.498-8.9926-50.5-14.37-54.148-15.324-0.55769-0.1458-0.88495-0.14776-1.1482-7e-3 -0.36205 0.19375-0.36819 0.37754-0.36819 11.015v10.818l0.59706 0.18652c0.32838 0.10258 12.129 3.466 26.225 7.4742s34.68 9.8736 45.744 13.034c12.707 3.63 20.184 5.6831 20.3 5.5744 0.11849-0.11098 0.18371-4.0636 0.18371-11.135zm18.095-32.551v-11.199l-0.78077-0.20972c-0.42943-0.11534-10.494-2.9761-22.367-6.3572-33.037-9.4088-58.42-16.616-66.818-18.973-1.9354-0.54321-2.0872-0.56031-2.5106-0.28286-0.24786 0.1624-0.50643 0.43499-0.5746 0.60576-0.24962 0.6253-0.31981 5.6425-0.18573 13.279l0.13735 7.825 28.5 8.1204c15.675 4.4662 36.56 10.422 46.412 13.235 9.8515 2.8131 17.974 5.124 18.05 5.1354 0.0758 0.0114 0.13779-5.019 0.13779-11.179zm20.835-22.282c0.19209-0.6711 0.35653-15.225 0.20748-18.362-0.0832-1.7505-0.22419-3.0034-0.35874-3.1874-0.21982-0.30061-16.314-4.9453-61.926-17.872-26.151-7.4113-29.466-8.3266-29.92-8.2615-0.84015 0.12039-0.93004 0.75063-0.99055 6.9448-0.0311 3.1828 8e-3 7.8508 0.0873 10.373l0.14384 4.5865 17.544 5.016c14.091 4.0288 44.243 12.591 70.912 20.136 1.9703 0.55745 3.7174 1.0194 3.8824 1.0265 0.16503 7e-3 0.3533-0.17309 0.41837-0.40043z" stroke-width=".18371"/>
  </g>
</svg>
