<svg version="1.1" viewBox="0 0 530 530" xmlns="http://www.w3.org/2000/svg">
  <path id="pedestrian_area" d="m299.26 2.0254c-6.1609 0.26007-12.031 3.9141-14.977 9.3317-1.7793 3.1153-2.4353 6.7524-2.2863 10.31 5e-3 69.455-0.0101 138.91 8e-3 208.36 0.0102 6.3369 3.6395 12.5 9.176 15.582 3.1518 1.8509 6.8598 2.5395 10.484 2.3859 69.455-5e-3 138.91 0.0101 208.36-8e-3 6.3369-0.0102 12.5-3.6395 15.582-9.176 1.8509-3.1518 2.5395-6.8598 2.3859-10.484-5e-3 -69.455 0.0101-138.91-8e-3 -208.36-0.01017-6.3365-3.6395-12.5-9.176-15.581-3.1518-1.8509-6.8598-2.5395-10.484-2.3859-69.455 0.00506-138.91-0.010114-208.36 0.00759-0.23466 0.00594-0.46933 0.01187-0.704 0.017806z" fill="#fff" stop-color="#000000"/>
  <path d="m319.09 210.06-0.5 2.877h9.043c0.50529 0 1.1956-0.06922 2.0684-0.20703-0.39044 0.51677-0.80385 1.0972-1.2402 1.7402l-12.541 18.311-0.25781 2.5332h15.348l0.5-2.877h-10.697c-0.48231 0-0.94667 0.03462-1.3945 0.10352l2.5996-3.7383 11.111-16.105 0.24023-2.6367h-14.279zm117 0-1.6895 9.8359c-0.94166-2.1934-2.3367-3.2891-4.1855-3.2891-1.1139 0-2.234 0.44193-3.3594 1.3262s-2.0724 2.261-2.8418 4.1328c-0.76941 1.8604-1.1543 3.9111-1.1543 6.1504 0 2.5034 0.48264 4.3811 1.4473 5.6328 0.96463 1.2517 2.1356 1.877 3.5137 1.877 1.6077 0 3.1351-1.0223 4.582-3.0664l-0.44727 2.6543h2.3594l4.3242-25.254h-2.5488zm54.828 0-4.3242 25.254h2.5664l4.3242-25.254h-2.5664zm-148.66 6.5469c-2.492 0-4.4776 1.1364-5.959 3.4102s-2.2227 5.0577-2.2227 8.3535c0 2.2738 0.58039 4.072 1.7402 5.3926 1.1598 1.3091 2.6282 1.9629 4.4082 1.9629 1.3551 0 2.6482-0.44193 3.877-1.3262 1.2402-0.89573 2.2443-2.2337 3.0137-4.0137 0.7809-1.78 1.1719-3.8002 1.1719-6.0625 0-2.469-0.56819-4.371-1.7051-5.7031-1.1369-1.3436-2.5787-2.0137-4.3242-2.0137zm17.914 0c-0.82682 0-1.6822 0.26277-2.5664 0.79102-0.88425 0.51676-1.8658 1.4535-2.9453 2.8086l0.53515-3.1875h-2.3086l-3.1348 18.295h2.5488l1.4629-8.5098c0.48232-2.8135 1.2358-4.7889 2.2578-5.9258 1.0335-1.1369 2.1924-1.7051 3.4785-1.7051 0.62012 0 1.1088 0.1833 1.4648 0.55078 0.36748 0.35599 0.55079 0.84887 0.55078 1.4805 0 0.53973-0.09774 1.3787-0.29296 2.5156l-1.998 11.594h2.5664l1.8945-11.076c0.25264-1.4469 0.38086-2.4936 0.38086-3.1367 0-1.4355-0.36247-2.5433-1.0859-3.3242-0.71199-0.78088-1.6487-1.1699-2.8086-1.1699zm14.35 0c-3.491 0-5.7821 1.8716-6.873 5.6152l2.584 0.27539c0.6316-2.2278 2.0103-3.3418 4.1348-3.3418 1.0565 0 1.8589 0.23425 2.4102 0.70508 0.5627 0.45934 0.84375 1.0743 0.84375 1.8438 0 0.55121-0.10189 1.264-0.30859 2.1367-0.37897 0.18374-0.83918 0.32024-1.3789 0.41211-0.52825 0.09187-1.5099 0.17938-2.9453 0.25976-1.6996 0.08038-3.009 0.35534-3.9277 0.82617-0.90722 0.45935-1.6139 1.1253-2.1191 1.998-0.50528 0.87275-0.75782 1.8951-0.75782 3.0664 0 1.6422 0.43779 2.9394 1.3106 3.8926 0.88424 0.95314 1.9921 1.4297 3.3242 1.4297 0.84979 0 1.6868-0.19963 2.5137-0.60156 0.82682-0.40193 1.7126-1.0983 2.6543-2.0859 0.05742 0.94166 0.15931 1.7012 0.30859 2.2754h2.5664c-0.19522-1.0335-0.29297-1.8664-0.29297-2.498 0-0.89573 0.13236-2.0667 0.39648-3.5137l0.82813-4.5488c0.22967-1.2977 0.34375-2.428 0.34375-3.3926 0-1.3666-0.50506-2.4988-1.5156-3.3945-1.0106-0.90721-2.3771-1.3594-4.0996-1.3594zm25.098 0c-0.75792 0-1.4809 0.20574-2.1699 0.61914-0.68902 0.41342-1.4873 1.1954-2.3945 2.3438l0.44726-2.5508h-2.3594l-4.3418 25.305h2.5508l1.7051-9.9394c0.98759 2.2278 2.3826 3.3418 4.1856 3.3418 1.0795 0 2.112-0.39512 3.0996-1.1875 1.2747-1.022 2.297-2.47 3.0664-4.3418 0.78089-1.8718 1.1719-3.945 1.1719-6.2188 0-2.4116-0.48264-4.2424-1.4473-5.4941-0.95314-1.2517-2.1241-1.877-3.5137-1.877zm15.09 0c-1.3666 0-2.6353 0.42974-3.8066 1.291-1.1713 0.84978-2.1651 2.2041-2.9805 4.0644-0.80386 1.8604-1.207 3.8643-1.207 6.0117 0 1.6307 0.26473 3.0379 0.79297 4.2207 0.52825 1.1713 1.241 2.0552 2.1367 2.6524 0.89573 0.58566 1.8895 0.8789 2.9805 0.8789 1.5388 0 2.9338-0.55601 4.1856-1.6699 1.5044-1.3206 2.4635-2.8724 2.877-4.6523l-2.498-0.3086c-0.47083 1.3206-1.1326 2.3308-1.9824 3.0312-0.83831 0.70051-1.6936 1.0508-2.5664 1.0508-0.91869 0-1.7048-0.44192-2.3594-1.3262-0.65457-0.89572-0.98242-2.2052-0.98242-3.9277 0-0.28709 0.01827-0.61494 0.05273-0.98242h11.059c0.12632-0.94166 0.18945-1.8601 0.18945-2.7559 0-2.4116-0.55187-4.277-1.6543-5.5977-1.091-1.3206-2.5023-1.9805-4.2363-1.9805zm32.35 0c-2.492 0-4.4796 1.1364-5.9609 3.4102-1.4814 2.2738-2.2227 5.0577-2.2227 8.3535 0 2.2738 0.58039 4.072 1.7402 5.3926 1.1599 1.3091 2.6302 1.9629 4.4102 1.9629 1.3551 0 2.6462-0.44193 3.875-1.3262 1.2402-0.89573 2.2462-2.2337 3.0156-4.0137 0.78089-1.78 1.1699-3.8002 1.1699-6.0625 0-2.469-0.56819-4.371-1.7051-5.7031-1.1369-1.3436-2.5768-2.0137-4.3223-2.0137zm17.914 0c-0.82682 0-1.6822 0.26277-2.5664 0.79102-0.88424 0.51676-1.8658 1.4535-2.9453 2.8086l0.5332-3.1875h-2.3086l-3.1348 18.295h2.5488l1.4648-8.5098c0.48232-2.8135 1.2338-4.7889 2.2559-5.9258 1.0335-1.1369 2.1943-1.7051 3.4805-1.7051 0.62011 0 1.1088 0.1833 1.4648 0.55078 0.36749 0.35599 0.55079 0.84887 0.55079 1.4805 0 0.53973-0.09775 1.3787-0.29297 2.5156l-1.998 11.594h2.5664l1.8945-11.076c0.25264-1.4469 0.3789-2.4936 0.3789-3.1367 0-1.4355-0.36247-2.5433-1.0859-3.3242-0.712-0.78088-1.6468-1.1699-2.8066-1.1699zm14.348 0c-3.491 0-5.7801 1.8716-6.8711 5.6152l2.582 0.27539c0.6316-2.2278 2.0103-3.3418 4.1348-3.3418 1.0565 0 1.8609 0.23425 2.4121 0.70508 0.56271 0.45934 0.84376 1.0743 0.84376 1.8438 0 0.55121-0.10385 1.264-0.31055 2.1367-0.37896 0.18374-0.83722 0.32024-1.377 0.41211-0.52826 0.09187-1.5099 0.17938-2.9453 0.25976-1.6996 0.08038-3.009 0.35534-3.9277 0.82617-0.90722 0.45935-1.6139 1.1253-2.1191 1.998-0.50528 0.87275-0.75781 1.8951-0.75781 3.0664 0 1.6422 0.43583 2.9394 1.3086 3.8926 0.88424 0.95314 1.9921 1.4297 3.3242 1.4297 0.84978 0 1.6888-0.19963 2.5156-0.60156s1.7107-1.0983 2.6524-2.0859c0.05742 0.94166 0.16126 1.7012 0.31054 2.2754h2.5664c-0.19522-1.0335-0.29297-1.8664-0.29297-2.498 0-0.89573 0.13237-2.0667 0.39648-3.5137l0.82618-4.5488c0.22967-1.2977 0.3457-2.428 0.3457-3.3926 0-1.3666-0.50701-2.4988-1.5176-3.3945-1.0106-0.90721-2.3771-1.3594-4.0996-1.3594zm-137.15 2.4102c1.0106 0 1.8598 0.45411 2.5488 1.3613 0.68902 0.89572 1.0332 2.2174 1.0332 3.9629 0 1.6077-0.30348 3.1738-0.91211 4.7012-0.60864 1.5273-1.3214 2.625-2.1367 3.291-0.81534 0.65457-1.63 0.98047-2.4453 0.98047-1.0335 0-1.895-0.44193-2.584-1.3262s-1.0332-2.1918-1.0332-3.9258c0-1.6996 0.28105-3.3023 0.84375-4.8066 0.57418-1.5158 1.2747-2.6013 2.1016-3.2559 0.83831-0.65457 1.6997-0.98242 2.584-0.98242zm104.8 0c1.0106 0 1.8598 0.45411 2.5488 1.3613 0.68902 0.89572 1.0332 2.2174 1.0332 3.9629 0 1.6077-0.30348 3.1738-0.91211 4.7012-0.60864 1.5273-1.3214 2.625-2.1367 3.291-0.81534 0.65457-1.63 0.98047-2.4453 0.98047-1.0335 0-1.895-0.44193-2.584-1.3262s-1.0352-2.1918-1.0352-3.9258c0-1.6996 0.28301-3.3023 0.8457-4.8066 0.57419-1.5158 1.2747-2.6013 2.1016-3.2559 0.83832-0.65457 1.6998-0.98242 2.584-0.98242zm-32.213 0.01758c0.99908 0 1.8198 0.40731 2.4629 1.2226 0.64308 0.81534 0.96484 2.0392 0.96484 3.6699v0.63672h-8.4219c0.44786-1.8489 1.118-3.2317 2.0137-4.1504 0.90721-0.91869 1.901-1.3789 2.9805-1.3789zm-15.934 0.08593c0.89573 0 1.6533 0.41951 2.2734 1.2578 0.63161 0.82682 0.94727 2.0202 0.94727 3.582 0 1.6651-0.29129 3.3188-0.87696 4.9609-0.58566 1.6307-1.2821 2.8036-2.0859 3.5156-0.5627 0.4938-1.2164 0.74023-1.9629 0.74023-0.94166 0-1.7278-0.40121-2.3594-1.2051-0.62011-0.81534-0.92969-1.9924-0.92969-3.5312 0-1.7226 0.2852-3.3884 0.85938-4.9961s1.2299-2.7278 1.9648-3.3594c0.73495-0.64308 1.4579-0.96485 2.1699-0.96485zm31.523 0.05274c0.88424 0 1.6479 0.40122 2.291 1.2051 0.64308 0.80385 0.96485 1.9402 0.96485 3.4102 0 2.8594-0.62719 5.2707-1.8789 7.2344-0.95314 1.4699-2.004 2.2051-3.1523 2.2051-0.88424 0-1.595-0.37271-2.1348-1.1191-0.7005-0.96463-1.0508-2.2049-1.0508-3.7207l0.01758-0.74023c0-1.0335 0.22815-2.3206 0.6875-3.8594 0.45935-1.5388 1.0682-2.6915 1.8262-3.4609 0.75792-0.7694 1.5684-1.1543 2.4297-1.1543zm-53.416 6.873c-0.28708 1.9292-0.67198 3.3691-1.1543 4.3223-0.47084 0.95315-1.0858 1.6822-1.8438 2.1875s-1.544 0.75781-2.3594 0.75781c-0.86127 0-1.5516-0.26886-2.0684-0.80859-0.51676-0.53973-0.77343-1.2749-0.77343-2.2051 0-0.67753 0.16087-1.2742 0.48242-1.791 0.32154-0.51677 0.76761-0.90166 1.3418-1.1543 0.57419-0.25264 1.6311-0.46032 3.1699-0.62109 1.5044-0.16077 2.5735-0.38892 3.2051-0.6875zm104.8 0c-0.28709 1.9292-0.67198 3.3691-1.1543 4.3223-0.47083 0.95315-1.0839 1.6822-1.8418 2.1875s-1.546 0.75781-2.3613 0.75781c-0.86127 0-1.5496-0.26886-2.0664-0.80859-0.51676-0.53973-0.77539-1.2749-0.77539-2.2051 0-0.67753 0.16088-1.2742 0.48242-1.791 0.32154-0.51677 0.76957-0.90166 1.3438-1.1543 0.57418-0.25264 1.6311-0.46032 3.1699-0.62109 1.5044-0.16077 2.5715-0.38892 3.2031-0.6875z" stroke-width="1.3229" style="font-variant-caps:normal;font-variant-east-asian:normal;font-variant-ligatures:normal;font-variant-numeric:normal;text-orientation:upright"/>
  <path id="green_area" d="m19.264 282.03c-6.1609 0.26007-12.031 3.9141-14.977 9.3317-1.7793 3.1153-2.4353 6.7524-2.2863 10.31 0.00506 69.455-0.010114 138.91 0.00759 208.36 0.010172 6.3369 3.6395 12.5 9.1761 15.582 3.1518 1.8509 6.8598 2.5395 10.484 2.3859 69.455-5e-3 138.91 0.0101 208.36-8e-3 6.3369-0.0102 12.5-3.6395 15.582-9.176 1.8509-3.1518 2.5395-6.8598 2.3859-10.484-5e-3 -69.455 0.0101-138.91-8e-3 -208.36-0.0102-6.3369-3.6395-12.5-9.176-15.582-3.1518-1.8509-6.8598-2.5395-10.484-2.3859-69.455 5e-3 -138.91-0.0101-208.36 8e-3 -0.23467 6e-3 -0.46934 0.0119-0.704 0.0178z" fill="#fff" stop-color="#000000"/>
  <path d="m54.42 490.06-0.5 2.877h9.0449c0.50528 0 1.1936-0.06922 2.0664-0.20703-0.39044 0.51677-0.80386 1.0972-1.2402 1.7402l-12.541 18.311-0.25781 2.5332h15.348l0.5-2.877h-10.697c-0.48231 0-0.94667 0.03462-1.3945 0.10352l2.6016-3.7383 11.109-16.105 0.24219-2.6367h-14.281zm124.99 0-1.6875 9.8359c-0.94166-2.1934-2.3367-3.2891-4.1855-3.2891-1.1139 0-2.234 0.44193-3.3594 1.3262s-2.0724 2.261-2.8418 4.1328c-0.7694 1.8603-1.1543 3.9111-1.1543 6.1504 0 2.5034 0.48264 4.3811 1.4473 5.6328 0.96464 1.2517 2.1356 1.877 3.5137 1.877 1.6077 0 3.1351-1.0223 4.582-3.0664l-0.44727 2.6543h2.3594l4.3223-25.254h-2.5488zm-101.82 6.5469c-2.492 0-4.4776 1.1364-5.959 3.4102s-2.2227 5.0577-2.2227 8.3535c0 2.2738 0.58038 4.072 1.7402 5.3926 1.1598 1.3091 2.6302 1.9629 4.4102 1.9629 1.3551 0 2.6462-0.44193 3.875-1.3262 1.2402-0.89573 2.2443-2.2337 3.0137-4.0137 0.78089-1.78 1.1719-3.8002 1.1719-6.0625 0-2.469-0.5682-4.371-1.7051-5.7031-1.1369-1.3436-2.5787-2.0137-4.3242-2.0137zm17.916 0c-0.82682 0-1.6822 0.26277-2.5664 0.79102-0.88424 0.51676-1.8678 1.4535-2.9473 2.8086l0.53516-3.1875h-2.3086l-3.1348 18.295h2.5488l1.4648-8.5098c0.48231-2.8135 1.2338-4.7889 2.2559-5.9258 1.0335-1.1369 2.1943-1.7051 3.4805-1.7051 0.62012 0 1.1069 0.1833 1.4629 0.55078 0.36748 0.35599 0.55273 0.84887 0.55273 1.4805 0 0.53973-0.097746 1.3787-0.29297 2.5156l-1.998 11.594h2.5664l1.8945-11.076c0.25264-1.4469 0.37891-2.4936 0.37891-3.1367 0-1.4355-0.36247-2.5433-1.0859-3.3242-0.71199-0.78088-1.6468-1.1699-2.8066-1.1699zm14.348 0c-3.491 0-5.7821 1.8716-6.873 5.6152l2.584 0.27539c0.63161-2.2278 2.0103-3.3418 4.1348-3.3418 1.0565 0 1.8609 0.23425 2.4121 0.70508 0.56269 0.45934 0.84374 1.0743 0.84374 1.8438 0 0.55121-0.10384 1.264-0.31054 2.1367-0.37896 0.18374-0.83917 0.32024-1.3789 0.41211-0.52824 0.09187-1.5098 0.17938-2.9453 0.25976-1.6996 0.08039-3.009 0.35534-3.9277 0.82617-0.9072 0.45935-1.6119 1.1253-2.1172 1.998-0.50529 0.87275-0.75782 1.8951-0.75782 3.0664 0 1.6422 0.43584 2.9394 1.3086 3.8926 0.88424 0.95314 1.9921 1.4297 3.3242 1.4297 0.84979 0 1.6888-0.20159 2.5156-0.60351 0.82683-0.40194 1.7107-1.0964 2.6524-2.084 0.05742 0.94166 0.16126 1.7012 0.31054 2.2754h2.5664c-0.19522-1.0335-0.29297-1.8664-0.29297-2.498 0-0.89573 0.13236-2.0667 0.39649-3.5137l0.82617-4.5488c0.22967-1.2977 0.34375-2.428 0.34375-3.3926 0-1.3666-0.50507-2.4988-1.5156-3.3945-1.0106-0.90721-2.3771-1.3594-4.0996-1.3594zm38.533 0c-1.3666 0-2.6353 0.42974-3.8066 1.291-1.1713 0.84978-2.1651 2.2041-2.9805 4.0644-0.80386 1.8604-1.2051 3.8643-1.2051 6.0117 0 1.6307 0.26472 3.0379 0.79297 4.2207 0.52824 1.1713 1.239 2.0552 2.1348 2.6524 0.89573 0.58566 1.8895 0.8789 2.9805 0.8789 1.5388 0 2.9338-0.55601 4.1856-1.6699 1.5044-1.3206 2.4635-2.8724 2.877-4.6523l-2.498-0.3086c-0.47082 1.3206-1.1307 2.3308-1.9805 3.0312-0.83831 0.70051-1.6936 1.0508-2.5664 1.0508-0.91869 0-1.7048-0.44192-2.3594-1.3262-0.65456-0.89572-0.98242-2.2052-0.98242-3.9277 0-0.2871 0.01632-0.61495 0.05078-0.98242h11.061c0.12632-0.94166 0.18945-1.8601 0.18945-2.7559 0-2.4116-0.55186-4.277-1.6543-5.5977-1.091-1.3206-2.5042-1.9805-4.2383-1.9805zm16.881 0c-1.5158 0-3.0249 1.3828-4.5293 4.1504l0.63672-3.7383h-2.2559l-3.1348 18.295h2.4277l1.2754-7.3398c0.52824-3.1236 1.2573-5.2986 2.1875-6.5273 0.94166-1.2402 1.8826-1.8613 2.8242-1.8613 0.49379 0 0.96619 0.1955 1.4141 0.58594l1.0508-2.8926c-0.74643-0.44786-1.3797-0.67188-1.8965-0.67188zm25.012 0c-1.3666 0-2.6353 0.42974-3.8066 1.291-1.1713 0.84978-2.1651 2.2041-2.9805 4.0644-0.80386 1.8604-1.2051 3.8643-1.2051 6.0117 0 1.6307 0.26471 3.0379 0.79296 4.2207 0.52825 1.1713 1.239 2.0552 2.1348 2.6524 0.89572 0.58566 1.8895 0.8789 2.9805 0.8789 1.5388 0 2.9338-0.55601 4.1856-1.6699 1.5044-1.3206 2.4635-2.8724 2.877-4.6523l-2.498-0.3086c-0.47082 1.3206-1.1307 2.3308-1.9805 3.0312-0.8383 0.70051-1.6936 1.0508-2.5664 1.0508-0.9187 0-1.7048-0.44192-2.3594-1.3262-0.65456-0.89572-0.98242-2.2052-0.98242-3.9277 0-0.2871 0.01632-0.61495 0.05078-0.98242h11.059c0.12632-0.94166 0.1914-1.8601 0.1914-2.7559 0-2.4116-0.55186-4.277-1.6543-5.5977-1.0909-1.3206-2.5042-1.9805-4.2383-1.9805zm-63.578 0.41211 2.4629 18.295h2.8418l8.5781-18.295h-2.7051l-4.9941 11.008c-0.7694 1.6651-1.4007 3.1518-1.8945 4.4609-0.20671-2.446-0.37977-4.2423-0.51758-5.3906l-1.291-10.078h-2.4805zm-49.197 1.998c1.0106 0 1.8618 0.45411 2.5508 1.3613 0.68902 0.89572 1.0332 2.2174 1.0332 3.9629 0 1.6077-0.30543 3.1738-0.91406 4.7012s-1.3194 2.625-2.1348 3.291c-0.81534 0.65457-1.6319 0.98047-2.4473 0.98047-1.0335 0-1.895-0.44193-2.584-1.3262-0.68902-0.88425-1.0332-2.1918-1.0332-3.9258 0-1.6996 0.28105-3.3023 0.84375-4.8066 0.57418-1.5158 1.2747-2.6013 2.1016-3.2559 0.83831-0.65457 1.6997-0.98242 2.584-0.98242zm70.936 0.01758c0.99908 0 1.8198 0.40731 2.4629 1.2226 0.64309 0.81534 0.96484 2.0392 0.96484 3.6699v0.63672h-8.4238c0.44786-1.8489 1.1199-3.2317 2.0156-4.1504 0.90721-0.91869 1.901-1.3789 2.9805-1.3789zm41.893 0c0.99907 0 1.8198 0.40731 2.4629 1.2226s0.96484 2.0392 0.96484 3.6699v0.63672h-8.4238c0.44787-1.8489 1.1199-3.2317 2.0156-4.1504 0.90721-0.91869 1.901-1.3789 2.9805-1.3789zm-16.658 0.13867c0.88423 0 1.6479 0.40122 2.291 1.2051 0.64309 0.80385 0.96484 1.9402 0.96484 3.4102 0 2.8594-0.62523 5.2707-1.877 7.2344-0.95314 1.4699-2.004 2.2051-3.1523 2.2051-0.88425 0-1.597-0.37271-2.1367-1.1191-0.70051-0.96464-1.0508-2.2049-1.0508-3.7207l0.01758-0.74023c0-1.0335 0.2301-2.3206 0.68945-3.8594 0.45935-1.5388 1.0682-2.6915 1.8262-3.4609 0.75792-0.7694 1.5665-1.1543 2.4277-1.1543zm-61.408 6.873c-0.28709 1.9293-0.67198 3.3691-1.1543 4.3223-0.47083 0.95315-1.0858 1.6822-1.8438 2.1875-0.75791 0.50528-1.544 0.75781-2.3594 0.75781-0.86127 0-1.5496-0.26886-2.0664-0.80859-0.51676-0.53973-0.77539-1.2749-0.77539-2.2051 0-0.67753 0.16088-1.2742 0.48243-1.791 0.32153-0.51677 0.76956-0.90166 1.3437-1.1543s1.6311-0.46032 3.1699-0.62109c1.5044-0.16077 2.5715-0.38892 3.2031-0.6875z" stroke-width="1.3229" style="font-variant-caps:normal;font-variant-east-asian:normal;font-variant-ligatures:normal;font-variant-numeric:normal;text-orientation:upright"/>
  <path id="road" d="m19.264 2.0254c-6.1609 0.26007-12.031 3.9141-14.977 9.3317-1.7793 3.1153-2.4353 6.7524-2.2863 10.31 0.00506 69.455-0.010114 138.91 0.00759 208.36 0.010172 6.3369 3.6395 12.5 9.1761 15.582 3.1518 1.8509 6.8598 2.5395 10.484 2.3859 69.455-5e-3 138.91 0.0101 208.36-8e-3 6.3369-0.0102 12.5-3.6395 15.582-9.176 1.8509-3.1518 2.5395-6.8598 2.3859-10.484-5e-3 -69.455 0.0101-138.91-8e-3 -208.36-0.0097649-6.3365-3.6391-12.5-9.1756-15.581-3.1518-1.8509-6.8598-2.5395-10.484-2.3859-69.455 0.00506-138.91-0.010114-208.36 0.00759-0.23467 0.00594-0.46934 0.01187-0.704 0.017806z" fill="#fff" stop-color="#000000"/>
  <path d="m76.158 210.06-4.3223 25.254h2.7734l1.9277-11.215h3.2051c1.0909 0 1.8771 0.13236 2.3594 0.39648 0.4938 0.26413 0.96425 0.79162 1.4121 1.584 0.7005 1.2173 1.3318 2.7283 1.8945 4.5312l1.4824 4.7031h3.0996l-1.584-4.7559c-0.50528-1.5044-1.1712-2.9849-1.998-4.4434-0.4249-0.74644-1.0216-1.4653-1.791-2.1543 2.3312-0.39045 4.0765-1.2275 5.2363-2.5137 1.1713-1.2977 1.7559-3.043 1.7559-5.2363 0-1.4584-0.27496-2.717-0.82617-3.7734-0.40193-0.78089-1.0211-1.3715-1.8594-1.7734-0.82682-0.40192-2.1831-0.60351-4.0664-0.60351h-8.6992zm46.062 0-1.6894 9.8359c-0.94166-2.1934-2.3367-3.2891-4.1856-3.2891-1.1139 0-2.234 0.44193-3.3594 1.3262s-2.0724 2.261-2.8418 4.1328c-0.76941 1.8604-1.1543 3.9111-1.1543 6.1504 0 2.5034 0.48264 4.3811 1.4473 5.6328s2.1356 1.877 3.5137 1.877c1.6077 0 3.1351-1.0223 4.582-3.0664l-0.44726 2.6543h2.3594l4.3242-25.254h-2.5488zm37.154 0-0.60352 3.5312h2.5508l0.60156-3.5312h-2.5488zm-80.926 2.7734h6.7695c1.0795 0 1.8329 0.10384 2.2578 0.31055 0.4249 0.19523 0.77517 0.55769 1.0508 1.0859 0.28709 0.51677 0.42969 1.1583 0.42969 1.9277 0 0.8498-0.16697 1.6257-0.5 2.3262s-0.78519 1.2809-1.3594 1.7402c-0.5627 0.44786-1.2225 0.75134-1.9805 0.91211-0.75792 0.14929-2.1936 0.22461-4.3066 0.22461h-3.8066l1.4453-8.5274zm22.498 3.7734c-2.492 0-4.4796 1.1364-5.9609 3.4102s-2.2227 5.0577-2.2227 8.3535c0 2.2738 0.58038 4.072 1.7402 5.3926 1.1598 1.3091 2.6302 1.9629 4.4102 1.9629 1.3551 0 2.6462-0.44193 3.875-1.3262 1.2402-0.89573 2.2462-2.2337 3.0156-4.0137 0.78088-1.78 1.1699-3.8002 1.1699-6.0625 0-2.469-0.5682-4.371-1.7051-5.7031-1.1369-1.3436-2.5767-2.0137-4.3223-2.0137zm32.246 0c-2.492 0-4.4795 1.1364-5.9609 3.4102-1.4814 2.2738-2.2226 5.0577-2.2226 8.3535 0 2.2738 0.58038 4.072 1.7402 5.3926 1.1598 1.3091 2.6302 1.9629 4.4102 1.9629 1.3551 0 2.6462-0.44193 3.875-1.3262 1.2402-0.89573 2.2462-2.2337 3.0156-4.0137 0.78089-1.78 1.1699-3.8002 1.1699-6.0625 0-2.469-0.5682-4.371-1.7051-5.7031-1.1369-1.3436-2.5768-2.0137-4.3223-2.0137zm37.018 0c-3.491 0-5.7821 1.8716-6.873 5.6152l2.584 0.27539c0.6316-2.2278 2.0083-3.3418 4.1328-3.3418 1.0565 0 1.8609 0.23425 2.4121 0.70508 0.5627 0.45934 0.84375 1.0743 0.84375 1.8438 0 0.55121-0.10384 1.264-0.31055 2.1367-0.37896 0.18374-0.83722 0.32024-1.377 0.41211-0.52825 0.09187-1.5099 0.17938-2.9453 0.25976-1.6996 0.08038-3.009 0.35534-3.9277 0.82617-0.90721 0.45935-1.6139 1.1253-2.1191 1.998-0.50529 0.87275-0.75781 1.8951-0.75781 3.0664 0 1.6422 0.43583 2.9394 1.3086 3.8926 0.88424 0.95314 1.9921 1.4297 3.3242 1.4297 0.84979 0 1.6888-0.19963 2.5156-0.60156 0.82683-0.40193 1.7107-1.0983 2.6524-2.0859 0.05741 0.94166 0.16125 1.7012 0.31055 2.2754h2.5664c-0.19522-1.0335-0.29297-1.8664-0.29297-2.498 0-0.89573 0.13236-2.0667 0.39649-3.5137l0.82617-4.5488c0.22967-1.2977 0.3457-2.428 0.3457-3.3926 0-1.3666-0.50506-2.4988-1.5156-3.3945-1.0106-0.90721-2.3771-1.3594-4.0996-1.3594zm-28.217 0.41211 2.4648 18.295h2.8418l8.5781-18.295h-2.7051l-4.9941 11.008c-0.76941 1.6651-1.4027 3.1518-1.8965 4.4609-0.2067-2.446-0.37782-4.2423-0.51562-5.3906l-1.293-10.078h-2.4805zm16.193 0-3.1367 18.295h2.5508l3.1348-18.295h-2.5488zm-57.328 1.998c1.0106 0 1.8618 0.45411 2.5508 1.3613 0.68902 0.89572 1.0332 2.2174 1.0332 3.9629 0 1.6077-0.30543 3.1738-0.91406 4.7012-0.60864 1.5273-1.3194 2.625-2.1348 3.291-0.81534 0.65457-1.63 0.98047-2.4453 0.98047-1.0335 0-1.895-0.44193-2.584-1.3262-0.68902-0.88424-1.0352-2.1918-1.0352-3.9258 0-1.6996 0.283-3.3023 0.8457-4.8066 0.57418-1.5158 1.2747-2.6013 2.1016-3.2559 0.83831-0.65457 1.6978-0.98242 2.582-0.98242zm32.246 0c1.0106 0 1.8618 0.45411 2.5508 1.3613 0.68902 0.89572 1.0332 2.2174 1.0332 3.9629 0 1.6077-0.30347 3.1738-0.91211 4.7012-0.60863 1.5273-1.3214 2.625-2.1367 3.291-0.81534 0.65457-1.63 0.98047-2.4453 0.98047-1.0335 0-1.895-0.44193-2.584-1.3262s-1.0352-2.1918-1.0352-3.9258c0-1.6996 0.28301-3.3023 0.84571-4.8066 0.57417-1.5158 1.2747-2.6013 2.1016-3.2559 0.8383-0.65457 1.6978-0.98242 2.582-0.98242zm-16.621 0.15625c0.88424 0 1.6479 0.40122 2.291 1.2051 0.64308 0.80385 0.96484 1.9402 0.96484 3.4102 0 2.8594-0.62718 5.2707-1.8789 7.2344-0.95314 1.4699-2.004 2.2051-3.1524 2.2051-0.88424 0-1.595-0.37271-2.1348-1.1191-0.70051-0.96463-1.0508-2.2049-1.0508-3.7207l0.01758-0.74023c0-1.0335 0.22815-2.3206 0.6875-3.8594 0.45934-1.5388 1.0682-2.6915 1.8262-3.4609 0.75792-0.7694 1.5684-1.1543 2.4297-1.1543zm56.137 6.873c-0.28709 1.9292-0.67198 3.3691-1.1543 4.3223-0.47083 0.95315-1.0839 1.6822-1.8418 2.1875-0.75792 0.50528-1.546 0.75781-2.3613 0.75781-0.86127 0-1.5496-0.26886-2.0664-0.80859s-0.77539-1.2749-0.77539-2.2051c0-0.67753 0.16088-1.2742 0.48242-1.791 0.32154-0.51677 0.76956-0.90166 1.3438-1.1543 0.57418-0.25264 1.6311-0.46032 3.1699-0.62109 1.5044-0.16077 2.5715-0.38892 3.2031-0.6875z" stroke-width="1.3229" style="font-variant-caps:normal;font-variant-east-asian:normal;font-variant-ligatures:normal;font-variant-numeric:normal;text-orientation:upright"/>
  <path d="m53.139 167.92c-1.1406-0.38688-2.4328-0.84026-2.8715-1.0075-1.7148-0.65369-4.6618-1.8282-5.3442-2.1298-2.2719-1.0042-4.0004-1.8262-4.6733-2.2223-0.42061-0.24766-0.79662-0.4503-0.83555-0.4503-0.19361 0-3.8508-2.2569-5.1797-3.1965-1.6032-1.1335-3.9155-3.0718-4.642-3.8912-0.23895-0.26951-0.66181-0.74126-0.9397-1.0484-1.5328-1.6939-2.7989-3.9486-3.3582-5.9802-0.4429-1.6089-0.3794-4.1231 0.13819-5.4724 0.84094-2.1922 2.6036-4.4263 4.973-6.3035 0.57031-0.45185 1.0728-0.86787 1.1167-0.92452 0.11493-0.14853 3.2954-2.2178 3.4086-2.2178 0.0521 0 0.47316-0.24012 0.93549-0.53361 0.9722-0.6171 3.8676-2.0317 5.9456-2.9049 0.78969-0.33182 1.5076-0.65495 1.5953-0.71806 0.0877-0.0632 0.66205-0.30787 1.2762-0.54394 0.6142-0.23604 1.4756-0.5783 1.9143-0.76059 0.43872-0.18223 1.0848-0.42258 1.4358-0.53394 0.35096-0.11144 1.356-0.46403 2.2334-0.78362 0.87741-0.31961 2.0619-0.72569 2.6322-0.90244 0.5703-0.17669 1.3959-0.4559 1.8346-0.62046 0.43871-0.1645 2.2693-0.7327 4.068-1.2626 1.7987-0.52987 3.4857-1.029 3.7489-1.109 0.26322-0.0801 1.0529-0.30379 1.7548-0.49714 0.70193-0.19327 1.7069-0.48209 2.2334-0.64165 0.52645-0.15955 1.5674-0.44326 2.3132-0.63043 8.4808-2.1285 10.462-2.6211 12.523-3.1142 1.3161-0.31487 2.7878-0.67403 3.2704-0.79817 0.87569-0.22522 1.8869-0.45809 4.1478-0.95508 0.65805-0.14456 1.6272-0.36278 2.1536-0.48474 0.52646-0.12188 1.9622-0.4446 3.1906-0.717 2.1553-0.47797 3.8904-0.87638 5.9026-1.3554 0.52647-0.12545 1.6033-0.36479 2.393-0.53216 1.4525-0.30782 4.9967-1.0832 5.5836-1.2215 0.17546-0.0414 1.1446-0.25701 2.1536-0.47923 2.003-0.44112 3.2685-0.73701 5.105-1.1937 0.65806-0.16368 2.1656-0.51968 3.3501-0.79125 1.1845-0.27154 2.5485-0.5974 3.0311-0.72412 0.48256-0.12661 1.8824-0.47671 3.1108-0.77782 2.4985-0.61246 4.5455-1.1514 5.2645-1.3862 0.26322-0.0859 1.34-0.40062 2.393-0.69927 4.596-1.3036 7.9543-2.5319 10.688-3.9093 2.1304-1.0732 3.0748-1.7642 3.7453-2.7401 0.8678-1.2632 0.67253-2.491-0.58144-3.6561-1.231-1.1437-2.5949-1.9322-5.0782-2.9356-1.4886-0.60153-1.6006-0.64839-2.7918-1.1676-0.39484-0.17218-1.8665-0.79629-3.2704-1.3871-5.1819-2.1807-13.383-6.2898-13.613-6.8207-0.0293-0.06744-0.15871-0.12267-0.28769-0.12267-0.20973 0-1.1329-0.5562-3.2167-1.938-0.37729-0.25021-0.72093-0.45492-0.76362-0.45492-0.0428 0-1.0262-0.72777-2.1856-1.6173-3.4735-2.665-5.7064-5.1542-6.6625-7.4271-0.46952-1.1162-0.52343-1.4024-0.52012-2.7608 3e-3 -1.6424 0.31624-2.8081 1.1819-4.4135 1.1915-2.2094 3.7264-4.8336 6.3696-6.5941 0.19761-0.13154 0.55708-0.40081 0.79883-0.59824 0.24176-0.19741 0.47156-0.35894 0.51071-0.35894 0.0392 0 0.67485-0.36456 1.4127-0.81015 2.2883-1.3818 6.4209-3.3253 9.7967-4.6072 1.683-0.63909 6.6763-2.3252 8.2956-2.8013 0.52646-0.15482 1.1366-0.33791 1.356-0.40698 0.21933-0.06904 0.97311-0.27848 1.6751-0.46534 0.70194-0.18677 1.4916-0.40316 1.7548-0.48062 0.26322-0.07748 1.5554-0.39923 2.8715-0.71503 1.3161-0.31581 3.0032-0.72114 3.749-0.90078 1.8517-0.446 3.04-0.71052 4.5466-1.0121 0.70193-0.14042 1.7531-0.36053 2.336-0.48896 0.65666-0.14476 1.8703-0.2295 3.1906-0.22298l2.1308 0.01032-0.86889 0.23355c-0.47786 0.1284-0.90263 0.2673-0.94388 0.30856-0.20443 0.20443 1.9685 0.03268 3.089-0.24405 0.79022-0.19526 1.7926-0.31225 2.6322-0.30728l1.356 8e-3 -0.63811 0.30583c-0.35098 0.16823-1.1407 0.52936-1.7548 0.80256-0.61419 0.27319-1.8542 0.84899-2.7556 1.2796-0.90139 0.43057-1.6746 0.78284-1.7182 0.78284-0.11016 0-5.0789 2.4797-6.9964 3.4916-5.6454 2.9792-10.276 6.2608-12.008 8.5096-0.90329 1.1729-1.1963 1.8904-1.2216 2.9916-0.0398 1.7309 1.165 3.074 4.0434 4.5073 1.7878 0.89024 9.5933 3.542 12.76 4.3349 0.21935 0.05497 1.1885 0.30918 2.1536 0.565 3.2458 0.86034 6.6329 1.6863 9.5718 2.3341 1.0529 0.23207 2.381 0.52491 2.9513 0.65077 0.57033 0.12583 1.4074 0.29241 1.8602 0.37016 0.45278 0.07771 1.0989 0.21447 1.4358 0.30386 0.33693 0.08937 1.1869 0.27852 1.8888 0.42033 0.70194 0.1418 1.8505 0.39244 2.5525 0.557 0.70194 0.16449 1.8147 0.41734 2.4727 0.56173 3.858 0.84648 4.9879 1.1115 8.4551 1.9828 3.8331 0.96332 4.6707 1.1868 5.5836 1.4898 0.39484 0.13096 1.2563 0.3969 1.9144 0.5908 1.5449 0.45518 5.0948 1.6399 6.2216 2.0765 0.48258 0.18696 1.0569 0.39912 1.2762 0.4715 0.3444 0.1136 1.0845 0.4217 2.3132 0.96279 0.17552 0.07737 0.64213 0.27957 1.037 0.44954 2.4558 1.0571 3.2501 1.4238 4.5407 2.0961 2.2078 1.15 6.1896 3.6004 6.8138 4.1931 0.11626 0.1104 0.60621 0.51842 1.0888 0.90679 4.099 3.2987 6.2598 7.3174 6.01 11.177-0.16685 2.5784-1.3788 5.3184-3.5989 8.136-1.9628 2.4911-6.4811 6.452-13.07 11.458-0.49895 0.37907-1.1226 0.86023-1.3858 1.0693-0.26322 0.20901-0.90932 0.7229-1.4358 1.1419-0.52643 0.41901-1.0494 0.83517-1.1621 0.92484-0.1127 0.0896-0.2922 0.23624-0.39883 0.32581-0.10659 0.0896-0.55219 0.44851-0.99013 0.79765-2.1704 1.7304-5.2521 4.6888-6.8929 6.6172-1.6743 1.9678-3.3605 5.2619-3.7101 7.248-1.0697 6.0772 2.7477 11.915 12.117 18.531 1.4728 1.0399 5.2123 3.4149 5.3769 3.4149 0.056 0 0.21508 0.0979 0.35359 0.21758 0.13854 0.11972 0.82616 0.52458 1.5281 0.89976 0.70192 0.3752 1.348 0.73741 1.4358 0.80494 0.19795 0.15224 3.6381 1.9456 6.3014 3.2849l1.9941 1.0028-85.987-0.0679-1.8346-0.66297c-1.5662-0.56597-5.5988-2.1461-6.6205-2.5941-0.1755-0.077-0.7139-0.29926-1.1965-0.49404-1.8428-0.74376-3.8606-1.7138-6.8598-3.2977-4.169-2.2017-7.2328-4.3935-9.9808-7.1401-2.1847-2.1836-3.3829-3.9518-4.0727-6.01-0.46481-1.387-0.4959-1.6145-0.42267-3.0924 0.0435-0.87741 0.13148-1.7209 0.19559-1.8745 0.1089-0.26084-0.10859-0.27918-3.3115-0.27918h-3.428l-0.17846 0.70876c-0.25576 1.0156-0.22004 3.4664 0.0673 4.6125 1.0126 4.0408 3.9587 8.0611 8.9016 12.147 2.4488 2.0244 7.1831 5.1381 10.448 6.8714 0.67307 0.35734 1.4392 0.76726 1.7024 0.91092 0.4445 0.24252-1.8053 0.26062-31.587 0.25382l-32.066-7e-3 -2.0739-0.7034zm56.429-31.223c1.5468-1.3377 2.8541-2.3134 4.113-3.0699 0.57033-0.3427 1.3959-0.86127 1.8346-1.1524 1.3614-0.90336 7.6456-3.9395 10.167-4.9121 0.81317-0.31367 1.6221-0.63673 1.7976-0.71793 0.88191-0.40803 7.5385-2.8178 11.725-4.2447 0.92128-0.31397 2.2853-0.80604 3.0311-1.0935 0.74581-0.28742 1.7509-0.66982 2.2334-0.84982l0.87744-0.32721-5.7648-7e-3c-5.7492-7e-3 -5.7682-7e-3 -7.0193 0.39704-0.68999 0.22292-1.3875 0.47941-1.55 0.56989-0.16253 0.0905-1.1676 0.47466-2.2334 0.85368-4.6086 1.6388-7.524 2.761-9.7549 3.7546-1.2158 0.54152-1.8301 0.79765-1.9131 0.79765-0.0528 0-1.2233 0.56168-2.6011 1.2482-3.8568 1.9217-7.3826 4.1178-9.8435 6.1311-1.1906 0.97408-3.5894 3.3076-3.5894 3.4916 0 0.0753 1.6488 0.13668 3.6641 0.13668h3.6641zm47.147-20.766c0.50409-0.21096 1.5985-0.64905 2.4321-0.97356 0.83355-0.3245 1.9822-0.78859 2.5525-1.0313 0.57031-0.24271 2.1856-0.92482 3.5894-1.5158 1.4038-0.59101 2.9473-1.2497 3.4299-1.4637 0.48258-0.21404 1.1287-0.49988 1.4358-0.63518 1.0139-0.44673 5.9643-2.9118 6.9396-3.4556 2.005-1.1179 4.2327-2.5309 5.1847-3.2885l0.39884-0.31735-2.6183-4e-3c-2.5812-4e-3 -2.6286 2e-3 -3.3501 0.43829-0.40254 0.24302-0.87546 0.52745-1.051 0.63205-1.3901 0.82852-7.3508 3.531-10.13 4.5929-0.3071 0.11733-1.3122 0.5164-2.2334 0.88686-0.92129 0.37045-1.9622 0.76746-2.3132 0.8822-0.35098 0.11479-1.356 0.46796-2.2334 0.7849-0.87743 0.31696-2.2055 0.78904-2.9513 1.049-0.7458 0.26002-1.8585 0.64797-2.4727 0.86215-0.61421 0.21418-1.6192 0.57378-2.2334 0.79914-0.61419 0.22534-2.1935 0.77387-3.5096 1.2189s-2.4173 0.83117-2.4472 0.85804c-0.0298 0.0268 2.3575 0.0522 5.3051 0.0562 5.3073 7e-3 5.3683 4e-3 6.2759-0.37617zm29.346-16.517c0.55158-1.1238 0.50337-2.6322-0.12494-3.9084-1.0986-2.2315-4.2937-4.3563-9.7562-6.488l-2.1169-0.82608-6.7003-0.09258 2.4727 0.8524c4.0985 1.4129 4.6265 1.624 6.7003 2.6791 2.8608 1.4555 4.0415 2.3623 5.0464 3.8757 0.54961 0.82779 0.60287 1.004 0.60287 1.9948 0 0.94388-0.0668 1.1941-0.50757 1.9033l-0.50754 0.81648 4.5388-0.0882zm-21.091-14.103c-0.87741-0.29322-2.4926-0.82596-3.5894-1.1838-1.0968-0.35789-3.3581-1.127-5.0252-1.7091-1.6671-0.58214-3.2459-1.1241-3.5086-1.2043-0.26264-0.08023-1.7702-0.14319-3.3501-0.13964-3.243 8e-3 -3.2361-0.024-0.22315 1.0029 0.91182 0.31076 2.4834 0.85994 3.4924 1.2204 1.009 0.36046 2.2653 0.7969 2.7918 0.96988 0.52644 0.17297 1.8186 0.5975 2.8716 0.94343l1.9144 0.62891 6.2217 0.0046-1.5953-0.53314zm-20.021-7.1219c-1.5355-0.61534-3.0071-1.2186-3.2703-1.3405-0.26324-0.12188-1.1346-0.5098-1.9365-0.86186-0.80182-0.35204-1.9797-0.89796-2.6174-1.2132l-1.1596-0.57307-5.2853 0.08731 1.8302 0.90095c2.5457 1.2532 3.6812 1.776 5.3242 2.4513 0.78103 0.32105 1.5348 0.64195 1.6751 0.71314 0.14025 0.07108 0.54215 0.23635 0.89311 0.36705 0.35096 0.13076 0.81759 0.31271 1.0369 0.40442 0.22587 0.09451 1.6787 0.1704 3.3502 0.17492l2.9513 8e-3 -2.7918-1.1188zm-13.405-6.3072c-2.5084-1.5373-3.9688-2.5752-5.0569-3.5937l-0.67392-0.63081-1.9583 0.04469-1.9583 0.0448 0.87742 0.93969c0.74521 0.79813 1.8613 1.7129 3.8903 3.1886 0.22656 0.16488 0.53872 0.39582 0.69366 0.51341 0.2075 0.15739 0.95302 0.21512 2.8301 0.21886l2.5483 0.0057zm-7.1142-5.8498c-0.0648-0.10971-0.29629-0.48604-0.51444-0.83636-0.57437-0.92243-0.66825-2.6132-0.20346-3.664 0.18609-0.42066 0.33833-0.79164 0.33833-0.82433 0-0.03268-0.53015-0.05955-1.1781-0.05955-1.3042 0-1.3972 0.06766-2.0497 1.4931-0.36225 0.79129-0.37529 2.5742-0.0253 3.4491l0.25661 0.64136h1.7469c1.354 0 1.7204-0.04469 1.6291-0.19942zm2.0295-7.5898c0.56148-0.42344 1.4838-1.0695 2.0497-1.4357l1.0288-0.66589h-2.8031l-1.1428 0.79119c-0.62852 0.43513-1.4658 1.0792-1.8607 1.4312l-0.71787 0.64008 1.2126 0.0045c1.2045 0.0045 1.2193-6.39e-4 2.2334-0.76539zm6.2335-3.9262c0.56826-0.30156 1.8892-0.98145 2.9355-1.5109l1.9022-0.96257-3.1115-9e-3 -2.3713 1.2364c-1.3042 0.68-2.5424 1.3582-2.7516 1.5072-0.36983 0.2634-0.34271 0.27103 0.99161 0.27918 1.2644 8e-3 1.4528-0.03451 2.405-0.53994zm10.18-4.673 2.3107-0.92064-1.4784-0.04595c-1.47-0.04572-1.4914-0.0408-3.7465 0.86127-1.2474 0.49897-2.298 0.93242-2.3346 0.96322-0.0364 0.03085 0.60954 0.0576 1.4358 0.05931 1.4596 0.0045 1.5679-0.02285 3.813-0.91728zm8.0587-2.84 1.9144-0.63309-1.333-0.04652c-0.8599-0.02995-1.5677 0.03475-1.9941 0.18264-0.36359 0.12602-1.0918 0.35488-1.6182 0.50848-0.52646 0.15364-1.2084 0.37676-1.5156 0.4959-0.5204 0.20186-0.44992 0.21348 1.037 0.17119 1.3574-0.03863 1.8808-0.13984 3.5096-0.67849zm4.83-1.6604c0.67767-0.1702 1.3757-0.34132 1.5512-0.38033 0.17551-0.03897-0.25525-0.07668-0.95717-0.08378-1.2069-0.01188-2.5408 0.21613-3.4299 0.5869-0.74217 0.30951 1.5011 0.21233 2.8359-0.12286z" stroke-width=".15953"/>
  <path id="other" d="m299.26 282.03c-6.1609 0.26007-12.031 3.9141-14.977 9.3317-1.7793 3.1153-2.4353 6.7524-2.2863 10.31 5e-3 69.455-0.0101 138.91 8e-3 208.36 0.0102 6.3369 3.6395 12.5 9.176 15.582 3.1518 1.8509 6.8598 2.5395 10.484 2.3859 69.455-5e-3 138.91 0.0101 208.36-8e-3 6.3369-0.0102 12.5-3.6395 15.582-9.176 1.8509-3.1518 2.5395-6.8598 2.3859-10.484-5e-3 -69.455 0.0101-138.91-8e-3 -208.36-0.0102-6.3369-3.6395-12.5-9.176-15.582-3.1518-1.8509-6.8598-2.5395-10.484-2.3859-69.455 5e-3 -138.91-0.0101-208.36 8e-3 -0.23466 6e-3 -0.46933 0.0119-0.704 0.0178z" fill="#fff" stop-color="#000000"/>
  <path d="m380.98 489.63c-2.9513 0-5.4542 1.279-7.5098 3.8398-2.3082 2.8824-3.4629 6.6377-3.4629 11.266 0 2.1934 0.40732 4.1524 1.2227 5.875 0.81534 1.7225 1.862 3.0076 3.1367 3.8574 1.2862 0.84979 2.726 1.2754 4.3223 1.2754 1.8374 0 3.5888-0.58648 5.2539-1.7578 1.6651-1.1713 3.0438-2.9166 4.1348-5.2363 1.091-2.3312 1.6367-4.9257 1.6367-7.7852 0-3.5599-0.83901-6.3397-2.5156-8.3379-1.6651-1.9982-3.7383-2.9961-6.2188-2.9961zm32.953 0.74023-2.9277 2.1524-0.77539 4.4961h-2.0156l-0.41406 2.4121h2.0156l-1.8086 10.629c-0.25264 1.4469-0.3789 2.3715-0.3789 2.7734 0 0.84979 0.27495 1.526 0.82617 2.0312 0.5627 0.50529 1.3203 0.75782 2.2734 0.75782 0.57418 0 1.1668-0.09775 1.7754-0.29297l0.44726-2.5488c-0.44786 0.13781-0.95292 0.20703-1.5156 0.20703-0.37896 0-0.66001-0.09165-0.84375-0.27539s-0.27539-0.47698-0.27539-0.87891c0-0.22967 0.10797-0.99336 0.32617-2.291l1.7402-10.111h2.498l0.41406-2.4121h-2.498l1.1367-6.6484zm-33.074 2.0664c1.6881 0 3.1238 0.73517 4.3066 2.2051 1.1943 1.4584 1.793 3.4623 1.793 6.0117 0 2.3541-0.4195 4.5311-1.2578 6.5293-0.8383 1.9867-1.8728 3.4448-3.1016 4.375-1.2173 0.93018-2.4575 1.3945-3.7207 1.3945-1.6651 0-3.105-0.72908-4.3223-2.1875s-1.8262-3.4094-1.8262-5.8555c0-4.0422 0.95309-7.2416 2.8594-9.5957 1.5618-1.9178 3.3173-2.877 5.2695-2.877zm43.461 4.1699c-1.5158 0-3.0269 1.3828-4.5312 4.1504l0.63867-3.7383h-2.2578l-3.1348 18.295h2.4297l1.2734-7.3398c0.52825-3.1236 1.2593-5.2986 2.1894-6.5273 0.94166-1.2402 1.8826-1.8613 2.8242-1.8613 0.4938 0 0.96425 0.1955 1.4121 0.58594l1.0508-2.8926c-0.74644-0.44786-1.3778-0.67188-1.8945-0.67188zm8.9922 0c-2.492 0-4.4795 1.1364-5.9609 3.4102-1.4814 2.2738-2.2226 5.0577-2.2226 8.3535 0 2.2738 0.58038 4.072 1.7402 5.3926 1.1598 1.3091 2.6302 1.9629 4.4102 1.9629 1.3551 0 2.6462-0.44193 3.875-1.3262 1.2402-0.89573 2.2462-2.2337 3.0156-4.0137 0.78089-1.78 1.1719-3.8002 1.1719-6.0625 0-2.469-0.57015-4.371-1.707-5.7031-1.1369-1.3436-2.5768-2.0137-4.3223-2.0137zm-39.326 0.41211-1.8086 10.561c-0.32154 1.8604-0.48242 3.18-0.48242 3.9609 0 1.2288 0.36661 2.2328 1.1016 3.0137 0.74644 0.78088 1.6649 1.1719 2.7558 1.1719 1.8833 0 3.7283-1.2402 5.5312-3.7207l-0.57031 3.3086h2.3613l3.1348-18.295h-2.5488l-1.3613 7.9062c-0.31005 1.8489-0.67862 3.3253-1.1035 4.4277-0.41341 1.0909-1.0733 2.0033-1.9805 2.7383-0.89572 0.72347-1.7959 1.0859-2.7031 1.0859-0.64309 0-1.144-0.1833-1.5-0.55078-0.35599-0.37896-0.5332-0.93082-0.5332-1.6543 0-0.52825 0.08556-1.2798 0.25781-2.2559l1.998-11.697h-2.5488zm39.24 1.998c1.0106 0 1.8598 0.45411 2.5488 1.3613 0.68902 0.89572 1.0332 2.2174 1.0332 3.9629 0 1.6077-0.30347 3.1738-0.91211 4.7012-0.60863 1.5273-1.3214 2.625-2.1367 3.291-0.81534 0.65457-1.63 0.98047-2.4453 0.98047-1.0335 0-1.895-0.44193-2.584-1.3262-0.68902-0.88425-1.0332-2.1918-1.0332-3.9258 0-1.6996 0.28105-3.3023 0.84375-4.8066 0.57418-1.5158 1.2747-2.6013 2.1016-3.2559 0.8383-0.65457 1.6997-0.98242 2.584-0.98242z" stroke-width="1.3229" style="font-variant-caps:normal;font-variant-east-asian:normal;font-variant-ligatures:normal;font-variant-numeric:normal;text-orientation:upright"/>
  <path d="m391.44 307.94c-1.2846 0-2.3183 1.0336-2.3183 2.3183v66.802h-66.802c-1.2846 0-2.3183 1.0337-2.3183 2.3183v27.123c0 1.2846 1.0336 2.3183 2.3183 2.3183h66.802v66.8c0 1.2846 1.0336 2.3196 2.3183 2.3196h27.123c1.2846 0 2.3183-1.035 2.3183-2.3196v-66.8h66.8c1.2846 0 2.3196-1.0336 2.3196-2.3183v-27.123c0-1.2846-1.035-2.3183-2.3196-2.3183h-66.8v-66.802c0-1.2846-1.0337-2.3183-2.3183-2.3183z" stop-color="#000000" stroke-width="23.142"/>
  <path d="m423.99 32.247c-0.94604-0.0578-1.8285 0.55195-2.0838 1.5046l-17.257 64.399-8.6716-2.3237a1.9583 1.9583 0 0 0-2.4372 2.2186l5.5246 32.581a1.3988 1.3988 0 0 0 2.4557 0.65722l21.076-25.453a1.9583 1.9583 0 0 0 0.3861-0.75516 1.9583 1.9583 0 0 0-1.3882-2.3861l-8.673-2.3237 17.257-64.397c0.29174-1.0888-0.35061-2.2009-1.4394-2.4926l-4.3422-1.1625c-0.13608-0.0365-0.27224-0.0585-0.40738-0.0667zm-81.523 15.472c-4.7644 0-8.6247 3.8633-8.6247 8.6276 0 4.7643 3.8604 8.6276 8.6247 8.6276 4.7643 0 8.6276-3.8633 8.6276-8.6276 0-4.7643-3.8633-8.6276-8.6276-8.6276zm-7.4721 19.462a2.7856 2.7856 0 0 0-1.9688 0.8162l-12.995 12.995a4.3059 4.3059 0 0 0-1.1143 1.9291l-4.3933 16.399c-0.54003 2.0153 0.65759 4.0875 2.6729 4.6275 2.0153 0.54001 4.035-0.66895 4.575-2.6842l4.1733-15.572 7.898-7.898v28.756l-3.8738 14.456-14.112 24.443c-1.399 2.4232-0.55122 5.5281 1.8694 6.9256 1.6974 0.97999 3.7151 0.84674 5.2578-0.14337 0.10795-0.0695 0.22318-0.12498 0.32648-0.20298 0.26233-0.19806 0.50785-0.42384 0.73103-0.67568 0.0684-0.0769 0.13018-0.16087 0.19446-0.24272 0.0275-0.0332 0.0519-0.0621 0.0767-0.0951 0.0332-0.0437 0.0641-0.0884 0.0951-0.13343 0.0819-0.11591 0.16028-0.23499 0.23279-0.36055l14.203-24.601a8.7643 8.7643 0 0 0 0.87582-2.1136l2.7722-10.345 21.39 37.05c1.399 2.4231 4.4924 3.2521 6.9143 1.8538 2.4206-1.3976 3.2699-4.5024 1.8709-6.9256l-21.572-37.365v-25.887l4.5821 7.9391a4.3058 4.3058 0 0 0 1.577 1.5756l10.778 6.223 3.9248 2.2669c1.8068 1.0432 4.118 0.42 5.1612-1.3868 1.0431-1.8069 0.39733-4.0698-1.4095-5.113l-13.961-8.0598-10.077-17.452a1.9982 1.9982 0 0 0-1.7304-0.99931zm-29.999 90.306v8.9697h123.07v15.301h76.927v-8.964h-67.957v-15.306z" stop-color="#000000"/>
  <path d="m85.181 306.88c-15.079 0.0933-30.719 9.8841-30.51 26.815-30.763 2.1332-27.559 32.025-12.59 40.534-12.649 19.863-0.094 38.691 15.046 38.691h49.437c27.213 0 46.334-46.194 3.8388-65.253 8.2371-28.541-8.1321-40.893-25.222-40.787zm95.48 0.24448c-2.4666 0.0754-4.6996 0.85756-6.7192 1.8013-1.4126 0.65969-1.6984 3.0577 0.54799 2.7259 10.013-1.4788 18.064 10.769 18.064 10.769s11.74-5.8425 20.7 0.84868c2.3044 1.721 2.9008-1.0281 2.2201-1.9053-4.0426-5.2069-9.4218-10.661-20.47-6.205-5.477-6.3217-10.232-8.16-14.343-8.0344zm-5.7609 22.698c-4.4008-0.21322-9.2633 1.3693-14.636 6.4635-14.744-7.7027-22.119-2.9735-27.2 2.3915-1.3327 1.4073-0.56619 4.3105 1.88 2.903 10.905-6.2738 25.798 4.2209 25.798 4.2209s10.911-12.108 24.322-8.4531c3.4492 0.94009 2.887-2.5112 1.7002-3.2149-3.524-2.0893-7.4639-4.0976-11.865-4.3109zm-36.181 73.456v18.581h64.764v-18.581zm-57.399 17.364c-1.2627 0-2.2819 1.0161-2.2819 2.2791v27.335c0 1.2627 1.0188 2.2791 2.2819 2.2791h10.257c1.2626 0 2.2791-1.016 2.2791-2.2791v-27.335c0-1.2626-1.0161-2.2791-2.2791-2.2791zm48.08 6.9327v9.8977h13.953v15.063h9.9004v-15.063h35.501v15.063h9.9004v-15.063h15.802v-9.8977zm-102.12 37.258c-1.2626 0-2.2791 1.0188-2.2791 2.2819v9.7205c0 1.2628 1.0161 2.2791 2.2791 2.2791h195.44c1.2626 0 2.2819-1.0159 2.2819-2.2791v-9.7205c0-1.2626-1.0189-2.2819-2.2819-2.2819z" stroke-width=".94853"/>
</svg>
