<svg version="1.1" viewBox="0 0 810 530" xmlns="http://www.w3.org/2000/svg">
  <path id="water" d="m19.264 2.0254c-6.1609 0.26007-12.031 3.9141-14.977 9.3317-1.7793 3.1153-2.4353 6.7524-2.2863 10.31 0.00506 69.455-0.010114 138.91 0.00759 208.36 0.010172 6.3369 3.6395 12.5 9.1761 15.582 3.1518 1.8509 6.8598 2.5395 10.484 2.3859 69.455-5e-3 138.91 0.0101 208.36-8e-3 6.3369-0.0102 12.5-3.6395 15.582-9.176 1.8509-3.1518 2.5395-6.8598 2.3859-10.484-5e-3 -69.455 0.0101-138.91-8e-3 -208.36-0.0097649-6.3365-3.6391-12.5-9.1756-15.581-3.1518-1.8509-6.8598-2.5395-10.484-2.3859-69.455 0.00506-138.91-0.010114-208.36 0.00759-0.23467 0.00594-0.46934 0.01187-0.704 0.017806z" fill="#fff" stop-color="#000000"/>
  <path d="m103.19 203.67-2.6524 4.7383h2.1191l3.7539-4.7383h-3.2207zm-2.2559 6.3906-11.73 25.254h3.0312l3.3242-7.2695h8.3711l1 7.2695h2.6875l-3.4121-25.254h-3.2715zm1.2734 2.7559c0.08039 1.6881 0.27588 3.7837 0.58594 6.2871l0.79297 6.3398h-6.8379l3.4102-7.4766c0.9072-1.9867 1.5895-3.7034 2.0488-5.1504zm15.797 3.791c-1.1484 0-2.2908 0.43584-3.4277 1.3086-1.1254 0.86127-2.0907 2.1768-2.8945 3.9453-0.79237 1.757-1.1875 3.6327-1.1875 5.6309 0 2.5379 0.5153 4.4787 1.5488 5.8223 1.045 1.3321 2.3096 2 3.791 2 1.4929 0 2.9042-0.82267 4.2363-2.4648l-0.25782 1.4824c-0.39044 2.2508-0.82628 3.709-1.3086 4.375-0.68902 0.90721-1.7745 1.3613-3.2559 1.3613-0.95315 0-1.6537-0.20159-2.1016-0.60352-0.44786-0.40192-0.67188-0.99864-0.67188-1.791v-0.41406l-2.584-0.29297c-0.04593 0.34451-0.06836 0.65408-0.06836 0.92968 0 1.4699 0.47045 2.6246 1.4121 3.4629 0.95315 0.84979 2.3828 1.2754 4.2891 1.2754 2.0096 0 3.6002-0.73518 4.7715-2.2051 0.93017-1.1713 1.6246-3.0897 2.084-5.7539l3.0137-17.656h-2.3242l-0.51757 2.998c-1.068-2.2738-2.5832-3.4102-4.5469-3.4102zm32.918 0c-3.491 0-5.7821 1.8716-6.873 5.6152l2.584 0.27539c0.6316-2.2278 2.0083-3.3418 4.1328-3.3418 1.0565 0 1.8609 0.23425 2.4121 0.70508 0.5627 0.45934 0.84375 1.0743 0.84375 1.8438 0 0.55121-0.10189 1.264-0.3086 2.1367-0.37896 0.18374-0.83917 0.32024-1.3789 0.41211-0.52825 0.09187-1.5098 0.17938-2.9453 0.25976-1.6996 0.08038-3.009 0.35534-3.9277 0.82617-0.90721 0.45935-1.6138 1.1253-2.1191 1.998-0.50528 0.87275-0.75781 1.8951-0.75781 3.0664 0 1.6422 0.43583 2.9394 1.3086 3.8926 0.88424 0.95314 1.9941 1.4297 3.3262 1.4297 0.8498 0 1.6869-0.19963 2.5137-0.60156s1.7107-1.0983 2.6523-2.0859c0.05741 0.94166 0.16125 1.7012 0.31055 2.2754h2.5664c-0.19522-1.0335-0.29297-1.8664-0.29297-2.498 0-0.89573 0.13236-2.0667 0.39649-3.5137l0.82812-4.5488c0.22968-1.2977 0.34375-2.428 0.34375-3.3926 0-1.3666-0.50506-2.4988-1.5156-3.3945-1.0106-0.90721-2.3771-1.3594-4.0996-1.3594zm-21.635 0.41211-1.8086 10.561c-0.32154 1.8604-0.48242 3.18-0.48242 3.9609 0 1.2288 0.36661 2.2328 1.1016 3.0137 0.74644 0.78088 1.6649 1.1719 2.7559 1.1719 1.8833 0 3.7264-1.2402 5.5293-3.7207l-0.56836 3.3086h2.3594l3.1367-18.295h-2.5508l-1.3594 7.9062c-0.31006 1.8489-0.67862 3.3253-1.1035 4.4277-0.41341 1.0909-1.0733 2.0033-1.9805 2.7383-0.89572 0.72347-1.7979 1.0859-2.7051 1.0859-0.64308 0-1.142-0.1833-1.498-0.55078-0.356-0.37896-0.53321-0.93082-0.53321-1.6543 0-0.52825 0.08555-1.2798 0.25781-2.2559l1.998-11.697h-2.5488zm-11.232 2.1016c0.97611 0 1.809 0.4378 2.498 1.3106 0.7005 0.87276 1.0508 2.0784 1.0508 3.6172 0 1.5618-0.28715 3.0892-0.86133 4.582-0.57418 1.4814-1.2564 2.5425-2.0488 3.1856-0.79237 0.6316-1.5743 0.94726-2.3438 0.94726-0.57418 0-1.12-0.1955-1.6367-0.58594-0.50528-0.40192-0.90649-0.98645-1.2051-1.7558-0.28709-0.76941-0.43164-1.8385-0.43164-3.2051 0-1.0795 0.24229-2.3421 0.72461-3.7891 0.49379-1.4584 1.1251-2.5378 1.8945-3.2383 0.78088-0.71198 1.567-1.0684 2.3594-1.0684zm35.279 6.9258c-0.2871 1.9292-0.67199 3.3691-1.1543 4.3223-0.47083 0.95315-1.0858 1.6822-1.8438 2.1875-0.75792 0.50528-1.544 0.75781-2.3594 0.75781-0.86128 0-1.5516-0.26886-2.0684-0.80859s-0.77539-1.2749-0.77539-2.2051c0-0.67753 0.16088-1.2742 0.48242-1.791 0.32154-0.51677 0.76956-0.90166 1.3438-1.1543 0.57418-0.25264 1.6311-0.46032 3.1699-0.62109 1.5044-0.16077 2.5735-0.38892 3.2051-0.6875z" stroke-width="1.3229" style="font-variant-caps:normal;font-variant-east-asian:normal;font-variant-ligatures:normal;font-variant-numeric:normal;text-orientation:upright"/>
  <path id="sewage" d="m299.26 2.0254c-6.1609 0.26007-12.031 3.9141-14.977 9.3317-1.7793 3.1153-2.4353 6.7524-2.2863 10.31 5e-3 69.455-0.0101 138.91 8e-3 208.36 0.0102 6.3369 3.6395 12.5 9.176 15.582 3.1518 1.8509 6.8598 2.5395 10.484 2.3859 69.455-5e-3 138.91 0.0101 208.36-8e-3 6.3369-0.0102 12.5-3.6395 15.582-9.176 1.8509-3.1518 2.5395-6.8598 2.3859-10.484-5e-3 -69.455 0.0101-138.91-8e-3 -208.36-0.01017-6.3365-3.6395-12.5-9.176-15.581-3.1518-1.8509-6.8598-2.5395-10.484-2.3859-69.455 0.00506-138.91-0.010114-208.36 0.00759-0.23466 0.00594-0.46933 0.01187-0.704 0.017806z" fill="#fff" stop-color="#000000"/>
  <path d="m333.3 209.63c-2.2508 0-4.0246 0.61913-5.3223 1.8594-1.2862 1.2402-1.9297 2.8715-1.9297 4.8926 0 1.1599 0.2362 2.1924 0.70703 3.0996 0.48232 0.89573 1.2216 1.7184 2.2207 2.4648 0.55122 0.41341 1.596 1.0265 3.1348 1.8418 1.9867 1.045 3.2452 1.884 3.7734 2.5156 0.51676 0.64308 0.77539 1.4007 0.77539 2.2734 0 1.2402-0.46022 2.2789-1.3789 3.1172-0.91869 0.82683-2.165 1.2402-3.7383 1.2402-1.1369 0-2.1185-0.20573-2.9453-0.61914-0.81534-0.4249-1.3938-0.97067-1.7383-1.6367-0.45935-0.87276-0.68946-1.8707-0.68946-2.9961l0.01758-0.8457-2.7051 0.31055c0.01149 2.9628 0.68962 5.1398 2.0332 6.5293 1.3436 1.378 3.3129 2.0664 5.9082 2.0664 2.4001 0 4.3409-0.70056 5.8223-2.1016 1.4814-1.4125 2.2207-3.1761 2.2207-5.2891 0-1.0106-0.17111-1.9168-0.51563-2.7207-0.33302-0.81534-0.80957-1.5098-1.4297-2.084-0.60864-0.58567-1.7694-1.3433-3.4805-2.2734-2.3427-1.2632-3.813-2.1714-4.4102-2.7227s-0.89453-1.3373-0.89453-2.3594c0-1.1254 0.39099-2.0336 1.1719-2.7227 0.79238-0.68902 1.8942-1.0332 3.3066-1.0332 0.9876 0 1.8593 0.1955 2.6172 0.58594 0.75792 0.37896 1.3383 0.91864 1.7402 1.6191 0.41341 0.7005 0.62109 1.4581 0.62109 2.2734l-0.01758 0.56836 2.6875-0.25782 0.01758-0.5332c0-1.2862-0.32785-2.4918-0.98242-3.6172-0.64308-1.1254-1.5167-1.9807-2.6191-2.5664-1.1024-0.58567-2.4282-0.87891-3.9785-0.87891zm136.2 0.74023-2.9277 2.1524-0.77539 4.4961h-2.0156l-0.41211 2.4121h2.0156l-1.8106 10.629c-0.25264 1.4469-0.3789 2.3715-0.3789 2.7734 0 0.84979 0.27691 1.526 0.82812 2.0312 0.5627 0.50529 1.3203 0.75782 2.2734 0.75782 0.57418 0 1.1648-0.09775 1.7734-0.29297l0.44921-2.5488c-0.44786 0.13781-0.95292 0.20703-1.5156 0.20703-0.37896 0-0.66196-0.09165-0.8457-0.27539s-0.27539-0.47698-0.27539-0.87891c0-0.22967 0.10993-0.99336 0.32812-2.291l1.7402-10.111h2.4961l0.41406-2.4121h-2.498l1.1367-6.6484zm-119.17 6.2363c-3.491 0-5.7821 1.8716-6.873 5.6152l2.584 0.27539c0.63159-2.2278 2.0103-3.3418 4.1348-3.3418 1.0565 0 1.8609 0.23425 2.4121 0.70508 0.5627 0.45934 0.84375 1.0743 0.84375 1.8438 0 0.55121-0.10384 1.264-0.31055 2.1367-0.37896 0.18374-0.83722 0.32024-1.377 0.41211-0.52825 0.09187-1.5118 0.17938-2.9473 0.25976-1.6996 0.08038-3.0071 0.35534-3.9258 0.82617-0.9072 0.45935-1.6138 1.1253-2.1191 1.998-0.50528 0.87275-0.75781 1.8951-0.75781 3.0664 0 1.6422 0.43583 2.9394 1.3086 3.8926 0.88424 0.95314 1.9921 1.4297 3.3242 1.4297 0.84979 0 1.6888-0.19963 2.5156-0.60156 0.82682-0.40193 1.7107-1.0983 2.6523-2.0859 0.05741 0.94166 0.16126 1.7012 0.31055 2.2754h2.5664c-0.19522-1.0335-0.29296-1.8664-0.29296-2.498 0-0.89573 0.13235-2.0667 0.39648-3.5137l0.82617-4.5488c0.22968-1.2977 0.3457-2.428 0.3457-3.3926 0-1.3666-0.50701-2.4988-1.5176-3.3945-1.0106-0.90721-2.3771-1.3594-4.0996-1.3594zm17.898 0c-0.82682 0-1.6822 0.26277-2.5664 0.79102-0.88424 0.51676-1.8658 1.4535-2.9453 2.8086l0.5332-3.1875h-2.3086l-3.1348 18.295h2.5488l1.4648-8.5098c0.48232-2.8135 1.2338-4.7889 2.2559-5.9258 1.0335-1.1369 2.1943-1.7051 3.4805-1.7051 0.62011 0 1.1088 0.1833 1.4648 0.55078 0.36748 0.35599 0.55079 0.84887 0.55078 1.4805 0 0.53973-0.09774 1.3787-0.29296 2.5156l-1.998 11.594h2.5664l1.8945-11.076c0.25264-1.4469 0.3789-2.4936 0.3789-3.1367 0-1.4355-0.36247-2.5433-1.0859-3.3242-0.71199-0.78088-1.6468-1.1699-2.8066-1.1699zm14.229 0c-1.3666 0-2.6353 0.42974-3.8066 1.291-1.1713 0.84978-2.1651 2.2041-2.9805 4.0644-0.80386 1.8604-1.207 3.8643-1.207 6.0117 0 1.6307 0.26472 3.0379 0.79297 4.2207 0.52825 1.1713 1.241 2.0552 2.1367 2.6524 0.89572 0.58566 1.8895 0.8789 2.9805 0.8789 1.5388 0 2.9338-0.55601 4.1855-1.6699 1.5044-1.3206 2.4635-2.8724 2.877-4.6523l-2.498-0.3086c-0.47083 1.3206-1.1326 2.3308-1.9824 3.0312-0.83831 0.70051-1.6936 1.0508-2.5664 1.0508-0.91869 0-1.7048-0.44192-2.3594-1.3262-0.65457-0.89572-0.98243-2.2052-0.98243-3.9277 0-0.28709 0.01827-0.61494 0.05274-0.98242h11.059c0.12632-0.94166 0.18946-1.8601 0.18946-2.7559 0-2.4116-0.55187-4.277-1.6543-5.5977-1.091-1.3206-2.5023-1.9805-4.2363-1.9805zm16.242 0c-3.491 0-5.7821 1.8716-6.873 5.6152l2.584 0.27539c0.6316-2.2278 2.0103-3.3418 4.1348-3.3418 1.0565 0 1.8609 0.23425 2.4121 0.70508 0.5627 0.45934 0.84375 1.0743 0.84375 1.8438 0 0.55121-0.10384 1.264-0.31055 2.1367-0.37896 0.18374-0.83722 0.32024-1.377 0.41211-0.52825 0.09187-1.5118 0.17938-2.9473 0.25976-1.6996 0.08038-3.0071 0.35534-3.9258 0.82617-0.9072 0.45935-1.6139 1.1253-2.1191 1.998-0.50528 0.87275-0.75781 1.8951-0.75781 3.0664 0 1.6422 0.43584 2.9394 1.3086 3.8926 0.88425 0.95314 1.9921 1.4297 3.3242 1.4297 0.8498 0 1.6888-0.19963 2.5156-0.60156s1.7107-1.0983 2.6523-2.0859c0.05742 0.94166 0.16126 1.7012 0.31055 2.2754h2.5664c-0.19523-1.0335-0.29297-1.8664-0.29297-2.498 0-0.89573 0.13235-2.0667 0.39648-3.5137l0.82617-4.5488c0.22968-1.2977 0.34571-2.428 0.34571-3.3926 0-1.3666-0.50702-2.4988-1.5176-3.3945-1.0106-0.90721-2.3771-1.3594-4.0996-1.3594zm17.588 0c-0.83831 0-1.6305 0.23425-2.377 0.70508-0.74644 0.45935-1.614 1.3676-2.6016 2.7227l0.51758-3.0156h-2.5488l-3.1367 18.295h2.5508l1.498-8.6484c0.45935-2.6872 1.1945-4.6055 2.2051-5.7539 1.022-1.1598 2.1014-1.7383 3.2383-1.7383 0.47084 0 0.86182 0.17721 1.1719 0.5332 0.32154 0.35599 0.48242 0.83863 0.48242 1.4473 0 0.36747-0.07532 0.97028-0.22461 1.8086l-2.1191 12.352h2.5664l1.5156-8.873c0.34451-1.9752 0.74768-3.4151 1.207-4.3223 0.47083-0.91869 1.0961-1.6375 1.877-2.1543 0.78089-0.52825 1.5282-0.79101 2.2402-0.79101 0.53973 0 0.96947 0.16502 1.291 0.49805 0.32154 0.32154 0.48243 0.79394 0.48243 1.4141 0 0.43638-0.08556 1.1472-0.25782 2.1348l-2.0684 12.094h2.5508l2.0156-11.783c0.22967-1.2976 0.34375-2.2386 0.34375-2.8242 0-1.3321-0.33395-2.3483-1-3.0488-0.65457-0.7005-1.573-1.0508-2.7559-1.0508-0.93017 0-1.8201 0.28715-2.6699 0.86133-0.84979 0.5627-1.6522 1.418-2.4102 2.5664-0.2067-1.1139-0.62621-1.9651-1.2578-2.5508-0.6316-0.58567-1.4075-0.87696-2.3262-0.87696zm22.531 0c-1.3666 0-2.6353 0.42974-3.8066 1.291-1.1713 0.84978-2.1651 2.2041-2.9805 4.0644-0.80386 1.8604-1.2051 3.8643-1.2051 6.0117 0 1.6307 0.26276 3.0379 0.79102 4.2207 0.52824 1.1713 1.241 2.0552 2.1367 2.6524 0.89572 0.58566 1.8895 0.8789 2.9805 0.8789 1.5388 0 2.9338-0.55601 4.1856-1.6699 1.5044-1.3206 2.4635-2.8724 2.877-4.6523l-2.498-0.3086c-0.47083 1.3206-1.1307 2.3308-1.9805 3.0312-0.83831 0.70051-1.6936 1.0508-2.5664 1.0508-0.91869 0-1.7068-0.44192-2.3613-1.3262-0.65456-0.89572-0.98046-2.2052-0.98046-3.9277 0-0.28709 0.01631-0.61494 0.05078-0.98242h11.059c0.12632-0.94166 0.18945-1.8601 0.18945-2.7559 0-2.4116-0.54991-4.277-1.6523-5.5977-1.091-1.3206-2.5042-1.9805-4.2383-1.9805zm18.018 0c-0.82683 0-1.6822 0.26277-2.5664 0.79102-0.88424 0.51676-1.8658 1.4535-2.9453 2.8086l0.5332-3.1875h-2.3086l-3.1348 18.295h2.5508l1.4629-8.5098c0.48232-2.8135 1.2358-4.7889 2.2578-5.9258 1.0335-1.1369 2.1924-1.7051 3.4785-1.7051 0.62012 0 1.1088 0.1833 1.4648 0.55078 0.36748 0.35599 0.55078 0.84887 0.55078 1.4805 0 0.53973-0.09775 1.3787-0.29297 2.5156l-1.998 11.594h2.5664l1.8945-11.076c0.25264-1.4469 0.37891-2.4936 0.37891-3.1367 0-1.4355-0.36052-2.5433-1.084-3.3242-0.71199-0.78088-1.6488-1.1699-2.8086-1.1699zm22.393 0c-2.492 0-4.4776 1.1364-5.959 3.4102s-2.2227 5.0577-2.2227 8.3535c0 2.2738 0.58039 4.072 1.7402 5.3926 1.1598 1.3091 2.6302 1.9629 4.4102 1.9629 1.3551 0 2.6462-0.44193 3.875-1.3262 1.2402-0.89573 2.2443-2.2337 3.0137-4.0137 0.78088-1.78 1.1719-3.8002 1.1719-6.0625 0-2.469-0.5682-4.371-1.7051-5.7031-1.1369-1.3436-2.5787-2.0137-4.3242-2.0137zm-0.08594 2.4102c1.0106 0 1.8618 0.45411 2.5508 1.3613 0.68902 0.89572 1.0332 2.2174 1.0332 3.9629 0 1.6077-0.30542 3.1738-0.91406 4.7012-0.60863 1.5273-1.3194 2.625-2.1348 3.291-0.81534 0.65457-1.6319 0.98047-2.4473 0.98047-1.0335 0-1.895-0.44193-2.584-1.3262s-1.0332-2.1918-1.0332-3.9258c0-1.6996 0.28105-3.3023 0.84375-4.8066 0.57418-1.5158 1.2747-2.6013 2.1016-3.2559 0.83831-0.65457 1.6998-0.98242 2.584-0.98242zm-96.635 0.01758c0.99908 0 1.8198 0.40731 2.4629 1.2226 0.64309 0.81534 0.96485 2.0392 0.96485 3.6699v0.63672h-8.4219c0.44787-1.8489 1.118-3.2317 2.0137-4.1504 0.90721-0.91869 1.901-1.3789 2.9805-1.3789zm56.361 0c0.99907 0 1.8218 0.40731 2.4648 1.2226 0.64309 0.81534 0.96289 2.0392 0.96289 3.6699v0.63672h-8.4219c0.44787-1.8489 1.1199-3.2317 2.0156-4.1504 0.90721-0.91869 1.899-1.3789 2.9785-1.3789zm-86.127 7.0117c-0.2871 1.9292-0.67199 3.3691-1.1543 4.3223-0.47083 0.95315-1.0839 1.6822-1.8418 2.1875s-1.546 0.75781-2.3613 0.75781c-0.86127 0-1.5496-0.26886-2.0664-0.80859s-0.77539-1.2749-0.77539-2.2051c0-0.67753 0.16087-1.2742 0.48242-1.791 0.32154-0.51677 0.76956-0.90166 1.3438-1.1543 0.57418-0.25264 1.6311-0.46032 3.1699-0.62109 1.5044-0.16077 2.5715-0.38892 3.2031-0.6875zm48.369 0c-0.2871 1.9292-0.67199 3.3691-1.1543 4.3223-0.47083 0.95315-1.0839 1.6822-1.8418 2.1875s-1.546 0.75781-2.3613 0.75781c-0.86128 0-1.5496-0.26886-2.0664-0.80859-0.51676-0.53973-0.77539-1.2749-0.77539-2.2051 0-0.67753 0.16088-1.2742 0.48242-1.791 0.32155-0.51677 0.76957-0.90166 1.3438-1.1543s1.6311-0.46032 3.1699-0.62109c1.5044-0.16077 2.5715-0.38892 3.2031-0.6875z" stroke-width="1.3229" style="font-variant-caps:normal;font-variant-east-asian:normal;font-variant-ligatures:normal;font-variant-numeric:normal;text-orientation:upright"/>
  <path id="electricity" d="m579.26 2.0254c-6.1609 0.26007-12.031 3.9141-14.977 9.3317-1.7793 3.1153-2.4353 6.7524-2.2863 10.31 5e-3 69.455-0.0101 138.91 8e-3 208.36 0.0102 6.3369 3.6395 12.5 9.176 15.582 3.1518 1.8509 6.8598 2.5395 10.484 2.3859 69.455-5e-3 138.91 0.0101 208.36-8e-3 6.3369-0.0102 12.5-3.6395 15.582-9.176 1.8509-3.1518 2.5395-6.8598 2.3859-10.484-5e-3 -69.455 0.0101-138.91-8e-3 -208.36-0.01017-6.3365-3.6395-12.5-9.176-15.581-3.1518-1.8509-6.8598-2.5395-10.484-2.3859-69.455 0.00506-138.91-0.010114-208.36 0.00759-0.23466 0.00594-0.46933 0.01187-0.704 0.017806z" fill="#fff" stop-color="#000000"/>
  <path d="m606.34 210.06-4.3242 25.254h15.797l0.49805-2.8613h-13.039l1.5156-8.7832h11.852l0.48243-2.877h-11.852l1.3438-7.8555h12.195l0.48242-2.877h-14.951zm18.74 0-4.3223 25.254h2.5664l4.3242-25.254h-2.5684zm54.812 0-0.60351 3.5312h2.5508l0.60156-3.5312h-2.5488zm20.877 0-0.60351 3.5312h2.5508l0.60156-3.5312h-2.5488zm15.969 0-1.6894 9.8359c-0.94166-2.1934-2.3367-3.2891-4.1856-3.2891-1.1139 0-2.232 0.44193-3.3574 1.3262s-2.0743 2.261-2.8438 4.1328c-0.7694 1.8604-1.1543 3.9111-1.1543 6.1504 0 2.5034 0.48263 4.3811 1.4473 5.6328s2.1356 1.877 3.5137 1.877c1.6077 0 3.1351-1.0223 4.582-3.0664l-0.44726 2.6543h2.3594l4.3242-25.254h-2.5488zm32.246 0-1.6894 9.8359c-0.94166-2.1934-2.3367-3.2891-4.1856-3.2891-1.1139 0-2.232 0.44193-3.3574 1.3262s-2.0744 2.261-2.8438 4.1328c-0.76941 1.8604-1.1543 3.9111-1.1543 6.1504 0 2.5034 0.48264 4.3811 1.4473 5.6328 0.96463 1.2517 2.1356 1.877 3.5137 1.877 1.6077 0 3.1351-1.0223 4.582-3.0664l-0.44727 2.6543h2.3594l4.3242-25.254h-2.5488zm-84.061 0.31054-2.9277 2.1524-0.77539 4.4961h-2.0156l-0.41406 2.4121h2.0156l-1.8086 10.629c-0.25265 1.4469-0.37891 2.3715-0.37891 2.7734 0 0.84979 0.27496 1.526 0.82618 2.0312 0.5627 0.50529 1.3203 0.75782 2.2734 0.75782 0.57419 0 1.1668-0.09775 1.7754-0.29297l0.44727-2.5488c-0.44786 0.13781-0.95293 0.20703-1.5156 0.20703-0.37896 0-0.66001-0.09165-0.84375-0.27539s-0.27539-0.47698-0.27539-0.87891c0-0.22967 0.10799-0.99336 0.32618-2.291l1.7402-10.111h2.498l0.41406-2.4121h-2.498l1.1367-6.6484zm-29.025 6.2363c-1.3666 0-2.6353 0.42974-3.8066 1.291-1.1713 0.84978-2.1651 2.2041-2.9805 4.0644-0.80386 1.8604-1.2051 3.8643-1.2051 6.0117 0 1.6307 0.26472 3.0379 0.79297 4.2207 0.52825 1.1713 1.239 2.0552 2.1348 2.6524 0.89572 0.58566 1.8895 0.8789 2.9805 0.8789 1.5388 0 2.9338-0.55601 4.1855-1.6699 1.5044-1.3206 2.4635-2.8724 2.877-4.6523l-2.498-0.3086c-0.47083 1.3206-1.1307 2.3308-1.9805 3.0312-0.83831 0.70051-1.6936 1.0508-2.5664 1.0508-0.91869 0-1.7068-0.44192-2.3613-1.3262-0.65457-0.89572-0.98047-2.2052-0.98047-3.9277 0-0.28709 0.01631-0.61494 0.05078-0.98242h11.059c0.12632-0.94166 0.18946-1.8601 0.18946-2.7559 0-2.4116-0.54991-4.277-1.6524-5.5977-1.0909-1.3206-2.5042-1.9805-4.2383-1.9805zm16.176 0c-1.424 0-2.7232 0.42974-3.8945 1.291-1.1598 0.86127-2.1232 2.246-2.8926 4.1523-0.75792 1.9063-1.1367 4.0243-1.1367 6.3555 0 2.3771 0.51531 4.1916 1.5488 5.4434 1.045 1.2517 2.3606 1.877 3.9453 1.877 1.4699 0 2.8018-0.54991 3.9961-1.6523 1.1943-1.1139 2.1128-2.8144 2.7559-5.0996l-2.5664-0.32813c-0.4249 1.5733-1.0155 2.7462-1.7734 3.5156s-1.5501 1.1523-2.377 1.1523c-0.80385 0-1.4983-0.3788-2.084-1.1367-0.57419-0.7694-0.86133-1.8875-0.86133-3.3574 0-1.9752 0.26276-3.7734 0.79101-5.3926 0.53973-1.6307 1.1711-2.7446 1.8945-3.3418 0.73495-0.60864 1.5576-0.91211 2.4648-0.91211 0.81533 0 1.4976 0.32176 2.0488 0.96484 0.5627 0.6316 0.84375 1.544 0.84375 2.7383l2.5156-0.20703c0.01148-1.8833-0.47116-3.3639-1.4473-4.4434-0.97612-1.0795-2.2327-1.6191-3.7715-1.6191zm23.236 0c-1.5158 0-3.0269 1.3828-4.5312 4.1504l0.63867-3.7383h-2.2578l-3.1348 18.295h2.4297l1.2754-7.3398c0.52825-3.1236 1.2573-5.2986 2.1875-6.5273 0.94166-1.2402 1.8826-1.8613 2.8242-1.8613 0.4938 0 0.96425 0.19549 1.4121 0.58594l1.0508-2.8926c-0.74644-0.44786-1.3778-0.67188-1.8945-0.67188zm15.348 0c-1.424 0-2.7212 0.42974-3.8926 1.291-1.1598 0.86127-2.1251 2.246-2.8945 4.1523-0.75792 1.9063-1.1367 4.0243-1.1367 6.3555 0 2.3771 0.51725 4.1916 1.5508 5.4434 1.045 1.2517 2.3606 1.877 3.9453 1.877 1.4699 0 2.8018-0.54991 3.9961-1.6523 1.1943-1.1139 2.1128-2.8144 2.7559-5.0996l-2.5664-0.32813c-0.42489 1.5733-1.0175 2.7462-1.7754 3.5156s-1.5501 1.1523-2.377 1.1523c-0.80385 0-1.4983-0.3788-2.084-1.1367-0.57419-0.7694-0.86133-1.8875-0.86133-3.3574 0-1.9752 0.26472-3.7734 0.79297-5.3926 0.53973-1.6307 1.1711-2.7446 1.8945-3.3418 0.73496-0.60864 1.5557-0.91211 2.4629-0.91211 0.81534 0 1.4996 0.32176 2.0508 0.96484 0.5627 0.6316 0.84375 1.544 0.84375 2.7383l2.5137-0.20703c0.01148-1.8833-0.46921-3.3639-1.4453-4.4434-0.97611-1.0795-2.2346-1.6191-3.7734-1.6191zm37.07 0c-3.491 0-5.7821 1.8716-6.873 5.6152l2.584 0.27539c0.6316-2.2278 2.0083-3.3418 4.1328-3.3418 1.0565 0 1.8609 0.23425 2.4121 0.70508 0.56269 0.45934 0.84375 1.0743 0.84375 1.8438 0 0.55121-0.10385 1.264-0.31055 2.1367-0.37897 0.18374-0.83723 0.32024-1.377 0.41211-0.52826 0.09187-1.5099 0.17938-2.9453 0.25976-1.6996 0.08038-3.009 0.35534-3.9277 0.82617-0.90721 0.45935-1.6139 1.1253-2.1191 1.998-0.50528 0.87275-0.75781 1.8951-0.75781 3.0664 0 1.6422 0.43583 2.9394 1.3086 3.8926 0.88424 0.95314 1.9921 1.4297 3.3242 1.4297 0.84979 0 1.6888-0.19963 2.5156-0.60156 0.82682-0.40193 1.7107-1.0983 2.6523-2.0859 0.05742 0.94166 0.16126 1.7012 0.31055 2.2754h2.5664c-0.19522-1.0335-0.29297-1.8664-0.29297-2.498 0-0.89573 0.13237-2.0667 0.39649-3.5137l0.82617-4.5488c0.22967-1.2977 0.3457-2.428 0.3457-3.3926 0-1.3666-0.50506-2.4988-1.5156-3.3945-1.0106-0.90721-2.3771-1.3594-4.0996-1.3594zm32.125 0c-1.3666 0-2.6353 0.42974-3.8066 1.291-1.1713 0.84978-2.1651 2.2041-2.9805 4.0644-0.80385 1.8604-1.2051 3.8643-1.2051 6.0117 0 1.6307 0.26277 3.0379 0.79102 4.2207 0.52825 1.1713 1.241 2.0552 2.1367 2.6524 0.89572 0.58566 1.8895 0.8789 2.9805 0.8789 1.5388 0 2.9338-0.55601 4.1856-1.6699 1.5044-1.3206 2.4636-2.8724 2.877-4.6523l-2.498-0.3086c-0.47084 1.3206-1.1307 2.3308-1.9805 3.0312-0.83831 0.70051-1.6936 1.0508-2.5664 1.0508-0.91869 0-1.7068-0.44192-2.3613-1.3262-0.65457-0.89572-0.98046-2.2052-0.98046-3.9277 0-0.28709 0.01631-0.61494 0.05078-0.98242h11.059c0.12632-0.94166 0.18945-1.8601 0.18945-2.7559 0-2.4116-0.55187-4.277-1.6543-5.5977-1.091-1.3206-2.5023-1.9805-4.2363-1.9805zm-81.15 0.41211-3.1348 18.295h2.5508l3.1348-18.295h-2.5508zm20.879 0-3.1367 18.295h2.5508l3.1348-18.295h-2.5488zm-63.631 2.0156c0.99908 0 1.8198 0.40731 2.4629 1.2226 0.64308 0.81534 0.96484 2.0392 0.96484 3.6699v0.63672h-8.4238c0.44786-1.8489 1.1199-3.2317 2.0156-4.1504 0.9072-0.91869 1.901-1.3789 2.9805-1.3789zm123.95 0c0.99908 0 1.8218 0.40731 2.4648 1.2226 0.64309 0.81534 0.96289 2.0392 0.96289 3.6699v0.63672h-8.4219c0.44787-1.8489 1.1199-3.2317 2.0156-4.1504 0.90722-0.91869 1.8991-1.3789 2.9785-1.3789zm-48.902 0.13867c0.88424 0 1.6479 0.40122 2.291 1.2051 0.64309 0.80385 0.96485 1.9402 0.96485 3.4102 0 2.8594-0.62719 5.2707-1.8789 7.2344-0.95314 1.4699-2.002 2.2051-3.1504 2.2051-0.88425 0-1.597-0.37271-2.1367-1.1191-0.70051-0.96463-1.0508-2.2049-1.0508-3.7207l0.01758-0.74023c0-1.0335 0.2301-2.3206 0.68945-3.8594 0.45935-1.5388 1.0663-2.6915 1.8242-3.4609 0.75792-0.7694 1.5684-1.1543 2.4297-1.1543zm32.246 0c0.88424 0 1.6479 0.40122 2.291 1.2051 0.64308 0.80385 0.96484 1.9402 0.96484 3.4102 0 2.8594-0.62719 5.2707-1.8789 7.2344-0.95314 1.4699-2.002 2.2051-3.1504 2.2051-0.88424 0-1.597-0.37271-2.1367-1.1191-0.7005-0.96463-1.0508-2.2049-1.0508-3.7207l0.01758-0.74023c0-1.0335 0.23011-2.3206 0.68945-3.8594 0.45935-1.5388 1.0663-2.6915 1.8242-3.4609 0.75793-0.7694 1.5684-1.1543 2.4297-1.1543zm-13.109 6.873c-0.28709 1.9292-0.67198 3.3691-1.1543 4.3223-0.47084 0.95315-1.0839 1.6822-1.8418 2.1875s-1.546 0.75781-2.3613 0.75781c-0.86127 0-1.5496-0.26886-2.0664-0.80859-0.51677-0.53973-0.77539-1.2749-0.77539-2.2051 0-0.67753 0.16087-1.2742 0.48242-1.791 0.32154-0.51677 0.76957-0.90166 1.3438-1.1543s1.6311-0.46032 3.1699-0.62109c1.5044-0.16077 2.5715-0.38892 3.2031-0.6875z" stroke-width="1.3229" style="font-variant-caps:normal;font-variant-east-asian:normal;font-variant-ligatures:normal;font-variant-numeric:normal;text-orientation:upright"/>
  <path id="gas" d="m19.264 282.03c-6.1609 0.26007-12.031 3.9141-14.977 9.3317-1.7793 3.1153-2.4353 6.7524-2.2863 10.31 0.00506 69.455-0.010114 138.91 0.00759 208.36 0.010172 6.3369 3.6395 12.5 9.1761 15.582 3.1518 1.8509 6.8598 2.5395 10.484 2.3859 69.455-5e-3 138.91 0.0101 208.36-8e-3 6.3369-0.0102 12.5-3.6395 15.582-9.176 1.8509-3.1518 2.5395-6.8598 2.3859-10.484-5e-3 -69.455 0.0101-138.91-8e-3 -208.36-0.0102-6.3369-3.6395-12.5-9.176-15.582-3.1518-1.8509-6.8598-2.5395-10.484-2.3859-69.455 5e-3 -138.91-0.0101-208.36 8e-3 -0.23467 6e-3 -0.46934 0.0119-0.704 0.0178z" fill="#fff" stop-color="#000000"/>
  <path d="m111.21 489.63c-2.0211 0-3.8642 0.58453-5.5293 1.7559-1.6651 1.1713-3.054 3.0041-4.168 5.4961-1.1139 2.4805-1.6719 5.2522-1.6719 8.3184 0 3.0432 0.70665 5.5644 2.1191 7.5625 1.4125 1.9867 3.5834 2.9805 6.5117 2.9805 1.3551 0 2.7603-0.26472 4.2188-0.79297 1.4699-0.52824 2.8038-1.2512 3.998-2.1699l1.7559-10.283h-9.0781l-0.48242 2.8594h6.3047l-0.92969 5.4258c-2.0786 1.4469-4.0132 2.1699-5.8047 2.1699-1.757 0-3.1642-0.62523-4.2207-1.877-1.0565-1.2632-1.584-3.204-1.584-5.8223 0-2.6642 0.40732-4.9899 1.2227-6.9766 0.81534-1.9867 1.8601-3.457 3.1348-4.4102 1.2862-0.95314 2.6527-1.4297 4.0996-1.4297 1.4125 0 2.5835 0.44802 3.5137 1.3438 0.94166 0.89572 1.5628 2.2398 1.8613 4.0312l2.7207-0.36133c-0.37896-2.3656-1.0958-4.1394-2.1524-5.3223-1.4929-1.6651-3.4398-2.498-5.8398-2.498zm18.844 0.42969-2.6523 4.7383h2.1191l3.7559-4.7383h-3.2227zm-0.87695 6.5469c-3.491 0-5.7821 1.8716-6.873 5.6152l2.584 0.27539c0.63161-2.2278 2.0083-3.3418 4.1328-3.3418 1.0565 0 1.8609 0.23425 2.4121 0.70508 0.5627 0.45934 0.84375 1.0743 0.84375 1.8438 0 0.55121-0.10384 1.264-0.31055 2.1367-0.37896 0.18374-0.83722 0.32024-1.377 0.41211-0.52825 0.09187-1.5099 0.17938-2.9453 0.25976-1.6996 0.08039-3.009 0.35534-3.9277 0.82617-0.90721 0.45935-1.6138 1.1253-2.1191 1.998-0.50528 0.87275-0.75781 1.8951-0.75781 3.0664 0 1.6422 0.43583 2.9394 1.3086 3.8926 0.88424 0.95314 1.9921 1.4297 3.3242 1.4297 0.84979 0 1.6888-0.20159 2.5156-0.60351 0.82683-0.40194 1.7107-1.0964 2.6524-2.084 0.05741 0.94166 0.16126 1.7012 0.31054 2.2754h2.5664c-0.19522-1.0335-0.29297-1.8664-0.29297-2.498 0-0.89573 0.13236-2.0667 0.39649-3.5137l0.82617-4.5488c0.22967-1.2977 0.3457-2.428 0.3457-3.3926 0-1.3666-0.50506-2.4988-1.5156-3.3945-1.0106-0.90721-2.3771-1.3594-4.0996-1.3594zm15.088 0c-1.6077 0-2.905 0.49288-3.8926 1.4805s-1.4805 2.2461-1.4805 3.7734c0 0.74644 0.13237 1.4226 0.39649 2.0312 0.26412 0.59714 0.63072 1.1083 1.1016 1.5332 0.48231 0.41341 1.47 1.0101 2.9629 1.791 1.2976 0.67753 2.1428 1.2518 2.5332 1.7226 0.37896 0.47083 0.56836 1.0003 0.56836 1.5859 0 0.81534-0.30543 1.4874-0.91406 2.0156-0.60863 0.51676-1.4355 0.77343-2.4805 0.77343-1.1484 0-2.0546-0.36661-2.7207-1.1016-0.66604-0.73495-0.99389-1.8489-0.98242-3.3418l-2.5664 0.18946v0.34375c0 2.0096 0.54577 3.5655 1.6367 4.668 1.0909 1.1024 2.5939 1.6543 4.5117 1.6543 1.9063 0 3.3949-0.54577 4.4629-1.6367 1.0795-1.0909 1.6191-2.3943 1.6191-3.9102 0-1.3666-0.40317-2.5254-1.207-3.4785-0.52825-0.60863-1.7624-1.4252-3.7031-2.4473-1.2632-0.65457-2.0493-1.176-2.3594-1.5664-0.31006-0.37896-0.46485-0.83308-0.46485-1.3613 0-0.60863 0.25863-1.1422 0.77539-1.6016 0.51676-0.47083 1.1868-0.70703 2.0137-0.70703 1.0565 0 1.8955 0.31152 2.5156 0.93164 0.63159 0.62012 0.96553 1.504 1 2.6523l2.5137-0.20703c-0.04593-1.8259-0.58561-3.2433-1.6191-4.2539-1.0335-1.022-2.4407-1.5332-4.2207-1.5332zm-12.678 9.4395c-0.28709 1.9293-0.67198 3.3691-1.1543 4.3223-0.47084 0.95315-1.0839 1.6822-1.8418 2.1875s-1.544 0.75781-2.3594 0.75781c-0.86128 0-1.5516-0.26886-2.0684-0.80859s-0.7754-1.2749-0.7754-2.2051c0-0.67753 0.16089-1.2742 0.48243-1.791 0.32154-0.51677 0.76956-0.90166 1.3438-1.1543 0.57418-0.25264 1.6311-0.46032 3.1699-0.62109 1.5044-0.16077 2.5715-0.38892 3.2031-0.6875z" stroke-width="1.3229" style="font-variant-caps:normal;font-variant-east-asian:normal;font-variant-ligatures:normal;font-variant-numeric:normal;text-orientation:upright"/>
  <path id="other" d="m579.26 282.03c-6.1609 0.26007-12.031 3.9141-14.977 9.3317-1.7793 3.1153-2.4353 6.7524-2.2863 10.31 5e-3 69.455-0.0101 138.91 8e-3 208.36 0.0102 6.3369 3.6395 12.5 9.176 15.582 3.1518 1.8509 6.8598 2.5395 10.484 2.3859 69.455-5e-3 138.91 0.0101 208.36-8e-3 6.3369-0.0102 12.5-3.6395 15.582-9.176 1.8509-3.1518 2.5395-6.8598 2.3859-10.484-5e-3 -69.455 0.0101-138.91-8e-3 -208.36-0.0102-6.3369-3.6395-12.5-9.176-15.582-3.1518-1.8509-6.8598-2.5395-10.484-2.3859-69.455 5e-3 -138.91-0.0101-208.36 8e-3 -0.23466 6e-3 -0.46933 0.0119-0.704 0.0178z" fill="#fff" stop-color="#000000"/>
  <path d="m653.75 489.63c-2.9513 0-5.4542 1.279-7.5098 3.8398-2.3082 2.8824-3.4629 6.6377-3.4629 11.266 0 2.1934 0.40731 4.1524 1.2226 5.875 0.81534 1.7225 1.8601 3.0076 3.1348 3.8574 1.2862 0.84979 2.728 1.2754 4.3242 1.2754 1.8374 0 3.5888-0.58648 5.2539-1.7578 1.6651-1.1713 3.0438-2.9166 4.1348-5.2363 1.091-2.3312 1.6367-4.9257 1.6367-7.7852 0-3.5599-0.83901-6.3397-2.5156-8.3379-1.6651-1.9982-3.7383-2.9961-6.2188-2.9961zm32.953 0.74023-2.9297 2.1524-0.77539 4.4961h-2.0137l-0.41406 2.4121h2.0156l-1.8086 10.629c-0.25264 1.4469-0.37891 2.3715-0.37891 2.7734 0 0.84979 0.27495 1.526 0.82617 2.0312 0.5627 0.50529 1.3203 0.75782 2.2734 0.75782 0.57418 0 1.1668-0.09775 1.7754-0.29297l0.44727-2.5488c-0.44787 0.13781-0.95293 0.20703-1.5156 0.20703-0.37896 0-0.66001-0.09165-0.84375-0.27539s-0.27539-0.47698-0.27539-0.87891c0-0.22967 0.10799-0.99336 0.32617-2.291l1.7402-10.111h2.498l0.41211-2.4121h-2.4961l1.1367-6.6484zm-33.074 2.0664c1.6881 0 3.1238 0.73517 4.3066 2.2051 1.1943 1.4584 1.791 3.4623 1.791 6.0117 0 2.3541-0.41756 4.5311-1.2559 6.5293-0.83831 1.9867-1.8728 3.4448-3.1016 4.375-1.2173 0.93018-2.4575 1.3945-3.7207 1.3945-1.6651 0-3.107-0.72908-4.3242-2.1875-1.2173-1.4584-1.8242-3.4094-1.8242-5.8555 0-4.0422 0.95309-7.2416 2.8594-9.5957 1.5618-1.9178 3.3173-2.877 5.2695-2.877zm43.461 4.1699c-1.5158 0-3.0269 1.3828-4.5312 4.1504l0.63867-3.7383h-2.2578l-3.1348 18.295h2.4297l1.2734-7.3398c0.52824-3.1236 1.2573-5.2986 2.1875-6.5273 0.94166-1.2402 1.8845-1.8613 2.8262-1.8613 0.49379 0 0.96424 0.1955 1.4121 0.58594l1.0508-2.8926c-0.74643-0.44786-1.3778-0.67188-1.8945-0.67188zm8.9922 0c-2.492 0-4.4796 1.1364-5.9609 3.4102-1.4814 2.2738-2.2227 5.0577-2.2227 8.3535 0 2.2738 0.58039 4.072 1.7402 5.3926 1.1598 1.3091 2.6302 1.9629 4.4102 1.9629 1.3551 0 2.6463-0.44193 3.875-1.3262 1.2402-0.89573 2.2462-2.2337 3.0156-4.0137 0.78089-1.78 1.1699-3.8002 1.1699-6.0625 0-2.469-0.56819-4.371-1.7051-5.7031-1.1369-1.3436-2.5768-2.0137-4.3223-2.0137zm15.105 0c-1.6077 0-2.905 0.49288-3.8926 1.4805-0.9876 0.98759-1.4805 2.2461-1.4805 3.7734 0 0.74644 0.1304 1.4226 0.39453 2.0312 0.26412 0.59714 0.63269 1.1083 1.1035 1.5332 0.48232 0.41341 1.47 1.0101 2.9629 1.791 1.2977 0.67753 2.1408 1.2518 2.5312 1.7226 0.37896 0.47083 0.56836 1.0003 0.56836 1.5859 0 0.81534-0.30347 1.4874-0.91211 2.0156-0.60863 0.51676-1.4354 0.77343-2.4805 0.77343-1.1484 0-2.0566-0.36661-2.7227-1.1016-0.66603-0.73495-0.99194-1.8489-0.98047-3.3418l-2.5664 0.18946v0.34375c0 2.0096 0.54382 3.5655 1.6348 4.668 1.091 1.1024 2.5959 1.6543 4.5137 1.6543 1.9063 0 3.393-0.54577 4.4609-1.6367 1.0795-1.0909 1.6191-2.3943 1.6191-3.9102 0-1.3666-0.40122-2.5254-1.2051-3.4785-0.52825-0.60863-1.7624-1.4252-3.7031-2.4473-1.2632-0.65457-2.0493-1.176-2.3594-1.5664-0.31005-0.37896-0.4668-0.83308-0.4668-1.3613 0-0.60863 0.25864-1.1422 0.7754-1.6016 0.51676-0.47083 1.1888-0.70703 2.0156-0.70703 1.0565 0 1.8955 0.31152 2.5156 0.93164 0.63158 0.62012 0.96358 1.504 0.99804 2.6523l2.5156-0.20703c-0.04594-1.8259-0.58561-3.2433-1.6191-4.2539-1.0335-1.022-2.4407-1.5332-4.2207-1.5332zm-54.432 0.41211-1.8086 10.561c-0.32155 1.8604-0.48242 3.18-0.48242 3.9609 0 1.2288 0.36661 2.2328 1.1016 3.0137 0.74644 0.78088 1.6649 1.1719 2.7559 1.1719 1.8833 0 3.7264-1.2402 5.5293-3.7207l-0.56836 3.3086h2.3613l3.1348-18.295h-2.5508l-1.3594 7.9062c-0.31006 1.8489-0.67862 3.3253-1.1035 4.4277-0.41341 1.0909-1.0733 2.0033-1.9805 2.7383-0.89573 0.72347-1.7979 1.0859-2.7051 1.0859-0.64308 0-1.142-0.1833-1.498-0.55078-0.35599-0.37896-0.5332-0.93082-0.5332-1.6543 0-0.52825 0.08556-1.2798 0.25781-2.2559l1.998-11.697h-2.5488zm39.238 1.998c1.0106 0 1.8618 0.45411 2.5508 1.3613 0.68902 0.89572 1.0332 2.2174 1.0332 3.9629 0 1.6077-0.30543 3.1738-0.91406 4.7012-0.60864 1.5273-1.3194 2.625-2.1348 3.291-0.81534 0.65457-1.6319 0.98047-2.4473 0.98047-1.0335 0-1.893-0.44193-2.582-1.3262-0.68902-0.88425-1.0352-2.1918-1.0352-3.9258 0-1.6996 0.283-3.3023 0.8457-4.8066 0.57418-1.5158 1.2747-2.6013 2.1016-3.2559 0.83832-0.65457 1.6978-0.98242 2.582-0.98242z" stroke-width="1.3229" style="font-variant-caps:normal;font-variant-east-asian:normal;font-variant-ligatures:normal;font-variant-numeric:normal;text-orientation:upright"/>
  <path d="m671.44 307.94c-1.2846 0-2.3183 1.0336-2.3183 2.3183v66.802h-66.802c-1.2846 0-2.3183 1.0337-2.3183 2.3183v27.123c0 1.2846 1.0336 2.3183 2.3183 2.3183h66.802v66.8c0 1.2846 1.0336 2.3196 2.3183 2.3196h27.123c1.2846 0 2.3183-1.035 2.3183-2.3196v-66.8h66.8c1.2846 0 2.3196-1.0336 2.3196-2.3183v-27.123c0-1.2846-1.035-2.3183-2.3196-2.3183h-66.8v-66.802c0-1.2846-1.0337-2.3183-2.3183-2.3183z" stop-color="#000000" stroke-width="23.142"/>
  <path id="communication" d="m299.26 282.03c-6.1609 0.26007-12.031 3.9141-14.977 9.3317-1.7793 3.1153-2.4353 6.7524-2.2863 10.31 5e-3 69.455-0.0101 138.91 8e-3 208.36 0.0102 6.3369 3.6395 12.5 9.176 15.582 3.1518 1.8509 6.8598 2.5395 10.484 2.3859 69.455-5e-3 138.91 0.0101 208.36-8e-3 6.3369-0.0102 12.5-3.6395 15.582-9.176 1.8509-3.1518 2.5395-6.8598 2.3859-10.484-5e-3 -69.455 0.0101-138.91-8e-3 -208.36-0.0102-6.3369-3.6395-12.5-9.176-15.582-3.1518-1.8509-6.8598-2.5395-10.484-2.3859-69.455 5e-3 -138.91-0.0101-208.36 8e-3 -0.23466 6e-3 -0.46933 0.0119-0.704 0.0178z" fill="#fff" stop-color="#000000"/>
  <path d="m321.26 489.63c-3.2614 0-5.919 1.5661-7.9746 4.7012-1.8948 2.8824-2.8418 6.4096-2.8418 10.578 0 3.5714 0.7515 6.2698 2.2559 8.0957 1.5158 1.8259 3.4973 2.7383 5.9434 2.7383 1.9982 0 3.8351-0.73517 5.5117-2.2051 1.6881-1.4699 2.969-3.6856 3.8418-6.6484l-2.7402-0.46484c-0.51677 2.1015-1.423 3.7715-2.7207 5.0117-1.0565 1.0106-2.2865 1.5156-3.6875 1.5156-1.6307 0-2.9789-0.66594-4.0469-1.998-1.068-1.3436-1.6016-3.3353-1.6016-5.9766 0-3.3992 0.7515-6.3398 2.2559-8.8203 1.5044-2.492 3.4737-3.7383 5.9082-3.7383 2.7905 0 4.4564 1.8145 4.9961 5.4434l2.584-0.29297c-0.21819-2.5149-1.0348-4.466-2.4473-5.8555-1.401-1.3895-3.1463-2.084-5.2363-2.084zm85.111 0.42969-0.60351 3.5312h2.5508l0.60156-3.5312h-2.5488zm54.623 0.3457c-0.68902 0-1.2633 0.26277-1.7227 0.79102-0.44786 0.52825-0.82665 1.5506-1.1367 3.0664h1.7734c0.14929-0.97611 0.53418-1.4629 1.1543-1.4629 0.31006 0 1.1145 0.34418 2.4121 1.0332 0.57418 0.29858 1.0507 0.44727 1.4297 0.44727 0.67754 0 1.2803-0.32785 1.8086-0.98242 0.53973-0.65457 0.86149-1.5833 0.96484-2.7891h-1.707c-0.18373 0.90721-0.52182 1.3594-1.0156 1.3594-0.26413 0-0.78747-0.21182-1.5684-0.63672-0.7005-0.36747-1.1995-0.59758-1.498-0.68945-0.28708-0.09187-0.58447-0.13672-0.89453-0.13672zm-122.7 6.2012c-2.492 0-4.4796 1.1364-5.9609 3.4102s-2.2227 5.0577-2.2227 8.3535c0 2.2738 0.58039 4.072 1.7402 5.3926 1.1598 1.3091 2.6302 1.9629 4.4102 1.9629 1.3551 0 2.6462-0.44193 3.875-1.3262 1.2402-0.89573 2.2462-2.2337 3.0156-4.0137 0.78088-1.78 1.1699-3.8002 1.1699-6.0625 0-2.469-0.5682-4.371-1.7051-5.7031-1.1369-1.3436-2.5768-2.0137-4.3223-2.0137zm17.604 0c-0.83831 0-1.6305 0.23425-2.377 0.70508-0.74644 0.45935-1.614 1.3676-2.6016 2.7227l0.51757-3.0156h-2.5488l-3.1367 18.295h2.5508l1.498-8.6484c0.45935-2.6872 1.1945-4.6055 2.2051-5.7539 1.022-1.1598 2.1014-1.7383 3.2383-1.7383 0.47084 0 0.86182 0.17721 1.1719 0.5332 0.32154 0.35599 0.48242 0.83863 0.48242 1.4473 0 0.36747-0.07532 0.97028-0.22461 1.8086l-2.1191 12.352h2.5664l1.5156-8.8711c0.34451-1.9752 0.74769-3.417 1.207-4.3242 0.47083-0.91869 1.0961-1.6375 1.877-2.1543 0.78088-0.52825 1.5282-0.79101 2.2402-0.79101 0.53973 0 0.96948 0.16502 1.291 0.49805 0.32154 0.32154 0.48242 0.79394 0.48242 1.4141 0 0.43638-0.08555 1.1472-0.25781 2.1348l-2.0684 12.094h2.5508l2.0156-11.783c0.22968-1.2976 0.34375-2.2386 0.34375-2.8242 0-1.3321-0.33394-2.3483-1-3.0488-0.65456-0.7005-1.573-1.0508-2.7559-1.0508-0.93017 0-1.8201 0.28715-2.6699 0.86133-0.84979 0.5627-1.6522 1.418-2.4102 2.5664-0.2067-1.1139-0.62621-1.9651-1.2578-2.5508-0.6316-0.58567-1.4075-0.87696-2.3262-0.87696zm40.549 0c-0.82682 0-1.6822 0.26277-2.5664 0.79102-0.88424 0.51676-1.8658 1.4535-2.9453 2.8086l0.5332-3.1875h-2.3086l-3.1348 18.295h2.5508l1.4629-8.5098c0.48231-2.8135 1.2358-4.7889 2.2578-5.9258 1.0335-1.1369 2.1923-1.7051 3.4785-1.7051 0.62012 0 1.1088 0.1833 1.4648 0.55078 0.36748 0.35599 0.55078 0.84887 0.55078 1.4805 0 0.53973-0.09775 1.3787-0.29297 2.5156l-1.998 11.594h2.5664l1.8945-11.076c0.25264-1.4469 0.37891-2.4936 0.37891-3.1367 0-1.4355-0.36052-2.5433-1.084-3.3242-0.71198-0.78088-1.6487-1.1699-2.8086-1.1699zm20.688 0c-1.424 0-2.7212 0.42974-3.8926 1.291-1.1598 0.86127-2.1251 2.246-2.8945 4.1523-0.75793 1.9063-1.1367 4.0243-1.1367 6.3555 0 2.3771 0.51725 4.1916 1.5508 5.4434 1.045 1.2517 2.3606 1.877 3.9453 1.877 1.4699 0 2.8018-0.54991 3.9961-1.6523 1.1943-1.1139 2.1128-2.8144 2.7559-5.0996l-2.5664-0.32813c-0.4249 1.5733-1.0175 2.7462-1.7754 3.5156-0.75792 0.76941-1.5501 1.1523-2.377 1.1523-0.80386 0-1.4983-0.3788-2.084-1.1367-0.57418-0.7694-0.86132-1.8875-0.86132-3.3574 0-1.9752 0.26472-3.7734 0.79296-5.3926 0.53974-1.6307 1.1711-2.7446 1.8945-3.3418 0.73495-0.60864 1.5557-0.91211 2.4629-0.91211 0.81534 0 1.4996 0.32176 2.0508 0.96484 0.5627 0.6316 0.84375 1.544 0.84375 2.7383l2.5156-0.20703c0.01149-1.8833-0.47115-3.3639-1.4473-4.4434-0.97612-1.0795-2.2346-1.6191-3.7734-1.6191zm14.539 0c-3.491 0-5.7821 1.8716-6.873 5.6152l2.584 0.27539c0.6316-2.2278 2.0083-3.3418 4.1328-3.3418 1.0565 0 1.8609 0.23425 2.4121 0.70508 0.56269 0.45934 0.84375 1.0743 0.84375 1.8438 0 0.55121-0.10189 1.264-0.30859 2.1367-0.37897 0.18374-0.83918 0.32024-1.3789 0.41211-0.52825 0.09187-1.5099 0.17938-2.9453 0.25976-1.6996 0.08038-3.009 0.35534-3.9277 0.82617-0.90721 0.45935-1.6139 1.1253-2.1191 1.998-0.50528 0.87275-0.75781 1.8951-0.75781 3.0664 0 1.6422 0.43779 2.9394 1.3106 3.8926 0.88424 0.95314 1.9921 1.4297 3.3242 1.4297 0.84978 0 1.6868-0.19963 2.5137-0.60156 0.82682-0.40193 1.7126-1.0983 2.6543-2.0859 0.05742 0.94166 0.15931 1.7012 0.3086 2.2754h2.5664c-0.19521-1.0335-0.29296-1.8664-0.29296-2.498 0-0.89573 0.13236-2.0667 0.39648-3.5137l0.82813-4.5488c0.22967-1.2977 0.34375-2.428 0.34375-3.3926 0-1.3666-0.50506-2.4988-1.5156-3.3945-1.0106-0.90721-2.3771-1.3594-4.0996-1.3594zm16.055 0c-1.424 0-2.7232 0.42974-3.8945 1.291-1.1599 0.86127-2.1232 2.246-2.8926 4.1523-0.75792 1.9063-1.1367 4.0243-1.1367 6.3555 0 2.3771 0.5153 4.1916 1.5488 5.4434 0.75626 0.90585 1.6564 1.4782 2.6953 1.7285l-0.47266 2.3027c0.7809 0.01148 1.3552 0.14798 1.7227 0.41211 0.37896 0.27561 0.56836 0.61565 0.56836 1.0176 0 0.36748-0.17721 0.66485-0.5332 0.89453-0.356 0.22967-0.98319 0.3457-1.8789 0.3457-0.79237 0-1.4746-0.01827-2.0488-0.05273l-0.31054 1.9297c0.68902 0.13781 1.4934 0.20704 2.4121 0.20704 1.6766 0 2.8986-0.28105 3.668-0.84375 0.76941-0.5627 1.1543-1.2979 1.1543-2.2051 0-0.74644-0.23011-1.39-0.68945-1.9297-0.44787-0.52825-1.067-0.8622-1.8594-1l0.2168-0.97852c1.1955-0.14916 2.2952-0.67893 3.2969-1.6035 1.1943-1.1139 2.1128-2.8144 2.7558-5.0996l-2.5664-0.32813c-0.4249 1.5733-1.0155 2.7462-1.7734 3.5156-0.75792 0.76941-1.5501 1.1523-2.377 1.1523-0.80386 0-1.4983-0.3788-2.084-1.1367-0.57418-0.7694-0.86133-1.8875-0.86133-3.3574 0-1.9752 0.26277-3.7734 0.79102-5.3926 0.53973-1.6307 1.1711-2.7446 1.8945-3.3418 0.73496-0.60864 1.5576-0.91211 2.4648-0.91211 0.81534 0 1.4976 0.32176 2.0488 0.96484 0.5627 0.6316 0.84375 1.544 0.84375 2.7383l2.5156-0.20703c0.01149-1.8833-0.47115-3.3639-1.4473-4.4434-0.97611-1.0795-2.2327-1.6191-3.7715-1.6191zm14.52 0c-2.492 0-4.4776 1.1364-5.959 3.4102-1.4814 2.2738-2.2227 5.0577-2.2227 8.3535 0 2.2738 0.58038 4.072 1.7402 5.3926 1.1598 1.3091 2.6302 1.9629 4.4102 1.9629 1.3551 0 2.6462-0.44193 3.875-1.3262 1.2402-0.89573 2.2443-2.2337 3.0137-4.0137 0.78089-1.78 1.1719-3.8002 1.1719-6.0625 0-2.469-0.5682-4.371-1.7051-5.7031-1.1369-1.3436-2.5787-2.0137-4.3242-2.0137zm16.02 0c-1.3666 0-2.6353 0.42974-3.8066 1.291-1.1713 0.84978-2.1632 2.2041-2.9785 4.0644-0.80386 1.8604-1.207 3.8643-1.207 6.0117 0 1.6307 0.26473 3.0379 0.79297 4.2207 0.52826 1.1713 1.241 2.0552 2.1367 2.6524 0.89573 0.58566 1.8876 0.8789 2.9785 0.8789 1.5388 0 2.9338-0.55601 4.1855-1.6699 1.5044-1.3206 2.4636-2.8724 2.877-4.6523l-2.498-0.3086c-0.47083 1.3206-1.1307 2.3308-1.9805 3.0312-0.83831 0.70051-1.6936 1.0508-2.5664 1.0508-0.91869 0-1.7048-0.44192-2.3594-1.3262-0.65457-0.89572-0.98242-2.2052-0.98242-3.9277 0-0.28709 0.01827-0.61494 0.05273-0.98242h11.059c0.12632-0.94166 0.18945-1.8601 0.18945-2.7559 0-2.4116-0.55186-4.277-1.6543-5.5977-1.0909-1.3206-2.5042-1.9805-4.2383-1.9805zm15.211 0c-1.6077 0-2.905 0.49288-3.8926 1.4805s-1.4824 2.2461-1.4824 3.7734c0 0.74644 0.13236 1.4226 0.39648 2.0312 0.26413 0.59714 0.63269 1.1083 1.1035 1.5332 0.48231 0.41341 1.47 1.0101 2.9629 1.791 1.2976 0.67753 2.1408 1.2518 2.5312 1.7226 0.37896 0.47083 0.56836 1.0003 0.56836 1.5859 0 0.81534-0.30348 1.4874-0.91211 2.0156-0.60864 0.51676-1.4355 0.77343-2.4805 0.77343-1.1484 0-2.0566-0.36661-2.7227-1.1016-0.66603-0.73495-0.99193-1.8489-0.98046-3.3418l-2.5684 0.18946v0.34375c0 2.0096 0.54577 3.5675 1.6367 4.6699 1.091 1.1024 2.5959 1.6523 4.5137 1.6523 1.9063 0 3.393-0.54577 4.4609-1.6367 1.0795-1.0909 1.6191-2.3943 1.6192-3.9102 0-1.3666-0.40123-2.5254-1.2051-3.4785-0.52825-0.60863-1.7624-1.4252-3.7031-2.4473-1.2632-0.65457-2.0513-1.176-2.3613-1.5664-0.31006-0.37896-0.46484-0.83308-0.46484-1.3613 0-0.60863 0.25862-1.1422 0.77539-1.6016 0.51676-0.47083 1.1888-0.70703 2.0156-0.70703 1.0565 0 1.8955 0.31152 2.5156 0.93164 0.63159 0.62012 0.96358 1.504 0.99805 2.6523l2.5156-0.20703c-0.04593-1.8259-0.5856-3.2434-1.6191-4.2539-1.0335-1.022-2.4407-1.5332-4.2207-1.5332zm-120.44 0.41211-1.8086 10.561c-0.32155 1.8604-0.48242 3.18-0.48242 3.9609 0 1.2287 0.36855 2.2328 1.1035 3.0137 0.74644 0.78088 1.6649 1.1719 2.7559 1.1719 1.8833 0 3.7264-1.2402 5.5293-3.7207l-0.56836 3.3086h2.3594l3.1348-18.295h-2.5488l-1.3613 7.9062c-0.31006 1.8489-0.67667 3.3253-1.1016 4.4277-0.41341 1.0909-1.0733 2.0033-1.9805 2.7383-0.89572 0.72347-1.7979 1.0859-2.7051 1.0859-0.64308 0-1.142-0.1833-1.498-0.55078-0.356-0.37896-0.53516-0.93082-0.53516-1.6543 0-0.52825 0.08751-1.2798 0.25977-2.2559l1.998-11.697h-2.5508zm32.145 0-3.1367 18.295h2.5508l3.1348-18.295h-2.5488zm-66.973 1.998c1.0106 0 1.8598 0.45411 2.5488 1.3613 0.68902 0.89572 1.0332 2.2174 1.0332 3.9629 0 1.6077-0.30348 3.1738-0.91211 4.7012-0.60864 1.5273-1.3214 2.625-2.1367 3.291-0.81534 0.65457-1.63 0.98047-2.4453 0.98047-1.0335 0-1.895-0.44193-2.584-1.3262s-1.0352-2.1918-1.0352-3.9258c0-1.6996 0.283-3.3023 0.8457-4.8066 0.57419-1.5158 1.2747-2.6013 2.1016-3.2559 0.83831-0.65457 1.6997-0.98242 2.584-0.98242zm123.95 0c1.0106 0 1.8618 0.45411 2.5508 1.3613 0.68902 0.89572 1.0332 2.2174 1.0332 3.9629 0 1.6077-0.30543 3.1738-0.91407 4.7012-0.60863 1.5273-1.3194 2.625-2.1348 3.291-0.81534 0.65457-1.6319 0.98047-2.4473 0.98047-1.0335 0-1.895-0.44193-2.584-1.3262s-1.0332-2.1918-1.0332-3.9258c0-1.6996 0.28105-3.3023 0.84375-4.8066 0.57418-1.5158 1.2747-2.6013 2.1016-3.2559 0.8383-0.65457 1.6997-0.98242 2.584-0.98242zm16.158 0.01758c0.99908 0 1.8198 0.40731 2.4629 1.2226 0.64308 0.81534 0.96484 2.0392 0.96484 3.6699v0.63672h-8.4238c0.44787-1.8489 1.1199-3.2317 2.0156-4.1504 0.9072-0.91869 1.901-1.3789 2.9805-1.3789zm-44.234 7.0117c-0.28709 1.9292-0.67198 3.3691-1.1543 4.3223-0.47083 0.95315-1.0858 1.6822-1.8438 2.1875s-1.544 0.75781-2.3594 0.75781c-0.86127 0-1.5516-0.26886-2.0684-0.80859s-0.77344-1.2749-0.77344-2.2051c0-0.67753 0.15892-1.2742 0.48047-1.791 0.32154-0.51677 0.76957-0.90166 1.3438-1.1543 0.57419-0.25264 1.6311-0.46032 3.1699-0.62109 1.5044-0.16077 2.5735-0.38892 3.2051-0.6875z" stroke-width="1.3229" style="font-variant-caps:normal;font-variant-east-asian:normal;font-variant-ligatures:normal;font-variant-numeric:normal;text-orientation:upright"/>
  <path d="m42 195.91c0-0.99126 1.35-10.755 3-21.698 1.65-10.942 3-20.031 3-20.198 0-0.1663 3.3546-0.30236 7.4547-0.30236h7.4547l0.56614 3.25c1.7071 9.7998 5.5245 36.303 5.5245 38.356v2.3941h-13.5c-12.34 0-13.5-0.15496-13.5-1.8023zm-0.79998-53.398c-0.68039-0.68036-1.2-3.9388-1.2-7.5247 0-5.7194 0.22488-6.4103 2.3511-7.2186 1.9021-0.72318 2.4644-1.8512 2.9448-5.9069 0.77873-6.5752 3.8287-12.373 9.3112-17.702 6.4224-6.2418 13.046-8.4478 25.365-8.4478 11.055 0 13.986-0.77359 17.566-4.6358 1.9127-2.0638 2.4617-3.7388 2.4617-7.5101 0-4.6496-0.11792-4.854-2.8-4.854-4.1715 0-5.2-1.7066-5.2-8.6286 0-8.9228 0.67362-9.3714 14.071-9.3714h10.929v-9.5h14v9.5h10.943c10.175 0 11.053 0.15609 12.5 2.2225 1.7751 2.5343 2.0906 10.911 0.5215 13.843-0.71766 1.341-2.0979 1.9342-4.5 1.9342-3.9604 0-3.9956 0.0729-1.9479 4.0328 2.5672 4.9644 5.9173 5.9673 19.933 5.9673h12.55v31h-12.351c-14.043 0-17.141 0.77223-24.149 6.0201-7.5546 5.657-11.342 7.2356-18.608 7.7555-8.4458 0.60431-15.134-1.5279-22.124-7.0534-6.9581-5.5-10.587-6.6264-21.518-6.6783-7.9521-0.0378-9.5306 0.23659-11.25 1.9561-2.3604 2.3604-2.6213 5.8243-0.49999 6.6384 1.8788 0.72095 2.1248 12.337 0.30009 14.162-1.6692 1.6692-27.931 1.6692-29.6 0zm154.74-9.2715c-4.6406-2.524-5.0728-5.1133-4.9785-29.825 0.0525-13.765 0.50256-23.705 1.126-24.87 1.8428-3.4432 7.0169-5.8256 12.661-5.8297l5.25-4e-3v62l-5.75-0.0401c-3.1625-0.0227-6.9012-0.66618-8.3083-1.4315zm-75.849-89.618c-1.3242-0.52951-4.138-2.526-6.2529-4.4366-3.5297-3.1889-4.3608-3.4739-10.131-3.4739-4.3114 0-7.5178 0.6282-10.209 2-2.1576 1.1-5.0993 2-6.5371 2-5.901 0-9.2335-8.7294-4.9629-13 2.4237-2.4237 7.6593-2.6273 10.81-0.42039 1.302 0.91192 5.359 1.8143 9.5984 2.1349l7.3433 0.55536 4.6791-4.3131c4.1185-3.7963 5.2556-4.3217 9.4896-4.3849 4.3146-0.0646 5.2859 0.36623 9.4226 4.1781 4.3256 3.986 4.9707 4.2486 10.384 4.228 3.5731-0.0151 7.4331-0.7756 10.132-2 5.7517-2.6099 9.2921-2.5104 11.967 0.33638 2.8882 3.0744 2.8262 7.7244-0.14022 10.511-2.8829 2.7083-6.591 2.7649-11.424 0.17423-2.5931-1.3898-5.6421-2-9.9935-2-5.7375 0-6.5825 0.28951-10.09 3.4582-5.701 5.1505-9.4086 6.3224-14.086 4.4523z"/>
  <path d="m731.8 17-88.2 97.2 39.6-1.8-48.6 84.6 100.8-111.6h-45z"/>
  <path d="m324.76 187.69c-3.5623-0.67918-6.0867-2.1448-10.454-6.0691-2.6369-2.3695-5.248-3.7305-7.6204-3.9717l-1.6859-0.17149v-2.5326c0-1.9249 0.091-2.5675 0.37854-2.6779 0.20825-0.08 1.432 0.0365 2.7195 0.25871 3.8864 0.67068 6.3591 2.0937 11.5 6.618 1.0775 0.94825 2.7554 2.1014 3.7286 2.5626 1.6623 0.78768 1.9585 0.83853 4.8857 0.83853 3.056 0 3.1548-0.0194 5.1253-1.003 1.1356-0.56693 2.8813-1.7836 4.0152-2.7985 3.0105-2.6945 4.5447-3.8493 6.2729-4.7216 5.0789-2.5638 11.737-2.3114 16.61 0.62981 0.80177 0.48391 2.5832 1.868 3.9587 3.0758 1.3755 1.2078 3.0238 2.5747 3.6628 3.0376 3.2404 2.3473 8.9441 2.5512 12.533 0.44811 0.66103-0.38738 2.3891-1.7506 3.8402-3.0293 3.3752-2.9743 5.375-4.253 7.8984-5.0503 2.6702-0.84375 5.0592-1.0667 7.7779-0.72576 3.9878 0.50002 6.8585 1.9942 11.011 5.7313 3.1673 2.8503 5.6166 4.1917 8.1185 4.4462l1.686 0.17146v2.6591c0 3.0802 0.25922 2.9029-3.3145 2.2658-3.5192-0.62738-5.6754-1.823-9.7684-5.4167-4.0045-3.516-5.7958-4.4219-9.1715-4.6385-2.4917-0.15987-4.9767 0.36205-6.7937 1.4269-0.62827 0.36817-2.4435 1.8079-4.0339 3.1993-1.5904 1.3915-3.5153 2.908-4.2777 3.37-5.2078 3.1563-12.358 3.1654-17.669 0.0228-0.96433-0.57065-2.7852-1.9669-4.0462-3.1028-4.6575-4.1952-5.9546-4.806-10.264-4.8332-3.0645-0.0194-3.1485-4e-3 -5.1252 0.97429-1.1656 0.57654-2.8378 1.7405-3.9815 2.7714-4.0844 3.6817-6.1402 5.0022-9.2228 5.924-2.0718 0.61951-5.9195 0.76389-8.2938 0.31119zm-1.1281-20.263c-2.3292-0.64656-4.7438-1.967-6.7022-3.6651-5.6406-4.8911-6.8272-5.6166-10.109-6.1811l-1.8208-0.31315v-5.0699l1.0116 5e-3c1.5454 7e-3 4.5343 0.71058 6.1369 1.4443 1.7623 0.80681 3.6067 2.1611 6.6088 4.8525 1.2611 1.1306 2.9763 2.4203 3.8116 2.866 3.1448 1.6782 8.0868 1.7093 11.108 0.0699 0.75011-0.40705 2.4038-1.6555 3.675-2.7743 4.453-3.9193 6.2582-5.0481 9.2919-5.8101l1.7862-0.44868 0.025-19.592c0.0156-10.775 7e-3 -21.388-0.0188-23.583-0.0554-5.0924 0.25453-6.1609 2.4154-8.3216 1.0007-1.0008 1.8933-1.6294 2.5869-1.822 1.0327-0.28675 40.847-0.45714 40.847-0.17484 0 0.0672-0.14103 0.43136-0.31303 0.80926l-0.31307 0.68707-15.265 6e-3c-8.3958 3e-3 -16.03 0.1161-16.966 0.2514-4.833 0.69886-8.8122 4.409-10.14 9.4542-0.32298 1.2273-0.39462 4.9836-0.41475 21.743l-0.025 20.26 1.9589 0.17298c1.0774 0.0951 2.2927 0.24831 2.7007 0.34038l0.7418 0.16738v-20.805c0-20.651 3e-3 -20.814 0.57326-22.025 0.71205-1.5148 2.8776-3.446 4.371-3.898 0.84998-0.25722 4.5818-0.33345 15.259-0.31163 7.7736 0.016 14.193 0.0883 14.266 0.16092 0.0726 0.0726-0.065 0.43292-0.30612 0.80068l-0.43812 0.66867-21.763 0.1632-2.2887 1.1345c-3.6593 1.8138-5.9198 4.4553-6.878 8.037-0.28393 1.0612-0.3615 5.1579-0.36404 19.214l-3e-3 17.865 1.0302 0.5256c0.56663 0.28908 1.6555 1.0199 2.4198 1.624 0.76424 0.60412 1.4508 1.0984 1.5256 1.0984 0.0747 0 0.16948-8.8309 0.21013-19.624l0.0741-19.624 0.59568-1.1136c0.79307-1.4826 2.7409-3.1594 4.1765-3.5952 1.4153-0.4297 16.403-0.70895 16.403-0.30562 0 0.14008-0.31982 0.50626-0.71074 0.81375-0.6267 0.49297-1.0825 0.55908-3.8547 0.55908-1.9528 0-3.7447 0.15647-4.7297 0.41304-4.6928 1.2223-8.2978 4.9175-9.2814 9.5136-0.20951 0.97966-0.30582 6.7652-0.30582 18.386v16.957l0.84771 0.71329c3.3149 2.7893 8.677 3.3496 12.694 1.3263 1.3858-0.69795 3.7095-2.4821 5.6103-4.3077 4.13-3.9666 10.398-5.7552 16.006-4.5671 3.3294 0.70544 5.7538 2.1019 9.374 5.3996 0.97726 0.89017 2.468 2.091 3.3128 2.6686 1.5155 1.036 4.4354 2.0521 5.8973 2.0521h0.74764v5.1252h-1.4171c-1.6819 0-4.4618-0.75169-6.4231-1.7368-1.6296-0.81849-3.0177-1.8491-5.1078-3.7924-2.1194-1.9705-4.4256-3.6098-5.7219-4.0671-3.56-1.256-7.5458-0.94277-10.45 0.82134-0.86559 0.52583-2.5883 1.8755-3.8282 2.9994-4.9483 4.485-7.9044 5.7756-13.229 5.7756-5.4467 0-8.4456-1.3113-13.62-5.9552-3.9886-3.5799-6.0381-4.4224-10.338-4.2497-2.309 0.0927-2.8296 0.21019-4.3488 0.98131-0.94917 0.4818-3.06 2.0314-4.6907 3.4437-5.3466 4.6303-7.484 5.57-12.946 5.6918-2.5055 0.0558-3.9249-0.0379-4.9711-0.32824zm47.829-38.009c-0.34034-0.88693 0.0901-4.6051 0.66318-5.7284l0.55346-1.0849 2.7796-0.14927c3.3963-0.18243 6.2544-1.0379 9.1188-2.7294 9.8713-5.8294 16.958-19.673 18.628-36.39 0.41819-4.1858 0.1898-14.496-0.40466-18.267-1.5429-9.7887-4.6345-17.977-9.2532-24.507-1.7407-2.4611-5.4772-6.1417-7.7765-7.6602-2.204-1.4556-5.3715-2.7924-7.6012-3.208-0.85271-0.15894-2.9463-0.23324-4.6525-0.16506-2.6234 0.10481-3.451 0.25399-5.3627 0.96663-6.667 2.4853-12.548 8.5323-16.592 17.06-3.962 8.3544-5.8944 17.626-5.8992 28.304-2e-3 6.9089 0.40262 10.259 2.2575 18.639l0.33408 1.5094-1.1106 1.0033c-0.61081 0.55183-1.4317 1.5512-1.8241 2.2209-0.39243 0.66966-0.74736 1.1777-0.78872 1.129-0.23578-0.27786-1.8151-6.4494-2.2661-8.8555-1.1056-5.8982-1.253-7.7918-1.2394-15.915 0.0156-8.7353 0.3418-11.816 1.9828-18.675 4.6155-19.291 15.521-32.595 28.389-34.633 12.608-1.9969 25.059 7.8647 31.715 25.119 3.9062 10.126 5.4386 19.357 5.1272 30.886-0.38355 14.201-4.093 27.122-10.571 36.821-4.851 7.2627-10.434 11.827-17.003 13.899-2.6312 0.82993-8.9349 1.112-9.2036 0.41179zm20.128-0.16269c10.701-8.5017 17.744-21.53 20.625-38.155 1.024-5.9089 1.3103-10.278 1.1476-17.515-0.34997-15.563-4.114-28.686-11.374-39.653-2.9943-4.5232-7.2685-9.1411-10.298-11.126-0.35227-0.23079-0.64045-0.53816-0.64045-0.68301 0-0.16847 3.2311-0.21935 8.9692-0.14118 7.1414 0.0973 9.3161 0.21242 10.672 0.56484 6.598 1.7156 13.125 6.7706 17.86 13.831 4.9398 7.3669 8.6069 17.404 10.088 27.612 1.5679 10.806 0.76684 24.023-2.0353 33.584-1.5432 5.2651-2.672 8.1692-4.8233 12.409-5.2865 10.418-12.814 17.301-21.088 19.285-2.0074 0.48125-3.1671 0.53715-11.011 0.53081l-8.7669-7e-3 0.67438-0.53577zm42.081-11.95c0-0.06 0.43514-0.82158 0.96703-1.6926 1.6784-2.7489 4.3419-8.4772 5.4832-11.793 6.0133-17.469 6.0079-38.329-0.0156-55.693-1.0676-3.0781-4.3277-10.101-5.7535-12.393l-0.71294-1.1464h24.776c27.131 0 26.164-0.0529 29.462 1.6118 4.5116 2.2774 8.471 6.8752 11.737 13.629 3.7321 7.718 5.4209 16.048 5.3864 26.57-0.0218 6.3448-0.39033 9.5929-1.734 15.241-3.0349 12.756-9.6248 22.151-17.534 24.996l-1.7534 0.63067-25.154 0.074c-13.835 0.0408-25.154 0.025-25.154-0.0348zm-81.178-26.07c-1.132-4.842-1.4184-7.3761-1.5546-13.757-0.14383-6.7403 0.12977-10.052 1.3042-15.78 1.3495-6.5833 4.529-14.029 7.9021-18.505 4.1206-5.468 8.5556-8.2532 13.608-8.5456 3.8071-0.22035 6.8534 0.78674 10.322 3.4124 1.6104 1.2191 4.2792 3.9514 4.2792 4.3809 0 0.0958-0.43145 0.88694-0.95877 1.758-3.1413 5.1889-5.7878 13.226-7.0505 21.41-0.36513 2.3669-0.47967 4.7644-0.48323 10.116-7e-3 7.1624 0.17229 9.2295 1.2548 14.648 0.30518 1.5286 0.50968 2.8248 0.45412 2.8804-0.0557 0.0556-6.5 0.14018-14.321 0.18799l-14.22 0.0869zm34.252 0.87669c-3.1896-12.645-2.1697-29.049 2.4778-39.856 1.3871-3.2251 2.1284-4.7206 2.3401-4.7206 0.25452 0 2.4871 4.6574 3.3756 7.0424 0.86183 2.3133 2.1924 7.7472 2.734 11.166 0.59074 3.7281 0.81137 12.739 0.41009 16.746-0.27547 2.7502-1.3399 8.92-1.7997 10.431-0.12946 0.42517-0.59422 0.47207-4.6792 0.47207h-4.5356z" stroke-width=".26975"/>
  <path d="m376.4 290.75c-1.652 0-2.9403 0.58073-3.8633 1.7441-1.1169 1.4116-1.6758 3.7226-1.6758 6.9336 0 3.2731 0.50935 5.5503 1.5254 6.8301 1.016 1.272 2.3539 1.9082 4.0137 1.9082 1.652 0 2.9384-0.58268 3.8613-1.7461 1.1169-1.4116 1.6758-3.7305 1.6758-6.957 0-3.2343-0.55494-5.5492-1.6641-6.9453-0.93073-1.1789-2.221-1.7676-3.873-1.7676zm20.057 0c-0.37229 1.0393-1.058 1.9491-2.0586 2.7324-1.0005 0.77561-1.9281 1.3028-2.7812 1.582v2.9668c1.621-0.53516 3.0282-1.3597 4.2227-2.4766v12.32h3.2695v-17.125h-2.6524zm19.871 0c-0.3723 1.0393-1.0581 1.9491-2.0586 2.7324-1.0005 0.77561-1.9281 1.3028-2.7812 1.582v2.9668c1.621-0.53516 3.0282-1.3597 4.2227-2.4766v12.32h3.2695v-17.125h-2.6523zm19.686 0c-1.652 0-2.9403 0.58073-3.8633 1.7441-1.1169 1.4116-1.6758 3.7226-1.6758 6.9336 0 3.2731 0.50935 5.5503 1.5254 6.8301 1.016 1.272 2.3539 1.9082 4.0137 1.9082 1.652 0 2.9384-0.58268 3.8613-1.7461 1.1169-1.4116 1.6758-3.7305 1.6758-6.957 0-3.2343-0.55493-5.5492-1.6641-6.9453-0.93072-1.1789-2.221-1.7676-3.873-1.7676zm-59.613 2.709c0.39556 0 0.74439 0.12882 1.0469 0.38476 0.31024 0.2482 0.56592 0.74766 0.76758 1.5 0.20166 0.74458 0.30273 2.1181 0.30273 4.1191s-0.11296 3.4202-0.33789 4.2578c-0.17063 0.65151-0.41046 1.1054-0.7207 1.3613-0.31025 0.2482-0.66304 0.37305-1.0586 0.37305s-0.74835-0.12485-1.0586-0.37305c-0.30249-0.24819-0.55615-0.74369-0.75781-1.4883-0.20166-0.75234-0.30078-2.1298-0.30078-4.1309s0.11101-3.4241 0.33593-4.2695c0.17064-0.6515 0.41241-1.1014 0.72266-1.3496 0.31024-0.25594 0.66303-0.38476 1.0586-0.38476zm59.613 0c0.39556 0 0.74439 0.12882 1.0469 0.38476 0.31025 0.2482 0.56592 0.74766 0.76758 1.5 0.20166 0.74458 0.30273 2.1181 0.30273 4.1191s-0.11296 3.4202-0.33789 4.2578c-0.17063 0.65151-0.41045 1.1054-0.7207 1.3613-0.31024 0.2482-0.66304 0.37305-1.0586 0.37305-0.39555 0-0.74834-0.12485-1.0586-0.37305-0.30249-0.24819-0.55615-0.74369-0.75781-1.4883-0.20165-0.75234-0.30078-2.1298-0.30078-4.1309s0.11101-3.4241 0.33594-4.2695c0.17063-0.6515 0.41241-1.1014 0.72265-1.3496 0.31025-0.25594 0.66304-0.38476 1.0586-0.38476zm-59.613 27.074c-1.652 0-2.9403 0.58072-3.8633 1.7441-1.1169 1.4116-1.6758 3.7226-1.6758 6.9336 0 3.2731 0.50935 5.5503 1.5254 6.8301 1.016 1.272 2.3539 1.9082 4.0137 1.9082 1.652 0 2.9384-0.58268 3.8613-1.7461 1.1169-1.4116 1.6758-3.7305 1.6758-6.957 0-3.2343-0.55494-5.5492-1.6641-6.9453-0.93073-1.1789-2.221-1.7676-3.873-1.7676zm20.057 0c-0.37229 1.0393-1.058 1.949-2.0586 2.7324-1.0005 0.77561-1.9281 1.3048-2.7812 1.584v2.9648c1.621-0.53518 3.0282-1.3597 4.2227-2.4766v12.32h3.2695v-17.125h-2.6524zm19.686 0c-1.652 0-2.9403 0.58072-3.8633 1.7441-1.1169 1.4116-1.6758 3.7226-1.6758 6.9336 0 3.2731 0.50934 5.5503 1.5254 6.8301 1.016 1.272 2.3539 1.9082 4.0137 1.9082 1.652 0 2.9384-0.58268 3.8613-1.7461 1.1169-1.4116 1.6758-3.7305 1.6758-6.957 0-3.2343-0.55494-5.5492-1.6641-6.9453-0.93073-1.1789-2.221-1.7676-3.873-1.7676zm19.871 0c-1.652 0-2.9403 0.58072-3.8633 1.7441-1.1169 1.4116-1.6758 3.7226-1.6758 6.9336 0 3.2731 0.50935 5.5503 1.5254 6.8301 1.016 1.272 2.3539 1.9082 4.0137 1.9082 1.652 0 2.9384-0.58268 3.8613-1.7461 1.1169-1.4116 1.6758-3.7305 1.6758-6.957 0-3.2343-0.55493-5.5492-1.6641-6.9453-0.93072-1.1789-2.221-1.7676-3.873-1.7676zm-59.613 2.7109c0.39556 0 0.74439 0.12686 1.0469 0.38282 0.31024 0.24819 0.56592 0.74766 0.76758 1.5 0.20166 0.74458 0.30273 2.1181 0.30273 4.1191s-0.11296 3.4202-0.33789 4.2578c-0.17063 0.65151-0.41046 1.1054-0.7207 1.3613-0.31025 0.24819-0.66304 0.37305-1.0586 0.37305s-0.74835-0.12486-1.0586-0.37305c-0.30249-0.2482-0.55615-0.7437-0.75781-1.4883-0.20166-0.75234-0.30078-2.1298-0.30078-4.1309s0.11101-3.4241 0.33593-4.2695c0.17064-0.65152 0.41241-1.1014 0.72266-1.3496 0.31024-0.25596 0.66303-0.38282 1.0586-0.38282zm39.742 0c0.39556 0 0.74439 0.12686 1.0469 0.38282 0.31024 0.24819 0.56591 0.74766 0.76757 1.5 0.20166 0.74458 0.30274 2.1181 0.30274 4.1191s-0.11297 3.4202-0.33789 4.2578c-0.17064 0.65151-0.41046 1.1054-0.72071 1.3613-0.31022 0.24819-0.66303 0.37305-1.0586 0.37305-0.39557 0-0.74835-0.12486-1.0586-0.37305-0.30249-0.2482-0.55615-0.7437-0.75782-1.4883-0.20165-0.75234-0.30078-2.1298-0.30078-4.1309s0.11101-3.4241 0.33594-4.2695c0.17063-0.65152 0.41241-1.1014 0.72266-1.3496 0.31024-0.25596 0.66302-0.38282 1.0586-0.38282zm19.871 0c0.39556 0 0.74439 0.12686 1.0469 0.38282 0.31025 0.24819 0.56592 0.74766 0.76758 1.5 0.20166 0.74458 0.30273 2.1181 0.30273 4.1191s-0.11296 3.4202-0.33789 4.2578c-0.17063 0.65151-0.41045 1.1054-0.7207 1.3613-0.31024 0.24819-0.66304 0.37305-1.0586 0.37305-0.39555 0-0.74834-0.12486-1.0586-0.37305-0.30249-0.2482-0.55615-0.7437-0.75781-1.4883-0.20165-0.75234-0.30078-2.1298-0.30078-4.1309s0.11101-3.4241 0.33594-4.2695c0.17063-0.65152 0.41241-1.1014 0.72265-1.3496 0.31025-0.25596 0.66304-0.38282 1.0586-0.38282zm-37.861 20.514v29.164h-65.496v54.285h14.43v-39.857h58.283 58.277v39.857h14.43v-54.285h-65.494v-29.164h-14.43zm41.881 87.406c-0.3723 1.0393-1.0581 1.949-2.0586 2.7324-1.0005 0.7756-1.9281 1.3048-2.7812 1.584v2.9668c1.621-0.53517 3.0282-1.3616 4.2227-2.4785v12.32h3.2695v-17.125h-2.6523zm19.686 0c-1.652 0-2.9403 0.58072-3.8633 1.7441-1.1169 1.4116-1.6758 3.7226-1.6758 6.9336 0 3.2731 0.50934 5.5503 1.5254 6.8301 1.016 1.272 2.3539 1.9082 4.0137 1.9082 1.652 0 2.9384-0.58269 3.8613-1.7461 1.1169-1.4116 1.6758-3.7305 1.6758-6.957 0-3.2343-0.55494-5.5492-1.6641-6.9453-0.93073-1.1789-2.221-1.7676-3.873-1.7676zm20.057 0c-0.37228 1.0393-1.058 1.949-2.0586 2.7324-1.0005 0.7756-1.9281 1.3048-2.7812 1.584v2.9668c1.621-0.53517 3.0282-1.3616 4.2227-2.4785v12.32h3.2695v-17.125h-2.6524zm19.686 0c-1.652 0-2.9403 0.58072-3.8633 1.7441-1.1169 1.4116-1.6758 3.7226-1.6758 6.9336 0 3.2731 0.50934 5.5503 1.5254 6.8301 1.016 1.272 2.3539 1.9082 4.0137 1.9082 1.652 0 2.9384-0.58269 3.8613-1.7461 1.1169-1.4116 1.6758-3.7305 1.6758-6.957 0-3.2343-0.55494-5.5492-1.6641-6.9453-0.93074-1.1789-2.221-1.7676-3.873-1.7676zm-188.93 0.89453c-1.652 0-2.9384 0.58268-3.8613 1.7461-1.1169 1.4116-1.6758 3.7226-1.6758 6.9336 0 3.2731 0.50739 5.5503 1.5234 6.8301 1.016 1.272 2.3539 1.9062 4.0137 1.9062 1.652 0 2.9403-0.58072 3.8633-1.7441 1.1169-1.4116 1.6758-3.7305 1.6758-6.957 0-3.2343-0.55494-5.5492-1.6641-6.9453-0.93073-1.1789-2.223-1.7695-3.875-1.7695zm19.871 0c-1.652 0-2.9384 0.58268-3.8613 1.7461-1.1169 1.4116-1.6758 3.7226-1.6758 6.9336 0 3.2731 0.50739 5.5503 1.5234 6.8301 1.016 1.272 2.3539 1.9062 4.0137 1.9062 1.652 0 2.9403-0.58072 3.8633-1.7441 1.1169-1.4116 1.6758-3.7305 1.6758-6.957 0-3.2343-0.55495-5.5492-1.6641-6.9453-0.93072-1.1789-2.223-1.7695-3.875-1.7695zm20.059 0c-0.3723 1.0393-1.06 1.951-2.0606 2.7344-1.0005 0.77562-1.9261 1.3028-2.7793 1.582v2.9668c1.621-0.53517 3.0282-1.3616 4.2227-2.4785v12.32h3.2695v-17.125h-2.6523zm19.871 0c-0.37229 1.0393-1.06 1.951-2.0606 2.7344-1.0005 0.77562-1.9261 1.3028-2.7793 1.582v2.9668c1.621-0.53517 3.0282-1.3616 4.2226-2.4785v12.32h3.2695v-17.125h-2.6523zm89.383 1.8164c0.39556 0 0.74439 0.12686 1.0469 0.38282 0.31024 0.24819 0.56592 0.74961 0.76758 1.502 0.20165 0.74459 0.30273 2.1161 0.30273 4.1172s-0.11296 3.4202-0.33789 4.2578c-0.17063 0.65151-0.41046 1.1054-0.7207 1.3613-0.31025 0.24819-0.66304 0.37304-1.0586 0.37304s-0.74835-0.12485-1.0586-0.37304c-0.30249-0.2482-0.55615-0.7437-0.75781-1.4883-0.20166-0.75234-0.30274-2.1298-0.30274-4.1309s0.11297-3.4241 0.33789-4.2695c0.17064-0.65152 0.41241-1.1014 0.72266-1.3496 0.31024-0.25596 0.66303-0.38282 1.0586-0.38282zm39.742 0c0.39556 0 0.74439 0.12686 1.0469 0.38282 0.31024 0.24819 0.56591 0.74961 0.76757 1.502 0.20166 0.74459 0.30274 2.1161 0.30274 4.1172s-0.11297 3.4202-0.33789 4.2578c-0.17064 0.65151-0.41047 1.1054-0.72071 1.3613-0.31024 0.24819-0.66303 0.37304-1.0586 0.37304s-0.74835-0.12485-1.0586-0.37304c-0.3025-0.2482-0.55616-0.7437-0.75782-1.4883-0.20166-0.75234-0.30273-2.1298-0.30273-4.1309s0.11296-3.4241 0.33789-4.2695c0.17063-0.65152 0.41241-1.1014 0.72266-1.3496 0.31024-0.25596 0.66303-0.38282 1.0586-0.38282zm-188.93 0.89453c0.39556 1e-5 0.74439 0.12882 1.0469 0.38477 0.31025 0.24819 0.56788 0.74765 0.76954 1.5 0.20165 0.74458 0.30078 2.1181 0.30078 4.1191s-0.11101 3.4202-0.33594 4.2578c-0.17063 0.65152-0.41242 1.1054-0.72266 1.3613-0.31024 0.2482-0.66303 0.37305-1.0586 0.37305s-0.74835-0.12485-1.0586-0.37305c-0.30249-0.24819-0.5542-0.74565-0.75586-1.4902-0.20166-0.75234-0.30274-2.1278-0.30274-4.1289s0.11297-3.4241 0.33789-4.2695c0.17064-0.65151 0.41046-1.1014 0.72071-1.3496 0.31024-0.25595 0.66303-0.38476 1.0586-0.38477zm19.871 0c0.39556 1e-5 0.74439 0.12882 1.0469 0.38477 0.31024 0.24819 0.56788 0.74765 0.76953 1.5 0.20166 0.74458 0.30273 2.1181 0.30273 4.1191s-0.11296 3.4202-0.33789 4.2578c-0.17063 0.65152-0.41241 1.1054-0.72265 1.3613-0.31024 0.2482-0.66304 0.37305-1.0586 0.37305s-0.74834-0.12485-1.0586-0.37305c-0.30249-0.24819-0.5542-0.74565-0.75586-1.4902-0.20165-0.75234-0.30273-2.1278-0.30273-4.1289s0.11296-3.4241 0.33789-4.2695c0.17063-0.65151 0.41046-1.1014 0.7207-1.3496 0.31025-0.25595 0.66303-0.38476 1.0586-0.38477zm109.44 26.178c-1.652 0-2.9403 0.58073-3.8633 1.7441-1.1169 1.4116-1.6758 3.7226-1.6758 6.9336 0 3.2731 0.50934 5.5503 1.5254 6.8301 1.016 1.272 2.3539 1.9082 4.0137 1.9082 1.652-1e-5 2.9384-0.58269 3.8613-1.7461 1.1169-1.4116 1.6758-3.7305 1.6758-6.957 0-3.2343-0.55494-5.5492-1.6641-6.9453-0.93073-1.1789-2.221-1.7676-3.873-1.7676zm20.057 0c-0.37229 1.0393-1.0581 1.951-2.0586 2.7344-1.0005 0.77561-1.9281 1.3028-2.7812 1.582v2.9668c1.621-0.53516 3.0282-1.3616 4.2226-2.4785v12.32h3.2695v-17.125h-2.6523zm19.871 0c-0.37228 1.0393-1.058 1.951-2.0586 2.7344-1.0005 0.77561-1.9281 1.3028-2.7812 1.582v2.9668c1.621-0.53516 3.0282-1.3616 4.2227-2.4785v12.32h3.2695v-17.125h-2.6524zm19.871 0c-0.3723 1.0393-1.0581 1.951-2.0586 2.7344-1.0005 0.77561-1.9281 1.3028-2.7812 1.582v2.9668c1.621-0.53516 3.0282-1.3616 4.2227-2.4785v12.32h3.2695v-17.125h-2.6523zm-188.92 0.89453c-0.37229 1.0393-1.06 1.951-2.0606 2.7344-1.0005 0.7756-1.9261 1.3028-2.7793 1.582v2.9668c1.621-0.53516 3.0282-1.3616 4.2226-2.4785v12.322h3.2695v-17.127h-2.6523zm19.684 0c-1.652 0-2.9384 0.58268-3.8613 1.7461-1.1169 1.4116-1.6758 3.7226-1.6758 6.9336 0 3.2731 0.50739 5.5503 1.5234 6.8301 1.016 1.272 2.3539 1.9082 4.0137 1.9082 1.652 0 2.9403-0.58268 3.8633-1.7461 1.1169-1.4116 1.6758-3.7305 1.6758-6.957 0-3.2343-0.55495-5.5492-1.6641-6.9453-0.93072-1.1789-2.223-1.7695-3.875-1.7695zm20.059 0c-0.3723 1.0393-1.06 1.951-2.0606 2.7344-1.0005 0.7756-1.9261 1.3028-2.7793 1.582v2.9668c1.621-0.53516 3.0282-1.3616 4.2227-2.4785v12.322h3.2695v-17.127h-2.6523zm19.684 0c-1.652 0-2.9384 0.58268-3.8613 1.7461-1.1169 1.4116-1.6758 3.7226-1.6758 6.9336 0 3.2731 0.50739 5.5503 1.5234 6.8301 1.016 1.272 2.3539 1.9082 4.0137 1.9082 1.652 0 2.9403-0.58268 3.8633-1.7461 1.1169-1.4116 1.6758-3.7305 1.6758-6.957 0-3.2343-0.55494-5.5492-1.6641-6.9453-0.93073-1.1789-2.223-1.7695-3.875-1.7695zm69.699 1.8164c0.39556 0 0.74439 0.12686 1.0469 0.38281 0.31024 0.2482 0.56592 0.74961 0.76758 1.502 0.20166 0.74458 0.30274 2.1161 0.30274 4.1172s-0.11297 3.4202-0.33789 4.2578c-0.17064 0.65152-0.41046 1.1054-0.72071 1.3613-0.31024 0.24819-0.66303 0.37305-1.0586 0.37305s-0.74835-0.12486-1.0586-0.37305c-0.30249-0.2482-0.55616-0.7437-0.75782-1.4883-0.20165-0.75234-0.30273-2.1298-0.30273-4.1309s0.11297-3.4241 0.33789-4.2695c0.17064-0.65151 0.41242-1.1014 0.72266-1.3496 0.31024-0.25595 0.66303-0.38281 1.0586-0.38281zm-109.44 0.89453c0.39556 0 0.74439 0.12881 1.0469 0.38476 0.31024 0.2482 0.56788 0.74766 0.76953 1.5 0.20166 0.74459 0.30273 2.1181 0.30273 4.1191 0 2.0011-0.11296 3.4202-0.33789 4.2578-0.17063 0.65151-0.41241 1.1054-0.72265 1.3613-0.31024 0.24819-0.66304 0.37304-1.0586 0.37304s-0.74834-0.12485-1.0586-0.37304c-0.30249-0.2482-0.5542-0.7437-0.75586-1.4883-0.20165-0.75234-0.30273-2.1298-0.30273-4.1309 0-2.0011 0.11296-3.4241 0.33789-4.2695 0.17063-0.65151 0.41046-1.1014 0.7207-1.3496 0.31025-0.25595 0.66303-0.38476 1.0586-0.38476zm39.742 0c0.39556 0 0.74439 0.12881 1.0469 0.38476 0.31024 0.2482 0.56787 0.74766 0.76953 1.5 0.20166 0.74459 0.30273 2.1181 0.30273 4.1191 0 2.0011-0.11296 3.4202-0.33789 4.2578-0.17063 0.65151-0.41241 1.1054-0.72266 1.3613-0.31024 0.24819-0.66303 0.37304-1.0586 0.37304s-0.74835-0.12485-1.0586-0.37304c-0.30249-0.2482-0.5542-0.7437-0.75586-1.4883-0.20166-0.75234-0.30274-2.1298-0.30274-4.1309 0-2.0011 0.11297-3.4241 0.33789-4.2695 0.17064-0.65151 0.41047-1.1014 0.72071-1.3496 0.31024-0.25595 0.66303-0.38476 1.0586-0.38476z" stroke-width=".37229" style="font-variant-caps:normal;font-variant-east-asian:normal;font-variant-ligatures:normal;font-variant-numeric:normal;text-orientation:upright"/>
  <path d="m112.37 295c21.756 15.817 40.465 35.81 54.806 58.567 11.291 17.917 19.993 37.979 21.492 59.104 0.91881 12.945-1.0188 26.381-7.5224 37.612-7.7098 13.313-22.357 22.72-37.612 24.716 12.702-9.2002 21.976-23.695 24.179-39.224 1.5083-10.632 0.0498-21.567-3.3577-31.751-3.4072-10.184-8.7192-19.654-14.911-28.428-5.2826-7.4856-11.223-14.507-17.731-20.955 2.8407 9.358 3.7607 19.294 2.6865 29.015-1.5377 13.915-7.2131 27.347-16.119 38.149-0.11572-5.7297-1.4037-11.433-3.7612-16.657-2.4944-5.5272-6.1858-10.511-10.746-14.507-0.0249 6.4329-1.3092 12.859-3.7612 18.806-2.4434 5.9264-6.0074 11.33-8.597 17.194-3.1935 7.2311-4.8691 15.278-3.7612 23.104 1.4964 10.572 8.2962 20.256 17.731 25.254-14.437-2.8105-27.573-11.766-35.463-24.179-6.7359-10.597-9.6294-23.486-8.597-36 0.64237-7.7859 2.7534-15.421 5.9105-22.567 6.0342-13.658 15.711-25.313 24.179-37.612 5.9238-8.6034 11.321-17.644 15.045-27.403 3.9168-10.265 5.9312-21.252 5.9105-32.239z"/>
</svg>
