<svg version="1.1" viewBox="0 0 812 190" xmlns="http://www.w3.org/2000/svg">
  <path id="3" d="m368.99 1.1309-1.2637 0.41602c-2.8372 0.93437-4.845 2.1151-6.5273 3.8379-1.927 1.9735-3.3833 4.4175-4.0352 6.7715-0.24055 0.86868-0.29348 1.8381-0.3457 6.3965l-0.06055 5.3711-3.5742 0.089844c-4.6388 0.11436-5.5567 0.37154-6.6387 1.8652-0.39687 0.54787-0.56499 1.0369-1.1074 3.2344l-0.16016 0.6543-1.5332 0.11328c-1.7309 0.12733-2.5779 0.39973-3.0332 0.97852 0 0-0.3125 0.80006-0.3125 22.088l0.56836 0.62891c0.35842 0.39673 0.79914 0.69266 1.1934 0.79883 0.3933 0.1059 2.1828 0.14978 4.8262 0.11914 4.6547-0.0539 4.8496-0.094013 5.4785-1.1328 0.28318-0.46776 0.29688-0.98525 0.29688-11.123 0-9.8755-0.02019-10.667-0.2793-11.141-0.47328-0.86611-0.93508-1.0568-2.7852-1.1445l-1.6602-0.078125 0.03125-0.90625c0.0385-1.137 0.2916-1.6677 0.99219-2.0781 0.50329-0.29485 0.86246-0.32738 4.1309-0.37695l3.5801-0.054688 0.04883 39.98c0.0437 36.445 0.07084 40.073 0.30664 41.027 0.55105 2.2296 1.504 3.2936 3.5098 3.918 0.39486 0.1229 2.1887 0.23223 4.8047 0.29296l4.1738 0.09766 0.07813 2.9141c0.0886 3.2793 0.23452 3.8022 1.3809 4.9531 1.4102 1.4157 2.1836 1.543 8.9356 1.4726 5.0889-0.053 5.3985-0.07308 6.2266-0.40429 1.052-0.42076 2.0497-1.3936 2.543-2.4785 0.3199-0.70364 0.3637-1.0842 0.41601-3.582l0.0586-2.7969h33.48l0.06445 2.7168c0.0611 2.5865 0.08749 2.765 0.51758 3.7109 0.54425 1.1968 1.5016 2.0992 2.6562 2.502 0.72889 0.2543 1.4344 0.28516 6.7207 0.28516h5.9062l0.86719-0.4082c1.2516-0.58943 1.8128-1.1309 2.3887-2.3008 0.50586-1.0275 0.51021-1.0534 0.57617-3.8477l0.06641-2.8144 3.4844-0.00196c3.7159-2e-3 5.1043-0.14531 6.2402-0.64648 0.86074-0.37978 1.8067-1.2645 2.2305-2.0859 0.78621-1.5237 0.75684 0.12636 0.75977-42.592 2e-3 -35.001 0.03067-39.904 0.23438-39.982 0.1277-0.049 1.7643-0.011669 3.6348 0.082031 3.7922 0.19002 4.2878 0.31606 4.7051 1.1953 0.13663 0.28793 0.25 0.92125 0.25 1.4062v0.88086h-1.5137c-1.7403 0-2.4494 0.24647-2.916 1.0117-0.28176 0.46206-0.29492 0.99412-0.29492 11.195 0 10.339 0.01044 10.727 0.30664 11.213 0.63307 1.0383 0.76011 1.0666 5.0644 1.1211 4.3056 0.0545 4.7996-0.013664 5.8438-0.80859 0.37165-0.28295 0.76282-0.56851 0.8711-0.63477l0.19726-21.939-0.35351-0.32422c-0.74962-0.68543-1.3932-0.88314-2.9453-0.90234l-1.4883-0.017578-0.35156-1.4395c-0.56018-2.2889-1.2019-3.2618-2.543-3.8613-0.85006-0.37998-3.7795-0.63387-6.5723-0.56836l-2.0469 0.048828-0.01758-5.1191c-0.0197-5.5857-0.07855-6.0724-1.002-8.4668-1.5729-4.0786-5.5548-7.6731-9.8574-8.8965l-1.25-0.35547-74.178-0.078125zm16.217 6.2227h20.791c20.478 0 20.799 0.0044531 21.41 0.31445 1.0496 0.5334 1.2176 0.90792 1.3496 3.0176 0.0642 1.0253 0.06601 2.4878 0.00391 3.25-0.12472 1.5379-0.36176 2.0111-1.2812 2.5527-0.52682 0.3103-0.83972 0.31441-21.01 0.33789-11.261 0.0131-20.787-0.037771-21.166-0.11328-0.88072-0.17522-1.359-0.49241-1.709-1.1328-0.23918-0.43769-0.27734-0.93574-0.27734-3.502 0-3.437 0.09046-3.7641 1.2227-4.3691l0.66601-0.35547zm-11.135 15.684c2.3757 4.7e-4 5.4201 0.006779 9.3398 0.017579l17.264 0.046874 1.0859 0.55274c1.1868 0.60353 1.9237 1.477 2.3047 2.7305 0.1558 0.5126 0.19921 4.9294 0.19921 20.342v19.689l-0.35742 0.88476c-0.44981 1.1121-1.2608 1.9554-2.3887 2.4844l-0.87695 0.41016-17.404 0.029297c-15.127 0.0262-17.504-7.01e-4 -18.172-0.20703-0.83847-0.25936-1.7567-0.79237-2.1777-1.2637-0.14755-0.16517-0.46477-0.72286-0.70703-1.2402l-0.44141-0.94141-0.04296-19.514c-0.0367-16.886-0.01011-19.638 0.19335-20.432 0.46664-1.8214 1.5066-2.886 3.2754-3.3555 0.67112-0.17814 1.779-0.23373 8.9062-0.23242v-0.001953zm45.436 0.003907c2.4455 6.3e-4 5.673 0.008731 9.959 0.019531l17.324 0.041015 0.80468 0.36524c1.0021 0.45357 1.8281 1.2874 2.291 2.3125 0.32013 0.70905 0.36671 1.1341 0.4668 4.2539 0.173 5.3924 0.15597 33.652-0.02149 35.338-0.17997 1.7086-0.56504 2.6921-1.377 3.5254-0.9034 0.92724-1.9633 1.2557-4.332 1.3418l-2.0098 0.074219-0.18164-0.53125c-0.42931-1.2506-1.9382-3.9431-2.8711-5.123-1.2484-1.5788-2.624-2.7146-4.2676-3.5254-2.0171-0.99517-2.9188-1.1758-5.9062-1.1758-2.284 0-2.7412 0.045011-3.7793 0.36914-3.9255 1.2257-6.897 4.1503-8.7422 8.6016l-0.52539 1.2676-2.3359 0.027344c-1.2844 0.0153-2.5119-0.02655-2.7285-0.09375-1.4684-0.45581-2.5874-1.5048-3.1894-2.9922l-0.35547-0.87891-0.04492-18.9c-0.032-13.297 0.00631-19.202 0.1289-19.92 0.39083-2.2848 1.3743-3.524 3.25-4.0938 0.79836-0.24249 1.1068-0.30459 8.4434-0.30273zm9.6621 39.994c1.6097-0.0262 3.255 0.36469 4.8984 1.1758 1.941 0.958 3.245 2.2408 4.123 4.0566 0.34496 0.71345 0.67227 1.4574 0.72656 1.6523l0.09765 0.35352h-9.4609c-9.2954 0-9.459-0.004444-9.459-0.30859 0-1.1784 1.602-3.6212 3.127-4.7676 1.8685-1.4046 3.8777-2.1284 5.9473-2.1621zm-23.25 18.424h0.00196c15.675 0.003002 16.488 0.017141 17.1 0.29492 0.85749 0.38946 1.1437 1.0372 0.83008 1.8711-0.45672 1.2143 0.7329 1.1387-17.852 1.1387-15.431 0-16.575-0.018471-17.086-0.27539-1.0561-0.53095-1.0572-2.229-0.00195-2.7559 0.51435-0.25694 1.6528-0.27642 17.008-0.27344zm33.158 6.1562c1.3938 0.0162 2.5566 0.36046 3.6621 1.0762 1.6474 1.0666 2.7126 2.7105 3.0566 4.7168 0.61201 3.569-1.9954 7.1915-5.6816 7.8906-1.0362 0.19651-1.4253 0.18654-2.5371-0.05664-2.0496-0.44823-3.9968-2.0266-4.9297-3.9961-0.47223-0.99693-0.50391-1.1743-0.50391-2.7969s0.03163-1.7999 0.50391-2.7969c0.69617-1.4696 1.8679-2.6649 3.3125-3.3789 0.99265-0.49058 1.3603-0.58451 2.5039-0.64453 0.20898-0.011 0.41417-0.016072 0.61328-0.013672zm-65.996 0.0625c1.6655 0 1.7783 0.02136 2.9238 0.56836 2.0896 0.99792 3.5322 2.8647 3.9434 5.1016 0.85606 4.6572-3.8167 9.0357-8.4043 7.875-4.7942-1.213-6.8937-6.707-4.1094-10.754 0.70861-1.0299 1.4432-1.6226 2.834-2.2812 1.0128-0.4797 1.1854-0.50977 2.8125-0.50977zm32.998 2.125h6.0039c12.08 3e-3 11.327 0.074872 11.719 1.0137 0.28739 0.68779 0.0513 1.5673-0.51953 1.9414-0.39005 0.2556-1.5413 0.2761-17.041 0.30664-14.522 0.0286-16.694 0.003122-17.191-0.20508-0.83492-0.349-1.2029-1.4613-0.75781-2.293 0.41666-0.77852 0.07331-0.76367 17.787-0.76367zm-0.05078 8.3516h0.00195c12.962 2e-3 16.751 0.044956 17.057 0.19726 0.21657 0.10768 0.52425 0.46538 0.68555 0.79492 0.26274 0.53681 0.27191 0.65933 0.07617 1.1797-0.14692 0.3907-0.39748 0.6722-0.76563 0.85742-0.5109 0.25704-1.6432 0.27507-17.006 0.26953-13.513-0.00499-16.547-0.04497-16.951-0.2207-0.63824-0.27779-1.0059-0.81468-1.0059-1.4727 0-0.6918 0.22278-1.0803 0.78516-1.3711 0.40188-0.20782 2.5648-0.2364 17.123-0.23438zm-0.02735 53.398c-10.305 0-18.658 8.3532-18.658 18.658 0 10.304 8.3542 18.656 18.658 18.656 10.304 0 18.658-8.3512 18.658-18.656 0-10.305-8.3532-18.658-18.658-18.658z" fill="#fff"/>
  <path id="1" d="m31.061 17.451-1.4414 0.53125c-1.959 0.7197-3.4915 1.7355-5.125 3.4004-2.7954 2.8488-3.2346 3.6202-7.3164 12.824l-3.8438 8.666h-11.873l-0.55859 0.66406c-0.76685 0.9114-1.1239 2.7249-0.81055 4.123 0.6082 2.7137 2.4458 4.0543 6.4785 4.7305l2.1504 0.36133-1.9902 4.7715-1.9902 4.7695 0.060547 19.559 0.0625 19.559 0.67383 1.0918c0.4634 0.75154 1.017 1.2808 1.7754 1.6973l1.1035 0.60742 8.9434 0.00391c7.5783 0.00439 9.0687-0.04671 9.7656-0.33789 1.0524-0.4397 1.7497-1.0943 2.3496-2.209 0.44869-0.8336 0.48218-1.2452 0.54688-6.7168l0.06836-5.8301 59.807 0.11328 0.11133 5.8828c0.1206 6.3947 0.15022 6.5527 1.4785 7.8144 1.3386 1.2715 1.485 1.2891 11.178 1.2891 8.3685 0 8.9476-0.02626 9.7422-0.43164 1.0529-0.5372 2.1271-1.7394 2.4238-2.7129 0.14067-0.46201 0.27768-7.9585 0.36328-19.895l0.13672-19.154-2.0039-4.8086c-1.1026-2.6443-2.0059-4.8786-2.0059-4.9648 0-0.08619 0.57522-0.22605 1.2774-0.31055 4.9009-0.5896 7.3828-2.5938 7.3828-5.9629 0-1.4066-0.33133-2.5094-0.95899-3.2031-0.4472-0.49454-0.51317-0.5-6.3594-0.5h-5.9102l-3.7461-8.4922c-4.0114-9.0925-4.7004-10.296-7.4766-13.072-1.6004-1.6005-3.1595-2.6214-5.0781-3.3262l-1.4434-0.53125h-57.947zm55.578 8.1055 1.4004 0.72461c2.3205 1.2012 3.9221 3.5207 6.8613 9.9316 1.2274 2.6766 4.9623 11.001 5.2539 11.711v0.001953c0.091 0.22142-8.0201 0.27734-40.119 0.27734-32.102 0-40.209-0.055914-40.115-0.27734 0.0649-0.1527 1.2153-2.7251 2.5547-5.7168 5.7227-12.782 6.9191-14.728 9.9199-16.129l1.1094-0.51758 53.135-0.005859zm-64.258 37.975c1.0659 0.039916 2.1136 0.25952 2.9082 0.64844 1.4207 0.6953 2.9738 2.2533 3.6582 3.6699 0.74778 1.5479 0.78789 4.613 0.080078 6.1445-0.685 1.4821-2.1795 3.0043-3.707 3.7754-0.9901 0.49978-1.709 0.68746-2.8945 0.75586-1.8982 0.1095-3.0708-0.22903-4.7148-1.3613-4.9037-3.3769-3.9368-11.11 1.6504-13.207 0.87-0.32657 1.9536-0.4657 3.0195-0.42578zm76.178 0.019531c1.9853 0.06152 3.3304 0.69111 4.7949 2.1777 1.7045 1.7303 2.2724 3.2369 2.1426 5.6738-0.07275 1.3656-0.2336 2.0472-0.69531 2.9492-0.796 1.5549-2.1267 2.8507-3.6387 3.543-1.3153 0.60214-3.6016 0.85219-4.8281 0.52734-2.1588-0.5718-4.2084-2.2824-5.2207-4.3555-0.44386-0.909-0.54388-1.4535-0.54688-3.002-0.00369-1.6942 0.071783-2.0443 0.72656-3.375 1.2895-2.6206 3.4204-4.003 6.373-4.1309 0.31202-0.013513 0.60896-0.016601 0.89258-0.007813zm-55.738 6.6309h34.244l0.73438 0.5c2.229 1.5171 2.3527 4.2993 0.26172 5.8945l-0.78516 0.59766-17.002 0.050781c-13.89 0.04058-17.124-0.00478-17.668-0.25-1.251-0.5637-2.3301-2.092-2.3301-3.2969 0-0.8382 0.9148-2.3883 1.7402-2.9492l0.80469-0.54688zm17.158 81.371c-10.305 0-18.658 8.3532-18.658 18.658 0 10.304 8.3542 18.656 18.658 18.656 10.304 0 18.658-8.3512 18.658-18.656 0-10.305-8.3532-18.658-18.658-18.658z" fill="#fff"/>
  <path id="4" d="m559.58 19.129c-23.077 0.01266-24.2 0.034356-24.438 0.47852-0.1476 0.2759-0.25 4.2459-0.25 9.7441 0 8.6114-0.03172 9.2875-0.44922 9.418-0.9133 0.2855-4.295 2.2782-5.8457 3.4434-1.1363 0.8538-2.7887 2.7645-3.334 3.8555-0.3589 0.718-0.79384 2.5202-1.1484 4.7539-2.3931 15.075-2.1747 12.433-2.2637 27.244-0.0773 12.838-0.05886 13.46 0.46484 15.807 0.7648 3.4285 1.1314 4.4395 1.6856 4.6426 0.2649 0.09706 1.2128 0.15461 2.1055 0.12891 1.8869-0.0545 1.9497 0.00945 2.2051 2.2812 0.0943 0.8389 0.29678 1.6773 0.45118 1.8633v0.00196c0.2091 0.25193 1.2587 0.33789 4.1172 0.33789 3.8371 0 3.8384 7.2e-4 4.2109-0.89063 0.2048-0.4903 0.375-1.3286 0.375-1.8633 7e-3 -1.795-0.87825-1.6824 13.344-1.6914 7.4575-0.00446 12.982 0.090672 13.111 0.22656 0.1229 0.1292 0.34514 1.034 0.49414 2.0117 0.149 0.97759 0.42111 1.8726 0.60351 1.9883 0.45171 0.28654 7.4379 0.26947 7.8945-0.01954 0.5069-0.3207 0.78728-3.3448 0.95898-10.299 0.1479-5.9929-0.16832-10.393-0.82422-11.461-0.2307-0.37552-0.61742-0.54676-1.2949-0.57226-1.052-0.03953-1.7276-0.45315-1.1133-0.68164 0.2003-0.07451 2.9095-0.16507 6.0195-0.20117 5.6544-0.065 5.6548-0.064609 5.7188-29.1 0.0557-25.364 0.11157-29.082 0.44727-29.418 0.2552-0.25518 0.47052-0.29897 0.64062-0.12891 0.1644 0.164 0.27927 7.3723 0.32227 20.154 0.067 19.899 0.06709 19.9 0.96679 20.217 0.4947 0.1744 2.9828 0.9654 5.5274 1.7578 4.044 1.2594 8.3554 2.6286 16.578 5.2676 1.2016 0.3856 3.9186 1.2449 6.0391 1.9082 2.1205 0.6632 5.0703 1.594 6.5547 2.0684 1.4843 0.4744 4.7816 1.52 7.3262 2.3242 12.497 3.9498 13.476 4.2968 13.641 4.8164 0.2896 0.91238-0.27471 1.1149-1.7539 0.63086-0.7414-0.24264-2.0134-0.61375-2.8262-0.82422-2.7793-0.7197-4.4345-1.171-6.4902-1.7715-1.1309-0.3304-3.4442-0.9768-5.1406-1.4375-1.6964-0.46071-3.5478-0.98501-4.1133-1.1641-0.5654-0.17907-1.8366-0.52201-2.8262-0.76172-0.9895-0.23971-2.5518-0.66788-3.4707-0.95117-0.91891-0.28327-2.4811-0.72878-3.4707-0.99023-0.9896-0.26144-2.8972-0.78129-4.2402-1.1562-1.343-0.37495-2.847-0.77888-3.3418-0.89648-0.7989-0.1899-4.3544-1.181-10.064-2.8066-1.0379-0.29549-2.2924-0.65013-2.7871-0.78711-0.4948-0.13698-1.935-0.53962-3.2012-0.89453-1.2662-0.3549-2.4519-0.64453-2.6348-0.64453-0.2373 0-0.33203 0.4735-0.33203 1.6543 0 1.356 0.08022 1.6756 0.44922 1.7773 0.2473 0.06825 1.9533 0.48631 3.791 0.92969 1.8378 0.44342 4.4402 1.0837 5.7832 1.4238s3.4836 0.85543 4.7559 1.1445c1.2723 0.28911 2.7181 0.63949 3.2129 0.7793 0.4947 0.1398 2.6334 0.66183 4.7539 1.1602s4.2611 1.0199 4.7559 1.1582c0.858 0.2396 17.509 4.318 22.105 5.4141 7.7509 1.8486 7.0585 1.515 7.1445 3.4551 0.0423 0.9592-0.0159 1.8334-0.1289 1.9434-0.113 0.11002-0.78334 0.086786-1.4902-0.052734-0.7068-0.13953-1.8053-0.35213-2.4414-0.4707-0.6362-0.11858-2.7768-0.51768-4.7559-0.88672-1.9791-0.36903-5.16-0.96109-7.0684-1.3164-1.9085-0.35531-3.9326-0.7536-4.498-0.88477-0.5654-0.13117-1.7803-0.36167-2.6992-0.51172-0.9188-0.15-4.4451-0.79663-7.8379-1.4375-3.3928-0.64089-6.8045-1.2824-7.582-1.4258-1.4208-0.26201-2.3536-0.43692-5.9121-1.1113-1.0603-0.20093-3.2591-0.61192-4.8848-0.91211s-3.4169-0.65571-3.9824-0.79102c-0.5654-0.1353-1.5493-0.27399-2.1855-0.30859-1.1569-0.063-1.1574-0.063443-1.2324 1.7852-0.0862 2.1207-0.00268 2.2164 2.1328 2.4805 0.7068 0.08742 2.7872 0.3841 4.625 0.6582 1.8377 0.27411 3.8618 0.5682 4.498 0.6543 0.6361 0.08604 1.9092 0.26392 2.8281 0.39648s2.943 0.42502 4.498 0.64844c5.1903 0.74568 6.4165 0.92665 7.8398 1.1602 2.2479 0.36879 3.9691 0.59769 4.1641 0.55469 0.099-0.02188 0.79182 0.079869 1.541 0.22461 0.7492 0.14473 2.1143 0.36428 3.0332 0.48828s5.3727 0.76394 9.8965 1.4219c4.5237 0.65791 8.9756 1.3046 9.8945 1.4375s1.8308 0.29959 2.0254 0.37109c1.0438 0.383 1.0586 0.1678 1.0586-14.533 0-13.038-0.03262-14.115-0.44922-14.594-0.2474-0.2845-2.0697-1.6105-4.0488-2.9473s-7.2668-4.9639-11.752-8.0586c-4.485-3.0947-10.084-6.9563-12.443-8.582-2.3592-1.6258-5.1679-3.5671-6.2402-4.3145-1.0722-0.7474-2.9332-2.0163-4.1348-2.8184-1.2016-0.80214-2.2415-1.5306-2.3125-1.6191-0.0707-0.088599-3.3679-2.3669-7.3262-5.0645-3.9582-2.6976-7.6794-5.2543-8.2695-5.6797-1.073-0.77352-1.0718-0.77307-25.26-0.75977zm-22.848 2.041c0.10481-0.005338 0.22493 0.012837 0.33398 0.054687 0.3457 0.1327 0.39648 1.1883 0.39648 8.2559 0 4.4575-0.04842 8.1055-0.10742 8.1055-0.0591 0-0.28139 0.065584-0.49218 0.14648-0.2337 0.08964-0.4384-0.034883-0.5254-0.32031-0.2071-0.681-0.06501-15.943 0.1504-16.158 0.04999-0.0499 0.13932-0.078647 0.24414-0.083984zm29.396 17.486c2.8987 0.010607 4.7746 0.036822 4.9316 0.076172 1.1165 0.28 1.1549 0.67969 1.1289 11.93-0.013 5.885-0.02735 14.005-0.02735 18.047-0.0014 7.349-6.1e-4 7.3486-1.0078 7.6504-0.8264 0.2477-1.112 0.51674-1.5879 1.5-0.3191 0.659-0.72871 2.0623-0.91211 3.1172-0.18323 1.0533-0.37066 1.9507-0.41601 1.998-0.14401 0.14376-37.185 0.23689-41.154 0.10352-3.8244-0.1285-3.8254-0.12751-3.7774-8.6289 0.0387-6.8568 0.14326-9.1196 0.53516-11.695 0.2673-1.7564 0.66376-4.4082 0.88086-5.8926 1.1197-7.655 1.5266-9.5894 2.2324-10.59 1.8604-2.6373 5.7556-5.1189 10.721-6.832 1.97-0.67995 1.9706-0.68102 17.393-0.76562 4.2412-0.02328 8.1618-0.028185 11.061-0.017578zm-19.539 7.668c-9.803 0-18.011 0.072356-18.24 0.16016-0.7305 0.2804-1.1004 1.4231-1.6543 5.1094-0.2974 1.9791-0.66205 4.4069-0.81055 5.3965-0.1485 0.9896-0.38103 2.3587-0.51563 3.041-0.2536 1.2857-0.32321 2.8349-0.13671 3.0215 0.075 0.0749 36.567 0.060075 38.479-0.015625 0.0885-0.0035 0.22855-0.6133 0.31055-1.3555 0.082-0.7422 0.26665-2.2754 0.41015-3.4062 0.8976-7.0712 1.1409-9.7439 0.95313-10.492-0.387-1.5418 0.68408-1.459-18.795-1.459zm22.672 0.53516c-0.308 0.048701-0.64765 0.22045-0.90625 0.49805-0.5187 0.5567-0.87943 2.3322-1.332 6.5488-0.1518 1.4137-0.43706 3.8957-0.63476 5.5156-0.1932 1.6198-0.28913 3.06-0.20313 3.1992 0.2171 0.3512 3.1046-2.8443 3.5723-3.9531 0.2956-0.7014 0.38281-2.0826 0.38281-6.1055 7e-4 -2.8596-0.07116-5.3165-0.16016-5.4609-0.1333-0.21563-0.41075-0.29089-0.71875-0.24219zm-26.174 21.889c-17.835 0.066-17.835 0.066631-17.904 6.0195-0.0583 5.0363-0.00879 6.0127 0.32031 6.3418 0.339 0.33922 2.6142 0.3912 17.785 0.4082 15.841 0.01776 17.435-0.016967 17.863-0.4043 0.4279-0.3877 0.4707-0.93187 0.4707-6.1387 0-4.504-0.07381-5.7731-0.34961-6.002-0.254-0.21095-5.2246-0.27261-18.186-0.22461zm29.166 15.902c0.20073-0.080268 0.40199 0.16834 0.52344 0.77539 0.2019 1.033 0.206 12.647 0 13.184h0.0039c-0.2804 0.7307-0.84187 0.43209-1.0469-0.55664-0.2648-1.279-0.2651-10.657 0-12.209 0.12015-0.70366 0.3188-1.1131 0.51953-1.1934zm-11.348 0.28125c4.067 0.013118 6.6734 0.041378 6.8359 0.080078 0.5914 0.1407 0.59083 0.14094 0.54883 5.2734-0.0229 2.8228-0.11508 5.1385-0.20508 5.1465h-0.00195c-0.687 0.0601-42.948 0.098162-43.361 0.039062-0.8132-0.1163-1.4511-3.6693-1.3477-7.5078 0.079-2.9558 0.07974-2.955 21.928-3.0234 6.0085-0.018775 11.537-0.020931 15.604-0.007812zm29.971 0.97461c-2.5154 0-2.515 5.87e-4 -2.8594 0.83594-0.9995 2.4248-1.2919 6.4616-0.80273 11.107 0.3408 3.2369 0.6956 4.6763 1.2539 5.0977 0.4271 0.3223 5.1037 0.07376 5.2207-0.27735 0.0719-0.21551 0.26931-0.18926 0.69531 0.08985 0.4431 0.29023 1.1687 0.37015 2.8516 0.31445 2.2116-0.07319 2.2647-0.09008 2.6777-0.8457 0.6833-1.25 1.0352-3.9228 1.0352-7.8691 0-3.5127-0.32484-6.0451-0.99414-7.7461-0.2771-0.70384-0.28869-0.70703-2.8047-0.70703-1.6214 0-2.636 0.11056-2.834 0.30859-0.2399 0.2399-0.37533 0.2399-0.61523 0-0.1979-0.19787-1.2104-0.30859-2.8242-0.30859zm-30.887 0.55273c-0.54444-0.016667-1.2722-7.18e-4 -2.2422 0.019532-3.4499 0.0721-3.4492 0.0723-3.4492 2 0 1.9277-1e-5 1.9262 3.2129 2.0547 1.767 0.0706 3.345 0.091975 3.5078 0.046875 0.3885-0.1077 0.59766-0.93158 0.59766-2.3594-5.2e-4 -1.372 0.00637-1.7117-1.627-1.7617zm-29.971 0.009766c-0.4247-0.022075-0.99106-0.010288-1.7461 0.007812-3.0196 0.0724-3.0197 0.073197-3.0976 1.7168-0.04301 0.904-0.01636 1.8006 0.05664 1.9922 0.1018 0.26527 0.84075 0.34766 3.0976 0.34766 2.9639 0 2.9648-5.3e-5 2.9648-2.0645 0-1.5483-0.00129-1.9338-1.2754-2zm88.996 2.0078c-2.4746 0-2.7284 0.045859-3.1562 0.57422-0.4651 0.57448-0.46571 0.57532-0.94141-0.009765-0.4482-0.5513-0.63073-0.58027-3.1738-0.50977-2.6988 0.07489-2.6989 0.073679-3.1426 0.98047-0.244 0.4988-0.53479 1.5409-0.64649 2.3145-0.2031 1.4065-0.20453 1.405-2.0527 1.4375-2.7383 0.0482-2.6729-0.011097-2.5859 2.4707 0.0747 2.1246 0.07321 2.1246 2.1914 2.1992 1.9528 0.06879 2.1266 0.11898 2.2266 0.64258 0.472 2.4739 0.84253 3.698 1.2363 4.0918 0.3744 0.37435 0.89471 0.45898 2.791 0.45898 2.3991 0 3.3242-0.25248 3.3242-0.9082 0-0.54395 0.24121-0.46564 0.81641 0.26563 0.4774 0.60683 0.64289 0.64267 2.9922 0.63867 1.3681-0.00217 2.6154-0.08754 2.7715-0.19141 0.1562-0.10385 0.46098-0.52862 0.67578-0.94336 0.3761-0.72602 0.39726-0.73426 0.56836-0.19531 0.3709 1.1684 0.80253 1.334 3.4902 1.334 2.5399 0 2.541 8.5e-4 2.9668-0.89648 0.4083-0.86038 0.88281-1.0028 0.88281-0.26367 0 0.87027 0.7642 1.1602 3.0625 1.1602 1.8282 0 2.3292-0.08456 2.6445-0.44922 0.53711-0.6211 0.98047-2.0172 0.98047-3.123 6e-3 -1.426 0.18372-1.5381 2.5742-1.6211 2.1766-0.0755 2.1758-0.074988 2.1758-1.6172 0-1.5422 1e-4 -1.5431-2.2539-1.7754-2.146-0.22112-2.2594-0.2631-2.3809-0.89844-0.7189-3.7599-0.83505-3.8809-3.7188-3.8809-2.3487 0-2.7402 0.17396-3.1934 1.4141-0.1601 0.43803-0.23977 0.36342-0.54297-0.50976-0.5104-1.4694-0.92573-1.6758-3.3945-1.6758-2.0738 0-2.1772 0.028979-2.875 0.79297-0.7235 0.79209-0.722 0.7928-0.9043 0.066406-0.3237-1.2897-0.5276-1.373-3.4082-1.373zm-20.176 0.074219c0.1247-0.023969 0.25294 0.024422 0.38281 0.1543 0.1346 0.1346 0.38865 1.3674 0.56445 2.7402 0.3297 2.5757 0.15157 6.0802-0.39453 7.7402-0.1471 0.44695-0.43251 0.87632-0.63281 0.95312-0.5051 0.1938-0.89171-1.2063-1.1621-4.207-0.31859-3.5354 0.36928-7.2131 1.2422-7.3809zm-55.723 0.96875c-4.1691 0.0161-4.3776 0.040556-4.75 0.57227-0.4502 0.6428-0.51189 2.0472-0.12109 2.7773 0.2539 0.47461 0.52791 0.49979 4.8203 0.43359 4.5503-0.0702 4.5489-0.06979 4.6289-1.3379 0.164-2.591 0.40227-2.4645-4.5781-2.4453zm35.096 0.95508c-2.5833-0.015197-2.5851 0.36423-2.6113 3.4004-0.016 1.9085 0.01717 3.6653 0.07617 3.9043 0.0667 0.27131 0.41579 0.46397 0.92969 0.51367 0.8922 0.0868 8.0965 0.089706 8.5605 0.003906 0.193-0.0356 0.27386-1.2271 0.25586-3.7109-0.0266-3.6584-0.02659-3.6584-1.0547-3.8262-0.5655-0.09228-2.7623-0.21022-4.8828-0.26172-0.48194-0.011688-0.90439-0.021267-1.2734-0.023438zm42.525 0.47852c0.21819 0.014009 0.45559 0.23239 0.69921 0.68164 0.6592 1.2071 0.656 7.1336 0 8.3438h-0.00586c-0.5216 0.96216-0.52863 0.96544-1.0527 0.4414-0.5654-0.5655-0.80102-1.9565-0.79102-4.7461 0.00743-2.9613 0.49581-4.7627 1.1504-4.7207zm7.2168 0.60742c1.0605 0 1.5444 6.2087 0.64649 8.291-0.914 2.1196-1.6934 0.41503-1.6934-3.7012 0-3.0846 0.34347-4.5898 1.0469-4.5898zm6.9883 0.57812c0.699 0.2305 0.95313 1.3848 0.95313 4.3066 0 1.8387-0.11891 3.191-0.31641 3.5781-0.1746 0.34225-0.45399 0.66755-0.62109 0.72265-0.6636 0.2187-0.95703-1.0777-0.95703-4.1719 0.0051-3.1158 0.3291-4.6375 0.9414-4.4355zm-53.127 59.414c-10.305 0-18.658 8.3532-18.658 18.658 0 10.304 8.3542 18.656 18.658 18.656 10.304 0 18.658-8.3512 18.658-18.656 0-10.305-8.3532-18.658-18.658-18.658z" fill="#fff"/>
  <path id="2" d="m211.81 26.398c-35.187-0.003181-36.274 0.005501-37.115 0.29492-2.4836 0.8545-4.0244 2.7717-4.3789 5.4531-0.1115 0.831-0.14633 8.536-0.11133 23.252 0.0432 17.932 0.09233 22.14 0.26563 22.717 0.2791 0.9282 1.4168 2.6342 2.1289 3.1934 0.7149 0.56138 2.0586 1.1802 2.9395 1.3535 0.3738 0.07359 1.5399 0.14334 2.5898 0.15234 2.0478 0.01847 2.0996-0.003087 2.0996-0.83594 0-0.4896 0.57028-2.7061 0.89258-3.4707 1.6012-3.7984 4.981-6.785 8.9316-7.8906 1.1458-0.32068 4.3579-0.44392 5.6621-0.2168 3.8991 0.679 7.2051 3.0167 9.2441 6.5352 0.8463 1.4602 1.265 2.6001 1.5976 4.3535 0.1311 0.69077 0.27718 1.3196 0.32618 1.3984 0.144 0.23282 45.708 0.18827 45.941-0.044922 0.1037-0.10375 0.18945-0.44359 0.18945-0.75586 0-0.8528 0.5571-2.8084 1.1543-4.0547 1.8216-3.8009 5.3551-6.5791 9.3535-7.3535 1.5089-0.29224 3.9568-0.28405 5.3984 0.017578 5.2767 1.104 9.3511 5.2692 10.293 10.523 0.1399 0.78024 0.32516 1.5072 0.41016 1.6152 0.198 0.25166 3.9067 0.26975 5.2285 0.02539 1.8034-0.3334 3.1977-1.2628 4.2285-2.8164 1.1219-1.684 1.1133-1.6211 1.1133-11.789 0-9.0393-0.00129-9.0405-0.37109-9.957-0.6817-1.6902-2.4979-3.0822-5.3672-4.1133-1.3534-0.4864-7.4852-2.6177-10.062-3.498-7.0962-2.4238-6.0847-1.7171-8.6309-6.0293-1.2454-2.1092-3.3097-5.6188-4.5879-7.7988-2.7642-4.7142-3.3145-5.5443-4.5684-6.8848-1.7022-1.8196-3.3522-2.5989-6.5-3.0684-1.976-0.29466-3.2429-0.30364-38.295-0.30664zm29.252 6.5996c9.6423 2.3e-4 10.501 0.021991 11.008 0.27539 0.5097 0.2546 0.83658 0.84579 4.4297 8.0547 2.1332 4.2799 3.8806 7.8914 3.8906 8.0254 0.0067 0.13402-0.07208 0.32983-0.17578 0.43359h-0.00196c-0.273 0.27355-29.846 0.27355-30.119 0-0.1417-0.1418-0.18945-2.1882-0.18945-8.2441 0-8.0557 2.1e-4 -8.0561 0.34961-8.3008 0.308-0.21558 1.5971-0.24429 10.809-0.24414zm42.527 30.025c5.3518 0 5.3154-0.028816 5.3984 4.1465 0.0604 3.031-0.10075 3.7597-0.96875 4.3789-0.4808 0.34298-0.62913 0.35781-4.1152 0.37891-1.9886 0.012-3.8117-0.011081-4.0527-0.050781-0.2409-0.0397-0.67896-0.31174-0.97266-0.60547-0.6753-0.6756-0.7575-1.1916-0.6875-4.3359 0.0869-3.906 0.09664-3.9121 5.3984-3.9121zm-90.318 8.5664c-1.973 0-2.4386 0.050693-3.459 0.37695-4.3258 1.383-7.6477 5.071-8.4922 9.4277-0.3834 2.0029-0.38264 2.8594 0.00976 4.7188 0.5684 2.693 2.2043 5.381 4.2852 7.043 1.3014 1.0395 3.344 2.0801 4.752 2.4219l-0.00195 0.001953c1.4451 0.35082 4.0939 0.37325 5.5996 0.048828 1.4015-0.302 3.6097-1.3794 4.8945-2.3887 1.928-1.5145 3.6683-4.1884 4.3184-6.6367 0.3679-1.3904 0.3686-4.4214 0-5.8164-0.3704-1.4024-1.5308-3.6672-2.4492-4.7812-1.4886-1.8056-3.7222-3.3084-5.998-4.0371-1.0212-0.32688-1.4848-0.37891-3.459-0.37891zm72.947 0.001953c-2.0272 0.00184-2.4187 0.047439-3.5371 0.41211-2.2897 0.7466-4.3785 2.1554-5.8008 3.9102-3.2773 4.044-3.7902 9.1509-1.3613 13.557 1.6544 3.0009 4.5188 5.2523 7.7461 6.0859 1.4703 0.37975 4.0667 0.41262 5.6465 0.072265 1.4348-0.3091 3.6479-1.4018 4.9668-2.4512 2.7165-2.1616 4.5957-6.0388 4.5957-9.4824 0-2.5097-1.1662-5.7131-2.7969-7.6875-1.4947-1.8097-3.724-3.3104-6-4.0391-1.0231-0.32751-1.4812-0.37895-3.459-0.37695zm-0.07812 3.9512c2.3466-0.0178 4.2443 0.76581 5.9199 2.4414 1.6656 1.6657 2.4132 3.6685 2.3008 6.1719-0.065 1.4477-0.12472 1.698-0.70312 2.9199-0.3479 0.7349-0.92992 1.667-1.291 2.0723-0.86742 0.97337-2.2973 1.9121-3.5137 2.3066-4.8925 1.5841-9.8956-1.4382-10.674-6.4492-0.7752-4.9915 2.9538-9.4249 7.9609-9.4629zm-72.865 0.003906c2.3325-0.0056 4.1691 0.76282 5.8594 2.4531 4.1865 4.1863 2.399 11.647-3.2227 13.451-2.6333 0.8452-5.397 0.40995-7.5195-1.1855-1.3625-1.0243-2.2964-2.3252-2.9316-4.082-0.4081-1.1293-0.36437-4.0753 0.07813-5.2051 1.338-3.4157 4.1964-5.4226 7.7363-5.4316zm36.914 76.006c-10.305 0-18.658 8.3532-18.658 18.658 0 10.304 8.3542 18.656 18.658 18.656 10.304 0 18.658-8.3512 18.658-18.656 0-10.305-8.3532-18.658-18.658-18.658z" fill="#fff"/>
  <path id="5" d="m738.41 1.1309v46.385h-46.385v27.23h46.385v46.385h27.23v-46.385h46.385v-27.23h-46.385v-46.385h-27.23zm13.611 150.42c-10.305 0-18.658 8.3532-18.658 18.658 0 10.304 8.3542 18.656 18.658 18.656 10.304 0 18.658-8.3512 18.658-18.656 0-10.305-8.3532-18.658-18.658-18.658z" fill="#fff"/>
  <path d="m84.03 167.2c0.12855 0.98888 0.21679 1.9899 0.21679 3.0117 0 1.0223-0.0889 2.0225-0.21679 3.0117h121.71c-0.24069-1.9988-0.24587-4.0246-8e-3 -6.0234zm170.63 0c0.23697 1.9975 0.23353 4.0253-0.01 6.0234h126.91c-0.24152-1.999-0.24385-4.0248-6e-3 -6.0234zm175.81 0c0.23708 1.9978 0.23569 4.0252-6e-3 6.0234h126.91c-0.24178-1.9988-0.24572-4.025-8e-3 -6.0234zm175.81 0c0.23662 1.9982 0.22694 4.0247-0.0156 6.0234h121.31c-0.24178-1.9988-0.24572-4.025-8e-3 -6.0234z" color="#000000" color-rendering="auto" dominant-baseline="auto" fill="#fff" image-rendering="auto" shape-rendering="auto" solid-color="#000000" stop-color="#000000" style="font-feature-settings:normal;font-variant-alternates:normal;font-variant-caps:normal;font-variant-east-asian:normal;font-variant-ligatures:normal;font-variant-numeric:normal;font-variant-position:normal;font-variation-settings:normal;inline-size:0;isolation:auto;mix-blend-mode:normal;shape-margin:0;shape-padding:0;text-decoration-color:#000000;text-decoration-line:none;text-decoration-style:solid;text-indent:0;text-orientation:mixed;text-transform:none;white-space:normal"/>
</svg>
