<svg version="1.1" viewBox="0 0 812 190" xmlns="http://www.w3.org/2000/svg">
  <path d="m368.99 1.1303-1.2625 0.4159c-2.8372 0.93437-4.846 2.115-6.5283 3.8378-1.927 1.9735-3.3841 4.4185-4.036 6.7725-0.24055 0.86868-0.29262 1.8376-0.34484 6.396l-0.0615 5.3719-3.5724 0.0883c-4.6388 0.11436-5.5576 0.37261-6.6396 1.8663-0.39687 0.54787-0.56407 1.0362-1.1065 3.2337l-0.1615 0.65492-1.5335 0.11259c-1.7309 0.12733-2.5775 0.40097-3.0328 0.97976 0 0-0.31193 0.80017-0.31193 22.088l0.56817 0.62908c0.35842 0.39673 0.79898 0.69118 1.1932 0.79735 0.3933 0.1059 2.1828 0.1503 4.8262 0.11966 4.6547-0.0539 4.8501-0.0945 5.479-1.1333 0.28318-0.46776 0.29715-0.9842 0.29715-11.122 0-9.8755-0.0199-10.668-0.27901-11.142-0.47328-0.86611-0.93513-1.0557-2.7852-1.1434l-1.6608-0.0787 0.0304-0.90532c0.0385-1.137 0.29271-1.6688 0.9933-2.0792 0.50329-0.29485 0.8626-0.32757 4.131-0.37714l3.5798-0.0544 0.048 39.981c0.0437 36.445 0.0709 40.073 0.3067 41.027 0.55105 2.2296 1.505 3.2944 3.5108 3.9188 0.39486 0.1229 2.1878 0.23213 4.8038 0.29286l4.1738 0.0969 0.0788 2.9138c0.0886 3.2793 0.23426 3.8024 1.3806 4.9533 1.4102 1.4157 2.1838 1.5429 8.9357 1.4726 5.0889-0.053 5.3981-0.073 6.2262-0.40421 1.052-0.42076 2.0498-1.393 2.5431-2.4779 0.3199-0.70364 0.3642-1.0853 0.41651-3.5831l0.0584-2.7956h33.481l0.064 2.7169c0.0611 2.5865 0.0861 2.7646 0.51619 3.7105 0.54425 1.1968 1.5026 2.0997 2.6572 2.5025 0.72889 0.2543 1.4345 0.28393 6.7208 0.28393h5.9063l0.86625-0.4079c1.2516-0.58943 1.8134-1.1302 2.3893-2.3001 0.50586-1.0275 0.50991-1.0546 0.57587-3.8489l0.0664-2.8144 3.4847-2e-3c3.7159-2e-3 5.1045-0.14482 6.2404-0.64599 0.86074-0.37978 1.807-1.2649 2.2308-2.0863 0.78621-1.5237 0.75689 0.12616 0.75982-42.592 2e-3 -35.001 0.031-39.903 0.23471-39.981 0.1277-0.049 1.7628-0.0122 3.6333 0.0815 3.7922 0.19002 4.289 0.31615 4.7063 1.1954 0.13663 0.28793 0.24855 0.9202 0.24855 1.4052v0.88194h-1.5119c-1.7403 0-2.4496 0.24595-2.9162 1.0112-0.28176 0.46206-0.29593 0.99381-0.29593 11.195 0 10.339 0.0108 10.727 0.307 11.213 0.63307 1.0383 0.76056 1.0665 5.0649 1.121 4.3056 0.0545 4.7984-0.0138 5.8426-0.80873 0.37165-0.28295 0.76443-0.56866 0.87271-0.63492l0.19688-21.939-0.35438-0.32423c-0.74962-0.68543-1.3927-0.88212-2.9448-0.90132l-1.488-0.0185-0.35222-1.4384c-0.56018-2.2889-1.2011-3.2627-2.5422-3.8622-0.85006-0.37998-3.7795-0.63276-6.5723-0.56725l-2.0475 0.048-0.0181-5.1188c-0.0197-5.5857-0.0773-6.0731-1.0007-8.4675-1.5729-4.0786-5.5553-7.6723-9.8579-8.8957l-1.2508-0.35561-37.089-0.04zm16.218 6.2225h20.79c20.478 0 20.799 5e-3 21.41 0.315 1.0496 0.5334 1.2172 0.90874 1.3492 3.0184 0.0642 1.0253 0.0661 2.4878 4e-3 3.25-0.12472 1.5379-0.36171 2.0101-1.2812 2.5517-0.52682 0.3103-0.83995 0.31551-21.01 0.33899-11.261 0.0131-20.786-0.038-21.165-0.11351-0.88072-0.17522-1.3588-0.4922-1.7088-1.1326-0.23918-0.43769-0.27871-0.93659-0.27871-3.5028 0-3.437 0.0915-3.7641 1.2237-4.3691zm-11.135 15.685c2.3757 4.7e-4 5.4202 7e-3 9.3399 0.0178l17.262 0.0468 1.0868 0.55248c1.1868 0.60353 1.924 1.4769 2.305 2.7304 0.1558 0.5126 0.19903 4.9296 0.19903 20.342v19.688l-0.35807 0.88533c-0.44981 1.1121-1.2598 1.9547-2.3877 2.4837l-0.87672 0.41098-17.404 0.0301c-15.127 0.0262-17.504-1e-3 -18.172-0.20733-0.83847-0.25936-1.7566-0.7921-2.1776-1.2634-0.14755-0.16517-0.46649-0.72383-0.70875-1.2412l-0.44051-0.9407-0.0425-19.514c-0.0367-16.886-0.0109-19.638 0.19257-20.432 0.46663-1.8214 1.5058-2.8863 3.2746-3.3558 0.67112-0.17814 1.7805-0.23356 8.9077-0.23225zm45.435 3e-3c2.4455 6.3e-4 5.6722 8e-3 9.9582 0.0188l17.325 0.0428 0.80442 0.36422c1.0021 0.45357 1.8289 1.2882 2.2918 2.3133 0.32013 0.70905 0.36656 1.1327 0.46665 4.2525 0.173 5.3924 0.15506 33.652-0.0224 35.338-0.17997 1.7086-0.56439 2.6935-1.3763 3.5268-0.9034 0.92724-1.9629 1.2551-4.3316 1.3412l-2.0097 0.0732-0.18211-0.53064c-0.42931-1.2506-1.9384-3.9426-2.8713-5.1225-1.2484-1.5788-2.6234-2.7154-4.267-3.5262-2.0171-0.99517-2.9189-1.1745-5.9063-1.1745-2.284 0-2.7419 0.0447-3.78 0.36883-3.9255 1.2257-6.8976 4.1497-8.7428 8.601l-0.52541 1.2677-2.3354 0.028c-1.2844 0.0153-2.5123-0.0272-2.7289-0.0944-1.4684-0.45581-2.5862-1.5048-3.1882-2.9922l-0.35561-0.87887-0.0455-18.9c-0.032-13.297 6e-3 -19.202 0.12859-19.92 0.39083-2.2848 1.3755-3.5247 3.2512-4.0944 0.79836-0.24249 1.106-0.30455 8.4426-0.30269zm9.6623 39.995c1.6097-0.0262 3.2554 0.36461 4.8988 1.1757 1.941 0.958 3.2444 2.2404 4.1224 4.0562 0.34496 0.71345 0.67169 1.4567 0.72598 1.6516l0.0987 0.35437h-9.4608c-9.2954 0-9.4605-5e-3 -9.4605-0.30915 0-1.1784 1.6026-3.6211 3.1276-4.7675 1.8685-1.4046 3.8782-2.1276 5.9478-2.1613zm-23.25 18.424c15.678 3e-3 16.489 0.0172 17.101 0.295 0.85749 0.38946 1.1448 1.0358 0.83119 1.8697-0.45672 1.2143 0.73146 1.1388-17.853 1.1388-15.431 0-16.574-0.0187-17.085-0.27562-1.0561-0.53095-1.0582-2.2287-3e-3 -2.7556 0.51439-0.25696 1.652-0.27523 17.01-0.27224zm33.157 6.1554c1.3938 0.0162 2.5579 0.36089 3.6634 1.0766 1.6474 1.0666 2.7131 2.7107 3.0571 4.717 0.61202 3.569-1.996 7.1901-5.6823 7.8892-1.0362 0.19651-1.4254 0.18808-2.5372-0.0551-2.0496-0.44823-3.9967-2.0265-4.9296-3.996-0.47223-0.99693-0.50418-1.1746-0.50418-2.7972 0-1.6226 0.0319-1.7999 0.50418-2.7969 0.69617-1.4696 1.8684-2.6655 3.313-3.3795 0.99265-0.49058 1.3601-0.58505 2.5037-0.64507 0.20898-0.011 0.41273-0.0156 0.61185-0.0132zm-65.996 0.0621c1.6655 0 1.7784 0.0221 2.9239 0.5691 2.0896 0.99792 3.5322 2.864 3.9434 5.1009 0.85606 4.6572-3.8168 9.0357-8.4044 7.875-4.7942-1.213-6.8938-6.7071-4.1095-10.754 0.70861-1.0299 1.4448-1.6217 2.8356-2.2804 1.0128-0.4797 1.1839-0.51095 2.811-0.51095zm39.003 2.1259c12.08 3e-3 11.326 0.0745 11.718 1.0133 0.28739 0.68779 0.0525 1.5676-0.51833 1.9417-0.39005 0.2556-1.5423 0.27646-17.042 0.307-14.522 0.0286-16.695 3e-3 -17.192-0.2052-0.83492-0.349-1.2021-1.461-0.75705-2.2927 0.41666-0.77852 0.0742-0.76381 17.788-0.76381h6.0038zm-6.0539 8.3503c12.962 2e-3 16.751 0.0458 17.057 0.19811 0.21657 0.10768 0.52562 0.46535 0.68692 0.79489 0.26274 0.53681 0.27044 0.65964 0.0747 1.18-0.14692 0.3907-0.39751 0.67119-0.76566 0.85641-0.5109 0.25704-1.6433 0.275-17.006 0.26947-13.513-5e-3 -16.547-0.0442-16.951-0.21993-0.63824-0.27779-1.0044-0.81493-1.0044-1.4729 0-0.6918 0.22174-1.0796 0.78412-1.3704 0.40188-0.20782 2.5658-0.23767 17.124-0.23564z" fill="#fff" stop-color="#000000" stroke-width="6.101"/>
  <path d="m7.3127 104.2c-0.75838-0.41642-1.3127-0.94636-1.7761-1.6979l-0.67368-1.0925-0.0613-19.558-0.0613-19.558 1.9906-4.7707 1.9906-4.7707-2.1514-0.36075c-4.0327-0.67619-5.8694-2.0179-6.4776-4.7316-0.31332-1.3981 0.043-3.2122 0.80985-4.1236l0.55858-0.66384h11.873l3.8429-8.6653c4.0818-9.204 4.5218-9.9752 7.3172-12.824 1.6335-1.6649 3.1652-2.6816 5.1242-3.4013l1.4431-0.53015h57.947l1.4431 0.53015c1.9186 0.70481 3.477 1.7257 5.0774 3.3262 2.7762 2.7762 3.4649 3.9805 7.4763 13.073l3.7467 8.4922h5.9093c5.8462 0 5.9141 5e-3 6.3613 0.49954 0.62766 0.69374 0.95752 1.7974 0.95752 3.204 0 3.3691-2.4812 5.3732-7.3821 5.9628-0.70213 0.0845-1.2766 0.22408-1.2766 0.31027 0 0.0862 0.90215 2.3203 2.0048 4.9646l2.0048 4.808-0.13743 19.154c-0.0856 11.936-0.22251 19.433-0.36318 19.895-0.29672 0.97348-1.3716 2.1766-2.4245 2.7138-0.7946 0.40538-1.3729 0.43096-9.7414 0.43096-9.6927 0-9.8394-0.0169-11.178-1.2884-1.3283-1.2617-1.3582-1.4196-1.4788-7.8143l-0.11102-5.8835-59.807-0.1126-0.069 5.8288c-0.0647 5.4716-0.0982 5.8832-0.54689 6.7168-0.59988 1.1147-1.2963 1.7699-2.3487 2.2096-0.69688 0.29118-2.1875 0.34283-9.7658 0.33844l-8.9433-5e-3zm18.007-26.43c1.5275-0.77109 3.0224-2.2935 3.7074-3.7756 0.70781-1.5315 0.66798-4.5966-0.0798-6.1445-0.68439-1.4166-2.238-2.9752-3.6587-3.6705-1.5893-0.77783-4.1882-0.87515-5.9282-0.22201-5.5872 2.0972-6.5528 9.8301-1.6491 13.207 1.644 1.1323 2.816 1.4707 4.7142 1.3612 1.1855-0.0684 1.9043-0.25614 2.8944-0.75592zm75.842 0.12549c1.512-0.69222 2.8439-1.9891 3.6399-3.544 0.46171-0.90198 0.62241-1.5837 0.69516-2.9493 0.12984-2.4369-0.43948-3.9435-2.144-5.6738-1.6737-1.699-3.1898-2.2774-5.686-2.1693-2.9526 0.1279-5.0842 1.509-6.3737 4.1296-0.65478 1.3307-0.73044 1.6823-0.72675 3.3765 3e-3 1.5485 0.10232 2.0922 0.54618 3.0012 1.0123 2.0731 3.0634 3.7839 5.2222 4.3557 1.2265 0.32485 3.5118 0.0755 4.8271-0.52664zm-23.102-1.3188c2.091-1.5952 1.9676-4.3789-0.26142-5.896l-0.73397-0.49954h-34.244l-0.80486 0.54692c-0.82543 0.5609-1.7404 2.1118-1.7404 2.95 0 1.2049 1.0802 2.7321 2.3312 3.2958 0.54415 0.24522 3.7779 0.29106 17.668 0.25048l17.002-0.0497zm22.094-28.653c-0.29162-0.70961-4.0254-9.0344-5.2528-11.711-2.9392-6.4109-4.5423-8.731-6.8628-9.9322l-1.3998-0.72461-53.134 6e-3 -1.1101 0.51843c-3.0008 1.4014-4.1973 3.3468-9.92 16.129-1.3394 2.9917-2.4885 5.5643-2.5534 5.717-0.0942 0.22143 8.0134 0.27752 40.115 0.27752 32.099 0 40.21-0.0561 40.119-0.27752z" fill="#fff" stroke-width=".22202"/>
  <path d="m528.76 102.79c-0.1544-0.18602-0.3579-1.0246-0.4522-1.8635-0.2554-2.2718-0.3181-2.3366-2.205-2.2821-0.8927 0.0257-1.8398-0.0326-2.1047-0.12966-0.5541-0.20308-0.9208-1.2126-1.6856-4.6411-0.5237-2.347-0.542-2.9693-0.4647-15.807 0.089-14.811-0.1303-12.169 2.2628-27.244 0.3546-2.2337 0.7906-4.0371 1.1495-4.7551 0.5453-1.091 2.1975-3.0017 3.3338-3.8555 1.5507-1.1652 4.9325-3.1562 5.8458-3.4417 0.4175-0.13051 0.4498-0.80734 0.4498-9.4187 0-5.4982 0.1015-9.4677 0.2491-9.7436 0.2377-0.44416 1.3602-0.46615 24.437-0.47881 24.188-0.0133 24.188-0.0133 25.261 0.76022 0.5901 0.42541 4.3115 2.9806 8.2697 5.6782 3.9583 2.6976 7.2547 4.9771 7.3254 5.0657 0.071 0.0885 1.1117 0.81726 2.3133 1.6194 1.2016 0.8021 3.0621 2.0699 4.1343 2.8173 1.0723 0.7474 3.8799 2.689 6.2391 4.3148 2.3592 1.6257 7.959 5.4879 12.444 8.5826 4.4851 3.0947 9.7739 6.7206 11.753 8.0574 1.9791 1.3368 3.8008 2.6634 4.0482 2.9479 0.4166 0.47915 0.4498 1.5561 0.4498 14.594 0 14.701-0.016 14.916-1.0598 14.533-0.1946-0.0715-1.1057-0.23873-2.0246-0.3716s-5.3719-0.77989-9.8956-1.4378c-4.5238-0.65793-8.9768-1.2977-9.8957-1.4217s-2.2836-0.34386-3.0328-0.48859c-0.7492-0.14474-1.4432-0.24527-1.5422-0.22339-0.195 0.043-1.9161-0.18641-4.164-0.5552-1.4233-0.23351-2.6492-0.41502-7.8395-1.1607-1.555-0.22342-3.5791-0.51467-4.498-0.64723s-2.1912-0.31141-2.8273-0.39745c-0.6362-0.0861-2.6603-0.38067-4.498-0.65478-1.8378-0.2741-3.9198-0.56989-4.6266-0.65731-2.1355-0.2641-2.2177-0.35983-2.1315-2.4805 0.075-1.8486 0.075-1.8486 1.2319-1.7856 0.6362 0.0346 1.6193 0.17363 2.1847 0.30893 0.5655 0.13531 2.3583 0.49163 3.984 0.79182s3.8233 0.71022 4.8836 0.91115c3.5585 0.67441 4.4909 0.84979 5.9117 1.1118 0.7775 0.1434 4.1896 0.78511 7.5824 1.426 3.3928 0.64087 6.9206 1.288 7.8394 1.438 0.9189 0.15005 2.1334 0.38013 2.6988 0.5113 0.5655 0.13117 2.5896 0.5292 4.4981 0.88451 1.9084 0.35532 5.0892 0.94797 7.0683 1.317 1.9791 0.36904 4.1189 0.76799 4.7551 0.88657 0.6361 0.11857 1.7349 0.32975 2.4417 0.46928 0.7069 0.13952 1.3776 0.16372 1.4906 0.0537 0.113-0.10996 0.1708-0.9847 0.1285-1.9439-0.086-1.9401 0.6057-1.6059-7.1452-3.4545-4.5961-1.0961-21.247-5.1746-22.105-5.4142-0.4948-0.13828-2.6346-0.65917-4.7551-1.1575s-4.2603-1.0205-4.755-1.1603c-0.4948-0.13981-1.9406-0.49072-3.2129-0.77983-1.2723-0.2891-3.4121-0.80392-4.7551-1.144s-3.9454-0.98118-5.7832-1.4246c-1.8377-0.44338-3.5438-0.86197-3.7911-0.93022-0.369-0.10174-0.4498-0.42141-0.4498-1.7774 0-1.1808 0.095-1.6534 0.3323-1.6534 0.1829 0 1.3684 0.29038 2.6346 0.64528 1.2662 0.35491 2.707 0.75736 3.2018 0.89434 0.4947 0.13698 1.7488 0.49082 2.7867 0.78631 5.71 1.6256 9.2661 2.6175 10.065 2.8074 0.4948 0.1176 1.9984 0.52061 3.3414 0.89556 1.343 0.37496 3.2514 0.89566 4.241 1.1571 0.9896 0.26146 2.551 0.70718 3.4699 0.99045 0.9189 0.28329 2.4804 0.71119 3.4699 0.9509 0.9896 0.23971 2.2619 0.58234 2.8273 0.76141 0.5655 0.17905 2.4161 0.70249 4.1125 1.1632 1.6964 0.4607 4.0097 1.1079 5.1406 1.4383 2.0557 0.6005 3.7108 1.0524 6.4901 1.7721 0.8128 0.21047 2.0845 0.58121 2.8259 0.82385 1.4792 0.48408 2.0451 0.28034 1.7555-0.63204-0.1649-0.51962-1.145-0.86557-13.642-4.8154-2.5446-0.80426-5.841-1.8504-7.3253-2.3248-1.4844-0.47437-4.4338-1.4052-6.5543-2.0684-2.1205-0.66327-4.8386-1.5215-6.0402-1.9071-8.2227-2.639-12.534-4.0092-16.578-5.2686-2.5446-0.79241-5.0314-1.5835-5.5261-1.7579-0.8997-0.31713-0.8997-0.31713-0.9667-20.216-0.043-12.782-0.1587-19.991-0.3231-20.155-0.1701-0.17006-0.3851-0.127-0.6403 0.12818-0.3357 0.33566-0.3923 4.0548-0.448 29.419-0.064 29.035-0.064 29.035-5.7184 29.1-3.11 0.0361-5.8186 0.12669-6.0189 0.2012-0.6143 0.22849 0.06 0.64176 1.112 0.68129 0.6775 0.0255 1.0652 0.19668 1.2959 0.5722 0.6559 1.0678 0.9725 5.4671 0.8246 11.46-0.1717 6.954-0.4538 9.9783-0.9607 10.299-0.4566 0.289-7.4422 0.30744-7.8939 0.0209-0.1824-0.11573-0.4536-1.0104-0.6026-1.988-0.149-0.9777-0.3714-1.8833-0.4943-2.0125-0.1293-0.13589-5.6545-0.2316-13.112-0.22714-14.222 9e-3 -13.336-0.10386-13.343 1.6911 0 0.53466-0.1715 1.3732-0.3763 1.8635-0.3725 0.89135-0.3725 0.89135-4.2096 0.89135-2.8585 0-3.9087-0.0863-4.1178-0.33823zm44.014-4.1808c0.206-0.53696 0.2019-12.151 0-13.184-0.2429-1.2141-0.8042-0.98964-1.0445 0.41768-0.2651 1.5521-0.2648 10.93 0 12.209 0.205 0.98873 0.7683 1.288 1.0487 0.5573zm-4.6923-3.1776c0.09-8e-3 0.1826-2.324 0.2055-5.1468 0.042-5.1325 0.042-5.1325-0.5494-5.2732-0.3251-0.0774-10.422-0.10995-22.439-0.0724-21.848 0.0684-21.848 0.0684-21.927 3.0242-0.1034 3.8385 0.534 7.3901 1.3472 7.5064 0.4131 0.0591 42.675 0.0219 43.362-0.0382zm-29.839-2.5618c-0.3908-0.73013-0.33-2.135 0.1202-2.7778 0.3724-0.53171 0.5807-0.55683 4.7498-0.57293 4.9804-0.0192 4.7436-0.14566 4.5796 2.4453-0.08 1.2681-0.08 1.2681-4.6303 1.3383-4.2924 0.0662-4.5654 0.0417-4.8193-0.43291zm19.265-2.336c-3.2129-0.12852-3.2129-0.12852-3.2129-2.0562 0-1.9277 0-1.9277 3.4499-1.9998 3.8799-0.081 3.8673-0.0866 3.868 1.7427 0 1.4278-0.2077 2.2521-0.5962 2.3598-0.1628 0.0451-1.7418 0.0242-3.5088-0.0464zm-32.279-0.34837c-0.073-0.19159-0.099-1.088-0.056-1.992 0.078-1.6436 0.078-1.6436 3.0976-1.716 3.0201-0.0724 3.0201-0.0724 3.0201 1.992 0 2.0644 0 2.0644-2.9639 2.0644-2.2569 0-2.9958-0.0831-3.0976-0.34837zm43.006-7.2094c0.045-0.0449 0.2316-0.94461 0.4151-1.9995 0.1834-1.0549 0.5945-2.4572 0.9136-3.1162 0.4759-0.98326 0.7607-1.2523 1.5871-1.5 1.0072-0.30175 1.0072-0.30175 1.0086-7.6507 0-4.0419 0.013-12.163 0.026-18.048 0.026-11.25-0.011-11.649-1.1275-11.929-0.314-0.0787-7.5107-0.10506-15.993-0.0585-15.422 0.0846-15.422 0.0846-17.392 0.76455-4.9651 1.7131-8.8606 4.1959-10.721 6.8332-0.7058 1.0004-1.1138 2.935-2.2335 10.59-0.2171 1.4844-0.6134 4.1359-0.8807 5.8923-0.3919 2.5757-0.4952 4.8382-0.5339 11.695-0.048 8.5014-0.048 8.5014 3.7764 8.6299 3.9689 0.13337 41.011 0.0399 41.155-0.10386zm-42.734-1.8665c-0.3291-0.32911-0.3784-1.3056-0.3201-6.3419 0.069-5.9529 0.069-5.9529 17.904-6.0189 12.961-0.048 17.931 0.0133 18.185 0.22425 0.2758 0.22888 0.3497 1.4982 0.3497 6.0022 0 5.2068-0.042 5.7495-0.4699 6.1372-0.428 0.38733-2.0236 0.42357-17.865 0.40581-15.171-0.017-17.445-0.0693-17.784-0.40852zm-0.2726-18.057c-0.1865-0.18655-0.116-1.7362 0.1376-3.0219 0.1346-0.68227 0.3661-2.0501 0.5146-3.0397 0.1485-0.98956 0.5133-3.4185 0.8107-5.3976 0.5539-3.6863 0.9239-4.8291 1.6544-5.1095 0.2289-0.0878 8.437-0.15965 18.24-0.15965 19.479 0 18.408-0.0832 18.795 1.4586 0.1878 0.74824-0.055 3.4218-0.9526 10.493-0.1435 1.1309-0.328 2.6635-0.41 3.4057-0.082 0.74217-0.2214 1.3523-0.3099 1.3558-1.9113 0.0757-38.405 0.09-38.48 0.0151zm40.953-0.43225c-0.086-0.13919 0.01-1.5784 0.2032-3.1982 0.1977-1.6199 0.4837-4.1018 0.6355-5.5155 0.4526-4.2166 0.8139-5.9923 1.3326-6.549 0.5172-0.55519 1.3573-0.68803 1.6239-0.25677 0.089 0.1444 0.1617 2.6023 0.161 5.4619 0 4.0229-0.088 5.4044-0.3836 6.1058-0.4677 1.1088-3.3555 4.3031-3.5726 3.9519zm-28.83-25.035c0.059 0 0.1075-3.647 0.1075-8.1045 0-7.0676-0.051-8.124-0.3967-8.2567-0.2181-0.0837-0.4783-0.0704-0.5783 0.0294-0.2154 0.21539-0.3564 15.477-0.1493 16.158 0.087 0.28543 0.2923 0.41093 0.526 0.32129 0.2108-0.0809 0.4317-0.14711 0.4908-0.14711zm51.113 65.362c-0.5583-0.42135-0.9123-1.8616-1.2531-5.0985-0.4892-4.6458-0.1978-8.6822 0.8017-11.107 0.3444-0.83535 0.3444-0.83535 2.8598-0.83535 1.6138 0 2.626 0.11056 2.8239 0.30843 0.2399 0.2399 0.377 0.2399 0.6169 0 0.198-0.19803 1.2123-0.30843 2.8337-0.30843 2.516 0 2.5263 3e-3 2.8034 0.70684 0.6693 1.701 0.9943 4.2327 0.9943 7.7454 0 3.9463-0.3515 6.6192-1.0348 7.8692-0.413 0.75562-0.4668 0.77259-2.6784 0.84578-1.6829 0.0557-2.408-0.0244-2.8511-0.31463-0.426-0.27911-0.6225-0.30421-0.6944-0.0887-0.117 0.35111-4.7948 0.59883-5.2219 0.27653zm10.924-3.7619c0.5461-1.66 0.7251-5.164 0.3954-7.7397-0.1758-1.3728-0.4297-2.6061-0.5643-2.7407-1.039-1.039-1.989 3.1855-1.6249 7.226 0.2704 3.0007 0.6571 4.4006 1.1622 4.2068 0.2003-0.0768 0.4845-0.50544 0.6316-0.95239zm9.5786 3.4824c-0.3938-0.39381-0.7634-1.618-1.2354-4.0919-0.1-0.5236-0.2737-0.57378-2.2265-0.64257-2.1182-0.0746-2.1182-0.0746-2.1929-2.1992-0.087-2.4818-0.1508-2.4213 2.5875-2.4695 1.8482-0.0325 1.8482-0.0325 2.0513-1.439 0.1117-0.77357 0.4028-1.8145 0.6468-2.3133 0.4437-0.90679 0.4437-0.90679 3.1425-0.98168 2.5431-0.0705 2.7263-0.0411 3.1745 0.5102 0.4757 0.58508 0.4757 0.58508 0.9408 0.0106 0.4279-0.52836 0.681-0.57444 3.1556-0.57444 2.8806 0 3.0847 0.0821 3.4084 1.3718 0.1823 0.72639 0.1823 0.72639 0.9058-0.0657 0.6978-0.76399 0.7997-0.79209 2.8735-0.79209 2.4688 0 2.8838 0.20472 3.3942 1.6741 0.3032 0.87319 0.3836 0.9487 0.5437 0.51067 0.4532-1.2401 0.8454-1.4137 3.1941-1.4137 2.8837 0 2.9989 0.12026 3.7178 3.8802 0.1215 0.63534 0.2357 0.67849 2.3817 0.89961 2.254 0.23225 2.254 0.23225 2.254 1.7744 0 1.5422 0 1.5422-2.1766 1.6177-2.3905 0.083-2.5685 0.19505-2.5745 1.621 0 1.1058-0.4427 2.5016-0.9798 3.1227-0.3153 0.36466-0.8159 0.4498-2.6441 0.4498-2.2983 0-3.0629-0.28953-3.0629-1.1598 0-0.73908-0.4751-0.59789-0.8834 0.26249-0.4258 0.89733-0.4258 0.89733-2.9657 0.89733-2.6877 0-3.1208-0.16545-3.4917-1.3339-0.1711-0.53895-0.1922-0.53172-0.5683 0.1943-0.2148 0.41474-0.5183 0.83906-0.6745 0.94291-0.1561 0.10387-1.4032 0.19061-2.7713 0.19278-2.3493 4e-3 -2.5154-0.0318-2.9928-0.63864-0.5752-0.73127-0.8171-0.81002-0.8171-0.26607 0 0.65572-0.9253 0.90864-3.3244 0.90864-1.8963 0-2.4159-0.0857-2.7903-0.46005zm12.466-2.6886c0.656-1.2102 0.6592-7.1375 0-8.3446-0.9745-1.797-1.8385 0.091-1.8484 4.0394-0.01 2.7896 0.2247 4.1813 0.7901 4.7468 0.5241 0.52404 0.5322 0.52062 1.0538-0.44154zm7.1659-0.12851c0.8979-2.0823 0.413-8.2892-0.6475-8.2892-0.7034 0-1.0463 1.5042-1.0463 4.5888 0 4.1162 0.7798 5.82 1.6938 3.7004zm6.9771 0.17247c0.1975-0.38708 0.3175-1.7394 0.3175-3.5781 0-2.9218-0.2557-4.0753-0.9547-4.3058-0.6123-0.20199-0.9345 1.3186-0.9396 4.4344 0 3.0942 0.2919 4.3908 0.9555 4.1721 0.1671-0.0551 0.4467-0.3802 0.6213-0.72245zm-58.972-1.73c-0.5139-0.0497-0.863-0.24275-0.9297-0.51406-0.059-0.23895-0.093-1.9959-0.077-3.9044 0.03-3.4699 0.03-3.4699 3.8855-3.3764 2.1205 0.0515 4.3181 0.16906 4.8836 0.26134 1.0281 0.16779 1.0281 0.16779 1.0547 3.8262 0.018 2.4838-0.064 3.6752-0.257 3.7108-0.464 0.0858-7.6683 0.0828-8.5605-4e-3z" fill="#fff" stroke-width=".25703"/>
  <path d="m190.37 95.579c-1.4079-0.34178-3.4519-1.3839-4.7533-2.4234-2.0809-1.662-3.716-4.35-4.2844-7.043-0.3924-1.8594-0.3934-2.7142-0.01-4.7171 0.8445-4.3567 4.1668-8.0448 8.4926-9.4278 1.0204-0.32626 1.4855-0.37695 3.4585-0.37695 1.9742 0 2.4373 0.0506 3.4585 0.37748 2.2759 0.72867 4.5092 2.232 5.9978 4.0376 0.9184 1.114 2.0787 3.379 2.4491 4.7814 0.3686 1.395 0.3679 4.4262 0 5.8166-0.6501 2.4483-2.3894 5.1219-4.3174 6.6364-1.2848 1.0093-3.4928 2.087-4.8943 2.389-1.5057 0.32442-4.1556 0.30072-5.6007-0.0501zm5.544-4.1275c5.6217-1.8043 7.4091-9.2657 3.2226-13.452-1.6903-1.6903-3.5258-2.4589-5.8583-2.4533-3.5399 9e-3 -6.3989 2.0157-7.7369 5.4314-0.4425 1.1298-0.4871 4.0769-0.079 5.2062 0.6352 1.7568 1.5694 3.0573 2.9319 4.0816 2.1225 1.5955 4.8862 2.0315 7.5195 1.1863zm67.354 4.1047c-3.2273-0.83359-6.0921-3.0838-7.7465-6.0847-2.4289-4.4057-1.9159-9.514 1.3614-13.558 1.4223-1.7548 3.511-3.1623 5.8007-3.9089 1.1184-0.36467 1.5099-0.4103 3.5371-0.41214 1.9778-2e-3 2.4354 0.0479 3.4585 0.37541 2.276 0.72871 4.5063 2.2302 6.001 4.0399 1.6307 1.9744 2.7956 5.1776 2.7956 7.6873 0 3.4436-1.8794 7.3216-4.5959 9.4832-1.3189 1.0494-3.5319 2.1413-4.9667 2.4504-1.5798 0.34036-4.1749 0.30685-5.6452-0.0729zm5.5884-4.1016c1.2167-0.39426 2.6459-1.3323 3.5137-2.3061 0.3611-0.40525 0.9412-1.3381 1.2891-2.073 0.5784-1.2219 0.6387-1.4717 0.7037-2.9194 0.1124-2.5034-0.6339-4.5067-2.2995-6.1724-1.6756-1.6756-3.5747-2.4583-5.9213-2.4405-5.0071 0.038-8.7365 4.4702-7.9613 9.4617 0.7783 5.0116 5.7829 8.0351 10.676 6.4497zm-93.315-8.7919c-0.8809-0.17335-2.2243-0.79182-2.9392-1.3532-0.7121-0.55917-1.8501-2.2666-2.1292-3.1948-0.1733-0.57639-0.2225-4.7839-0.2657-22.716-0.035-14.716 0-22.421 0.1115-23.252 0.3545-2.6814 1.8939-4.5994 4.3775-5.4539 0.8412-0.28942 1.9299-0.29807 37.117-0.29489 35.052 3e-3 36.318 0.0134 38.294 0.30806 3.1478 0.46945 4.7976 1.2481 6.4998 3.0677 1.2539 1.3405 1.8046 2.1702 4.5688 6.8844 1.2782 2.18 3.343 5.6892 4.5884 7.7984 2.5462 4.3122 1.5349 3.6058 8.6311 6.0296 2.5773 0.88032 8.7076 3.0118 10.061 3.4982 2.8693 1.0311 4.6865 2.4236 5.3682 4.1138 0.3698 0.91652 0.3698 0.91652 0.3698 9.9558 0 10.168 0.01 10.106-1.1119 11.79-1.0308 1.5536-2.4256 2.4822-4.229 2.8156-1.3218 0.24436-5.0313 0.22646-5.2293-0.0252-0.085-0.10808-0.2689-0.83486-0.4088-1.6151-0.9419-5.2542-5.0163-9.42-10.293-10.524-1.4416-0.30163-3.8906-0.30944-5.3995-0.0172-3.9984 0.77437-7.5319 3.5522-9.3535 7.3531-0.5972 1.2463-1.1537 3.202-1.1537 4.0548 0 0.31227-0.085 0.65266-0.1887 0.75641-0.2331 0.23319-45.798 0.27822-45.942 0.0454-0.049-0.0788-0.1957-0.70843-0.3268-1.3992-0.3326-1.7534-0.7504-2.8925-1.5967-4.3527-2.039-3.5185-5.3464-5.8563-9.2455-6.5353-1.3042-0.22712-4.5147-0.10453-5.6605 0.21615-3.9506 1.1056-7.3322 4.0928-8.9334 7.8912-0.3223 0.7646-0.8919 2.9812-0.8919 3.4708 0 0.83285-0.052 0.85358-2.0998 0.83511-1.0499-9e-3 -2.2148-0.0774-2.5886-0.15099zm112.48-11.113c0.868-0.61919 1.0294-1.3484 0.969-4.3794-0.083-4.1753-0.046-4.147-5.3978-4.147-5.3018 0-5.3119 7e-3 -5.3988 3.913-0.07 3.1443 0.012 3.6588 0.6873 4.3344 0.2937 0.29373 0.7312 0.56654 0.9721 0.60624 0.241 0.0397 2.0652 0.0623 4.0538 0.0503 3.4861-0.0211 3.6336-0.0346 4.1144-0.37758zm-27.805-21.763c0.1037-0.10376 0.1831-0.29829 0.1764-0.43231-0.01-0.13402-1.7576-3.7454-3.8908-8.0253-3.5931-7.2089-3.9191-7.8019-4.4288-8.0565-0.5073-0.2534-1.3667-0.27488-11.009-0.27511-9.2115-1.5e-4 -10.5 0.0289-10.808 0.24448-0.3494 0.24472-0.3494 0.24472-0.3494 8.3004 0 6.0559 0.047 8.1025 0.1887 8.2443 0.2735 0.27355 29.847 0.27355 30.12 0z" fill="#fff" stroke-width=".1572"/>
  <path d="m738.41 1.1304v46.385h-46.384v27.23h46.384v46.385h27.231v-46.385h46.385v-27.23h-46.385v-46.385z" fill="#fff" stop-color="#000000"/>
  <path d="m84.03 167.2c0.12855 0.98888 0.21679 1.9899 0.21679 3.0117 0 1.0223-0.0889 2.0225-0.21679 3.0117h121.71c-0.24069-1.9988-0.24587-4.0246-8e-3 -6.0234zm170.63 0c0.23697 1.9975 0.23353 4.0253-0.01 6.0234h126.91c-0.24152-1.999-0.24385-4.0248-6e-3 -6.0234zm175.81 0c0.23708 1.9978 0.23569 4.0252-6e-3 6.0234h126.91c-0.24178-1.9988-0.24572-4.025-8e-3 -6.0234zm175.81 0c0.23662 1.9982 0.22694 4.0247-0.0156 6.0234h121.31c-0.24178-1.9988-0.24572-4.025-8e-3 -6.0234z" color="#000000" color-rendering="auto" dominant-baseline="auto" fill="#fff" image-rendering="auto" shape-rendering="auto" solid-color="#000000" stop-color="#000000" style="font-feature-settings:normal;font-variant-alternates:normal;font-variant-caps:normal;font-variant-east-asian:normal;font-variant-ligatures:normal;font-variant-numeric:normal;font-variant-position:normal;font-variation-settings:normal;inline-size:0;isolation:auto;mix-blend-mode:normal;shape-margin:0;shape-padding:0;text-decoration-color:#000000;text-decoration-line:none;text-decoration-style:solid;text-indent:0;text-orientation:mixed;text-transform:none;white-space:normal"/>
  <path id="1" d="m78.637 170.21c0 10.305-8.3536 18.658-18.658 18.658-10.304 0-18.658-8.3535-18.658-18.658 0-10.305 8.3534-18.658 18.658-18.658 10.305-9e-5 18.658 8.3534 18.658 18.658z" color="#000000" color-rendering="auto" dominant-baseline="auto" fill="#fff" image-rendering="auto" shape-rendering="auto" solid-color="#000000" stop-color="#000000" style="font-feature-settings:normal;font-variant-alternates:normal;font-variant-caps:normal;font-variant-east-asian:normal;font-variant-ligatures:normal;font-variant-numeric:normal;font-variant-position:normal;font-variation-settings:normal;inline-size:0;isolation:auto;mix-blend-mode:normal;shape-margin:0;shape-padding:0;text-decoration-color:#000000;text-decoration-line:none;text-decoration-style:solid;text-indent:0;text-orientation:mixed;text-transform:none;white-space:normal"/>
  <path id="2" d="m248.85 170.21c0 10.305-8.3536 18.658-18.658 18.658-10.304 0-18.658-8.3535-18.658-18.658 0-10.305 8.3534-18.658 18.658-18.658 10.305-9e-5 18.658 8.3534 18.658 18.658z" color="#000000" color-rendering="auto" dominant-baseline="auto" fill="#fff" image-rendering="auto" shape-rendering="auto" solid-color="#000000" stop-color="#000000" style="font-feature-settings:normal;font-variant-alternates:normal;font-variant-caps:normal;font-variant-east-asian:normal;font-variant-ligatures:normal;font-variant-numeric:normal;font-variant-position:normal;font-variation-settings:normal;inline-size:0;isolation:auto;mix-blend-mode:normal;shape-margin:0;shape-padding:0;text-decoration-color:#000000;text-decoration-line:none;text-decoration-style:solid;text-indent:0;text-orientation:mixed;text-transform:none;white-space:normal"/>
  <path id="3" d="m424.66 170.21c0 10.305-8.3536 18.658-18.658 18.658-10.304 0-18.658-8.3535-18.658-18.658 0-10.305 8.3534-18.658 18.658-18.658 10.305-9e-5 18.658 8.3534 18.658 18.658z" color="#000000" color-rendering="auto" dominant-baseline="auto" fill="#fff" image-rendering="auto" shape-rendering="auto" solid-color="#000000" stop-color="#000000" style="font-feature-settings:normal;font-variant-alternates:normal;font-variant-caps:normal;font-variant-east-asian:normal;font-variant-ligatures:normal;font-variant-numeric:normal;font-variant-position:normal;font-variation-settings:normal;inline-size:0;isolation:auto;mix-blend-mode:normal;shape-margin:0;shape-padding:0;text-decoration-color:#000000;text-decoration-line:none;text-decoration-style:solid;text-indent:0;text-orientation:mixed;text-transform:none;white-space:normal"/>
  <path id="4" d="m600.47 170.21c0 10.305-8.3536 18.658-18.658 18.658-10.304 0-18.658-8.3535-18.658-18.658 0-10.305 8.3534-18.658 18.658-18.658 10.305-9e-5 18.658 8.3534 18.658 18.658z" color="#000000" color-rendering="auto" dominant-baseline="auto" fill="#fff" image-rendering="auto" shape-rendering="auto" solid-color="#000000" stop-color="#000000" style="font-feature-settings:normal;font-variant-alternates:normal;font-variant-caps:normal;font-variant-east-asian:normal;font-variant-ligatures:normal;font-variant-numeric:normal;font-variant-position:normal;font-variation-settings:normal;inline-size:0;isolation:auto;mix-blend-mode:normal;shape-margin:0;shape-padding:0;text-decoration-color:#000000;text-decoration-line:none;text-decoration-style:solid;text-indent:0;text-orientation:mixed;text-transform:none;white-space:normal"/>
  <path id="5" d="m770.68 170.21c0 10.305-8.3536 18.658-18.658 18.658-10.304 0-18.658-8.3535-18.658-18.658 0-10.305 8.3534-18.658 18.658-18.658 10.305-9e-5 18.658 8.3534 18.658 18.658z" color="#000000" color-rendering="auto" dominant-baseline="auto" fill="#fff" image-rendering="auto" shape-rendering="auto" solid-color="#000000" stop-color="#000000" style="font-feature-settings:normal;font-variant-alternates:normal;font-variant-caps:normal;font-variant-east-asian:normal;font-variant-ligatures:normal;font-variant-numeric:normal;font-variant-position:normal;font-variation-settings:normal;inline-size:0;isolation:auto;mix-blend-mode:normal;shape-margin:0;shape-padding:0;text-decoration-color:#000000;text-decoration-line:none;text-decoration-style:solid;text-indent:0;text-orientation:mixed;text-transform:none;white-space:normal"/>
</svg>
