<svg version="1.1" viewBox="0 0 575 175" xmlns="http://www.w3.org/2000/svg">
  <g>
    <path id="4" d="m330.82 5.7636c-7.6552 0-13.859 6.2075-13.859 13.863 0 7.6552 6.2039 13.863 13.859 13.863s13.863-6.2074 13.863-13.863c0-7.6551-6.2075-13.863-13.863-13.863zm-15.312 31.273c-9.8066 0-17.838 7.9533-17.838 17.755v42.987c0 3.3523 2.6332 6.0703 5.9878 6.0703 3.3524 0 6.0703-2.718 6.0703-6.0703v-38.757h3.0889s0.0715 101.2 0.0715 107.84c0 4.4957 3.642 8.1332 8.1331 8.1332 4.4889 0 8.1296-3.6375 8.1296-8.1332v-62.622h3.3329v62.622c0 4.4957 3.6398 8.1332 8.1332 8.1332 4.4911 0 8.1654-3.6375 8.1654-8.1332v-107.84h3.1248v38.757c0 3.3523 2.7216 6.0703 6.0739 6.0703 3.3523 0 5.9842-2.718 5.9842-6.0703v-42.987c0-9.802-8.0312-17.755-17.838-17.755z" fill="#fff"/>
    <path d="m297.67 62.176v35.604c0 3.3524 2.6334 6.0708 5.9879 6.0708 3.3524 0 6.0698-2.7185 6.0698-6.0708v-35.604zm15.149 0c4e-3 5.5822 0.0697 98.238 0.0697 104.69 0 4.4957 3.6416 8.1339 8.1328 8.1339 4.4889 0 8.1295-3.6382 8.1295-8.1339v-62.622h3.3334v62.622c0 4.4957 3.6393 8.1339 8.1328 8.1339 4.4911 0 8.166-3.6382 8.166-8.1339v-104.69zm39.088 0v35.604c0 3.3524 2.7219 6.0708 6.0742 6.0708 3.3523 0 5.9835-2.7185 5.9835-6.0708v-35.604z" fill="#0dbfff" stop-color="#000000"/>
    <path id="2" d="m132.37 5.7635c-7.6552 0-13.859 6.2075-13.859 13.863 0 7.6552 6.2039 13.863 13.859 13.863s13.863-6.2074 13.863-13.863c0-7.6551-6.2075-13.863-13.863-13.863zm-15.312 31.273c-9.8066 0-17.838 7.9533-17.838 17.755v42.987c0 3.3523 2.6332 6.0703 5.9878 6.0703 3.3524 0 6.0703-2.718 6.0703-6.0703v-38.757h3.0889s0.0715 101.2 0.0715 107.84c0 4.4957 3.642 8.1332 8.1331 8.1332 4.4889 0 8.1296-3.6375 8.1296-8.1332v-62.622h3.3329v62.622c0 4.4957 3.6398 8.1332 8.1332 8.1332 4.4911 0 8.1654-3.6375 8.1654-8.1332v-107.84h3.1248v38.757c0 3.3523 2.7216 6.0703 6.0739 6.0703 3.3523 0 5.9842-2.718 5.9842-6.0703v-42.987c0-9.802-8.0312-17.755-17.838-17.755z" fill="#fff"/>
    <path d="m114.41 118.59c0.015 23.311 0.0321 45.302 0.0321 48.278 0 4.4957 3.6416 8.1339 8.1328 8.1339 4.4889 0 8.1295-3.6382 8.1295-8.1339v-48.278zm19.628 0v48.278c0 4.4957 3.6393 8.1339 8.1328 8.1339 4.4911 0 8.166-3.6382 8.166-8.1339v-48.278z" fill="#0dbfff" stop-color="#000000"/>
    <path id="1" d="m33.15 5.7637c-7.6552 0-13.859 6.2075-13.859 13.863 0 7.6552 6.2039 13.863 13.859 13.863s13.863-6.2074 13.863-13.863c0-7.6551-6.2075-13.863-13.863-13.863zm-15.312 31.273c-9.8066 0-17.838 7.9533-17.838 17.755v42.987c0 3.3523 2.6332 6.0703 5.9878 6.0703 3.3524 0 6.0703-2.718 6.0703-6.0703v-38.757h3.0889s0.07146 101.2 0.07146 107.84c0 4.4957 3.642 8.1332 8.1331 8.1332 4.4889 0 8.1296-3.6375 8.1296-8.1332v-62.622h3.3329v62.622c0 4.4957 3.6398 8.1332 8.1332 8.1332 4.4911 0 8.1654-3.6375 8.1654-8.1332v-107.84h3.1248v38.757c0 3.3523 2.7216 6.0703 6.0739 6.0703 3.3523 0 5.9842-2.718 5.9842-6.0703v-42.987c0-9.802-8.0312-17.755-17.838-17.755z" fill="#fff"/>
    <path d="m15.194 146.79c0.0043 6.5258 0.01284 18.835 0.01284 20.072 0 4.4957 3.6416 8.1339 8.1328 8.1339 4.4889 0 8.1295-3.6382 8.1295-8.1339v-20.072zm19.609 0v20.072c0 4.4957 3.6393 8.1339 8.1328 8.1339 4.4911 0 8.166-3.6382 8.166-8.1339v-20.072z" fill="#0dbfff" stop-color="#000000"/>
    <path id="3" d="m231.6 5.7636c-7.6552 0-13.859 6.2075-13.859 13.863 0 7.6552 6.2039 13.863 13.859 13.863s13.863-6.2074 13.863-13.863c0-7.6551-6.2075-13.863-13.863-13.863zm-15.312 31.273c-9.8066 0-17.838 7.9533-17.838 17.755v42.987c0 3.3523 2.6332 6.0703 5.9878 6.0703 3.3524 0 6.0703-2.718 6.0703-6.0703v-38.757h3.0889s0.0715 101.2 0.0715 107.84c0 4.4957 3.642 8.1332 8.1331 8.1332 4.4889 0 8.1296-3.6375 8.1296-8.1332v-62.622h3.3329v62.622c0 4.4957 3.6398 8.1332 8.1332 8.1332 4.4911 0 8.1654-3.6375 8.1654-8.1332v-107.84h3.1248v38.757c0 3.3523 2.7216 6.0703 6.0739 6.0703 3.3523 0 5.9842-2.718 5.9842-6.0703v-42.987c0-9.802-8.0312-17.755-17.838-17.755z" fill="#fff"/>
    <path d="m198.45 90.382v7.3975c0 3.3524 2.6334 6.0708 5.9879 6.0708 3.3524 0 6.0698-2.7185 6.0698-6.0708v-7.3975zm15.168 0c0.0214 30.001 0.0509 71.77 0.0509 76.484 0 4.4957 3.6416 8.1339 8.1328 8.1339 4.4889 0 8.1295-3.6382 8.1295-8.1339v-62.622h3.3334v62.622c0 4.4957 3.6393 8.1339 8.1328 8.1339 4.4911 0 8.166-3.6382 8.166-8.1339v-76.484zm39.07 0v7.3975c0 3.3524 2.7218 6.0708 6.0742 6.0708 3.3523 0 5.9835-2.7185 5.9835-6.0708v-7.3975z" fill="#0dbfff" stop-color="#000000"/>
    <path id="5" d="m430.04 5.7636c-7.6552 0-13.859 6.2075-13.859 13.863 0 7.6552 6.2039 13.863 13.859 13.863 7.6552 0 13.863-6.2074 13.863-13.863 0-7.6551-6.2075-13.863-13.863-13.863zm-15.312 31.273c-9.8066 0-17.838 7.9533-17.838 17.755v42.987c0 3.3523 2.6332 6.0703 5.9878 6.0703 3.3524 0 6.0703-2.718 6.0703-6.0703v-38.757h3.0889s0.0715 101.2 0.0715 107.84c0 4.4957 3.642 8.1332 8.1331 8.1332 4.4889 0 8.1296-3.6375 8.1296-8.1332v-62.622h3.3329v62.622c0 4.4957 3.6398 8.1332 8.1332 8.1332 4.4911 0 8.1654-3.6375 8.1654-8.1332v-107.84h3.1248v38.757c0 3.3523 2.7216 6.0703 6.0739 6.0703 3.3523 0 5.9842-2.718 5.9842-6.0703v-42.987c0-9.802-8.0312-17.755-17.838-17.755z" fill="#fff"/>
    <path d="m414.73 37.037c-9.8066 0-17.838 7.954-17.838 17.756v42.987c0 3.3524 2.6334 6.0708 5.9879 6.0708 3.3524 0 6.0698-2.7185 6.0698-6.0708v-38.757h3.089s0.0719 101.2 0.0719 107.84c0 4.4957 3.6416 8.1339 8.1328 8.1339 4.4889 0 8.1295-3.6382 8.1295-8.1339v-62.622h3.3334v62.622c0 4.4957 3.6393 8.1339 8.1328 8.1339 4.4911 0 8.166-3.6382 8.166-8.1339v-107.84h3.1244v38.757c0 3.3524 2.7219 6.0708 6.0742 6.0708 3.3523 0 5.9835-2.7185 5.9835-6.0708v-42.987c0-9.8019-8.0312-17.756-17.838-17.756z" fill="#0dbfff" stop-color="#000000"/>
    <path id="6" d="m558.95 0v7.5137h-7.5117v7.0117h7.5117v7.5117h7.0117v-7.5117h7.5117v-7.0117h-7.5117v-7.5137zm-29.68 5.7637c-7.6552 0-13.859 6.2081-13.859 13.863s6.2042 13.861 13.859 13.861c7.6551 0 13.861-6.2062 13.861-13.861s-6.2062-13.863-13.861-13.863zm-15.312 31.273c-9.8066 0-17.838 7.9539-17.838 17.756v42.986c0 3.3523 2.6337 6.0703 5.9883 6.0703 3.3523 0 6.0703-2.718 6.0703-6.0703v-38.758h3.0879s0.0723 101.2 0.0723 107.85c0 4.4957 3.6417 8.1328 8.1328 8.1328 4.4889 0 8.1289-3.6371 8.1289-8.1328v-62.623h3.334v62.623c0 4.4957 3.6393 8.1328 8.1328 8.1328 4.4911 0 8.166-3.6371 8.166-8.1328v-107.85h3.125v38.758c0 3.3523 2.7219 6.0703 6.0742 6.0703 3.3523 0 5.9824-2.718 5.9824-6.0703v-42.986c0-9.802-8.0294-17.756-17.836-17.756z" fill="#0dbfff"/>
  </g>
</svg>
